<?xml version="1.0" encoding="UTF-8" standalone="no"?>
<svg
   xmlns:dc="http://purl.org/dc/elements/1.1/"
   xmlns:cc="http://creativecommons.org/ns#"
   xmlns:rdf="http://www.w3.org/1999/02/22-rdf-syntax-ns#"
   xmlns:svg="http://www.w3.org/2000/svg"
   xmlns="http://www.w3.org/2000/svg"
   xmlns:sodipodi="http://sodipodi.sourceforge.net/DTD/sodipodi-0.dtd"
   xmlns:inkscape="http://www.inkscape.org/namespaces/inkscape"
   width="48"
   height="48"
   viewBox="0 0 12.7 12.7"
   version="1.1"
   id="svg8"
   inkscape:version="1.0.2 (e86c870879, 2021-01-15)"
   sodipodi:docname="folder-interne.svg">
  <defs
     id="defs2" />
  <sodipodi:namedview
     id="base"
     pagecolor="#ffffff"
     bordercolor="#666666"
     borderopacity="1.0"
     inkscape:pageopacity="0.0"
     inkscape:pageshadow="2"
     inkscape:zoom="3.959798"
     inkscape:cx="-90.736781"
     inkscape:cy="48.797487"
     inkscape:document-units="mm"
     inkscape:current-layer="layer1"
     inkscape:document-rotation="0"
     showgrid="true"
     units="px"
     inkscape:window-width="1920"
     inkscape:window-height="1028"
     inkscape:window-x="0"
     inkscape:window-y="24"
     inkscape:window-maximized="1">
    <inkscape:grid
       type="xygrid"
       id="grid835" />
  </sodipodi:namedview>
  <metadata
     id="metadata5">
    <rdf:RDF>
      <cc:Work
         rdf:about="">
        <dc:format>image/svg+xml</dc:format>
        <dc:type
           rdf:resource="http://purl.org/dc/dcmitype/StillImage" />
        <dc:title></dc:title>
      </cc:Work>
    </rdf:RDF>
  </metadata>
  <g
     inkscape:label="Capa 1"
     inkscape:groupmode="layer"
     id="layer1">
    <path
       id="path843"
       style="fill:#a3be8c;stroke-width:0.2;stroke-linecap:round;stroke-linejoin:round;fill-opacity:1;stroke:#8daf71;stroke-opacity:1;stroke-miterlimit:4;stroke-dasharray:none"
       d="M 3.7041668,2.9104166 H 7.6729167 L 11.90625,8.7312498 H 3.7041668 Z"
       sodipodi:nodetypes="ccccc" />
    <path
       id="path840"
       style="fill:#8eac75;stroke-width:0.2;stroke-linecap:round;stroke-linejoin:round;fill-opacity:1;stroke:#80a264;stroke-opacity:1;stroke-miterlimit:4;stroke-dasharray:none"
       d="M 1.8520834,2.9104166 H 5.8208333 L 10.054167,8.7312498 H 1.8520834 Z"
       sodipodi:nodetypes="ccccc" />
    <path
       id="rect837"
       style="fill:#87a7a9;fill-opacity:1;stroke-width:0.75590552;stroke-linecap:round;stroke-linejoin:round;stroke:#769b9d;stroke-opacity:1;stroke-miterlimit:4;stroke-dasharray:none"
       d="M 5 11 C 3.9999997 11 3 12 3 13 L 3 19 L 3 33 L 3 44 C 3 44.554 3.4459996 45 4 45 L 44 45 C 44.554 45 45 44.554 45 44 L 45 19 C 45 18.446 44.554 18 44 18 L 20.091797 18 L 15 11 L 5 11 z "
       transform="scale(0.26458333)" />
    <rect
       style="fill:#f7f7f7;fill-opacity:1;stroke-width:1;stroke-linecap:round;stroke-linejoin:round"
       id="rect855"
       width="3.7041667"
       height="0.79374999"
       x="7.4083333"
       y="5.8208332"
       rx="0.39687499"
       ry="0.39687499" />
    <g
       id="g881"
       transform="matrix(1.239495,0,0,1.239495,-1.5207915,-1.798507)">
      <path
         style="fill:#ffffff;fill-opacity:1;stroke:none;stroke-width:0.0264583;stroke-linecap:round;stroke-linejoin:round;stroke-miterlimit:4;stroke-dasharray:none;stroke-opacity:0.168478"
         d="M 6.3499985,6.8791664 A 1.8520833,1.8520833 0 0 0 4.4979152,8.7312497 1.8520833,1.8520833 0 0 0 6.3499985,10.583333 1.8520833,1.8520833 0 0 0 8.2020818,8.7312497 1.8520833,1.8520833 0 0 0 6.3499985,6.8791664 Z m -0.00827,0.2656169 A 1.5780566,1.5780566 0 0 1 7.9199286,8.7229815 1.5780566,1.5780566 0 0 1 6.3417303,10.30118 1.5780566,1.5780566 0 0 1 4.7635321,8.7229815 1.5780566,1.5780566 0 0 1 6.3417303,7.1447833 Z"
         id="path8810" />
      <path
         style="color:#000000;font-style:normal;font-variant:normal;font-weight:normal;font-stretch:normal;font-size:medium;line-height:normal;font-family:sans-serif;font-variant-ligatures:normal;font-variant-position:normal;font-variant-caps:normal;font-variant-numeric:normal;font-variant-alternates:normal;font-feature-settings:normal;text-indent:0;text-align:start;text-decoration:none;text-decoration-line:none;text-decoration-style:solid;text-decoration-color:#000000;letter-spacing:normal;word-spacing:normal;text-transform:none;writing-mode:lr-tb;direction:ltr;text-orientation:mixed;dominant-baseline:auto;baseline-shift:baseline;text-anchor:start;white-space:normal;shape-padding:0;clip-rule:nonzero;display:inline;overflow:visible;visibility:visible;isolation:auto;mix-blend-mode:normal;color-interpolation:sRGB;color-interpolation-filters:linearRGB;solid-color:#000000;solid-opacity:1;vector-effect:none;fill:#ffffff;fill-opacity:1;fill-rule:nonzero;stroke:none;stroke-width:0.185208;stroke-linecap:butt;stroke-linejoin:miter;stroke-miterlimit:4;stroke-dasharray:none;stroke-dashoffset:0;stroke-opacity:1;color-rendering:auto;image-rendering:auto;shape-rendering:auto;text-rendering:auto;enable-background:accumulate"
         d="m 6.6218166,7.1711383 c -0.050516,0.2247315 -0.078175,0.4407986 -0.085266,0.6490559 a 0.26458333,0.26458333 0 0 1 0.070797,-0.00982 0.26458333,0.26458333 0 0 1 0.1142049,0.026355 c 0.00708,-0.199277 0.030816,-0.4055951 0.080098,-0.6232178 A 1.5780566,1.5780566 0 0 0 6.6218166,7.1711383 Z M 5.8869777,7.2129962 A 1.5780566,1.5780566 0 0 0 5.5939723,7.3344358 C 5.4241145,7.6260514 5.309079,7.917247 5.2405055,8.2072507 a 0.26458333,0.26458333 0 0 1 0.05116,-0.00517 0.26458333,0.26458333 0 0 1 0.1291911,0.034106 C 5.5028449,7.8989029 5.651391,7.5587151 5.8869777,7.2129962 Z m 1.4164511,0.260966 C 7.1427566,7.6327387 6.9725488,7.7689076 6.7954494,7.8894407 a 0.26458333,0.26458333 0 0 1 0.075964,0.173116 C 7.0736887,7.9290492 7.2643808,7.7729357 7.4434717,7.594885 A 1.5780566,1.5780566 0 0 0 7.3034288,7.4739622 Z m 0.243396,0.2325439 C 7.2296074,7.949876 6.9789459,8.2178826 6.7923488,8.5080076 a 0.26458333,0.26458333 0 0 1 0.1643311,0.0863 C 7.1319815,8.3289588 7.3625431,8.0817923 7.6589627,7.8548175 A 1.5780566,1.5780566 0 0 0 7.5468248,7.7065061 Z M 6.3525824,8.1447222 C 6.0992127,8.2576748 5.8270022,8.3302353 5.5329942,8.3586627 a 0.26458333,0.26458333 0 0 1 0.023254,0.1080037 0.26458333,0.26458333 0 0 1 -0.010335,0.073381 C 5.8736362,8.5075891 6.1775779,8.4235627 6.4595526,8.2940671 A 0.26458333,0.26458333 0 0 1 6.3525824,8.1447222 Z m 0.3886067,0.1581299 a 0.26458333,0.26458333 0 0 1 -0.1338419,0.03669 0.26458333,0.26458333 0 0 1 -0.041858,-0.0031 c 0.010431,0.074193 0.022938,0.1475744 0.038757,0.2196248 a 0.26458333,0.26458333 0 0 1 0.1550293,-0.050126 0.26458333,0.26458333 0 0 1 0.017053,5.159e-4 C 6.7617613,8.4396342 6.7504637,8.3717499 6.7411891,8.3028521 Z m -1.9290812,0.040308 a 1.5780566,1.5780566 0 0 0 -0.034623,0.1819011 c 0.089543,0.011925 0.1756266,0.016284 0.2625163,0.022221 A 0.26458333,0.26458333 0 0 1 5.0270819,8.4666664 0.26458333,0.26458333 0 0 1 5.048786,8.3627968 C 4.970291,8.3570068 4.8931498,8.3539668 4.8121079,8.3431601 Z m 0.3601848,0.359668 C 5.1624468,8.8942382 5.1669267,9.0850497 5.19348,9.2748859 5.0521879,9.1884352 4.9164365,9.0861379 4.7842026,8.9730954 a 1.5780566,1.5780566 0 0 0 0.078548,0.2966227 C 4.9345686,9.3220857 5.00808,9.370649 5.0823757,9.416996 a 0.26458333,0.26458333 0 0 1 0.2501139,-0.179834 0.26458333,0.26458333 0 0 1 0.039791,0.0031 C 5.3480768,9.0688967 5.339176,8.8971717 5.3474758,8.7250486 a 0.26458333,0.26458333 0 0 1 -0.055811,0.0062 0.26458333,0.26458333 0 0 1 -0.1193725,-0.028422 z M 6.5629054,8.9472572 C 6.4977945,9.1036566 6.4471372,9.2651096 6.4094264,9.4304318 a 0.26458333,0.26458333 0 0 1 0.00465,-5.291e-4 0.26458333,0.26458333 0 0 1 0.1725993,0.064596 c 0.033903,-0.1582925 0.077687,-0.3131402 0.1384928,-0.461975 a 0.26458333,0.26458333 0 0 1 -0.162264,-0.085266 z m 0.3669026,0.025838 a 0.26458333,0.26458333 0 0 1 -0.1705321,0.062012 0.26458333,0.26458333 0 0 1 -5.16e-4,0 c 0.068198,0.1625736 0.1523572,0.3183827 0.2480461,0.469222 A 0.26458333,0.26458333 0 0 1 7.1530502,9.3896074 C 7.0674453,9.2550428 6.9917687,9.1167147 6.929808,8.9730952 Z M 7.7819524,9.3653195 C 7.6674709,9.4112842 7.5560249,9.4501684 7.4460556,9.4852088 a 0.26458333,0.26458333 0 0 1 0.05116,0.1565796 0.26458333,0.26458333 0 0 1 -5.292e-4,0.020153 c 0.048559,-0.014949 0.096578,-0.028114 0.1457277,-0.044958 A 1.5780566,1.5780566 0 0 0 7.7819402,9.3653189 Z M 5.5955226,9.4753904 a 0.26458333,0.26458333 0 0 1 0.00155,0.026355 0.26458333,0.26458333 0 0 1 -0.044958,0.1472779 C 5.7499107,9.7242883 5.9562988,9.776797 6.1727485,9.803019 A 0.26458333,0.26458333 0 0 1 6.149494,9.6944984 0.26458333,0.26458333 0 0 1 6.1598293,9.6216346 C 5.9632551,9.5954085 5.7752135,9.5463714 5.5955226,9.4753904 Z M 6.9711492,9.600964 C 6.869385,9.618377 6.7699144,9.6303912 6.6724595,9.6371376 a 0.26458333,0.26458333 0 0 1 0.0062,0.057361 0.26458333,0.26458333 0 0 1 -0.031006,0.1235067 C 6.764601,9.8120753 6.8841928,9.7985483 7.006288,9.7782143 a 0.26458333,0.26458333 0 0 1 -0.03824,-0.1364258 0.26458333,0.26458333 0 0 1 0.0031,-0.040824 z M 5.4813177,9.7208533 a 0.26458333,0.26458333 0 0 1 -0.1488281,0.045475 0.26458333,0.26458333 0 0 1 -0.029456,-0.00156 c 0.019931,0.065835 0.041113,0.1313019 0.064079,0.1968873 A 1.5780566,1.5780566 0 0 0 5.6280788,10.12858 C 5.5703257,9.9925931 5.5226101,9.8566332 5.4813177,9.7208533 Z m 1.9678386,0.072864 a 0.26458333,0.26458333 0 0 1 -0.153479,0.104903 c 0.013502,0.016444 0.026027,0.033308 0.039791,0.049609 A 1.5780566,1.5780566 0 0 0 7.4729275,9.8211058 c -0.00786,-0.00913 -0.015669,-0.018338 -0.02377,-0.027389 z M 6.5231146,9.9353105 a 0.26458333,0.26458333 0 0 1 -0.1090373,0.02377 0.26458333,0.26458333 0 0 1 -0.080099,-0.01292 c -0.00766,0.1166435 -0.011251,0.2345815 -0.0093,0.3539835 a 1.5780566,1.5780566 0 0 0 0.017053,0.001 1.5780566,1.5780566 0 0 0 0.168982,-0.01085 c -0.00114,-0.120382 0.00378,-0.238395 0.012402,-0.3550163 z"
         id="path867" />
      <path
         style="fill:#ffffff;fill-opacity:1;stroke:none;stroke-width:0.185208;stroke-linecap:round;stroke-linejoin:round;stroke-miterlimit:4;stroke-dasharray:none;stroke-opacity:1"
         d="M 6.6073472,7.8103757 A 0.26458333,0.26458333 0 0 0 6.3427638,8.074959 0.26458333,0.26458333 0 0 0 6.6073472,8.3395424 0.26458333,0.26458333 0 0 0 6.8719305,8.074959 0.26458333,0.26458333 0 0 0 6.6073472,7.8103757 Z M 5.2916652,8.2020831 A 0.26458333,0.26458333 0 0 0 5.0270819,8.4666664 0.26458333,0.26458333 0 0 0 5.2916652,8.7312497 0.26458333,0.26458333 0 0 0 5.5562485,8.4666664 0.26458333,0.26458333 0 0 0 5.2916652,8.2020831 Z M 6.7592759,8.5059405 A 0.26458333,0.26458333 0 0 0 6.4946925,8.7705238 0.26458333,0.26458333 0 0 0 6.7592759,9.0351072 0.26458333,0.26458333 0 0 0 7.0238592,8.7705238 0.26458333,0.26458333 0 0 0 6.7592759,8.5059405 Z M 5.3324896,9.237162 A 0.26458333,0.26458333 0 0 0 5.0679063,9.5017452 0.26458333,0.26458333 0 0 0 5.3324896,9.7663286 0.26458333,0.26458333 0 0 0 5.5970729,9.5017452 0.26458333,0.26458333 0 0 0 5.3324896,9.237162 Z M 7.2326321,9.3772051 A 0.26458333,0.26458333 0 0 0 6.9680488,9.6417884 0.26458333,0.26458333 0 0 0 7.2326321,9.9063717 0.26458333,0.26458333 0 0 0 7.4972155,9.6417884 0.26458333,0.26458333 0 0 0 7.2326321,9.3772051 Z m -0.8185548,0.05271 A 0.26458333,0.26458333 0 0 0 6.149494,9.6944984 0.26458333,0.26458333 0 0 0 6.4140773,9.9590818 0.26458333,0.26458333 0 0 0 6.6786606,9.6944984 0.26458333,0.26458333 0 0 0 6.4140773,9.4299151 Z"
         id="path884" />
    </g>
  </g>
</svg>
