<?xml version="1.0" encoding="UTF-8" standalone="no"?>
<svg
   xmlns:dc="http://purl.org/dc/elements/1.1/"
   xmlns:cc="http://creativecommons.org/ns#"
   xmlns:rdf="http://www.w3.org/1999/02/22-rdf-syntax-ns#"
   xmlns:svg="http://www.w3.org/2000/svg"
   xmlns="http://www.w3.org/2000/svg"
   xmlns:sodipodi="http://sodipodi.sourceforge.net/DTD/sodipodi-0.dtd"
   xmlns:inkscape="http://www.inkscape.org/namespaces/inkscape"
   height="48"
   width="48"
   version="1.1"
   id="svg6"
   sodipodi:docname="2048.svg"
   inkscape:version="1.0.2 (e86c870879, 2021-01-15)">
  <metadata
     id="metadata12">
    <rdf:RDF>
      <cc:Work
         rdf:about="">
        <dc:format>image/svg+xml</dc:format>
        <dc:type
           rdf:resource="http://purl.org/dc/dcmitype/StillImage" />
        <dc:title></dc:title>
      </cc:Work>
    </rdf:RDF>
  </metadata>
  <defs
     id="defs10" />
  <sodipodi:namedview
     pagecolor="#ffffff"
     bordercolor="#666666"
     borderopacity="1"
     objecttolerance="10"
     gridtolerance="10"
     guidetolerance="10"
     inkscape:pageopacity="0"
     inkscape:pageshadow="2"
     inkscape:window-width="1920"
     inkscape:window-height="1031"
     id="namedview8"
     showgrid="false"
     inkscape:zoom="13.376103"
     inkscape:cx="8.2943403"
     inkscape:cy="17.2874"
     inkscape:window-x="0"
     inkscape:window-y="24"
     inkscape:window-maximized="1"
     inkscape:current-layer="svg6"
     inkscape:document-rotation="0" />
  <circle
     cx="23.940615"
     cy="31.534513"
     fill="#74a2f3"
     opacity=".99"
     id="circle2"
     style="fill:#a0b2c0;fill-opacity:1"
     transform="matrix(1.75830584759 0 0 1.75830608345 -18.15909274367 -30.97874795549)"
     r="13.232998" />
  <path
     d="m 10.348973,17.77746 c -1.1846513,0 -2.1285593,0.416924 -2.8296806,1.251017 -0.7011201,0.828047 -1.0391953,1.841442 -1.0150186,3.038184 l 0.018336,0.04582 h 2.5111984 c 0,-0.676944 0.1108828,-1.225772 0.3345207,-1.642819 0.229677,-0.417045 0.5575605,-0.625508 0.9806501,-0.625508 0.411002,0 0.72411,0.173304 0.941699,0.51782 0.21759,0.344517 0.327648,0.798891 0.327648,1.360997 0,0.411002 -0.106941,0.866206 -0.318483,1.367869 -0.205499,0.501665 -0.546696,1.091893 -1.024183,1.768838 l -3.5995376,4.559567 v 1.750506 H 14.47321 v -2.059823 h -4.461044 l 1.723012,-2.465374 c 0.882445,-1.112122 1.510953,-2.012339 1.885691,-2.701371 0.380781,-0.689032 0.570518,-1.43779 0.570518,-2.247706 0,-1.208829 -0.338074,-2.16522 -1.015018,-2.866341 -0.676951,-0.701121 -1.618567,-1.051678 -2.827396,-1.051678 z m 9.410121,0 c -1.178609,0 -2.119395,0.460616 -2.820516,1.379326 -0.695077,0.912666 -1.042514,2.245411 -1.042514,3.998213 v 2.836555 c 0,1.758846 0.350558,3.094711 1.051679,4.007377 0.70112,0.906621 1.645028,1.360996 2.82968,1.360996 1.172565,0 2.104818,-0.454375 2.799895,-1.360996 0.701121,-0.912666 1.051679,-2.248531 1.051679,-4.007377 v -2.836555 c 0,-1.752802 -0.350558,-3.085547 -1.051679,-3.998213 -0.701121,-0.91871 -1.639616,-1.379326 -2.818224,-1.379326 z m 18.485719,0 c -1.087945,0 -1.963196,0.324762 -2.628051,0.971485 -0.664856,0.646724 -0.99898,1.553181 -0.99898,2.719702 0,0.664855 0.148337,1.249672 0.4445,1.757381 0.296163,0.507707 0.706846,0.905077 1.232687,1.189153 -0.598371,0.296162 -1.066058,0.719329 -1.404529,1.269346 -0.338473,0.543974 -0.508656,1.169361 -0.508656,1.876525 0,1.220918 0.356799,2.159413 1.070008,2.818225 0.71321,0.652768 1.647755,0.980652 2.802187,0.98065 1.154431,0 2.085856,-0.327882 2.79302,-0.98065 0.707165,-0.652768 1.060844,-1.591263 1.060844,-2.818225 0,-0.707164 -0.170183,-1.332551 -0.508654,-1.876525 -0.338473,-0.543973 -0.803039,-0.967139 -1.395366,-1.269346 0.519796,-0.284076 0.927359,-0.681446 1.223522,-1.189153 0.302207,-0.507709 0.453666,-1.092526 0.453666,-1.757381 0,-1.166521 -0.334955,-2.072978 -1.005855,-2.719702 -0.664855,-0.646723 -1.542397,-0.971485 -2.630343,-0.971485 z m -8.876261,0.190173 -4.504578,8.704419 0.135184,1.613032 h 4.378559 v 2.88467 h 2.566188 v -2.88467 h 1.143328 v -2.066698 h -1.143328 v -8.250753 z m 8.876261,1.876524 c 0.338473,0 0.594577,0.157701 0.769856,0.471996 0.181326,0.314295 0.272658,0.740583 0.272658,1.278512 0,0.562105 -0.08822,1.000876 -0.263492,1.315172 -0.17528,0.314295 -0.431385,0.471994 -0.769856,0.471994 -0.338472,0 -0.597697,-0.157699 -0.779022,-0.471994 -0.17528,-0.32034 -0.263493,-0.759111 -0.263493,-1.315172 0,-0.550017 0.08822,-0.979425 0.263493,-1.287676 0.17528,-0.308253 0.431384,-0.462832 0.769856,-0.462832 z m -18.513215,0.06416 h 0.055 c 0.398913,-0.03022 0.7089,0.200088 0.932533,0.689662 0.223634,0.489576 0.336813,1.266422 0.336813,2.330191 v 3.27189 c 0,1.081902 -0.110062,1.86811 -0.327647,2.357686 -0.21759,0.489575 -0.524456,0.716763 -0.923371,0.680498 h -0.05498 c -0.404968,0.03626 -0.720368,-0.190925 -0.944001,-0.6805 -0.223633,-0.49562 -0.334521,-1.281828 -0.334521,-2.357686 v -3.271891 c 0,-1.063768 0.107763,-1.840614 0.325357,-2.33019 0.217588,-0.489575 0.529868,-0.719883 0.934824,-0.689662 z m 9.591129,1.741342 0.05498,0.0091 v 4.559579 h -2.176672 l 1.986505,-4.323569 z m 8.922086,3.78971 c 0.386827,0 0.699105,0.174133 0.934827,0.524694 0.23572,0.344516 0.35285,0.814494 0.35285,1.406821 0,0.604414 -0.117135,1.078343 -0.35285,1.422859 -0.22968,0.338473 -0.538836,0.508655 -0.925661,0.508655 -0.398915,0 -0.714313,-0.170182 -0.943991,-0.508655 -0.229679,-0.344516 -0.343686,-0.818445 -0.343686,-1.422859 0,-0.592327 0.114004,-1.062305 0.343686,-1.406821 0.229678,-0.350561 0.541957,-0.524696 0.934825,-0.524694 z"
     fill="#ffffff"
     id="path4"
     style="stroke-width:1.17311" />
</svg>
