<?xml version="1.0" encoding="UTF-8" standalone="no"?>
<svg
   xmlns:dc="http://purl.org/dc/elements/1.1/"
   xmlns:cc="http://creativecommons.org/ns#"
   xmlns:rdf="http://www.w3.org/1999/02/22-rdf-syntax-ns#"
   xmlns:svg="http://www.w3.org/2000/svg"
   xmlns="http://www.w3.org/2000/svg"
   xmlns:sodipodi="http://sodipodi.sourceforge.net/DTD/sodipodi-0.dtd"
   xmlns:inkscape="http://www.inkscape.org/namespaces/inkscape"
   height="48"
   width="48"
   version="1.1"
   id="svg6"
   sodipodi:docname="view-pim-calendar.svg"
   inkscape:version="1.0.2 (e86c870879, 2021-01-15)">
  <metadata
     id="metadata12">
    <rdf:RDF>
      <cc:Work
         rdf:about="">
        <dc:format>image/svg+xml</dc:format>
        <dc:type
           rdf:resource="http://purl.org/dc/dcmitype/StillImage" />
        <dc:title></dc:title>
      </cc:Work>
    </rdf:RDF>
  </metadata>
  <defs
     id="defs10" />
  <sodipodi:namedview
     pagecolor="#ffffff"
     bordercolor="#666666"
     borderopacity="1"
     objecttolerance="10"
     gridtolerance="10"
     guidetolerance="10"
     inkscape:pageopacity="0"
     inkscape:pageshadow="2"
     inkscape:window-width="1920"
     inkscape:window-height="1031"
     id="namedview8"
     showgrid="false"
     inkscape:zoom="13.376103"
     inkscape:cx="8.2943403"
     inkscape:cy="20.277808"
     inkscape:window-x="0"
     inkscape:window-y="24"
     inkscape:window-maximized="1"
     inkscape:current-layer="svg6"
     inkscape:document-rotation="0" />
  <circle
     cx="23.940615"
     cy="31.534513"
     fill="#74a2f3"
     opacity=".99"
     id="circle2"
     style="fill:#85a5c6;fill-opacity:1"
     transform="matrix(1.75830584759 0 0 1.75830608345 -18.15909274367 -30.97874795549)"
     r="13.232998" />
  <path
     id="circle842"
     style="fill:#f5947f;fill-opacity:1;stroke-width:1.75831"
     d="M 23.892578 1.2011719 A 23.267658 23.267661 0 0 0 4.7539062 11.300781 L 43.117188 11.300781 A 23.267658 23.267661 0 0 0 23.935547 1.2011719 A 23.267658 23.267661 0 0 0 23.892578 1.2011719 z " />
  <circle
     style="fill:#ffffff;fill-opacity:1;stroke:none;stroke-width:1.2;stroke-linecap:square;stroke-opacity:0.992157"
     id="path849"
     cx="15.836551"
     cy="7.8996682"
     r="2.7945614" />
  <circle
     style="fill:#ffffff;fill-opacity:1;stroke:none;stroke-width:1.2;stroke-linecap:square;stroke-opacity:0.992157"
     id="circle847"
     cx="32.447353"
     cy="7.8996682"
     r="2.7945614" />
  <path
     id="path853"
     style="fill:#ffffff;fill-opacity:1;stroke-width:22.7104;stroke-linecap:round;stroke-linejoin:round"
     d="M 23.935831,14.694022 A 14.275134,14.275134 0 0 0 9.6606978,28.969156 14.275134,14.275134 0 0 0 23.935831,43.244283 14.275134,14.275134 0 0 0 38.210962,28.969156 14.275134,14.275134 0 0 0 23.935831,14.694022 Z m 3.620743,5.159274 c 0.733384,0 1.461325,0.13379 2.183598,0.400475 0.733384,0.255575 1.533583,0.772106 2.400312,1.549937 0.877839,0.777833 1.316748,2.05575 1.316748,3.833651 0,2.544624 -0.772113,4.211918 -2.316667,5.000861 -1.544554,0.788946 -2.623056,1.29348 -3.234211,1.515719 -1.344538,0.488923 -2.216993,0.895653 -2.617022,1.217896 -0.844504,0.666714 -1.266056,1.537904 -1.266056,2.615757 v 0.100103 h 9.266672 v 1.950411 H 21.690133 v -1.400402 c 0,-2.577962 0.649051,-4.199813 1.949143,-4.866526 1.300093,-0.666689 2.172548,-1.089514 2.617023,-1.267301 l 1.083561,-0.433425 c 0.288913,-0.111127 0.805441,-0.326611 1.549939,-0.648868 0.744497,-0.33337 1.299838,-0.861885 1.66653,-1.584155 0.355581,-0.711161 0.533542,-1.400293 0.533542,-2.067006 0,-0.666712 -0.08298,-1.22742 -0.249658,-1.683008 -0.166682,-0.455587 -0.50525,-0.956028 -1.016397,-1.500509 -0.511147,-0.544483 -1.316708,-0.816157 -2.416785,-0.816157 -1.811241,0 -3.039621,0.938084 -3.684111,2.815994 l -2.08348,-0.766731 c 0.766722,-1.922358 1.760972,-3.061124 2.98328,-3.416704 1.222308,-0.366693 2.20047,-0.55002 2.933854,-0.55002 z m -9.734312,0.433426 h 1.63358 V 38.03812 h -2.2495 V 22.887272 l -2.500429,1.249576 v -2.30019 z" />
</svg>
