<?xml version="1.0" encoding="UTF-8" standalone="no"?>
<svg
   xmlns:dc="http://purl.org/dc/elements/1.1/"
   xmlns:cc="http://creativecommons.org/ns#"
   xmlns:rdf="http://www.w3.org/1999/02/22-rdf-syntax-ns#"
   xmlns:svg="http://www.w3.org/2000/svg"
   xmlns="http://www.w3.org/2000/svg"
   xmlns:sodipodi="http://sodipodi.sourceforge.net/DTD/sodipodi-0.dtd"
   xmlns:inkscape="http://www.inkscape.org/namespaces/inkscape"
   height="48"
   width="48"
   version="1.1"
   id="svg6"
   sodipodi:docname="deepin-cloud-scan-config-helper.svg"
   inkscape:version="1.0.2 (e86c870879, 2021-01-15)">
  <metadata
     id="metadata12">
    <rdf:RDF>
      <cc:Work
         rdf:about="">
        <dc:format>image/svg+xml</dc:format>
        <dc:type
           rdf:resource="http://purl.org/dc/dcmitype/StillImage" />
        <dc:title></dc:title>
      </cc:Work>
    </rdf:RDF>
  </metadata>
  <defs
     id="defs10" />
  <sodipodi:namedview
     pagecolor="#ffffff"
     bordercolor="#666666"
     borderopacity="1"
     objecttolerance="10"
     gridtolerance="10"
     guidetolerance="10"
     inkscape:pageopacity="0"
     inkscape:pageshadow="2"
     inkscape:window-width="1920"
     inkscape:window-height="1031"
     id="namedview8"
     showgrid="false"
     inkscape:zoom="13.376103"
     inkscape:cx="8.2943403"
     inkscape:cy="17.2874"
     inkscape:window-x="0"
     inkscape:window-y="24"
     inkscape:window-maximized="1"
     inkscape:current-layer="svg6"
     inkscape:document-rotation="0" />
  <circle
     cx="23.940615"
     cy="31.534513"
     fill="#74a2f3"
     opacity=".99"
     id="circle2"
     style="fill:#a9b2b8;fill-opacity:1"
     transform="matrix(1.75830584759 0 0 1.75830608345 -18.15909274367 -30.97874795549)"
     r="13.232998" />
  <rect
     fill="#374548"
     height="27.121414"
     ry="1.0944259"
     width="32.395004"
     x="8.3528471"
     y="10.436906"
     id="rect2"
     style="fill:#ffffff;fill-opacity:0.29898924;stroke-width:0.753372" />
  <path
     d="m 21.283774,16.109274 c -2.388624,0.0013 -4.437852,1.703086 -4.87779,4.050847 -0.04853,-0.0022 -0.09709,-0.0036 -0.145671,-0.0045 -2.74285,-3.89e-4 -4.966466,2.223227 -4.966077,4.966076 4.24e-4,2.742275 2.223802,4.964993 4.966077,4.964605 h 13.944741 c 2.532238,6.2e-5 4.585039,-2.052738 4.584976,-4.584977 6.4e-5,-2.532238 -2.052738,-4.585038 -4.584976,-4.584975 -0.254034,0.0016 -0.507503,0.0242 -0.757786,0.06771 -0.543486,-1.205702 -1.742456,-1.981609 -3.064988,-1.983487 -0.191872,3.38e-4 -0.383366,0.01707 -0.572387,0.05004 -0.797479,-1.786522 -2.569687,-2.938228 -4.526119,-2.941388 z"
     fill="#ffffff"
     id="path4"
     style="stroke-width:0.753372" />
  <path
     d="M 29.447268,7.4234188 V 40.571793 L 41.501222,37.558304 V 10.436907 Z"
     fill="#6f8a91"
     fill-rule="evenodd"
     id="path6"
     style="fill:#ffffff;fill-opacity:1;stroke-width:0.753372" />
  <circle
     cx="11.581585"
     cy="14.419016"
     fill="#d5fff6"
     r="1.5067443"
     id="circle8"
     style="stroke-width:0.753372;fill:#ffffff;fill-opacity:1" />
  <circle
     cx="11.581585"
     cy="19.800245"
     fill="#e9afdd"
     r="1.5067443"
     id="circle10"
     style="stroke-width:0.753372;fill:#ffffff;fill-opacity:1" />
</svg>
