<?xml version="1.0" encoding="UTF-8" standalone="no"?>
<svg
   xmlns:dc="http://purl.org/dc/elements/1.1/"
   xmlns:cc="http://creativecommons.org/ns#"
   xmlns:rdf="http://www.w3.org/1999/02/22-rdf-syntax-ns#"
   xmlns:svg="http://www.w3.org/2000/svg"
   xmlns="http://www.w3.org/2000/svg"
   xmlns:sodipodi="http://sodipodi.sourceforge.net/DTD/sodipodi-0.dtd"
   xmlns:inkscape="http://www.inkscape.org/namespaces/inkscape"
   height="48"
   width="48"
   version="1.1"
   id="svg6"
   sodipodi:docname="elementary-code.svg"
   inkscape:version="1.0.2 (e86c870879, 2021-01-15)">
  <metadata
     id="metadata12">
    <rdf:RDF>
      <cc:Work
         rdf:about="">
        <dc:format>image/svg+xml</dc:format>
        <dc:type
           rdf:resource="http://purl.org/dc/dcmitype/StillImage" />
        <dc:title></dc:title>
      </cc:Work>
    </rdf:RDF>
  </metadata>
  <defs
     id="defs10" />
  <sodipodi:namedview
     pagecolor="#ffffff"
     bordercolor="#666666"
     borderopacity="1"
     objecttolerance="10"
     gridtolerance="10"
     guidetolerance="10"
     inkscape:pageopacity="0"
     inkscape:pageshadow="2"
     inkscape:window-width="1920"
     inkscape:window-height="1031"
     id="namedview8"
     showgrid="false"
     inkscape:zoom="9.458333"
     inkscape:cx="19.988208"
     inkscape:cy="27.738873"
     inkscape:window-x="0"
     inkscape:window-y="24"
     inkscape:window-maximized="1"
     inkscape:current-layer="svg6"
     inkscape:document-rotation="0" />
  <circle
     cx="23.940615"
     cy="31.534513"
     fill="#74a2f3"
     opacity=".99"
     id="circle2"
     style="fill:#b4b5c2;fill-opacity:0.99607831"
     transform="matrix(1.75830584759 0 0 1.75830608345 -18.15909274367 -30.97874795549)"
     r="13.232998" />
  <path
     inkscape:connector-curvature="0"
     id="text820-2"
     d="m 23.009922,6.3147402 c -1.384536,0 -2.485065,0.124254 -3.301585,0.37276 -0.807646,0.239631 -1.39785,0.625704 -1.770609,1.158218 -0.363884,0.523638 -0.545827,1.264719 -0.545827,2.2232438 v 4.26011 0.106503 c 0,0.816521 -0.29732,1.402287 -0.89196,1.757296 -0.59464,0.355009 -1.442225,0.532513 -2.542753,0.532513 v 2.968765 c 1.100528,0 1.948113,0.181942 2.542753,0.545826 0.59464,0.363885 0.89196,0.985151 0.89196,1.863798 v 4.220173 c 0,0.958524 0.181943,1.704044 0.545827,2.236557 0.372759,0.532514 0.958525,0.918587 1.757295,1.158217 0.807646,0.248507 1.912613,0.37276 3.314899,0.37276 V 27.28247 C 22.104649,27.25584 21.48782,27.087215 21.159436,26.776582 20.839928,26.465949 20.680174,25.986687 20.680174,25.338795 v -4.033792 -0.159754 c 0,-1.606416 -1.025089,-2.560504 -3.075267,-2.862261 v -0.159755 c 2.023552,-0.301758 3.048641,-1.313534 3.075267,-3.035328 v -4.033792 c 0,-0.647892 0.164192,-1.1227168 0.492575,-1.4244748 0.328384,-0.310632 0.940774,-0.479262 1.837173,-0.505887 z m 1.851816,0 v 2.809011 c 0.896399,0.02663 1.508789,0.195255 1.837173,0.505887 0.328384,0.301758 0.492575,0.7765828 0.492575,1.4244748 v 4.033792 c 0.02663,1.721794 1.051715,2.73357 3.075267,3.035328 v 0.159755 c -2.050178,0.301757 -3.075267,1.255845 -3.075267,2.862261 v 0.159754 4.033792 c 0,0.647892 -0.159754,1.127154 -0.479262,1.437787 -0.328384,0.310633 -0.945213,0.479262 -1.850486,0.505888 v 2.80901 c 1.402287,0 2.507253,-0.124253 3.314899,-0.37276 0.79877,-0.23963 1.384536,-0.625703 1.757295,-1.158217 0.363885,-0.532513 0.545827,-1.278033 0.545827,-2.236557 v -4.220173 c 0,-0.878647 0.29732,-1.499913 0.89196,-1.863798 0.594641,-0.363884 1.442225,-0.545826 2.542753,-0.545826 v -2.968765 c -1.100528,0 -1.948112,-0.177504 -2.542753,-0.532513 -0.59464,-0.355009 -0.89196,-0.940775 -0.89196,-1.757296 v -0.106503 -4.26011 c 0,-0.9585248 -0.181942,-1.6996058 -0.545827,-2.2232438 -0.372759,-0.532514 -0.962963,-0.918587 -1.770609,-1.158218 -0.81652,-0.248506 -1.917048,-0.37276 -3.301585,-0.37276 z"
     style="font-style:normal;font-variant:normal;font-weight:normal;font-stretch:normal;font-size:40px;line-height:1.25;font-family:'Open Sans Condensed';-inkscape-font-specification:'Open Sans Condensed, ';letter-spacing:0px;word-spacing:0px;fill:#ffffff;fill-opacity:1;stroke:none;stroke-width:0.681618" />
  <path
     id="circle937"
     style="opacity:0.99;fill:#9c9eae;fill-opacity:0.98823529"
     transform="matrix(1.7583058,0,0,1.7583061,-18.159093,-30.978748)"
     d="m 37.173613,31.534513 c 0,1.827096 -0.370288,3.567706 -1.039915,5.15088 -0.669626,1.583174 -1.63859,3.008912 -2.83594,4.206263 -2.394702,2.394701 -5.702952,3.875855 -9.357143,3.875855 -1.827096,0 -3.567706,-0.370288 -5.15088,-1.039915 -1.583174,-0.669626 -3.008913,-1.638589 -4.206263,-2.83594 -1.19735,-1.197351 -2.166314,-2.623089 -2.83594,-4.206263 z"
     sodipodi:nodetypes="cssssscc" />
</svg>
