<?xml version="1.0" encoding="UTF-8" standalone="no"?>
<svg
   xmlns:dc="http://purl.org/dc/elements/1.1/"
   xmlns:cc="http://creativecommons.org/ns#"
   xmlns:rdf="http://www.w3.org/1999/02/22-rdf-syntax-ns#"
   xmlns:svg="http://www.w3.org/2000/svg"
   xmlns="http://www.w3.org/2000/svg"
   xmlns:sodipodi="http://sodipodi.sourceforge.net/DTD/sodipodi-0.dtd"
   xmlns:inkscape="http://www.inkscape.org/namespaces/inkscape"
   height="48"
   width="48"
   version="1.1"
   id="svg6"
   sodipodi:docname="genokick.svg"
   inkscape:version="1.0.2 (e86c870879, 2021-01-15)">
  <metadata
     id="metadata12">
    <rdf:RDF>
      <cc:Work
         rdf:about="">
        <dc:format>image/svg+xml</dc:format>
        <dc:type
           rdf:resource="http://purl.org/dc/dcmitype/StillImage" />
        <dc:title></dc:title>
      </cc:Work>
    </rdf:RDF>
  </metadata>
  <defs
     id="defs10" />
  <sodipodi:namedview
     pagecolor="#ffffff"
     bordercolor="#666666"
     borderopacity="1"
     objecttolerance="10"
     gridtolerance="10"
     guidetolerance="10"
     inkscape:pageopacity="0"
     inkscape:pageshadow="2"
     inkscape:window-width="1920"
     inkscape:window-height="1031"
     id="namedview8"
     showgrid="false"
     inkscape:zoom="9.4583335"
     inkscape:cx="30.071401"
     inkscape:cy="33.319625"
     inkscape:window-x="0"
     inkscape:window-y="24"
     inkscape:window-maximized="1"
     inkscape:current-layer="svg6"
     inkscape:document-rotation="0" />
  <circle
     cx="23.940615"
     cy="31.534513"
     fill="#74a2f3"
     opacity=".99"
     id="circle2"
     style="fill:#96bcb4;fill-opacity:1"
     transform="matrix(1.75830584759 0 0 1.75830608345 -18.15909274367 -30.97874795549)"
     r="13.232998" />
  <g
     id="g41"
     style="fill:#ffffff;fill-opacity:1"
     transform="matrix(0.05905571,0,0,0.05905571,4.912214,6.2532235)">
    <path
       d="m 563.48,58.2 c 11.05,0 20,8.96 20,20 0,67.46 0,249.84 0,317.31 0,11.04 -8.95,20 -20,20 -100.72,0 -382.87,0 -483.59,0 -11.05,0 -20,-8.96 -20,-20 0,-67.47 0,-249.85 0,-317.31 0,-11.04 8.95,-20 20,-20 100.72,0 382.87,0 483.59,0 z"
       id="use39"
       style="fill:#ffffff;fill-opacity:1" />
  </g>
  <g
     id="g45"
     style="fill:#afd18f;fill-opacity:1"
     transform="matrix(0.05905571,0,0,0.05905571,4.912214,6.2532235)">
    <path
       d="m 320,156.4 c 3.1,0 5.62,2.52 5.62,5.62 0,31.01 0,118.43 0,149.44 0,3.1 -2.52,5.62 -5.62,5.62 -1.12,0 1.12,0 0,0 -3.1,0 -5.62,-2.52 -5.62,-5.62 0,-31.01 0,-118.43 0,-149.44 0,-3.1 2.52,-5.62 5.62,-5.62 1.12,0 -1.12,0 0,0 z"
       id="use43"
       style="fill:#afd18f;fill-opacity:1" />
  </g>
  <g
     id="g49"
     style="fill:#afd18f;fill-opacity:1"
     transform="matrix(0.05905571,0,0,0.05905571,4.912214,6.2532235)">
    <path
       d="m 373.41,160.22 c 2.65,0 4.79,2.15 4.79,4.8 0,26.45 0,101.03 0,127.49 0,2.65 -2.14,4.79 -4.79,4.79 -1.29,0 -0.36,0 -1.65,0 -2.65,0 -4.79,-2.14 -4.79,-4.79 0,-26.46 0,-101.04 0,-127.49 0,-2.65 2.14,-4.8 4.79,-4.8 1.29,0 0.36,0 1.65,0 z"
       id="use47"
       style="fill:#afd18f;fill-opacity:1" />
  </g>
  <g
     id="g53"
     style="fill:#afd18f;fill-opacity:1"
     transform="matrix(0.05905571,0,0,0.05905571,4.912214,6.2532235)">
    <path
       d="m 294.49,183.82 c 3.11,0 5.62,2.52 5.62,5.62 0,17.98 0,66.29 0,84.27 0,3.1 -2.51,5.62 -5.62,5.62 -1.12,0 1.13,0 0,0 -3.1,0 -5.61,-2.52 -5.61,-5.62 0,-17.98 0,-66.29 0,-84.27 0,-3.1 2.51,-5.62 5.61,-5.62 1.13,0 -1.12,0 0,0 z"
       id="use51"
       style="fill:#afd18f;fill-opacity:1" />
  </g>
  <g
     id="g57"
     style="fill:#afd18f;fill-opacity:1"
     transform="matrix(0.05905571,0,0,0.05905571,4.912214,6.2532235)">
    <path
       d="m 147.87,208.76 c 3.41,0 6.17,2.77 6.17,6.18 0,14.27 0,50.9 0,65.17 0,3.42 -2.76,6.18 -6.17,6.18 -1.24,0 1.23,0 0,0 -3.42,0 -6.18,-2.76 -6.18,-6.18 0,-14.27 0,-50.9 0,-65.17 0,-3.41 2.76,-6.18 6.18,-6.18 1.23,0 -1.24,0 0,0 z"
       id="use55"
       style="fill:#afd18f;fill-opacity:1" />
  </g>
  <g
     id="g61"
     style="fill:#afd18f;fill-opacity:1"
     transform="matrix(0.05905571,0,0,0.05905571,4.912214,6.2532235)">
    <path
       d="m 238.88,203.15 c 3.41,0 6.18,2.76 6.18,6.18 0,14.27 0,50.89 0,65.16 0,3.42 -2.77,6.18 -6.18,6.18 -1.24,0 1.23,0 0,0 -3.42,0 -6.18,-2.76 -6.18,-6.18 0,-14.27 0,-50.89 0,-65.16 0,-3.42 2.76,-6.18 6.18,-6.18 1.23,0 -1.24,0 0,0 z"
       id="use59"
       style="fill:#afd18f;fill-opacity:1" />
  </g>
  <g
     id="g65"
     style="fill:#afd18f;fill-opacity:1"
     transform="matrix(0.05905571,0,0,0.05905571,4.912214,6.2532235)">
    <path
       d="m 394.83,197.98 c 3.41,0 6.18,2.76 6.18,6.18 0,14.27 0,50.9 0,65.17 0,3.41 -2.77,6.18 -6.18,6.18 -1.23,0 1.24,0 0,0 -3.41,0 -6.18,-2.77 -6.18,-6.18 0,-14.27 0,-50.9 0,-65.17 0,-3.42 2.77,-6.18 6.18,-6.18 1.24,0 -1.23,0 0,0 z"
       id="use63"
       style="fill:#afd18f;fill-opacity:1" />
  </g>
  <g
     id="g69"
     style="fill:#afd18f;fill-opacity:1"
     transform="matrix(0.05905571,0,0,0.05905571,4.912214,6.2532235)">
    <path
       d="m 437.42,208.76 c 3.1,0 5.61,2.52 5.61,5.62 0,15.06 0,54.61 0,69.66 0,3.11 -2.51,5.62 -5.61,5.62 -1.13,0 1.12,0 0,0 -3.11,0 -5.62,-2.51 -5.62,-5.62 0,-15.05 0,-54.6 0,-69.66 0,-3.1 2.51,-5.62 5.62,-5.62 1.12,0 -1.13,0 0,0 z"
       id="use67"
       style="fill:#afd18f;fill-opacity:1" />
  </g>
  <g
     id="g73"
     style="fill:#afd18f;fill-opacity:1"
     transform="matrix(0.05905571,0,0,0.05905571,4.912214,6.2532235)">
    <path
       d="m 178.99,156.4 c 3.1,0 5.62,2.52 5.62,5.62 0,31.01 0,118.43 0,149.44 0,3.1 -2.52,5.62 -5.62,5.62 -1.12,0 1.12,0 0,0 -3.1,0 -5.62,-2.52 -5.62,-5.62 0,-31.01 0,-118.43 0,-149.44 0,-3.1 2.52,-5.62 5.62,-5.62 1.12,0 -1.12,0 0,0 z"
       id="use71"
       style="fill:#afd18f;fill-opacity:1" />
  </g>
  <g
     id="g77"
     style="fill:#afd18f;fill-opacity:1"
     transform="matrix(0.05905571,0,0,0.05905571,4.912214,6.2532235)">
    <path
       d="m 492.25,194.16 c 3.1,0 5.62,2.51 5.62,5.62 0,17.97 0,66.29 0,84.26 0,3.11 -2.52,5.62 -5.62,5.62 -1.13,0 1.12,0 0,0 -3.11,0 -5.62,-2.51 -5.62,-5.62 0,-17.97 0,-66.29 0,-84.26 0,-3.11 2.51,-5.62 5.62,-5.62 1.12,0 -1.13,0 0,0 z"
       id="use75"
       style="fill:#afd18f;fill-opacity:1" />
  </g>
  <g
     id="g81"
     style="fill:#ffffff;fill-opacity:1"
     transform="matrix(0.05905571,0,0,0.05905571,4.912214,6.2532235)">
    <path
       d="m 524.72,236.74 c 4.65,0 8.43,3.77 8.43,8.43 0,1.68 0,-1.69 0,0 0,4.65 -3.78,8.43 -8.43,8.43 -84.79,0 -330.72,0 -415.51,0 -4.65,0 -8.42,-3.78 -8.42,-8.43 0,-1.69 0,1.68 0,0 0,-4.66 3.77,-8.43 8.42,-8.43 84.79,0 330.72,0 415.51,0 z"
       id="use79"
       style="fill:#ffffff;fill-opacity:1" />
  </g>
  <g
     id="g85"
     style="fill:#afd18f;fill-opacity:1"
     transform="matrix(0.05905571,0,0,0.05905571,4.912214,6.2532235)">
    <path
       d="m 210.45,194.16 c 3.1,0 5.62,2.51 5.62,5.62 0,17.97 0,66.29 0,84.26 0,3.11 -2.52,5.62 -5.62,5.62 -1.12,0 1.12,0 0,0 -3.1,0 -5.62,-2.51 -5.62,-5.62 0,-17.97 0,-66.29 0,-84.26 0,-3.11 2.52,-5.62 5.62,-5.62 1.12,0 -1.12,0 0,0 z"
       id="use83"
       style="fill:#afd18f;fill-opacity:1" />
  </g>
  <g
     id="g89"
     style="fill:#afd18f;fill-opacity:1"
     transform="matrix(0.05905571,0,0,0.05905571,4.912214,6.2532235)">
    <path
       d="m 513.82,227.87 c 2.48,0 4.49,2.01 4.49,4.49 0,6.97 0,23.37 0,30.34 0,2.48 -2.01,4.49 -4.49,4.49 -0.9,0 0.9,0 0,0 -2.48,0 -4.49,-2.01 -4.49,-4.49 0,-6.97 0,-23.37 0,-30.34 0,-2.48 2.01,-4.49 4.49,-4.49 0.9,0 -0.9,0 0,0 z"
       id="use87"
       style="fill:#afd18f;fill-opacity:1" />
  </g>
  <g
     id="g93"
     style="fill:#afd18f;fill-opacity:1"
     transform="matrix(0.05905571,0,0,0.05905571,4.912214,6.2532235)">
    <path
       d="m 418.31,194.16 c 3.11,0 5.62,2.51 5.62,5.62 0,15.91 0,58.02 0,73.93 0,3.1 -2.51,5.62 -5.62,5.62 -1.12,0 1.13,0 0,0 -3.1,0 -5.61,-2.52 -5.61,-5.62 0,-15.91 0,-58.02 0,-73.93 0,-3.11 2.51,-5.62 5.61,-5.62 1.13,0 -1.12,0 0,0 z"
       id="use91"
       style="fill:#afd18f;fill-opacity:1" />
  </g>
  <g
     id="g97"
     style="fill:#afd18f;fill-opacity:1"
     transform="matrix(0.05905571,0,0,0.05905571,4.912214,6.2532235)">
    <path
       d="m 268.88,151.24 c 3.1,0 5.61,2.51 5.61,5.61 0,31.02 0,118.43 0,149.44 0,3.1 -2.51,5.62 -5.61,5.62 -1.13,0 1.12,0 0,0 -3.11,0 -5.62,-2.52 -5.62,-5.62 0,-31.01 0,-118.42 0,-149.44 0,-3.1 2.51,-5.61 5.62,-5.61 1.12,0 -1.13,0 0,0 z"
       id="use95"
       style="fill:#afd18f;fill-opacity:1" />
  </g>
  <g
     id="g101"
     style="fill:#afd18f;fill-opacity:1"
     transform="matrix(0.05905571,0,0,0.05905571,4.912214,6.2532235)">
    <path
       d="m 117.87,225.51 c 2.48,0 4.49,2.01 4.49,4.49 0,6.97 0,23.37 0,30.34 0,2.48 -2.01,4.49 -4.49,4.49 -0.9,0 0.89,0 0,0 -2.49,0 -4.5,-2.01 -4.5,-4.49 0,-6.97 0,-23.37 0,-30.34 0,-2.48 2.01,-4.49 4.5,-4.49 0.89,0 -0.9,0 0,0 z"
       id="use99"
       style="fill:#afd18f;fill-opacity:1" />
  </g>
  <g
     id="g105"
     style="fill:#afd18f;fill-opacity:1"
     transform="matrix(0.05905571,0,0,0.05905571,4.912214,6.2532235)">
    <path
       d="m 351.57,190.79 c 3.11,0 5.62,2.51 5.62,5.61 0,17.98 0,66.3 0,84.27 0,3.11 -2.51,5.62 -5.62,5.62 -1.12,0 1.13,0 0,0 -3.1,0 -5.61,-2.51 -5.61,-5.62 0,-17.97 0,-66.29 0,-84.27 0,-3.1 2.51,-5.61 5.61,-5.61 1.13,0 -1.12,0 0,0 z"
       id="use103"
       style="fill:#afd18f;fill-opacity:1" />
  </g>
  <g
     id="g109"
     style="fill:#ffffff;fill-opacity:1"
     transform="matrix(0.05905571,0,0,0.05905571,4.912214,6.2532235)">
    <path
       d="m 154.04,520.67 c 0,29.52 -23.86,53.49 -53.25,53.49 -29.4,0 -53.26,-23.97 -53.26,-53.49 0,-29.51 23.86,-53.48 53.26,-53.48 29.39,0 53.25,23.97 53.25,53.48 z"
       id="use107"
       style="fill:#ffffff;fill-opacity:1" />
  </g>
  <g
     id="g113"
     style="fill:#ffffff;fill-opacity:1"
     transform="matrix(0.05905571,0,0,0.05905571,4.912214,6.2532235)">
    <path
       d="m 222.81,499.78 c 6.14,0 11.12,4.98 11.12,11.12 0,15.98 0,52.79 0,68.76 0,6.15 -4.98,11.13 -11.12,11.13 -2.23,0 2.22,0 0,0 -6.14,0 -11.12,-4.98 -11.12,-11.13 0,-15.97 0,-52.78 0,-68.76 0,-6.14 4.98,-11.12 11.12,-11.12 2.22,0 -2.23,0 0,0 z"
       id="use111"
       style="fill:#ffffff;fill-opacity:1" />
  </g>
  <g
     id="g117"
     style="fill:#ffffff;fill-opacity:1"
     transform="matrix(0.05905571,0,0,0.05905571,4.912214,6.2532235)">
    <path
       d="m 323.82,499.78 c 6.14,0 11.12,4.98 11.12,11.12 0,15.98 0,52.79 0,68.76 0,6.15 -4.98,11.13 -11.12,11.13 -2.22,0 2.22,0 0,0 -6.14,0 -11.12,-4.98 -11.12,-11.13 0,-15.97 0,-52.78 0,-68.76 0,-6.14 4.98,-11.12 11.12,-11.12 2.22,0 -2.22,0 0,0 z"
       id="use115"
       style="fill:#ffffff;fill-opacity:1" />
  </g>
  <g
     id="g121"
     style="fill:#ffffff;fill-opacity:1"
     transform="matrix(0.05905571,0,0,0.05905571,4.912214,6.2532235)">
    <path
       d="m 415.06,498.99 c 6.14,0 11.12,4.98 11.12,11.12 0,15.98 0,52.79 0,68.77 0,6.14 -4.98,11.12 -11.12,11.12 -2.23,0 2.22,0 0,0 -6.15,0 -11.13,-4.98 -11.13,-11.12 0,-15.98 0,-52.79 0,-68.77 0,-6.14 4.98,-11.12 11.13,-11.12 2.22,0 -2.23,0 0,0 z"
       id="use119"
       style="fill:#ffffff;fill-opacity:1" />
  </g>
  <g
     id="g125"
     style="fill:#afd18f;fill-opacity:1"
     transform="matrix(0.05905571,0,0,0.05905571,4.912214,6.2532235)">
    <path
       d="m 240.79,516.63 c 4.65,0 8.42,3.77 8.42,8.43 0,1.68 0,-1.69 0,0 0,4.65 -3.77,8.42 -8.42,8.42 -8.88,0 -27.08,0 -35.96,0 -4.65,0 -8.43,-3.77 -8.43,-8.42 0,-1.69 0,1.68 0,0 0,-4.66 3.78,-8.43 8.43,-8.43 8.88,0 27.08,0 35.96,0 z"
       id="use123"
       style="fill:#afd18f;fill-opacity:1" />
  </g>
  <g
     id="g129"
     style="fill:#afd18f;fill-opacity:1"
     transform="matrix(0.05905571,0,0,0.05905571,4.912214,6.2532235)">
    <path
       d="m 343.15,557.3 c 4.65,0 8.42,3.78 8.42,8.43 0,1.69 0,-1.69 0,0 0,4.65 -3.77,8.43 -8.42,8.43 -8.88,0 -27.08,0 -35.96,0 -4.65,0 -8.43,-3.78 -8.43,-8.43 0,-1.69 0,1.69 0,0 0,-4.65 3.78,-8.43 8.43,-8.43 8.88,0 27.08,0 35.96,0 z"
       id="use127"
       style="fill:#afd18f;fill-opacity:1" />
  </g>
  <g
     id="g133"
     style="fill:#afd18f;fill-opacity:1"
     transform="matrix(0.05905571,0,0,0.05905571,4.912214,6.2532235)">
    <path
       d="m 434.61,533.48 c 4.65,0 8.42,3.78 8.42,8.43 0,1.69 0,-1.69 0,0 0,4.65 -3.77,8.43 -8.42,8.43 -8.88,0 -27.08,0 -35.96,0 -4.65,0 -8.43,-3.78 -8.43,-8.43 0,-1.69 0,1.69 0,0 0,-4.65 3.78,-8.43 8.43,-8.43 8.88,0 27.08,0 35.96,0 z"
       id="use131"
       style="fill:#afd18f;fill-opacity:1" />
  </g>
  <g
     id="g137"
     style="fill:#afd18f;fill-opacity:1"
     transform="matrix(0.05905571,0,0,0.05905571,4.912214,6.2532235)">
    <path
       d="m 122.36,520.67 c 0,13.15 -9.67,23.82 -21.57,23.82 -11.91,0 -21.58,-10.67 -21.58,-23.82 0,-13.14 9.67,-23.82 21.58,-23.82 11.9,0 21.57,10.68 21.57,23.82 z"
       id="use135"
       style="fill:#afd18f;fill-opacity:1" />
  </g>
  <g
     id="g141"
     style="fill:#3c3c3c;fill-opacity:1"
     transform="matrix(0.05905571,0,0,0.05905571,4.912214,6.2532235)">
    <path
       d="m 129.55,512.02 c 0,6.76 -5.54,12.25 -12.36,12.25 -6.82,0 -12.36,-5.49 -12.36,-12.25 0,-6.76 5.54,-12.24 12.36,-12.24 6.82,0 12.36,5.48 12.36,12.24 z"
       id="use139"
       style="fill:#3c3c3c;fill-opacity:1" />
  </g>
  <g
     id="g145"
     style="fill:#ffffff;fill-opacity:1"
     transform="matrix(0.05905571,0,0,0.05905571,4.912214,6.2532235)">
    <path
       d="m 598.76,520.67 c 0,29.52 -23.86,53.49 -53.25,53.49 -29.4,0 -53.26,-23.97 -53.26,-53.49 0,-29.51 23.86,-53.48 53.26,-53.48 29.39,0 53.25,23.97 53.25,53.48 z"
       id="use143"
       style="fill:#ffffff;fill-opacity:1" />
  </g>
  <g
     id="g149"
     style="fill:#afd18f;fill-opacity:1"
     transform="matrix(0.05905571,0,0,0.05905571,4.912214,6.2532235)">
    <path
       d="m 567.08,523.6 c 0,13.14 -9.67,23.82 -21.57,23.82 -11.91,0 -21.58,-10.68 -21.58,-23.82 0,-13.15 9.67,-23.82 21.58,-23.82 11.9,0 21.57,10.67 21.57,23.82 z"
       id="use147"
       style="fill:#afd18f;fill-opacity:1" />
  </g>
  <g
     id="g153"
     style="fill:#3c3c3c;fill-opacity:1"
     transform="matrix(0.05905571,0,0,0.05905571,4.912214,6.2532235)">
    <path
       d="m 557.87,544.49 c 0,6.76 -5.54,12.25 -12.36,12.25 -6.83,0 -12.36,-5.49 -12.36,-12.25 0,-6.76 5.53,-12.24 12.36,-12.24 6.82,0 12.36,5.48 12.36,12.24 z"
       id="use151"
       style="fill:#3c3c3c;fill-opacity:1" />
  </g>
  <g
     id="g157"
     style="fill:#afd18f;fill-opacity:1"
     transform="matrix(0.05905571,0,0,0.05905571,4.912214,6.2532235)">
    <path
       d="m 464.16,160.22 c 3.1,0 5.62,2.52 5.62,5.62 0,31.01 0,118.43 0,149.44 0,3.1 -2.52,5.62 -5.62,5.62 -1.13,0 1.12,0 0,0 -3.11,0 -5.62,-2.52 -5.62,-5.62 0,-31.01 0,-118.43 0,-149.44 0,-3.1 2.51,-5.62 5.62,-5.62 1.12,0 -1.13,0 0,0 z"
       id="use155"
       style="fill:#afd18f;fill-opacity:1" />
  </g>
</svg>
