<?xml version="1.0" encoding="UTF-8" standalone="no"?>
<svg
   height="48"
   width="48"
   version="1.1"
   id="svg6"
   sodipodi:docname="gnome-logs.svg"
   inkscape:version="1.1.2 (0a00cf5339, 2022-02-04)"
   xmlns:inkscape="http://www.inkscape.org/namespaces/inkscape"
   xmlns:sodipodi="http://sodipodi.sourceforge.net/DTD/sodipodi-0.dtd"
   xmlns="http://www.w3.org/2000/svg"
   xmlns:svg="http://www.w3.org/2000/svg"
   xmlns:rdf="http://www.w3.org/1999/02/22-rdf-syntax-ns#"
   xmlns:cc="http://creativecommons.org/ns#"
   xmlns:dc="http://purl.org/dc/elements/1.1/">
  <metadata
     id="metadata12">
    <rdf:RDF>
      <cc:Work
         rdf:about="">
        <dc:format>image/svg+xml</dc:format>
        <dc:type
           rdf:resource="http://purl.org/dc/dcmitype/StillImage" />
        <dc:title />
      </cc:Work>
    </rdf:RDF>
  </metadata>
  <defs
     id="defs10" />
  <sodipodi:namedview
     pagecolor="#ffffff"
     bordercolor="#666666"
     borderopacity="1"
     objecttolerance="10"
     gridtolerance="10"
     guidetolerance="10"
     inkscape:pageopacity="0"
     inkscape:pageshadow="2"
     inkscape:window-width="1920"
     inkscape:window-height="1031"
     id="namedview8"
     showgrid="false"
     inkscape:zoom="37.833332"
     inkscape:cx="17.405287"
     inkscape:cy="39.951543"
     inkscape:window-x="0"
     inkscape:window-y="0"
     inkscape:window-maximized="1"
     inkscape:current-layer="svg6"
     inkscape:document-rotation="0"
     inkscape:pagecheckerboard="0" />
  <path
     id="circle2"
     style="opacity:0.99;fill:#a1a1af;fill-opacity:0.996078"
     transform="matrix(1.75830584759 0 0 1.75830608345 -18.15909274367 -30.97874795549)"
     d="M 37.173613,31.534513 A 13.232998,13.232998 0 0 1 23.940615,44.767511 13.232998,13.232998 0 0 1 10.707617,31.534513 13.232998,13.232998 0 0 1 23.940615,18.301516 13.232998,13.232998 0 0 1 37.173613,31.534513 Z" />
  <path
     id="rect902"
     style="fill:#ffffff;fill-opacity:1;stroke:none;stroke-width:1.2;stroke-linecap:square;stroke-opacity:0.992157"
     d="m 12.511621,8.0072404 c -0.0066,0 -0.01172,0.00515 -0.01172,0.011719 V 37.030679 c 0,0.0066 0.0052,0.01172 0.01172,0.01172 h 22.732422 c 0.0066,0 0.01172,-0.0051 0.01172,-0.01172 V 8.0189592 c 0,-0.00657 -0.0052,-0.011719 -0.01172,-0.011719 z m 8.326172,1.8457029 h 12.648438 c 0.0057,0 0.0098,0.004 0.0098,0.0098 V 35.186963 c 0,0.0057 -0.004,0.0098 -0.0098,0.0098 H 14.269434 c -0.0057,0 -0.01172,-0.004 -0.01172,-0.0098 V 16.55021 Z m 0.40625,1.2734377 c -0.0066,0 -0.01172,0.0051 -0.01172,0.01172 v 1.244141 c 0,0.0066 0.0051,0.01367 0.01172,0.01367 H 31.0292 c 0.0066,0 0.01172,-0.0071 0.01172,-0.01367 v -1.244141 c 0,-0.0066 -0.0051,-0.01172 -0.01172,-0.01172 z m -3.83789,2.992188 c -0.0066,0 -0.01367,0.0051 -0.01367,0.01172 v 1.244141 c 0,0.0066 0.0071,0.01367 0.01367,0.01367 h 3.390625 c 0.0066,0 0.01172,-0.0071 0.01172,-0.01367 v -1.244141 c 0,-0.0066 -0.0052,-0.01172 -0.01172,-0.01172 z m 4.683594,0 c -0.0066,0 -0.01172,0.0051 -0.01172,0.01172 v 1.244141 c 0,0.0066 0.0051,0.01367 0.01172,0.01367 h 9.099609 c 0.0066,0 0.01172,-0.0071 0.01172,-0.01367 v -1.244141 c 0,-0.0066 -0.0052,-0.01172 -0.01172,-0.01172 z m -7.003907,2.992188 c -0.0066,0 -0.01367,0.0051 -0.01367,0.01172 v 1.244141 c 0,0.0066 0.0071,0.01367 0.01367,0.01367 h 6.507813 c 0.0066,0 0.01172,-0.0071 0.01172,-0.01367 v -1.244141 c 0,-0.0066 -0.0051,-0.01172 -0.01172,-0.01172 z m 8.6875,0 c -0.0066,0 -0.01172,0.0051 -0.01172,0.01172 v 1.244141 c 0,0.0066 0.0052,0.01367 0.01172,0.01367 h 6.509766 c 0.0066,0 0.01172,-0.0071 0.01172,-0.01367 v -1.244141 c 0,-0.0066 -0.0052,-0.01172 -0.01172,-0.01172 z" />
  <path
     id="circle937"
     style="opacity:0.99;fill:#7d7d90;fill-opacity:0.988235;stroke-width:1.75831"
     d="M 47.203125 24.46875 L 2.4960938 33.525391 C 3.673501 36.309095 5.3771144 38.816565 7.4824219 40.921875 C 9.5877293 43.027185 12.095202 44.730796 14.878906 45.908203 C 17.66261 47.085612 20.722953 47.736328 23.935547 47.736328 C 30.360732 47.736328 36.178053 45.132492 40.388672 40.921875 C 42.493979 38.816565 44.197593 36.309095 45.375 33.525391 C 46.552409 30.741686 47.203125 27.681344 47.203125 24.46875 z " />
  <path
     id="circle6-3"
     style="fill:#ffffff;stroke:#7e7e90;stroke-width:1.6;stroke-linecap:round"
     d="m 35.041464,38.101662 a 8.25,8.25 0 0 1 -8.25,8.25 8.25,8.25 0 0 1 -8.25,-8.25 8.25,8.25 0 0 1 8.25,-8.25 8.25,8.25 0 0 1 8.25,8.25 z" />
  <g
     id="g874"
     transform="matrix(0.41190039,0,0,0.41190039,1.7371074,28.393795)">
    <path
       id="circle6-7"
       style="fill:none;stroke:#7e7e90;stroke-width:2.5;stroke-linecap:round;stroke-linejoin:round"
       d="m 64.361136,19.906406 a 7.9879599,7.9879599 0 0 1 -7.987959,7.98796 7.9879599,7.9879599 0 0 1 -7.98796,-7.98796 7.9879599,7.9879599 0 0 1 7.98796,-7.987959 7.9879599,7.9879599 0 0 1 7.987959,7.987959 z" />
    <circle
       cx="57.492573"
       cy="16.30434"
       fill="#ffffff"
       r="1.5"
       id="circle8-5"
       style="fill:#7e7e90;fill-opacity:1;stroke:none;stroke-opacity:0.992157" />
  </g>
  <path
     style="fill:none;stroke:#7e7e90;stroke-width:1.2;stroke-linecap:round;stroke-linejoin:miter;stroke-opacity:1;stroke-miterlimit:4;stroke-dasharray:none"
     d="m 27.65435,38.963769 3.609968,3.280561"
     id="path881" />
</svg>
