<?xml version="1.0" encoding="UTF-8" standalone="no"?>
<svg
   xmlns:dc="http://purl.org/dc/elements/1.1/"
   xmlns:cc="http://creativecommons.org/ns#"
   xmlns:rdf="http://www.w3.org/1999/02/22-rdf-syntax-ns#"
   xmlns:svg="http://www.w3.org/2000/svg"
   xmlns="http://www.w3.org/2000/svg"
   xmlns:sodipodi="http://sodipodi.sourceforge.net/DTD/sodipodi-0.dtd"
   xmlns:inkscape="http://www.inkscape.org/namespaces/inkscape"
   height="48"
   width="48"
   version="1.1"
   id="svg6"
   sodipodi:docname="inkscape.svg"
   inkscape:version="1.0.2 (e86c870879, 2021-01-15)">
  <metadata
     id="metadata12">
    <rdf:RDF>
      <cc:Work
         rdf:about="">
        <dc:format>image/svg+xml</dc:format>
        <dc:type
           rdf:resource="http://purl.org/dc/dcmitype/StillImage" />
        <dc:title />
      </cc:Work>
    </rdf:RDF>
  </metadata>
  <defs
     id="defs10">
    <clipPath
       id="_clip2">
      <path
         d="m 362.691,209.643 h 9.844 v 36.359 H 65.488 v 33.244 H 33.142 V 176.398 h 32.346 v 33.245 H 226.136 V 68.456 h 36.772 z M 258.482,114.224 v 95.419 h 67.436 z"
         id="path44" />
    </clipPath>
    <clipPath
       id="_clip3">
      <path
         d="m 222.648,71.647 v 137.967 h 20.733 V 71.647 Z"
         id="path47" />
    </clipPath>
    <clipPath
       id="_clip4">
      <path
         d="m 246.665,71.675 99.352,137.968 H 366.75 L 267.398,71.675 Z"
         id="path54" />
    </clipPath>
    <clipPath
       id="_clip5">
      <path
         d="m 86.76,328.6 c -0.209,0.14 -0.307,0.397 -0.242,0.64 0.065,0.244 0.279,0.418 0.53,0.434 5.977,0.37 25.279,1.568 25.279,1.568 l -4.458,-16.639 c 0,0 -16.118,10.688 -21.109,13.997 z"
         id="path73" />
    </clipPath>
  </defs>
  <sodipodi:namedview
     pagecolor="#ffffff"
     bordercolor="#666666"
     borderopacity="1"
     objecttolerance="10"
     gridtolerance="10"
     guidetolerance="10"
     inkscape:pageopacity="0"
     inkscape:pageshadow="2"
     inkscape:window-width="1920"
     inkscape:window-height="1028"
     id="namedview8"
     showgrid="false"
     inkscape:zoom="13.376103"
     inkscape:cx="8.9844789"
     inkscape:cy="28.314246"
     inkscape:window-x="0"
     inkscape:window-y="24"
     inkscape:window-maximized="1"
     inkscape:current-layer="svg6"
     inkscape:document-rotation="0" />
  <path
     id="circle2"
     style="opacity:0.99;fill:#b48ead;fill-opacity:1"
     transform="matrix(1.75830584759 0 0 1.75830608345 -18.15909274367 -30.97874795549)"
     d="M 37.173613,31.534513 A 13.232998,13.232998 0 0 1 23.940615,44.767511 13.232998,13.232998 0 0 1 10.707617,31.534513 13.232998,13.232998 0 0 1 23.940615,18.301516 13.232998,13.232998 0 0 1 37.173613,31.534513 Z" />
  <g
     fill-rule="evenodd"
     transform="matrix(0.84428659,0,0,0.84428659,4.4430884,-844.03529)"
     id="g6">
    <path
       id="path2"
       style="fill:#ffffff;fill-opacity:1;stroke-width:0.844287"
       d="M 24.201172 5.8515625 C 23.819678 5.8515625 23.439693 6.0098457 23.146484 6.2871094 L 6.9316406 21.626953 C 6.5821918 21.957998 6.3606705 22.458497 6.3359375 22.974609 C 6.311205 23.490637 6.4830768 24.014642 6.7988281 24.386719 L 23.015625 43.501953 C 23.324624 43.866094 23.765691 44.080078 24.210938 44.080078 C 24.656184 44.080078 25.099204 43.866094 25.408203 43.501953 L 41.623047 24.386719 C 41.938563 24.014388 42.111052 23.488769 42.085938 22.972656 C 42.06082 22.456544 41.838006 21.957745 41.488281 21.626953 L 25.273438 6.2871094 C 24.975537 6.0054554 24.588773 5.8491141 24.201172 5.8515625 z "
       transform="matrix(1.1844319,0,0,1.1844319,-5.2625358,999.70235)" />
    <path
       id="path4"
       style="stroke-width:0.844287;fill:#b48ead;fill-opacity:0.99215686"
       d="M 24.181641 9.0214844 C 23.840217 9.0214844 23.50069 9.1639735 23.238281 9.4121094 L 15.982422 16.275391 C 15.131947 17.07932 14.033991 18.063218 13.212891 18.845703 C 13.130927 18.923377 13.052487 19.000513 12.976562 19.074219 C 11.273772 20.31304 16.173308 20.804754 16.818359 20.669922 C 18.424103 20.254702 17.535007 17.618622 18.769531 17.5 C 20.37579 17.345664 20.211305 20.963561 22.044922 21.064453 C 24.07051 21.175983 26.561838 17.397605 29.238281 17.488281 C 31.195028 17.55498 32.371742 20.725745 34.310547 20.453125 C 34.878787 20.372918 36.461927 20.120814 35.498047 19.208984 L 32.398438 16.275391 L 25.142578 9.4121094 C 24.875968 9.1600898 24.528529 9.0192892 24.181641 9.0214844 z "
       transform="matrix(1.1844319,0,0,1.1844319,-5.2625358,999.70235)" />
  </g>
</svg>
