<?xml version="1.0" encoding="UTF-8" standalone="no"?>
<svg
   xmlns:dc="http://purl.org/dc/elements/1.1/"
   xmlns:cc="http://creativecommons.org/ns#"
   xmlns:rdf="http://www.w3.org/1999/02/22-rdf-syntax-ns#"
   xmlns:svg="http://www.w3.org/2000/svg"
   xmlns="http://www.w3.org/2000/svg"
   xmlns:sodipodi="http://sodipodi.sourceforge.net/DTD/sodipodi-0.dtd"
   xmlns:inkscape="http://www.inkscape.org/namespaces/inkscape"
   height="48"
   width="48"
   version="1.1"
   id="svg6"
   sodipodi:docname="io.github.jliljebl.Flowblade.svg"
   inkscape:version="1.0.2 (e86c870879, 2021-01-15)">
  <metadata
     id="metadata12">
    <rdf:RDF>
      <cc:Work
         rdf:about="">
        <dc:format>image/svg+xml</dc:format>
        <dc:type
           rdf:resource="http://purl.org/dc/dcmitype/StillImage" />
        <dc:title></dc:title>
      </cc:Work>
    </rdf:RDF>
  </metadata>
  <defs
     id="defs10" />
  <sodipodi:namedview
     pagecolor="#ffffff"
     bordercolor="#666666"
     borderopacity="1"
     objecttolerance="10"
     gridtolerance="10"
     guidetolerance="10"
     inkscape:pageopacity="0"
     inkscape:pageshadow="2"
     inkscape:window-width="1920"
     inkscape:window-height="1031"
     id="namedview8"
     showgrid="false"
     inkscape:zoom="13.376103"
     inkscape:cx="6.8398946"
     inkscape:cy="26.255549"
     inkscape:window-x="0"
     inkscape:window-y="24"
     inkscape:window-maximized="1"
     inkscape:current-layer="svg6"
     inkscape:document-rotation="0" />
  <circle
     cx="23.940615"
     cy="31.534513"
     fill="#74a2f3"
     opacity=".99"
     r="13.232998"
     transform="matrix(1.75830584759 0 0 1.75830608345 -18.15909274367 -30.97874795549)"
     id="circle2"
     style="fill:#b2c0c3;fill-opacity:1" />
  <path
     id="circle833"
     style="fill:#758a9a;fill-opacity:1;stroke-width:1.75831"
     d="M 23.892578 1.2011719 A 23.267658 23.267661 0 0 0 5.8320312 9.8515625 L 42.037109 9.8515625 A 23.267658 23.267661 0 0 0 23.935547 1.2011719 A 23.267658 23.267661 0 0 0 23.892578 1.2011719 z " />
  <path
     id="path838"
     style="color:#000000;font-style:normal;font-variant:normal;font-weight:normal;font-stretch:normal;font-size:medium;line-height:normal;font-family:sans-serif;font-variant-ligatures:normal;font-variant-position:normal;font-variant-caps:normal;font-variant-numeric:normal;font-variant-alternates:normal;font-variant-east-asian:normal;font-feature-settings:normal;font-variation-settings:normal;text-indent:0;text-align:start;text-decoration:none;text-decoration-line:none;text-decoration-style:solid;text-decoration-color:#000000;letter-spacing:normal;word-spacing:normal;text-transform:none;writing-mode:lr-tb;direction:ltr;text-orientation:mixed;dominant-baseline:auto;baseline-shift:baseline;text-anchor:start;white-space:normal;shape-padding:0;shape-margin:0;inline-size:0;clip-rule:nonzero;display:inline;overflow:visible;visibility:visible;isolation:auto;mix-blend-mode:normal;color-interpolation:sRGB;color-interpolation-filters:linearRGB;solid-color:#000000;solid-opacity:1;vector-effect:none;fill:#ffffff;fill-opacity:1;fill-rule:nonzero;stroke:none;stroke-linecap:butt;stroke-linejoin:miter;stroke-miterlimit:4;stroke-dasharray:none;stroke-dashoffset:0;stroke-opacity:1;color-rendering:auto;image-rendering:auto;shape-rendering:auto;text-rendering:auto;enable-background:accumulate;stop-color:#000000;stop-opacity:1;opacity:1"
     d="M 24.236328 1.203125 L 21.826172 5.6992188 L 25.228516 5.703125 L 27.494141 1.4765625 A 23.267658 23.267661 0 0 0 24.236328 1.203125 z M 21.328125 1.3476562 A 23.267658 23.267661 0 0 0 17.519531 2.1035156 L 15.595703 5.6914062 L 18.998047 5.6953125 L 21.328125 1.3476562 z M 30.033203 2.015625 L 28.054688 5.7070312 L 31.455078 5.7128906 L 32.908203 3.0019531 A 23.267658 23.267661 0 0 0 30.033203 2.015625 z M 13.970703 3.4433594 A 23.267658 23.267661 0 0 0 10.207031 5.6835938 L 12.767578 5.6875 L 13.970703 3.4433594 z M 35.15625 4.0878906 L 34.283203 5.7167969 L 37.470703 5.7207031 L 37.685547 5.7207031 L 37.693359 5.7050781 A 23.267658 23.267661 0 0 0 35.15625 4.0878906 z M 9.3554688 6.4824219 L 11.0625 9.8515625 L 14.425781 9.8515625 L 12.720703 6.4882812 L 9.3554688 6.4824219 z M 15.59375 6.4921875 L 17.296875 9.8515625 L 20.660156 9.8515625 L 18.958984 6.4960938 L 15.59375 6.4921875 z M 21.832031 6.5 L 23.53125 9.8515625 L 26.894531 9.8515625 L 25.197266 6.5039062 L 21.832031 6.5 z M 28.070312 6.5078125 L 29.765625 9.8515625 L 33.126953 9.8515625 L 31.435547 6.5136719 L 28.070312 6.5078125 z M 34.308594 6.5175781 L 35.998047 9.8515625 L 39.361328 9.8515625 L 37.673828 6.5214844 L 37.470703 6.5214844 L 34.308594 6.5175781 z " />
</svg>
