<?xml version="1.0" encoding="UTF-8" standalone="no"?>
<svg
   xmlns:dc="http://purl.org/dc/elements/1.1/"
   xmlns:cc="http://creativecommons.org/ns#"
   xmlns:rdf="http://www.w3.org/1999/02/22-rdf-syntax-ns#"
   xmlns:svg="http://www.w3.org/2000/svg"
   xmlns="http://www.w3.org/2000/svg"
   xmlns:sodipodi="http://sodipodi.sourceforge.net/DTD/sodipodi-0.dtd"
   xmlns:inkscape="http://www.inkscape.org/namespaces/inkscape"
   height="48"
   width="48"
   version="1.1"
   id="svg6"
   sodipodi:docname="appimagekit-kitty.svg"
   inkscape:version="1.0.2 (e86c870879, 2021-01-15)">
  <metadata
     id="metadata12">
    <rdf:RDF>
      <cc:Work
         rdf:about="">
        <dc:format>image/svg+xml</dc:format>
        <dc:type
           rdf:resource="http://purl.org/dc/dcmitype/StillImage" />
        <dc:title></dc:title>
      </cc:Work>
    </rdf:RDF>
  </metadata>
  <defs
     id="defs10" />
  <sodipodi:namedview
     pagecolor="#ffffff"
     bordercolor="#666666"
     borderopacity="1"
     objecttolerance="10"
     gridtolerance="10"
     guidetolerance="10"
     inkscape:pageopacity="0"
     inkscape:pageshadow="2"
     inkscape:window-width="1920"
     inkscape:window-height="1031"
     id="namedview8"
     showgrid="false"
     inkscape:zoom="9.4583335"
     inkscape:cx="30.071401"
     inkscape:cy="33.319625"
     inkscape:window-x="0"
     inkscape:window-y="24"
     inkscape:window-maximized="1"
     inkscape:current-layer="svg6"
     inkscape:document-rotation="0" />
  <circle
     cx="23.940615"
     cy="31.534513"
     fill="#74a2f3"
     opacity=".99"
     id="circle2"
     style="fill:#96acc1;fill-opacity:1"
     transform="matrix(1.75830584759 0 0 1.75830608345 -18.15909274367 -30.97874795549)"
     r="13.232998" />
  <g
     id="g838"
     transform="matrix(1.4689578,0,0,1.4689578,-1.7023719,-3.1232521)">
    <path
       inkscape:connector-curvature="0"
       id="path829"
       d="m 10.924399,12.251491 a 2.906553,2.906553 0 0 0 -2.9065439,2.906545 2.906553,2.906553 0 0 0 2.9065439,2.906545 2.906553,2.906553 0 0 0 2.906545,-2.906544 2.906553,2.906553 0 0 0 -2.906545,-2.906546 z m 0,0.09914 a 0.54653137,2.8071839 0 0 1 0.546802,2.807406 0.54653137,2.8071839 0 0 1 -0.546802,2.807021 0.54653137,2.8071839 0 0 1 -0.546418,-2.807021 0.54653137,2.8071839 0 0 1 0.546418,-2.807406 z"
       style="opacity:1;fill:#ffffff;fill-opacity:0.978261;stroke:none;stroke-width:0.196741;stroke-linecap:round;stroke-linejoin:round;stroke-miterlimit:4;stroke-dasharray:none;stroke-opacity:1" />
    <path
       style="opacity:1;fill:#ffffff;fill-opacity:0.978261;stroke:none;stroke-width:0.196741;stroke-linecap:round;stroke-linejoin:round;stroke-miterlimit:4;stroke-dasharray:none;stroke-opacity:1"
       d="m 23.996612,12.251492 a 2.906553,2.906553 0 0 0 -2.906545,2.906545 2.906553,2.906553 0 0 0 2.906545,2.906544 2.906553,2.906553 0 0 0 2.906545,-2.906544 2.906553,2.906553 0 0 0 -2.906545,-2.906545 z m 0,0.09914 a 0.54653137,2.8071839 0 0 1 0.546802,2.807406 0.54653137,2.8071839 0 0 1 -0.546802,2.807021 0.54653137,2.8071839 0 0 1 -0.546418,-2.807021 0.54653137,2.8071839 0 0 1 0.546418,-2.807406 z"
       id="path834"
       inkscape:connector-curvature="0" />
  </g>
  <g
     id="g858"
     transform="matrix(1.4689578,0,0,1.4689578,-1.3277431,-3.696174)">
    <path
       inkscape:connector-curvature="0"
       id="path840"
       d="M 20.646571,20.436373 28.931926,15.1578"
       style="fill:none;stroke:#ffffff;stroke-width:0.265;stroke-linecap:round;stroke-linejoin:miter;stroke-miterlimit:4;stroke-dasharray:none;stroke-opacity:0.381818" />
    <path
       inkscape:connector-curvature="0"
       id="path842"
       d="m 21.047475,22.440894 h 5.144937"
       style="fill:none;stroke:#ffffff;stroke-width:0.265;stroke-linecap:round;stroke-linejoin:miter;stroke-miterlimit:4;stroke-dasharray:none;stroke-opacity:0.381818" />
    <path
       sodipodi:nodetypes="cc"
       inkscape:connector-curvature="0"
       id="path844"
       d="m 20.980658,24.311781 6.84878,2.104747"
       style="fill:none;stroke:#ffffff;stroke-width:0.265;stroke-linecap:round;stroke-linejoin:miter;stroke-miterlimit:4;stroke-dasharray:none;stroke-opacity:0.381818" />
    <path
       style="fill:none;stroke:#ffffff;stroke-width:0.265;stroke-linecap:round;stroke-linejoin:miter;stroke-miterlimit:4;stroke-dasharray:none;stroke-opacity:0.381818"
       d="M 13.76438,20.436373 5.4790254,15.1578"
       id="path846"
       inkscape:connector-curvature="0" />
    <path
       style="fill:none;stroke:#ffffff;stroke-width:0.265;stroke-linecap:round;stroke-linejoin:miter;stroke-miterlimit:4;stroke-dasharray:none;stroke-opacity:0.381818"
       d="M 13.363476,22.440894 H 8.2185394"
       id="path848"
       inkscape:connector-curvature="0" />
    <path
       style="fill:none;stroke:#ffffff;stroke-width:0.265;stroke-linecap:round;stroke-linejoin:miter;stroke-miterlimit:4;stroke-dasharray:none;stroke-opacity:0.381818"
       d="M 13.430293,24.311781 6.5815134,26.416528"
       id="path850"
       inkscape:connector-curvature="0"
       sodipodi:nodetypes="cc" />
  </g>
  <path
     style="fill:#ffffff;fill-opacity:1;stroke:none;stroke-width:0.327339;stroke-linecap:round;stroke-linejoin:round;stroke-miterlimit:4;stroke-dasharray:none;stroke-opacity:0.381818"
     d="m 26.791933,25.196064 c 0,0.555631 -0.105207,1.42278 -0.833446,1.42278 -1.002804,0 -1.226335,-0.490335 -2.012114,-0.490337 -0.785779,0 -0.933678,0.490337 -2.012113,0.490337 -0.728243,0 -0.833446,-0.867149 -0.833446,-1.42278 0,-1.111259 1.274001,-2.012114 2.845559,-2.012114 1.571559,0 2.84556,0.900855 2.84556,2.012114 z"
     id="path860"
     inkscape:connector-curvature="0"
     sodipodi:nodetypes="sssssss" />
</svg>
