<?xml version="1.0" encoding="UTF-8" standalone="no"?>
<svg
   xmlns:dc="http://purl.org/dc/elements/1.1/"
   xmlns:cc="http://creativecommons.org/ns#"
   xmlns:rdf="http://www.w3.org/1999/02/22-rdf-syntax-ns#"
   xmlns:svg="http://www.w3.org/2000/svg"
   xmlns="http://www.w3.org/2000/svg"
   xmlns:sodipodi="http://sodipodi.sourceforge.net/DTD/sodipodi-0.dtd"
   xmlns:inkscape="http://www.inkscape.org/namespaces/inkscape"
   height="48"
   width="48"
   version="1.1"
   id="svg6"
   sodipodi:docname="kstars.svg"
   inkscape:version="1.0.2 (e86c870879, 2021-01-15)">
  <metadata
     id="metadata12">
    <rdf:RDF>
      <cc:Work
         rdf:about="">
        <dc:format>image/svg+xml</dc:format>
        <dc:type
           rdf:resource="http://purl.org/dc/dcmitype/StillImage" />
        <dc:title></dc:title>
      </cc:Work>
    </rdf:RDF>
  </metadata>
  <defs
     id="defs10" />
  <sodipodi:namedview
     pagecolor="#ffffff"
     bordercolor="#666666"
     borderopacity="1"
     objecttolerance="10"
     gridtolerance="10"
     guidetolerance="10"
     inkscape:pageopacity="0"
     inkscape:pageshadow="2"
     inkscape:window-width="1920"
     inkscape:window-height="1031"
     id="namedview8"
     showgrid="false"
     inkscape:zoom="9.4583335"
     inkscape:cx="30.071401"
     inkscape:cy="33.319625"
     inkscape:window-x="0"
     inkscape:window-y="24"
     inkscape:window-maximized="1"
     inkscape:current-layer="svg6"
     inkscape:document-rotation="0" />
  <circle
     cx="23.940615"
     cy="31.534513"
     fill="#74a2f3"
     opacity=".99"
     id="circle2"
     style="fill:#8895b0;fill-opacity:1"
     transform="matrix(1.75830584759 0 0 1.75830608345 -18.15909274367 -30.97874795549)"
     r="13.232998" />
  <path
     id="path866"
     style="fill:#312434;fill-opacity:0.26470602;stroke:none;stroke-width:1px;stroke-linecap:butt;stroke-linejoin:miter;stroke-opacity:1"
     d="M 11.5 28.964844 C 8.0790232 28.993458 4.9195541 30.065205 2.2304688 32.849609 A 23.267658 23.267661 0 0 0 23.935547 47.736328 A 23.267658 23.267661 0 0 0 43.697266 36.751953 C 34.724923 38.240846 21.925526 28.877643 11.5 28.964844 z " />
  <path
     sodipodi:type="star"
     style="fill:#ffffff;fill-opacity:1;stroke:none;stroke-width:2;stroke-miterlimit:4;stroke-dasharray:none;stroke-opacity:1"
     id="path868"
     sodipodi:sides="5"
     sodipodi:cx="9.9028209"
     sodipodi:cy="14.370211"
     sodipodi:r1="2.236068"
     sodipodi:r2="1.118034"
     sodipodi:arg1="0.52359878"
     sodipodi:arg2="1.1519173"
     inkscape:flatsided="false"
     inkscape:rounded="0"
     inkscape:randomized="0"
     inkscape:transform-center-x="0.14366345"
     inkscape:transform-center-y="0.072227392"
     d="m 11.839312,15.488245 -1.481746,-0.09666 -0.9196501,1.165829 -0.3659565,-1.439094 -1.3929574,-0.514378 1.2555727,-0.792749 0.058755,-1.483733 1.1419432,0.949147 1.42927,-0.402619 -0.549813,1.379355 z" />
  <path
     inkscape:transform-center-y="0.072227392"
     inkscape:transform-center-x="0.14366345"
     inkscape:randomized="0"
     inkscape:rounded="0"
     inkscape:flatsided="false"
     sodipodi:arg2="1.1519173"
     sodipodi:arg1="0.52359878"
     sodipodi:r2="1.118034"
     sodipodi:r1="2.236068"
     sodipodi:cy="19.487076"
     sodipodi:cx="16.790911"
     sodipodi:sides="5"
     id="path870"
     style="fill:#ffffff;fill-opacity:1;stroke:none;stroke-width:2;stroke-miterlimit:4;stroke-dasharray:none;stroke-opacity:1"
     sodipodi:type="star"
     d="m 18.727402,20.60511 -1.481746,-0.09666 -0.91965,1.165829 -0.365956,-1.439093 -1.392958,-0.514378 1.255573,-0.79275 0.05875,-1.483733 1.141943,0.949148 1.42927,-0.40262 -0.549813,1.379355 z" />
  <path
     sodipodi:type="star"
     style="fill:#ffffff;fill-opacity:1;stroke:none;stroke-width:1.16101;stroke-miterlimit:4;stroke-dasharray:none;stroke-opacity:1"
     id="path872"
     sodipodi:sides="5"
     sodipodi:cx="16.938183"
     sodipodi:cy="12.846752"
     sodipodi:r1="1.2980465"
     sodipodi:r2="0.64902323"
     sodipodi:arg1="0.52359878"
     sodipodi:arg2="1.1519173"
     inkscape:flatsided="false"
     inkscape:rounded="0"
     inkscape:randomized="0"
     inkscape:transform-center-x="0.083398454"
     inkscape:transform-center-y="0.041928146"
     d="m 18.062324,13.495775 -0.86016,-0.05611 -0.53386,0.676769 -0.212439,-0.8354 -0.808618,-0.298598 0.728865,-0.460194 0.03411,-0.861313 0.662902,0.550984 0.829697,-0.233722 -0.319168,0.800721 z" />
  <path
     inkscape:transform-center-y="0.041928146"
     inkscape:transform-center-x="0.083398454"
     inkscape:randomized="0"
     inkscape:rounded="0"
     inkscape:flatsided="false"
     sodipodi:arg2="1.1519173"
     sodipodi:arg1="0.52359878"
     sodipodi:r2="0.64902323"
     sodipodi:r1="1.2980465"
     sodipodi:cy="22.935931"
     sodipodi:cx="7.3851388"
     sodipodi:sides="5"
     id="path874"
     style="fill:#ffffff;fill-opacity:1;stroke:none;stroke-width:1.16101;stroke-miterlimit:4;stroke-dasharray:none;stroke-opacity:1"
     sodipodi:type="star"
     d="m 8.5092802,23.584953 -0.8601597,-0.05611 -0.5338606,0.676769 -0.2124392,-0.835399 -0.8086173,-0.298599 0.728865,-0.460194 0.034107,-0.861313 0.6629026,0.550984 0.829697,-0.233722 -0.3191687,0.800721 z" />
  <path
     sodipodi:type="star"
     style="fill:#ffffff;fill-opacity:1;stroke:none;stroke-width:1.16101;stroke-miterlimit:4;stroke-dasharray:none;stroke-opacity:1"
     id="path876"
     sodipodi:sides="5"
     sodipodi:cx="23.767882"
     sodipodi:cy="17.005053"
     sodipodi:r1="1.2980465"
     sodipodi:r2="0.64902323"
     sodipodi:arg1="0.52359878"
     sodipodi:arg2="1.1519173"
     inkscape:flatsided="false"
     inkscape:rounded="0"
     inkscape:randomized="0"
     inkscape:transform-center-x="0.083398454"
     inkscape:transform-center-y="0.041928146"
     d="m 24.892023,17.654076 -0.86016,-0.05611 -0.533861,0.676769 -0.212439,-0.8354 -0.808617,-0.298599 0.728865,-0.460194 0.03411,-0.861313 0.662903,0.550984 0.829697,-0.233722 -0.319169,0.800721 z" />
  <path
     style="fill:#ffffff;fill-opacity:1;stroke:none;stroke-width:2;stroke-miterlimit:4;stroke-dasharray:none;stroke-opacity:1"
     d="M 34.462032,7.7199348 A 11,11 0 0 0 26.683858,21.192129 11,11 0 0 0 40.156051,28.970303 11,11 0 0 0 43.295632,27.556823 11,11 0 0 1 33.264227,19.428924 11,11 0 0 1 37.902821,7.370211 11,11 0 0 0 34.462032,7.7199348 Z"
     id="path878"
     inkscape:connector-curvature="0" />
</svg>
