<?xml version="1.0" encoding="UTF-8" standalone="no"?>
<svg
   xmlns:dc="http://purl.org/dc/elements/1.1/"
   xmlns:cc="http://creativecommons.org/ns#"
   xmlns:rdf="http://www.w3.org/1999/02/22-rdf-syntax-ns#"
   xmlns:svg="http://www.w3.org/2000/svg"
   xmlns="http://www.w3.org/2000/svg"
   xmlns:sodipodi="http://sodipodi.sourceforge.net/DTD/sodipodi-0.dtd"
   xmlns:inkscape="http://www.inkscape.org/namespaces/inkscape"
   height="48"
   width="48"
   version="1.1"
   id="svg8"
   sodipodi:docname="libreoffice34-template.svg"
   inkscape:version="1.0.2 (e86c870879, 2021-01-15)">
  <metadata
     id="metadata14">
    <rdf:RDF>
      <cc:Work
         rdf:about="">
        <dc:format>image/svg+xml</dc:format>
        <dc:type
           rdf:resource="http://purl.org/dc/dcmitype/StillImage" />
        <dc:title></dc:title>
      </cc:Work>
    </rdf:RDF>
  </metadata>
  <defs
     id="defs12" />
  <sodipodi:namedview
     pagecolor="#ffffff"
     bordercolor="#666666"
     borderopacity="1"
     objecttolerance="10"
     gridtolerance="10"
     guidetolerance="10"
     inkscape:pageopacity="0"
     inkscape:pageshadow="2"
     inkscape:window-width="1920"
     inkscape:window-height="1031"
     id="namedview10"
     showgrid="false"
     inkscape:zoom="9.4583333"
     inkscape:cx="14.070137"
     inkscape:cy="27.288289"
     inkscape:window-x="0"
     inkscape:window-y="24"
     inkscape:window-maximized="1"
     inkscape:current-layer="svg8"
     inkscape:document-rotation="0" />
  <path
     d="m44.322082 27.405077a19.729762 19.729765 0 0 1 -19.729762 19.729765 19.729762 19.729765 0 0 1 -19.7297621-19.729765 19.729762 19.729765 0 0 1 19.7297621-19.7297632 19.729762 19.729765 0 0 1 19.729762 19.7297632z"
     fill="#89a02c"
     opacity=".99"
     transform="matrix(1.1503549 0 0 1.1503549 -4.486125 -7.525565)"
     id="path2"
     style="fill:#ababab;fill-opacity:1" />
  <path
     d="m 1.1075423,24 c 0,12.534782 10.1614467,22.696231 22.6962277,22.696231 V 1.3037694 C 11.26899,1.3037694 1.1075433,11.465217 1.1075423,24 Z"
     fill="#89a02c"
     opacity="0.99"
     id="path839"
     sodipodi:nodetypes="sccs"
     style="fill:#757575;fill-opacity:1;stroke-width:1.15035" />
  <path
     d="m 22.488741,3.3735097 c -1.170351,0 -2.119077,0.6568275 -2.119077,1.4670872 0.03406,0.302267 0.225145,0.6839829 0.326027,0.8150321 0.489008,0.652055 0.489008,1.059537 0.366755,1.304043 h -3.95292 c -0.72245,0 -1.304043,0.581593 -1.304043,1.3040424 v 3.3011226 c 0.244505,0.12225 0.652053,0.12225 1.304043,-0.366761 0.131052,-0.10088 0.512767,-0.291954 0.815034,-0.326025 0.810258,0 1.467088,0.948474 1.467088,2.119079 0,1.170351 -0.65683,2.119075 -1.467088,2.119075 -0.248652,-0.0041 -0.626722,-0.22659 -0.815034,-0.326025 -0.652053,-0.489006 -1.059538,-0.489006 -1.304043,-0.366756 v 4.279135 c 0,0.72245 0.581593,1.304043 1.304043,1.304043 h 5.257151 c 0.122252,-0.244505 0.122252,-0.65205 -0.366756,-1.304043 -0.100882,-0.131049 -0.291959,-0.512765 -0.326027,-0.815032 0,-0.81026 0.948476,-1.467091 2.119078,-1.467091 1.170351,0 2.119077,0.656831 2.119077,1.467091 -0.0042,0.248649 -0.226591,0.626721 -0.326026,0.815032 -0.489008,0.652055 -0.489008,1.059538 -0.366757,1.304043 h 2.322852 c 0.722449,0 1.304042,-0.581593 1.304042,-1.304043 v -3.626892 c 0.244505,-0.122256 0.652053,-0.122256 1.304042,0.366755 0.188313,0.09937 0.566321,0.321816 0.815036,0.326025 0.810257,0 1.467088,-0.948473 1.467088,-2.119079 0,-1.170351 -0.656831,-2.119075 -1.467088,-2.119075 -0.302268,0.03406 -0.683983,0.225145 -0.815036,0.326026 -0.652052,0.489011 -1.059537,0.489011 -1.304042,0.366756 V 8.2641574 c 0,-0.7224514 -0.581593,-1.3040444 -1.304042,-1.3040444 h -3.626894 c -0.122252,-0.244505 -0.122252,-0.652055 0.366757,-1.3040427 0.09937,-0.1883106 0.321813,-0.5663212 0.326026,-0.815036 0,-0.8102549 -0.948476,-1.4670872 -2.119078,-1.4670872"
     fill="#ffffff"
     stroke-width="0.039116"
     id="path6" />
</svg>
