<?xml version="1.0" encoding="UTF-8" standalone="no"?>
<svg
   xmlns:dc="http://purl.org/dc/elements/1.1/"
   xmlns:cc="http://creativecommons.org/ns#"
   xmlns:rdf="http://www.w3.org/1999/02/22-rdf-syntax-ns#"
   xmlns:svg="http://www.w3.org/2000/svg"
   xmlns="http://www.w3.org/2000/svg"
   xmlns:sodipodi="http://sodipodi.sourceforge.net/DTD/sodipodi-0.dtd"
   xmlns:inkscape="http://www.inkscape.org/namespaces/inkscape"
   height="48"
   width="48"
   version="1.1"
   id="svg6"
   sodipodi:docname="preferences-notification.svg"
   inkscape:version="1.0.2 (e86c870879, 2021-01-15)">
  <metadata
     id="metadata12">
    <rdf:RDF>
      <cc:Work
         rdf:about="">
        <dc:format>image/svg+xml</dc:format>
        <dc:type
           rdf:resource="http://purl.org/dc/dcmitype/StillImage" />
        <dc:title />
      </cc:Work>
    </rdf:RDF>
  </metadata>
  <defs
     id="defs10" />
  <sodipodi:namedview
     pagecolor="#ffffff"
     bordercolor="#666666"
     borderopacity="1"
     objecttolerance="10"
     gridtolerance="10"
     guidetolerance="10"
     inkscape:pageopacity="0"
     inkscape:pageshadow="2"
     inkscape:window-width="1920"
     inkscape:window-height="1031"
     id="namedview8"
     showgrid="false"
     inkscape:zoom="13.376103"
     inkscape:cx="15.717127"
     inkscape:cy="22.326507"
     inkscape:window-x="0"
     inkscape:window-y="24"
     inkscape:window-maximized="1"
     inkscape:current-layer="svg6"
     inkscape:document-rotation="0" />
  <circle
     cx="23.940615"
     cy="31.534513"
     fill="#74a2f3"
     opacity=".99"
     r="13.232998"
     transform="matrix(1.75830584759 0 0 1.75830608345 -18.15909274367 -30.97874795549)"
     id="circle2"
     style="fill:#bdcddc;fill-opacity:1" />
  <path
     id="rect857"
     style="fill:#7fa2b0;fill-opacity:1;stroke-width:0.8;stroke-linecap:square"
     d="M 23.892578 1.2011719 A 23.267658 23.267661 0 0 0 0.66796875 24.46875 A 23.267658 23.267661 0 0 0 3.1425781 34.90625 L 44.730469 34.90625 A 23.267658 23.267661 0 0 0 47.203125 24.46875 A 23.267658 23.267661 0 0 0 23.935547 1.2011719 A 23.267658 23.267661 0 0 0 23.892578 1.2011719 z " />
  <g
     fill="#ffffff"
     transform="matrix(1.2946429,0,0,1.2946429,-7.6896455,-7.1659557)"
     id="g8">
    <path
       d="m 24.501953,12.142578 a 1.4270508,1.5 0 0 0 -1.427734,1.5 1.4270508,1.5 0 0 0 1.427734,1.5 1.4270508,1.5 0 0 0 1.425781,-1.5 1.4270508,1.5 0 0 0 -1.425781,-1.5 z m 0,13 a 1.4270515,1.5000008 0 0 0 -1.427734,1.5 1.4270515,1.5000008 0 0 0 1.427734,1.5 1.4270515,1.5000008 0 0 0 1.425781,-1.5 1.4270515,1.5000008 0 0 0 -1.425781,-1.5 z"
       fill-opacity="0.565543"
       id="path4" />
    <path
       d="m 24.427734,14.142578 a 4.5,4 0 0 0 -4.5,4 c 0,0 -1,6 -2,6 0,0 -1,0 -1,1 0,1 1,1 1,1 h 13 c 0,0 1,0 1,-1 0,-1 -1,-1 -1,-1 -1,0 -2,-6 -2,-6 a 4.5,4 0 0 0 -4.5,-4 z"
       id="path6" />
  </g>
</svg>
