<?xml version="1.0" encoding="UTF-8" standalone="no"?>
<svg
   xmlns:dc="http://purl.org/dc/elements/1.1/"
   xmlns:cc="http://creativecommons.org/ns#"
   xmlns:rdf="http://www.w3.org/1999/02/22-rdf-syntax-ns#"
   xmlns:svg="http://www.w3.org/2000/svg"
   xmlns="http://www.w3.org/2000/svg"
   xmlns:sodipodi="http://sodipodi.sourceforge.net/DTD/sodipodi-0.dtd"
   xmlns:inkscape="http://www.inkscape.org/namespaces/inkscape"
   height="48"
   width="48"
   version="1.1"
   id="svg6"
   sodipodi:docname="sylpheed.svg"
   inkscape:version="1.0.2 (e86c870879, 2021-01-15)">
  <metadata
     id="metadata12">
    <rdf:RDF>
      <cc:Work
         rdf:about="">
        <dc:format>image/svg+xml</dc:format>
        <dc:type
           rdf:resource="http://purl.org/dc/dcmitype/StillImage" />
        <dc:title></dc:title>
      </cc:Work>
    </rdf:RDF>
  </metadata>
  <defs
     id="defs10" />
  <sodipodi:namedview
     pagecolor="#ffffff"
     bordercolor="#666666"
     borderopacity="1"
     objecttolerance="10"
     gridtolerance="10"
     guidetolerance="10"
     inkscape:pageopacity="0"
     inkscape:pageshadow="2"
     inkscape:window-width="1920"
     inkscape:window-height="1031"
     id="namedview8"
     showgrid="false"
     inkscape:zoom="18.916667"
     inkscape:cx="24"
     inkscape:cy="24"
     inkscape:window-x="0"
     inkscape:window-y="24"
     inkscape:window-maximized="1"
     inkscape:current-layer="svg6" />
  <path
     d="m44.322082 27.405077a19.729762 19.729765 0 0 1 -19.729762 19.729765 19.729762 19.729765 0 0 1 -19.7297621-19.729765 19.729762 19.729765 0 0 1 19.7297621-19.7297632 19.729762 19.729765 0 0 1 19.729762 19.7297632z"
     fill="#59b6a4"
     opacity=".99"
     transform="matrix(1.1503549 0 0 1.1503549 -4.486125 -7.525565)"
     id="path2"
     style="fill:#d6a485;fill-opacity:1" />
  <path
     d="m24 10.5-13.5 10.5h27zm13.5 10.5-13.5 6 10.5 7.5-24-12.705078v15.705078h27z"
     fill="#fff"
     id="path4" />
  <circle
     style="fill:#ffffff;fill-opacity:1;stroke:#d6a485;stroke-width:2;stroke-linecap:round;stroke-linejoin:round;stroke-miterlimit:4;stroke-dasharray:none;stroke-dashoffset:0;stroke-opacity:0.99215686;paint-order:fill markers stroke"
     id="path4516"
     cx="33.144844"
     cy="33.969234"
     r="8" />
  <path
     d="m 33.677018,29.70987 c -0.87555,0 -1.67967,0.284092 -2.274246,0.781955 -0.594643,0.497921 -0.980731,1.21615 -0.980731,2.040389 0,0.848977 0.480701,1.570802 1.159047,1.89423 0.652018,0.310875 1.476761,0.189448 2.161702,-0.432633 0.0181,-2.42e-4 0.05465,0.0018 0.09062,-0.03362 0.0091,-0.009 0.01241,-0.01387 0.01315,-0.01461 a 0.1122619,0.1122619 0 0 0 0.0088,-0.01023 c 0.105767,-0.135964 0.08353,-0.31379 -0.0073,-0.422401 -0.09081,-0.108611 -0.267385,-0.157229 -0.412171,-0.06431 a 0.1122619,0.1122619 0 0 0 -0.0073,0.0058 c -0.02968,0.02276 -0.03174,0.0276 -0.01315,0.01316 -0.588353,0.452805 -1.091585,0.393708 -1.498138,0.153468 -0.404709,-0.239154 -0.660262,-0.712102 -0.640178,-1.06989 a 0.1122619,0.1122619 0 0 0 0,-0.0029 c 1.68e-4,-0.0057 1.16e-4,-0.0104 0,-0.01607 0,-0.53607 0.146875,-0.828306 0.388785,-1.049427 0.23965,-0.219054 0.599582,-0.357604 1.021656,-0.416555 0.845566,-0.1181 1.905155,0.07003 2.532948,0.160776 0.880379,0.127268 1.541306,-0.09173 1.979003,-0.350783 0.19213,-0.113713 0.326487,-0.227158 0.419478,-0.32009 0.08923,-0.08917 0.139354,-0.159326 0.159315,-0.185623 -4.73e-4,4.46e-4 0.0029,-0.0031 0.0029,-0.0029 3.91e-4,-5.11e-4 0.004,-0.0025 0.0044,-0.0029 0.0066,-0.0058 0.0159,-0.01428 0.02484,-0.02193 0.01791,-0.0153 0.03508,-0.02923 0.03508,-0.02923 a 0.1122619,0.1122619 0 0 0 0.01316,-0.01461 c 0.04383,-0.05151 0.07044,-0.113982 0.07746,-0.181238 a 0.1122619,0.1122619 0 0 0 0.0015,-0.01023 c 0.0047,-0.235863 -0.24388,-0.407565 -0.456018,-0.305474 h -0.0015 c -0.586902,0.272748 -1.200252,0.261598 -1.838672,0.173898 -0.638924,-0.08777 -1.296644,-0.253818 -1.961464,-0.26601 a 0.1122619,0.1122619 0 0 0 -0.0029,0 z m 0.317167,2.724417 c -0.117779,-0.0057 -0.236769,-0.0015 -0.35663,0.01316 -0.455787,0.05585 -0.916061,0.273399 -1.346132,0.662103 l -0.01754,0.01316 c 0.0045,-0.0041 0.0087,-0.0076 0.01316,-0.0117 -5.88e-4,-1.2e-5 -0.004,0.002 -0.02193,0.01316 a 0.1122619,0.1122619 0 0 0 -0.01754,0.01316 c -0.01673,0.01564 -0.02219,0.02351 -0.02484,0.02631 -0.134143,0.124759 -0.1301,0.317053 -0.04531,0.438479 0.04239,0.06071 0.104556,0.109536 0.181238,0.130082 0.07668,0.02054 0.166343,0.0088 0.244087,-0.03946 0.709025,-0.440161 1.258078,-0.409053 1.660374,-0.162237 0.400041,0.245434 0.66795,0.748913 0.66795,1.347593 0,0.775977 -0.366573,1.474958 -1.040657,2.014081 -0.0683,0.05462 -0.199999,0.105676 -0.323013,0.168083 -0.713492,-0.884419 -1.736489,-1.796302 -3.238899,-1.796302 a 0.1122619,0.1122619 0 0 0 -0.0029,0 c -1.140777,0.0189 -1.892947,0.854655 -1.783148,1.743685 0.05485,0.444203 0.318889,0.873742 0.770262,1.172201 0.45035,0.297785 1.085231,0.476481 1.904461,0.476481 0.715966,0 1.5364,-0.194241 2.322478,-0.475019 0.20066,0.278223 0.486712,0.647488 0.486712,0.647488 l -0.0117,-0.019 c 0.04432,0.08963 0.120906,0.152027 0.203162,0.17393 0.08226,0.0219 0.164657,0.0067 0.233856,-0.0307 0.138397,-0.07491 0.226026,-0.265058 0.13739,-0.444326 a 0.1122619,0.1122619 0 0 0 -0.01023,-0.019 c 0,0 -0.232488,-0.319932 -0.380015,-0.540792 0.08254,-0.02845 0.163259,-0.05109 0.254318,-0.100849 1.019022,-0.556919 1.848921,-1.473621 1.848921,-2.741957 0,-0.994533 -0.531743,-1.907914 -1.318361,-2.373634 -0.296595,-0.175599 -0.636167,-0.281141 -0.989502,-0.298166 z m -3.588222,3.903927 c 1.023392,0 1.812626,0.507405 2.417482,1.058196 -0.524744,0.212136 -1.079575,0.388784 -1.761225,0.388784 -0.921947,0 -1.442948,-0.489769 -1.541984,-0.822879 -0.05259,-0.176913 -0.03724,-0.285666 0.076,-0.401939 0.107039,-0.109909 0.361983,-0.222162 0.809724,-0.222162 z"
     fill="#f8fbfe"
     id="path19"
     style="fill:#d6a485;fill-opacity:0.992157;stroke-width:0.748338" />
</svg>
