<?xml version="1.0" encoding="UTF-8" standalone="no"?>
<svg
   height="48"
   width="48"
   version="1.1"
   id="svg6"
   sodipodi:docname="airstrike.svg"
   inkscape:version="1.1.2 (0a00cf5339, 2022-02-04)"
   xmlns:inkscape="http://www.inkscape.org/namespaces/inkscape"
   xmlns:sodipodi="http://sodipodi.sourceforge.net/DTD/sodipodi-0.dtd"
   xmlns="http://www.w3.org/2000/svg"
   xmlns:svg="http://www.w3.org/2000/svg"
   xmlns:rdf="http://www.w3.org/1999/02/22-rdf-syntax-ns#"
   xmlns:cc="http://creativecommons.org/ns#"
   xmlns:dc="http://purl.org/dc/elements/1.1/">
  <metadata
     id="metadata12">
    <rdf:RDF>
      <cc:Work
         rdf:about="">
        <dc:format>image/svg+xml</dc:format>
        <dc:type
           rdf:resource="http://purl.org/dc/dcmitype/StillImage" />
        <dc:title />
      </cc:Work>
    </rdf:RDF>
  </metadata>
  <defs
     id="defs10" />
  <sodipodi:namedview
     pagecolor="#ffffff"
     bordercolor="#666666"
     borderopacity="1"
     objecttolerance="10"
     gridtolerance="10"
     guidetolerance="10"
     inkscape:pageopacity="0"
     inkscape:pageshadow="2"
     inkscape:window-width="1920"
     inkscape:window-height="1031"
     id="namedview8"
     showgrid="false"
     inkscape:zoom="11.313708"
     inkscape:cx="-14.49569"
     inkscape:cy="20.771263"
     inkscape:window-x="0"
     inkscape:window-y="0"
     inkscape:window-maximized="1"
     inkscape:current-layer="svg6"
     inkscape:document-rotation="0"
     inkscape:pagecheckerboard="0" />
  <path
     id="circle2"
     style="opacity:0.99;fill:#a9b7c0;fill-opacity:1"
     transform="matrix(1.75830584759 0 0 1.75830608345 -18.15909274367 -30.97874795549)"
     d="M 37.173613,31.534513 A 13.232998,13.232998 0 0 1 23.940615,44.767511 13.232998,13.232998 0 0 1 10.707617,31.534513 13.232998,13.232998 0 0 1 23.940615,18.301516 13.232998,13.232998 0 0 1 37.173613,31.534513 Z" />
  <path
     id="circle856"
     style="opacity:0.99;fill:#ffffff;stroke-width:1.54048;fill-opacity:1"
     d="M 44.320925,24.468578 A 20.385096,20.385099 0 0 1 23.935829,44.853678 20.385096,20.385099 0 0 1 3.5507336,24.468578 20.385096,20.385099 0 0 1 23.935829,4.0834789 20.385096,20.385099 0 0 1 44.320925,24.468578 Z" />
  <g
     id="g872"
     transform="translate(0.04389952)">
    <rect
       style="fill:#81a1c1;fill-opacity:1;stroke-width:2;stroke-linecap:square;stroke-linejoin:round"
       id="rect861"
       width="0.77248365"
       height="4.9077463"
       x="19.884663"
       y="29.36076"
       rx="0.768435"
       ry="0.768435" />
    <rect
       style="fill:#81a1c1;fill-opacity:1;stroke-width:2;stroke-linecap:square;stroke-linejoin:round"
       id="rect863"
       width="0.77248365"
       height="4.9077463"
       x="26.355444"
       y="29.36076"
       rx="0.768435"
       ry="0.768435" />
    <g
       id="g853"
       transform="translate(-1.9756851,-1.5889473)">
      <circle
         cx="25.867615"
         cy="20.855721"
         style="fill:#d08770;fill-opacity:1;stroke-width:0.563017"
         id="circle8"
         r="11.260324" />
      <path
         d="m 25.867617,9.5953946 c 0,0 3.378097,4.5041304 3.378097,11.2603234 0,6.756195 -3.378097,11.260325 -3.378097,11.260325 0,0 7.882227,-2.252064 7.882227,-11.260325 0,-9.008259 -7.882227,-11.2603234 -7.882227,-11.2603234 z"
         style="fill:#ffffff;fill-opacity:1;stroke-width:0.563017"
         id="path14" />
      <path
         d="m 25.867617,9.5953946 c 0,0 -3.378096,4.5041304 -3.378096,11.2603234 0,6.756195 3.378096,11.260325 3.378096,11.260325 0,0 -7.882227,-2.252064 -7.882227,-11.260325 0,-9.008259 7.882227,-11.2603234 7.882227,-11.2603234 z"
         style="fill:#ffffff;fill-opacity:1;stroke-width:0.563017"
         id="path16" />
    </g>
    <path
       id="rect855"
       style="fill:#81a1c1;fill-opacity:1;stroke-width:2;stroke-linecap:square;stroke-linejoin:round"
       d="m 19.714844,33.548828 c -0.425712,0 -0.839632,0.349629 -0.769532,0.769531 l 1.101563,6.601563 c 0.0701,0.419902 0.343819,0.769531 0.769531,0.769531 h 2.75 2.75 c 0.425712,0 0.697478,-0.349629 0.767578,-0.769531 L 28.1875,34.318359 c 0.0701,-0.419902 -0.343819,-0.769531 -0.769531,-0.769531 h -3.851563 z" />
  </g>
</svg>
