<?xml version="1.0" encoding="UTF-8" standalone="no"?>
<svg
   xmlns:dc="http://purl.org/dc/elements/1.1/"
   xmlns:cc="http://creativecommons.org/ns#"
   xmlns:rdf="http://www.w3.org/1999/02/22-rdf-syntax-ns#"
   xmlns:svg="http://www.w3.org/2000/svg"
   xmlns="http://www.w3.org/2000/svg"
   xmlns:sodipodi="http://sodipodi.sourceforge.net/DTD/sodipodi-0.dtd"
   xmlns:inkscape="http://www.inkscape.org/namespaces/inkscape"
   height="48"
   width="48"
   version="1.1"
   id="svg6"
   sodipodi:docname="amazon.svg"
   inkscape:version="1.0.2 (e86c870879, 2021-01-15)">
  <metadata
     id="metadata12">
    <rdf:RDF>
      <cc:Work
         rdf:about="">
        <dc:format>image/svg+xml</dc:format>
        <dc:type
           rdf:resource="http://purl.org/dc/dcmitype/StillImage" />
        <dc:title></dc:title>
      </cc:Work>
    </rdf:RDF>
  </metadata>
  <defs
     id="defs10" />
  <sodipodi:namedview
     pagecolor="#ffffff"
     bordercolor="#666666"
     borderopacity="1"
     objecttolerance="10"
     gridtolerance="10"
     guidetolerance="10"
     inkscape:pageopacity="0"
     inkscape:pageshadow="2"
     inkscape:window-width="1920"
     inkscape:window-height="1031"
     id="namedview8"
     showgrid="false"
     inkscape:zoom="9.4583333"
     inkscape:cx="21.896482"
     inkscape:cy="38.77567"
     inkscape:window-x="0"
     inkscape:window-y="24"
     inkscape:window-maximized="1"
     inkscape:current-layer="svg6"
     inkscape:document-rotation="0" />
  <circle
     cx="23.940615"
     cy="31.534513"
     fill="#5e81ac"
     opacity=".99"
     r="13.232998"
     transform="matrix(1.75830584759 0 0 1.75830608345 -18.15909274367 -30.97874795549)"
     id="circle2"
     style="fill:#d59f83;fill-opacity:1" />
  <g
     id="g894"
     transform="matrix(1.2487672,0,0,1.2487672,-7.7509503,-11.575133)">
    <path
       d="m 23.44008,38.986592 c -2.08011,-0.24984 -4.052218,-1.166953 -6.319885,-2.939 -0.710854,-0.555487 -1.493204,-1.231134 -1.559466,-1.346765 -0.09873,-0.172294 -0.07554,-0.373884 0.05841,-0.507837 0.208308,-0.208307 0.370304,-0.167791 1.226281,0.306662 2.66441,1.47686 4.360949,2.159108 6.219964,2.501302 0.707376,0.130209 2.888611,0.131316 3.721989,0.0019 1.726227,-0.268093 2.987953,-0.614497 4.711094,-1.293416 0.988772,-0.389574 1.107998,-0.402264 1.355239,-0.144201 0.161482,0.16855 0.186064,0.433431 0.05832,0.628394 -0.108435,0.165493 -0.72935,0.597574 -1.430729,0.995618 -2.479079,1.406918 -5.559476,2.095443 -8.041216,1.797354 z m 9.941952,-1.718817 c -0.05495,-0.05495 -0.09992,-0.154919 -0.09992,-0.222139 0,-0.06722 0.121536,-0.488759 0.270075,-0.936743 0.314016,-0.947036 0.376089,-1.285314 0.257595,-1.403805 -0.127431,-0.127428 -0.508868,-0.156225 -1.152164,-0.08699 -1.117108,0.120236 -1.267643,0.122952 -1.376079,0.02482 -0.150332,-0.136054 -0.13081,-0.422941 0.03966,-0.58269 0.182289,-0.170825 0.627389,-0.415799 0.969071,-0.533357 0.684479,-0.235492 2.093828,-0.269843 2.56265,-0.06245 0.343382,0.151893 0.403934,0.286555 0.395196,0.878884 -0.01427,0.968386 -0.431531,2.024332 -1.057103,2.675207 -0.298079,0.310122 -0.356504,0.349193 -0.522344,0.349193 -0.12011,0 -0.222366,-0.03565 -0.286641,-0.09992 z"
       stroke-width="0.090752"
       id="path6"
       style="fill:#ffffff" />
    <path
       d="m 22.150246,32.913088 c -0.817136,-0.17244 -1.5875,-0.635268 -2.024083,-1.216054 -0.302102,-0.401886 -0.440559,-0.680866 -0.605204,-1.219453 -0.123972,-0.405533 -0.134574,-0.508543 -0.135275,-1.31431 -8.58e-4,-1.024154 0.07279,-1.376304 0.445408,-2.128846 0.651761,-1.316289 2.035175,-2.155525 4.193752,-2.544108 0.532806,-0.09591 2.058513,-0.271729 2.364736,-0.2725 0.4016,-0.001 0.408882,-0.01464 0.408882,-0.765266 0,-1.019886 -0.186825,-1.549487 -0.660349,-1.871907 -0.34966,-0.238082 -0.657502,-0.330093 -1.108117,-0.331205 -0.648619,-0.0016 -1.176807,0.218366 -1.593158,0.66348 -0.252606,0.270056 -0.362323,0.460111 -0.464772,0.8051 -0.03863,0.130087 -0.116882,0.295819 -0.17389,0.368293 -0.0885,0.112511 -0.14201,0.13177 -0.366106,0.13177 -0.144351,0 -0.500272,-0.03338 -0.790938,-0.07418 -0.290665,-0.0408 -0.746738,-0.09852 -1.013496,-0.128267 -0.578663,-0.06452 -0.692069,-0.102666 -0.801401,-0.269529 -0.07759,-0.118414 -0.07724,-0.150499 0.0052,-0.489335 0.214749,-0.882228 0.531554,-1.446365 1.171564,-2.086217 0.731965,-0.731779 1.511645,-1.119485 2.75933,-1.372114 0.523522,-0.106 0.763801,-0.126673 1.472403,-0.126673 1.8137,0 3.17896,0.461081 4.065206,1.372914 0.513739,0.528573 0.775409,1.104277 0.901298,1.98297 0.0384,0.267986 0.0703,1.580705 0.08964,3.688412 l 0.03003,3.272352 0.161818,0.374701 c 0.089,0.20608 0.288562,0.543055 0.443479,0.748835 0.373379,0.495973 0.450948,0.662688 0.389553,0.837265 -0.04561,0.12969 -0.945268,0.955364 -1.76003,1.615293 -0.331315,0.268353 -0.387184,0.295776 -0.602627,0.295776 -0.228375,0 -0.252166,-0.01442 -0.622104,-0.377236 -0.211555,-0.20748 -0.532319,-0.578427 -0.712807,-0.824333 -0.180487,-0.245904 -0.355405,-0.447099 -0.388701,-0.447099 -0.03329,0 -0.16077,0.103925 -0.283271,0.230945 -0.519652,0.538807 -1.201376,1.009195 -1.809202,1.248336 -0.74086,0.291488 -2.15868,0.39696 -2.986806,0.222197 z M 24.919,30.536618 c 0.656819,-0.171084 1.111459,-0.582929 1.477914,-1.338797 0.334665,-0.690304 0.408231,-1.107003 0.390308,-2.210826 l -0.01374,-0.846282 -0.599516,0.01047 c -0.856417,0.01494 -1.336821,0.112151 -1.894174,0.383285 -0.965313,0.469596 -1.379508,1.21507 -1.313158,2.363428 0.03473,0.60115 0.194231,0.972024 0.562951,1.309014 0.403689,0.368947 0.840669,0.47264 1.389418,0.329712 z"
       stroke-width="0.090752"
       id="path8"
       style="fill:#ffffff" />
  </g>
</svg>
