<?xml version="1.0" encoding="UTF-8" standalone="no"?>
<svg
   height="48"
   width="48"
   version="1.1"
   id="svg6"
   sodipodi:docname="yast-system.svg"
   inkscape:version="1.1.2 (0a00cf5339, 2022-02-04)"
   xmlns:inkscape="http://www.inkscape.org/namespaces/inkscape"
   xmlns:sodipodi="http://sodipodi.sourceforge.net/DTD/sodipodi-0.dtd"
   xmlns="http://www.w3.org/2000/svg"
   xmlns:svg="http://www.w3.org/2000/svg"
   xmlns:rdf="http://www.w3.org/1999/02/22-rdf-syntax-ns#"
   xmlns:cc="http://creativecommons.org/ns#"
   xmlns:dc="http://purl.org/dc/elements/1.1/">
  <metadata
     id="metadata12">
    <rdf:RDF>
      <cc:Work
         rdf:about="">
        <dc:format>image/svg+xml</dc:format>
        <dc:type
           rdf:resource="http://purl.org/dc/dcmitype/StillImage" />
        <dc:title />
      </cc:Work>
    </rdf:RDF>
  </metadata>
  <defs
     id="defs10" />
  <sodipodi:namedview
     pagecolor="#ffffff"
     bordercolor="#666666"
     borderopacity="1"
     objecttolerance="10"
     gridtolerance="10"
     guidetolerance="10"
     inkscape:pageopacity="0"
     inkscape:pageshadow="2"
     inkscape:window-width="1920"
     inkscape:window-height="1031"
     id="namedview8"
     showgrid="false"
     inkscape:zoom="6.6880516"
     inkscape:cx="-35.361569"
     inkscape:cy="46.725118"
     inkscape:window-x="0"
     inkscape:window-y="0"
     inkscape:window-maximized="1"
     inkscape:current-layer="svg6"
     inkscape:document-rotation="0"
     inkscape:pagecheckerboard="0" />
  <path
     id="circle2"
     style="opacity:0.99;fill:#5e81ac;fill-opacity:1"
     transform="matrix(1.75830584759 0 0 1.75830608345 -18.15909274367 -30.97874795549)"
     d="M 37.173613,31.534513 A 13.232998,13.232998 0 0 1 23.940615,44.767511 13.232998,13.232998 0 0 1 10.707617,31.534513 13.232998,13.232998 0 0 1 23.940615,18.301516 13.232998,13.232998 0 0 1 37.173613,31.534513 Z" />
  <path
     d="m 15.053497,13.23065 c -0.554,0 -1,0.446 -1,1 v 1.361328 a 7.986136,8.0745239 0 0 0 -1.96875,0.841797 l -0.98047,-0.980469 c -0.195869,-0.195868 -0.451412,-0.294922 -0.707031,-0.294922 -0.255619,0 -0.5111626,0.09905 -0.7070306,0.294922 l -1.4140628,1.414063 c -0.3917368,0.391737 -0.3917368,1.022324 0,1.414062 l 0.9882818,0.988281 A 7.986136,8.0745239 0 0 0 8.4343558,21.23065 H 7.0534964 c -0.554,0 -1,0.446 -1,1 v 2 c 0,0.554 0.446,1 1,1 h 1.3046875 a 7.986136,8.0745239 0 0 0 0.7910156,2.076172 l -0.8730469,0.873047 c -0.3917368,0.391738 -0.3917368,1.022325 0,1.414062 l 1.4140628,1.414063 c 0.3917366,0.391737 1.0223236,0.391737 1.4140616,0 l 0.785158,-0.785156 a 7.986136,8.0745239 0 0 0 2.164062,0.953124 v 1.054688 c 0,0.554 0.446,1 1,1 h 2 c 0.554,0 1,-0.446 1,-1 V 31.215025 A 7.986136,8.0745239 0 0 0 20.2742,30.279478 l 0.728516,0.728516 c 0.391738,0.391737 1.022325,0.391737 1.414062,0 l 1.414063,-1.414063 c 0.391737,-0.391737 0.391737,-1.022324 0,-1.414062 l -0.783203,-0.783203 a 7.986136,8.0745239 0 0 0 0.841797,-2.166016 h 1.164062 c 0.554,0 1,-0.446 1,-1 v -2 c 0,-0.554 -0.446,-1 -1,-1 H 23.817169 A 7.986136,8.0745239 0 0 0 22.93045,19.181822 l 0.900391,-0.900391 c 0.391737,-0.391738 0.391737,-1.022325 0,-1.414062 l -1.414063,-1.414063 c -0.391737,-0.391737 -1.022324,-0.391737 -1.414062,0 l -0.925781,0.925782 A 7.986136,8.0745239 0 0 0 18.053497,15.562681 V 14.23065 c 0,-0.554 -0.446,-1 -1,-1 z m 1,4.3125 a 5.6875,5.6875 0 0 1 5.6875,5.6875 5.6875,5.6875 0 0 1 -5.6875,5.6875 5.6875,5.6875 0 0 1 -5.687501,-5.6875 5.6875,5.6875 0 0 1 5.687501,-5.6875 z"
     id="path4"
     style="fill:#ffffff" />
  <path
     d="m 32.252716,19.050962 c -0.554,0 -1,0.446 -1,1 v 1 a 6.1897211,6.1897211 0 0 0 -1.681641,0.697266 l -0.707031,-0.707032 c -0.391737,-0.391737 -1.022325,-0.391737 -1.414062,0 l -0.707032,0.707032 c -0.391737,0.391737 -0.391737,1.022325 0,1.414062 l 0.708985,0.708984 a 6.1897211,6.1897211 0 0 0 -0.697266,1.679688 h -1.001953 c -0.554,0 -1,0.446 -1,1 v 1 c 0,0.554 0.446,1 1,1 h 1 a 6.1897211,6.1897211 0 0 0 0.697266,1.681641 l -0.707032,0.707031 c -0.391737,0.391737 -0.391737,1.022325 0,1.414062 l 0.707032,0.707032 c 0.391737,0.391737 1.022325,0.391737 1.414062,0 l 0.708984,-0.708985 a 6.1897211,6.1897211 0 0 0 1.679688,0.697266 v 1.001953 c 0,0.554 0.446,1 1,1 h 1 c 0.554,0 1,-0.446 1,-1 v -1 a 6.1897211,6.1897211 0 0 0 1.681641,-0.697266 l 0.707031,0.707032 c 0.391737,0.391737 1.022325,0.391737 1.414062,0 l 0.707032,-0.707032 c 0.391737,-0.391737 0.391737,-1.022325 0,-1.414062 L 38.053497,30.23065 a 6.1897211,6.1897211 0 0 0 0.697266,-1.679688 h 1.001953 c 0.554,0 1,-0.446 1,-1 v -1 c 0,-0.554 -0.446,-1 -1,-1 h -1 A 6.1897211,6.1897211 0 0 0 38.05545,23.869321 l 0.707032,-0.707031 c 0.391737,-0.391737 0.391737,-1.022325 0,-1.414062 L 38.05545,21.041196 c -0.391737,-0.391737 -1.022325,-0.391737 -1.414062,0 l -0.708984,0.708985 a 6.1897211,6.1897211 0 0 0 -1.679688,-0.697266 v -1.001953 c 0,-0.554 -0.446,-1 -1,-1 z m 0.5,4.40625 a 3.59375,3.59375 0 0 1 3.59375,3.59375 3.59375,3.59375 0 0 1 -3.59375,3.59375 3.59375,3.59375 0 0 1 -3.59375,-3.59375 3.59375,3.59375 0 0 1 3.59375,-3.59375 z"
     fill-opacity="0.50365"
     id="path6"
     style="fill:#ffffff" />
</svg>
