<?xml version="1.0" encoding="UTF-8" standalone="no"?>
<svg
   xmlns:dc="http://purl.org/dc/elements/1.1/"
   xmlns:cc="http://creativecommons.org/ns#"
   xmlns:rdf="http://www.w3.org/1999/02/22-rdf-syntax-ns#"
   xmlns:svg="http://www.w3.org/2000/svg"
   xmlns="http://www.w3.org/2000/svg"
   xmlns:sodipodi="http://sodipodi.sourceforge.net/DTD/sodipodi-0.dtd"
   xmlns:inkscape="http://www.inkscape.org/namespaces/inkscape"
   height="48"
   width="48"
   version="1.1"
   id="svg6"
   sodipodi:docname="applications-development-web.svg"
   inkscape:version="1.0.2 (e86c870879, 2021-01-15)">
  <metadata
     id="metadata12">
    <rdf:RDF>
      <cc:Work
         rdf:about="">
        <dc:format>image/svg+xml</dc:format>
        <dc:type
           rdf:resource="http://purl.org/dc/dcmitype/StillImage" />
        <dc:title></dc:title>
      </cc:Work>
    </rdf:RDF>
  </metadata>
  <defs
     id="defs10" />
  <sodipodi:namedview
     pagecolor="#ffffff"
     bordercolor="#666666"
     borderopacity="1"
     objecttolerance="10"
     gridtolerance="10"
     guidetolerance="10"
     inkscape:pageopacity="0"
     inkscape:pageshadow="2"
     inkscape:window-width="1920"
     inkscape:window-height="1031"
     id="namedview8"
     showgrid="false"
     inkscape:zoom="13.376103"
     inkscape:cx="8.2943403"
     inkscape:cy="17.2874"
     inkscape:window-x="0"
     inkscape:window-y="24"
     inkscape:window-maximized="1"
     inkscape:current-layer="svg6"
     inkscape:document-rotation="0" />
  <circle
     cx="23.940615"
     cy="31.534513"
     fill="#5e81ac"
     opacity=".99"
     id="circle2"
     style="fill:#6b77c8;fill-opacity:1"
     transform="matrix(1.75830584759 0 0 1.75830608345 -18.15909274367 -30.97874795549)"
     r="13.232998" />
  <circle
     style="fill:#ffffff;fill-opacity:1;stroke:none;stroke-width:1.07482;stroke-linecap:butt;stroke-linejoin:round;stroke-miterlimit:4;stroke-dasharray:1.07482, 2.14964;stroke-dashoffset:0;stroke-opacity:1;paint-order:fill markers stroke"
     id="path837"
     cx="30.696022"
     cy="9.4739351"
     r="1.2333258" />
  <circle
     r="1.2333258"
     cy="9.4739351"
     cx="34.805206"
     id="circle839"
     style="fill:#ffffff;fill-opacity:1;stroke:none;stroke-width:1.07482;stroke-linecap:butt;stroke-linejoin:round;stroke-miterlimit:4;stroke-dasharray:1.07482, 2.14964;stroke-dashoffset:0;stroke-opacity:1;paint-order:fill markers stroke" />
  <circle
     style="fill:#ffffff;fill-opacity:1;stroke:none;stroke-width:1.07482;stroke-linecap:butt;stroke-linejoin:round;stroke-miterlimit:4;stroke-dasharray:1.07482, 2.14964;stroke-dashoffset:0;stroke-opacity:1;paint-order:fill markers stroke"
     id="circle841"
     cx="38.973515"
     cy="9.4739351"
     r="1.2333258" />
  <path
     style="fill:#ffffff;fill-opacity:1;stroke:none;stroke-width:0.822217px;stroke-linecap:butt;stroke-linejoin:miter;stroke-opacity:1"
     d="M 13.018352,9.0628273 10.326875,12.351696 H 8.0850479 V 40.307082 H 40.151521 V 12.351696 H 24.529393 L 21.240524,9.0628273 Z"
     id="path843"
     sodipodi:nodetypes="ccccccccc" />
  <path
     id="path8810"
     style="fill:#6b77c8;fill-opacity:1;stroke:none;stroke-width:0.170946;stroke-linecap:round;stroke-linejoin:round;stroke-miterlimit:4;stroke-dasharray:none;stroke-opacity:0.168478"
     d="M 24.400922,14.17599 A 11.966266,11.966266 0 0 0 12.433806,26.143106 11.966266,11.966266 0 0 0 22.597504,37.972114 11.073914,11.073914 0 0 1 21.624333,35.914965 10.195787,10.195787 0 0 1 14.150506,26.090111 10.195787,10.195787 0 0 1 24.346321,15.89269 a 10.195787,10.195787 0 0 1 2.882578,0.417532 10.195787,10.195787 0 0 0 -1.072736,-0.247307 c -0.326384,1.451985 -0.505005,2.847439 -0.550821,4.192986 a 1.7094667,1.7094667 0 0 0 -1.252597,1.646041 1.7094667,1.7094667 0 0 0 0.06102,0.451255 c -1.636213,0.729065 -3.39293,1.199112 -5.291417,1.382675 a 1.7094667,1.7094667 0 0 0 -0.72586,-0.791706 c 0.529727,-2.1792 1.490536,-4.37778 3.012655,-6.611461 a 10.195787,10.195787 0 0 0 -1.893347,0.785282 c -1.097448,1.88412 -1.840531,3.766189 -2.283581,5.639896 a 1.7094667,1.7094667 0 0 0 -1.239749,1.003683 c -0.0011,-8.2e-5 -0.0021,8.1e-5 -0.0032,0 -0.50602,-0.03722 -1.003123,-0.05715 -1.525598,-0.126866 a 10.195787,10.195787 0 0 0 -0.223219,1.175514 c 0.578532,0.07705 1.13443,0.10618 1.695823,0.144531 a 1.7094667,1.7094667 0 0 0 0.854335,1.003683 c -0.06362,1.236698 -0.03346,2.470239 0.138107,3.696766 -0.912884,-0.558558 -1.790545,-1.219186 -2.644906,-1.949555 a 10.195787,10.195787 0 0 0 0.507462,1.915831 c 0.462756,0.337429 0.937705,0.650369 1.416398,0.949083 a 1.7094667,1.7094667 0 0 0 -0.09154,0.550821 1.7094667,1.7094667 0 0 0 1.565746,1.702247 1.7094667,1.7094667 0 0 1 -0.04657,-0.0032 c 0.128774,0.425356 0.265943,0.848122 0.414321,1.271868 a 10.195787,10.195787 0 0 0 1.686188,1.07916 c -0.373148,-0.878617 -0.680695,-1.758006 -0.947484,-2.635276 a 1.7094667,1.7094667 0 0 1 -0.01445,0.0064 1.7094667,1.7094667 0 0 0 0.470527,-0.470527 c 0.57319,0.218109 1.160463,0.401955 1.756846,0.55885 a 11.073914,11.073914 0 0 1 -0.0064,-0.396654 11.073914,11.073914 0 0 1 0.0273,-0.786889 c -0.507585,-0.142324 -1.008296,-0.303293 -1.4967,-0.49622 A 1.7094667,1.7094667 0 0 0 18.08336,29.431958 c -0.156384,-1.107189 -0.214214,-2.216933 -0.160589,-3.329017 a 1.7094667,1.7094667 0 0 0 1.281503,-1.194784 c 2.11741,-0.209708 4.081431,-0.753165 5.903263,-1.589834 a 1.7094667,1.7094667 0 0 0 0.223219,0.126866 11.073914,11.073914 0 0 1 2.43614,-1.416398 1.7094667,1.7094667 0 0 0 0.0049,-0.126866 1.7094667,1.7094667 0 0 0 -0.0032,-0.0803 c 1.306899,-0.862598 2.539666,-1.870303 3.696766,-3.020685 a 10.195787,10.195787 0 0 0 -0.904117,-0.78207 c -1.038101,1.025851 -2.138211,1.906293 -3.282446,2.685054 a 1.7094667,1.7094667 0 0 0 -0.478556,-0.340449 c 0.04574,-1.287528 0.20029,-2.621525 0.518703,-4.02758 a 10.195787,10.195787 0 0 1 5.989981,4.893156 11.073914,11.073914 0 0 1 2.206497,0.481767 A 11.966266,11.966266 0 0 0 24.401,14.175972 Z m 7.732375,5.346018 c -0.761359,0.584117 -1.444158,1.19708 -2.087662,1.824295 a 11.073914,11.073914 0 0 1 1.989702,-0.186283 c 0.270366,-0.227663 0.532631,-0.457551 0.822217,-0.679293 a 10.195787,10.195787 0 0 0 -0.724257,-0.958719 z m -14.618445,3.202151 a 1.7094667,1.7094667 0 0 1 0.04817,0 1.7094667,1.7094667 0 0 0 -0.08511,0.0032 1.7094667,1.7094667 0 0 1 0.03693,-0.0032 z m 1.732759,1.991307 a 1.7094667,1.7094667 0 0 1 -0.01927,0.09796 1.7094667,1.7094667 0 0 0 0.01927,-0.09796 z m 0.263366,6.688545 a 1.7094667,1.7094667 0 0 1 -0.01927,0.09796 1.7094667,1.7094667 0 0 0 0.01927,-0.09796 z" />
  <circle
     style="fill:#6b77c8;fill-opacity:1;stroke-width:1.03226"
     id="path1654"
     cx="32.068459"
     cy="32.233929"
     r="9.7186899" />
  <rect
     style="fill:#ffffff;fill-opacity:0.919442;stroke:none;stroke-width:0.2;stroke-miterlimit:4;stroke-dasharray:none"
     id="rect872"
     width="4"
     height="10"
     x="30.336136"
     y="23.537092" />
  <rect
     style="fill:#ffffff;fill-opacity:0.919442;stroke:none;stroke-width:0.2;stroke-miterlimit:4;stroke-dasharray:none"
     id="rect874"
     width="3"
     height="1"
     x="30.836136"
     y="33.53709" />
  <rect
     style="fill:#ffffff;fill-opacity:0.919442;stroke:none;stroke-width:0.2;stroke-miterlimit:4;stroke-dasharray:none"
     id="rect876"
     width="0.99336243"
     height="5"
     x="31.836136"
     y="34.53709" />
  <path
     style="fill:#ffffff;fill-opacity:0.919442;stroke:none;stroke-width:1px;stroke-linecap:butt;stroke-linejoin:miter;stroke-opacity:1"
     d="m 31.836137,39.537091 0.5,2 0.5,-2 z"
     id="path878" />
  <rect
     style="fill:#6b77c8;fill-opacity:1;stroke:none;stroke-width:0.2;stroke-miterlimit:4;stroke-dasharray:none"
     id="rect880"
     width="1"
     height="8"
     x="30.836136"
     y="24.037092" />
  <rect
     style="fill:#6b77c8;fill-opacity:1;stroke:none;stroke-width:0.2;stroke-miterlimit:4;stroke-dasharray:none"
     id="rect882"
     width="1"
     height="8"
     x="32.836136"
     y="24.037092" />
</svg>
