<?xml version="1.0" encoding="UTF-8" standalone="no"?>
<svg
   height="48"
   width="48"
   version="1.1"
   id="svg6"
   sodipodi:docname="yast-language.svg"
   inkscape:version="1.1.2 (0a00cf5339, 2022-02-04)"
   xmlns:inkscape="http://www.inkscape.org/namespaces/inkscape"
   xmlns:sodipodi="http://sodipodi.sourceforge.net/DTD/sodipodi-0.dtd"
   xmlns="http://www.w3.org/2000/svg"
   xmlns:svg="http://www.w3.org/2000/svg"
   xmlns:rdf="http://www.w3.org/1999/02/22-rdf-syntax-ns#"
   xmlns:cc="http://creativecommons.org/ns#"
   xmlns:dc="http://purl.org/dc/elements/1.1/">
  <metadata
     id="metadata12">
    <rdf:RDF>
      <cc:Work
         rdf:about="">
        <dc:format>image/svg+xml</dc:format>
        <dc:type
           rdf:resource="http://purl.org/dc/dcmitype/StillImage" />
        <dc:title />
      </cc:Work>
    </rdf:RDF>
  </metadata>
  <defs
     id="defs10" />
  <sodipodi:namedview
     pagecolor="#ffffff"
     bordercolor="#666666"
     borderopacity="1"
     objecttolerance="10"
     gridtolerance="10"
     guidetolerance="10"
     inkscape:pageopacity="0"
     inkscape:pageshadow="2"
     inkscape:window-width="1920"
     inkscape:window-height="1031"
     id="namedview8"
     showgrid="false"
     inkscape:zoom="13.376103"
     inkscape:cx="1.6821043"
     inkscape:cy="22.315917"
     inkscape:window-x="0"
     inkscape:window-y="0"
     inkscape:window-maximized="1"
     inkscape:current-layer="svg6"
     inkscape:document-rotation="0"
     inkscape:pagecheckerboard="0" />
  <path
     id="circle2"
     style="opacity:0.99;fill:#8fbcbb;fill-opacity:1"
     transform="matrix(1.75830584759 0 0 1.75830608345 -18.15909274367 -30.97874795549)"
     d="M 37.173613,31.534513 A 13.232998,13.232998 0 0 1 23.940615,44.767511 13.232998,13.232998 0 0 1 10.707617,31.534513 13.232998,13.232998 0 0 1 23.940615,18.301516 13.232998,13.232998 0 0 1 37.173613,31.534513 Z" />
  <path
     id="circle833"
     style="opacity:0.99;fill:#ffffff;fill-opacity:1;stroke-width:1.75831"
     d="M 39.066406 9.3378906 L 8.8046875 39.599609 A 21.398523 21.398527 0 0 0 23.935547 45.867188 A 21.398523 21.398527 0 0 0 45.333984 24.46875 A 21.398523 21.398527 0 0 0 39.066406 9.3378906 z " />
  <path
     style="fill:#ffffff;fill-opacity:1;stroke-width:0.66068"
     inkscape:connector-curvature="0"
     d="m 11.081147,9.505189 1.323249,0.315059 q -0.189034,0.504091 -0.441083,0.945174 h 6.364202 v 4.977943 H 8.8757332 v 0.81915 H 20.028838 v 1.00819 H 8.8757332 v 0.819157 H 20.154862 q -0.189034,4.095771 -0.630117,4.914927 -0.378073,0.882166 -1.449273,0.882166 -0.504098,0 -1.575298,-0.189034 l -0.252049,-1.26024 q 1.197224,0.189035 1.701322,0.189035 0.378068,0 0.504092,-0.378068 0.189033,-0.441083 0.315058,-3.087587 H 7.6154933 v -8.695639 h 2.9615627 q 0.315058,-0.630117 0.504091,-1.260233 z m -2.2054138,2.268424 v 1.00819 h 8.1915478 v -1.00819 z m 0,1.953371 v 1.00819 h 8.1915478 v -1.00819 z m 2.7095128,6.112151 h 1.260233 v 1.701323 h 3.087587 V 19.96516 h 1.197225 v 2.583488 H 8.5606748 v 1.0712 H 7.3004355 v -3.591679 h 1.2602393 v 1.512289 h 3.0245712 z"
     id="path842-4-1" />
  <path
     inkscape:connector-curvature="0"
     id="path848-9-0"
     d="m 26.337572,26.115055 c -0.198191,0 -0.357735,0.161465 -0.357735,0.359841 v 0.492414 h -2.796666 c -0.198191,0 -0.357735,0.15945 -0.357735,0.357736 v 0.957471 c -8.6e-5,0.197744 0.159533,0.357737 0.357735,0.357737 h 5.353422 c -0.150849,0.966533 -0.664217,1.997236 -1.525635,3.063908 -0.549042,-0.879522 -0.901303,-1.734171 -1.102673,-2.302139 -0.05085,-0.143328 -0.186856,-0.237791 -0.338794,-0.237791 h -0.879615 c -0.114443,0 -0.222767,0.05495 -0.290396,0.147304 -0.06755,0.09244 -0.0872,0.210575 -0.05261,0.319858 0.208695,0.657153 0.689579,1.946552 1.578245,3.25751 -1.04974,1.020495 -2.095406,1.75758 -2.499945,2.028575 -0.160988,0.107924 -0.20806,0.323872 -0.10521,0.488203 l 0.444015,0.707056 c 0.05118,0.08176 0.13291,0.139196 0.22726,0.159927 0.02532,0.0057 0.05023,0.0084 0.07575,0.0084 0.06961,0 0.138869,-0.02024 0.197814,-0.05893 0.416584,-0.2738 1.496534,-1.022198 2.628308,-2.106434 0.418749,0.43641 1.403133,1.202368 1.98649,1.626648 0.089,0.06474 0.203137,0.08469 0.309337,0.05471 0.106126,-0.03023 0.19386,-0.10866 0.235686,-0.210433 l 0.328279,-0.805934 c 0.06626,-0.161981 0.0053,-0.347724 -0.143092,-0.439807 -0.380103,-0.235769 -1.095174,-0.719612 -1.679265,-1.348879 1.282344,-1.500728 2.01279,-2.965111 2.173778,-4.351758 h 0.284083 c 0.198202,0 0.357735,-0.159449 0.357735,-0.357736 v -0.957471 c 0,-0.198195 -0.159447,-0.357736 -0.357735,-0.357736 h -2.796652 v -0.492414 c 0,-0.198285 -0.159447,-0.359841 -0.357735,-0.359841 z m 6.803302,1.130026 c -0.15781,0 -0.296827,0.103788 -0.343005,0.254625 l -2.382107,7.792342 c -0.0334,0.108829 -0.01317,0.226036 0.05471,0.317753 0.06766,0.09136 0.174391,0.1452 0.288295,0.1452 h 1.237351 c 0.161076,0 0.301926,-0.107938 0.345106,-0.263044 l 0.53451,-1.921252 h 2.436805 l 0.578694,1.929671 c 0.04547,0.151929 0.186674,0.254625 0.345118,0.254625 h 1.313105 c 0.114272,0 0.222852,-0.05367 0.290394,-0.1452 0.06777,-0.0919 0.08655,-0.210935 0.05261,-0.319857 l -2.413671,-7.790238 c -0.04676,-0.1503 -0.18565,-0.254625 -0.343009,-0.254625 z m 0.909075,1.441468 h 0.02313 l 0.961681,3.446898 h -1.883371 z"
     style="fill:#8fbcbb;fill-opacity:1;stroke-width:0.0905418" />
</svg>
