<?xml version="1.0" encoding="UTF-8" standalone="no"?>
<svg
   xmlns:dc="http://purl.org/dc/elements/1.1/"
   xmlns:cc="http://creativecommons.org/ns#"
   xmlns:rdf="http://www.w3.org/1999/02/22-rdf-syntax-ns#"
   xmlns:svg="http://www.w3.org/2000/svg"
   xmlns="http://www.w3.org/2000/svg"
   xmlns:sodipodi="http://sodipodi.sourceforge.net/DTD/sodipodi-0.dtd"
   xmlns:inkscape="http://www.inkscape.org/namespaces/inkscape"
   height="48"
   width="48"
   version="1.1"
   id="svg8"
   sodipodi:docname="bibletime.svg"
   inkscape:version="1.0.2 (e86c870879, 2021-01-15)">
  <metadata
     id="metadata14">
    <rdf:RDF>
      <cc:Work
         rdf:about="">
        <dc:format>image/svg+xml</dc:format>
        <dc:type
           rdf:resource="http://purl.org/dc/dcmitype/StillImage" />
        <dc:title />
      </cc:Work>
    </rdf:RDF>
  </metadata>
  <defs
     id="defs12" />
  <sodipodi:namedview
     pagecolor="#ffffff"
     bordercolor="#666666"
     borderopacity="1"
     objecttolerance="10"
     gridtolerance="10"
     guidetolerance="10"
     inkscape:pageopacity="0"
     inkscape:pageshadow="2"
     inkscape:window-width="1920"
     inkscape:window-height="1031"
     id="namedview10"
     showgrid="false"
     inkscape:zoom="18.916667"
     inkscape:cx="24"
     inkscape:cy="24"
     inkscape:window-x="0"
     inkscape:window-y="24"
     inkscape:window-maximized="1"
     inkscape:current-layer="svg8"
     inkscape:document-rotation="0" />
  <path
     d="m44.322082 27.405077a19.729762 19.729765 0 0 1 -19.729762 19.729765 19.729762 19.729765 0 0 1 -19.7297621-19.729765 19.729762 19.729765 0 0 1 19.7297621-19.7297632 19.729762 19.729765 0 0 1 19.729762 19.7297632z"
     fill="#89a02c"
     opacity=".99"
     transform="matrix(1.1503549 0 0 1.1503549 -4.486125 -7.525565)"
     id="path2"
     style="fill:#aeba7e;fill-opacity:1" />
  <g
     fill="#ffffff"
     id="g14"
     transform="translate(-0.48536137,1.3470309)">
    <path
       d="M 11.25,6 A 1.25,1.25 0 0 0 10,7.25 1.25,1.25 0 0 0 11.25,8.5 1.25,1.25 0 0 0 12.5,7.25 1.25,1.25 0 0 0 11.25,6 Z m 1.775391,3.0800781 a 1.25,1.25 0 0 0 -1.25,1.2499999 1.25,1.25 0 0 0 1.25,1.25 1.25,1.25 0 0 0 1.25,-1.25 1.25,1.25 0 0 0 -1.25,-1.2499999 z m 1.777343,3.0820309 a 1.25,1.25 0 0 0 -1.25,1.25 1.25,1.25 0 0 0 1.25,1.25 1.25,1.25 0 0 0 1.25,-1.25 1.25,1.25 0 0 0 -1.25,-1.25 z m 1.775391,3.080079 a 1.25,1.25 0 0 0 -1.25,1.25 1.25,1.25 0 0 0 1.25,1.25 1.25,1.25 0 0 0 1.25,-1.25 1.25,1.25 0 0 0 -1.25,-1.25 z m 1.777344,3.082031 a 1.25,1.25 0 0 0 -1.25,1.25 1.25,1.25 0 0 0 1.25,1.25 1.25,1.25 0 0 0 1.25,-1.25 1.25,1.25 0 0 0 -1.25,-1.25 z m 1.77539,3.080078 a 1.25,1.25 0 0 0 -1.25,1.25 1.25,1.25 0 0 0 1.25,1.25 1.25,1.25 0 0 0 1.25,-1.25 1.25,1.25 0 0 0 -1.25,-1.25 z m 1.775391,3.082031 a 1.25,1.25 0 0 0 -1.25,1.25 1.25,1.25 0 0 0 1.25,1.25 1.25,1.25 0 0 0 1.25,-1.25 1.25,1.25 0 0 0 -1.25,-1.25 z"
       id="path6" />
    <path
       d="m 37.105469,6 a 1.25,1.25 0 0 1 1.25,1.25 1.25,1.25 0 0 1 -1.25,1.25 1.25,1.25 0 0 1 -1.25,-1.25 1.25,1.25 0 0 1 1.25,-1.25 z m -1.775391,3.0800781 a 1.25,1.25 0 0 1 1.25,1.2499999 1.25,1.25 0 0 1 -1.25,1.25 1.25,1.25 0 0 1 -1.25,-1.25 1.25,1.25 0 0 1 1.25,-1.2499999 z m -1.777343,3.0820309 a 1.25,1.25 0 0 1 1.25,1.25 1.25,1.25 0 0 1 -1.25,1.25 1.25,1.25 0 0 1 -1.25,-1.25 1.25,1.25 0 0 1 1.25,-1.25 z m -1.775391,3.080079 a 1.25,1.25 0 0 1 1.25,1.25 1.25,1.25 0 0 1 -1.25,1.25 1.25,1.25 0 0 1 -1.25,-1.25 1.25,1.25 0 0 1 1.25,-1.25 z M 30,18.324219 a 1.25,1.25 0 0 1 1.25,1.25 1.25,1.25 0 0 1 -1.25,1.25 1.25,1.25 0 0 1 -1.25,-1.25 1.25,1.25 0 0 1 1.25,-1.25 z m -1.77539,3.080078 a 1.25,1.25 0 0 1 1.25,1.25 1.25,1.25 0 0 1 -1.25,1.25 1.25,1.25 0 0 1 -1.25,-1.25 1.25,1.25 0 0 1 1.25,-1.25 z m -1.775391,3.082031 a 1.25,1.25 0 0 1 1.25,1.25 1.25,1.25 0 0 1 -1.25,1.25 1.25,1.25 0 0 1 -1.25,-1.25 1.25,1.25 0 0 1 1.25,-1.25 z"
       id="path8" />
    <path
       d="M 22.5,27.5 C 24,26.5 24,25 22.5,24 H 26 c -1.5,1 -1.5,2.5 0,3.594919 V 29 43 h -3.5 z"
       id="path10" />
    <path
       d="M 17.5,30.5 V 33 H 31 v -2.5 z"
       id="path12" />
  </g>
</svg>
