<?xml version="1.0" encoding="UTF-8" standalone="no"?>
<svg
   xmlns:dc="http://purl.org/dc/elements/1.1/"
   xmlns:cc="http://creativecommons.org/ns#"
   xmlns:rdf="http://www.w3.org/1999/02/22-rdf-syntax-ns#"
   xmlns:svg="http://www.w3.org/2000/svg"
   xmlns="http://www.w3.org/2000/svg"
   xmlns:sodipodi="http://sodipodi.sourceforge.net/DTD/sodipodi-0.dtd"
   xmlns:inkscape="http://www.inkscape.org/namespaces/inkscape"
   height="48"
   width="48"
   version="1.1"
   id="svg8"
   sodipodi:docname="biglybt.svg"
   inkscape:version="1.0.2 (e86c870879, 2021-01-15)">
  <metadata
     id="metadata14">
    <rdf:RDF>
      <cc:Work
         rdf:about="">
        <dc:format>image/svg+xml</dc:format>
        <dc:type
           rdf:resource="http://purl.org/dc/dcmitype/StillImage" />
        <dc:title />
      </cc:Work>
    </rdf:RDF>
  </metadata>
  <defs
     id="defs12" />
  <sodipodi:namedview
     pagecolor="#ffffff"
     bordercolor="#666666"
     borderopacity="1"
     objecttolerance="10"
     gridtolerance="10"
     guidetolerance="10"
     inkscape:pageopacity="0"
     inkscape:pageshadow="2"
     inkscape:window-width="1920"
     inkscape:window-height="1031"
     id="namedview10"
     showgrid="false"
     inkscape:zoom="6.6880517"
     inkscape:cx="-8.3434638"
     inkscape:cy="39.735762"
     inkscape:window-x="0"
     inkscape:window-y="24"
     inkscape:window-maximized="1"
     inkscape:current-layer="svg8"
     inkscape:document-rotation="0" />
  <path
     d="m44.322082 27.405077a19.729762 19.729765 0 0 1 -19.729762 19.729765 19.729762 19.729765 0 0 1 -19.7297621-19.729765 19.729762 19.729765 0 0 1 19.7297621-19.7297632 19.729762 19.729765 0 0 1 19.729762 19.7297632z"
     fill="#89a02c"
     opacity=".99"
     transform="matrix(1.1503549 0 0 1.1503549 -4.486125 -7.525565)"
     id="path2"
     style="fill:#7ba1aa;fill-opacity:1" />
  <ellipse
     cx="24.102568"
     cy="22.309155"
     rx="10.320982"
     ry="12.816332"
     style="clip-rule:evenodd;fill:#ffffff;fill-rule:evenodd;stroke-width:0.051655;stroke-linecap:round;stroke-linejoin:round;stroke-miterlimit:1.5;fill-opacity:1"
     id="ellipse4" />
  <rect
     x="11.649824"
     y="19.158098"
     width="24.722265"
     height="3.9690151"
     style="clip-rule:evenodd;fill:#7ba1aa;fill-opacity:0.992157;fill-rule:evenodd;stroke-width:0.051655;stroke-linecap:round;stroke-linejoin:round;stroke-miterlimit:1.5"
     id="rect6" />
  <ellipse
     cx="24.102568"
     cy="21.142628"
     rx="3.284071"
     ry="4.5332961"
     style="clip-rule:evenodd;fill:#7ba1aa;fill-rule:evenodd;stroke-width:0.051655;stroke-linecap:round;stroke-linejoin:round;stroke-miterlimit:1.5;fill-opacity:0.99215686"
     id="ellipse8" />
  <ellipse
     cx="24.102568"
     cy="21.142628"
     rx="2.1511214"
     ry="2.96944"
     style="clip-rule:evenodd;fill:#7ba1aa;fill-rule:evenodd;stroke:#ffffff;stroke-width:0.403942px;stroke-linecap:round;stroke-linejoin:round;stroke-miterlimit:1.5;stroke-opacity:1;fill-opacity:0.99215686"
     id="ellipse10" />
  <path
     d="m 21.951446,21.142627 h 2.439563"
     style="clip-rule:evenodd;fill:#7ba1aa;fill-rule:evenodd;stroke:#ffffff;stroke-width:0.403942px;stroke-linecap:round;stroke-linejoin:round;stroke-miterlimit:1.5;stroke-opacity:1;fill-opacity:0.99215686"
     id="path12" />
  <ellipse
     cx="24.102568"
     cy="22.309155"
     rx="10.320982"
     ry="12.816332"
     style="clip-rule:evenodd;fill:#759ad1;fill-opacity:0;fill-rule:evenodd;stroke:none;stroke-width:0.750029px;stroke-linecap:round;stroke-linejoin:round;stroke-miterlimit:1.5;stroke-opacity:1"
     id="ellipse14" />
  <path
     d="m 24.261974,41.418198 c -0.09375,0.07289 -0.22506,0.07289 -0.318814,0 -1.142919,-0.88898 -8.136543,-6.328408 -11.357751,-8.83383 -0.237716,-0.184875 -0.331727,-0.500331 -0.233996,-0.785207 0.09773,-0.284826 0.365615,-0.476106 0.666763,-0.476106 4.906451,0 17.26233,0 22.168783,0 0.301149,0 0.56903,0.19128 0.666764,0.476106 0.09773,0.284876 0.0037,0.600332 -0.234,0.785207 -3.221206,2.505422 -10.21483,7.94485 -11.357749,8.83383 z"
     style="clip-rule:evenodd;fill:#ffffff;fill-rule:evenodd;stroke-width:0.051655;stroke-linecap:round;stroke-linejoin:round;stroke-miterlimit:1.5;stroke:none;stroke-opacity:1;fill-opacity:1"
     id="path16" />
</svg>
