<?xml version="1.0" encoding="UTF-8" standalone="no"?>
<svg
   xmlns:dc="http://purl.org/dc/elements/1.1/"
   xmlns:cc="http://creativecommons.org/ns#"
   xmlns:rdf="http://www.w3.org/1999/02/22-rdf-syntax-ns#"
   xmlns:svg="http://www.w3.org/2000/svg"
   xmlns="http://www.w3.org/2000/svg"
   xmlns:sodipodi="http://sodipodi.sourceforge.net/DTD/sodipodi-0.dtd"
   xmlns:inkscape="http://www.inkscape.org/namespaces/inkscape"
   height="48"
   width="48"
   version="1.1"
   id="svg8"
   sodipodi:docname="blogilo.svg"
   inkscape:version="1.0.2 (e86c870879, 2021-01-15)">
  <metadata
     id="metadata14">
    <rdf:RDF>
      <cc:Work
         rdf:about="">
        <dc:format>image/svg+xml</dc:format>
        <dc:type
           rdf:resource="http://purl.org/dc/dcmitype/StillImage" />
        <dc:title></dc:title>
      </cc:Work>
    </rdf:RDF>
  </metadata>
  <defs
     id="defs12" />
  <sodipodi:namedview
     pagecolor="#ffffff"
     bordercolor="#666666"
     borderopacity="1"
     objecttolerance="10"
     gridtolerance="10"
     guidetolerance="10"
     inkscape:pageopacity="0"
     inkscape:pageshadow="2"
     inkscape:window-width="1920"
     inkscape:window-height="1031"
     id="namedview10"
     showgrid="false"
     inkscape:zoom="4.7291667"
     inkscape:cx="-36.586563"
     inkscape:cy="38.064343"
     inkscape:window-x="0"
     inkscape:window-y="24"
     inkscape:window-maximized="1"
     inkscape:current-layer="svg8" />
  <path
     d="m44.322082 27.405077a19.729762 19.729765 0 0 1 -19.729762 19.729765 19.729762 19.729765 0 0 1 -19.7297621-19.729765 19.729762 19.729765 0 0 1 19.7297621-19.7297632 19.729762 19.729765 0 0 1 19.729762 19.7297632z"
     fill="#89a02c"
     opacity=".99"
     transform="matrix(1.1503549 0 0 1.1503549 -4.486125 -7.525565)"
     id="path2"
     style="fill:#7ba1aa;fill-opacity:1" />
  <path
     d="M 44.316018,24 A 20.512247,20.51225 0 0 1 23.803771,44.51225 20.512247,20.51225 0 0 1 3.2915239,24 20.512247,20.51225 0 0 1 23.803771,3.4877514 20.512247,20.51225 0 0 1 44.316018,24 Z"
     fill="#89a02c"
     opacity="0.99"
     id="path1186"
     style="fill:#ffffff;fill-opacity:0.27763435;stroke-width:1.03966" />
  <path
     d="m 23.803771,9.0733408 c -8.243342,0 -14.9266601,6.6830122 -14.9266601,14.9266602 0,8.243648 6.6833181,14.92666 14.9266601,14.92666 8.243342,0 14.92666,-6.683012 14.92666,-14.92666 0,-8.243648 -6.683318,-14.9266601 -14.92666,-14.9266602 z m 0.795894,4.4896602 h 0.04665 c 3.216773,0.08917 5.534083,2.328213 5.556682,5.442983 0.08398,0.935439 0.03073,1.802411 -0.151598,2.583012 1.08142,0.03206 2.415197,0.221 3.279782,1.338151 0.763501,0.986441 0.769076,2.10674 0.775488,3.658781 0.0018,0.317616 0.01164,1.128245 0.01164,1.128245 -0.02076,2.009224 -0.640982,3.69598 -1.792949,4.88032 -1.153187,1.187698 -2.783546,1.826629 -4.711227,1.842509 h -7.533298 c -0.04733,6.11e-4 -0.09322,0 -0.139938,0 -2.160397,0 -3.828278,-0.609306 -4.956117,-1.810441 -1.128146,-1.201747 -1.48975,-2.826575 -1.48975,-5.084393 0.0021,-0.155754 -0.01239,-0.308067 -0.003,-0.457713 l 0.003,-7.938534 c 0.09314,-1.968299 0.973412,-3.183426 1.635518,-3.880348 1.069815,-1.126618 2.581857,-1.699657 4.495491,-1.699657 h 0.05248 z m -0.317775,4.230192 -4.203954,0.003 c -0.992242,-0.0094 -1.80622,0.7763 -1.822102,1.766711 -0.01557,0.99041 0.775994,1.806221 1.766711,1.822102 0,0 4.220725,-0.003 4.230192,-0.003 0.977584,0 1.779677,-0.715797 1.795863,-1.696742 0.01557,-0.990715 -0.775993,-1.876496 -1.76671,-1.89207 z m -4.708311,8.22424 c -0.990716,0 -1.795863,0.802232 -1.795863,1.792947 0,0.990716 0.805147,1.795866 1.795863,1.795866 h 8.404992 c 0.990715,0 1.795864,-0.805149 1.795864,-1.795866 0,-0.990713 -0.805149,-1.792947 -1.795864,-1.792947 z"
     fill="#ffffff"
     stroke-width="0.305399"
     id="path4" />
</svg>
