<?xml version="1.0" encoding="UTF-8" standalone="no"?>
<svg
   height="48"
   width="48"
   version="1.1"
   id="svg18"
   sodipodi:docname="xfce-devel.svg"
   inkscape:version="1.1.2 (0a00cf5339, 2022-02-04)"
   xmlns:inkscape="http://www.inkscape.org/namespaces/inkscape"
   xmlns:sodipodi="http://sodipodi.sourceforge.net/DTD/sodipodi-0.dtd"
   xmlns="http://www.w3.org/2000/svg"
   xmlns:svg="http://www.w3.org/2000/svg"
   xmlns:rdf="http://www.w3.org/1999/02/22-rdf-syntax-ns#"
   xmlns:cc="http://creativecommons.org/ns#"
   xmlns:dc="http://purl.org/dc/elements/1.1/">
  <metadata
     id="metadata24">
    <rdf:RDF>
      <cc:Work
         rdf:about="">
        <dc:format>image/svg+xml</dc:format>
        <dc:type
           rdf:resource="http://purl.org/dc/dcmitype/StillImage" />
        <dc:title />
      </cc:Work>
    </rdf:RDF>
  </metadata>
  <defs
     id="defs22" />
  <sodipodi:namedview
     pagecolor="#ffffff"
     bordercolor="#666666"
     borderopacity="1"
     objecttolerance="10"
     gridtolerance="10"
     guidetolerance="10"
     inkscape:pageopacity="0"
     inkscape:pageshadow="2"
     inkscape:window-width="1920"
     inkscape:window-height="1031"
     id="namedview20"
     showgrid="true"
     inkscape:zoom="9.8333334"
     inkscape:cx="6.6610169"
     inkscape:cy="36.355932"
     inkscape:window-x="0"
     inkscape:window-y="0"
     inkscape:window-maximized="1"
     inkscape:current-layer="svg18"
     inkscape:pagecheckerboard="0">
    <inkscape:grid
       type="xygrid"
       id="grid834" />
  </sodipodi:namedview>
  <path
     id="circle2"
     transform="matrix(1.72140702696 0 0 1.72140725788 -17.2289093957 -30.06939350282)"
     style="opacity:0.99;fill:#d08770;fill-opacity:1"
     d="M 37.173613,31.534513 A 13.232998,13.232998 0 0 1 23.940615,44.767511 13.232998,13.232998 0 0 1 10.707617,31.534513 13.232998,13.232998 0 0 1 23.940615,18.301516 13.232998,13.232998 0 0 1 37.173613,31.534513 Z" />
  <g
     fill="#ffffff"
     id="g12">
    <path
       d="m13 36v-2l2-1 1-1h5l1 1 2 1v2z"
       fill-opacity=".96831"
       fill-rule="evenodd"
       id="path4" />
    <path
       d="m23 26.000001a4.5002861 4.5002861 0 0 1 -4.701972 4.280497 4.5002861 4.5002861 0 0 1 -4.289075-4.694149 4.5002861 4.5002861 0 0 1 4.686312-4.297638 4.5002861 4.5002861 0 0 1 4.306185 4.678458"
       id="path6" />
    <path
       d="m28.000001 18a3 3 0 0 1 -3.134449 2.853483 3 3 0 0 1 -2.859201-3.129234 3 3 0 0 1 3.124009-2.864909 3 3 0 0 1 2.870608 3.118773"
       fill-opacity=".947183"
       id="path8" />
    <path
       d="m34.000001 21a2 2 0 0 1 -2.089633 1.902323 2 2 0 0 1 -1.906134-2.086156 2 2 0 0 1 2.082673-1.90994 2 2 0 0 1 1.913738 2.079182"
       fill-opacity=".950704"
       id="path10" />
  </g>
  <path
     d="m18 26 7-8 7 3"
     fill="none"
     stroke="#fafafa"
     stroke-width="3"
     id="path14" />
  <path
     d="m30 24v2l-3 2 1 4h1v-4h2l1 3h1l1-3h2v4h1l1-4-3-2v-2z"
     fill="#ffffff"
     fill-rule="evenodd"
     id="path16" />
</svg>
