<?xml version="1.0" encoding="UTF-8" standalone="no"?>
<svg
   xmlns:dc="http://purl.org/dc/elements/1.1/"
   xmlns:cc="http://creativecommons.org/ns#"
   xmlns:rdf="http://www.w3.org/1999/02/22-rdf-syntax-ns#"
   xmlns:svg="http://www.w3.org/2000/svg"
   xmlns="http://www.w3.org/2000/svg"
   xmlns:sodipodi="http://sodipodi.sourceforge.net/DTD/sodipodi-0.dtd"
   xmlns:inkscape="http://www.inkscape.org/namespaces/inkscape"
   height="48"
   width="48"
   version="1.1"
   id="svg6"
   sodipodi:docname="buttercup.svg"
   inkscape:version="1.0.2 (e86c870879, 2021-01-15)">
  <metadata
     id="metadata12">
    <rdf:RDF>
      <cc:Work
         rdf:about="">
        <dc:format>image/svg+xml</dc:format>
        <dc:type
           rdf:resource="http://purl.org/dc/dcmitype/StillImage" />
        <dc:title></dc:title>
      </cc:Work>
    </rdf:RDF>
  </metadata>
  <defs
     id="defs10" />
  <sodipodi:namedview
     pagecolor="#ffffff"
     bordercolor="#666666"
     borderopacity="1"
     objecttolerance="10"
     gridtolerance="10"
     guidetolerance="10"
     inkscape:pageopacity="0"
     inkscape:pageshadow="2"
     inkscape:window-width="1920"
     inkscape:window-height="1031"
     id="namedview8"
     showgrid="false"
     inkscape:zoom="13.376103"
     inkscape:cx="17.150555"
     inkscape:cy="27.709084"
     inkscape:window-x="0"
     inkscape:window-y="24"
     inkscape:window-maximized="1"
     inkscape:current-layer="svg6"
     inkscape:document-rotation="0" />
  <circle
     cx="23.940615"
     cy="31.534513"
     fill="#5e81ac"
     opacity=".99"
     id="circle2"
     style="fill:#7bbcac;fill-opacity:1"
     transform="matrix(1.75830584759 0 0 1.75830608345 -18.15909274367 -30.97874795549)"
     r="13.232998" />
  <g
     id="g17"
     transform="matrix(0.0691493,0,0,0.0691493,2.1564454,0.79647929)"
     style="fill:#ffffff">
    <path
       d="m 264.84,130.38 h 1.07 1.06 1.04 1.02 0.98 0.96 l 0.91,0.01 h 0.88 0.82 0.78 0.71 0.66 0.58 l 0.52,0.01 h 0.44 0.36 0.27 0.18 l 4.94,0.19 4.88,0.39 4.82,0.58 4.77,0.76 4.7,0.96 4.63,1.13 4.56,1.31 4.48,1.49 4.41,1.65 4.32,1.82 4.23,1.98 4.15,2.14 4.05,2.29 3.95,2.44 3.85,2.58 3.74,2.73 3.64,2.86 3.52,2.99 3.41,3.13 3.28,3.25 3.17,3.37 3.03,3.48 2.9,3.6 2.77,3.71 2.63,3.82 2.49,3.91 2.33,4.01 2.19,4.11 2.04,4.19 1.88,4.28 1.72,4.36 1.55,4.43 1.38,4.51 1.21,4.58 1.04,4.64 0.85,4.7 0.67,4.76 0.49,4.81 0.29,4.86 0.1,4.91 v 35.5 l 0.47,0.56 0.46,0.54 0.46,0.52 0.44,0.52 0.43,0.5 0.42,0.48 0.41,0.47 0.4,0.46 0.4,0.44 0.38,0.43 0.37,0.41 0.36,0.4 0.35,0.39 0.35,0.37 0.33,0.36 0.32,0.34 0.31,0.33 0.3,0.32 0.29,0.3 0.29,0.29 0.27,0.28 0.26,0.25 0.25,0.25 0.24,0.23 0.24,0.22 0.22,0.2 0.21,0.19 0.2,0.18 0.19,0.16 0.19,0.15 0.17,0.13 0.16,0.12 0.15,0.11 0.14,0.09 0.14,0.08 0.12,0.06 0.11,0.05 0.1,0.03 0.09,0.02 0.09,0.01 h 0.88 l 0.85,0.01 0.84,0.01 0.82,0.02 0.8,0.03 0.77,0.03 0.75,0.05 0.74,0.06 0.71,0.07 0.69,0.08 0.66,0.1 0.65,0.12 0.62,0.14 0.61,0.15 0.58,0.18 0.55,0.2 0.54,0.22 0.52,0.24 0.49,0.27 0.47,0.3 0.45,0.32 0.42,0.35 0.41,0.39 0.38,0.41 0.36,0.45 0.33,0.49 0.31,0.51 0.3,0.56 0.26,0.59 0.25,0.63 0.22,0.67 0.2,0.72 0.17,0.76 0.16,0.8 0.12,0.84 0.11,0.89 0.08,0.94 0.06,0.99 0.04,1.04 0.01,1.1 v 178.08 l -0.02,1.11 -0.05,1.1 -0.09,1.09 -0.12,1.07 -0.16,1.06 -0.19,1.05 -0.22,1.03 -0.25,1.02 -0.29,1 -0.31,0.98 -0.34,0.96 -0.37,0.94 -0.4,0.92 -0.43,0.9 -0.45,0.87 -0.48,0.85 -0.5,0.83 -0.53,0.8 -0.55,0.78 -0.58,0.75 -0.59,0.72 -0.62,0.69 -0.64,0.67 -0.66,0.63 -0.68,0.6 -0.7,0.57 -0.71,0.54 -0.74,0.5 -0.74,0.46 -0.77,0.43 -0.78,0.4 -0.8,0.35 -0.81,0.32 -0.82,0.28 -0.83,0.24 -0.85,0.19 -0.86,0.16 -0.86,0.11 -0.88,0.07 -0.89,0.02 H 144.1 l -0.43,-0.02 -0.46,-0.05 -0.5,-0.09 -0.53,-0.13 -0.56,-0.15 -0.59,-0.19 -0.61,-0.22 -0.64,-0.25 -0.65,-0.28 -0.68,-0.3 -0.69,-0.33 -0.7,-0.36 -0.71,-0.38 -0.72,-0.4 -0.73,-0.43 -0.72,-0.44 -0.73,-0.47 -0.72,-0.48 -0.72,-0.51 -0.72,-0.51 -0.7,-0.54 -0.69,-0.54 -0.67,-0.56 -0.66,-0.58 -0.63,-0.58 -0.61,-0.59 -0.59,-0.6 -0.56,-0.61 -0.53,-0.61 -0.5,-0.62 -0.46,-0.63 -0.42,-0.63 -0.39,-0.62 -0.34,-0.63 -0.29,-0.63 -0.25,-0.63 -0.2,-0.63 -0.14,-0.62 -0.09,-0.62 -0.03,-0.61 V 314.58 l 0.01,-1.21 0.01,-1.36 0.02,-1.52 0.03,-1.66 0.03,-1.8 0.04,-1.92 0.05,-2.03 0.05,-2.14 0.06,-2.23 0.06,-2.32 0.07,-2.39 0.07,-2.46 0.07,-2.51 0.08,-2.56 0.07,-2.59 0.09,-2.62 0.08,-2.63 0.08,-2.64 0.09,-2.63 0.08,-2.62 0.09,-2.6 0.08,-2.56 0.09,-2.52 0.08,-2.47 0.08,-2.41 0.08,-2.33 0.08,-2.25 0.07,-2.15 0.07,-2.06 0.07,-1.94 0.06,-1.82 0.06,-1.68 0.05,-1.55 0.05,-1.4 0.04,-1.23 0.03,-1.06 0.03,-0.88 0.02,-0.69 0.01,-0.49 0.01,-0.28 0.1,-4.88 0.31,-4.77 0.52,-4.67 0.71,-4.57 0.9,-4.47 1.1,-4.36 1.28,-4.26 1.46,-4.15 1.64,-4.04 1.8,-3.93 1.98,-3.82 2.14,-3.71 2.3,-3.6 2.45,-3.48 2.6,-3.37 2.75,-3.25 2.89,-3.14 3.03,-3.02 3.16,-2.9 3.29,-2.78 3.41,-2.66 3.53,-2.54 3.65,-2.41 3.76,-2.29 3.86,-2.17 3.97,-2.04 4.06,-1.91 4.16,-1.78 4.25,-1.66 4.33,-1.52 4.42,-1.39 4.48,-1.26 4.57,-1.13 4.62,-0.99 4.69,-0.85 4.75,-0.72 4.81,-0.58 4.85,-0.44 4.9,-0.3 4.95,-0.16 h 0.18 0.27 0.36 0.44 l 0.51,-0.01 h 0.59 0.66 0.71 0.77 0.83 0.87 l 0.92,-0.01 h 0.95 0.99 1.02 1.04 1.06 1.07 1.08 1.09 1.09 z m -8.76,213.07 h -0.2 -0.2 -0.2 -0.2 -0.2 l -0.19,0.01 h -0.19 -0.19 -0.18 l -0.18,0.01 h -0.18 -0.17 l -0.17,0.01 h -0.16 l -0.16,0.01 h -0.15 l -0.15,0.01 h -0.13 l -1.27,0.08 -1.26,0.13 -1.24,0.17 -1.22,0.23 -1.21,0.28 -1.19,0.32 -1.17,0.37 -1.15,0.41 -1.13,0.46 -1.1,0.5 -1.09,0.54 -1.06,0.58 -1.03,0.63 -1.01,0.66 -0.98,0.69 -0.96,0.74 -0.93,0.76 -0.9,0.81 -0.87,0.83 -0.83,0.87 -0.81,0.9 -0.77,0.92 -0.74,0.96 -0.7,0.98 -0.67,1.01 -0.63,1.04 -0.6,1.06 -0.56,1.08 -0.51,1.1 -0.48,1.13 -0.44,1.15 -0.39,1.16 -0.35,1.18 -0.31,1.2 -0.26,1.21 -0.22,1.23 -0.17,1.24 -0.12,1.26 -0.07,1.26 -0.03,1.28 0.01,0.67 0.02,0.67 0.03,0.67 0.05,0.66 0.05,0.66 0.08,0.66 0.08,0.65 0.1,0.65 0.11,0.64 0.12,0.64 0.13,0.63 0.15,0.63 0.16,0.63 0.17,0.62 0.18,0.61 0.19,0.61 0.21,0.6 0.22,0.6 0.23,0.6 0.24,0.58 0.25,0.58 0.26,0.58 0.28,0.57 0.28,0.56 0.3,0.56 0.31,0.55 0.32,0.54 0.33,0.54 0.34,0.53 0.35,0.52 0.36,0.52 0.37,0.51 0.38,0.5 0.39,0.49 0.4,0.49 0.41,0.48 0.43,0.47 0.43,0.46 0.44,0.45 0.45,0.45 v 53.81 l 0.01,0.46 0.03,0.46 0.05,0.45 0.06,0.45 0.09,0.44 0.1,0.44 0.12,0.43 0.13,0.42 0.16,0.42 0.17,0.41 0.18,0.4 0.2,0.4 0.21,0.38 0.23,0.38 0.25,0.37 0.25,0.36 0.27,0.35 0.29,0.33 0.29,0.33 0.31,0.32 0.32,0.3 0.33,0.3 0.34,0.28 0.36,0.27 0.36,0.25 0.37,0.24 0.38,0.23 0.39,0.21 0.4,0.2 0.41,0.19 0.42,0.16 0.42,0.16 0.43,0.13 0.44,0.12 0.44,0.1 0.45,0.08 0.45,0.07 0.46,0.05 0.46,0.03 0.47,0.01 h 25.86 l 0.46,-0.01 0.47,-0.03 0.46,-0.05 0.45,-0.07 0.45,-0.08 0.44,-0.1 0.44,-0.12 0.43,-0.13 0.42,-0.16 0.41,-0.16 0.41,-0.19 0.4,-0.2 0.39,-0.21 0.38,-0.23 0.38,-0.24 0.36,-0.25 0.35,-0.27 0.34,-0.28 0.33,-0.3 0.32,-0.3 0.31,-0.32 0.3,-0.33 0.28,-0.33 0.27,-0.35 0.26,-0.36 0.24,-0.37 0.23,-0.38 0.21,-0.38 0.2,-0.4 0.19,-0.4 0.17,-0.41 0.15,-0.42 0.14,-0.42 0.12,-0.43 0.1,-0.44 0.08,-0.44 0.07,-0.45 0.05,-0.45 0.03,-0.46 0.01,-0.46 v -53.81 l 0.45,-0.45 0.44,-0.45 0.43,-0.46 0.42,-0.47 0.41,-0.48 0.4,-0.49 0.4,-0.49 0.38,-0.5 0.37,-0.51 0.36,-0.52 0.35,-0.52 0.34,-0.53 0.33,-0.54 0.32,-0.54 0.3,-0.55 0.3,-0.56 0.29,-0.56 0.27,-0.57 0.27,-0.58 0.25,-0.58 0.24,-0.58 0.23,-0.6 0.22,-0.6 0.2,-0.6 0.2,-0.61 0.18,-0.61 0.17,-0.62 0.16,-0.63 0.14,-0.63 0.14,-0.63 0.12,-0.64 0.11,-0.64 0.1,-0.65 0.08,-0.65 0.07,-0.66 0.06,-0.66 0.05,-0.66 0.03,-0.67 0.02,-0.67 0.01,-0.67 -0.03,-1.28 -0.07,-1.26 -0.13,-1.26 -0.17,-1.24 -0.21,-1.23 -0.27,-1.21 -0.3,-1.2 -0.35,-1.18 -0.4,-1.16 -0.43,-1.15 -0.48,-1.13 -0.52,-1.1 -0.55,-1.08 -0.6,-1.06 -0.63,-1.04 -0.67,-1.01 -0.7,-0.98 -0.74,-0.96 -0.77,-0.92 -0.81,-0.9 -0.84,-0.87 -0.87,-0.83 -0.89,-0.81 -0.93,-0.76 -0.96,-0.74 -0.98,-0.69 -1.01,-0.66 -1.04,-0.63 -1.06,-0.58 -1.08,-0.54 -1.11,-0.5 -1.13,-0.46 -1.14,-0.41 -1.17,-0.37 -1.19,-0.32 -1.21,-0.28 -1.22,-0.23 -1.24,-0.17 -1.26,-0.13 -1.27,-0.08 h -0.14 l -0.14,-0.01 h -0.15 l -0.16,-0.01 h -0.16 l -0.17,-0.01 h -0.17 -0.18 l -0.18,-0.01 h -0.19 -0.18 -0.19 l -0.2,-0.01 h -0.19 -0.2 -0.2 -0.2 -0.21 -0.2 -0.2 -0.2 z m -3.95,-167.07 -3.8,0.3 -3.75,0.41 -3.71,0.52 -3.65,0.63 -3.6,0.74 -3.55,0.84 -3.48,0.95 -3.42,1.04 -3.35,1.14 -3.28,1.24 -3.21,1.33 -3.13,1.42 -3.05,1.5 -2.98,1.59 -2.88,1.68 -2.8,1.75 -2.71,1.84 -2.61,1.91 -2.51,1.98 -2.42,2.05 -2.31,2.13 -2.2,2.18 -2.1,2.26 -1.98,2.31 -1.86,2.37 -1.75,2.43 -1.62,2.48 -1.5,2.54 -1.37,2.58 -1.24,2.64 -1.11,2.67 -0.97,2.72 -0.82,2.76 -0.69,2.79 -0.54,2.83 -0.38,2.87 -0.24,2.89 -0.08,2.92 v 35.51 h 188.76 v -35.51 l -0.08,-2.92 -0.24,-2.89 -0.38,-2.87 -0.54,-2.83 -0.69,-2.79 -0.82,-2.76 -0.97,-2.72 -1.11,-2.67 -1.24,-2.64 -1.37,-2.58 -1.5,-2.54 -1.62,-2.48 -1.75,-2.43 -1.86,-2.37 -1.98,-2.31 -2.1,-2.26 -2.2,-2.18 -2.31,-2.13 -2.42,-2.05 -2.51,-1.98 -2.61,-1.91 -2.71,-1.84 -2.8,-1.75 -2.89,-1.68 -2.97,-1.59 -3.05,-1.5 -3.13,-1.42 -3.21,-1.33 -3.28,-1.24 -3.36,-1.14 -3.41,-1.04 -3.49,-0.95 -3.54,-0.84 -3.6,-0.74 -3.66,-0.63 -3.7,-0.52 -3.76,-0.41 -3.8,-0.3 -3.84,-0.18 -3.88,-0.06 -3.88,0.06 z"
       id="use11"
       style="fill:#ffffff;fill-opacity:1" />
    <g
       id="g15"
       style="fill:#ffffff">
      <path
         d="m 264.84,130.38 h 1.07 1.06 1.04 1.02 0.98 0.96 l 0.91,0.01 h 0.88 0.82 0.78 0.71 0.66 0.58 l 0.52,0.01 h 0.44 0.36 0.27 0.18 l 4.94,0.19 4.88,0.39 4.82,0.58 4.77,0.76 4.7,0.96 4.63,1.13 4.56,1.31 4.48,1.49 4.41,1.65 4.32,1.82 4.23,1.98 4.15,2.14 4.05,2.29 3.95,2.44 3.85,2.58 3.74,2.73 3.64,2.86 3.52,2.99 3.41,3.13 3.28,3.25 3.17,3.37 3.03,3.48 2.9,3.6 2.77,3.71 2.63,3.82 2.49,3.91 2.33,4.01 2.19,4.11 2.04,4.19 1.88,4.28 1.72,4.36 1.55,4.43 1.38,4.51 1.21,4.58 1.04,4.64 0.85,4.7 0.67,4.76 0.49,4.81 0.29,4.86 0.1,4.91 v 35.5 l 0.47,0.56 0.46,0.54 0.46,0.52 0.44,0.52 0.43,0.5 0.42,0.48 0.41,0.47 0.4,0.46 0.4,0.44 0.38,0.43 0.37,0.41 0.36,0.4 0.35,0.39 0.35,0.37 0.33,0.36 0.32,0.34 0.31,0.33 0.3,0.32 0.29,0.3 0.29,0.29 0.27,0.28 0.26,0.25 0.25,0.25 0.24,0.23 0.24,0.22 0.22,0.2 0.21,0.19 0.2,0.18 0.19,0.16 0.19,0.15 0.17,0.13 0.16,0.12 0.15,0.11 0.14,0.09 0.14,0.08 0.12,0.06 0.11,0.05 0.1,0.03 0.09,0.02 0.09,0.01 h 0.88 l 0.85,0.01 0.84,0.01 0.82,0.02 0.8,0.03 0.77,0.03 0.75,0.05 0.74,0.06 0.71,0.07 0.69,0.08 0.66,0.1 0.65,0.12 0.62,0.14 0.61,0.15 0.58,0.18 0.55,0.2 0.54,0.22 0.52,0.24 0.49,0.27 0.47,0.3 0.45,0.32 0.42,0.35 0.41,0.39 0.38,0.41 0.36,0.45 0.33,0.49 0.31,0.51 0.3,0.56 0.26,0.59 0.25,0.63 0.22,0.67 0.2,0.72 0.17,0.76 0.16,0.8 0.12,0.84 0.11,0.89 0.08,0.94 0.06,0.99 0.04,1.04 0.01,1.1 v 178.08 l -0.02,1.11 -0.05,1.1 -0.09,1.09 -0.12,1.07 -0.16,1.06 -0.19,1.05 -0.22,1.03 -0.25,1.02 -0.29,1 -0.31,0.98 -0.34,0.96 -0.37,0.94 -0.4,0.92 -0.43,0.9 -0.45,0.87 -0.48,0.85 -0.5,0.83 -0.53,0.8 -0.55,0.78 -0.58,0.75 -0.59,0.72 -0.62,0.69 -0.64,0.67 -0.66,0.63 -0.68,0.6 -0.7,0.57 -0.71,0.54 -0.74,0.5 -0.74,0.46 -0.77,0.43 -0.78,0.4 -0.8,0.35 -0.81,0.32 -0.82,0.28 -0.83,0.24 -0.85,0.19 -0.86,0.16 -0.86,0.11 -0.88,0.07 -0.89,0.02 H 144.1 l -0.43,-0.02 -0.46,-0.05 -0.5,-0.09 -0.53,-0.13 -0.56,-0.15 -0.59,-0.19 -0.61,-0.22 -0.64,-0.25 -0.65,-0.28 -0.68,-0.3 -0.69,-0.33 -0.7,-0.36 -0.71,-0.38 -0.72,-0.4 -0.73,-0.43 -0.72,-0.44 -0.73,-0.47 -0.72,-0.48 -0.72,-0.51 -0.72,-0.51 -0.7,-0.54 -0.69,-0.54 -0.67,-0.56 -0.66,-0.58 -0.63,-0.58 -0.61,-0.59 -0.59,-0.6 -0.56,-0.61 -0.53,-0.61 -0.5,-0.62 -0.46,-0.63 -0.42,-0.63 -0.39,-0.62 -0.34,-0.63 -0.29,-0.63 -0.25,-0.63 -0.2,-0.63 -0.14,-0.62 -0.09,-0.62 -0.03,-0.61 V 314.58 l 0.01,-1.21 0.01,-1.36 0.02,-1.52 0.03,-1.66 0.03,-1.8 0.04,-1.92 0.05,-2.03 0.05,-2.14 0.06,-2.23 0.06,-2.32 0.07,-2.39 0.07,-2.46 0.07,-2.51 0.08,-2.56 0.07,-2.59 0.09,-2.62 0.08,-2.63 0.08,-2.64 0.09,-2.63 0.08,-2.62 0.09,-2.6 0.08,-2.56 0.09,-2.52 0.08,-2.47 0.08,-2.41 0.08,-2.33 0.08,-2.25 0.07,-2.15 0.07,-2.06 0.07,-1.94 0.06,-1.82 0.06,-1.68 0.05,-1.55 0.05,-1.4 0.04,-1.23 0.03,-1.06 0.03,-0.88 0.02,-0.69 0.01,-0.49 0.01,-0.28 0.1,-4.88 0.31,-4.77 0.52,-4.67 0.71,-4.57 0.9,-4.47 1.1,-4.36 1.28,-4.26 1.46,-4.15 1.64,-4.04 1.8,-3.93 1.98,-3.82 2.14,-3.71 2.3,-3.6 2.45,-3.48 2.6,-3.37 2.75,-3.25 2.89,-3.14 3.03,-3.02 3.16,-2.9 3.29,-2.78 3.41,-2.66 3.53,-2.54 3.65,-2.41 3.76,-2.29 3.86,-2.17 3.97,-2.04 4.06,-1.91 4.16,-1.78 4.25,-1.66 4.33,-1.52 4.42,-1.39 4.48,-1.26 4.57,-1.13 4.62,-0.99 4.69,-0.85 4.75,-0.72 4.81,-0.58 4.85,-0.44 4.9,-0.3 4.95,-0.16 h 0.18 0.27 0.36 0.44 l 0.51,-0.01 h 0.59 0.66 0.71 0.77 0.83 0.87 l 0.92,-0.01 h 0.95 0.99 1.02 1.04 1.06 1.07 1.08 1.09 1.09 z m -8.76,213.07 h -0.2 -0.2 -0.2 -0.2 -0.2 l -0.19,0.01 h -0.19 -0.19 -0.18 l -0.18,0.01 h -0.18 -0.17 l -0.17,0.01 h -0.16 l -0.16,0.01 h -0.15 l -0.15,0.01 h -0.13 l -1.27,0.08 -1.26,0.13 -1.24,0.17 -1.22,0.23 -1.21,0.28 -1.19,0.32 -1.17,0.37 -1.15,0.41 -1.13,0.46 -1.1,0.5 -1.09,0.54 -1.06,0.58 -1.03,0.63 -1.01,0.66 -0.98,0.69 -0.96,0.74 -0.93,0.76 -0.9,0.81 -0.87,0.83 -0.83,0.87 -0.81,0.9 -0.77,0.92 -0.74,0.96 -0.7,0.98 -0.67,1.01 -0.63,1.04 -0.6,1.06 -0.56,1.08 -0.51,1.1 -0.48,1.13 -0.44,1.15 -0.39,1.16 -0.35,1.18 -0.31,1.2 -0.26,1.21 -0.22,1.23 -0.17,1.24 -0.12,1.26 -0.07,1.26 -0.03,1.28 0.01,0.67 0.02,0.67 0.03,0.67 0.05,0.66 0.05,0.66 0.08,0.66 0.08,0.65 0.1,0.65 0.11,0.64 0.12,0.64 0.13,0.63 0.15,0.63 0.16,0.63 0.17,0.62 0.18,0.61 0.19,0.61 0.21,0.6 0.22,0.6 0.23,0.6 0.24,0.58 0.25,0.58 0.26,0.58 0.28,0.57 0.28,0.56 0.3,0.56 0.31,0.55 0.32,0.54 0.33,0.54 0.34,0.53 0.35,0.52 0.36,0.52 0.37,0.51 0.38,0.5 0.39,0.49 0.4,0.49 0.41,0.48 0.43,0.47 0.43,0.46 0.44,0.45 0.45,0.45 v 53.81 l 0.01,0.46 0.03,0.46 0.05,0.45 0.06,0.45 0.09,0.44 0.1,0.44 0.12,0.43 0.13,0.42 0.16,0.42 0.17,0.41 0.18,0.4 0.2,0.4 0.21,0.38 0.23,0.38 0.25,0.37 0.25,0.36 0.27,0.35 0.29,0.33 0.29,0.33 0.31,0.32 0.32,0.3 0.33,0.3 0.34,0.28 0.36,0.27 0.36,0.25 0.37,0.24 0.38,0.23 0.39,0.21 0.4,0.2 0.41,0.19 0.42,0.16 0.42,0.16 0.43,0.13 0.44,0.12 0.44,0.1 0.45,0.08 0.45,0.07 0.46,0.05 0.46,0.03 0.47,0.01 h 25.86 l 0.46,-0.01 0.47,-0.03 0.46,-0.05 0.45,-0.07 0.45,-0.08 0.44,-0.1 0.44,-0.12 0.43,-0.13 0.42,-0.16 0.41,-0.16 0.41,-0.19 0.4,-0.2 0.39,-0.21 0.38,-0.23 0.38,-0.24 0.36,-0.25 0.35,-0.27 0.34,-0.28 0.33,-0.3 0.32,-0.3 0.31,-0.32 0.3,-0.33 0.28,-0.33 0.27,-0.35 0.26,-0.36 0.24,-0.37 0.23,-0.38 0.21,-0.38 0.2,-0.4 0.19,-0.4 0.17,-0.41 0.15,-0.42 0.14,-0.42 0.12,-0.43 0.1,-0.44 0.08,-0.44 0.07,-0.45 0.05,-0.45 0.03,-0.46 0.01,-0.46 v -53.81 l 0.45,-0.45 0.44,-0.45 0.43,-0.46 0.42,-0.47 0.41,-0.48 0.4,-0.49 0.4,-0.49 0.38,-0.5 0.37,-0.51 0.36,-0.52 0.35,-0.52 0.34,-0.53 0.33,-0.54 0.32,-0.54 0.3,-0.55 0.3,-0.56 0.29,-0.56 0.27,-0.57 0.27,-0.58 0.25,-0.58 0.24,-0.58 0.23,-0.6 0.22,-0.6 0.2,-0.6 0.2,-0.61 0.18,-0.61 0.17,-0.62 0.16,-0.63 0.14,-0.63 0.14,-0.63 0.12,-0.64 0.11,-0.64 0.1,-0.65 0.08,-0.65 0.07,-0.66 0.06,-0.66 0.05,-0.66 0.03,-0.67 0.02,-0.67 0.01,-0.67 -0.03,-1.28 -0.07,-1.26 -0.13,-1.26 -0.17,-1.24 -0.21,-1.23 -0.27,-1.21 -0.3,-1.2 -0.35,-1.18 -0.4,-1.16 -0.43,-1.15 -0.48,-1.13 -0.52,-1.1 -0.55,-1.08 -0.6,-1.06 -0.63,-1.04 -0.67,-1.01 -0.7,-0.98 -0.74,-0.96 -0.77,-0.92 -0.81,-0.9 -0.84,-0.87 -0.87,-0.83 -0.89,-0.81 -0.93,-0.76 -0.96,-0.74 -0.98,-0.69 -1.01,-0.66 -1.04,-0.63 -1.06,-0.58 -1.08,-0.54 -1.11,-0.5 -1.13,-0.46 -1.14,-0.41 -1.17,-0.37 -1.19,-0.32 -1.21,-0.28 -1.22,-0.23 -1.24,-0.17 -1.26,-0.13 -1.27,-0.08 h -0.14 l -0.14,-0.01 h -0.15 l -0.16,-0.01 h -0.16 l -0.17,-0.01 h -0.17 -0.18 l -0.18,-0.01 h -0.19 -0.18 -0.19 l -0.2,-0.01 h -0.19 -0.2 -0.2 -0.2 -0.21 -0.2 -0.2 -0.2 z m -3.95,-167.07 -3.8,0.3 -3.75,0.41 -3.71,0.52 -3.65,0.63 -3.6,0.74 -3.55,0.84 -3.48,0.95 -3.42,1.04 -3.35,1.14 -3.28,1.24 -3.21,1.33 -3.13,1.42 -3.05,1.5 -2.98,1.59 -2.88,1.68 -2.8,1.75 -2.71,1.84 -2.61,1.91 -2.51,1.98 -2.42,2.05 -2.31,2.13 -2.2,2.18 -2.1,2.26 -1.98,2.31 -1.86,2.37 -1.75,2.43 -1.62,2.48 -1.5,2.54 -1.37,2.58 -1.24,2.64 -1.11,2.67 -0.97,2.72 -0.82,2.76 -0.69,2.79 -0.54,2.83 -0.38,2.87 -0.24,2.89 -0.08,2.92 v 35.51 h 188.76 v -35.51 l -0.08,-2.92 -0.24,-2.89 -0.38,-2.87 -0.54,-2.83 -0.69,-2.79 -0.82,-2.76 -0.97,-2.72 -1.11,-2.67 -1.24,-2.64 -1.37,-2.58 -1.5,-2.54 -1.62,-2.48 -1.75,-2.43 -1.86,-2.37 -1.98,-2.31 -2.1,-2.26 -2.2,-2.18 -2.31,-2.13 -2.42,-2.05 -2.51,-1.98 -2.61,-1.91 -2.71,-1.84 -2.8,-1.75 -2.89,-1.68 -2.97,-1.59 -3.05,-1.5 -3.13,-1.42 -3.21,-1.33 -3.28,-1.24 -3.36,-1.14 -3.41,-1.04 -3.49,-0.95 -3.54,-0.84 -3.6,-0.74 -3.66,-0.63 -3.7,-0.52 -3.76,-0.41 -3.8,-0.3 -3.84,-0.18 -3.88,-0.06 -3.88,0.06 z"
         id="use13"
         style="fill:#ffffff;fill-opacity:0;stroke:#000000;stroke-width:1;stroke-opacity:0" />
    </g>
  </g>
  <g
     id="g21"
     transform="matrix(0.0691493,0,0,0.0691493,2.1564454,0.79647929)"
     style="fill:#ffffff">
    <path
       d="m 539.92,401.7 c 0,65.14 -52.38,118.02 -116.89,118.02 -7.74,0 -15.31,1.45 -22.63,0 -53.7,-10.65 -94.27,-60.7 -94.27,-118.02 0,-65.13 52.38,-114.64 116.9,-114.64 64.51,0 116.89,49.51 116.89,114.64 z"
       id="use19"
       style="fill:#ffffff;fill-opacity:1" />
  </g>
</svg>
