<?xml version="1.0" encoding="UTF-8" standalone="no"?>
<svg
   xmlns:dc="http://purl.org/dc/elements/1.1/"
   xmlns:cc="http://creativecommons.org/ns#"
   xmlns:rdf="http://www.w3.org/1999/02/22-rdf-syntax-ns#"
   xmlns:svg="http://www.w3.org/2000/svg"
   xmlns="http://www.w3.org/2000/svg"
   xmlns:sodipodi="http://sodipodi.sourceforge.net/DTD/sodipodi-0.dtd"
   xmlns:inkscape="http://www.inkscape.org/namespaces/inkscape"
   height="48"
   width="48"
   version="1.1"
   id="svg8"
   sodipodi:docname="calligraauthor.svg"
   inkscape:version="1.0.2 (e86c870879, 2021-01-15)">
  <metadata
     id="metadata14">
    <rdf:RDF>
      <cc:Work
         rdf:about="">
        <dc:format>image/svg+xml</dc:format>
        <dc:type
           rdf:resource="http://purl.org/dc/dcmitype/StillImage" />
        <dc:title></dc:title>
      </cc:Work>
    </rdf:RDF>
  </metadata>
  <defs
     id="defs12" />
  <sodipodi:namedview
     pagecolor="#ffffff"
     bordercolor="#666666"
     borderopacity="1"
     objecttolerance="10"
     gridtolerance="10"
     guidetolerance="10"
     inkscape:pageopacity="0"
     inkscape:pageshadow="2"
     inkscape:window-width="1920"
     inkscape:window-height="1031"
     id="namedview10"
     showgrid="false"
     inkscape:zoom="9.4583333"
     inkscape:cx="14.070137"
     inkscape:cy="27.288289"
     inkscape:window-x="0"
     inkscape:window-y="24"
     inkscape:window-maximized="1"
     inkscape:current-layer="svg8"
     inkscape:document-rotation="0" />
  <path
     d="m44.322082 27.405077a19.729762 19.729765 0 0 1 -19.729762 19.729765 19.729762 19.729765 0 0 1 -19.7297621-19.729765 19.729762 19.729765 0 0 1 19.7297621-19.7297632 19.729762 19.729765 0 0 1 19.729762 19.7297632z"
     fill="#89a02c"
     opacity=".99"
     transform="matrix(1.1503549 0 0 1.1503549 -4.486125 -7.525565)"
     id="path2"
     style="fill:#eba678;fill-opacity:1" />
  <g
     fill="#ffffff"
     fill-opacity="0.9"
     transform="rotate(23.971529,-1.117136,174.38589)"
     id="g10">
    <path
       d="m -33.122408,17.251756 a 1.4714318,1.4714318 0 0 0 -1.471432,1.471432 1.4714318,1.4714318 0 0 0 0.629382,1.20416 c -1.078625,3.256778 -3.04988,8.573497 -5.043677,10.567294 0,0 2.942863,4.414295 2.942863,7.357159 h 7.357159 c 0,-2.942864 2.942864,-7.357159 2.942864,-7.357159 -1.993436,-1.993436 -3.96348,-7.308904 -5.042241,-10.565857 a 1.4714318,1.4714318 0 0 0 0.627946,-1.205597 1.4714318,1.4714318 0 0 0 -1.471432,-1.471432 v 2.942864 10.49832 c 0.454902,0.262638 0.7353,0.747857 0.735716,1.273134 0,0.812649 -0.658783,1.471431 -1.471432,1.471431 -0.812649,0 -1.471432,-0.658782 -1.471432,-1.471431 9.57e-4,-0.524763 0.281257,-1.009317 0.735716,-1.271697 V 20.19462 Z"
       id="path4" />
    <path
       d="m -36.065272,37.851801 h 7.357159 c 0.61138,0 1.103574,0.492194 1.103574,1.103573 0,0.61138 -0.492194,1.103574 -1.103574,1.103574 h -7.357159 c -0.611379,0 -1.103573,-0.492194 -1.103573,-1.103574 0,-0.611379 0.492194,-1.103573 1.103573,-1.103573 z"
       id="path6" />
    <path
       d="m -36.065273,40.058949 h 7.357159 v 3.678579 h -7.357159 z"
       id="path8" />
  </g>
  <path
     d="m 1.1075423,24 c 0,12.534782 10.1614467,22.696231 22.6962277,22.696231 V 1.3037694 C 11.26899,1.3037694 1.1075433,11.465217 1.1075423,24 Z"
     fill="#89a02c"
     opacity="0.99"
     id="path839"
     sodipodi:nodetypes="sccs"
     style="fill:#e38546;fill-opacity:1;stroke-width:1.15035" />
  <path
     d="m 30.601333,13.121542 a 7.5,7.5 0 0 1 -7.836122,7.133709 7.5,7.5 0 0 1 -7.148003,-7.823085 7.5,7.5 0 0 1 7.810023,-7.1622737 7.5,7.5 0 0 1 7.17652,7.7969337"
     fill="#ffffff"
     id="path14" />
  <text
     style="font-size:13.7623px;font-family:'Ubuntu Condensed';letter-spacing:0;word-spacing:0;fill:#e38546;stroke-width:0.344057"
     x="18.022861"
     y="17.687542"
     id="text18"><tspan
       fill="#e38546"
       stroke-width="0.344057"
       x="18.022861"
       y="17.687542"
       id="tspan16">W</tspan></text>
</svg>
