<?xml version="1.0" encoding="UTF-8" standalone="no"?>
<svg
   xmlns:dc="http://purl.org/dc/elements/1.1/"
   xmlns:cc="http://creativecommons.org/ns#"
   xmlns:rdf="http://www.w3.org/1999/02/22-rdf-syntax-ns#"
   xmlns:svg="http://www.w3.org/2000/svg"
   xmlns="http://www.w3.org/2000/svg"
   xmlns:sodipodi="http://sodipodi.sourceforge.net/DTD/sodipodi-0.dtd"
   xmlns:inkscape="http://www.inkscape.org/namespaces/inkscape"
   height="48"
   width="48"
   version="1.1"
   id="svg6"
   sodipodi:docname="com.github.artemanufrij.regextester.svg"
   inkscape:version="1.0.2 (e86c870879, 2021-01-15)">
  <metadata
     id="metadata12">
    <rdf:RDF>
      <cc:Work
         rdf:about="">
        <dc:format>image/svg+xml</dc:format>
        <dc:type
           rdf:resource="http://purl.org/dc/dcmitype/StillImage" />
        <dc:title></dc:title>
      </cc:Work>
    </rdf:RDF>
  </metadata>
  <defs
     id="defs10" />
  <sodipodi:namedview
     pagecolor="#ffffff"
     bordercolor="#666666"
     borderopacity="1"
     objecttolerance="10"
     gridtolerance="10"
     guidetolerance="10"
     inkscape:pageopacity="0"
     inkscape:pageshadow="2"
     inkscape:window-width="1920"
     inkscape:window-height="1031"
     id="namedview8"
     showgrid="false"
     inkscape:zoom="18.916666"
     inkscape:cx="19.988208"
     inkscape:cy="27.738873"
     inkscape:window-x="0"
     inkscape:window-y="24"
     inkscape:window-maximized="1"
     inkscape:current-layer="svg6"
     inkscape:document-rotation="0" />
  <circle
     cx="23.940615"
     cy="31.534513"
     fill="#5e81ac"
     opacity=".99"
     id="circle2"
     style="fill:#97cb99;fill-opacity:1"
     transform="matrix(1.75830584759 0 0 1.75830608345 -18.15909274367 -30.97874795549)"
     r="13.232998" />
  <path
     inkscape:connector-curvature="0"
     id="path4224-7-7"
     d="m 9.5921408,13.50222 5.1397002,14.3536 2.515944,-0.3707 -5.192416,-14.3459 z m -1.8412315,0.2802 -2.1050109,15.2042 1.6768019,-0.247 2.0643345,-15.1981 z m 17.6387917,-2.5991 -2.106518,15.2044 1.676792,-0.2469 2.064343,-15.1982 z m 7.266119,2.7421 c -1.414588,0.2087 -2.404709,0.806 -2.971214,1.7939 -0.560556,0.9805 -0.704,2.3989 -0.430641,4.2534 0.269459,1.8286 0.787981,3.1223 1.555402,3.8806 0.77433,0.7574 1.847995,1.0346 3.221173,0.8322 0.821152,-0.1211 1.513866,-0.3955 2.078514,-0.8219 0.563673,-0.4329 0.972192,-1.0113 1.225102,-1.7352 h 0.02092 l 0.248625,1.6874 c 0.299933,2.0354 -0.478138,3.1891 -2.334363,3.4626 -0.690032,0.1016 -1.268561,0.051 -1.735419,-0.1509 -0.459012,-0.1962 -0.786486,-0.5264 -0.982112,-0.9928 l -1.837092,0.5278 c 0.328893,0.7965 0.889113,1.3637 1.679355,1.7028 0.791193,0.3455 1.796941,0.4295 3.018326,0.2493 3.125895,-0.4605 4.471256,-2.1645 4.03709,-5.111 l -1.181222,-8.0165 c -0.161903,-1.0985 -0.246623,-1.8252 -0.256642,-2.1803 l -1.770211,0.2608 c -0.02092,0.049 -0.01,0.3149 0.03278,0.7972 0.04276,0.4823 0.07801,0.8218 0.10656,1.0155 h -0.01952 c -0.409782,-0.58 -0.932752,-0.9954 -1.568792,-1.245 -0.630095,-0.2573 -1.343128,-0.327 -2.136688,-0.2098 z m 0.647839,1.2314 c 0.572747,-0.084 1.107932,0.01 1.605008,0.2682 0.503014,0.2561 0.923224,0.6756 1.263028,1.2593 0.338872,0.5772 0.572283,1.2931 0.697963,2.146 0.122825,0.8335 0.103612,1.5715 -0.05516,2.2154 -0.159871,0.6376 -0.442533,1.1513 -0.850356,1.5415 -0.407822,0.3902 -0.90579,0.6291 -1.492334,0.7155 -0.986743,0.145 -1.730126,-0.065 -2.229617,-0.6319 -0.49949,-0.5668 -0.854317,-1.5671 -1.06569,-3.0016 -0.213264,-1.4474 -0.149989,-2.5271 0.189494,-3.2372 0.339523,-0.7103 0.985556,-1.135 1.937821,-1.2753 z m -14.926004,8.7351 0.435551,2.9559 2.992024,-0.4409 -0.435545,-2.9559 z"
     style="font-style:normal;font-variant:normal;font-weight:normal;font-stretch:normal;font-size:27.5px;line-height:125%;font-family:sans-serif;-inkscape-font-specification:sans-serif;letter-spacing:0px;word-spacing:0px;fill:#ffffff;fill-opacity:1;stroke:none;stroke-width:0.753984px;stroke-linecap:butt;stroke-linejoin:miter;stroke-opacity:1" />
  <path
     id="circle937"
     style="opacity:0.99;fill:#79b774;fill-opacity:0.9921568"
     transform="matrix(1.7583058,0,0,1.7583061,-18.159093,-30.978748)"
     d="m 37.173613,31.534513 c 0,1.827096 -0.370288,3.567706 -1.039915,5.15088 -0.669626,1.583174 -1.63859,3.008912 -2.83594,4.206263 -2.394702,2.394701 -5.702952,3.875855 -9.357143,3.875855 -1.827096,0 -3.567706,-0.370288 -5.15088,-1.039915 -1.583174,-0.669626 -3.008913,-1.638589 -4.206263,-2.83594 -1.19735,-1.197351 -2.166314,-2.623089 -2.83594,-4.206263 z"
     sodipodi:nodetypes="cssssscc" />
</svg>
