<?xml version="1.0" encoding="UTF-8" standalone="no"?>
<svg
   xmlns:dc="http://purl.org/dc/elements/1.1/"
   xmlns:cc="http://creativecommons.org/ns#"
   xmlns:rdf="http://www.w3.org/1999/02/22-rdf-syntax-ns#"
   xmlns:svg="http://www.w3.org/2000/svg"
   xmlns="http://www.w3.org/2000/svg"
   xmlns:sodipodi="http://sodipodi.sourceforge.net/DTD/sodipodi-0.dtd"
   xmlns:inkscape="http://www.inkscape.org/namespaces/inkscape"
   height="48"
   width="48"
   version="1.1"
   id="svg6"
   sodipodi:docname="com.github.artemanufrij.screencast.svg"
   inkscape:version="1.0.2 (e86c870879, 2021-01-15)">
  <metadata
     id="metadata12">
    <rdf:RDF>
      <cc:Work
         rdf:about="">
        <dc:format>image/svg+xml</dc:format>
        <dc:type
           rdf:resource="http://purl.org/dc/dcmitype/StillImage" />
        <dc:title></dc:title>
      </cc:Work>
    </rdf:RDF>
  </metadata>
  <defs
     id="defs10" />
  <sodipodi:namedview
     pagecolor="#ffffff"
     bordercolor="#666666"
     borderopacity="1"
     objecttolerance="10"
     gridtolerance="10"
     guidetolerance="10"
     inkscape:pageopacity="0"
     inkscape:pageshadow="2"
     inkscape:window-width="1920"
     inkscape:window-height="1031"
     id="namedview8"
     showgrid="false"
     inkscape:zoom="13.376103"
     inkscape:cx="19.988208"
     inkscape:cy="27.738873"
     inkscape:window-x="0"
     inkscape:window-y="24"
     inkscape:window-maximized="1"
     inkscape:current-layer="svg6"
     inkscape:document-rotation="0" />
  <circle
     cx="23.940615"
     cy="31.534513"
     fill="#5e81ac"
     opacity=".99"
     id="circle2"
     style="fill:#90c192;fill-opacity:1"
     transform="matrix(1.75830584759 0 0 1.75830608345 -18.15909274367 -30.97874795549)"
     r="13.232998" />
  <path
     id="rect824"
     style="fill:#ffffff;fill-opacity:1;stroke:none;stroke-width:3.77953;stroke-linecap:round;stroke-linejoin:round;stroke-miterlimit:4;stroke-dasharray:none;stroke-dashoffset:0;stroke-opacity:1;paint-order:fill markers stroke"
     d="M 7.0527344 37.837891 A 21.535427 21.535431 0 0 0 11.539062 42.078125 L 11.539062 37.837891 L 7.0527344 37.837891 z " />
  <rect
     ry="0"
     rx="0"
     y="37.837006"
     x="16.539419"
     height="5"
     width="5"
     id="rect826"
     style="fill:#ffffff;fill-opacity:1;stroke:none;stroke-width:3.77953;stroke-linecap:round;stroke-linejoin:round;stroke-miterlimit:4;stroke-dasharray:none;stroke-dashoffset:0;stroke-opacity:1;paint-order:fill markers stroke" />
  <rect
     style="fill:#ffffff;fill-opacity:1;stroke:none;stroke-width:3.77953;stroke-linecap:round;stroke-linejoin:round;stroke-miterlimit:4;stroke-dasharray:none;stroke-dashoffset:0;stroke-opacity:1;paint-order:fill markers stroke"
     id="rect828"
     width="5"
     height="5"
     x="26.539419"
     y="37.837006"
     rx="0"
     ry="0" />
  <path
     id="rect830"
     style="fill:#ffffff;fill-opacity:1;stroke:none;stroke-width:3.77953;stroke-linecap:round;stroke-linejoin:round;stroke-miterlimit:4;stroke-dasharray:none;stroke-dashoffset:0;stroke-opacity:1;paint-order:fill markers stroke"
     d="M 36.539062 37.837891 L 36.539062 41.929688 A 21.535427 21.535431 0 0 0 40.820312 37.837891 L 36.539062 37.837891 z " />
  <path
     id="path817"
     style="fill:#ffffff;fill-opacity:1;stroke:none;stroke-width:1px;stroke-linecap:butt;stroke-linejoin:miter;stroke-opacity:1"
     d="M 17.761719 3.8378906 A 21.535427 21.535431 0 0 0 11.570312 6.8378906 L 36.300781 6.8378906 A 21.535427 21.535431 0 0 0 30.111328 3.8378906 L 17.761719 3.8378906 z " />
  <g
     id="g837"
     transform="translate(1.5394199,-0.16299284)">
    <circle
       r="7.5"
       cy="24.5"
       cx="23.5"
       id="path819"
       style="opacity:1;fill:none;fill-opacity:1;stroke:#fafafa;stroke-width:2;stroke-linecap:butt;stroke-linejoin:round;stroke-miterlimit:4;stroke-dasharray:none;stroke-dashoffset:0;stroke-opacity:1;paint-order:fill markers stroke" />
    <path
       inkscape:connector-curvature="0"
       id="path821"
       d="m 23.5,18.851562 a 5.6481285,5.6481285 0 0 0 -3.324219,1.089844 1.5630788,1.5630788 0 0 1 0.490234,-0.08008 1.5630788,1.5630788 0 0 1 1.5625,1.5625 1.5630788,1.5630788 0 0 1 -1.5625,1.5625 1.5630788,1.5630788 0 0 1 -1.5625,-1.5625 1.5630788,1.5630788 0 0 1 0.13086,-0.621094 5.6481285,5.6481285 0 0 0 -1.382813,3.697265 A 5.6481285,5.6481285 0 0 0 23.5,30.148437 5.6481285,5.6481285 0 0 0 29.148437,24.499999 5.6481285,5.6481285 0 0 0 23.5,18.851562 Z m -0.875,3.742187 a 0.96982813,0.96982813 0 0 1 0.970703,0.96875 0.96982813,0.96982813 0 0 1 -0.970703,0.970703 0.96982813,0.96982813 0 0 1 -0.96875,-0.970703 0.96982813,0.96982813 0 0 1 0.96875,-0.96875 z"
       style="opacity:1;fill:#ffffff;fill-opacity:0.621212;stroke:none;stroke-width:2.36956;stroke-linecap:butt;stroke-linejoin:round;stroke-miterlimit:4;stroke-dasharray:none;stroke-dashoffset:0;stroke-opacity:1;paint-order:fill markers stroke" />
    <path
       id="path829"
       d="m 23.5,22.775391 a 1.7245579,1.7245579 0 0 0 -0.279297,0.02344 0.96982813,0.96982813 0 0 1 0.375,0.763672 A 0.96982813,0.96982813 0 0 1 22.625,24.533203 0.96982813,0.96982813 0 0 1 21.822266,24.107422 1.7245579,1.7245579 0 0 0 21.775391,24.5 1.7245579,1.7245579 0 0 0 23.5,26.224609 1.7245579,1.7245579 0 0 0 25.224609,24.5 1.7245579,1.7245579 0 0 0 23.5,22.775391 Z"
       style="opacity:1;fill:#ffffff;fill-opacity:1;stroke:none;stroke-width:2;stroke-linecap:butt;stroke-linejoin:round;stroke-miterlimit:4;stroke-dasharray:none;stroke-dashoffset:0;stroke-opacity:1;paint-order:fill markers stroke" />
  </g>
</svg>
