<?xml version="1.0" encoding="UTF-8" standalone="no"?>
<svg
   xmlns:dc="http://purl.org/dc/elements/1.1/"
   xmlns:cc="http://creativecommons.org/ns#"
   xmlns:rdf="http://www.w3.org/1999/02/22-rdf-syntax-ns#"
   xmlns:svg="http://www.w3.org/2000/svg"
   xmlns="http://www.w3.org/2000/svg"
   xmlns:sodipodi="http://sodipodi.sourceforge.net/DTD/sodipodi-0.dtd"
   xmlns:inkscape="http://www.inkscape.org/namespaces/inkscape"
   height="48"
   width="48"
   version="1.1"
   id="svg8"
   sodipodi:docname="com.rafaelmardojai.Blanket.svg"
   inkscape:version="1.0.2 (e86c870879, 2021-01-15)">
  <metadata
     id="metadata14">
    <rdf:RDF>
      <cc:Work
         rdf:about="">
        <dc:format>image/svg+xml</dc:format>
        <dc:type
           rdf:resource="http://purl.org/dc/dcmitype/StillImage" />
        <dc:title></dc:title>
      </cc:Work>
    </rdf:RDF>
  </metadata>
  <defs
     id="defs12" />
  <sodipodi:namedview
     pagecolor="#ffffff"
     bordercolor="#666666"
     borderopacity="1"
     objecttolerance="10"
     gridtolerance="10"
     guidetolerance="10"
     inkscape:pageopacity="0"
     inkscape:pageshadow="2"
     inkscape:window-width="1920"
     inkscape:window-height="1031"
     id="namedview10"
     showgrid="false"
     inkscape:zoom="18.916667"
     inkscape:cx="24"
     inkscape:cy="24"
     inkscape:window-x="0"
     inkscape:window-y="24"
     inkscape:window-maximized="1"
     inkscape:current-layer="svg8"
     inkscape:document-rotation="0" />
  <path
     d="m44.322082 27.405077a19.729762 19.729765 0 0 1 -19.729762 19.729765 19.729762 19.729765 0 0 1 -19.7297621-19.729765 19.729762 19.729765 0 0 1 19.7297621-19.7297632 19.729762 19.729765 0 0 1 19.729762 19.7297632z"
     fill="#89a02c"
     opacity=".99"
     transform="matrix(1.1503549 0 0 1.1503549 -4.486125 -7.525565)"
     id="path2"
     style="fill:#586a8f;fill-opacity:1" />
  <g
     id="g32"
     transform="matrix(0.06499135,0,0,0.06222459,2.3013365,3.1856331)"
     style="opacity:0.764379">
    <path
       d="m 483.49,92.06 c 33.39,0 60.46,27.07 60.46,60.46 0,51.51 0,180.28 0,386.31 H 121.11 c 0,-211.03 0,-342.92 0,-395.67 0,-28.22 22.87,-51.1 51.09,-51.1 74.35,0 238.82,0 311.29,0 z"
       id="use30"
       style="fill:#e6e6e6;fill-opacity:1" />
  </g>
  <g
     id="g36"
     transform="matrix(0.06499135,0,0,0.06222459,2.42482,3.1856331)"
     style="opacity:0.893521">
    <path
       d="m 491.95935,92.06 c 28.71324,0 51.99065,27.92 51.99065,62.36 0,4.33 0,15.14 0,32.45 -67.57284,0 -109.809,0 -126.70012,0 -10.91337,0 -19.76746,-10.61 -19.76746,-23.7 0,-14.23 0,-33.19 0,-47.41 0,-13.09 8.85409,-23.7 19.76746,-23.7 25.33669,0 55.81742,0 74.70947,0 z"
       id="use34"
       style="fill:#7a8487;fill-opacity:1;stroke-width:0.913082" />
  </g>
  <g
     id="g40"
     transform="matrix(0.06499135,0,0,0.06222459,2.3013365,3.1856331)">
    <path
       d="m 394.82,92.06 c 24.21,0 43.84,19.63 43.84,43.84 0,6.79 0,23.78 0,50.97 -90.17,0 -146.52,0 -169.06,0 -13.09,0 -23.7,-10.61 -23.7,-23.7 0,-14.23 0,-33.19 0,-47.41 0,-13.09 10.61,-23.7 23.7,-23.7 33.81,0 95.44,0 125.22,0 z"
       id="use38"
       style="fill:#bdc1c2;fill-opacity:1" />
  </g>
  <g
     id="g44"
     style="opacity:0.764379;fill:#cccccc"
     transform="matrix(0.06499135,0,0,0.06222459,2.3013365,3.1856331)">
    <path
       d="m 287.55,92.06 c 24.21,0 43.84,19.63 43.84,43.84 0,6.79 0,23.78 0,50.97 -69.51,0 -112.96,0 -130.33,0 -13.09,0 -23.71,-10.61 -23.71,-23.7 0,-14.23 0,-33.19 0,-47.41 0,-13.09 10.62,-23.7 23.71,-23.7 26.06,0 64.45,0 86.49,0 z"
       id="use42"
       style="fill:#cccccc;fill-opacity:1" />
  </g>
  <g
     id="g48"
     style="opacity:0.764379;fill:#ffffff"
     transform="matrix(0.06499135,0,0,0.06222459,2.3013365,3.1856331)">
    <path
       d="m 173.6,88.64 c 28.4,0 51.43,23.03 51.43,51.43 0,53.17 0,186.09 0,398.76 -54.26,0 -88.17,0 -101.74,0 -4.35,0 -7.88,-3.53 -7.88,-7.89 0,-88.46 0,-311.72 0,-391.62 0,-27.99 22.69,-50.68 50.68,-50.68 11.79,0 -4.13,0 7.51,0 z"
       id="use46"
       style="fill:#ffffff;fill-opacity:1" />
  </g>
  <g
     id="g52"
     style="opacity:0.764379;fill:#999999"
     transform="matrix(0.06499135,0,0,0.06222459,2.3013365,3.1856331)">
    <path
       d="M 225.03,186.87 H 331.39 V 288.51 H 225.03 Z"
       id="use50"
       style="fill:#999999;fill-opacity:1" />
  </g>
  <g
     id="g56"
     style="opacity:0.764379;fill:#ffffff"
     transform="matrix(0.06499135,0,0,0.06222459,2.3013365,3.1856331)">
    <path
       d="M 437.59,186.87 H 543.95 V 288.51 H 437.59 Z"
       id="use54"
       style="fill:#ffffff;fill-opacity:1" />
  </g>
  <g
     id="g60"
     transform="matrix(0.06499135,0,0,0.06222459,2.3013365,3.1856331)"
     style="opacity:0.764379">
    <path
       d="M 437.59,288.51 H 543.95 V 390.15 H 437.59 Z"
       id="use58"
       style="fill:#7a8487;fill-opacity:1" />
  </g>
  <g
     id="g64"
     transform="matrix(0.06499135,0,0,0.06222459,2.3013365,3.1856331)"
     style="opacity:0.764379">
    <path
       d="M 225.03,288.51 H 331.39 V 390.15 H 225.03 Z"
       id="use62"
       style="fill:#7a8487;fill-opacity:1" />
  </g>
  <g
     id="g68"
     transform="matrix(0.06499135,0,0,0.06222459,2.3013365,3.1856331)"
     style="opacity:0.764379">
    <path
       d="M 332.29,288.51 H 438.66 V 390.15 H 332.29 Z"
       id="use66"
       style="fill:#bdc1c2;fill-opacity:1" />
  </g>
  <g
     id="g72"
     style="opacity:0.764379;fill:#e6e6e6"
     transform="matrix(0.06499135,0,0,0.06222459,2.3013365,3.1856331)">
    <path
       d="M 222.68,390.15 H 332.29 V 569.58 H 222.68 Z"
       id="use70"
       style="fill:#e6e6e6;fill-opacity:1" />
  </g>
  <g
     id="g76"
     style="opacity:0.764379;fill:#f9f9f9"
     transform="matrix(0.06499135,0,0,0.06222459,2.3013365,3.1856331)">
    <path
       d="M 438.66,390.15 H 545.03 V 569.58 H 438.66 Z"
       id="use74"
       style="fill:#f9f9f9;fill-opacity:1" />
  </g>
  <g
     id="g80"
     style="fill:#55678d;fill-opacity:0.97"
     transform="matrix(0.06499135,0,0,0.06222459,2.3013365,3.1856331)">
    <path
       d="m 148.58,474.91 h 26.19 v 87.7 h -26.19 z"
       id="use78"
       style="fill:#55678d;fill-opacity:0.97" />
  </g>
  <g
     id="g84"
     style="fill:#55678d;fill-opacity:0.97"
     transform="matrix(0.06499135,0,0,0.06222459,2.3013365,3.1856331)">
    <path
       d="m 204.46,474.77 h 18.22 v 94.81 h -18.22 z"
       id="use82"
       style="fill:#55678d;fill-opacity:0.97" />
  </g>
  <g
     id="g88"
     style="fill:#55678d;fill-opacity:0.97"
     transform="matrix(0.06499135,0,0,0.06222459,2.3013365,3.1856331)">
    <path
       d="m 254.37,494.97 h 26.2 v 87.71 h -26.2 z"
       id="use86"
       style="fill:#55678d;fill-opacity:0.97" />
  </g>
  <g
     id="g92"
     style="fill:#55678d;fill-opacity:0.97"
     transform="matrix(0.06499135,0,0,0.06222459,2.3013365,3.1856331)">
    <path
       d="m 314.87,494.97 h 18.23 v 87.71 h -18.23 z"
       id="use90"
       style="fill:#55678d;fill-opacity:0.97" />
  </g>
  <g
     id="g96"
     style="opacity:0.764379;fill:#b3b3b3"
     transform="matrix(0.06499135,0,0,0.06222459,2.3013365,3.1856331)">
    <path
       d="M 331.22,390.15 H 437.59 V 569.58 H 331.22 Z"
       id="use94"
       style="fill:#b3b3b3;fill-opacity:1" />
  </g>
  <g
     id="g100"
     style="fill:#55678d;fill-opacity:0.97"
     transform="matrix(0.06499135,0,0,0.06222459,2.3013365,3.1856331)">
    <path
       d="m 362.76,494.97 h 26.2 v 87.71 h -26.2 z"
       id="use98"
       style="fill:#55678d;fill-opacity:0.97" />
  </g>
  <g
     id="g104"
     style="fill:#55678d;fill-opacity:0.97"
     transform="matrix(0.06499135,0,0,0.06222459,2.3013365,3.1856331)">
    <path
       d="m 420.44,494.97 h 18.22 v 87.71 h -18.22 z"
       id="use102"
       style="fill:#55678d;fill-opacity:0.97" />
  </g>
  <g
     id="g108"
     style="fill:#55678d;fill-opacity:0.97"
     transform="matrix(0.06499135,0,0,0.06222459,2.3013365,3.1856331)">
    <path
       d="m 470.47,494.97 h 26.2 v 87.71 h -26.2 z"
       id="use106"
       style="fill:#55678d;fill-opacity:0.97" />
  </g>
  <g
     id="g112"
     style="fill:#55678d;fill-opacity:0.97"
     transform="matrix(0.06499135,0,0,0.06222459,2.3013365,3.1856331)">
    <path
       d="m 525.78,494.97 h 26.2 l 3.41,74.61 -29.61,4.55 z"
       id="use110"
       style="fill:#55678d;fill-opacity:0.97" />
  </g>
</svg>
