<?xml version="1.0" encoding="UTF-8" standalone="no"?>
<svg
   xmlns:dc="http://purl.org/dc/elements/1.1/"
   xmlns:cc="http://creativecommons.org/ns#"
   xmlns:rdf="http://www.w3.org/1999/02/22-rdf-syntax-ns#"
   xmlns:svg="http://www.w3.org/2000/svg"
   xmlns="http://www.w3.org/2000/svg"
   xmlns:sodipodi="http://sodipodi.sourceforge.net/DTD/sodipodi-0.dtd"
   xmlns:inkscape="http://www.inkscape.org/namespaces/inkscape"
   height="48"
   width="48"
   version="1.1"
   id="svg6"
   sodipodi:docname="com.github.lainsce.dot-matrix.svg"
   inkscape:version="1.0.2 (e86c870879, 2021-01-15)">
  <metadata
     id="metadata12">
    <rdf:RDF>
      <cc:Work
         rdf:about="">
        <dc:format>image/svg+xml</dc:format>
        <dc:type
           rdf:resource="http://purl.org/dc/dcmitype/StillImage" />
        <dc:title></dc:title>
      </cc:Work>
    </rdf:RDF>
  </metadata>
  <defs
     id="defs10" />
  <sodipodi:namedview
     pagecolor="#ffffff"
     bordercolor="#666666"
     borderopacity="1"
     objecttolerance="10"
     gridtolerance="10"
     guidetolerance="10"
     inkscape:pageopacity="0"
     inkscape:pageshadow="2"
     inkscape:window-width="1920"
     inkscape:window-height="1031"
     id="namedview8"
     showgrid="false"
     inkscape:zoom="9.458333"
     inkscape:cx="19.988208"
     inkscape:cy="27.738873"
     inkscape:window-x="0"
     inkscape:window-y="24"
     inkscape:window-maximized="1"
     inkscape:current-layer="svg6"
     inkscape:document-rotation="0" />
  <circle
     cx="23.940615"
     cy="31.534513"
     fill="#5e81ac"
     opacity=".99"
     id="circle2"
     style="fill:#7e9dcf;fill-opacity:1"
     transform="matrix(1.75830584759 0 0 1.75830608345 -18.15909274367 -30.97874795549)"
     r="13.232998" />
  <path
     style="fill:#ffffff;fill-opacity:0.611111;stroke:none;stroke-width:1.80829;stroke-linecap:butt;stroke-linejoin:round;stroke-miterlimit:4;stroke-dasharray:none;stroke-opacity:1"
     d="m 10.618784,8.6108768 a 2.2603647,2.2603647 0 0 0 -2.2603651,2.2603652 2.2603647,2.2603647 0 0 0 2.2603651,2.260365 2.2603647,2.2603647 0 0 0 2.260365,-2.260365 2.2603647,2.2603647 0 0 0 -2.260365,-2.2603652 z m 13.426214,0 a 2.2603647,2.2603647 0 0 0 -2.260365,2.2603652 2.2603647,2.2603647 0 0 0 2.260365,2.260365 2.2603647,2.2603647 0 0 0 2.260364,-2.260365 2.2603647,2.2603647 0 0 0 -2.260364,-2.2603652 z m 13.426213,0 a 2.2603647,2.2603647 0 0 0 -2.260365,2.2603652 2.2603647,2.2603647 0 0 0 2.260365,2.260365 2.2603647,2.2603647 0 0 0 2.260365,-2.260365 2.2603647,2.2603647 0 0 0 -2.260365,-2.2603652 z M 10.618784,20.816847 a 2.2603647,2.2603647 0 0 0 -2.2603651,2.260365 2.2603647,2.2603647 0 0 0 2.2603651,2.260364 2.2603647,2.2603647 0 0 0 2.260365,-2.260364 2.2603647,2.2603647 0 0 0 -2.260365,-2.260365 z m 13.426214,0 a 2.2603647,2.2603647 0 0 0 -2.260365,2.260365 2.2603647,2.2603647 0 0 0 2.260365,2.260364 2.2603647,2.2603647 0 0 0 2.260364,-2.260364 2.2603647,2.2603647 0 0 0 -2.260364,-2.260365 z m 13.426213,0 a 2.2603647,2.2603647 0 0 0 -2.260365,2.260365 2.2603647,2.2603647 0 0 0 2.260365,2.260364 2.2603647,2.2603647 0 0 0 2.260365,-2.260364 2.2603647,2.2603647 0 0 0 -2.260365,-2.260365 z m -26.852427,12.20597 a 2.2603647,2.2603647 0 0 0 -2.2603651,2.260364 2.2603647,2.2603647 0 0 0 2.2603651,2.260365 2.2603647,2.2603647 0 0 0 2.260365,-2.260365 2.2603647,2.2603647 0 0 0 -2.260365,-2.260364 z m 13.426214,0 a 2.2603647,2.2603647 0 0 0 -2.260365,2.260364 2.2603647,2.2603647 0 0 0 2.260365,2.260365 2.2603647,2.2603647 0 0 0 2.260364,-2.260365 2.2603647,2.2603647 0 0 0 -2.260364,-2.260364 z m 13.426213,0 a 2.2603647,2.2603647 0 0 0 -2.260365,2.260364 2.2603647,2.2603647 0 0 0 0.732853,1.663488 l 3.190999,-3.191 a 2.2603647,2.2603647 0 0 0 -1.663487,-0.732852 z"
     id="path821" />
  <path
     id="circle937"
     style="opacity:0.99;fill:#6187c4;fill-opacity:0.9921568"
     transform="matrix(1.7583058,0,0,1.7583061,-18.159093,-30.978748)"
     d="m 37.173613,31.534513 c 0,1.827096 -0.370288,3.567706 -1.039915,5.15088 -0.669626,1.583174 -1.63859,3.008912 -2.83594,4.206263 -2.394702,2.394701 -5.702952,3.875855 -9.357143,3.875855 -1.827096,0 -3.567706,-0.370288 -5.15088,-1.039915 -1.583174,-0.669626 -3.008913,-1.638589 -4.206263,-2.83594 -1.19735,-1.197351 -2.166314,-2.623089 -2.83594,-4.206263 z"
     sodipodi:nodetypes="cssssscc" />
</svg>
