<?xml version="1.0" encoding="UTF-8" standalone="no"?>
<svg
   xmlns:dc="http://purl.org/dc/elements/1.1/"
   xmlns:cc="http://creativecommons.org/ns#"
   xmlns:rdf="http://www.w3.org/1999/02/22-rdf-syntax-ns#"
   xmlns:svg="http://www.w3.org/2000/svg"
   xmlns="http://www.w3.org/2000/svg"
   xmlns:sodipodi="http://sodipodi.sourceforge.net/DTD/sodipodi-0.dtd"
   xmlns:inkscape="http://www.inkscape.org/namespaces/inkscape"
   height="48"
   width="48"
   version="1.1"
   id="svg6"
   sodipodi:docname="com.github.cjfloss.envelope.svg"
   inkscape:version="1.0.2 (e86c870879, 2021-01-15)">
  <metadata
     id="metadata12">
    <rdf:RDF>
      <cc:Work
         rdf:about="">
        <dc:format>image/svg+xml</dc:format>
        <dc:type
           rdf:resource="http://purl.org/dc/dcmitype/StillImage" />
        <dc:title></dc:title>
      </cc:Work>
    </rdf:RDF>
  </metadata>
  <defs
     id="defs10" />
  <sodipodi:namedview
     pagecolor="#ffffff"
     bordercolor="#666666"
     borderopacity="1"
     objecttolerance="10"
     gridtolerance="10"
     guidetolerance="10"
     inkscape:pageopacity="0"
     inkscape:pageshadow="2"
     inkscape:window-width="1920"
     inkscape:window-height="1031"
     id="namedview8"
     showgrid="false"
     inkscape:zoom="6.6880516"
     inkscape:cx="-29.413019"
     inkscape:cy="12.659008"
     inkscape:window-x="0"
     inkscape:window-y="24"
     inkscape:window-maximized="1"
     inkscape:current-layer="svg6"
     inkscape:document-rotation="0" />
  <circle
     cx="23.940615"
     cy="31.534513"
     fill="#5e81ac"
     opacity=".99"
     r="13.232998"
     transform="matrix(1.75830584759 0 0 1.75830608345 -18.15909274367 -30.97874795549)"
     id="circle2"
     style="fill:#c89dd5;fill-opacity:1" />
  <g
     id="g983"
     transform="translate(0.009613)"
     style="fill:#ffffff;fill-opacity:1">
    <path
       id="rect6"
       d="M 8.3886719 14.103516 C 7.5838761 14.103516 6.9355469 14.751845 6.9355469 15.556641 L 6.9355469 40.355469 A 23.267658 23.267661 0 0 0 8.7578125 42.103516 L 39.113281 42.103516 A 23.267658 23.267661 0 0 0 40.935547 40.355469 L 40.935547 15.556641 C 40.935547 14.751845 40.287218 14.103516 39.482422 14.103516 L 8.3886719 14.103516 z "
       transform="translate(-0.009613)"
       style="fill:#ffffff;fill-opacity:1" />
  </g>
  <path
     id="rect992"
     style="fill:#000000;fill-opacity:0.07577778;stroke-width:0.8;stroke-linecap:square;stroke-miterlimit:4;stroke-dasharray:none"
     d="M 2.6796875 33.929688 A 23.267658 23.267661 0 0 0 8.0019531 41.423828 L 39.869141 41.423828 A 23.267658 23.267661 0 0 0 45.193359 33.929688 L 2.6796875 33.929688 z " />
  <path
     id="path10"
     d="M 3.7851562 36.103516 A 23.267658 23.267661 0 0 0 23.935547 47.736328 A 23.267658 23.267661 0 0 0 44.085938 36.103516 L 3.7851562 36.103516 z "
     style="fill:#9e81af;fill-opacity:0.9921568" />
  <text
     xml:space="preserve"
     style="font-style:normal;font-variant:normal;font-weight:bold;font-stretch:normal;font-size:17.1525px;line-height:1.25;font-family:sans-serif;-inkscape-font-specification:'sans-serif Bold';letter-spacing:0px;word-spacing:0px;fill:#c89dd5;fill-opacity:0.992157;stroke:none;stroke-width:0.428813"
     x="21.995338"
     y="27.332819"
     id="text819"
     transform="scale(0.86045464,1.1621763)"><tspan
       sodipodi:role="line"
       id="tspan817"
       x="21.995338"
       y="27.332819"
       style="fill:#c89dd5;fill-opacity:0.992157;stroke-width:0.428813">$</tspan></text>
</svg>
