<?xml version="1.0" encoding="UTF-8" standalone="no"?>
<svg
   xmlns:dc="http://purl.org/dc/elements/1.1/"
   xmlns:cc="http://creativecommons.org/ns#"
   xmlns:rdf="http://www.w3.org/1999/02/22-rdf-syntax-ns#"
   xmlns:svg="http://www.w3.org/2000/svg"
   xmlns="http://www.w3.org/2000/svg"
   xmlns:sodipodi="http://sodipodi.sourceforge.net/DTD/sodipodi-0.dtd"
   xmlns:inkscape="http://www.inkscape.org/namespaces/inkscape"
   height="48"
   width="48"
   version="1.1"
   id="svg6"
   sodipodi:docname="com.github.kjlaw89.webwatcher.svg"
   inkscape:version="1.0.2 (e86c870879, 2021-01-15)">
  <metadata
     id="metadata12">
    <rdf:RDF>
      <cc:Work
         rdf:about="">
        <dc:format>image/svg+xml</dc:format>
        <dc:type
           rdf:resource="http://purl.org/dc/dcmitype/StillImage" />
        <dc:title></dc:title>
      </cc:Work>
    </rdf:RDF>
  </metadata>
  <defs
     id="defs10" />
  <sodipodi:namedview
     pagecolor="#ffffff"
     bordercolor="#666666"
     borderopacity="1"
     objecttolerance="10"
     gridtolerance="10"
     guidetolerance="10"
     inkscape:pageopacity="0"
     inkscape:pageshadow="2"
     inkscape:window-width="1920"
     inkscape:window-height="1031"
     id="namedview8"
     showgrid="false"
     inkscape:zoom="4.7291665"
     inkscape:cx="-13.719816"
     inkscape:cy="35.906801"
     inkscape:window-x="0"
     inkscape:window-y="24"
     inkscape:window-maximized="1"
     inkscape:current-layer="svg6"
     inkscape:document-rotation="0" />
  <circle
     cx="23.940615"
     cy="31.534513"
     fill="#5e81ac"
     opacity=".99"
     id="circle2"
     style="fill:#7eaacf;fill-opacity:1"
     transform="matrix(1.75830584759 0 0 1.75830608345 -18.15909274367 -30.97874795549)"
     r="13.232998" />
  <circle
     style="fill:#ffffff;fill-opacity:1;stroke:none;stroke-width:1.15621;stroke-linecap:butt;stroke-linejoin:round;stroke-miterlimit:4;stroke-dasharray:1.15621, 2.31242;stroke-dashoffset:0;stroke-opacity:1;paint-order:fill markers stroke"
     id="path837"
     cx="31.045547"
     cy="12.060494"
     r="1.3267221" />
  <circle
     r="1.3267221"
     cy="12.060494"
     cx="35.465912"
     id="circle839"
     style="fill:#ffffff;fill-opacity:1;stroke:none;stroke-width:1.15621;stroke-linecap:butt;stroke-linejoin:round;stroke-miterlimit:4;stroke-dasharray:1.15621, 2.31242;stroke-dashoffset:0;stroke-opacity:1;paint-order:fill markers stroke" />
  <circle
     style="fill:#ffffff;fill-opacity:1;stroke:none;stroke-width:1.15621;stroke-linecap:butt;stroke-linejoin:round;stroke-miterlimit:4;stroke-dasharray:1.15621, 2.31242;stroke-dashoffset:0;stroke-opacity:1;paint-order:fill markers stroke"
     id="circle841"
     cx="39.949875"
     cy="12.060494"
     r="1.3267221" />
  <path
     id="path843"
     style="fill:#ffffff;fill-opacity:1;stroke:none;stroke-width:0.884481px;stroke-linecap:butt;stroke-linejoin:miter;stroke-opacity:1"
     d="M 12.029297 11.619141 L 9.1347656 15.15625 L 6.7226562 15.15625 L 6.7226562 37.652344 A 21.683176 21.683178 0 0 0 23.935547 46.152344 A 21.683176 21.683178 0 0 0 41.216797 37.5625 L 41.216797 15.15625 L 24.412109 15.15625 L 20.873047 11.619141 L 12.029297 11.619141 z M 15.353516 23.898438 C 18.873173 23.906537 21.72147 26.917405 21.712891 30.615234 C 21.704291 34.313062 18.841925 37.310871 15.322266 37.302734 C 11.802605 37.294634 8.950405 34.283767 8.9589844 30.585938 C 8.9675244 26.888109 11.833856 23.8903 15.353516 23.898438 z M 15.351562 24.597656 C 12.185116 24.590356 9.6053512 27.274533 9.5976562 30.587891 C 9.5899963 33.90125 12.157775 36.60017 15.324219 36.607422 C 18.490662 36.614722 21.068477 33.926638 21.076172 30.613281 C 21.083872 27.299922 18.518005 24.604909 15.351562 24.597656 z M 15.230469 26.537109 C 15.424269 26.537557 15.578603 26.69604 15.578125 26.886719 C 15.573225 27.633774 15.560694 29.519744 15.552734 30.263672 C 15.552734 30.268672 15.551081 30.272514 15.550781 30.277344 C 15.600051 30.313234 15.643142 30.355402 15.679688 30.404297 L 18.316406 30.412109 C 18.500829 30.412536 18.648906 30.5617 18.648438 30.746094 L 18.648438 30.775391 C 18.648013 30.9598 18.49887 31.107892 18.314453 31.107422 L 15.701172 31.101562 C 15.592415 31.266825 15.405603 31.375539 15.193359 31.375 C 14.855772 31.374221 14.585169 31.102048 14.585938 30.767578 C 14.586427 30.556284 14.694693 30.370632 14.857422 30.261719 L 14.855469 30.259766 C 14.860369 29.515833 14.870946 27.631828 14.878906 26.884766 C 14.879347 26.694087 15.036663 26.536676 15.230469 26.537109 z M 26.189453 27.326172 L 34.941406 27.345703 L 34.935547 29.847656 L 26.183594 29.826172 L 26.189453 27.326172 z M 26.181641 31.076172 L 38.683594 31.105469 L 38.677734 33.605469 L 26.175781 33.578125 L 26.181641 31.076172 z M 26.171875 34.828125 L 38.675781 34.857422 L 38.667969 37.357422 L 26.167969 37.328125 L 26.171875 34.828125 z " />
</svg>
