<?xml version="1.0" encoding="UTF-8" standalone="no"?>
<svg
   xmlns:dc="http://purl.org/dc/elements/1.1/"
   xmlns:cc="http://creativecommons.org/ns#"
   xmlns:rdf="http://www.w3.org/1999/02/22-rdf-syntax-ns#"
   xmlns:svg="http://www.w3.org/2000/svg"
   xmlns="http://www.w3.org/2000/svg"
   xmlns:sodipodi="http://sodipodi.sourceforge.net/DTD/sodipodi-0.dtd"
   xmlns:inkscape="http://www.inkscape.org/namespaces/inkscape"
   height="48"
   width="48"
   version="1.1"
   id="svg6"
   sodipodi:docname="com.github.freeeradicals.elements.svg"
   inkscape:version="1.0.2 (e86c870879, 2021-01-15)">
  <metadata
     id="metadata12">
    <rdf:RDF>
      <cc:Work
         rdf:about="">
        <dc:format>image/svg+xml</dc:format>
        <dc:type
           rdf:resource="http://purl.org/dc/dcmitype/StillImage" />
        <dc:title></dc:title>
      </cc:Work>
    </rdf:RDF>
  </metadata>
  <defs
     id="defs10" />
  <sodipodi:namedview
     pagecolor="#ffffff"
     bordercolor="#666666"
     borderopacity="1"
     objecttolerance="10"
     gridtolerance="10"
     guidetolerance="10"
     inkscape:pageopacity="0"
     inkscape:pageshadow="2"
     inkscape:window-width="1920"
     inkscape:window-height="1031"
     id="namedview8"
     showgrid="false"
     inkscape:zoom="6.6880516"
     inkscape:cx="-29.413019"
     inkscape:cy="12.659008"
     inkscape:window-x="0"
     inkscape:window-y="24"
     inkscape:window-maximized="1"
     inkscape:current-layer="svg6"
     inkscape:document-rotation="0" />
  <circle
     cx="23.940615"
     cy="31.534513"
     fill="#5e81ac"
     opacity=".99"
     id="circle2"
     style="fill:#9db3d5;fill-opacity:1"
     transform="matrix(1.75830584759 0 0 1.75830608345 -18.15909274367 -30.97874795549)"
     r="13.232998" />
  <path
     id="path4994-9-5"
     d="m 42.011842,12.643691 -14.78703,0.05023 -0.191346,0.195119 0.05035,14.786176 0.193058,0.193678 14.786178,-0.05035 0.193908,-0.194768 -0.05035,-14.786178 z m -0.190913,0.389458 0.04864,14.397382 -14.400065,0.04914 -0.04864,-14.397381 z m -20.99463,-0.31785 -14.7861774,0.05035 -0.1913453,0.195119 0.050233,14.787032 0.1922024,0.193561 14.7870333,-0.05023 0.194028,-0.195623 -0.05035,-14.786178 z m -0.191034,0.390314 0.04949,14.397498 -14.3999477,0.04829 -0.048643,-14.397381 z m 11.793427,3.447734 c -0.183844,-0.01737 -0.380537,-0.02575 -0.590744,-0.02503 l -2.802395,0.01051 8.96e-4,0.439217 0.626379,0.06389 0.188175,0.152933 0.02019,6.056834 -0.186587,0.153951 -0.625532,0.05733 0.0011,0.450569 2.901643,-0.01 c 1.868517,-0.0063 2.866391,-0.778982 2.861679,-2.163888 -0.0035,-1.077172 -0.742931,-1.74457 -2.05093,-1.751112 1.054193,-0.289385 1.591075,-0.852779 1.588233,-1.688128 -0.0035,-1.057907 -0.645217,-1.625487 -1.932127,-1.747061 z m -0.537919,0.480524 c 0.92383,0.09523 1.379637,0.535647 1.382286,1.314661 0.0037,1.066138 -0.632486,1.53043 -2.006397,1.535103 -0.131906,4.87e-4 -0.274738,7.08e-4 -0.417676,-0.01008 l -0.01004,-2.82498 c 0.274755,-0.01266 0.483878,-0.03399 0.626767,-0.03451 0.151129,-5.13e-4 0.293082,0.0062 0.425058,0.0198 z m 6.796701,1.488016 c -0.136088,-0.02442 -0.28004,-0.03665 -0.429793,-0.03613 -1.472836,0.005 -2.535269,1.140321 -2.529622,2.799989 0.0055,1.615729 1.010152,2.700777 2.461005,2.695835 0.692453,-0.0024 1.406464,-0.224509 2.064444,-0.666405 l -0.0027,-0.604129 c -0.625082,0.419808 -1.17358,0.640649 -1.723141,0.642515 -1.110125,0.0038 -1.849203,-0.828695 -1.85399,-2.235579 l -8.96e-4,-0.121217 3.561442,-0.01212 c 0.01065,-0.12094 0.01043,-0.231109 0.01008,-0.341012 -0.004,-1.182955 -0.604169,-1.950884 -1.556792,-2.12175 z m -0.309641,0.48038 c 0.571545,0.102817 0.884581,0.56903 0.887232,1.348014 l 3.23e-4,0.17603 -2.539087,0.0091 c 0.06276,-0.934477 0.687091,-1.552463 1.390535,-1.554863 0.09205,-3.06e-4 0.179356,0.0071 0.261001,0.02176 z M 16.72112,16.218934 c -0.04387,-0.0089 -0.0885,-0.0134 -0.134971,-0.01323 -0.371732,0.0013 -0.673188,0.293186 -0.671884,0.67652 0.0013,0.371747 0.304712,0.660947 0.676447,0.659677 0.371731,-0.0013 0.672366,-0.292684 0.671102,-0.66443 -0.0011,-0.325264 -0.233621,-0.59667 -0.540694,-0.658535 z m -4.809828,0.432062 -2.8345044,0.0096 0.0016,0.465459 0.731379,0.06692 0.1992144,0.161413 0.02188,6.401195 -0.1973974,0.162928 -0.732325,0.06101 0.002,0.475955 5.5643954,-0.01871 -0.007,-2.114527 -0.604129,0.0028 -0.192479,1.394628 -0.162225,0.186033 -2.625275,0.0086 -0.02236,-6.563307 0.196542,-0.163044 0.662314,-0.07146 z m 20.444393,3.723099 c 0.931367,0.101045 1.388272,0.571404 1.391255,1.44657 0.004,1.110128 -0.676567,1.562815 -2.149398,1.56782 -0.230818,8.21e-4 -0.473415,-0.0087 -0.737264,-0.03027 l 1.2e-4,-8.96e-4 -0.01,-2.933871 c 0.428507,-0.04542 0.791109,-0.06955 1.076884,-0.07052 0.152503,-5.31e-4 0.295309,0.0067 0.428362,0.02112 z m -15.365824,-1.591012 -0.441899,0.0014 -1.334186,0.423022 0.0013,0.359989 0.813241,-0.0029 0.01462,4.205613 -0.197134,0.186485 -0.615503,0.06044 0.0013,0.417487 2.613925,-0.0084 -0.002,-0.418459 -0.627431,-0.05619 -0.209117,-0.184548 z m 3.90395,13.880077 -14.786177,0.05035 -0.191346,0.195117 0.018733,5.506901 0.3866985,-0.0054 -0.018031,-5.308165 14.4000645,-0.04914 0.01707,5.16864 0.386582,-0.0046 -0.01797,-5.359557 z m -6.583678,3.948748 -2.268824,0.0077 0.0019,0.431521 0.648176,0.09561 0.194768,0.193912 0.0032,0.983168 0.582982,-0.0074 -0.0031,-0.977916 0.194028,-0.195625 0.648719,-0.09946 z m -5.1094334,0.01734 -2.0307888,0.0063 0.00105,0.432258 0.6919252,0.06238 0.1945126,0.151188 0.0038,1.106089 0.582982,-0.0074 -0.0017,-0.637092 0.426759,0.631623 1.1120054,-0.01519 -0.9799424,-1.460011 z"
     style="font-style:normal;font-variant:normal;font-weight:normal;font-stretch:normal;font-size:10.5833px;line-height:1.25;font-family:'Bitstream Charter';-inkscape-font-specification:'Bitstream Charter';text-align:center;letter-spacing:0px;word-spacing:0px;text-anchor:middle;fill:#f9f9f9;fill-opacity:1;stroke:none;stroke-width:0.290418"
     inkscape:connector-curvature="0" />
</svg>
