<?xml version="1.0" encoding="UTF-8" standalone="no"?>
<svg
   xmlns:dc="http://purl.org/dc/elements/1.1/"
   xmlns:cc="http://creativecommons.org/ns#"
   xmlns:rdf="http://www.w3.org/1999/02/22-rdf-syntax-ns#"
   xmlns:svg="http://www.w3.org/2000/svg"
   xmlns="http://www.w3.org/2000/svg"
   xmlns:sodipodi="http://sodipodi.sourceforge.net/DTD/sodipodi-0.dtd"
   xmlns:inkscape="http://www.inkscape.org/namespaces/inkscape"
   height="48"
   width="48"
   version="1.1"
   id="svg6"
   sodipodi:docname="com.github.geigi.cozy.svg"
   inkscape:version="1.0.2 (e86c870879, 2021-01-15)">
  <metadata
     id="metadata12">
    <rdf:RDF>
      <cc:Work
         rdf:about="">
        <dc:format>image/svg+xml</dc:format>
        <dc:type
           rdf:resource="http://purl.org/dc/dcmitype/StillImage" />
        <dc:title></dc:title>
      </cc:Work>
    </rdf:RDF>
  </metadata>
  <defs
     id="defs10" />
  <sodipodi:namedview
     pagecolor="#ffffff"
     bordercolor="#666666"
     borderopacity="1"
     objecttolerance="10"
     gridtolerance="10"
     guidetolerance="10"
     inkscape:pageopacity="0"
     inkscape:pageshadow="2"
     inkscape:window-width="1920"
     inkscape:window-height="1031"
     id="namedview8"
     showgrid="false"
     inkscape:zoom="6.6880518"
     inkscape:cx="-37.353133"
     inkscape:cy="23.633077"
     inkscape:window-x="0"
     inkscape:window-y="24"
     inkscape:window-maximized="1"
     inkscape:current-layer="svg6"
     inkscape:document-rotation="0" />
  <path
     d="m44.322082 27.405077a19.729762 19.729765 0 0 1 -19.729762 19.729765 19.729762 19.729765 0 0 1 -19.7297621-19.729765 19.729762 19.729765 0 0 1 19.7297621-19.7297632 19.729762 19.729765 0 0 1 19.729762 19.7297632z"
     fill="#8fbcbb"
     opacity=".99"
     transform="matrix(1.1503549 0 0 1.1503549 -4.486125 -7.525565)"
     id="path2"
     style="fill:#82bd85;fill-opacity:1" />
  <path
     id="path846"
     style="fill:#6bac6f;fill-opacity:0.99215686;stroke-width:1.15035"
     d="M 13.216797 3.9257812 A 22.696228 22.696232 0 0 0 1.1074219 24 A 22.696228 22.696232 0 0 0 13.216797 44.076172 L 13.216797 3.9257812 z " />
  <path
     id="path10"
     style="fill:#ffffff;stroke-width:0.800162;fill-opacity:1"
     d="M 31.365234 2.6015625 L 31.365234 23.097656 L 34.566406 19.896484 L 37.767578 23.097656 L 37.767578 6.109375 A 22.696228 22.696232 0 0 0 31.365234 2.6015625 z " />
  <circle
     id="circle16"
     r="12.802588"
     cy="24.187471"
     cx="28.527309"
     style="fill:#ffffff;fill-opacity:0.63810116;fill-rule:evenodd;stroke-width:0.800162" />
  <path
     id="path18"
     d="m 28.527306,16.185852 -4.871298,4.800976 h -3.13032 v 6.401287 h 3.13032 l 4.871298,4.800976 z m 1.600322,0 v 1.600322 c 2.700146,0.845936 4.800971,3.463585 4.800971,6.401298 0,2.937702 -2.100657,5.555362 -4.800971,6.401287 v 1.600332 c 3.666268,-0.891566 6.401295,-4.115206 6.401295,-8.001619 0,-3.886585 -2.735027,-7.110065 -6.401295,-8.00162 z m 0,4.800976 v 6.401287 c 1.42151,-0.618741 2.400486,-1.813733 2.400486,-3.200643 0,-1.386921 -0.965545,-2.581754 -2.400486,-3.200644 z"
     style="fill:#ffffff;stroke-width:0.800162"
     inkscape:connector-curvature="0" />
</svg>
