<?xml version="1.0" encoding="UTF-8" standalone="no"?>
<svg
   xmlns:dc="http://purl.org/dc/elements/1.1/"
   xmlns:cc="http://creativecommons.org/ns#"
   xmlns:rdf="http://www.w3.org/1999/02/22-rdf-syntax-ns#"
   xmlns:svg="http://www.w3.org/2000/svg"
   xmlns="http://www.w3.org/2000/svg"
   xmlns:sodipodi="http://sodipodi.sourceforge.net/DTD/sodipodi-0.dtd"
   xmlns:inkscape="http://www.inkscape.org/namespaces/inkscape"
   height="48"
   width="48"
   version="1.1"
   id="svg6"
   sodipodi:docname="com.github.parnold-x.nasc.svg"
   inkscape:version="1.0.2 (e86c870879, 2021-01-15)">
  <metadata
     id="metadata12">
    <rdf:RDF>
      <cc:Work
         rdf:about="">
        <dc:format>image/svg+xml</dc:format>
        <dc:type
           rdf:resource="http://purl.org/dc/dcmitype/StillImage" />
        <dc:title></dc:title>
      </cc:Work>
    </rdf:RDF>
  </metadata>
  <defs
     id="defs10" />
  <sodipodi:namedview
     pagecolor="#ffffff"
     bordercolor="#666666"
     borderopacity="1"
     objecttolerance="10"
     gridtolerance="10"
     guidetolerance="10"
     inkscape:pageopacity="0"
     inkscape:pageshadow="2"
     inkscape:window-width="1920"
     inkscape:window-height="1031"
     id="namedview8"
     showgrid="false"
     inkscape:zoom="6.6880518"
     inkscape:cx="-6.2728977"
     inkscape:cy="38.386726"
     inkscape:window-x="0"
     inkscape:window-y="24"
     inkscape:window-maximized="1"
     inkscape:current-layer="svg6"
     inkscape:document-rotation="0" />
  <path
     d="m44.322082 27.405077a19.729762 19.729765 0 0 1 -19.729762 19.729765 19.729762 19.729765 0 0 1 -19.7297621-19.729765 19.729762 19.729765 0 0 1 19.7297621-19.7297632 19.729762 19.729765 0 0 1 19.729762 19.7297632z"
     fill="#8fbcbb"
     opacity=".99"
     id="path860"
     style="fill:#a2bec6;fill-opacity:1"
     transform="matrix(1.1503549 0 0 1.1503549 -4.486125 -7.525565)" />
  <g
     id="g869">
    <path
       id="path2"
       style="fill:#ffffff;fill-opacity:0.18507347;stroke-width:1.15035"
       d="M 22.332031 1.3515625 A 22.696228 22.696232 0 0 0 22.066406 1.3710938 L 22.066406 1.828125 L 18.957031 1.828125 A 22.696228 22.696232 0 0 0 18.580078 1.9140625 A 22.696228 22.696232 0 0 0 18.314453 1.9785156 A 22.696228 22.696232 0 0 0 17.867188 2.09375 L 18.314453 2.09375 L 18.314453 5.578125 L 14.828125 5.578125 L 14.828125 3.1542969 A 22.696228 22.696232 0 0 0 14.564453 3.2695312 L 14.564453 5.578125 L 11.078125 5.578125 L 11.078125 5.2070312 A 22.696228 22.696232 0 0 0 10.8125 5.390625 L 10.8125 5.578125 L 10.548828 5.578125 A 22.696228 22.696232 0 0 0 10.1875 5.84375 L 10.8125 5.84375 L 10.8125 9.3300781 L 7.3261719 9.3300781 L 7.3261719 8.390625 A 22.696228 22.696232 0 0 0 7.0605469 8.6777344 L 7.0605469 9.3300781 L 6.4863281 9.3300781 A 22.696228 22.696232 0 0 0 6.2636719 9.5957031 L 7.0605469 9.5957031 L 7.0605469 13.083984 L 3.90625 13.083984 A 22.696228 22.696232 0 0 0 3.7636719 13.347656 L 7.0605469 13.347656 L 7.0605469 16.832031 L 3.5761719 16.832031 L 3.5761719 13.707031 A 22.696228 22.696232 0 0 0 3.3105469 14.246094 L 3.3105469 16.832031 L 2.2695312 16.832031 A 22.696228 22.696232 0 0 0 2.1835938 17.097656 L 3.3105469 17.097656 L 3.3105469 20.583984 L 1.3671875 20.583984 A 22.696228 22.696232 0 0 0 1.328125 20.849609 L 3.3105469 20.849609 L 3.3105469 24.333984 L 1.1113281 24.333984 A 22.696228 22.696232 0 0 0 1.1171875 24.599609 L 3.3105469 24.599609 L 3.3105469 28.085938 L 1.4785156 28.085938 A 22.696228 22.696232 0 0 0 1.5292969 28.351562 L 3.3105469 28.351562 L 3.3105469 31.837891 L 2.5039062 31.837891 A 22.696228 22.696232 0 0 0 2.6035156 32.101562 L 3.3105469 32.101562 L 3.3105469 33.751953 A 22.696228 22.696232 0 0 0 3.5761719 34.291016 L 3.5761719 32.101562 L 7.0605469 32.101562 L 7.0605469 35.587891 L 4.2910156 35.587891 A 22.696228 22.696232 0 0 0 4.4492188 35.853516 L 7.0605469 35.853516 L 7.0605469 39.322266 A 22.696228 22.696232 0 0 0 7.0761719 39.339844 A 22.696228 22.696232 0 0 0 7.3222656 39.605469 A 22.696228 22.696232 0 0 0 7.3261719 39.609375 L 7.3261719 39.605469 L 10.8125 39.605469 L 10.8125 42.609375 A 22.696228 22.696232 0 0 0 11.078125 42.792969 L 11.078125 39.605469 L 14.564453 39.605469 L 14.564453 43.089844 L 11.527344 43.089844 A 22.696228 22.696232 0 0 0 11.951172 43.355469 L 14.564453 43.355469 L 14.564453 44.728516 A 22.696228 22.696232 0 0 0 14.828125 44.845703 L 14.828125 43.355469 L 18.314453 43.355469 L 18.314453 46.021484 A 22.696228 22.696232 0 0 0 18.5625 46.082031 C 18.567511 46.066163 18.580078 46.054968 18.580078 46.037109 L 18.580078 43.355469 L 22.066406 43.355469 L 22.066406 46.037109 C 22.066406 46.120398 22.125749 46.1875 22.199219 46.1875 C 22.272688 46.1875 22.332031 46.120398 22.332031 46.037109 L 22.332031 43.355469 L 25.816406 43.355469 L 25.816406 46.037109 C 25.816406 46.120398 25.875749 46.1875 25.949219 46.1875 C 26.022688 46.1875 26.082031 46.120398 26.082031 46.037109 L 26.082031 43.355469 L 29.568359 43.355469 L 29.568359 45.951172 A 22.696228 22.696232 0 0 0 29.833984 45.880859 L 29.833984 43.355469 L 33.320312 43.355469 L 33.320312 44.603516 A 22.696228 22.696232 0 0 0 33.583984 44.480469 L 33.583984 43.355469 L 35.65625 43.355469 A 22.696228 22.696232 0 0 0 36.076172 43.089844 L 33.583984 43.089844 L 33.583984 39.605469 L 37.070312 39.605469 L 37.070312 42.412109 A 22.696228 22.696232 0 0 0 37.335938 42.21875 L 37.335938 39.605469 L 40.283203 39.605469 A 22.696228 22.696232 0 0 0 40.53125 39.339844 L 37.335938 39.339844 L 37.335938 35.853516 L 40.822266 35.853516 L 40.822266 39.017578 A 22.696228 22.696232 0 0 0 41.087891 38.710938 L 41.087891 35.853516 L 43.158203 35.853516 A 22.696228 22.696232 0 0 0 43.318359 35.587891 L 41.087891 35.587891 L 41.087891 32.101562 L 44.572266 32.101562 L 44.572266 33.150391 A 22.696228 22.696232 0 0 0 44.837891 32.525391 L 44.837891 32.101562 L 45.003906 32.101562 A 22.696228 22.696232 0 0 0 45.103516 31.837891 L 44.837891 31.837891 L 44.837891 28.351562 L 46.080078 28.351562 A 22.696228 22.696232 0 0 0 46.126953 28.085938 L 44.837891 28.085938 L 44.837891 24.599609 L 46.492188 24.599609 A 22.696228 22.696232 0 0 0 46.496094 24.333984 L 44.837891 24.333984 L 44.837891 20.849609 L 46.28125 20.849609 A 22.696228 22.696232 0 0 0 46.240234 20.583984 L 44.837891 20.583984 L 44.837891 17.097656 L 45.423828 17.097656 A 22.696228 22.696232 0 0 0 45.337891 16.832031 L 44.837891 16.832031 L 44.837891 15.478516 A 22.696228 22.696232 0 0 0 44.572266 14.849609 L 44.572266 16.832031 L 41.087891 16.832031 L 41.087891 13.347656 L 43.84375 13.347656 A 22.696228 22.696232 0 0 0 43.701172 13.083984 L 41.087891 13.083984 L 41.087891 9.5957031 L 41.34375 9.5957031 A 22.696228 22.696232 0 0 0 41.121094 9.3300781 L 41.087891 9.3300781 L 41.087891 9.2910156 A 22.696228 22.696232 0 0 0 40.822266 8.984375 L 40.822266 9.3300781 L 37.335938 9.3300781 L 37.335938 5.84375 L 37.421875 5.84375 A 22.696228 22.696232 0 0 0 37.335938 5.7792969 A 22.696228 22.696232 0 0 0 37.255859 5.7207031 A 22.696228 22.696232 0 0 0 37.070312 5.5859375 A 22.696228 22.696232 0 0 0 37.060547 5.578125 L 33.583984 5.578125 L 33.583984 3.5195312 A 22.696228 22.696232 0 0 0 33.320312 3.3964844 L 33.320312 5.578125 L 29.833984 5.578125 L 29.833984 2.1191406 A 22.696228 22.696232 0 0 0 29.738281 2.09375 A 22.696228 22.696232 0 0 0 29.568359 2.0488281 A 22.696228 22.696232 0 0 0 28.654297 1.828125 L 26.082031 1.828125 L 26.082031 1.4199219 A 22.696228 22.696232 0 0 0 25.816406 1.3945312 L 25.816406 1.828125 L 22.332031 1.828125 L 22.332031 1.3515625 z M 18.580078 2.09375 L 22.066406 2.09375 L 22.066406 5.578125 L 18.580078 5.578125 L 18.580078 2.09375 z M 22.332031 2.09375 L 25.816406 2.09375 L 25.816406 5.578125 L 22.332031 5.578125 L 22.332031 2.09375 z M 26.082031 2.09375 L 29.568359 2.09375 L 29.568359 5.578125 L 26.082031 5.578125 L 26.082031 2.09375 z M 11.078125 5.84375 L 14.564453 5.84375 L 14.564453 9.3300781 L 11.078125 9.3300781 L 11.078125 5.84375 z M 14.828125 5.84375 L 18.314453 5.84375 L 18.314453 9.3300781 L 14.828125 9.3300781 L 14.828125 5.84375 z M 18.580078 5.84375 L 22.066406 5.84375 L 22.066406 9.3300781 L 18.580078 9.3300781 L 18.580078 5.84375 z M 22.332031 5.84375 L 25.816406 5.84375 L 25.816406 9.3300781 L 22.332031 9.3300781 L 22.332031 5.84375 z M 26.082031 5.84375 L 29.568359 5.84375 L 29.568359 9.3300781 L 26.082031 9.3300781 L 26.082031 5.84375 z M 29.833984 5.84375 L 33.320312 5.84375 L 33.320312 9.3300781 L 29.833984 9.3300781 L 29.833984 5.84375 z M 33.583984 5.84375 L 37.070312 5.84375 L 37.070312 9.3300781 L 33.583984 9.3300781 L 33.583984 5.84375 z M 7.3261719 9.5957031 L 10.8125 9.5957031 L 10.8125 13.083984 L 7.3261719 13.083984 L 7.3261719 9.5957031 z M 11.078125 9.5957031 L 14.564453 9.5957031 L 14.564453 13.083984 L 11.078125 13.083984 L 11.078125 9.5957031 z M 14.828125 9.5957031 L 18.314453 9.5957031 L 18.314453 13.083984 L 14.828125 13.083984 L 14.828125 9.5957031 z M 18.580078 9.5957031 L 22.066406 9.5957031 L 22.066406 13.083984 L 18.580078 13.083984 L 18.580078 9.5957031 z M 22.332031 9.5957031 L 25.816406 9.5957031 L 25.816406 13.083984 L 22.332031 13.083984 L 22.332031 9.5957031 z M 26.082031 9.5957031 L 29.568359 9.5957031 L 29.568359 13.083984 L 26.082031 13.083984 L 26.082031 9.5957031 z M 29.833984 9.5957031 L 33.320312 9.5957031 L 33.320312 13.083984 L 29.833984 13.083984 L 29.833984 9.5957031 z M 33.583984 9.5957031 L 37.070312 9.5957031 L 37.070312 13.083984 L 33.583984 13.083984 L 33.583984 9.5957031 z M 37.335938 9.5957031 L 40.822266 9.5957031 L 40.822266 13.083984 L 37.335938 13.083984 L 37.335938 9.5957031 z M 7.3261719 13.347656 L 10.8125 13.347656 L 10.8125 16.832031 L 7.3261719 16.832031 L 7.3261719 13.347656 z M 11.078125 13.347656 L 14.564453 13.347656 L 14.564453 16.832031 L 11.078125 16.832031 L 11.078125 13.347656 z M 14.828125 13.347656 L 18.314453 13.347656 L 18.314453 16.832031 L 14.828125 16.832031 L 14.828125 13.347656 z M 18.580078 13.347656 L 22.066406 13.347656 L 22.066406 16.832031 L 18.580078 16.832031 L 18.580078 13.347656 z M 22.332031 13.347656 L 25.816406 13.347656 L 25.816406 16.832031 L 22.332031 16.832031 L 22.332031 13.347656 z M 26.082031 13.347656 L 29.568359 13.347656 L 29.568359 16.832031 L 26.082031 16.832031 L 26.082031 13.347656 z M 29.833984 13.347656 L 33.320312 13.347656 L 33.320312 16.832031 L 29.833984 16.832031 L 29.833984 13.347656 z M 33.583984 13.347656 L 37.070312 13.347656 L 37.070312 16.832031 L 33.583984 16.832031 L 33.583984 13.347656 z M 37.335938 13.347656 L 40.822266 13.347656 L 40.822266 16.832031 L 37.335938 16.832031 L 37.335938 13.347656 z M 3.5761719 17.097656 L 7.0605469 17.097656 L 7.0605469 20.583984 L 3.5761719 20.583984 L 3.5761719 17.097656 z M 7.3261719 17.097656 L 10.8125 17.097656 L 10.8125 20.583984 L 7.3261719 20.583984 L 7.3261719 17.097656 z M 11.078125 17.097656 L 14.564453 17.097656 L 14.564453 20.583984 L 11.078125 20.583984 L 11.078125 17.097656 z M 14.828125 17.097656 L 18.314453 17.097656 L 18.314453 20.583984 L 14.828125 20.583984 L 14.828125 17.097656 z M 18.580078 17.097656 L 22.066406 17.097656 L 22.066406 20.583984 L 18.580078 20.583984 L 18.580078 17.097656 z M 22.332031 17.097656 L 25.816406 17.097656 L 25.816406 20.583984 L 22.332031 20.583984 L 22.332031 17.097656 z M 26.082031 17.097656 L 29.568359 17.097656 L 29.568359 20.583984 L 26.082031 20.583984 L 26.082031 17.097656 z M 29.833984 17.097656 L 33.320312 17.097656 L 33.320312 20.583984 L 29.833984 20.583984 L 29.833984 17.097656 z M 33.583984 17.097656 L 37.070312 17.097656 L 37.070312 20.583984 L 33.583984 20.583984 L 33.583984 17.097656 z M 37.335938 17.097656 L 40.822266 17.097656 L 40.822266 20.583984 L 37.335938 20.583984 L 37.335938 17.097656 z M 41.087891 17.097656 L 44.572266 17.097656 L 44.572266 20.583984 L 41.087891 20.583984 L 41.087891 17.097656 z M 3.5761719 20.849609 L 7.0605469 20.849609 L 7.0605469 24.333984 L 3.5761719 24.333984 L 3.5761719 20.849609 z M 7.3261719 20.849609 L 10.8125 20.849609 L 10.8125 24.333984 L 7.3261719 24.333984 L 7.3261719 20.849609 z M 11.078125 20.849609 L 14.564453 20.849609 L 14.564453 24.333984 L 11.078125 24.333984 L 11.078125 20.849609 z M 14.828125 20.849609 L 18.314453 20.849609 L 18.314453 24.333984 L 14.828125 24.333984 L 14.828125 20.849609 z M 18.580078 20.849609 L 22.066406 20.849609 L 22.066406 24.333984 L 18.580078 24.333984 L 18.580078 20.849609 z M 22.332031 20.849609 L 25.816406 20.849609 L 25.816406 24.333984 L 22.332031 24.333984 L 22.332031 20.849609 z M 26.082031 20.849609 L 29.568359 20.849609 L 29.568359 24.333984 L 26.082031 24.333984 L 26.082031 20.849609 z M 29.833984 20.849609 L 33.320312 20.849609 L 33.320312 24.333984 L 29.833984 24.333984 L 29.833984 20.849609 z M 33.583984 20.849609 L 37.070312 20.849609 L 37.070312 24.333984 L 33.583984 24.333984 L 33.583984 20.849609 z M 37.335938 20.849609 L 40.822266 20.849609 L 40.822266 24.333984 L 37.335938 24.333984 L 37.335938 20.849609 z M 41.087891 20.849609 L 44.572266 20.849609 L 44.572266 24.333984 L 41.087891 24.333984 L 41.087891 20.849609 z M 3.5761719 24.599609 L 7.0605469 24.599609 L 7.0605469 28.085938 L 3.5761719 28.085938 L 3.5761719 24.599609 z M 7.3261719 24.599609 L 10.8125 24.599609 L 10.8125 28.085938 L 7.3261719 28.085938 L 7.3261719 24.599609 z M 11.078125 24.599609 L 14.564453 24.599609 L 14.564453 28.085938 L 11.078125 28.085938 L 11.078125 24.599609 z M 14.828125 24.599609 L 18.314453 24.599609 L 18.314453 28.085938 L 14.828125 28.085938 L 14.828125 24.599609 z M 18.580078 24.599609 L 22.066406 24.599609 L 22.066406 28.085938 L 18.580078 28.085938 L 18.580078 24.599609 z M 22.332031 24.599609 L 25.816406 24.599609 L 25.816406 28.085938 L 22.332031 28.085938 L 22.332031 24.599609 z M 26.082031 24.599609 L 29.568359 24.599609 L 29.568359 28.085938 L 26.082031 28.085938 L 26.082031 24.599609 z M 29.833984 24.599609 L 33.320312 24.599609 L 33.320312 28.085938 L 29.833984 28.085938 L 29.833984 24.599609 z M 33.583984 24.599609 L 37.070312 24.599609 L 37.070312 28.085938 L 33.583984 28.085938 L 33.583984 24.599609 z M 37.335938 24.599609 L 40.822266 24.599609 L 40.822266 28.085938 L 37.335938 28.085938 L 37.335938 24.599609 z M 41.087891 24.599609 L 44.572266 24.599609 L 44.572266 28.085938 L 41.087891 28.085938 L 41.087891 24.599609 z M 3.5761719 28.351562 L 7.0605469 28.351562 L 7.0605469 31.837891 L 3.5761719 31.837891 L 3.5761719 28.351562 z M 7.3261719 28.351562 L 10.8125 28.351562 L 10.8125 31.837891 L 7.3261719 31.837891 L 7.3261719 28.351562 z M 11.078125 28.351562 L 14.564453 28.351562 L 14.564453 31.837891 L 11.078125 31.837891 L 11.078125 28.351562 z M 14.828125 28.351562 L 18.314453 28.351562 L 18.314453 31.837891 L 14.828125 31.837891 L 14.828125 28.351562 z M 18.580078 28.351562 L 22.066406 28.351562 L 22.066406 31.837891 L 18.580078 31.837891 L 18.580078 28.351562 z M 22.332031 28.351562 L 25.816406 28.351562 L 25.816406 31.837891 L 22.332031 31.837891 L 22.332031 28.351562 z M 26.082031 28.351562 L 29.568359 28.351562 L 29.568359 31.837891 L 26.082031 31.837891 L 26.082031 28.351562 z M 29.833984 28.351562 L 33.320312 28.351562 L 33.320312 31.837891 L 29.833984 31.837891 L 29.833984 28.351562 z M 33.583984 28.351562 L 37.070312 28.351562 L 37.070312 31.837891 L 33.583984 31.837891 L 33.583984 28.351562 z M 37.335938 28.351562 L 40.822266 28.351562 L 40.822266 31.837891 L 37.335938 31.837891 L 37.335938 28.351562 z M 41.087891 28.351562 L 44.572266 28.351562 L 44.572266 31.837891 L 41.087891 31.837891 L 41.087891 28.351562 z M 7.3261719 32.101562 L 10.8125 32.101562 L 10.8125 35.587891 L 7.3261719 35.587891 L 7.3261719 32.101562 z M 11.078125 32.101562 L 14.564453 32.101562 L 14.564453 35.587891 L 11.078125 35.587891 L 11.078125 32.101562 z M 14.828125 32.101562 L 18.314453 32.101562 L 18.314453 35.587891 L 14.828125 35.587891 L 14.828125 32.101562 z M 18.580078 32.101562 L 22.066406 32.101562 L 22.066406 35.587891 L 18.580078 35.587891 L 18.580078 32.101562 z M 22.332031 32.101562 L 25.816406 32.101562 L 25.816406 35.587891 L 22.332031 35.587891 L 22.332031 32.101562 z M 26.082031 32.101562 L 29.568359 32.101562 L 29.568359 35.587891 L 26.082031 35.587891 L 26.082031 32.101562 z M 29.833984 32.101562 L 33.320312 32.101562 L 33.320312 35.587891 L 29.833984 35.587891 L 29.833984 32.101562 z M 33.583984 32.101562 L 37.070312 32.101562 L 37.070312 35.587891 L 33.583984 35.587891 L 33.583984 32.101562 z M 37.335938 32.101562 L 40.822266 32.101562 L 40.822266 35.587891 L 37.335938 35.587891 L 37.335938 32.101562 z M 7.3261719 35.853516 L 10.8125 35.853516 L 10.8125 39.339844 L 7.3261719 39.339844 L 7.3261719 35.853516 z M 11.078125 35.853516 L 14.564453 35.853516 L 14.564453 39.339844 L 11.078125 39.339844 L 11.078125 35.853516 z M 14.828125 35.853516 L 18.314453 35.853516 L 18.314453 39.339844 L 14.828125 39.339844 L 14.828125 35.853516 z M 18.580078 35.853516 L 22.066406 35.853516 L 22.066406 39.339844 L 18.580078 39.339844 L 18.580078 35.853516 z M 22.332031 35.853516 L 25.816406 35.853516 L 25.816406 39.339844 L 22.332031 39.339844 L 22.332031 35.853516 z M 26.082031 35.853516 L 29.568359 35.853516 L 29.568359 39.339844 L 26.082031 39.339844 L 26.082031 35.853516 z M 29.833984 35.853516 L 33.320312 35.853516 L 33.320312 39.339844 L 29.833984 39.339844 L 29.833984 35.853516 z M 33.583984 35.853516 L 37.070312 35.853516 L 37.070312 39.339844 L 33.583984 39.339844 L 33.583984 35.853516 z M 14.828125 39.605469 L 18.314453 39.605469 L 18.314453 43.089844 L 14.828125 43.089844 L 14.828125 39.605469 z M 18.580078 39.605469 L 22.066406 39.605469 L 22.066406 43.089844 L 18.580078 43.089844 L 18.580078 39.605469 z M 22.332031 39.605469 L 25.816406 39.605469 L 25.816406 43.089844 L 22.332031 43.089844 L 22.332031 39.605469 z M 26.082031 39.605469 L 29.568359 39.605469 L 29.568359 43.089844 L 26.082031 43.089844 L 26.082031 39.605469 z M 29.833984 39.605469 L 33.320312 39.605469 L 33.320312 43.089844 L 29.833984 43.089844 L 29.833984 39.605469 z " />
  </g>
  <path
     id="path873"
     style="fill:#84a9b4;fill-opacity:1;stroke-width:1.15035"
     d="M 23.804688 1.3046875 A 22.696228 22.696232 0 0 0 1.1074219 24 A 22.696228 22.696232 0 0 0 23.804688 46.695312 A 22.696228 22.696232 0 0 0 46.5 24 A 22.696228 22.696232 0 0 0 23.804688 1.3046875 z M 23.804688 3.5957031 A 20.403808 20.403811 0 0 1 44.207031 24 A 20.403808 20.403811 0 0 1 23.804688 44.404297 A 20.403808 20.403811 0 0 1 3.4003906 24 A 20.403808 20.403811 0 0 1 23.804688 3.5957031 z " />
  <path
     d="M 10.490976,37.423573 C 9.8568126,37.423573 9.2720277,37.049 8.9616473,36.444464 8.6512669,35.839222 8.6639643,35.098542 8.9940962,34.505997 9.3736068,33.825276 11.27257,30.420967 14.689577,24.293776 11.27257,18.166584 9.3736068,14.762276 8.9940962,14.081555 8.6639643,13.489716 8.6512669,12.74833 8.9616473,12.143794 9.2720277,11.538552 9.8568126,11.16398 10.490976,11.16398 c 1.610451,0 14.49547,0 16.105922,0 0.968528,0 1.753649,0.859189 1.753649,1.918714 0,1.059526 -0.785121,1.91801 -1.753649,1.91801 -0.865539,0 -5.192524,0 -12.981661,0 2.775083,4.976668 4.317109,7.74117 4.625373,8.294211 0.342125,0.613001 0.342125,1.38472 0,1.998427 -0.308264,0.553042 -1.85029,3.317544 -4.625373,8.293506 7.789137,0 12.116122,0 12.981661,0 0.968528,0 1.753649,0.859189 1.753649,1.918715 0,1.059526 -0.785121,1.91801 -1.753649,1.91801 -3.220902,0 -14.495471,0 -16.105922,0 z"
     id="use191"
     style="fill:#ffffff;fill-opacity:1;stroke-width:0.070541" />
  <path
     d="m 33.519792,8.949697 h 1.285962 v 3.866352 h -1.285962 z"
     id="use199"
     style="fill:#ffffff;fill-opacity:1;stroke-width:0.070541" />
  <path
     d="m 33.519792,14.708665 h 1.285962 v 3.866352 h -1.285962 z"
     id="use203"
     style="fill:#ffffff;fill-opacity:1;stroke-width:0.070541" />
  <path
     d="m 33.583984,20.467632 h 1.285257 v 3.866352 h -1.285257 z"
     id="use207"
     style="fill:#ffffff;fill-opacity:1;stroke-width:0.070541" />
  <path
     d="m 33.42315,26.146889 h 1.285963 v 3.865646 H 33.42315 Z"
     id="use211"
     style="fill:#ffffff;fill-opacity:1;stroke-width:0.070541" />
  <path
     d="m 33.503567,31.825439 h 1.285257 v 3.866352 h -1.285257 z"
     id="use215"
     style="fill:#ffffff;fill-opacity:1;stroke-width:0.070541" />
  <path
     d="m 33.583984,37.302948 h 1.285257 V 41.1693 h -1.285257 z"
     id="use219"
     style="fill:#ffffff;fill-opacity:1;stroke-width:0.070541" />
</svg>
