<?xml version="1.0" encoding="UTF-8" standalone="no"?>
<svg
   xmlns:dc="http://purl.org/dc/elements/1.1/"
   xmlns:cc="http://creativecommons.org/ns#"
   xmlns:rdf="http://www.w3.org/1999/02/22-rdf-syntax-ns#"
   xmlns:svg="http://www.w3.org/2000/svg"
   xmlns="http://www.w3.org/2000/svg"
   xmlns:sodipodi="http://sodipodi.sourceforge.net/DTD/sodipodi-0.dtd"
   xmlns:inkscape="http://www.inkscape.org/namespaces/inkscape"
   height="48"
   width="48"
   version="1.1"
   id="svg6"
   sodipodi:docname="com.github.donadigo.appeditor.svg"
   inkscape:version="1.0.2 (e86c870879, 2021-01-15)">
  <metadata
     id="metadata12">
    <rdf:RDF>
      <cc:Work
         rdf:about="">
        <dc:format>image/svg+xml</dc:format>
        <dc:type
           rdf:resource="http://purl.org/dc/dcmitype/StillImage" />
        <dc:title></dc:title>
      </cc:Work>
    </rdf:RDF>
  </metadata>
  <defs
     id="defs10" />
  <sodipodi:namedview
     pagecolor="#ffffff"
     bordercolor="#666666"
     borderopacity="1"
     objecttolerance="10"
     gridtolerance="10"
     guidetolerance="10"
     inkscape:pageopacity="0"
     inkscape:pageshadow="2"
     inkscape:window-width="1920"
     inkscape:window-height="1031"
     id="namedview8"
     showgrid="false"
     inkscape:zoom="9.458333"
     inkscape:cx="19.988208"
     inkscape:cy="27.738873"
     inkscape:window-x="0"
     inkscape:window-y="24"
     inkscape:window-maximized="1"
     inkscape:current-layer="svg6"
     inkscape:document-rotation="0" />
  <circle
     cx="23.940615"
     cy="31.534513"
     fill="#5e81ac"
     opacity=".99"
     id="circle2"
     style="fill:#85a8c7;fill-opacity:0.99607831"
     transform="matrix(1.75830584759 0 0 1.75830608345 -18.15909274367 -30.97874795549)"
     r="13.232998" />
  <path
     id="circle937"
     style="opacity:0.99;fill:#648fb5;fill-opacity:0.98823529"
     transform="matrix(1.7583058,0,0,1.7583061,-18.159093,-30.978748)"
     d="m 37.173613,31.534513 c 0,1.827096 -0.370288,3.567706 -1.039915,5.15088 -0.669626,1.583174 -1.63859,3.008912 -2.83594,4.206263 -2.394702,2.394701 -5.702952,3.875855 -9.357143,3.875855 -1.827096,0 -3.567706,-0.370288 -5.15088,-1.039915 -1.583174,-0.669626 -3.008913,-1.638589 -4.206263,-2.83594 -1.19735,-1.197351 -2.166314,-2.623089 -2.83594,-4.206263 z"
     sodipodi:nodetypes="cssssscc" />
  <rect
     transform="rotate(-0.62356561)"
     ry="0.88378346"
     rx="0"
     y="18.844191"
     x="23.042418"
     height="1.7675669"
     width="15.77768"
     id="rect6579-7"
     style="color:#000000;clip-rule:nonzero;display:inline;overflow:visible;visibility:visible;isolation:auto;mix-blend-mode:normal;color-interpolation:sRGB;color-interpolation-filters:linearRGB;solid-color:#000000;solid-opacity:1;fill:#ffffff;fill-opacity:1;fill-rule:nonzero;stroke:none;stroke-width:0.272056;stroke-linecap:butt;stroke-linejoin:round;stroke-miterlimit:4;stroke-dasharray:none;stroke-dashoffset:0;stroke-opacity:1;marker:none;color-rendering:auto;image-rendering:auto;shape-rendering:auto;text-rendering:auto;enable-background:accumulate" />
  <rect
     transform="rotate(-0.62356561)"
     ry="0.88626015"
     rx="0"
     y="23.444532"
     x="23.053633"
     height="1.7725203"
     width="20.119518"
     id="rect6579-0-0"
     style="color:#000000;clip-rule:nonzero;display:inline;overflow:visible;visibility:visible;isolation:auto;mix-blend-mode:normal;color-interpolation:sRGB;color-interpolation-filters:linearRGB;solid-color:#000000;solid-opacity:1;fill:#ffffff;fill-opacity:1;fill-rule:nonzero;stroke:none;stroke-width:0.272056;stroke-linecap:butt;stroke-linejoin:round;stroke-miterlimit:4;stroke-dasharray:none;stroke-dashoffset:0;stroke-opacity:1;marker:none;color-rendering:auto;image-rendering:auto;shape-rendering:auto;text-rendering:auto;enable-background:accumulate" />
  <path
     d="m 12.347773,13.493804 c -0.299917,-0.04 -0.573075,0.1704 -0.612459,0.4703 l -0.239936,1.827 c -0.614039,0.074 -1.195761,0.2572 -1.7512332,0.4929 l -1.1462836,-1.4929 c -0.1842239,-0.2399 -0.5044536,-0.2819 -0.7443745,-0.098 l -1.7608077,1.352 c -0.2399247,0.1842 -0.2819721,0.5045 -0.097755,0.7444 l 1.146283,1.4928 c -0.3711325,0.4758 -0.6978671,0.9907 -0.9282575,1.5646 l -1.8271001,-0.2399 c -0.2999154,-0.04 -0.5730727,0.1704 -0.6124575,0.4703 l -0.2843736,2.1655 c -0.039386,0.2998 0.1703609,0.573 0.4702762,0.6124 l 1.8271001,0.2399 c 0.074369,0.6141 0.2571054,1.1958 0.4928115,1.7513 l -1.4928593,1.1462 c -0.2399193,0.1843 -0.2819722,0.5045 -0.09775,0.7444 l 1.3520241,1.7609 c 0.1842246,0.2398 0.5044536,0.282 0.7443744,0.098 l 1.4928657,-1.1463 c 0.4757773,0.3712 0.9905979,0.6979 1.5646144,0.9283 l -0.2399423,1.8271 c -0.039386,0.2998 0.17036,0.573 0.4702759,0.6124 l 2.165454,0.2843 c 0.299913,0.04 0.573066,-0.1702 0.61245,-0.4702 l 0.239942,-1.8271 c 0.61404,-0.074 1.195754,-0.2571 1.751234,-0.4928 l 1.146278,1.4929 c 0.184225,0.2399 0.504454,0.282 0.744374,0.098 l 1.760815,-1.352 c 0.23992,-0.1843 0.281973,-0.5044 0.09775,-0.7443 l -1.146286,-1.4929 c 0.371141,-0.4759 0.69787,-0.9906 0.928266,-1.5647 l 1.8271,0.2399 c 0.299915,0.04 0.573067,-0.1702 0.612451,-0.4702 l 0.284374,-2.1655 c 0.03939,-0.2998 -0.170355,-0.573 -0.47027,-0.6124 l -1.8271,-0.2399 c -0.07437,-0.614 -0.257106,-1.1958 -0.49282,-1.7513 l 1.492862,-1.1463 c 0.239926,-0.1842 0.281974,-0.5044 0.09775,-0.7444 l -1.352031,-1.7608 c -0.184223,-0.2399 -0.504452,-0.2819 -0.744374,-0.098 l -1.49286,1.1463 c -0.475784,-0.3711 -0.990602,-0.6979 -1.564614,-0.9282 l 0.239936,-1.8271 c 0.03938,-0.3 -0.170356,-0.5732 -0.47027,-0.6126 z m 0.371801,5.5558 c 1.793919,0.2356 3.057198,1.8809 2.821619,3.6747 -0.235579,1.794 -1.880816,3.0573 -3.674734,2.8217 -1.79392,-0.2356 -3.0572029,-1.8809 -2.8216234,-3.6747 0.2355786,-1.7939 1.8808194,-3.0573 3.6747384,-2.8217 z"
     id="path3575-5-3"
     style="color:#000000;display:inline;overflow:visible;visibility:visible;fill:#ffffff;fill-opacity:1;fill-rule:nonzero;stroke:none;stroke-width:0.825101;marker:none;enable-background:accumulate"
     inkscape:connector-curvature="0" />
</svg>
