<?xml version="1.0" encoding="UTF-8" standalone="no"?>
<svg
   xmlns:dc="http://purl.org/dc/elements/1.1/"
   xmlns:cc="http://creativecommons.org/ns#"
   xmlns:rdf="http://www.w3.org/1999/02/22-rdf-syntax-ns#"
   xmlns:svg="http://www.w3.org/2000/svg"
   xmlns="http://www.w3.org/2000/svg"
   xmlns:sodipodi="http://sodipodi.sourceforge.net/DTD/sodipodi-0.dtd"
   xmlns:inkscape="http://www.inkscape.org/namespaces/inkscape"
   height="48"
   width="48"
   version="1.1"
   id="svg6"
   sodipodi:docname="com.github.hugolabe.Wike.svg"
   inkscape:version="1.0.2 (e86c870879, 2021-01-15)">
  <metadata
     id="metadata12">
    <rdf:RDF>
      <cc:Work
         rdf:about="">
        <dc:format>image/svg+xml</dc:format>
        <dc:type
           rdf:resource="http://purl.org/dc/dcmitype/StillImage" />
        <dc:title></dc:title>
      </cc:Work>
    </rdf:RDF>
  </metadata>
  <defs
     id="defs10" />
  <sodipodi:namedview
     pagecolor="#ffffff"
     bordercolor="#666666"
     borderopacity="1"
     objecttolerance="10"
     gridtolerance="10"
     guidetolerance="10"
     inkscape:pageopacity="0"
     inkscape:pageshadow="2"
     inkscape:window-width="1920"
     inkscape:window-height="1024"
     id="namedview8"
     showgrid="false"
     inkscape:zoom="3.3440258"
     inkscape:cx="-62.803418"
     inkscape:cy="28.9633"
     inkscape:window-x="0"
     inkscape:window-y="24"
     inkscape:window-maximized="1"
     inkscape:current-layer="svg6"
     inkscape:document-rotation="0" />
  <circle
     cx="23.940615"
     cy="31.534513"
     fill="#5e81ac"
     opacity=".99"
     id="circle2"
     style="fill:#a9b7c0;fill-opacity:1"
     transform="matrix(1.75830584759 0 0 1.75830608345 -18.15909274367 -30.97874795549)"
     r="13.232998" />
  <ellipse
     cx="23.935829"
     cy="24.468578"
     fill="#5e81ac"
     opacity="0.99"
     id="circle856"
     style="fill:#ffffff;fill-opacity:1;stroke-width:1.54048"
     rx="20.385096"
     ry="20.385099" />
  <path
     id="circle842"
     style="fill:#3c3943;fill-opacity:1;stroke-width:1.75831"
     d="M 23.892578 1.2011719 A 23.267658 23.267661 0 0 0 4.7539062 11.300781 L 43.117188 11.300781 A 23.267658 23.267661 0 0 0 23.935547 1.2011719 A 23.267658 23.267661 0 0 0 23.892578 1.2011719 z " />
  <circle
     style="fill:#ffffff;fill-opacity:1;stroke:none;stroke-width:1.2;stroke-linecap:square;stroke-opacity:0.992157"
     id="path849"
     cx="15.836551"
     cy="7.8996682"
     r="2.7945614" />
  <path
     d="m 29.476209,19.325179 c -1.181686,-5.31e-4 -2.581263,0.0042 -3.441789,0.0097 l -0.08488,0.05597 v 0.595863 c 0,0.0726 0.03147,0.123437 0.09434,0.167574 0.06401,0.04655 0.128024,0.07453 0.19803,0.07453 l 0.273461,0.02795 c 0.703675,0.02872 1.035,0.211473 1.131505,0.325881 0.167772,0.202585 0.246461,0.427519 -0.160301,1.303458 l -2.432892,4.785464 -2.197134,-4.441015 c -0.72179,-1.419361 -0.897711,-1.862497 0.188589,-1.945936 l 0.433762,-0.05598 c 0.208815,0 0.311181,-0.07231 0.311181,-0.214134 v -0.623792 l -0.160306,-0.05596 c 0,0 -4.09305,0.0069 -5.931303,0.0097 l -0.0849,0.05597 v 0.623792 c 0,0.139438 0.148915,0.177191 0.433769,0.214138 1.017501,0.132301 0.992449,0.236634 1.999093,2.206484 0.150869,0.295542 0.594068,1.182416 0.594068,1.182416 l 2.291376,4.450274 c 0,0 0.495232,1.080908 0.669506,1.461723 l -3.328638,6.554407 -0.188594,-0.04655 c 0,0 -5.170117,-10.765402 -6.666734,-14.365639 -0.155711,-0.373012 -0.226322,-0.64888 -0.226322,-0.819307 0,-0.365853 0.330869,-0.559154 0.999543,-0.586543 l 0.782663,-0.0373 c 0.206395,0 0.311181,-0.07883 0.311181,-0.242078 v -0.586538 l -0.07544,-0.06511 c 0,0 -6.1888837,-0.0069 -7.4683464,0 l -0.066086,0.06419 v 0.614482 c 0,0.112075 0.135866,0.18315 0.4243316,0.214139 0.7857577,0.04172 1.3073064,0.166244 1.5558418,0.372403 0.2474383,0.208554 0.5104872,0.733722 0.8581062,1.5548 1.879297,4.457036 5.872705,12.415381 7.817153,16.944527 0.560046,1.236975 1.257641,1.429803 2.112243,-0.03725 0.9213,-1.687176 2.532744,-4.94496 3.83787,-7.606539 0.01882,-0.258193 0.01882,0.239195 0.254605,0.08381 1.21868,2.650154 2.689637,5.840407 3.50787,7.504096 0.633674,1.290688 1.351365,1.414852 2.083987,0.0373 1.914308,-4.201945 7.515413,-16.842698 7.515413,-16.842698 0.242603,-0.620883 0.575667,-1.09627 1.008969,-1.443103 0.432106,-0.344402 1.098675,-0.537911 1.999099,-0.577243 0.18347,0 0.273463,-0.08119 0.273463,-0.242047 v -0.595879 l -0.06608,-0.06522 h -6.874232 l -0.08489,0.06525 v 0.595867 c 0,0.07023 0.03147,0.123432 0.09434,0.16757 0.064,0.04654 0.128023,0.07453 0.198029,0.07453 l 0.575207,0.02795 c 0.704888,0.02868 0.896498,0.166738 1.169328,0.400343 0.27158,0.239517 0.305535,0.645238 0.09434,1.219613 l -6.082174,14.254464 -0.235738,-0.06524 -3.866126,-7.792723 c 0.0042,-0.0069 0.09434,-0.186225 0.09434,-0.186225 l 3.158969,-5.837477 c 0.368139,-0.616113 0.725408,-1.168296 0.905245,-1.424525 0.329514,-0.468338 0.514025,-0.554131 1.414434,-0.595848 0.183461,0 0.273462,-0.07883 0.273462,-0.242068 v -0.586534 l -0.06609,-0.06526 c 0,0 -0.968314,-0.0083 -2.149964,-0.0097 z"
     fill="#241f31"
     stroke-width="1.03903"
     inkscape:connector-curvature="0"
     id="path3686"
     style="clip-rule:evenodd;fill:#3c3943;fill-opacity:1;fill-rule:evenodd;stroke-linecap:round;stroke-linejoin:round;stroke-miterlimit:1.5;enable-background:new" />
  <circle
     style="fill:#ffffff;fill-opacity:1;stroke:none;stroke-width:1.2;stroke-linecap:square;stroke-opacity:0.992157"
     id="circle858"
     cx="22.772608"
     cy="7.8996682"
     r="2.7945614" />
</svg>
