<?xml version="1.0" encoding="UTF-8" standalone="no"?>
<svg
   xmlns:dc="http://purl.org/dc/elements/1.1/"
   xmlns:cc="http://creativecommons.org/ns#"
   xmlns:rdf="http://www.w3.org/1999/02/22-rdf-syntax-ns#"
   xmlns:svg="http://www.w3.org/2000/svg"
   xmlns="http://www.w3.org/2000/svg"
   xmlns:sodipodi="http://sodipodi.sourceforge.net/DTD/sodipodi-0.dtd"
   xmlns:inkscape="http://www.inkscape.org/namespaces/inkscape"
   height="48"
   width="48"
   version="1.1"
   id="svg6"
   sodipodi:docname="com.github.aggalex.contacts.svg"
   inkscape:version="1.0.2 (e86c870879, 2021-01-15)">
  <metadata
     id="metadata12">
    <rdf:RDF>
      <cc:Work
         rdf:about="">
        <dc:format>image/svg+xml</dc:format>
        <dc:type
           rdf:resource="http://purl.org/dc/dcmitype/StillImage" />
        <dc:title></dc:title>
      </cc:Work>
    </rdf:RDF>
  </metadata>
  <defs
     id="defs10" />
  <sodipodi:namedview
     pagecolor="#ffffff"
     bordercolor="#666666"
     borderopacity="1"
     objecttolerance="10"
     gridtolerance="10"
     guidetolerance="10"
     inkscape:pageopacity="0"
     inkscape:pageshadow="2"
     inkscape:window-width="1920"
     inkscape:window-height="1031"
     id="namedview8"
     showgrid="false"
     inkscape:zoom="6.6880516"
     inkscape:cx="-29.413019"
     inkscape:cy="12.659008"
     inkscape:window-x="0"
     inkscape:window-y="24"
     inkscape:window-maximized="1"
     inkscape:current-layer="svg6"
     inkscape:document-rotation="0" />
  <circle
     cx="23.940615"
     cy="31.534513"
     fill="#5e81ac"
     opacity=".99"
     r="13.232998"
     transform="matrix(1.75830584759 0 0 1.75830608345 -18.15909274367 -30.97874795549)"
     id="circle2"
     style="fill:#a6aeba;fill-opacity:1" />
  <g
     id="g983"
     transform="translate(0.009613)">
    <rect
       fill="#ff6458"
       height="28"
       ry="1.4527"
       width="34"
       x="6.9262171"
       y="10.103146"
       id="rect4"
       style="fill:#e1a6cf;fill-opacity:1" />
    <path
       id="rect6"
       d="M 8.3886719 14.103516 C 7.5838761 14.103516 6.9355469 14.751845 6.9355469 15.556641 L 6.9355469 40.355469 A 23.267658 23.267661 0 0 0 8.7578125 42.103516 L 39.113281 42.103516 A 23.267658 23.267661 0 0 0 40.935547 40.355469 L 40.935547 15.556641 C 40.935547 14.751845 40.287218 14.103516 39.482422 14.103516 L 8.3886719 14.103516 z "
       transform="translate(-0.009613)"
       style="fill:#8ab0c9;fill-opacity:1" />
    <path
       id="rect8"
       d="M 8.3886719 18.103516 C 7.5838761 18.103516 6.9355469 18.751845 6.9355469 19.556641 L 6.9355469 40.355469 A 23.267658 23.267661 0 0 0 15.373047 46.103516 L 32.496094 46.103516 A 23.267658 23.267661 0 0 0 40.935547 40.355469 L 40.935547 19.556641 C 40.935547 18.751845 40.287218 18.103516 39.482422 18.103516 L 8.3886719 18.103516 z "
       transform="translate(-0.009613)"
       style="fill:#8ac9a8;fill-opacity:1" />
  </g>
  <path
     d="m 23.869889,20.447441 c -2.385669,0.06339 -4.316293,1.960535 -4.421387,4.344731 -0.08036,1.829787 0.945065,3.529127 2.601354,4.310974 h 3.876361 c 1.521997,-0.715778 2.524506,-2.213319 2.606276,-3.89324 l 0.0014,-0.03306 c 0.10157,-2.505669 -1.844863,-4.620439 -4.350347,-4.726596 -0.104487,-0.0046 -0.2091,-0.0055 -0.313653,-0.0028 z m 2.056328,8.655705 1.87137,2.000771 -2.109072,0.566123 1.183584,1.285556 -1.670942,3.203343 h 6.573357 v -4.655572 c 0,-1.32992 -1.0703,-2.400221 -2.400222,-2.400221 z m -3.876361,0 h -3.441748 c -1.32992,0 -2.400924,1.070301 -2.400924,2.400221 v 4.655572 h 6.567731 l -1.670942,-3.203343 1.183584,-1.285556 -2.109073,-0.566123 z m 1.986705,0.22012 -1.035196,1.035197 0.517598,0.517599 0.146981,0.146981 -0.478216,3.341181 0.845316,1.369244 0.800309,-1.369244 -0.420549,-3.346808 0.141356,-0.141354 0.517597,-0.517599 z"
     fill="#ffffff"
     id="path12" />
  <path
     id="rect992"
     style="fill:#000000;fill-opacity:0.07577778;stroke-width:0.8;stroke-linecap:square;stroke-miterlimit:4;stroke-dasharray:none"
     d="M 2.6796875 33.929688 A 23.267658 23.267661 0 0 0 8.0019531 41.423828 L 39.869141 41.423828 A 23.267658 23.267661 0 0 0 45.193359 33.929688 L 2.6796875 33.929688 z " />
  <path
     id="path10"
     d="M 3.7851562 36.103516 A 23.267658 23.267661 0 0 0 23.935547 47.736328 A 23.267658 23.267661 0 0 0 44.085938 36.103516 L 3.7851562 36.103516 z "
     style="fill:#8b96a5;fill-opacity:0.9921568" />
</svg>
