<?xml version="1.0" encoding="UTF-8" standalone="no"?>
<svg
   xmlns:dc="http://purl.org/dc/elements/1.1/"
   xmlns:cc="http://creativecommons.org/ns#"
   xmlns:rdf="http://www.w3.org/1999/02/22-rdf-syntax-ns#"
   xmlns:svg="http://www.w3.org/2000/svg"
   xmlns="http://www.w3.org/2000/svg"
   xmlns:sodipodi="http://sodipodi.sourceforge.net/DTD/sodipodi-0.dtd"
   xmlns:inkscape="http://www.inkscape.org/namespaces/inkscape"
   height="48"
   width="48"
   version="1.1"
   id="svg6"
   sodipodi:docname="com.github.artemanufrij.hashit.svg"
   inkscape:version="1.0.2 (e86c870879, 2021-01-15)">
  <metadata
     id="metadata12">
    <rdf:RDF>
      <cc:Work
         rdf:about="">
        <dc:format>image/svg+xml</dc:format>
        <dc:type
           rdf:resource="http://purl.org/dc/dcmitype/StillImage" />
        <dc:title></dc:title>
      </cc:Work>
    </rdf:RDF>
  </metadata>
  <defs
     id="defs10" />
  <sodipodi:namedview
     pagecolor="#ffffff"
     bordercolor="#666666"
     borderopacity="1"
     objecttolerance="10"
     gridtolerance="10"
     guidetolerance="10"
     inkscape:pageopacity="0"
     inkscape:pageshadow="2"
     inkscape:window-width="1920"
     inkscape:window-height="1031"
     id="namedview8"
     showgrid="false"
     inkscape:zoom="18.916666"
     inkscape:cx="19.988208"
     inkscape:cy="27.738873"
     inkscape:window-x="0"
     inkscape:window-y="24"
     inkscape:window-maximized="1"
     inkscape:current-layer="svg6"
     inkscape:document-rotation="0" />
  <circle
     cx="23.940615"
     cy="31.534513"
     fill="#5e81ac"
     opacity=".99"
     id="circle2"
     style="fill:#97cb99;fill-opacity:1"
     transform="matrix(1.75830584759 0 0 1.75830608345 -18.15909274367 -30.97874795549)"
     r="13.232998" />
  <path
     id="circle937"
     style="opacity:0.99;fill:#79b774;fill-opacity:0.9921568"
     transform="matrix(1.7583058,0,0,1.7583061,-18.159093,-30.978748)"
     d="m 37.173613,31.534513 c 0,1.827096 -0.370288,3.567706 -1.039915,5.15088 -0.669626,1.583174 -1.63859,3.008912 -2.83594,4.206263 -2.394702,2.394701 -5.702952,3.875855 -9.357143,3.875855 -1.827096,0 -3.567706,-0.370288 -5.15088,-1.039915 -1.583174,-0.669626 -3.008913,-1.638589 -4.206263,-2.83594 -1.19735,-1.197351 -2.166314,-2.623089 -2.83594,-4.206263 z"
     sodipodi:nodetypes="cssssscc" />
  <path
     inkscape:connector-curvature="0"
     id="path4201-6-7"
     d="m 22.150835,10.011759 0.337562,2.082 2.182118,-0.3538 -0.337559,-2.0820001 z m -10.188832,2.6832 -0.277321,5.1157 -3.321329,0.5384 0.212029,1.3078 3.055219,-0.4953 -0.220696,4.6227 -2.728282,0.4423 0.212029,1.3077 2.436825,-0.395 -0.217542,5.1072 1.334363,-0.2163 0.216299,-5.1071 4.399719,-0.7133 -0.240371,5.1109 1.333095,-0.2161 0.265712,-5.1151 3.430312,-0.5562 -0.212027,-1.3077 -3.151524,0.511 0.220696,-4.6227 2.824589,-0.458 -0.212027,-1.3077 -2.558475,0.4148 0.265901,-5.1138 -1.333096,0.2161 -0.265925,5.1138 -4.399721,0.7133 0.265901,-5.1138 z m 16.988502,-1.7972 -0.167261,3.0352 -1.600475,0.2595 0.257229,1.5865 1.515572,-0.2457 1.417638,8.7437 c 0.320719,1.9781 1.353707,2.8263 3.099211,2.5434 0.751537,-0.122 1.471147,-0.3388 2.15894,-0.6492 l -0.261134,-1.6107 c -0.531195,0.202 -0.942416,0.3271 -1.23333,0.3743 -0.509105,0.082 -0.888527,0.017 -1.139203,-0.2002 -0.243924,-0.2259 -0.416894,-0.6543 -0.519001,-1.284 l -1.341004,-8.271 2.424155,-0.3931 -0.257229,-1.5865 -2.424156,0.393 -0.475214,-2.931 z m -6.010311,3.9826 2.124607,13.1041 2.18212,-0.3538 -2.124609,-13.1041 z m -9.939749,4.0591 4.362973,-0.7074 -0.220698,4.6226 -4.388314,0.7115 z"
     style="font-style:normal;font-weight:normal;font-size:40px;line-height:125%;font-family:sans-serif;letter-spacing:0px;word-spacing:0px;fill:#ffffff;fill-opacity:1;stroke:none;stroke-width:0.628456px;stroke-linecap:butt;stroke-linejoin:miter;stroke-opacity:1" />
</svg>
