<?xml version="1.0" encoding="UTF-8" standalone="no"?>
<svg
   xmlns:dc="http://purl.org/dc/elements/1.1/"
   xmlns:cc="http://creativecommons.org/ns#"
   xmlns:rdf="http://www.w3.org/1999/02/22-rdf-syntax-ns#"
   xmlns:svg="http://www.w3.org/2000/svg"
   xmlns="http://www.w3.org/2000/svg"
   xmlns:sodipodi="http://sodipodi.sourceforge.net/DTD/sodipodi-0.dtd"
   xmlns:inkscape="http://www.inkscape.org/namespaces/inkscape"
   height="48"
   width="48"
   version="1.1"
   id="svg6"
   sodipodi:docname="com.github.appadeia.Taigo.svg"
   inkscape:version="1.0.2 (e86c870879, 2021-01-15)">
  <metadata
     id="metadata12">
    <rdf:RDF>
      <cc:Work
         rdf:about="">
        <dc:format>image/svg+xml</dc:format>
        <dc:type
           rdf:resource="http://purl.org/dc/dcmitype/StillImage" />
        <dc:title></dc:title>
      </cc:Work>
    </rdf:RDF>
  </metadata>
  <defs
     id="defs10" />
  <sodipodi:namedview
     pagecolor="#ffffff"
     bordercolor="#666666"
     borderopacity="1"
     objecttolerance="10"
     gridtolerance="10"
     guidetolerance="10"
     inkscape:pageopacity="0"
     inkscape:pageshadow="2"
     inkscape:window-width="1920"
     inkscape:window-height="1031"
     id="namedview8"
     showgrid="false"
     inkscape:zoom="13.376104"
     inkscape:cx="12.806726"
     inkscape:cy="27.598373"
     inkscape:window-x="0"
     inkscape:window-y="24"
     inkscape:window-maximized="1"
     inkscape:current-layer="svg6"
     inkscape:document-rotation="0" />
  <path
     d="m44.322082 27.405077a19.729762 19.729765 0 0 1 -19.729762 19.729765 19.729762 19.729765 0 0 1 -19.7297621-19.729765 19.729762 19.729765 0 0 1 19.7297621-19.7297632 19.729762 19.729765 0 0 1 19.729762 19.7297632z"
     fill="#8fbcbb"
     opacity=".99"
     transform="matrix(1.1503549 0 0 1.1503549 -4.486125 -7.525565)"
     id="path2"
     style="fill:#b27dba;fill-opacity:1" />
  <path
     style="fill:#fdfdfd;fill-opacity:1;fill-rule:nonzero;stroke:none;stroke-width:0.242333"
     d="m 36.60322,26.37741 c 0,6.95951 -5.641821,12.601331 -12.60133,12.601331 -6.95951,0 -12.601331,-5.641821 -12.601331,-12.601331 0,-9.693331 5.641821,-18.4173298 12.601331,-18.4173298 6.959509,0 12.60133,8.7239988 12.60133,18.4173298 z m 0,0"
     id="path29" />
  <path
     style="fill:#e0cbe3;fill-opacity:0.992157;fill-rule:nonzero;stroke:none;stroke-width:0.242333"
     d="m 35.028054,26.013911 c 0,6.08957 -4.936594,11.026163 -11.026164,11.026163 -6.089571,0 -11.026165,-4.936593 -11.026165,-11.026163 0,-8.481666 4.936594,-16.1151638 11.026165,-16.1151638 6.08957,0 11.026164,7.6334978 11.026164,16.1151638 z m 0,0"
     id="path31" />
  <path
     style="fill:#b27dba;fill-opacity:0.992157;fill-rule:nonzero;stroke:none;stroke-width:0.242333"
     d="m 18.185891,15.714745 h 11.631998 c 0.535783,0 0.969333,0.43355 0.969333,0.969334 v 11.631998 c 0,0.535784 -0.43355,0.969333 -0.969333,0.969333 H 18.185891 c -0.535784,0 -0.969333,-0.433549 -0.969333,-0.969333 V 16.684079 c 0,-0.535784 0.433549,-0.969334 0.969333,-0.969334 z m 0,0"
     id="path33" />
  <path
     style="fill:#fdfdfd;fill-opacity:1;fill-rule:nonzero;stroke:none;stroke-width:0.242333"
     d="m 16.247224,32.738659 c -3.97578,2.190465 3.828109,4.600547 5.664541,4.967832 2.42144,0.484667 7.112861,0.06626 8.875457,-1.696333 0.245173,-0.245173 2.436585,-2.628749 1.635749,-3.029166 -2.35423,-1.177588 -13.068958,-0.242333 -16.175747,-0.242333 z m 0,0"
     id="path35" />
  <path
     style="fill:#b27dba;fill-opacity:0.992157;fill-rule:nonzero;stroke:none;stroke-width:0.242333"
     d="m 18.670558,33.405075 c -0.709014,9.38e-4 -1.313901,0.513066 -1.432228,1.211667 h -0.02177 v 0.242333 c 0,0.802729 0.651271,1.454 1.453999,1.454 0.802729,0 1.453999,-0.651271 1.453999,-1.454 v -0.242333 h -0.02082 c -0.11833,-0.699549 -0.724163,-1.211667 -1.433176,-1.211667 z m 0,0"
     id="path37" />
  <path
     style="fill:#fdfdfd;fill-opacity:1;fill-rule:nonzero;stroke:none;stroke-width:0.242333"
     d="m 13.339225,33.177888 5.331333,-1.938666 5.331332,1.938666"
     id="path39" />
  <path
     style="fill:#b27dba;fill-opacity:0.992157;fill-rule:nonzero;stroke:none;stroke-width:0.242333"
     d="m 24.00189,34.374408 c -0.709014,9.38e-4 -1.313901,0.513066 -1.432228,1.211667 h -0.02177 v 0.242333 c 0,0.802729 0.651271,1.454 1.454,1.454 0.802729,0 1.454,-0.651271 1.454,-1.454 v -0.242333 h -0.02082 C 25.316737,34.886527 24.710904,34.374408 24.00189,34.374408 Z m 0,0"
     id="path43" />
  <path
     style="fill:#b27dba;fill-opacity:0.992157;fill-rule:nonzero;stroke:none;stroke-width:0.242333"
     d="m 29.333222,33.405075 c -0.709014,9.38e-4 -1.313901,0.513066 -1.432228,1.211667 h -0.02177 v 0.242333 c 0,0.802729 0.651271,1.454 1.454,1.454 0.802729,0 1.454,-0.651271 1.454,-1.454 v -0.242333 h -0.02082 c -0.118332,-0.699549 -0.724165,-1.211667 -1.43318,-1.211667 z m 0,0"
     id="path47" />
  <path
     style="fill:#fdfdfd;fill-opacity:1;fill-rule:nonzero;stroke:none;stroke-width:0.242333"
     d="m 18.670558,33.162742 5.331332,-1.938666 5.331332,1.938666"
     id="path51" />
  <path
     style="fill:#fdfdfd;fill-opacity:1;fill-rule:nonzero;stroke:none;stroke-width:0.242333"
     d="m 24.00189,33.162742 5.331332,-1.938666 5.331332,1.938666"
     id="path53" />
</svg>
