<?xml version="1.0" encoding="UTF-8" standalone="no"?>
<svg
   xmlns:dc="http://purl.org/dc/elements/1.1/"
   xmlns:cc="http://creativecommons.org/ns#"
   xmlns:rdf="http://www.w3.org/1999/02/22-rdf-syntax-ns#"
   xmlns:svg="http://www.w3.org/2000/svg"
   xmlns="http://www.w3.org/2000/svg"
   xmlns:sodipodi="http://sodipodi.sourceforge.net/DTD/sodipodi-0.dtd"
   xmlns:inkscape="http://www.inkscape.org/namespaces/inkscape"
   height="48"
   width="48"
   version="1.1"
   id="svg6"
   sodipodi:docname="com.github.calo001.luna.svg"
   inkscape:version="1.0.2 (e86c870879, 2021-01-15)">
  <metadata
     id="metadata12">
    <rdf:RDF>
      <cc:Work
         rdf:about="">
        <dc:format>image/svg+xml</dc:format>
        <dc:type
           rdf:resource="http://purl.org/dc/dcmitype/StillImage" />
        <dc:title></dc:title>
      </cc:Work>
    </rdf:RDF>
  </metadata>
  <defs
     id="defs10" />
  <sodipodi:namedview
     pagecolor="#ffffff"
     bordercolor="#666666"
     borderopacity="1"
     objecttolerance="10"
     gridtolerance="10"
     guidetolerance="10"
     inkscape:pageopacity="0"
     inkscape:pageshadow="2"
     inkscape:window-width="1920"
     inkscape:window-height="1031"
     id="namedview8"
     showgrid="false"
     inkscape:zoom="9.458333"
     inkscape:cx="19.988208"
     inkscape:cy="27.738873"
     inkscape:window-x="0"
     inkscape:window-y="24"
     inkscape:window-maximized="1"
     inkscape:current-layer="svg6"
     inkscape:document-rotation="0" />
  <circle
     cx="23.940615"
     cy="31.534513"
     fill="#5e81ac"
     opacity=".99"
     id="circle2"
     style="fill:#cf9c7e;fill-opacity:1"
     transform="matrix(1.75830584759 0 0 1.75830608345 -18.15909274367 -30.97874795549)"
     r="13.232998" />
  <rect
     y="13.727158"
     x="11.893355"
     height="22.49996"
     width="23"
     id="rect826"
     style="fill:#ffffff;fill-opacity:1;stroke:none;stroke-width:2;stroke-linecap:butt;stroke-linejoin:round;stroke-miterlimit:4;stroke-dasharray:none;stroke-opacity:1" />
  <rect
     style="fill:#ffffff;fill-opacity:0.422222;stroke:none;stroke-width:2;stroke-linecap:butt;stroke-linejoin:round;stroke-miterlimit:4;stroke-dasharray:none;stroke-opacity:1"
     id="rect824"
     width="23"
     height="31.000034"
     x="11.893355"
     y="5.2271423" />
  <rect
     style="fill:#ffffff;fill-opacity:1;stroke:none;stroke-width:1.63298;stroke-linecap:butt;stroke-linejoin:round;stroke-miterlimit:4;stroke-dasharray:none;stroke-opacity:1"
     id="rect828"
     width="11"
     height="1.9999526"
     x="17.893356"
     y="6.7272806" />
  <rect
     y="9.727212"
     x="15.893354"
     height="1.9999859"
     width="15.000001"
     id="rect836"
     style="fill:#ffffff;fill-opacity:1;stroke:none;stroke-width:1.63298;stroke-linecap:butt;stroke-linejoin:round;stroke-miterlimit:4;stroke-dasharray:none;stroke-opacity:1" />
  <g
     aria-label="12"
     style="font-style:normal;font-variant:normal;font-weight:bold;font-stretch:normal;font-size:4.32068px;line-height:1.25;font-family:'Roboto Condensed';-inkscape-font-specification:'Roboto Condensed, Bold';letter-spacing:0px;word-spacing:0px;fill:#cf9c7e;fill-opacity:1;stroke:none;stroke-width:0.108017"
     id="text840"
     transform="matrix(3.7795276,0,0,3.7795276,-0.10664485,-1078.7924)">
    <path
       style="font-style:normal;font-variant:normal;font-weight:bold;font-stretch:normal;font-family:'Roboto Condensed';-inkscape-font-specification:'Roboto Condensed, Bold';fill:#cf9c7e;fill-opacity:1;stroke-width:0.408253"
       d="m 27.271484,23.365234 c -0.675106,0 -1.281464,0.164566 -1.818359,0.494141 -0.53158,0.324258 -0.946456,0.781034 -1.244141,1.371094 -0.292369,0.59006 -0.4375,1.242763 -0.4375,1.955078 h 2.263672 c 0,-0.616643 0.107682,-1.095339 0.320313,-1.435547 0.217947,-0.340208 0.510163,-0.511719 0.876953,-0.511719 0.334896,0 0.590204,0.147069 0.765625,0.439453 0.180737,0.292359 0.269531,0.697263 0.269531,1.212891 0,0.38274 -0.09574,0.783169 -0.287109,1.203125 -0.186053,0.414614 -0.478269,0.898328 -0.876953,1.451172 l -3.140625,3.99414 v 1.595704 h 6.841797 v -1.875 h -3.947266 l 1.490234,-2.128907 c 0.829265,-0.983407 1.401212,-1.808733 1.714844,-2.478515 0.318948,-0.675125 0.478516,-1.340308 0.478516,-1.994141 0,-1.052523 -0.287222,-1.862847 -0.861328,-2.431641 -0.568791,-0.57411 -1.371623,-0.861328 -2.408204,-0.861328 z m -6.841796,0.144532 -4.234376,1.728515 v 1.882813 l 2.208985,-0.853516 v 8.867188 h 2.265625 v -11.625 z"
       transform="matrix(0.26458333,0,0,0.26458333,0,284.29998)"
       id="path842" />
  </g>
  <path
     id="circle937"
     style="opacity:0.99;fill:#a16c4e;fill-opacity:1"
     transform="matrix(1.7583058,0,0,1.7583061,-18.159093,-30.978748)"
     d="m 37.173613,31.534513 c 0,1.827096 -0.370288,3.567706 -1.039915,5.15088 -0.669626,1.583174 -1.63859,3.008912 -2.83594,4.206263 -2.394702,2.394701 -5.702952,3.875855 -9.357143,3.875855 -1.827096,0 -3.567706,-0.370288 -5.15088,-1.039915 -1.583174,-0.669626 -3.008913,-1.638589 -4.206263,-2.83594 -1.19735,-1.197351 -2.166314,-2.623089 -2.83594,-4.206263 z"
     sodipodi:nodetypes="cssssscc" />
</svg>
