<?xml version="1.0" encoding="UTF-8" standalone="no"?>
<svg
   xmlns:dc="http://purl.org/dc/elements/1.1/"
   xmlns:cc="http://creativecommons.org/ns#"
   xmlns:rdf="http://www.w3.org/1999/02/22-rdf-syntax-ns#"
   xmlns:svg="http://www.w3.org/2000/svg"
   xmlns="http://www.w3.org/2000/svg"
   xmlns:sodipodi="http://sodipodi.sourceforge.net/DTD/sodipodi-0.dtd"
   xmlns:inkscape="http://www.inkscape.org/namespaces/inkscape"
   height="48"
   width="48"
   version="1.1"
   id="svg6"
   sodipodi:docname="com.github.keyilan.swatches.svg"
   inkscape:version="1.0.2 (e86c870879, 2021-01-15)">
  <metadata
     id="metadata12">
    <rdf:RDF>
      <cc:Work
         rdf:about="">
        <dc:format>image/svg+xml</dc:format>
        <dc:type
           rdf:resource="http://purl.org/dc/dcmitype/StillImage" />
        <dc:title></dc:title>
      </cc:Work>
    </rdf:RDF>
  </metadata>
  <defs
     id="defs10" />
  <sodipodi:namedview
     pagecolor="#ffffff"
     bordercolor="#666666"
     borderopacity="1"
     objecttolerance="10"
     gridtolerance="10"
     guidetolerance="10"
     inkscape:pageopacity="0"
     inkscape:pageshadow="2"
     inkscape:window-width="1920"
     inkscape:window-height="1031"
     id="namedview8"
     showgrid="false"
     inkscape:zoom="9.458333"
     inkscape:cx="19.988208"
     inkscape:cy="27.738873"
     inkscape:window-x="0"
     inkscape:window-y="24"
     inkscape:window-maximized="1"
     inkscape:current-layer="svg6"
     inkscape:document-rotation="0" />
  <circle
     cx="23.940615"
     cy="31.534513"
     fill="#5e81ac"
     opacity=".99"
     id="circle2"
     style="fill:#caa188;fill-opacity:1"
     transform="matrix(1.75830584759 0 0 1.75830608345 -18.15909274367 -30.97874795549)"
     r="13.232998" />
  <path
     id="circle937"
     style="opacity:0.99;fill:#ebe0de;fill-opacity:1"
     transform="matrix(1.7583058,0,0,1.7583061,-18.159093,-30.978748)"
     d="m 37.173613,31.534513 c 0,1.827096 -0.370288,3.567706 -1.039915,5.15088 -0.669626,1.583174 -1.63859,3.008912 -2.83594,4.206263 -2.394702,2.394701 -5.702952,3.875855 -9.357143,3.875855 -1.827096,0 -3.567706,-0.370288 -5.15088,-1.039915 -1.583174,-0.669626 -3.008913,-1.638589 -4.206263,-2.83594 -1.19735,-1.197351 -2.166314,-2.623089 -2.83594,-4.206263 z"
     sodipodi:nodetypes="cssssscc" />
  <path
     style="fill:#caa188;fill-opacity:1;fill-rule:evenodd;stroke-width:0.451585"
     inkscape:connector-curvature="0"
     d="m 15.628378,37.2669 c 0.04905,0.234839 0.03306,0.455765 -0.04792,0.662865 -0.08104,0.207113 -0.223259,0.384533 -0.426592,0.532552 -0.203345,0.147918 -0.456109,0.253459 -0.758262,0.316717 -0.251672,0.05465 -0.467143,0.07995 -0.645808,0.07884 -0.178191,8.32e-4 -0.369063,-0.02403 -0.572251,-0.07354 l -0.190587,-0.911619 c 0.216073,0.0595 0.435254,0.095 0.657668,0.107184 0.222392,0.01208 0.421603,-4.76e-4 0.597806,-0.03669 0.151687,-0.03294 0.257779,-0.08156 0.317597,-0.148783 0.05963,-0.06821 0.08098,-0.142735 0.06367,-0.225547 -0.01086,-0.05188 -0.03446,-0.09382 -0.07119,-0.12719 -0.03664,-0.03298 -0.09049,-0.06221 -0.161886,-0.08897 -0.07133,-0.02647 -0.256204,-0.07259 -0.554665,-0.138145 -0.270375,-0.06061 -0.478289,-0.130581 -0.623776,-0.210119 -0.145473,-0.07954 -0.26227,-0.181275 -0.350356,-0.305205 -0.08807,-0.123933 -0.151636,-0.279181 -0.190624,-0.465654 -0.07287,-0.34878 -0.0029,-0.647231 0.210135,-0.895485 0.213029,-0.248157 0.541417,-0.418623 0.985173,-0.511402 0.391301,-0.08497 0.810673,-0.07473 1.256037,0.02125 l -0.148227,0.855435 c -0.387888,-0.0882 -0.710475,-0.105437 -0.967779,-0.05182 -0.132734,0.02882 -0.224774,0.07132 -0.275268,0.131405 -0.0507,0.05911 -0.06883,0.123314 -0.05435,0.192519 0.01547,0.07441 0.06784,0.132625 0.156929,0.175189 0.0892,0.04305 0.320009,0.106212 0.692651,0.190456 0.357048,0.07862 0.616607,0.188754 0.7787,0.330485 0.162108,0.141831 0.269897,0.340584 0.323317,0.596067 z m 4.915388,0.172476 -1.209629,0.252434 -0.70756,-1.574001 c -0.03156,-0.06478 -0.08759,-0.197 -0.167686,-0.394706 -0.08008,-0.19771 -0.143221,-0.363896 -0.189347,-0.49837 0.0096,0.115179 0.01636,0.259231 0.02019,0.432362 0.0038,0.173042 0.0052,0.332783 0.0042,0.478922 -9.53e-4,0.14613 -0.0082,0.738858 -0.0216,1.77777 l -1.20963,0.252434 -1.72931,-3.590508 0.98726,-0.204147 0.808779,1.812452 c 0.180954,0.400012 0.314691,0.720737 0.401218,0.962174 -0.01438,-0.180766 -0.02419,-0.428321 -0.02956,-0.742537 -0.0054,-0.31431 -0.0037,-0.575925 0.0048,-0.785 l 0.03466,-1.502062 0.948478,-0.195725 0.623236,1.364626 c 0.103253,0.218056 0.214792,0.471356 0.334596,0.759905 0.119798,0.288447 0.204717,0.505061 0.254754,0.649533 -0.01764,-0.196327 -0.02583,-0.541553 -0.0246,-1.035565 l 0.02153,-1.991421 0.98726,-0.204147 z m 3.532796,-0.738482 -0.334853,-0.670616 -1.230314,0.256925 -0.04329,0.749659 -1.124304,0.233906 0.440444,-4.060435 1.36498,-0.285144 2.04596,3.540577 z m -0.722681,-1.465317 -0.293163,-0.587572 c -0.06687,-0.130277 -0.150405,-0.299198 -0.250663,-0.507159 -0.100242,-0.207862 -0.168918,-0.357497 -0.206027,-0.448802 0.0029,0.09146 0.0025,0.242706 -9.98e-4,0.454257 -0.0035,0.211567 -0.02175,0.630782 -0.05466,1.257641 z m 3.550963,0.873985 -1.023457,0.212007 -0.61682,-2.949993 -0.925217,0.190675 -0.174897,-0.836538 2.86959,-0.600609 0.174897,0.836538 -0.922634,0.190114 z m 2.415614,-3.638049 c -0.243058,0.05278 -0.412651,0.189889 -0.507257,0.418266 -0.09472,0.22789 -0.105419,0.517148 -0.03213,0.867678 0.152393,0.728657 0.505644,1.034972 1.059913,0.919117 0.167217,-0.03631 0.324964,-0.09205 0.472223,-0.172126 0.147471,-0.0791 0.293643,-0.16855 0.43876,-0.267498 l 0.180899,0.865116 c -0.286758,0.205838 -0.629537,0.350572 -1.028389,0.434009 -0.572702,0.114127 -1.044336,0.04534 -1.418407,-0.222479 -0.37408,-0.267819 -0.626641,-0.715112 -0.757693,-1.341876 -0.08196,-0.392037 -0.08018,-0.75191 0.0054,-1.07973 0.08555,-0.32782 0.250175,-0.600565 0.493907,-0.818243 0.243732,-0.217677 0.552943,-0.365662 0.927621,-0.444055 0.40853,-0.08871 0.818878,-0.07856 1.229046,0.02148 l -0.144979,0.871104 c -0.153571,-0.03624 -0.304999,-0.0624 -0.454262,-0.07819 -0.149273,-0.01568 -0.304133,-0.0066 -0.464771,0.02622 z m 5.628908,1.955984 -1.028621,0.213129 -0.322747,-1.543566 -1.188954,0.247944 0.322746,1.543566 -1.028646,0.213134 -0.791727,-3.786529 1.028647,-0.213134 0.29352,1.403784 1.188953,-0.247944 -0.293519,-1.403784 1.028645,-0.213134 z m 3.066527,-0.641326 -2.24818,0.469765 -0.791727,-3.786529 2.248179,-0.469765 0.17174,0.821055 -1.225145,0.255803 0.124531,0.59564 1.134632,-0.236149 0.17174,0.821055 -1.134657,0.236154 0.149477,0.714759 1.225144,-0.255803 z m 2.898646,-1.806232 c 0.04905,0.23484 0.03306,0.455765 -0.04792,0.662865 -0.08104,0.207113 -0.22324,0.384631 -0.426612,0.532453 -0.203305,0.148115 -0.456069,0.253656 -0.758242,0.316815 -0.251674,0.05465 -0.467147,0.07995 -0.645809,0.07884 -0.17819,8.31e-4 -0.369085,-0.02413 -0.57225,-0.07365 l -0.190608,-0.911716 c 0.216055,0.0593 0.435276,0.0951 0.657646,0.107086 0.222392,0.01208 0.421605,-4.76e-4 0.597807,-0.03669 0.151687,-0.03294 0.257781,-0.08156 0.317598,-0.148783 0.05984,-0.06723 0.08102,-0.14254 0.06367,-0.225547 -0.01086,-0.05188 -0.03441,-0.09383 -0.07115,-0.126995 -0.03662,-0.03298 -0.09049,-0.06221 -0.161909,-0.08907 -0.07131,-0.02647 -0.256184,-0.07239 -0.554642,-0.138048 -0.270443,-0.06069 -0.478376,-0.130766 -0.623845,-0.210207 -0.145451,-0.07944 -0.262268,-0.181274 -0.350357,-0.305204 -0.08808,-0.123931 -0.151635,-0.279181 -0.190623,-0.465655 -0.07287,-0.348779 -0.0029,-0.647325 0.210138,-0.895485 0.213033,-0.248157 0.541417,-0.418623 0.985174,-0.511402 0.391303,-0.08497 0.810673,-0.07473 1.256037,0.02125 l -0.148229,0.855437 c -0.387889,-0.0882 -0.710497,-0.105536 -0.967759,-0.05172 -0.132718,0.02882 -0.224773,0.07132 -0.275481,0.130428 -0.0507,0.0591 -0.06881,0.123412 -0.05438,0.192421 0.01547,0.07441 0.06784,0.132727 0.156972,0.175385 0.08921,0.04305 0.319969,0.106016 0.692632,0.190358 0.357069,0.07872 0.616605,0.188754 0.778721,0.330583 0.162107,0.14183 0.269857,0.340388 0.323317,0.596066 z"
     id="path5064-7-7" />
  <path
     style="fill:#caa188;fill-opacity:1;fill-rule:evenodd;stroke-width:0.451585"
     inkscape:connector-curvature="0"
     d="m 15.948977,43.939428 -0.610231,0.122277 -0.511618,-2.446859 c -0.06107,-0.292092 -0.102572,-0.525092 -0.124514,-0.698997 -0.0311,0.04973 -0.0704,0.105338 -0.117753,0.167809 -0.04735,0.06247 -0.20812,0.261826 -0.482177,0.598652 l -0.385708,-0.318096 0.931372,-1.109199 0.507183,-0.110133 z m 3.057469,-3.68543 c 0.0502,0.240116 0.02205,0.45488 -0.0845,0.643894 -0.106548,0.189116 -0.281055,0.337834 -0.523492,0.446351 l 0.0043,0.02056 c 0.312122,-0.02582 0.559965,0.02136 0.743653,0.140803 0.18365,0.119245 0.301719,0.304407 0.354093,0.554898 0.07621,0.364632 0.0063,0.672783 -0.209797,0.924473 -0.216105,0.25169 -0.561754,0.427235 -1.03695,0.526636 -0.419205,0.09103 -0.788462,0.09344 -1.105548,0.0174 l -0.113251,-0.541807 c 0.17723,0.04543 0.360355,0.07156 0.549116,0.07724 0.18883,0.0061 0.366116,-0.0089 0.532002,-0.04389 0.293283,-0.06368 0.501738,-0.162162 0.624236,-0.300916 0.122392,-0.139243 0.159747,-0.322852 0.112068,-0.550928 -0.04226,-0.202137 -0.153713,-0.333988 -0.334286,-0.395471 -0.180509,-0.06109 -0.44277,-0.05602 -0.786666,0.01579 l -0.328655,0.07137 -0.103499,-0.495011 0.333807,-0.07249 c 0.605934,-0.121343 0.86348,-0.398814 0.776047,-0.816984 -0.03396,-0.162496 -0.112856,-0.276652 -0.23672,-0.342877 -0.123877,-0.06622 -0.28855,-0.07753 -0.494188,-0.03462 -0.143184,0.03109 -0.277312,0.07966 -0.401974,0.147662 -0.124659,0.068 -0.265282,0.180402 -0.422154,0.33583 l -0.386982,-0.362845 c 0.293888,-0.328239 0.670627,-0.540518 1.130298,-0.636548 0.381266,-0.08279 0.696942,-0.06129 0.945722,0.05916 0.248597,0.119366 0.403068,0.323333 0.463404,0.611901 z m 0.886902,1.175263 c -0.309995,-1.482583 0.138931,-2.350205 1.346819,-2.602772 0.189752,-0.0412 0.353912,-0.05843 0.491364,-0.05656 l 0.106224,0.508029 c -0.139306,-0.01068 -0.295423,0.0017 -0.467932,0.03919 -0.405414,0.08803 -0.688294,0.257624 -0.846703,0.517866 -0.158366,0.260436 -0.19598,0.632594 -0.112821,1.116569 l 0.03105,-0.0073 c 0.05196,-0.156899 0.143333,-0.289202 0.274138,-0.39681 0.130667,-0.108192 0.295579,-0.182069 0.4943,-0.223685 0.343298,-0.07455 0.633769,-0.0224 0.86965,0.148235 0.235894,0.170731 0.39159,0.436648 0.467114,0.797848 0.08312,0.397412 0.03779,0.734713 -0.136078,1.011819 -0.173821,0.277096 -0.452524,0.455807 -0.83616,0.53594 -0.270848,0.05881 -0.520808,0.04044 -0.748512,-0.04755 -0.227745,-0.08859 -0.421705,-0.246426 -0.581929,-0.4736 -0.160159,-0.226369 -0.276942,-0.515369 -0.350274,-0.866096 z m 1.565283,0.887456 c 0.208733,-0.04532 0.356119,-0.144868 0.441147,-0.303217 0.08498,-0.158544 0.101291,-0.363063 0.04891,-0.613551 -0.04553,-0.217696 -0.134445,-0.377672 -0.266734,-0.479929 -0.13228,-0.102259 -0.304695,-0.131027 -0.51724,-0.08661 -0.131108,0.02847 -0.246366,0.08113 -0.345312,0.159918 -0.09895,0.07879 -0.170065,0.174257 -0.213565,0.285419 -0.04356,0.110765 -0.0546,0.217541 -0.0333,0.319441 0.05086,0.243656 0.159944,0.435068 0.327014,0.574184 0.167039,0.13902 0.353406,0.187169 0.559037,0.144155 z m 4.357628,-3.897762 c -0.355376,0.07717 -0.609547,0.259047 -0.760709,0.553939 -0.15114,0.294991 -0.180289,0.664491 -0.08743,1.1086 0.09716,0.46487 0.268791,0.79599 0.514763,0.99339 0.246,0.197497 0.554745,0.257343 0.926264,0.179637 0.160421,-0.03484 0.312851,-0.08226 0.456602,-0.145198 0.143767,-0.06294 0.291492,-0.136975 0.443431,-0.221133 l 0.111078,0.53133 c -0.273737,0.17446 -0.598936,0.301153 -0.975654,0.379886 -0.55377,0.120249 -1.015787,0.03699 -1.383279,-0.236963 -0.367495,-0.273956 -0.616641,-0.72373 -0.747426,-1.349222 -0.0824,-0.394089 -0.08231,-0.753801 1.77e-4,-1.079523 0.08252,-0.325626 0.24382,-0.595706 0.483987,-0.809948 0.240148,-0.214342 0.544252,-0.35999 0.912324,-0.436948 0.386431,-0.08391 0.761786,-0.07435 1.124042,0.01932 l -0.115055,0.562423 c -0.140367,-0.03296 -0.286845,-0.05856 -0.43898,-0.07465 -0.152153,-0.01608 -0.306742,-0.0071 -0.464029,0.02606 z"
     id="path5066-5-5" />
</svg>
