<?xml version="1.0" encoding="UTF-8" standalone="no"?>
<svg
   xmlns:dc="http://purl.org/dc/elements/1.1/"
   xmlns:cc="http://creativecommons.org/ns#"
   xmlns:rdf="http://www.w3.org/1999/02/22-rdf-syntax-ns#"
   xmlns:svg="http://www.w3.org/2000/svg"
   xmlns="http://www.w3.org/2000/svg"
   xmlns:sodipodi="http://sodipodi.sourceforge.net/DTD/sodipodi-0.dtd"
   xmlns:inkscape="http://www.inkscape.org/namespaces/inkscape"
   height="48"
   width="48"
   version="1.1"
   id="svg6"
   sodipodi:docname="com.github.alcadica.develop.svg"
   inkscape:version="1.0.2 (e86c870879, 2021-01-15)">
  <metadata
     id="metadata12">
    <rdf:RDF>
      <cc:Work
         rdf:about="">
        <dc:format>image/svg+xml</dc:format>
        <dc:type
           rdf:resource="http://purl.org/dc/dcmitype/StillImage" />
        <dc:title></dc:title>
      </cc:Work>
    </rdf:RDF>
  </metadata>
  <defs
     id="defs10" />
  <sodipodi:namedview
     pagecolor="#ffffff"
     bordercolor="#666666"
     borderopacity="1"
     objecttolerance="10"
     gridtolerance="10"
     guidetolerance="10"
     inkscape:pageopacity="0"
     inkscape:pageshadow="2"
     inkscape:window-width="1920"
     inkscape:window-height="1031"
     id="namedview8"
     showgrid="false"
     inkscape:zoom="18.916666"
     inkscape:cx="19.988208"
     inkscape:cy="19.280723"
     inkscape:window-x="0"
     inkscape:window-y="24"
     inkscape:window-maximized="1"
     inkscape:current-layer="svg6"
     inkscape:document-rotation="0" />
  <circle
     cx="23.940615"
     cy="31.534513"
     fill="#5e81ac"
     opacity=".99"
     id="circle2"
     style="fill:#8cadd6;fill-opacity:1"
     transform="matrix(1.75830584759 0 0 1.75830608345 -18.15909274367 -30.97874795549)"
     r="13.232998" />
  <path
     id="path826-3"
     d="m 37.920665,24.92796 a 14.000106,14.000106 0 0 0 -0.195887,-2.861268 l -2.187871,-0.180276 a 11.900091,11.900091 0 0 0 -0.868203,-2.52676 l 1.609081,-1.48533 a 14.000106,14.000106 0 0 0 -1.607496,-2.37792 l -1.976985,0.934632 a 11.900091,11.900091 0 0 0 -2.014377,-1.760609 l 0.645702,-2.075092 A 14.000106,14.000106 0 0 0 28.743208,11.33733 l -1.23716,1.786022 A 11.900091,11.900091 0 0 0 26.206485,12.787304 11.900091,11.900091 0 0 0 24.878057,12.621031 L 24.395119,10.48391 a 14.000106,14.000106 0 0 0 -2.861291,0.195677 l -0.18015,2.187844 a 11.900091,11.900091 0 0 0 -2.526752,0.868262 l -1.485314,-1.609107 a 14.000106,14.000106 0 0 0 -2.377964,1.607462 l 0.934682,1.977008 a 11.900091,11.900091 0 0 0 -1.760651,2.014394 l -2.075094,-0.645771 a 14.000106,14.000106 0 0 0 -1.25806,2.581439 l 1.786024,1.237144 a 11.900091,11.900091 0 0 0 -0.33618,1.299593 11.900091,11.900091 0 0 0 -0.166294,1.328438 L 9.9509838,24.00922 a 14.000106,14.000106 0 0 0 0.1959572,2.861268 l 2.187878,0.180276 a 11.900091,11.900091 0 0 0 0.868188,2.526761 l -1.609081,1.485295 a 14.000106,14.000106 0 0 0 1.607451,2.377989 l 1.976988,-0.934701 a 11.900091,11.900091 0 0 0 2.014357,1.760677 l -0.645701,2.075093 a 14.000106,14.000106 0 0 0 2.581422,1.258042 L 20.3656,35.813898 a 11.900091,11.900091 0 0 0 1.299585,0.336048 11.900091,11.900091 0 0 0 1.328424,0.166273 l 0.482947,2.137087 A 14.000106,14.000106 0 0 0 26.33782,38.257278 L 26.517966,36.0694 a 11.900091,11.900091 0 0 0 2.526751,-0.868192 l 1.485313,1.609071 a 14.000106,14.000106 0 0 0 2.377941,-1.607497 l -0.934683,-1.976728 a 11.900091,11.900091 0 0 0 1.760639,-2.014394 l 2.075094,0.645701 a 14.000106,14.000106 0 0 0 1.258059,-2.581403 l -1.786024,-1.237145 a 11.900091,11.900091 0 0 0 0.336184,-1.299593 11.900091,11.900091 0 0 0 0.166298,-1.328402 l 2.137096,-0.482963 z m -4.364829,1.410664 A 9.8000757,9.8000757 0 0 1 22.065872,34.088681 9.8000757,9.8000757 0 0 1 14.315794,22.598697 9.8000757,9.8000757 0 0 1 25.805755,14.84864 9.8000757,9.8000757 0 0 1 33.555836,26.338624 Z"
     inkscape:connector-curvature="0"
     style="fill:#ffffff;stroke-width:2.10001;stroke-linecap:round;stroke-linejoin:round" />
  <path
     id="circle937"
     style="opacity:0.99;fill:#6693c5;fill-opacity:0.9921568"
     transform="matrix(1.7583058,0,0,1.7583061,-18.159093,-30.978748)"
     d="m 37.173613,31.534513 c 0,1.827096 -0.370288,3.567706 -1.039915,5.15088 -0.669626,1.583174 -1.63859,3.008912 -2.83594,4.206263 -2.394702,2.394701 -5.702952,3.875855 -9.357143,3.875855 -1.827096,0 -3.567706,-0.370288 -5.15088,-1.039915 -1.583174,-0.669626 -3.008913,-1.638589 -4.206263,-2.83594 -1.19735,-1.197351 -2.166314,-2.623089 -2.83594,-4.206263 z"
     sodipodi:nodetypes="cssssscc" />
</svg>
