<?xml version="1.0" encoding="UTF-8" standalone="no"?>
<svg
   xmlns:dc="http://purl.org/dc/elements/1.1/"
   xmlns:cc="http://creativecommons.org/ns#"
   xmlns:rdf="http://www.w3.org/1999/02/22-rdf-syntax-ns#"
   xmlns:svg="http://www.w3.org/2000/svg"
   xmlns="http://www.w3.org/2000/svg"
   xmlns:sodipodi="http://sodipodi.sourceforge.net/DTD/sodipodi-0.dtd"
   xmlns:inkscape="http://www.inkscape.org/namespaces/inkscape"
   height="48"
   width="48"
   version="1.1"
   id="svg6"
   sodipodi:docname="com.github.gijsgoudzwaard.image-optimizer.svg"
   inkscape:version="1.0.2 (e86c870879, 2021-01-15)">
  <metadata
     id="metadata12">
    <rdf:RDF>
      <cc:Work
         rdf:about="">
        <dc:format>image/svg+xml</dc:format>
        <dc:type
           rdf:resource="http://purl.org/dc/dcmitype/StillImage" />
        <dc:title></dc:title>
      </cc:Work>
    </rdf:RDF>
  </metadata>
  <defs
     id="defs10" />
  <sodipodi:namedview
     pagecolor="#ffffff"
     bordercolor="#666666"
     borderopacity="1"
     objecttolerance="10"
     gridtolerance="10"
     guidetolerance="10"
     inkscape:pageopacity="0"
     inkscape:pageshadow="2"
     inkscape:window-width="1920"
     inkscape:window-height="1031"
     id="namedview8"
     showgrid="false"
     inkscape:zoom="6.6880516"
     inkscape:cx="-29.413019"
     inkscape:cy="12.659008"
     inkscape:window-x="0"
     inkscape:window-y="24"
     inkscape:window-maximized="1"
     inkscape:current-layer="svg6"
     inkscape:document-rotation="0" />
  <circle
     cx="23.940615"
     cy="31.534513"
     fill="#5e81ac"
     opacity=".99"
     r="13.232998"
     transform="matrix(1.75830584759 0 0 1.75830608345 -18.15909274367 -30.97874795549)"
     id="circle2"
     style="fill:#c89dd5;fill-opacity:1" />
  <circle
     style="fill:#ffffff;fill-opacity:1;stroke-width:0.8;stroke-linecap:square"
     id="path897"
     cx="24.299015"
     cy="24.67688"
     r="17.6138" />
  <path
     d="m 25.007935,15.639682 0.01375,9.09e-4 0.01473,0.0018 0.01473,0.0027 0.01375,0.0027 0.01473,0.0036 0.01375,0.0036 0.01473,0.0046 0.01375,0.0046 0.01375,0.0064 0.01277,0.0055 0.01375,0.0064 0.01277,0.0073 0.01277,0.0082 0.01277,0.0082 0.01179,0.0082 0.01277,0.0091 0.01081,0.01003 0.01179,0.01003 0.319262,0.302697 0.0088,0.0082 0.0079,0.0082 0.0088,0.0082 0.0079,0.0082 0.0088,0.0082 0.0079,0.0082 0.0088,0.0082 0.0079,0.0091 0.0079,0.0082 0.0088,0.0082 0.0079,0.0091 0.0079,0.0082 0.0079,0.0091 0.0079,0.0082 0.0088,0.0091 0.0079,0.0082 0.0079,0.0091 0.0079,0.0091 0.0069,0.0082 0.0079,0.0091 0.0079,0.0091 0.0079,0.0091 0.0079,0.0082 0.0069,0.0091 0.0079,0.0091 0.0079,0.0091 0.0069,0.0091 0.0079,0.0091 0.0069,0.0091 0.0079,0.0091 0.0069,0.0091 0.0079,0.0091 0.0069,0.0091 0.0069,0.01003 0.0069,0.0091 0.0079,0.0091 0.0069,0.0091 0.0069,0.01003 0.0069,0.0091 0.0069,0.01003 0.0088,-0.0082 0.0098,-0.0073 0.0088,-0.0073 0.0098,-0.0073 0.0088,-0.0073 0.0098,-0.0073 0.0088,-0.0073 0.0098,-0.0073 0.0098,-0.0073 0.0088,-0.0073 0.0098,-0.0073 0.0098,-0.0064 0.0098,-0.0073 0.0088,-0.0073 0.0098,-0.0064 0.0098,-0.0073 0.0098,-0.0064 0.0098,-0.0073 0.0098,-0.0064 0.0098,-0.0073 0.0098,-0.0064 0.01081,-0.0064 0.0098,-0.0064 0.0098,-0.0073 0.0098,-0.0064 0.0098,-0.0064 0.01081,-0.0064 0.0098,-0.0064 0.0098,-0.0064 0.01081,-0.0064 0.0098,-0.0055 0.01081,-0.0064 0.0098,-0.0064 0.01081,-0.0055 0.0098,-0.0064 0.01081,-0.0064 0.0098,-0.0055 0.01081,-0.0064 0.01081,-0.0055 0.0098,-0.0055 0.378202,-0.206964 0.01277,-0.0073 0.01375,-0.0073 0.01473,-0.0064 0.01375,-0.0064 0.01473,-0.0055 0.01375,-0.0046 0.01473,-0.0046 0.01473,-0.0036 0.01473,-0.0027 0.01375,-0.0027 0.01473,-0.0018 0.01473,-0.0018 0.01572,-9.09e-4 h 0.01473 0.01375 l 0.01473,9.09e-4 0.01473,9.09e-4 0.01473,0.0018 0.01473,0.0027 0.01375,0.0027 0.01473,0.0036 0.01375,0.0036 0.01375,0.0046 0.01375,0.0046 0.01375,0.0055 0.01375,0.0055 0.01277,0.0064 0.01277,0.0073 0.01277,0.0073 0.01179,0.0073 0.01179,0.0082 0.01179,0.0091 0.01179,0.0091 0.01081,0.0091 0.01081,0.01003 0.0098,0.01094 0.0098,0.01094 0.0098,0.01094 0.0088,0.01185 0.0088,0.01276 0.0079,0.01276 0.225939,0.370165 0.0059,0.01003 0.0059,0.01003 0.0059,0.01003 0.0059,0.01003 0.0059,0.01003 0.0059,0.01003 0.0059,0.01003 0.0059,0.01003 0.0049,0.01094 0.0059,0.01003 0.0059,0.01003 0.0049,0.01094 0.0059,0.01003 0.0049,0.01003 0.0059,0.01094 0.0049,0.01003 0.0059,0.01094 0.0049,0.01003 0.0049,0.01094 0.0049,0.01003 0.0049,0.01094 0.0049,0.01003 0.0049,0.01094 0.0049,0.01003 0.0049,0.01094 0.0049,0.01094 0.0049,0.01003 0.0049,0.01094 0.0039,0.01094 0.0049,0.01094 0.0049,0.01003 0.0039,0.01094 0.0049,0.01094 0.0039,0.01094 0.0039,0.01094 0.0049,0.01094 0.0039,0.01094 0.0039,0.01094 0.0039,0.01094 0.0039,0.01003 0.01179,-0.0046 0.01081,-0.0046 0.01081,-0.0055 0.01081,-0.0046 0.01081,-0.0055 0.01179,-0.0046 0.01081,-0.0046 0.01081,-0.0046 0.01179,-0.0046 0.01081,-0.0046 0.01081,-0.0046 0.01179,-0.0046 0.01081,-0.0046 0.01081,-0.0046 0.01179,-0.0046 0.01081,-0.0036 0.01179,-0.0046 0.01081,-0.0046 0.01179,-0.0036 0.01081,-0.0046 0.01179,-0.0036 0.01179,-0.0046 0.01081,-0.0036 0.01179,-0.0036 0.01081,-0.0036 0.01179,-0.0046 0.01179,-0.0036 0.01179,-0.0036 0.01081,-0.0036 0.01179,-0.0036 0.01179,-0.0036 0.01179,-0.0036 0.01081,-0.0027 0.01179,-0.0036 0.01179,-0.0036 0.01179,-0.0036 0.01179,-0.0027 0.01179,-0.0036 0.01081,-0.0027 0.01179,-0.0036 0.437143,-0.11032 0.01473,-0.0036 0.01572,-0.0027 0.01473,-0.0018 0.01572,-0.0018 0.01473,-9.09e-4 0.01572,-9.09e-4 h 0.01473 l 0.01473,9.09e-4 0.01473,9.09e-4 0.01473,0.0018 0.01473,0.0018 0.01473,0.0027 0.01473,0.0036 0.01375,0.0036 0.01375,0.0036 0.01375,0.0055 0.01375,0.0046 0.01375,0.0064 0.01277,0.0064 0.01277,0.0064 0.01277,0.0073 0.01179,0.0073 0.01179,0.0082 0.01179,0.0082 0.01179,0.0091 0.01081,0.0091 0.0098,0.01003 0.01081,0.01003 0.0098,0.01003 0.0088,0.01094 0.0088,0.01185 0.0088,0.01094 0.0079,0.01276 0.0079,0.01185 0.0069,0.01276 0.0059,0.01276 0.0069,0.01368 0.0049,0.01368 0.0049,0.01368 0.0049,0.01459 0.115917,0.412105 0.003,0.01094 0.003,0.01185 0.003,0.01094 0.003,0.01094 0.003,0.01185 0.003,0.01094 0.0019,0.01094 0.003,0.01094 0.003,0.01185 0.0019,0.01094 0.003,0.01094 0.0019,0.01185 0.0019,0.01094 0.003,0.01185 0.0019,0.01094 0.0019,0.01094 0.0019,0.01185 0.0019,0.01094 0.0019,0.01185 0.0019,0.01094 0.0019,0.01185 0.0019,0.01094 0.0019,0.01094 0.0019,0.01185 9.72e-4,0.01094 0.0019,0.01185 0.0019,0.01094 9.72e-4,0.01185 0.0019,0.01094 9.72e-4,0.01185 9.72e-4,0.01185 0.0019,0.01094 9.72e-4,0.01185 9.72e-4,0.01094 9.72e-4,0.01185 9.72e-4,0.01094 9.72e-4,0.01185 9.72e-4,0.01094 9.72e-4,0.01185 9.72e-4,0.01185 0.01179,-0.0027 0.01179,-0.0018 0.01277,-0.0018 0.01179,-0.0027 0.01179,-0.0018 0.01179,-0.0018 0.01277,-0.0018 0.01179,-0.0018 0.01179,-0.0018 0.01277,-0.0018 0.01179,-9.15e-4 0.01179,-0.0018 0.01179,-0.0018 0.01277,-9.15e-4 0.01179,-0.0018 0.01179,-9.15e-4 0.01277,-0.0018 0.01179,-9.15e-4 0.01277,-0.0018 0.01179,-9.14e-4 0.01179,-9.15e-4 0.01277,-9.15e-4 0.01179,-9.15e-4 0.01179,-9.15e-4 0.01277,-9.14e-4 0.01179,-9.15e-4 0.01277,-9.15e-4 0.01179,-9.15e-4 h 0.01179 l 0.01277,-9.15e-4 0.01179,-9.14e-4 h 0.01277 l 0.01179,-9.15e-4 h 0.01277 l 0.01179,-9.15e-4 h 0.01179 0.01277 0.01179 0.01277 0.01179 0.451878 0.01572 l 0.01572,9.15e-4 0.01473,9.15e-4 0.01572,0.0027 0.01473,0.0027 0.01473,0.0027 0.01473,0.0037 0.01375,0.0046 0.01473,0.0046 0.01375,0.0055 0.01375,0.0055 0.01277,0.0064 0.01277,0.0064 0.01277,0.0073 0.01277,0.0073 0.01179,0.0082 0.01179,0.0082 0.01081,0.0091 0.01081,0.0091 0.01081,0.0091 0.0098,0.01003 0.0098,0.01094 0.0098,0.01003 0.0088,0.01094 0.0079,0.01185 0.0088,0.01185 0.0069,0.01185 0.0069,0.01185 0.0069,0.01276 0.0059,0.01277 0.0059,0.01276 0.0049,0.01368 0.0039,0.01368 0.0039,0.01368 0.0039,0.01368 0.003,0.01459 0.0019,0.01459 9.72e-4,0.01368 9.72e-4,0.0155 9.72e-4,0.01459 v 0.429428 0.01185 l -9.72e-4,0.01185 v 0.01094 0.01185 0.01185 l -9.72e-4,0.01094 v 0.01185 l -9.72e-4,0.01185 v 0.01094 l -9.72e-4,0.01185 v 0.01185 l -9.72e-4,0.01094 -9.72e-4,0.01185 -9.72e-4,0.01094 v 0.01185 l -9.72e-4,0.01185 -9.72e-4,0.01094 -9.72e-4,0.01185 -0.0019,0.01185 -9.72e-4,0.01094 -9.72e-4,0.01185 -9.72e-4,0.01094 -0.0019,0.01185 -9.72e-4,0.01185 -0.0019,0.01094 -9.72e-4,0.01185 -0.0019,0.01094 -9.72e-4,0.01185 -0.0019,0.01094 -0.0019,0.01185 -0.0019,0.01094 -9.72e-4,0.01185 -0.0019,0.01094 -0.0019,0.01185 -0.0019,0.01094 -0.0019,0.01185 -0.003,0.01094 -0.0019,0.01185 -0.0019,0.01094 -0.0019,0.01185 0.01179,9.15e-4 0.01179,9.14e-4 0.01277,9.15e-4 0.01179,9.15e-4 0.01179,9.15e-4 0.01277,9.15e-4 0.01179,9.14e-4 0.01179,9.15e-4 0.01179,0.0018 0.01277,9.15e-4 0.01179,9.14e-4 0.01179,0.0018 0.01277,0.0018 0.01179,9.15e-4 0.01179,0.0018 0.01179,9.15e-4 0.01277,0.0018 0.01179,0.0018 0.01179,0.0018 0.01179,0.0018 0.01179,0.0018 0.01277,0.0018 0.01179,0.0018 0.01179,0.0018 0.01179,0.0027 0.01179,0.0018 0.01277,0.0018 0.01179,0.0027 0.01179,0.0018 0.01179,0.0027 0.01179,0.0018 0.01179,0.0027 0.01179,0.0018 0.01179,0.0027 0.01179,0.0027 0.01179,0.0027 0.01179,0.0027 0.01179,0.0027 0.01179,0.0027 0.01179,0.0027 0.436162,0.11032 0.01572,0.0037 0.01473,0.0055 0.01375,0.0046 0.01473,0.0064 0.01375,0.0055 0.01277,0.0073 0.01375,0.0064 0.01277,0.0082 0.01179,0.0082 0.01179,0.0082 0.01179,0.0082 0.01081,0.01003 0.01081,0.0091 0.01081,0.01003 0.0098,0.01003 0.0088,0.01094 0.0088,0.01094 0.0088,0.01185 0.0079,0.01094 0.0079,0.01185 0.0069,0.01185 0.0069,0.01277 0.0059,0.01277 0.0059,0.01276 0.0049,0.01277 0.0039,0.01368 0.0039,0.01277 0.0039,0.01368 0.003,0.01368 0.0019,0.01459 0.0019,0.01368 9.72e-4,0.01368 9.72e-4,0.01459 v 0.01368 l -9.72e-4,0.01459 -9.72e-4,0.01458 -0.0019,0.01459 -0.003,0.01459 -0.003,0.01368 -0.0039,0.01459 -0.115917,0.412105 -0.0039,0.01185 -0.003,0.01094 -0.003,0.01094 -0.0039,0.01094 -0.0039,0.01094 -0.003,0.01094 -0.0039,0.01094 -0.0039,0.01094 -0.003,0.01094 -0.0039,0.01094 -0.0039,0.01094 -0.0039,0.01094 -0.0039,0.01094 -0.0039,0.01094 -0.0039,0.01094 -0.0039,0.01094 -0.0049,0.01094 -0.0039,0.01003 -0.0039,0.01094 -0.0049,0.01094 -0.0039,0.01094 -0.0049,0.01094 -0.0039,0.01003 -0.0049,0.01094 -0.0039,0.01094 -0.0049,0.01003 -0.0049,0.01094 -0.0039,0.01094 -0.0049,0.01003 -0.0049,0.01094 -0.0049,0.01003 -0.0049,0.01094 -0.0049,0.01003 -0.0049,0.01094 -0.0049,0.01003 -0.0059,0.01094 -0.0049,0.01003 -0.0049,0.01094 -0.0059,0.01003 -0.0049,0.01003 0.01179,0.0046 0.01179,0.0037 0.01081,0.0037 0.01179,0.0037 0.01179,0.0046 0.01081,0.0037 0.01179,0.0046 0.01081,0.0037 0.01179,0.0046 0.01179,0.0046 0.01081,0.0037 0.01179,0.0046 0.01081,0.0046 0.01179,0.0046 0.01081,0.0046 0.01179,0.0046 0.01081,0.0046 0.01081,0.0046 0.01179,0.0046 0.01081,0.0055 0.01081,0.0046 0.01179,0.0046 0.01081,0.0055 0.01081,0.0046 0.01081,0.0046 0.01081,0.0055 0.01179,0.0055 0.01081,0.0046 0.01081,0.0055 0.01081,0.0055 0.01081,0.0055 0.01081,0.0046 0.01081,0.0055 0.01081,0.0055 0.01081,0.0055 0.01081,0.0055 0.01081,0.0064 0.01081,0.0055 0.0098,0.0055 0.01081,0.0055 0.378202,0.206052 0.01375,0.0073 0.01277,0.0082 0.01375,0.0082 0.01179,0.0082 0.01277,0.0091 0.01081,0.0091 0.01179,0.01003 0.01081,0.01003 0.0098,0.01003 0.0098,0.01094 0.0088,0.01094 0.0088,0.01185 0.0079,0.01094 0.0079,0.01185 0.0069,0.01277 0.0069,0.01185 0.0069,0.01276 0.0049,0.01276 0.0049,0.01277 0.0049,0.01368 0.0039,0.01276 0.0039,0.01368 0.003,0.01368 0.0019,0.01368 0.0019,0.01368 9.72e-4,0.01368 9.72e-4,0.01368 v 0.01459 0.01368 l -9.72e-4,0.01368 -0.0019,0.01459 -0.0019,0.01368 -0.0019,0.01368 -0.0039,0.01368 -0.0039,0.01368 -0.0039,0.01368 -0.0059,0.01368 -0.0049,0.01368 -0.0069,0.01368 -0.0069,0.01276 -0.0079,0.01277 -0.225939,0.370165 -0.0059,0.01003 -0.0059,0.0091 -0.0069,0.01003 -0.0059,0.01003 -0.0059,0.01003 -0.0069,0.01003 -0.0069,0.0091 -0.0059,0.01003 -0.0069,0.01003 -0.0059,0.0091 -0.0069,0.01003 -0.0069,0.0091 -0.0069,0.01003 -0.0069,0.0091 -0.0069,0.01003 -0.0069,0.0091 -0.0069,0.01003 -0.0069,0.0091 -0.0069,0.0091 -0.0069,0.01003 -0.0069,0.0091 -0.0069,0.0091 -0.0079,0.0091 -0.0069,0.01003 -0.0079,0.0091 -0.0069,0.0091 -0.0069,0.0091 -0.0079,0.0091 -0.0079,0.0091 -0.0069,0.0091 -0.0079,0.0091 -0.0079,0.0082 -0.0069,0.0091 -0.0079,0.0091 -0.0079,0.0091 -0.0079,0.0091 -0.0079,0.0082 -0.0079,0.0091 -0.0079,0.0082 -0.0079,0.0091 0.0098,0.0064 0.0098,0.0064 0.0098,0.0073 0.0098,0.0064 0.0098,0.0064 0.01081,0.0073 0.0098,0.0064 0.0098,0.0064 0.0088,0.0073 0.0098,0.0064 0.0098,0.0073 0.0098,0.0073 0.0098,0.0064 0.0098,0.0073 0.0088,0.0073 0.0098,0.0073 0.0098,0.0073 0.0088,0.0064 0.0098,0.0073 0.0098,0.0073 0.0088,0.0073 0.0098,0.0073 0.0088,0.0082 0.0088,0.0073 0.0098,0.0073 0.0088,0.0073 0.0098,0.0073 0.0088,0.0082 0.0088,0.0073 0.0088,0.0082 0.0098,0.0073 0.0088,0.0073 0.0088,0.0082 0.0088,0.0082 0.0088,0.0073 0.0088,0.0082 0.0088,0.0082 0.0088,0.0073 0.0088,0.0082 0.0079,0.0082 0.320244,0.301785 0.01081,0.01094 0.0098,0.01094 0.0098,0.01094 0.0088,0.01185 0.0088,0.01185 0.0079,0.01185 0.0079,0.01276 0.0069,0.01276 0.0069,0.01276 0.0059,0.01276 0.0049,0.01277 0.0049,0.01368 0.0039,0.01276 0.0039,0.01368 0.003,0.01368 0.003,0.01368 0.0019,0.01368 9.72e-4,0.01368 9.72e-4,0.01459 v 0.01368 0.01368 l -9.72e-4,0.01368 -9.72e-4,0.01368 -0.0019,0.01368 -0.003,0.01368 -0.003,0.01368 -0.0039,0.01368 -0.0039,0.01368 -0.0049,0.01277 -0.0049,0.01276 -0.0059,0.01368 -0.0069,0.01277 -0.0069,0.01185 -0.0079,0.01276 -0.0079,0.01185 -0.0088,0.01185 -0.0088,0.01185 -0.0098,0.01094 -0.0098,0.01094 -0.01081,0.01094 -0.320244,0.301785 -0.0079,0.0082 -0.0088,0.0082 -0.0088,0.0082 -0.0088,0.0082 -0.0088,0.0073 -0.0088,0.0082 -0.0088,0.0082 -0.0088,0.0073 -0.0088,0.0082 -0.0088,0.0073 -0.0088,0.0082 -0.0098,0.0073 -0.0088,0.0082 -0.0088,0.0073 -0.0088,0.0073 -0.0098,0.0073 -0.0088,0.0082 -0.0098,0.0073 -0.0088,0.0073 -0.0098,0.0073 -0.0088,0.0073 -0.0098,0.0073 -0.0088,0.0073 -0.0098,0.0073 -0.0098,0.0073 -0.0088,0.0073 -0.0098,0.0064 -0.0098,0.0073 -0.0098,0.0073 -0.0088,0.0064 -0.0098,0.0073 -0.0098,0.0073 -0.0098,0.0064 -0.0098,0.0064 -0.0098,0.0073 -0.0098,0.0064 -0.0098,0.0073 -0.0098,0.0064 -0.0098,0.0064 -0.01081,0.0064 0.0079,0.0091 0.0079,0.0082 0.0079,0.0091 0.0079,0.0091 0.0079,0.0082 0.0079,0.0091 0.0079,0.0091 0.0079,0.0091 0.0069,0.0082 0.0079,0.0091 0.0069,0.0091 0.0079,0.0091 0.0079,0.0091 0.0069,0.0091 0.0069,0.0091 0.0079,0.0091 0.0069,0.0091 0.0069,0.0091 0.0079,0.0091 0.0069,0.01003 0.0069,0.0091 0.0069,0.0091 0.0069,0.0091 0.0069,0.01003 0.0069,0.0091 0.0069,0.01003 0.0069,0.0091 0.0059,0.0091 0.0069,0.01003 0.0069,0.01003 0.0069,0.0091 0.0059,0.01003 0.0069,0.0091 0.0059,0.01003 0.0069,0.01003 0.0059,0.0091 0.0059,0.01003 0.0069,0.01003 0.0059,0.01003 0.0059,0.01003 0.21808,0.356488 0.0079,0.01277 0.0079,0.01368 0.0069,0.01276 0.0069,0.01368 0.0059,0.01368 0.0049,0.01276 0.0039,0.01368 0.0039,0.01458 0.0039,0.01368 0.0019,0.01368 0.003,0.01368 9.72e-4,0.01459 9.72e-4,0.01368 v 0.01368 0.01368 l -9.72e-4,0.01458 -9.72e-4,0.01368 -0.0019,0.01368 -0.0019,0.01368 -0.003,0.01368 -0.0039,0.01276 -0.0039,0.01368 -0.0049,0.01277 -0.0049,0.01368 -0.0059,0.01276 -0.0059,0.01185 -0.0069,0.01277 -0.0069,0.01185 -0.0079,0.01185 -0.0079,0.01185 -0.0088,0.01185 -0.0098,0.01094 -0.0088,0.01094 -0.01081,0.01003 -0.01081,0.01003 -0.01081,0.01003 -0.01179,0.0091 -0.01179,0.0091 -0.01277,0.0082 -0.01277,0.0082 -0.01375,0.0073 -0.390973,0.213347 -0.01081,0.0064 -0.0098,0.0055 -0.01081,0.0055 -0.01081,0.0055 -0.01081,0.0055 -0.01081,0.0055 -0.01081,0.0055 -0.01081,0.0055 -0.01081,0.0055 -0.01081,0.0055 -0.01081,0.0055 -0.01081,0.0046 -0.01081,0.0055 -0.01179,0.0055 -0.01081,0.0046 -0.01081,0.0055 -0.01081,0.0046 -0.01081,0.0046 -0.01179,0.0055 -0.01081,0.0046 -0.01081,0.0046 -0.01179,0.0046 -0.01081,0.0055 -0.01081,0.0046 -0.01179,0.0046 -0.01081,0.0046 -0.01179,0.0037 -0.01081,0.0046 -0.01179,0.0046 -0.01081,0.0046 -0.01179,0.0037 -0.01179,0.0046 -0.01081,0.0046 -0.01179,0.0037 -0.01081,0.0046 -0.01179,0.0037 -0.01179,0.0037 -0.01081,0.0046 -0.01179,0.0037 -0.01179,0.0037 0.0049,0.01003 0.0059,0.01094 0.0049,0.01003 0.0049,0.01094 0.0059,0.01003 0.0049,0.01003 0.0049,0.01094 0.0049,0.01003 0.0049,0.01094 0.0049,0.01094 0.0049,0.01003 0.0049,0.01094 0.0039,0.01003 0.0049,0.01094 0.0049,0.01094 0.0039,0.01003 0.0049,0.01094 0.0039,0.01094 0.0049,0.01094 0.0039,0.01003 0.0049,0.01094 0.0039,0.01094 0.0039,0.01094 0.0049,0.01094 0.0039,0.01094 0.0039,0.01003 0.0039,0.01094 0.0039,0.01094 0.0039,0.01094 0.0039,0.01094 0.0039,0.01094 0.003,0.01094 0.0039,0.01094 0.0039,0.01094 0.003,0.01094 0.0039,0.01094 0.0039,0.01094 0.003,0.01185 0.003,0.01094 0.0039,0.01094 0.114934,0.413016 0.0039,0.01368 0.003,0.01458 0.0019,0.01458 0.0019,0.01459 0.0019,0.01459 v 0.01368 0.01458 0.01458 l -0.0019,0.01368 -9.72e-4,0.01368 -0.003,0.01458 -0.003,0.01368 -0.003,0.01277 -0.0039,0.01368 -0.0049,0.01368 -0.0049,0.01276 -0.0059,0.01276 -0.0059,0.01276 -0.0069,0.01185 -0.0069,0.01276 -0.0079,0.01185 -0.0079,0.01094 -0.0079,0.01185 -0.0088,0.01094 -0.0098,0.01003 -0.0098,0.01094 -0.0098,0.01003 -0.01081,0.0091 -0.01179,0.0091 -0.01081,0.0091 -0.01277,0.0082 -0.01179,0.0082 -0.01277,0.0073 -0.01277,0.0073 -0.01375,0.0064 -0.01375,0.0064 -0.01375,0.0055 -0.01473,0.0055 -0.01473,0.0046 -0.01473,0.0046 -0.436161,0.110321 -0.01179,0.0027 -0.01179,0.0027 -0.01179,0.0027 -0.01179,0.0027 -0.01179,0.0027 -0.01179,0.0027 -0.01179,0.0018 -0.01179,0.0027 -0.01277,0.0027 -0.01179,0.0018 -0.01179,0.0027 -0.01179,0.0018 -0.01179,0.0027 -0.01179,0.0018 -0.01179,0.0018 -0.01179,0.0018 -0.01277,0.0027 -0.01179,0.0018 -0.01179,0.0018 -0.01179,0.0018 -0.01179,0.0018 -0.01277,0.0018 -0.01179,9.15e-4 -0.01179,0.0018 -0.01179,0.0018 -0.01277,0.0018 -0.01179,9.14e-4 -0.01179,0.0018 -0.01277,9.15e-4 -0.01179,0.0018 -0.01179,9.15e-4 -0.01179,9.15e-4 -0.01277,0.0018 -0.01179,9.14e-4 -0.01179,9.15e-4 -0.01277,9.15e-4 -0.01179,9.15e-4 -0.01179,9.15e-4 -0.01277,9.14e-4 -0.01179,9.15e-4 0.0019,0.01094 0.003,0.01185 0.0019,0.01094 0.0019,0.01185 0.0019,0.01094 0.0019,0.01185 0.0019,0.01094 0.0019,0.01185 0.0019,0.01094 0.0019,0.01185 9.72e-4,0.01094 0.0019,0.01185 0.0019,0.01094 9.72e-4,0.01185 0.0019,0.01185 9.72e-4,0.01094 0.0019,0.01185 9.72e-4,0.01094 9.72e-4,0.01185 0.0019,0.01185 9.72e-4,0.01094 9.72e-4,0.01185 9.72e-4,0.01094 9.72e-4,0.01185 9.71e-4,0.01185 9.72e-4,0.01094 9.72e-4,0.01185 v 0.01185 l 9.72e-4,0.01094 9.72e-4,0.01185 v 0.01185 l 9.72e-4,0.01094 v 0.01185 l 9.72e-4,0.01185 v 0.01094 0.01185 l 9.72e-4,0.01185 v 0.01094 0.01185 0.01185 0.426693 0.01458 l -9.72e-4,0.0155 -0.0019,0.01368 -0.0019,0.01458 -0.003,0.01459 -0.003,0.01368 -0.0039,0.01368 -0.0049,0.01368 -0.0049,0.01368 -0.0049,0.01276 -0.0069,0.01277 -0.0059,0.01276 -0.0069,0.01185 -0.0079,0.01185 -0.0079,0.01185 -0.0088,0.01185 -0.0088,0.01094 -0.0088,0.01003 -0.0098,0.01094 -0.01081,0.01003 -0.0098,0.0091 -0.01081,0.0091 -0.01179,0.0091 -0.01179,0.0082 -0.01179,0.0082 -0.01179,0.0073 -0.01277,0.0073 -0.01375,0.0064 -0.01277,0.0064 -0.01375,0.0055 -0.01375,0.0055 -0.01375,0.0046 -0.01473,0.0046 -0.01473,0.0037 -0.01473,0.0027 -0.01473,0.0027 -0.01473,0.0027 -0.01572,9.14e-4 -0.01572,9.15e-4 h -0.01572 -0.450895 -0.01277 -0.01179 -0.01277 -0.01179 -0.01277 l -0.01179,-9.15e-4 h -0.01179 l -0.01277,-9.14e-4 h -0.01179 l -0.01277,-9.15e-4 -0.01179,-9.15e-4 h -0.01277 l -0.01179,-9.15e-4 -0.01179,-9.15e-4 -0.01277,-9.15e-4 -0.01179,-9.14e-4 -0.01277,-9.15e-4 -0.01179,-9.15e-4 -0.01179,-9.15e-4 -0.01277,-9.15e-4 -0.01179,-9.14e-4 -0.01179,-0.0018 -0.01277,-9.15e-4 -0.01179,-0.0018 -0.01179,-9.15e-4 -0.01277,-0.0018 -0.01179,-9.15e-4 -0.01179,-0.0018 -0.01277,-0.0018 -0.01179,-9.15e-4 -0.01179,-0.0018 -0.01277,-0.0018 -0.01179,-0.0018 -0.01179,-0.0018 -0.01179,-0.0018 -0.01277,-0.0018 -0.01179,-0.0027 -0.01179,-0.0018 -0.01179,-0.0018 -0.01277,-0.0027 v 0.01185 l -9.72e-4,0.01185 -9.71e-4,0.01094 -9.72e-4,0.01185 -9.72e-4,0.01094 -0.0019,0.01185 -9.72e-4,0.01094 -9.72e-4,0.01185 -9.72e-4,0.01094 -0.0019,0.01185 -9.72e-4,0.01185 -9.72e-4,0.01094 -0.0019,0.01185 -0.0019,0.01094 -9.72e-4,0.01185 -0.0019,0.01094 -0.0019,0.01185 -9.72e-4,0.01094 -0.0019,0.01094 -0.0019,0.01185 -0.0019,0.01094 -0.0019,0.01185 -0.0019,0.01094 -0.0019,0.01185 -0.003,0.01094 -0.0019,0.01094 -0.0019,0.01185 -0.0019,0.01094 -0.003,0.01185 -0.0019,0.01094 -0.003,0.01094 -0.003,0.01185 -0.0019,0.01094 -0.003,0.01094 -0.003,0.01094 -0.0019,0.01185 -0.003,0.01094 -0.003,0.01094 -0.003,0.01185 -0.003,0.01094 -0.116899,0.412105 -0.003,0.01185 -0.0039,0.01185 -0.0049,0.01094 -0.0049,0.01094 -0.0049,0.01094 -0.0049,0.01094 -0.0059,0.01094 -0.0059,0.01003 -0.0069,0.01003 -0.0069,0.01003 -0.0069,0.0091 -0.0079,0.01003 -0.0069,0.0091 -0.0088,0.0082 -0.0079,0.0091 -0.0088,0.0082 -0.0088,0.0082 -0.0088,0.0073 -0.0098,0.0082 -0.0088,0.0073 -0.0098,0.0064 -0.01081,0.0064 -0.0098,0.0064 -0.01081,0.0064 -0.01081,0.0055 -0.01081,0.0055 -0.01081,0.0055 -0.01179,0.0046 -0.01081,0.0037 -0.01179,0.0046 -0.01179,0.0037 -0.01179,0.0027 -0.01277,0.0037 -0.01179,0.0018 -0.01277,0.0027 -0.01277,0.0018 -0.01179,9.15e-4 -0.01277,0.0018 h -0.01277 -0.01375 -0.0019 -0.003 -0.0019 -0.003 -0.0019 -0.003 -0.0019 -0.003 -0.0019 -0.003 l -0.003,-9.15e-4 h -0.0019 -0.003 -0.0019 l -0.003,-9.15e-4 h -0.0019 -0.003 -0.0019 l -0.003,-9.15e-4 h -0.0019 -0.003 l -0.0019,-9.15e-4 h -0.003 l -0.0019,-9.14e-4 h -0.003 -0.0019 l -0.003,-9.15e-4 h -0.0019 l -0.003,-9.15e-4 h -0.0019 l -0.003,-9.15e-4 h -0.0019 l -0.003,-9.15e-4 -0.0019,-9.14e-4 h -0.003 l -0.0019,-9.15e-4 h -0.003 l -0.0019,-9.15e-4 -0.003,-9.15e-4 h -0.0019 l -0.436161,-0.11032 -0.01179,-0.0037 -0.01179,-0.0027 -0.01081,-0.0037 -0.01179,-0.0027 -0.01179,-0.0037 -0.01179,-0.0037 -0.01179,-0.0037 -0.01179,-0.0027 -0.01081,-0.0037 -0.01179,-0.0037 -0.01179,-0.0037 -0.01179,-0.0037 -0.01081,-0.0037 -0.01179,-0.0037 -0.01179,-0.0046 -0.01081,-0.0037 -0.01179,-0.0037 -0.01179,-0.0037 -0.01081,-0.0046 -0.01179,-0.0037 -0.01081,-0.0046 -0.01179,-0.0037 -0.01081,-0.0046 -0.01179,-0.0046 -0.01081,-0.0037 -0.01179,-0.0046 -0.01081,-0.0046 -0.01179,-0.0046 -0.01081,-0.0046 -0.01081,-0.0046 -0.01179,-0.0046 -0.01081,-0.0046 -0.01081,-0.0046 -0.01179,-0.0046 -0.01081,-0.0046 -0.01081,-0.0055 -0.01081,-0.0046 -0.01081,-0.0055 -0.01179,-0.0046 -0.01081,-0.0055 -0.0039,0.01094 -0.0039,0.01094 -0.0039,0.01094 -0.0039,0.01094 -0.0049,0.01094 -0.0039,0.01094 -0.0049,0.01094 -0.0039,0.01094 -0.0049,0.01094 -0.0039,0.01003 -0.0049,0.01094 -0.0049,0.01094 -0.0039,0.01094 -0.0049,0.01003 -0.0049,0.01094 -0.0049,0.01094 -0.0049,0.01003 -0.0049,0.01094 -0.0049,0.01003 -0.0049,0.01094 -0.0049,0.01003 -0.0049,0.01094 -0.0059,0.01003 -0.0049,0.01094 -0.0059,0.01003 -0.0049,0.01094 -0.0049,0.01003 -0.0059,0.01003 -0.0059,0.01094 -0.0049,0.01003 -0.0059,0.01003 -0.0059,0.01094 -0.0059,0.01003 -0.0049,0.01003 -0.0059,0.01003 -0.0059,0.01003 -0.0059,0.01003 -0.0059,0.01003 -0.0069,0.01003 -0.0059,0.01003 -0.217098,0.3574 -0.0079,0.01368 -0.0079,0.01277 -0.0088,0.01185 -0.0088,0.01185 -0.0098,0.01094 -0.0098,0.01185 -0.01081,0.01003 -0.0098,0.01003 -0.01179,0.01003 -0.01081,0.0091 -0.01179,0.0082 -0.01179,0.0082 -0.01277,0.0082 -0.01277,0.0073 -0.01277,0.0064 -0.01277,0.0064 -0.01375,0.0055 -0.01277,0.0055 -0.01375,0.0055 -0.01473,0.0037 -0.01375,0.0046 -0.01375,0.0027 -0.01473,0.0027 -0.01473,0.0027 -0.01375,0.0018 -0.01473,9.15e-4 -0.01473,9.15e-4 h -0.01473 -0.01473 l -0.01473,-9.15e-4 -0.01473,-0.0018 -0.01473,-0.0018 -0.01473,-0.0027 -0.01473,-0.0037 -0.01473,-0.0037 -0.01473,-0.0037 -0.01375,-0.0055 -0.01473,-0.0055 -0.01375,-0.0055 -0.01375,-0.0064 -0.01375,-0.0073 -0.390973,-0.214258 -0.0039,-0.0018 -0.0039,-0.0018 -0.003,-0.0027 -0.0039,-0.0018 -0.0039,-0.0018 -0.0039,-0.0027 -0.0039,-0.0018 -0.0039,-0.0018 -0.0039,-0.0027 -0.0039,-0.0018 -0.003,-0.0027 -0.0039,-0.0018 -0.0039,-0.0027 -0.0039,-0.0018 -0.0039,-0.0018 -0.003,-0.0027 -0.0039,-0.0018 -0.0039,-0.0027 -0.0039,-0.0018 -0.0039,-0.0027 -0.003,-0.0018 -0.0039,-0.0027 -0.0039,-0.0027 -0.0039,-0.0018 -0.003,-0.0027 -0.0039,-0.0018 -0.0039,-0.0027 -0.0039,-0.0018 -0.0039,-0.0027 -0.003,-0.0018 -0.0039,-0.0027 -0.0039,-0.0027 -0.0039,-0.0018 -0.0069,-0.0046 -0.0079,-0.0055 -0.0069,-0.0046 -0.0039,-0.0018 v 3.161902 l 0.06876,-0.102114 0.07073,-0.100291 0.07368,-0.09756 0.07662,-0.09664 0.07761,-0.093 0.08055,-0.09208 0.0835,-0.08935 0.08546,-0.08753 0.08645,-0.08479 0.08939,-0.08297 0.09234,-0.08023 0.09332,-0.07841 0.09529,-0.07567 0.09725,-0.07385 0.09922,-0.0702 0.101181,-0.06929 0.102164,-0.06565 0.104129,-0.06382 0.106093,-0.06109 0.108058,-0.05835 0.10904,-0.05653 0.110022,-0.05288 0.111988,-0.05106 0.113951,-0.04741 0.113952,-0.04559 0.115917,-0.04285 0.116899,-0.04011 0.118864,-0.03738 0.118863,-0.03373 0.120829,-0.03191 0.120828,-0.02826 0.122793,-0.02644 0.122793,-0.0228 0.124758,-0.01915 0.124757,-0.01732 0.124758,-0.01368 0.126723,-0.01094 0.126722,-0.0082 0.127705,-0.0046 0.127704,-0.0018 h 2.285915 0.01572 l 0.01572,9.15e-4 0.01572,0.0018 0.01473,0.0018 0.01473,0.0027 0.01473,0.0027 0.01473,0.0037 0.01473,0.0046 0.01375,0.0046 0.01375,0.0055 0.01375,0.0055 0.01277,0.0064 0.01375,0.0064 0.01179,0.0073 0.01277,0.0073 0.01179,0.0082 0.01179,0.0082 0.01179,0.0091 0.01081,0.0091 0.0098,0.01003 0.01081,0.01003 0.0098,0.01003 0.0088,0.01094 0.0088,0.01094 0.0088,0.01094 0.0079,0.01185 0.0079,0.01185 0.0069,0.01276 0.0059,0.01185 0.0069,0.01277 0.0049,0.01368 0.0049,0.01277 0.0049,0.01368 0.0039,0.01368 0.003,0.01459 0.003,0.01368 0.0019,0.01458 0.0019,0.01459 9.72e-4,0.01458 v 0.01459 l -0.0039,0.193289 -0.01277,0.191464 -0.02063,0.18873 -0.02849,0.186906 -0.03536,0.184171 -0.04421,0.181435 -0.0501,0.1787 -0.05796,0.175966 -0.06582,0.17323 -0.07171,0.169583 -0.07859,0.165935 -0.08448,0.163202 -0.09234,0.159553 -0.09725,0.154995 -0.104129,0.151348 -0.110022,0.147702 -0.114934,0.143143 -0.121811,0.138584 -0.12574,0.134937 -0.132616,0.129466 -0.136546,0.124908 -0.141458,0.119437 -0.147351,0.114879 -0.151282,0.108497 -0.156192,0.103938 -0.160122,0.09847 -0.164052,0.093 -0.16798,0.08661 -0.172893,0.08023 -0.175839,0.07385 -0.178788,0.06838 -0.182715,0.06109 -0.186646,0.05561 -0.18861,0.04741 -0.192539,0.04103 -0.194505,0.03465 -0.19745,0.02644 -0.199416,0.01915 -0.202363,0.01185 -0.203345,0.0046 H 26.12017 v 1.441455 0.0155 l -9.72e-4,0.01458 -0.0019,0.01459 -0.0019,0.01368 -0.003,0.01459 -0.003,0.01368 -0.0039,0.01368 -0.0049,0.01368 -0.0049,0.01368 -0.0049,0.01277 -0.0059,0.01277 -0.0069,0.01276 -0.0069,0.01185 -0.0079,0.01277 -0.0079,0.01094 -0.0088,0.01185 -0.0088,0.01094 -0.0088,0.01094 -0.0098,0.01003 -0.0098,0.01003 -0.01081,0.0091 -0.01081,0.0091 -0.01179,0.0091 -0.01179,0.0082 -0.01179,0.0082 -0.01179,0.0073 -0.01277,0.0073 -0.01277,0.0073 -0.01375,0.0055 -0.01375,0.0064 -0.01375,0.0046 -0.01375,0.0055 -0.01473,0.0037 -0.01375,0.0037 -0.01473,0.0037 -0.01572,0.0018 -0.01473,0.0027 -0.01572,9.15e-4 -0.01572,9.14e-4 -0.01572,9.15e-4 -0.01572,-9.15e-4 -0.01473,-9.14e-4 -0.01572,-9.15e-4 -0.01572,-0.0027 -0.01473,-0.0018 -0.01473,-0.0037 -0.01473,-0.0037 -0.01375,-0.0037 -0.01473,-0.0055 -0.01375,-0.0046 -0.01277,-0.0064 -0.01375,-0.0055 -0.01277,-0.0073 -0.01277,-0.0073 -0.01277,-0.0073 -0.01179,-0.0082 -0.01179,-0.0082 -0.01081,-0.0091 -0.01081,-0.0091 -0.01081,-0.0091 -0.0098,-0.01003 -0.0098,-0.01003 -0.0098,-0.01094 -0.0088,-0.01094 -0.0079,-0.01185 -0.0079,-0.01094 -0.0079,-0.01277 -0.0069,-0.01185 -0.0069,-0.01276 -0.0059,-0.01277 -0.0059,-0.01277 -0.0049,-0.01368 -0.0039,-0.01368 -0.0039,-0.01368 -0.0039,-0.01368 -0.0019,-0.01459 -0.003,-0.01368 -9.72e-4,-0.01459 -9.72e-4,-0.01458 -9.72e-4,-0.0155 v -7.061021 l -0.111005,0.105761 -0.01179,0.01003 -0.01179,0.01003 -0.01179,0.0091 -0.01179,0.0082 -0.01277,0.0082 -0.01277,0.0082 -0.01277,0.0073 -0.01375,0.0064 -0.01375,0.0055 -0.01277,0.0064 -0.01473,0.0046 -0.01375,0.0046 -0.01375,0.0037 -0.01473,0.0037 -0.01375,0.0027 -0.01473,0.0027 -0.01473,0.0018 -0.01473,9.15e-4 -0.01473,9.15e-4 h -0.01375 -0.01473 l -0.01473,-9.15e-4 -0.01473,-9.15e-4 -0.01473,-0.0018 -0.01375,-0.0027 -0.01473,-0.0027 -0.01473,-0.0037 -0.01375,-0.0037 -0.01375,-0.0046 -0.01375,-0.0046 -0.01375,-0.0064 -0.01375,-0.0055 -0.01277,-0.0064 -0.01375,-0.0073 -0.01277,-0.0082 -0.01277,-0.0082 -0.01179,-0.0082 -0.01179,-0.0091 -0.01179,-0.01003 -0.01179,-0.01003 -0.111005,-0.105761 v 7.059575 l -9.72e-4,0.0155 -9.72e-4,0.01459 -9.72e-4,0.01458 -0.0019,0.01368 -0.003,0.01459 -0.0039,0.01368 -0.0039,0.01368 -0.0039,0.01368 -0.0049,0.01368 -0.0059,0.01277 -0.0059,0.01277 -0.0069,0.01276 -0.0069,0.01185 -0.0069,0.01277 -0.0088,0.01094 -0.0079,0.01185 -0.0088,0.01094 -0.0098,0.01094 -0.0098,0.01003 -0.0098,0.01003 -0.01081,0.0091 -0.01081,0.0091 -0.01081,0.0091 -0.01179,0.0082 -0.01179,0.0082 -0.01277,0.0073 -0.01277,0.0073 -0.01277,0.0073 -0.01277,0.0055 -0.01375,0.0064 -0.01375,0.0046 -0.01473,0.0055 -0.01375,0.0037 -0.01473,0.0037 -0.01473,0.0037 -0.01473,0.0018 -0.01572,0.0027 -0.01473,9.15e-4 -0.01572,9.14e-4 -0.01572,9.15e-4 -0.01572,-9.15e-4 -0.01572,-9.14e-4 -0.01572,-9.15e-4 -0.01473,-0.0027 -0.01473,-0.0018 -0.01473,-0.0037 -0.01473,-0.0037 -0.01473,-0.0037 -0.01375,-0.0055 -0.01375,-0.0046 -0.01375,-0.0064 -0.01277,-0.0055 -0.01375,-0.0073 -0.01179,-0.0073 -0.01277,-0.0073 -0.01179,-0.0082 -0.01179,-0.0082 -0.01179,-0.0091 -0.01081,-0.0091 -0.0098,-0.0091 -0.01081,-0.01003 -0.0098,-0.01003 -0.0088,-0.01094 -0.0088,-0.01094 -0.0088,-0.01185 -0.0079,-0.01094 -0.0079,-0.01277 -0.0069,-0.01185 -0.0059,-0.01276 -0.0069,-0.01277 -0.0049,-0.01277 -0.0049,-0.01368 -0.0049,-0.01368 -0.0039,-0.01368 -0.003,-0.01368 -0.003,-0.01459 -0.0019,-0.01368 -0.0019,-0.01458 -9.72e-4,-0.01459 v -0.0155 -2.522775 h -1.906521 l -0.204327,-0.0035 -0.202363,-0.01185 -0.199416,-0.01915 -0.197451,-0.02644 -0.194504,-0.03465 -0.19254,-0.04103 -0.188609,-0.04741 -0.185663,-0.05561 -0.183699,-0.06109 -0.178786,-0.06838 -0.17584,-0.07385 -0.172893,-0.08114 -0.167981,-0.08662 -0.164051,-0.09208 -0.160122,-0.09847 -0.156193,-0.103938 -0.15128,-0.108497 -0.14637,-0.114878 -0.14244,-0.119438 -0.136545,-0.124908 -0.131635,-0.129466 -0.126722,-0.134938 -0.121811,-0.138583 -0.114934,-0.143143 -0.110022,-0.147701 -0.104129,-0.151348 -0.09725,-0.154996 -0.09136,-0.159554 -0.08546,-0.1632 -0.07859,-0.165937 -0.07171,-0.169583 -0.06483,-0.173229 -0.05796,-0.175965 -0.05108,-0.178701 -0.04322,-0.181436 -0.03635,-0.185082 -0.02849,-0.185994 -0.02063,-0.18873 -0.01179,-0.191464 -0.0049,-0.193288 v -0.01459 l 9.84e-4,-0.01458 0.002,-0.01459 0.002,-0.01458 0.0029,-0.01368 0.0029,-0.01459 0.0039,-0.01368 0.0049,-0.01368 0.0049,-0.01276 0.0059,-0.01368 0.0059,-0.01277 0.0059,-0.01185 0.0079,-0.01276 0.0069,-0.01185 0.0079,-0.01185 0.0088,-0.01094 0.0088,-0.01094 0.0098,-0.01094 0.0088,-0.01003 0.01081,-0.01003 0.0098,-0.01003 0.01179,-0.0091 0.01081,-0.0091 0.01179,-0.0082 0.01179,-0.0082 0.01277,-0.0073 0.01277,-0.0073 0.01277,-0.0064 0.01277,-0.0064 0.01375,-0.0055 0.01375,-0.0055 0.01375,-0.0046 0.01473,-0.0046 0.01473,-0.0037 0.01473,-0.0027 0.01473,-0.0027 0.01572,-0.0018 0.01473,-0.0018 0.01572,-9.15e-4 h 0.01572 2.285915 l 0.127704,0.0018 0.126723,0.0046 0.126722,0.0073 0.12574,0.01094 0.12574,0.01459 0.124758,0.01641 0.123775,0.02006 0.122793,0.0228 0.121811,0.02553 0.120828,0.02826 0.120829,0.031 0.118863,0.03373 0.117881,0.03738 0.116899,0.03921 0.115917,0.04285 0.113952,0.04468 0.113952,0.04741 0.111005,0.05106 0.111005,0.05288 0.10904,0.05561 0.107075,0.05744 0.106094,0.06109 0.104128,0.06291 0.103146,0.06565 0.101182,0.06838 0.09823,0.0702 0.09823,0.07294 0.09529,0.07567 0.09332,0.0775 0.09136,0.08023 0.08939,0.08206 0.08841,0.08388 0.08448,0.08662 0.0835,0.08935 0.08055,0.09117 0.07957,0.093 0.07564,0.09573 0.07368,0.09756 0.07171,0.09938 0.06876,0.101203 v -2.067819 l -0.003,0.0018 -0.0039,0.0027 -0.01081,0.0064 -0.0079,0.0055 -0.0039,0.0018 -0.003,0.0027 -0.0039,0.0018 -0.0039,0.0027 -0.0039,0.0027 -0.003,0.0018 -0.0039,0.0027 -0.0039,0.0018 -0.0039,0.0027 -0.003,0.0018 -0.0039,0.0027 -0.0039,0.0018 -0.0039,0.0027 -0.0039,0.0018 -0.003,0.0027 -0.0039,0.0018 -0.0039,0.0027 -0.0039,0.0018 -0.0039,0.0027 -0.003,0.0018 -0.0039,0.0027 -0.0039,0.0018 -0.0039,0.0027 -0.0039,0.0018 -0.0039,0.0018 -0.003,0.0027 -0.0039,0.0018 -0.0039,0.0027 -0.0039,0.0018 -0.0039,0.0018 -0.0039,0.0027 -0.0039,0.0018 -0.0039,0.0018 -0.37722,0.206964 -0.01375,0.0073 -0.01375,0.0073 -0.01375,0.0064 -0.01375,0.0064 -0.01473,0.0046 -0.01375,0.0055 -0.01473,0.0037 -0.01473,0.0037 -0.01473,0.0037 -0.01473,0.0027 -0.01473,0.0018 -0.01473,9.14e-4 -0.01473,9.15e-4 -0.01473,9.15e-4 h -0.01473 l -0.01473,-9.15e-4 -0.01375,-0.0018 -0.01473,-9.15e-4 -0.01473,-0.0027 -0.01473,-0.0027 -0.01375,-0.0037 -0.01375,-0.0037 -0.01375,-0.0046 -0.01375,-0.0046 -0.01375,-0.0055 -0.01375,-0.0055 -0.01277,-0.0064 -0.01277,-0.0073 -0.01277,-0.0073 -0.01179,-0.0073 -0.01277,-0.0082 -0.01179,-0.0091 -0.01081,-0.0091 -0.01081,-0.0091 -0.01081,-0.01003 -0.01081,-0.01094 -0.0098,-0.01094 -0.0088,-0.01185 -0.0088,-0.01185 -0.0088,-0.01185 -0.0079,-0.01277 -0.225939,-0.370165 -0.0059,-0.01003 -0.0059,-0.01003 -0.0059,-0.01003 -0.0059,-0.01003 -0.0059,-0.01003 -0.0059,-0.01003 -0.0059,-0.01003 -0.0059,-0.01094 -0.0059,-0.01003 -0.0049,-0.01003 -0.0059,-0.01003 -0.0059,-0.01094 -0.0049,-0.01003 -0.0059,-0.01003 -0.0049,-0.01094 -0.0049,-0.01003 -0.0059,-0.01094 -0.0049,-0.01003 -0.0049,-0.01094 -0.0049,-0.01003 -0.0059,-0.01094 -0.0049,-0.01003 -0.0049,-0.01094 -0.0049,-0.01094 -0.0049,-0.01003 -0.0039,-0.01094 -0.0049,-0.01094 -0.0049,-0.01003 -0.0049,-0.01094 -0.0039,-0.01094 -0.0049,-0.01094 -0.0039,-0.01003 -0.0049,-0.01094 -0.0039,-0.01094 -0.0049,-0.01094 -0.0039,-0.01094 -0.0039,-0.01094 -0.0039,-0.01094 -0.0049,-0.01094 -0.0039,-0.01094 -0.01081,0.0055 -0.01081,0.0046 -0.01081,0.0055 -0.01081,0.0046 -0.01179,0.0046 -0.01081,0.0055 -0.01081,0.0046 -0.01081,0.0046 -0.01179,0.0046 -0.01081,0.0046 -0.01081,0.0046 -0.01179,0.0046 -0.01081,0.0046 -0.01179,0.0046 -0.01081,0.0037 -0.01179,0.0046 -0.01081,0.0046 -0.01179,0.0037 -0.01081,0.0046 -0.01179,0.0046 -0.01081,0.0037 -0.01179,0.0037 -0.01081,0.0046 -0.01179,0.0037 -0.01179,0.0037 -0.01081,0.0037 -0.01179,0.0046 -0.01179,0.0037 -0.01081,0.0037 -0.01179,0.0037 -0.01179,0.0037 -0.01179,0.0027 -0.01179,0.0037 -0.01081,0.0037 -0.01179,0.0037 -0.01179,0.0027 -0.01179,0.0037 -0.01179,0.0037 -0.01179,0.0027 -0.01179,0.0027 -0.435178,0.11032 -0.003,9.15e-4 -0.0019,9.14e-4 h -0.003 l -0.0019,9.15e-4 -0.003,9.15e-4 h -0.0019 l -0.003,9.15e-4 h -0.0019 l -0.003,9.15e-4 h -0.0019 l -0.003,9.15e-4 h -0.0019 l -0.003,9.14e-4 h -0.0019 l -0.003,9.15e-4 h -0.0019 l -0.003,9.15e-4 h -0.0019 -0.003 l -0.0019,9.15e-4 h -0.003 -0.0019 l -0.003,9.15e-4 h -0.0019 -0.003 l -0.0019,9.14e-4 h -0.003 -0.0019 -0.003 -0.0019 l -0.003,9.15e-4 h -0.0019 -0.003 -0.003 -0.0019 -0.003 -0.0019 -0.003 -0.0019 -0.003 -0.01277 l -0.01277,-9.15e-4 -0.01277,-9.14e-4 -0.01277,-9.15e-4 -0.01179,-0.0018 -0.01277,-0.0027 -0.01277,-0.0018 -0.01179,-0.0037 -0.01179,-0.0027 -0.01179,-0.0037 -0.01179,-0.0046 -0.01179,-0.0037 -0.01081,-0.0055 -0.01081,-0.0046 -0.01179,-0.0055 -0.01081,-0.0055 -0.0098,-0.0064 -0.01081,-0.0064 -0.0098,-0.0064 -0.0098,-0.0073 -0.0098,-0.0064 -0.0088,-0.0082 -0.0098,-0.0073 -0.0088,-0.0082 -0.0079,-0.0082 -0.0088,-0.0091 -0.0079,-0.0082 -0.0079,-0.0091 -0.0069,-0.01003 -0.0079,-0.0091 -0.0059,-0.01003 -0.0069,-0.01003 -0.0059,-0.01003 -0.0059,-0.01094 -0.0059,-0.01094 -0.0049,-0.01094 -0.0049,-0.01094 -0.0039,-0.01185 -0.0039,-0.01094 -0.003,-0.01185 -0.116899,-0.412104 -0.003,-0.01185 -0.003,-0.01094 -0.003,-0.01094 -0.003,-0.01094 -0.003,-0.01185 -0.003,-0.01094 -0.0019,-0.01094 -0.003,-0.01185 -0.0019,-0.01094 -0.003,-0.01094 -0.0019,-0.01185 -0.003,-0.01094 -0.0019,-0.01094 -0.003,-0.01185 -0.0019,-0.01094 -0.0019,-0.01185 -0.0019,-0.01094 -0.0019,-0.01094 -0.0019,-0.01185 -0.0019,-0.01094 -0.0019,-0.01185 -0.0019,-0.01094 -0.0019,-0.01185 -0.0019,-0.01094 -9.72e-4,-0.01185 -0.0019,-0.01094 -9.72e-4,-0.01185 -0.0019,-0.01094 -9.72e-4,-0.01185 -0.0019,-0.01094 -9.72e-4,-0.01185 -9.72e-4,-0.01094 -0.0019,-0.01185 -9.72e-4,-0.01094 -9.72e-4,-0.01185 -9.72e-4,-0.01094 -9.72e-4,-0.01185 -9.72e-4,-0.01185 -9.72e-4,-0.01094 -9.72e-4,-0.01185 -0.01179,0.0027 -0.01179,0.0018 -0.01179,0.0018 -0.01277,0.0018 -0.01179,0.0027 -0.01179,0.0018 -0.01179,0.0018 -0.01277,0.0018 -0.01179,0.0018 -0.01179,9.14e-4 -0.01277,0.0018 -0.01179,0.0018 -0.01179,0.0018 -0.01277,9.15e-4 -0.01179,0.0018 -0.01179,9.15e-4 -0.01277,0.0018 -0.01179,9.15e-4 -0.01179,9.15e-4 -0.01277,0.0018 -0.01179,9.15e-4 -0.01179,9.15e-4 -0.01277,9.15e-4 -0.01179,9.15e-4 -0.01277,9.14e-4 -0.01179,9.15e-4 -0.01179,9.15e-4 -0.01277,9.15e-4 h -0.01179 l -0.01277,9.15e-4 -0.01179,9.14e-4 h -0.01179 l -0.01277,9.15e-4 h -0.01179 -0.01277 l -0.01179,9.15e-4 h -0.01277 -0.01179 -0.01179 -0.01277 -0.451878 -0.01572 l -0.01473,-9.15e-4 -0.01572,-0.0018 -0.01473,-0.0018 -0.01572,-0.0027 -0.01473,-0.0027 -0.01473,-0.0037 -0.01375,-0.0046 -0.01375,-0.0046 -0.01473,-0.0055 -0.01277,-0.0055 -0.01375,-0.0064 -0.01277,-0.0064 -0.01277,-0.0073 -0.01179,-0.0073 -0.01277,-0.0082 -0.01081,-0.0082 -0.01179,-0.0091 -0.01081,-0.0091 -0.01081,-0.01003 -0.0098,-0.0091 -0.0098,-0.01094 -0.0098,-0.01094 -0.0088,-0.01094 -0.0079,-0.01094 -0.0079,-0.01185 -0.0079,-0.01185 -0.0069,-0.01185 -0.0069,-0.01276 -0.0059,-0.01277 -0.0059,-0.01368 -0.0049,-0.01276 -0.0039,-0.01368 -0.0039,-0.01368 -0.0039,-0.01368 -0.0019,-0.01459 -0.003,-0.01458 -9.72e-4,-0.01459 -9.72e-4,-0.01458 v -0.01459 -0.427605 -0.01094 -0.01185 -0.01185 -0.01094 -0.01185 l 9.72e-4,-0.01185 v -0.01094 l 9.72e-4,-0.01185 v -0.01185 l 9.72e-4,-0.01094 v -0.01185 l 9.72e-4,-0.01185 9.72e-4,-0.01094 9.72e-4,-0.01185 9.72e-4,-0.01094 9.72e-4,-0.01185 9.72e-4,-0.01185 9.72e-4,-0.01094 9.72e-4,-0.01185 9.72e-4,-0.01185 9.72e-4,-0.01094 9.72e-4,-0.01185 0.0019,-0.01094 9.72e-4,-0.01185 0.0019,-0.01185 9.72e-4,-0.01094 0.0019,-0.01185 9.72e-4,-0.01094 0.0019,-0.01185 0.0019,-0.01094 0.0019,-0.01185 0.0019,-0.01094 0.0019,-0.01185 0.0019,-0.01094 0.0019,-0.01185 0.0019,-0.01094 0.0019,-0.01185 0.0019,-0.01094 0.0019,-0.01185 0.003,-0.01094 -0.01277,-9.15e-4 -0.01179,-9.15e-4 -0.01179,-9.15e-4 -0.01277,-9.15e-4 -0.01179,-9.14e-4 -0.01179,-9.15e-4 -0.01277,-9.15e-4 -0.01179,-0.0018 -0.01179,-9.14e-4 -0.01277,-9.15e-4 -0.01179,-0.0018 -0.01179,-9.15e-4 -0.01179,-0.0018 -0.01277,-0.0018 -0.01179,-9.15e-4 -0.01179,-0.0018 -0.01179,-0.0018 -0.01277,-0.0018 -0.01179,-9.15e-4 -0.01179,-0.0018 -0.01179,-0.0018 -0.01277,-0.0018 -0.01179,-0.0027 -0.01179,-0.0018 -0.01179,-0.0018 -0.01179,-0.0018 -0.01179,-0.0027 -0.01179,-0.0018 -0.01277,-0.0018 -0.01179,-0.0027 -0.01179,-0.0027 -0.01179,-0.0018 -0.01179,-0.0027 -0.01179,-0.0027 -0.01179,-0.0018 -0.01179,-0.0027 -0.01179,-0.0027 -0.01179,-0.0027 -0.01179,-0.0027 -0.01179,-0.0027 -0.436161,-0.11032 -0.01473,-0.0046 -0.01572,-0.0046 -0.01375,-0.0055 -0.01473,-0.0055 -0.01375,-0.0064 -0.01277,-0.0064 -0.01277,-0.0073 -0.01277,-0.0073 -0.01277,-0.0082 -0.01179,-0.0082 -0.01179,-0.0091 -0.01081,-0.0091 -0.01081,-0.01003 -0.0098,-0.01003 -0.0098,-0.01003 -0.0098,-0.01094 -0.0088,-0.01094 -0.0088,-0.01094 -0.0079,-0.01185 -0.0079,-0.01185 -0.0069,-0.01185 -0.0059,-0.01185 -0.0069,-0.01277 -0.0049,-0.01276 -0.0049,-0.01368 -0.0049,-0.01277 -0.0039,-0.01368 -0.0039,-0.01368 -0.003,-0.01368 -0.0019,-0.01368 -0.0019,-0.01368 -9.72e-4,-0.01459 -9.72e-4,-0.01368 v -0.01459 l 9.72e-4,-0.01459 9.72e-4,-0.01368 0.0019,-0.01459 0.003,-0.01458 0.003,-0.01459 0.0039,-0.01459 0.115916,-0.412105 0.0039,-0.01094 0.003,-0.01094 0.0039,-0.01094 0.003,-0.01094 0.0039,-0.01094 0.003,-0.01185 0.0039,-0.01094 0.0039,-0.01094 0.0039,-0.01094 0.003,-0.01094 0.0039,-0.01094 0.0039,-0.01094 0.0039,-0.01003 0.0039,-0.01094 0.0039,-0.01094 0.0049,-0.01094 0.0039,-0.01094 0.0039,-0.01094 0.0039,-0.01094 0.0049,-0.01003 0.0039,-0.01094 0.0049,-0.01094 0.0039,-0.01094 0.0049,-0.01003 0.004,-0.01094 0.0049,-0.01094 0.0049,-0.01003 0.0049,-0.01094 0.0039,-0.01094 0.0049,-0.01003 0.0049,-0.01094 0.0049,-0.01003 0.0049,-0.01094 0.0049,-0.01003 0.0059,-0.01094 0.0049,-0.01003 0.0049,-0.01094 0.0049,-0.01003 0.0059,-0.01003 0.0049,-0.01094 -0.01179,-0.0037 -0.01081,-0.0037 -0.01179,-0.0037 -0.01179,-0.0046 -0.01081,-0.0037 -0.01179,-0.0046 -0.01179,-0.0037 -0.01081,-0.0046 -0.01179,-0.0037 -0.01081,-0.0046 -0.01179,-0.0046 -0.01179,-0.0046 -0.01081,-0.0037 -0.01179,-0.0046 -0.01081,-0.0046 -0.01081,-0.0046 -0.01179,-0.0046 -0.01081,-0.0046 -0.01179,-0.0055 -0.01081,-0.0046 -0.01081,-0.0046 -0.01081,-0.0046 -0.01179,-0.0055 -0.01081,-0.0046 -0.01081,-0.0055 -0.01081,-0.0046 -0.01179,-0.0055 -0.01081,-0.0055 -0.01081,-0.0046 -0.01081,-0.0055 -0.01081,-0.0055 -0.01081,-0.0055 -0.01081,-0.0055 -0.01081,-0.0055 -0.01081,-0.0055 -0.01081,-0.0055 -0.01081,-0.0055 -0.0098,-0.0055 -0.01081,-0.0055 -0.01081,-0.0064 -0.378202,-0.205141 -0.01375,-0.0082 -0.01277,-0.0073 -0.01277,-0.0082 -0.01277,-0.0082 -0.01179,-0.0091 -0.01179,-0.0091 -0.01179,-0.01003 -0.0098,-0.01003 -0.01081,-0.01094 -0.0098,-0.01003 -0.0088,-0.01185 -0.0088,-0.01094 -0.0079,-0.01185 -0.0079,-0.01185 -0.0069,-0.01185 -0.0069,-0.01277 -0.0059,-0.01276 -0.0059,-0.01277 -0.0049,-0.01276 -0.0049,-0.01276 -0.0039,-0.01368 -0.0039,-0.01368 -0.003,-0.01277 -0.0019,-0.01368 -0.0019,-0.01459 -9.72e-4,-0.01368 -9.72e-4,-0.01368 v -0.01368 -0.01368 l 9.72e-4,-0.01459 0.0019,-0.01368 0.0019,-0.01368 0.003,-0.01459 0.003,-0.01368 0.0039,-0.01368 0.0049,-0.01368 0.0049,-0.01368 0.0059,-0.01277 0.0059,-0.01368 0.0069,-0.01368 0.0079,-0.01276 0.225939,-0.369253 0.0059,-0.01003 0.0059,-0.01003 0.0069,-0.01003 0.0059,-0.0091 0.0069,-0.01003 0.0059,-0.01003 0.0059,-0.0091 0.0069,-0.01003 0.0069,-0.01003 0.0059,-0.0091 0.0069,-0.01003 0.0069,-0.0091 0.0069,-0.01003 0.0059,-0.0091 0.0069,-0.01003 0.0069,-0.0091 0.0069,-0.0091 0.0069,-0.01003 0.0069,-0.0091 0.0069,-0.0091 0.0079,-0.0091 0.0069,-0.01003 0.0069,-0.0091 0.0069,-0.0091 0.0079,-0.0091 0.0069,-0.0091 0.0079,-0.0091 0.0069,-0.0091 0.0079,-0.0091 0.0069,-0.0091 0.0079,-0.0082 0.0079,-0.0091 0.0069,-0.0091 0.0079,-0.0091 0.0079,-0.0082 0.0079,-0.0091 0.0079,-0.0091 0.0079,-0.0082 0.0079,-0.0091 0.0079,-0.0082 -0.0098,-0.0073 -0.0098,-0.0064 -0.01081,-0.0064 -0.0098,-0.0073 -0.0098,-0.0064 -0.0098,-0.0064 -0.0098,-0.0073 -0.0098,-0.0064 -0.0088,-0.0073 -0.0098,-0.0064 -0.0098,-0.0073 -0.0098,-0.0073 -0.0098,-0.0073 -0.0088,-0.0064 -0.0098,-0.0073 -0.0098,-0.0073 -0.0088,-0.0073 -0.0098,-0.0073 -0.0098,-0.0073 -0.0088,-0.0073 -0.0098,-0.0073 -0.0088,-0.0073 -0.0098,-0.0073 -0.0088,-0.0073 -0.0088,-0.0082 -0.0098,-0.0073 -0.0088,-0.0073 -0.0088,-0.0082 -0.0088,-0.0073 -0.0098,-0.0073 -0.0088,-0.0082 -0.0088,-0.0082 -0.0088,-0.0073 -0.0088,-0.0082 -0.0088,-0.0073 -0.0088,-0.0082 -0.0088,-0.0082 -0.0088,-0.0082 -0.0079,-0.0073 -0.0088,-0.0082 -0.319262,-0.302697 -0.01081,-0.01003 -0.01081,-0.01094 -0.0098,-0.01185 -0.0088,-0.01185 -0.0088,-0.01185 -0.0079,-0.01185 -0.0079,-0.01185 -0.0069,-0.01276 -0.0069,-0.01277 -0.0059,-0.01276 -0.0049,-0.01368 -0.0049,-0.01276 -0.0039,-0.01368 -0.0039,-0.01368 -0.003,-0.01368 -0.0019,-0.01368 -0.0019,-0.01368 -0.0019,-0.01368 -9.72e-4,-0.01368 v -0.01368 -0.01368 l 9.72e-4,-0.01368 0.0019,-0.01459 0.0019,-0.01368 0.0019,-0.01368 0.003,-0.01276 0.0039,-0.01368 0.0039,-0.01368 0.0049,-0.01276 0.0049,-0.01368 0.0059,-0.01276 0.0069,-0.01276 0.0069,-0.01277 0.0079,-0.01185 0.0079,-0.01276 0.0088,-0.01185 0.0088,-0.01094 0.0098,-0.01185 0.01081,-0.01094 0.01081,-0.01094 0.319262,-0.301784 0.0088,-0.0082 0.0079,-0.0082 0.0088,-0.0073 0.0088,-0.0082 0.0088,-0.0082 0.0088,-0.0073 0.0088,-0.0082 0.0098,-0.0073 0.0088,-0.0082 0.0088,-0.0073 0.0088,-0.0082 0.0088,-0.0073 0.0098,-0.0073 0.0088,-0.0082 0.0088,-0.0073 0.0098,-0.0073 0.0088,-0.0073 0.0098,-0.0073 0.0088,-0.0073 0.0098,-0.0073 0.0088,-0.0073 0.0098,-0.0073 0.0088,-0.0073 0.0098,-0.0073 0.0098,-0.0073 0.0088,-0.0073 0.0098,-0.0064 0.0098,-0.0073 0.0098,-0.0073 0.0098,-0.0064 0.0098,-0.0073 0.0098,-0.0064 0.0098,-0.0073 0.0098,-0.0064 0.0098,-0.0073 0.0098,-0.0064 0.0098,-0.0064 0.0098,-0.0064 0.0098,-0.0073 0.0098,-0.0064 -0.0079,-0.0082 -0.0079,-0.0091 -0.0079,-0.0091 -0.0079,-0.0082 -0.0079,-0.0091 -0.0079,-0.0091 -0.0069,-0.0082 -0.0079,-0.0091 -0.0079,-0.0091 -0.0079,-0.0091 -0.0069,-0.0091 -0.0079,-0.0091 -0.0069,-0.0091 -0.0079,-0.0091 -0.0069,-0.0091 -0.0079,-0.0091 -0.0069,-0.0091 -0.0069,-0.01003 -0.0079,-0.0091 -0.0069,-0.0091 -0.0069,-0.0091 -0.0069,-0.01003 -0.0069,-0.0091 -0.0069,-0.0091 -0.0069,-0.01003 -0.0069,-0.0091 -0.0069,-0.01003 -0.0069,-0.0091 -0.0069,-0.01003 -0.0059,-0.0091 -0.0069,-0.01003 -0.0069,-0.01003 -0.0059,-0.0091 -0.0069,-0.01003 -0.0059,-0.01003 -0.0069,-0.01003 -0.0059,-0.0091 -0.0069,-0.01003 -0.0059,-0.01003 -0.0059,-0.01003 -0.218081,-0.357401 -0.0079,-0.01276 -0.0079,-0.01276 -0.0069,-0.01368 -0.0069,-0.01276 -0.0049,-0.01368 -0.0059,-0.01368 -0.004,-0.01368 -0.0039,-0.01368 -0.003,-0.01368 -0.003,-0.01368 -0.0019,-0.01459 -0.0019,-0.01368 -9.72e-4,-0.01368 v -0.01459 -0.01368 l 9.72e-4,-0.01368 9.72e-4,-0.01368 0.0019,-0.01368 0.0019,-0.01368 0.003,-0.01368 0.0039,-0.01368 0.0039,-0.01276 0.0049,-0.01368 0.0049,-0.01276 0.0059,-0.01276 0.0059,-0.01277 0.0069,-0.01185 0.0069,-0.01276 0.0079,-0.01185 0.0079,-0.01185 0.0088,-0.01094 0.0098,-0.01094 0.0098,-0.01094 0.0098,-0.01003 0.01081,-0.01003 0.01081,-0.01003 0.01179,-0.0091 0.01179,-0.0091 0.01277,-0.0082 0.01277,-0.0082 0.01375,-0.0082 0.390973,-0.213347 0.01081,-0.0055 0.01081,-0.0055 0.0098,-0.0064 0.01081,-0.0055 0.01081,-0.0055 0.01081,-0.0055 0.01081,-0.0055 0.01081,-0.0055 0.01081,-0.0055 0.01081,-0.0046 0.01081,-0.0055 0.01081,-0.0055 0.01179,-0.0046 0.01081,-0.0055 0.01081,-0.0055 0.01081,-0.0046 0.01081,-0.0046 0.01179,-0.0055 0.01081,-0.0046 0.01081,-0.0046 0.01179,-0.0055 0.01081,-0.0046 0.01081,-0.0046 0.01179,-0.0046 0.01081,-0.0046 0.01179,-0.0046 0.01081,-0.0046 0.01081,-0.0046 0.01179,-0.0037 0.01179,-0.0046 0.01081,-0.0046 0.01179,-0.0037 0.01081,-0.0046 0.01179,-0.0046 0.01179,-0.0037 0.01081,-0.0037 0.01179,-0.0046 0.01179,-0.0037 0.01081,-0.0037 0.01179,-0.0037 -0.0049,-0.01094 -0.0059,-0.01003 -0.0049,-0.01094 -0.0049,-0.01003 -0.0049,-0.01003 -0.0059,-0.01094 -0.0049,-0.01003 -0.0049,-0.01094 -0.0049,-0.01003 -0.0049,-0.01094 -0.0049,-0.01094 -0.0039,-0.01003 -0.0049,-0.01094 -0.0049,-0.01003 -0.0049,-0.01094 -0.0039,-0.01094 -0.0049,-0.01094 -0.0039,-0.01003 -0.0049,-0.01094 -0.0039,-0.01094 -0.0049,-0.01094 -0.0039,-0.01003 -0.0039,-0.01094 -0.0039,-0.01094 -0.0049,-0.01094 -0.0039,-0.01094 -0.0039,-0.01094 -0.0039,-0.01094 -0.0039,-0.01094 -0.0039,-0.01094 -0.003,-0.01094 -0.0039,-0.01094 -0.0039,-0.01094 -0.0039,-0.01094 -0.003,-0.01094 -0.0039,-0.01094 -0.003,-0.01094 -0.0039,-0.01094 -0.003,-0.01094 -0.0039,-0.01094 -0.115917,-0.413017 -0.0039,-0.01368 -0.003,-0.01459 -0.003,-0.01458 -0.0019,-0.01459 -9.72e-4,-0.01459 -9.72e-4,-0.01368 v -0.01459 l 9.72e-4,-0.01459 9.72e-4,-0.01368 0.0019,-0.01368 0.0019,-0.01459 0.003,-0.01368 0.0039,-0.01276 0.004,-0.01368 0.0049,-0.01368 0.0049,-0.01277 0.0049,-0.01277 0.0069,-0.01277 0.0059,-0.01185 0.0069,-0.01276 0.0079,-0.01185 0.0079,-0.01094 0.0088,-0.01185 0.0088,-0.01094 0.0098,-0.01003 0.0098,-0.01094 0.0098,-0.01003 0.01081,-0.0091 0.01081,-0.0091 0.01179,-0.0091 0.01179,-0.0082 0.01277,-0.0082 0.01277,-0.0073 0.01277,-0.0073 0.01375,-0.0064 0.01375,-0.0064 0.01375,-0.0064 0.01473,-0.0046 0.01473,-0.0046 0.01473,-0.0046 0.436161,-0.11032 0.01179,-0.0027 0.01179,-0.0027 0.01179,-0.0027 0.01179,-0.0027 0.01179,-0.0027 0.01179,-0.0027 0.01179,-0.0018 0.01179,-0.0027 0.01179,-0.0027 0.01179,-0.0018 0.01179,-0.0027 0.01277,-0.0018 0.01179,-0.0027 0.01179,-0.0018 0.01179,-0.0018 0.01179,-0.0018 0.01179,-0.0027 0.01179,-0.0018 0.01277,-0.0018 0.01179,-0.0018 0.01179,-0.0018 0.01179,-0.0018 0.01277,-9.14e-4 0.01179,-0.0018 0.01179,-0.0018 0.01179,-0.0018 0.01277,-9.15e-4 0.01179,-0.0018 0.01179,-9.15e-4 0.01179,-0.0018 0.01277,-9.15e-4 0.01179,-9.15e-4 0.01179,-0.0018 0.01277,-9.15e-4 0.01179,-9.15e-4 0.01179,-9.15e-4 0.01277,-9.15e-4 0.01179,-9.14e-4 0.01179,-9.15e-4 0.01277,-9.15e-4 -0.003,-0.01094 -0.0019,-0.01185 -0.0019,-0.01094 -0.0019,-0.01185 -0.0019,-0.01094 -0.0019,-0.01185 -0.0019,-0.01094 -0.0019,-0.01185 -0.0019,-0.01094 -0.0019,-0.01185 -0.0019,-0.01094 -0.0019,-0.01185 -9.72e-4,-0.01185 -0.0019,-0.01094 -9.72e-4,-0.01185 -0.0019,-0.01094 -9.72e-4,-0.01185 -0.0019,-0.01094 -9.71e-4,-0.01185 -9.72e-4,-0.01185 -9.72e-4,-0.01094 -9.72e-4,-0.01185 -9.72e-4,-0.01094 -9.72e-4,-0.01185 -9.72e-4,-0.01185 -9.72e-4,-0.01094 -9.72e-4,-0.01185 -9.72e-4,-0.01185 -9.72e-4,-0.01094 v -0.01185 l -9.72e-4,-0.01185 v -0.01094 l -9.72e-4,-0.01185 v -0.01185 l -9.72e-4,-0.01094 v -0.01185 -0.01185 -0.01094 -0.01185 -0.01185 -0.426692 -0.01459 l 9.72e-4,-0.0155 9.72e-4,-0.01368 0.003,-0.01459 0.0019,-0.01459 0.0039,-0.01368 0.0039,-0.01368 0.0039,-0.01368 0.0049,-0.01368 0.0059,-0.01276 0.0059,-0.01277 0.0069,-0.01276 0.0069,-0.01185 0.0079,-0.01185 0.0079,-0.01185 0.0079,-0.01185 0.0088,-0.01094 0.0098,-0.01003 0.0098,-0.01094 0.0098,-0.01003 0.01081,-0.0091 0.01081,-0.0091 0.01179,-0.0091 0.01081,-0.0082 0.01277,-0.0082 0.01179,-0.0073 0.01277,-0.0073 0.01277,-0.0064 0.01375,-0.0064 0.01277,-0.0055 0.01473,-0.0055 0.01375,-0.0046 0.01375,-0.0046 0.01473,-0.0037 0.01473,-0.0027 0.01572,-0.0027 0.01473,-0.0027 0.01572,-9.15e-4 0.01473,-9.15e-4 h 0.01572 0.453842 0.01179 0.01277 0.01179 0.01179 0.01277 l 0.01179,9.15e-4 h 0.01277 l 0.01179,9.15e-4 h 0.01277 l 0.01179,9.15e-4 0.01179,9.15e-4 h 0.01277 l 0.01179,9.15e-4 0.01277,9.14e-4 0.01179,9.15e-4 0.01179,9.15e-4 0.01277,9.15e-4 0.01179,9.15e-4 0.01179,9.14e-4 0.01277,9.15e-4 0.01179,9.15e-4 0.01277,0.0018 0.01179,9.14e-4 0.01179,0.0018 0.01277,9.15e-4 0.01179,0.0018 0.01179,9.15e-4 0.01277,0.0018 0.01179,0.0018 0.01179,9.15e-4 0.01179,0.0018 0.01277,0.0018 0.01179,0.0018 0.01179,0.0018 0.01277,0.0018 0.01179,0.0018 0.01179,0.0027 0.01179,0.0018 0.01277,0.0018 0.01179,0.0027 9.72e-4,-0.01185 9.72e-4,-0.01185 V 17.6529 l 9.72e-4,-0.01185 0.0019,-0.01094 9.72e-4,-0.01185 9.72e-4,-0.01094 9.72e-4,-0.01185 9.72e-4,-0.01094 0.0019,-0.01185 9.72e-4,-0.01185 0.0019,-0.01094 9.72e-4,-0.01185 0.0019,-0.01094 9.72e-4,-0.01185 0.0019,-0.01094 0.0019,-0.01185 0.0019,-0.01094 9.72e-4,-0.01094 0.0019,-0.01185 0.0019,-0.01094 0.0019,-0.01185 0.0019,-0.01094 0.003,-0.01185 0.0019,-0.01094 0.0019,-0.01094 0.0019,-0.01185 0.003,-0.01094 0.0019,-0.01185 0.003,-0.01094 0.0019,-0.01094 0.003,-0.01185 0.0019,-0.01094 0.003,-0.01094 0.003,-0.01094 0.003,-0.01185 0.0019,-0.01094 0.003,-0.01094 0.003,-0.01185 0.003,-0.01094 0.116899,-0.412104 0.0049,-0.01459 0.0049,-0.01368 0.0049,-0.01368 0.0059,-0.01368 0.0069,-0.01276 0.0069,-0.01276 0.0079,-0.01185 0.0079,-0.01276 0.0088,-0.01094 0.0088,-0.01185 0.0088,-0.01094 0.0098,-0.01003 0.0098,-0.01003 0.01081,-0.01003 0.01081,-0.0091 0.01179,-0.0091 0.01179,-0.0082 0.01179,-0.0082 0.01179,-0.0073 0.01277,-0.0073 0.01277,-0.0073 0.01277,-0.0055 0.01375,-0.0064 0.01375,-0.0046 0.01375,-0.0055 0.01375,-0.0036 0.01375,-0.0036 0.01473,-0.0036 0.01473,-0.0027 0.01375,-0.0018 0.01572,-0.0018 0.01473,-9.09e-4 0.01473,-9.09e-4 h 0.01473 l 0.01572,9.09e-4 0.01473,9.09e-4 0.01572,0.0018 0.01473,0.0018 0.01572,0.0036 0.01473,0.0027 0.435178,0.110321 0.01179,0.0036 0.01179,0.0027 0.01179,0.0036 0.01179,0.0027 0.01081,0.0036 0.01179,0.0036 0.01179,0.0027 0.01179,0.0036 0.01179,0.0036 0.01179,0.0036 0.01179,0.0036 0.01081,0.0036 0.01179,0.0036 0.01179,0.0036 0.01179,0.0036 0.01081,0.0046 0.01179,0.0036 0.01179,0.0036 0.01081,0.0046 0.01179,0.0036 0.01179,0.0046 0.01081,0.0036 0.01179,0.0046 0.01081,0.0046 0.01179,0.0036 0.01081,0.0046 0.01179,0.0046 0.01081,0.0046 0.01179,0.0046 0.01081,0.0046 0.01081,0.0046 0.01179,0.0046 0.01081,0.0046 0.01179,0.0046 0.01081,0.0046 0.01081,0.0055 0.01081,0.0046 0.01179,0.0055 0.01081,0.0046 0.01081,0.0046 0.0039,-0.01003 0.0039,-0.01094 0.0049,-0.01094 0.0039,-0.01094 0.0039,-0.01094 0.0049,-0.01094 0.0039,-0.01094 0.0039,-0.01094 0.0049,-0.01094 0.0049,-0.01003 0.0039,-0.01094 0.0049,-0.01094 0.0049,-0.01094 0.0039,-0.01003 0.0049,-0.01094 0.0049,-0.01094 0.0049,-0.01003 0.0049,-0.01094 0.0049,-0.01003 0.0049,-0.01094 0.0059,-0.01003 0.0049,-0.01094 0.0049,-0.01003 0.0049,-0.01094 0.0059,-0.01003 0.0049,-0.01094 0.0059,-0.01003 0.0049,-0.01003 0.0059,-0.01094 0.0059,-0.01003 0.0049,-0.01003 0.0059,-0.01094 0.0059,-0.01003 0.0059,-0.01003 0.0059,-0.01003 0.0059,-0.01003 0.0059,-0.01003 0.0059,-0.01003 0.0059,-0.01003 0.0059,-0.01003 0.21808,-0.357401 0.0079,-0.01367 0.0079,-0.01277 0.0088,-0.01185 0.0088,-0.01185 0.0088,-0.01094 0.0098,-0.01185 0.01081,-0.01003 0.01081,-0.01003 0.01081,-0.01003 0.01179,-0.0091 0.01179,-0.0082 0.01179,-0.0082 0.01179,-0.0082 0.01277,-0.0073 0.01277,-0.0064 0.01277,-0.0064 0.01375,-0.0055 0.01375,-0.0055 0.01375,-0.0055 0.01375,-0.0036 0.01375,-0.0046 0.01473,-0.0027 0.01375,-0.0027 0.01473,-0.0027 0.01473,-0.0018 0.01473,-9.09e-4 0.01473,-9.09e-4 h 0.01473 0.01473 l 0.01473,9.09e-4 0.01473,0.0018 0.01473,0.0018 0.01375,0.0027 0.01473,0.0027 0.01473,0.0046 0.01473,0.0036 0.01375,0.0055 0.01473,0.0046 0.01375,0.0064 0.01375,0.0064 0.01375,0.0073 0.390972,0.214258 0.01081,0.0055 0.0098,0.0055 0.01081,0.0064 0.01081,0.0055 0.0098,0.0064 0.01081,0.0064 0.0098,0.0055 0.01081,0.0064 0.0098,0.0064 0.01081,0.0055 0.0098,0.0064 0.01081,0.0064 0.0098,0.0064 0.0098,0.0064 0.0098,0.0064 0.01081,0.0064 0.0098,0.0073 0.0098,0.0064 0.0098,0.0064 0.0098,0.0064 0.0098,0.0073 0.0098,0.0064 0.0098,0.0073 0.0098,0.0064 0.0098,0.0073 0.0098,0.0064 0.0098,0.0073 0.0098,0.0073 0.0098,0.0064 0.0088,0.0073 0.0098,0.0073 0.0098,0.0073 0.0088,0.0073 0.0098,0.0073 0.0088,0.0073 0.0098,0.0073 0.0088,0.0073 0.0098,0.0073 0.0088,0.0073 0.0098,0.0082 0.0069,-0.01003 0.0069,-0.0091 0.0069,-0.01003 0.0069,-0.0091 0.0069,-0.0091 0.0069,-0.0091 0.0079,-0.01003 0.0069,-0.0091 0.0069,-0.0091 0.0079,-0.0091 0.0069,-0.0091 0.0079,-0.0091 0.0069,-0.0091 0.0079,-0.0091 0.0069,-0.0091 0.0079,-0.0091 0.0079,-0.0091 0.0079,-0.0082 0.0069,-0.0091 0.0079,-0.0091 0.0079,-0.0091 0.0079,-0.0082 0.0079,-0.0091 0.0079,-0.0091 0.0079,-0.0082 0.0079,-0.0091 0.0079,-0.0082 0.0079,-0.0091 0.0088,-0.0082 0.0079,-0.0091 0.0079,-0.0082 0.0079,-0.0082 0.0088,-0.0091 0.0079,-0.0082 0.0088,-0.0082 0.0079,-0.0082 0.0088,-0.0082 0.0079,-0.0082 0.0088,-0.0082 0.0079,-0.0082 0.320245,-0.302697 0.01081,-0.01003 0.01179,-0.01003 0.01179,-0.0091 0.01277,-0.0082 0.01179,-0.0082 0.01277,-0.0082 0.01375,-0.0073 0.01277,-0.0064 0.01375,-0.0055 0.01375,-0.0064 0.01375,-0.0046 0.01375,-0.0046 0.01473,-0.0036 0.01375,-0.0036 0.01473,-0.0027 0.01375,-0.0027 0.01473,-0.0018 0.01473,-9.09e-4 0.01473,-9.09e-4 0.01473,-9.09e-4 0.01473,9.09e-4 z m 5.176953,15.500432 -0.126722,0.0055 -0.12574,0.0091 -0.124758,0.01277 -0.123775,0.0155 -0.122793,0.02006 -0.121811,0.02279 -0.120828,0.02644 -0.119846,0.02918 -0.117881,0.03282 -0.116899,0.03556 -0.115917,0.03921 -0.113952,0.04194 -0.112969,0.04559 -0.111005,0.04832 -0.109041,0.05106 -0.108058,0.0547 -0.106093,0.05744 -0.104128,0.06017 -0.102164,0.06291 -0.100199,0.06565 -0.09823,0.06838 -0.09627,0.07111 -0.09431,0.07294 -0.09136,0.07659 -0.08939,0.07932 -0.08743,0.08115 -0.08448,0.08388 -0.08252,0.08662 -0.07957,0.08844 -0.07662,0.09117 -0.07466,0.09391 -0.07073,0.09573 -0.06876,0.09756 -0.06582,0.100292 -0.06287,0.102114 -0.05992,0.10485 -0.05599,0.105761 -0.05403,0.108496 -0.0501,0.111233 0.07073,-0.06565 0.07073,-0.06382 0.07269,-0.062 0.07367,-0.06109 0.07466,-0.05926 0.07564,-0.05744 0.07662,-0.05653 0.07859,-0.0547 0.07859,-0.05288 0.08055,-0.05197 0.08055,-0.05014 0.08252,-0.04923 0.08252,-0.0465 0.0835,-0.04559 0.08546,-0.04468 0.08546,-0.04194 0.08645,-0.04103 0.08645,-0.03921 0.08841,-0.03738 0.08841,-0.03556 0.08939,-0.03465 0.09038,-0.03282 0.09038,-0.031 0.09136,-0.02918 0.09234,-0.02735 0.09234,-0.02553 0.09332,-0.02462 0.0943,-0.0228 0.09332,-0.02006 0.09529,-0.01915 0.09529,-0.01732 0.09529,-0.0155 0.09627,-0.01459 0.09627,-0.01185 0.09725,-0.01003 0.09725,-0.0082 0.09725,-0.0064 0.09725,-0.0055 0.09824,-0.0027 0.09823,-9.15e-4 h 0.01572 l 0.01572,9.15e-4 0.01473,0.0018 0.01572,0.0018 0.01473,0.0027 0.01473,0.0027 0.01473,0.0037 0.01473,0.0046 0.01375,0.0046 0.01375,0.0055 0.01375,0.0055 0.01277,0.0064 0.01277,0.0064 0.01277,0.0073 0.01277,0.0073 0.01179,0.0082 0.01179,0.0082 0.01081,0.0091 0.01179,0.0091 0.0098,0.01003 0.01081,0.0091 0.0098,0.01094 0.0088,0.01003 0.0088,0.01185 0.0088,0.01094 0.0079,0.01185 0.0069,0.01185 0.0079,0.01185 0.0059,0.01277 0.0059,0.01277 0.0059,0.01276 0.0049,0.01368 0.0049,0.01368 0.0039,0.01368 0.003,0.01368 0.003,0.01459 0.0019,0.01459 0.0019,0.01459 9.72e-4,0.01459 v 0.01458 0.01459 l -9.72e-4,0.01459 -0.0019,0.01459 -0.0019,0.01458 -0.003,0.01459 -0.003,0.01368 -0.0039,0.01368 -0.0049,0.01368 -0.0049,0.01368 -0.0059,0.01277 -0.0059,0.01277 -0.0059,0.01276 -0.0079,0.01185 -0.0069,0.01185 -0.0079,0.01185 -0.0088,0.01185 -0.0088,0.01094 -0.0088,0.01003 -0.0098,0.01094 -0.01081,0.01003 -0.0098,0.0091 -0.01179,0.0091 -0.01081,0.0091 -0.01179,0.0082 -0.01179,0.0082 -0.01277,0.0073 -0.01277,0.0073 -0.01277,0.0064 -0.01277,0.0064 -0.01375,0.0055 -0.01375,0.0055 -0.01375,0.0046 -0.01473,0.0046 -0.01473,0.0037 -0.01473,0.0027 -0.01473,0.0027 -0.01572,0.0018 -0.01473,0.0018 -0.01572,9.15e-4 h -0.01572 l -0.106093,0.0018 -0.105111,0.0046 -0.10511,0.0064 -0.105111,0.0091 -0.104129,0.01094 -0.103146,0.01368 -0.103146,0.01641 -0.102164,0.01915 -0.101181,0.02097 -0.101182,0.0228 -0.100199,0.02553 -0.09922,0.02826 -0.09823,0.03009 -0.09725,0.03191 -0.09627,0.03465 -0.09529,0.03738 -0.09529,0.0392 -0.09332,0.04103 -0.09234,0.04285 -0.09038,0.04559 -0.09038,0.04741 -0.08841,0.05014 -0.08743,0.05106 -0.08546,0.05379 -0.08547,0.05562 -0.08252,0.05835 -0.08252,0.05926 -0.07957,0.062 -0.07957,0.06291 -0.07662,0.06564 -0.07564,0.06747 -0.07368,0.06929 -0.07269,0.07112 -0.06975,0.07294 -0.06876,0.07385 -0.0668,0.07659 -0.06483,0.07841 -0.06385,0.07932 -0.06091,0.08206 -0.05894,0.08297 h 1.603186 l 0.161104,-0.0027 0.161105,-0.0091 0.158158,-0.01459 0.157174,-0.02006 0.155211,-0.02553 0.153246,-0.03008 0.15128,-0.03647 0.149317,-0.04103 0.146369,-0.0465 0.144404,-0.05106 0.142441,-0.05561 0.139493,-0.06109 0.135563,-0.06565 0.134581,-0.06929 0.130652,-0.07476 0.126722,-0.07841 0.124758,-0.08297 0.120828,-0.08662 0.117882,-0.09117 0.113952,-0.09482 0.110022,-0.09938 0.107076,-0.102114 0.102163,-0.105762 0.09824,-0.11032 0.0943,-0.113055 0.09038,-0.115791 0.08546,-0.119437 0.08153,-0.123085 0.07662,-0.125819 0.07171,-0.128555 0.0668,-0.13129 0.06287,-0.134026 0.05697,-0.13676 0.05108,-0.139496 0.04617,-0.141319 0.04126,-0.144054 0.03536,-0.145878 0.02947,-0.148613 0.02456,-0.150436 0.01769,-0.151349 h -1.888066 z m -12.411917,-0.931795 0.02358,0.150437 0.02947,0.148613 0.03536,0.145877 0.04126,0.144054 0.04617,0.14132 0.05206,0.139496 0.05697,0.13676 0.06189,0.134025 0.0668,0.13129 0.07171,0.128555 0.07662,0.12582 0.08153,0.123084 0.08546,0.119437 0.09038,0.115791 0.09431,0.113055 0.09823,0.110321 0.103146,0.105761 0.106093,0.102115 0.110022,0.09938 0.113952,0.09482 0.117882,0.09117 0.120828,0.08661 0.124758,0.08297 0.127704,0.07841 0.130652,0.07476 0.133599,0.06929 0.136546,0.06565 0.13851,0.06109 0.14244,0.05561 0.144405,0.05106 0.146369,0.0465 0.149316,0.04103 0.151281,0.03556 0.153246,0.031 0.15521,0.02553 0.157175,0.02006 0.15914,0.01458 0.160122,0.0091 0.162086,0.0027 h 1.602204 l -0.05894,-0.08297 -0.0609,-0.08206 -0.06287,-0.07932 -0.06582,-0.07841 -0.0668,-0.07659 -0.06778,-0.07476 -0.07073,-0.07203 -0.07269,-0.07111 -0.07368,-0.06929 -0.07564,-0.06747 -0.07662,-0.06564 -0.07859,-0.06291 -0.08055,-0.062 -0.08154,-0.05926 -0.0835,-0.05835 -0.08448,-0.05561 -0.08645,-0.05379 -0.08743,-0.05106 -0.08841,-0.05014 -0.09038,-0.04741 -0.09037,-0.04559 -0.09234,-0.04285 -0.09332,-0.04103 -0.0943,-0.03921 -0.09627,-0.03738 -0.09627,-0.03465 -0.09725,-0.03191 -0.09823,-0.03009 -0.09922,-0.02826 -0.100199,-0.02553 -0.100199,-0.0237 -0.102164,-0.02097 -0.102163,-0.01823 -0.103147,-0.01641 -0.103146,-0.01368 -0.104129,-0.01185 -0.104128,-0.0082 -0.105111,-0.0073 -0.106093,-0.0037 -0.106093,-0.0018 h -0.01572 l -0.01572,-9.15e-4 -0.01473,-0.0018 -0.01572,-0.0018 -0.01473,-0.0027 -0.01473,-0.0027 -0.01473,-0.0037 -0.01375,-0.0046 -0.01473,-0.0046 -0.01375,-0.0055 -0.01375,-0.0055 -0.01277,-0.0064 -0.01277,-0.0064 -0.01277,-0.0073 -0.01277,-0.0073 -0.01179,-0.0082 -0.01179,-0.0082 -0.01081,-0.0091 -0.01081,-0.0091 -0.01081,-0.0091 -0.0098,-0.01003 -0.0098,-0.01094 -0.0098,-0.01003 -0.0088,-0.01185 -0.0079,-0.01094 -0.0088,-0.01185 -0.0069,-0.01185 -0.0069,-0.01185 -0.0069,-0.01276 -0.0059,-0.01277 -0.0059,-0.01277 -0.0049,-0.01368 -0.0039,-0.01368 -0.0039,-0.01368 -0.0039,-0.01368 -0.003,-0.01459 -0.0019,-0.01459 -9.72e-4,-0.01459 -9.72e-4,-0.01459 -9.72e-4,-0.01458 9.72e-4,-0.01459 9.72e-4,-0.01458 9.72e-4,-0.01459 0.0019,-0.01459 0.003,-0.01458 0.0039,-0.01368 0.0039,-0.01368 0.0039,-0.01368 0.0049,-0.01368 0.0059,-0.01276 0.0059,-0.01277 0.0069,-0.01277 0.0069,-0.01185 0.0069,-0.01185 0.0088,-0.01185 0.0079,-0.01094 0.0088,-0.01185 0.0098,-0.01003 0.0098,-0.01094 0.0098,-0.01003 0.01081,-0.0091 0.01081,-0.0091 0.01081,-0.0091 0.01179,-0.0082 0.01179,-0.0082 0.01277,-0.0073 0.01277,-0.0073 0.01277,-0.0064 0.01277,-0.0064 0.01375,-0.0055 0.01375,-0.0055 0.01473,-0.0046 0.01375,-0.0046 0.01473,-0.0037 0.01473,-0.0027 0.01473,-0.0027 0.01572,-0.0018 0.01473,-0.0018 0.01572,-9.15e-4 h 0.01572 l 0.09823,9.15e-4 0.09823,0.0027 0.09725,0.0055 0.09823,0.0064 0.09725,0.0082 0.09627,0.01003 0.09627,0.01185 0.09627,0.01459 0.09627,0.0155 0.09431,0.01732 0.09529,0.01915 0.0943,0.02006 0.09332,0.0228 0.09332,0.02461 0.09332,0.02553 0.09136,0.02735 0.09136,0.03009 0.09136,0.03009 0.08939,0.03282 0.08939,0.03465 0.08939,0.03556 0.08743,0.03738 0.08743,0.0392 0.08645,0.04103 0.08546,0.04285 0.08448,0.04376 0.0835,0.04558 0.0835,0.04741 0.08154,0.04832 0.08153,0.05014 0.07957,0.05197 0.07957,0.05288 0.07761,0.05562 0.07662,0.05561 0.07662,0.05835 0.07466,0.05926 0.07368,0.06109 0.07171,0.062 0.07171,0.06382 0.06975,0.06473 -0.0501,-0.11032 -0.05305,-0.108497 -0.05698,-0.106673 -0.05894,-0.103938 -0.06287,-0.102114 -0.06582,-0.100291 -0.06876,-0.09847 -0.07171,-0.09573 -0.07368,-0.093 -0.07662,-0.09117 -0.07957,-0.08935 -0.08252,-0.0857 -0.08448,-0.08479 -0.08743,-0.08114 -0.08939,-0.07841 -0.09136,-0.07659 -0.09431,-0.07385 -0.09627,-0.07111 -0.09823,-0.06838 -0.1002,-0.06565 -0.102163,-0.06291 -0.104128,-0.06017 -0.106094,-0.05744 -0.108058,-0.05379 -0.110022,-0.05197 -0.111005,-0.04832 -0.111987,-0.04559 -0.114935,-0.04194 -0.114934,-0.0392 -0.117881,-0.03556 -0.117881,-0.03282 -0.119846,-0.02918 -0.120828,-0.02644 -0.121811,-0.0228 -0.122793,-0.02006 -0.123776,-0.0155 -0.124757,-0.01277 -0.125741,-0.0091 -0.12574,-0.0055 -0.127704,-0.0018 h -1.888036 z m 7.563067,-2.685064 -0.119846,0.0073 -0.119846,0.0046 -0.118864,0.0018 -0.119846,-0.0018 -0.119846,-0.0046 -0.119846,-0.0073 -0.118863,-0.01094 -0.118864,-0.01276 -0.01768,0.117615 -0.0098,0.118525 -0.0019,0.118526 0.0059,0.117614 0.01473,0.117614 0.02161,0.116702 0.03045,0.113968 0.03733,0.113055 0.04519,0.111231 0.05305,0.108497 9.72e-4,0.0018 9.72e-4,0.0018 0.0019,0.0027 9.72e-4,0.0018 9.72e-4,0.0018 v 0.0018 l 9.72e-4,0.0018 9.72e-4,0.0018 9.72e-4,0.0018 0.02848,0.05197 0.03045,0.05014 0.03242,0.05014 0.0334,0.04832 0.03536,0.04741 0.03733,0.0465 0.03831,0.04559 0.0393,0.04376 0.04126,0.04285 0.04322,0.04194 0.0501,0.04741 0.04912,-0.04741 0.04322,-0.04194 0.04126,-0.04285 0.0393,-0.04376 0.03831,-0.04559 0.03733,-0.0465 0.03536,-0.04741 0.0334,-0.04832 0.03242,-0.05014 0.03045,-0.05014 0.02848,-0.05197 9.72e-4,-0.0018 9.72e-4,-0.0018 9.72e-4,-0.0018 9.72e-4,-0.0018 v -0.0018 l 9.72e-4,-0.0018 0.0019,-0.0027 9.72e-4,-0.0018 9.72e-4,-0.0018 0.05305,-0.108497 0.04519,-0.111231 0.03831,-0.113055 0.02947,-0.113968 0.02161,-0.116702 0.01473,-0.117614 0.0059,-0.117614 -9.72e-4,-0.118526 -0.0098,-0.118525 -0.01866,-0.117615 -0.118864,0.01276 z m 1.019673,0.510573 -0.01768,0.146789 -0.02652,0.145878 -0.03536,0.144054 -0.04519,0.142231 0.06287,0.062 0.06582,0.05835 0.06877,0.05561 0.07171,0.05288 0.07368,0.04923 0.07662,0.0465 0.06091,0.03282 0.03536,-0.05744 0.04224,-0.07659 0.03831,-0.07932 0.03438,-0.08023 0.02947,-0.08206 0.02554,-0.08297 0.02161,-0.08388 -0.111984,-0.102118 -0.106093,-0.106673 -0.09922,-0.113055 -0.09234,-0.117614 -0.08645,-0.123085 -0.07761,-0.126731 v 0.147701 z m -2.925421,-0.04559 -0.09234,0.117614 -0.100199,0.112144 -0.106093,0.107584 -0.111988,0.101203 0.02161,0.08479 0.02554,0.08297 0.03045,0.08206 0.03439,0.08023 0.03831,0.07841 0.04224,0.0775 0.03536,0.05744 0.01768,-0.01003 0.01375,-0.0082 0.01081,-0.0064 0.0079,-0.0046 0.0049,-0.0027 9.72e-4,-9.14e-4 0.07761,-0.0465 0.07466,-0.04923 0.07171,-0.05288 0.06975,-0.05561 0.06582,-0.05926 0.06385,-0.062 -0.04421,-0.141319 -0.03536,-0.144054 -0.02652,-0.145878 -0.01866,-0.146789 -0.0088,-0.147702 9.72e-4,-0.147701 -0.07859,0.126731 z m -1.639532,-1.101378 -0.08252,0.161378 -0.06582,0.165936 -0.04912,0.171406 -0.03144,0.175054 -0.01473,0.177788 0.0039,0.177789 0.02161,0.1787 0.04027,0.177789 0.01866,0.06473 0.01179,-0.0037 0.01081,-0.0027 0.0098,-0.0027 0.0088,-0.0018 0.0069,-0.0018 0.0049,-0.0018 0.0049,-0.0018 h 0.003 l 0.0019,-9.15e-4 v 0 l 0.182716,-0.05561 0.173874,-0.07111 0.165034,-0.0857 0.155211,-0.100291 0.143421,-0.113055 0.131635,-0.12582 0.118863,-0.137673 0.105111,-0.147701 0.08939,-0.158642 0.07367,-0.166847 -0.10904,-0.0465 -0.108058,-0.04832 -0.106093,-0.05106 -0.105111,-0.05379 -0.104128,-0.05561 -0.102164,-0.05835 -0.101182,-0.06017 -0.09922,-0.06291 -0.09725,-0.06473 -0.09627,-0.06747 -0.114934,0.144966 z m 5.963811,-0.165936 -0.09922,0.06291 -0.101181,0.06018 -0.102164,0.05835 -0.104128,0.05561 -0.105111,0.05379 -0.106093,0.05106 -0.108058,0.04832 -0.10904,0.0465 0.07367,0.167759 0.08939,0.15773 0.10511,0.148613 0.118864,0.136761 0.132617,0.12582 0.143422,0.113967 0.15521,0.09938 0.165034,0.08662 0.174857,0.0702 0.182716,0.05562 0.06778,0.01732 0.0039,-0.01277 0.003,-0.01094 0.0019,-0.0091 0.003,-0.0091 0.0019,-0.0064 9.72e-4,-0.0064 9.72e-4,-0.0046 9.72e-4,-0.0027 9.72e-4,-0.0018 v -9.15e-4 l 0.0393,-0.177789 0.02161,-0.1787 0.003,-0.1787 -0.01473,-0.177789 -0.03242,-0.175054 -0.04912,-0.171406 -0.0668,-0.165936 -0.0835,-0.160466 -0.09922,-0.153171 -0.115916,-0.144966 -0.09627,0.06747 z m -6.829256,-0.154995 -0.143422,0.06017 -0.147352,0.05197 -0.150298,0.04376 -0.152264,0.03647 -0.02554,0.08206 -0.02063,0.08297 -0.01768,0.08479 -0.01179,0.08388 -0.0088,0.0857 -0.0039,0.0857 v 0.06656 l 0.07073,9.15e-4 0.09136,-0.0046 0.09136,-0.0082 0.09038,-0.01185 0.09038,-0.01641 0.08841,-0.02006 0.08841,-0.02462 0.03733,-0.144055 0.04519,-0.141319 0.05403,-0.139495 0.06287,-0.135849 0.06975,-0.132202 0.07859,-0.128555 -0.136545,0.07476 z m 7.979581,0.118526 0.06287,0.135848 0.05305,0.138584 0.04617,0.14132 0.03733,0.144054 0.08743,0.02461 0.08939,0.02006 0.09038,0.01641 0.09037,0.01277 0.09136,0.0073 0.09136,0.0046 h 0.07171 l -9.72e-4,-0.06747 -0.0039,-0.0857 -0.0088,-0.08479 -0.01277,-0.08479 -0.0167,-0.08388 -0.02063,-0.08388 -0.02554,-0.08206 -0.152264,-0.03556 -0.150299,-0.04468 -0.147352,-0.05197 -0.143421,-0.05926 -0.140476,-0.06747 -0.136546,-0.07567 0.07859,0.128555 z m -4.271232,-7.788965 -0.168964,0.01641 -0.166998,0.0228 -0.165034,0.02826 -0.163069,0.03465 -0.160122,0.04011 -0.157175,0.0465 -0.15521,0.05197 -0.151281,0.05744 -0.149317,0.06291 -0.145387,0.06838 -0.14244,0.07294 -0.139492,0.07841 -0.135564,0.08297 -0.131634,0.08844 -0.128687,0.09208 -0.123775,0.09664 -0.119847,0.102115 -0.115916,0.10485 -0.111987,0.11032 -0.107076,0.113055 -0.102163,0.117614 -0.09823,0.121261 -0.09234,0.124908 -0.08841,0.128555 -0.08252,0.13129 -0.0776,0.134937 -0.07171,0.137672 -0.0668,0.141319 -0.0609,0.143143 -0.05501,0.146789 -0.04814,0.148613 -0.04322,0.151348 -0.03635,0.154084 -0.03045,0.155907 -0.02358,0.15773 -0.01768,0.160466 -0.01081,0.161377 -0.003,0.163201 0.0039,0.164113 0.0098,0.161377 0.01768,0.159554 0.02358,0.158642 0.03045,0.154996 0.03733,0.154083 0.04322,0.151348 0.04912,0.148613 0.05501,0.14679 0.06091,0.143142 0.06582,0.14132 0.07269,0.137672 0.07662,0.134936 0.0835,0.131291 0.08743,0.128555 0.09332,0.124908 0.09725,0.120348 0.103146,0.117615 0.107075,0.113966 0.111005,0.109409 0.115917,0.105762 0.119846,0.101202 0.124757,0.09664 0.127705,0.093 0.131635,0.08753 0.135563,0.08297 0.139493,0.07841 0.14244,0.07385 0.145386,0.06747 0.149317,0.06291 0.151281,0.05744 0.15521,0.05197 0.157175,0.0465 0.160122,0.04103 0.162087,0.03465 0.165034,0.02918 0.166998,0.0228 0.168964,0.01641 0.170927,0.01003 0.172893,0.0027 0.17191,-0.0027 0.171911,-0.01003 0.168963,-0.01641 0.166998,-0.0228 0.164052,-0.02826 0.163069,-0.03465 0.160122,-0.04103 0.157175,-0.04559 0.15521,-0.05197 0.151281,-0.05744 0.149317,-0.06291 0.145386,-0.06838 0.14244,-0.07294 0.139493,-0.07841 0.135564,-0.08297 0.131634,-0.08844 0.128687,-0.09209 0.123775,-0.09664 0.120829,-0.102114 0.115916,-0.10485 0.111005,-0.11032 0.107076,-0.113056 0.103146,-0.117613 0.09725,-0.121262 0.09332,-0.124907 0.08743,-0.128555 0.08252,-0.13129 0.07761,-0.134937 0.07171,-0.137672 0.0668,-0.14132 0.06091,-0.143142 0.05501,-0.14679 0.04912,-0.148613 0.04224,-0.151348 0.03733,-0.154084 0.02947,-0.155906 0.02456,-0.157731 0.0167,-0.160465 0.01081,-0.161378 0.003,-0.164113 -0.003,-0.1632 -0.01081,-0.161378 -0.0167,-0.160465 -0.02456,-0.157731 -0.02947,-0.155907 -0.03733,-0.154083 -0.04224,-0.151348 -0.04912,-0.148613 -0.05501,-0.14679 -0.06091,-0.143143 -0.0668,-0.141319 -0.07171,-0.137672 -0.07761,-0.134937 -0.08252,-0.13129 -0.08743,-0.128555 -0.09332,-0.124908 -0.09725,-0.121261 -0.103146,-0.117614 -0.107076,-0.113055 -0.111005,-0.11032 -0.115916,-0.10485 -0.120829,-0.102114 -0.123775,-0.09664 -0.128687,-0.09209 -0.131634,-0.08844 -0.135564,-0.08297 -0.139493,-0.07841 -0.14244,-0.07294 -0.145386,-0.06838 -0.149317,-0.06291 -0.151281,-0.05744 -0.15521,-0.05197 -0.157175,-0.0465 -0.160122,-0.04011 -0.163069,-0.03465 -0.164052,-0.02826 -0.166998,-0.0228 -0.168963,-0.01641 -0.171911,-0.01003 -0.17191,-0.0027 -0.172893,0.0027 z m 4.799733,5.995579 -0.05403,0.101203 -0.05698,0.09938 -0.05894,0.09756 -0.06189,0.09756 -0.06385,0.09482 -0.0668,0.09391 -0.06876,0.093 -0.07073,0.09026 0.152263,0.111232 0.162087,0.09482 0.169945,0.07932 0.17584,0.06382 0.181733,0.0465 0.185663,0.031 0.187628,0.01277 0.189593,-0.0037 0.18861,-0.02097 0.18861,-0.0392 0.0668,-0.0155 -0.01866,-0.06473 -0.05796,-0.172318 -0.07466,-0.165024 -0.09136,-0.156819 -0.105111,-0.146789 -0.119846,-0.135849 -0.133598,-0.124908 -0.144405,-0.112144 -0.157175,-0.09938 -0.166999,-0.08479 -0.176822,-0.0702 -0.04912,0.103026 z m -9.353881,-0.05288 -0.157174,0.09938 -0.145387,0.113055 -0.132617,0.124908 -0.119846,0.135849 -0.106093,0.146789 -0.09038,0.156819 -0.07466,0.165024 -0.05796,0.172319 -0.01866,0.06473 0.06778,0.0155 0.188611,0.03921 0.188609,0.02097 0.189593,0.0037 0.187628,-0.01368 0.185663,-0.03008 0.180751,-0.04741 0.176822,-0.06291 0.168963,-0.07932 0.162087,-0.09573 0.152263,-0.110319 -0.07073,-0.09117 -0.06876,-0.09209 -0.0668,-0.09391 -0.06385,-0.09573 -0.06189,-0.09664 -0.05894,-0.09847 -0.05698,-0.09938 -0.05403,-0.100291 -0.05108,-0.102114 -0.04912,-0.103938 -0.176822,0.0702 z m 10.720322,-0.731213 -0.139493,0.02462 -0.140475,0.01823 -0.140475,0.01003 -0.142441,0.0046 -0.01572,-9.14e-4 -0.01572,-9.15e-4 -0.03242,-0.0037 -0.0167,-0.0018 -0.01572,-9.15e-4 0.135563,0.07476 0.130652,0.08115 0.12574,0.08844 0.119846,0.09482 0.113952,0.101203 0.108058,0.106674 0.08939,-0.02006 0.08743,-0.02461 0.08743,-0.02826 0.08448,-0.03283 0.0835,-0.03647 0.08153,-0.03921 0.06091,-0.03373 -0.01081,-0.01732 -0.0088,-0.01459 -0.0069,-0.01094 -0.0049,-0.0082 -0.003,-0.0046 -9.72e-4,-0.0018 -0.04814,-0.07203 -0.05206,-0.06929 -0.05501,-0.06747 -0.05894,-0.06382 -0.0609,-0.062 -0.06484,-0.05926 -0.136546,0.03829 z m -12.045504,0.05106 -0.05796,0.06473 -0.05501,0.06656 -0.05206,0.06929 -0.04814,0.07203 -0.03438,0.05744 0.01768,0.01003 0.01473,0.0082 0.01179,0.0064 0.0079,0.0046 0.0049,0.0027 0.0019,0.0018 0.08153,0.03921 0.0835,0.03647 0.08546,0.03283 0.08743,0.02826 0.08841,0.0237 0.08939,0.02097 0.108058,-0.107585 0.113952,-0.101202 0.120829,-0.09391 0.124758,-0.08844 0.130651,-0.08114 0.135564,-0.07476 -0.01572,9.15e-4 -0.0167,0.0018 -0.01572,0.0018 -0.01572,9.15e-4 -0.0167,0.0018 h -0.01572 l -0.142441,-0.0037 -0.141457,-0.01094 -0.140475,-0.01732 -0.139493,-0.02462 -0.138511,-0.03191 -0.135563,-0.03829 -0.06483,0.05926 z m 0.554043,-1.86359 -0.181734,0.04559 -0.17584,0.06109 -0.168963,0.07659 -0.162086,0.093 -0.151282,0.107585 -0.142439,0.122173 -0.0501,0.0465 0.0098,0.0091 0.0088,0.0082 0.0069,0.0073 0.0069,0.0064 0.0059,0.0046 0.0039,0.0046 0.0039,0.0037 0.0019,0.0018 0.0019,0.0018 v 0 l 0.142439,0.122173 0.151282,0.107585 0.162086,0.093 0.168963,0.07659 0.17584,0.062 0.181734,0.04468 0.18468,0.02918 0.18861,0.01094 0.189592,-0.0055 0.190575,-0.0228 -0.01473,-0.113055 -0.01081,-0.112144 -0.0079,-0.113055 -0.0049,-0.113055 -9.72e-4,-0.113968 9.72e-4,-0.113055 0.0049,-0.113055 0.0079,-0.113055 0.01081,-0.113056 0.01473,-0.112143 -0.190575,-0.0228 -0.189592,-0.0055 -0.18861,0.01185 z m 10.583775,-0.01185 0.01473,0.112144 0.01081,0.113056 0.0079,0.113055 0.0049,0.113055 0.0019,0.113055 -0.0019,0.113968 -0.0049,0.113055 -0.0079,0.113055 -0.01081,0.112144 -0.01473,0.113055 0.190574,0.0228 0.189593,0.0055 0.18861,-0.01185 0.184681,-0.02826 0.181733,-0.04559 0.17584,-0.06109 0.168963,-0.07658 0.161104,-0.093 0.152264,-0.107585 0.14244,-0.122173 0.04912,-0.04741 -0.0088,-0.0082 -0.0088,-0.0082 -0.0069,-0.0073 -0.0069,-0.0064 -0.0049,-0.0046 -0.0049,-0.0046 -0.003,-0.0037 -0.003,-0.0018 -9.72e-4,-0.0018 h -9.72e-4 l -0.141458,-0.122173 -0.152263,-0.107585 -0.162087,-0.093 -0.168963,-0.07659 -0.17584,-0.06109 -0.180751,-0.04559 -0.185663,-0.02826 -0.18861,-0.01185 -0.189593,0.0055 z m 0.762299,-1.084054 -0.118864,0.09391 -0.124758,0.08753 -0.129669,0.08114 -0.134581,0.07385 h 0.157175 l 0.156193,0.0082 0.15521,0.01641 0.153246,0.02553 0.152263,0.03373 0.150299,0.04194 0.06483,-0.05926 0.06287,-0.06291 0.05894,-0.06473 0.05501,-0.06747 0.05206,-0.0702 0.04912,-0.07203 0.03536,-0.05744 -0.01866,-0.01003 -0.01473,-0.0082 -0.01179,-0.0064 -0.0088,-0.0046 -0.0049,-0.0037 -0.0019,-9.15e-4 -0.08153,-0.0392 -0.08252,-0.03647 -0.08546,-0.03282 -0.08645,-0.02826 -0.08841,-0.02462 -0.08841,-0.02006 -0.108058,0.105761 z m -11.7508,-0.162289 -0.08645,0.02826 -0.08546,0.03282 -0.08252,0.03647 -0.08153,0.0392 -0.06091,0.03373 0.0098,0.01732 0.0088,0.01458 0.0059,0.01094 0.0049,0.0082 0.003,0.0046 9.72e-4,0.0018 0.04912,0.07203 0.05206,0.0702 0.05599,0.06747 0.05894,0.06473 0.06287,0.062 0.06484,0.06017 0.150298,-0.04194 0.152264,-0.03373 0.154228,-0.02553 0.15521,-0.01641 0.156193,-0.0091 0.156192,9.15e-4 -0.134581,-0.07476 -0.128687,-0.08114 -0.124758,-0.08753 -0.118863,-0.09391 -0.113952,-0.100291 -0.107076,-0.106673 -0.08939,0.02097 z m 10.867672,-1.394045 -0.181733,0.0465 -0.17584,0.06382 -0.169945,0.07932 -0.162087,0.09573 -0.152264,0.110321 0.07171,0.09117 0.06876,0.09209 0.06582,0.09391 0.06483,0.09573 0.06091,0.09664 0.05894,0.09847 0.05698,0.09938 0.05403,0.100291 0.05206,0.102114 0.04814,0.103938 0.176822,-0.0702 0.167981,-0.08479 0.156193,-0.09938 0.145387,-0.113056 0.132616,-0.124907 0.119846,-0.135849 0.106093,-0.14679 0.09038,-0.156819 0.07564,-0.165024 0.05796,-0.172318 0.01768,-0.06473 -0.06778,-0.0155 -0.187629,-0.0392 -0.189592,-0.02097 -0.189592,-0.0037 -0.187628,0.01276 z m -10.341136,-0.02006 -0.187628,0.03829 -0.06876,0.0155 0.01867,0.06473 0.05796,0.172319 0.07466,0.165024 0.09136,0.156819 0.105111,0.145878 0.119846,0.13676 0.133599,0.124908 0.145387,0.112144 0.156193,0.09938 0.166998,0.08479 0.176822,0.0702 0.04912,-0.103026 0.05206,-0.102115 0.05403,-0.101202 0.05599,-0.09938 0.05894,-0.09755 0.06189,-0.09756 0.06385,-0.09482 0.0668,-0.09391 0.06876,-0.093 0.07171,-0.09026 L 20.870306,19.92484 20.70822,19.83002 20.539257,19.7507 20.362435,19.68779 20.181683,19.64038 19.99602,19.6103 19.808393,19.59662 19.6188,19.60032 Z m 10.123056,-1.252726 -0.09136,0.0073 -0.09037,0.01277 -0.09038,0.01641 -0.08939,0.02006 -0.08743,0.02462 -0.03733,0.144055 -0.04617,0.141319 -0.05403,0.139495 -0.06189,0.135849 -0.06975,0.132202 -0.07859,0.128555 0.135564,-0.07385 0.140475,-0.06656 0.143422,-0.05926 0.147351,-0.05106 0.149317,-0.04285 0.152263,-0.03556 0.02652,-0.08297 0.02063,-0.08388 0.01769,-0.0857 0.01277,-0.0857 0.0088,-0.08662 0.0039,-0.08662 v -0.06656 h -0.07073 z m -9.314587,0.062 0.0049,0.08661 0.0079,0.08662 0.01277,0.0857 0.01768,0.0857 0.02161,0.08388 0.02554,0.08297 0.152264,0.03556 0.150299,0.04285 0.146369,0.05106 0.143422,0.05926 0.140475,0.06656 0.135564,0.07385 -0.0776,-0.128555 -0.07073,-0.132202 -0.06189,-0.135848 -0.05403,-0.139496 -0.04617,-0.141319 -0.03733,-0.144054 -0.08743,-0.02462 -0.08939,-0.02006 -0.08939,-0.01641 -0.09136,-0.01277 -0.09136,-0.0073 -0.09136,-0.0046 h -0.07073 z m 7.838124,-1.001087 -0.173875,0.07112 -0.165034,0.0857 -0.15521,0.100291 -0.143422,0.113055 -0.131634,0.12582 -0.118864,0.137672 -0.105111,0.147702 -0.08939,0.158642 -0.07368,0.166847 0.10904,0.0465 0.108058,0.04832 0.106093,0.05106 0.105111,0.05379 0.104129,0.05561 0.102163,0.05835 0.101182,0.06018 0.09922,0.06291 0.09725,0.06564 0.09627,0.06747 0.116899,-0.144966 0.101182,-0.15226 0.0835,-0.160465 0.0668,-0.166848 0.0501,-0.171407 0.03144,-0.175053 0.01473,-0.177788 -0.0039,-0.179613 -0.0226,-0.1787 -0.04126,-0.177789 -0.01866,-0.06473 -0.06778,0.01732 z m -6.45793,-0.04923 -0.0019,0.0091 -0.0019,0.0091 -0.0019,0.0064 -0.0019,0.0064 -9.72e-4,0.0046 -9.72e-4,0.0027 -9.72e-4,0.0018 v 9.15e-4 l -0.04027,0.177789 -0.0226,0.1787 -0.0039,0.179612 0.01375,0.177789 0.03242,0.175053 0.0501,0.171407 0.0668,0.166847 0.08448,0.160466 0.100199,0.153172 0.116898,0.144054 0.09627,-0.06747 0.09823,-0.06564 0.09922,-0.06291 0.100199,-0.06018 0.102164,-0.05835 0.104129,-0.05561 0.10511,-0.05379 0.107076,-0.05106 0.107076,-0.04832 0.110022,-0.0465 -0.07466,-0.16776 -0.08939,-0.15773 -0.105111,-0.148613 -0.118864,-0.136761 -0.131634,-0.125819 -0.144404,-0.113967 -0.155211,-0.09938 -0.165034,-0.08662 -0.174856,-0.0702 -0.182716,-0.05561 -0.06778,-0.01732 -0.0039,0.01277 z m 3.178865,-0.691096 -0.112969,0.144054 -0.09824,0.15226 -0.08153,0.160466 -0.06483,0.165936 -0.04814,0.171406 -0.02947,0.175965 -0.01277,0.177789 0.0059,0.179612 0.02456,0.179612 0.118864,-0.01277 0.118863,-0.01094 0.119846,-0.0073 0.119846,-0.0046 0.119846,-0.0018 0.118864,0.0018 0.119845,0.0046 0.119847,0.0073 0.118863,0.01094 0.118864,0.01277 0.02456,-0.179612 0.0059,-0.179612 -0.01179,-0.177789 -0.03045,-0.175965 -0.04814,-0.171406 -0.06484,-0.165936 -0.08153,-0.160466 -0.09725,-0.15226 -0.113952,-0.144054 -0.129669,-0.134025 -0.04912,-0.04741 -0.0501,0.04741 z m 1.776078,0.113967 -0.07368,0.04923 -0.07171,0.05288 -0.06778,0.05562 -0.06582,0.05926 -0.06287,0.062 0.04421,0.141319 0.03536,0.144055 0.02652,0.145878 0.01769,0.146789 0.0088,0.147702 v 0.147701 l 0.07859,-0.126732 0.08546,-0.123084 0.09234,-0.117614 0.100199,-0.112144 0.106093,-0.107585 0.111987,-0.101202 -0.02161,-0.08479 -0.02554,-0.08297 -0.03045,-0.08206 -0.03438,-0.08023 -0.03831,-0.07841 -0.04224,-0.0775 -0.03536,-0.05744 -0.0609,0.03282 z m -3.408734,0.0547 -0.03831,0.07932 -0.0334,0.08023 -0.03045,0.08206 -0.02554,0.08297 -0.02161,0.08388 0.111987,0.102114 0.106094,0.106673 0.09922,0.113056 0.09332,0.117614 0.08546,0.123084 0.07761,0.126732 v -0.148613 l 0.0088,-0.14679 0.01769,-0.146789 0.02652,-0.145878 0.03635,-0.144055 0.04421,-0.14223 -0.06287,-0.062 -0.06582,-0.05835 -0.06876,-0.05562 -0.07171,-0.05288 -0.07367,-0.04923 -0.07662,-0.0465 -0.06091,-0.03282 -0.03536,0.05744 z"
     id="use28"
     style="fill:#c89dd5;fill-opacity:0.99215686;stroke-width:0.0946383" />
  <circle
     style="fill:#c89dd5;fill-opacity:0.99215686;stroke:#ffffff;stroke-width:1.71526;stroke-linecap:round;stroke-linejoin:bevel;stroke-miterlimit:4;stroke-dasharray:none;stroke-dashoffset:0;stroke-opacity:1"
     id="path4497"
     cx="33.748055"
     cy="36.135509"
     r="7.0936117" />
  <path
     style="fill:#f9f9f9;fill-opacity:1;stroke:none;stroke-width:8.57629;stroke-linecap:round;stroke-linejoin:bevel;stroke-miterlimit:4;stroke-dasharray:none;stroke-dashoffset:0;stroke-opacity:1"
     d="m 33.090872,31.561488 c -0.387639,0 -0.699057,0.312535 -0.699057,0.700174 v 0.663323 a 3.488662,3.488662 0 0 0 -0.745959,0.431048 l -0.575103,-0.332778 c -0.335705,-0.193821 -0.762079,-0.07886 -0.955899,0.256842 l -0.656623,1.137923 c -0.19382,0.335705 -0.07998,0.762079 0.255726,0.955899 l 0.575103,0.331661 a 3.488662,3.488662 0 0 0 -0.03015,0.429932 3.488662,3.488662 0 0 0 0.03127,0.429931 l -0.576219,0.332778 c -0.335706,0.193819 -0.449546,0.620194 -0.255726,0.955899 l 0.656623,1.137923 c 0.19382,0.335705 0.620194,0.449545 0.955899,0.255725 l 0.57622,-0.332778 a 3.488662,3.488662 0 0 0 0.744842,0.434398 v 0.66109 c 0,0.387639 0.311418,0.699057 0.699057,0.699057 h 1.314362 c 0.387639,0 0.699057,-0.311418 0.699057,-0.699057 v -0.66444 a 3.488662,3.488662 0 0 0 0.745959,-0.431048 l 0.575103,0.332778 c 0.335706,0.19382 0.76208,0.07998 0.955899,-0.255725 l 0.656623,-1.137923 c 0.19382,-0.335705 0.07998,-0.76208 -0.255725,-0.955899 l -0.575103,-0.332778 a 3.488662,3.488662 0 0 0 0.03015,-0.429931 3.488662,3.488662 0 0 0 -0.03127,-0.428815 l 0.57622,-0.332778 c 0.335705,-0.19382 0.449545,-0.620194 0.255725,-0.955899 l -0.656624,-1.137923 c -0.193819,-0.335705 -0.620193,-0.450663 -0.955899,-0.256842 l -0.576219,0.332778 a 3.488662,3.488662 0 0 0 -0.744843,-0.434398 v -0.659973 c 0,-0.387639 -0.311418,-0.700174 -0.699057,-0.700174 z m 0.656623,1.880531 a 2.6940222,2.6940222 0 0 1 2.694609,2.693493 2.6940222,2.6940222 0 0 1 -2.694609,2.693492 2.6940222,2.6940222 0 0 1 -2.693492,-2.693492 2.6940222,2.6940222 0 0 1 2.693492,-2.693493 z"
     id="rect4499"
     inkscape:connector-curvature="0" />
</svg>
