<?xml version="1.0" encoding="UTF-8" standalone="no"?>
<svg
   xmlns:dc="http://purl.org/dc/elements/1.1/"
   xmlns:cc="http://creativecommons.org/ns#"
   xmlns:rdf="http://www.w3.org/1999/02/22-rdf-syntax-ns#"
   xmlns:svg="http://www.w3.org/2000/svg"
   xmlns="http://www.w3.org/2000/svg"
   xmlns:sodipodi="http://sodipodi.sourceforge.net/DTD/sodipodi-0.dtd"
   xmlns:inkscape="http://www.inkscape.org/namespaces/inkscape"
   height="48"
   width="48"
   version="1.1"
   id="svg6"
   sodipodi:docname="cs-desktop-effects.svg"
   inkscape:version="1.0.2 (e86c870879, 2021-01-15)">
  <metadata
     id="metadata12">
    <rdf:RDF>
      <cc:Work
         rdf:about="">
        <dc:format>image/svg+xml</dc:format>
        <dc:type
           rdf:resource="http://purl.org/dc/dcmitype/StillImage" />
        <dc:title></dc:title>
      </cc:Work>
    </rdf:RDF>
  </metadata>
  <defs
     id="defs10" />
  <sodipodi:namedview
     pagecolor="#ffffff"
     bordercolor="#666666"
     borderopacity="1"
     objecttolerance="10"
     gridtolerance="10"
     guidetolerance="10"
     inkscape:pageopacity="0"
     inkscape:pageshadow="2"
     inkscape:window-width="1920"
     inkscape:window-height="1031"
     id="namedview8"
     showgrid="false"
     inkscape:zoom="1.6720129"
     inkscape:cx="-273.93697"
     inkscape:cy="24.513883"
     inkscape:window-x="0"
     inkscape:window-y="24"
     inkscape:window-maximized="1"
     inkscape:current-layer="svg6"
     inkscape:document-rotation="0" />
  <circle
     cx="23.940615"
     cy="31.534513"
     fill="#5e81ac"
     opacity=".99"
     id="circle2"
     style="fill:#c67486;fill-opacity:1"
     transform="matrix(1.75830584759 0 0 1.75830608345 -18.15909274367 -30.97874795549)"
     r="13.232998" />
  <g
     id="g981"
     transform="translate(-0.27444652,0.46623468)">
    <rect
       style="opacity:1;fill:none;fill-opacity:1;stroke:#ffffff;stroke-width:1.87675;stroke-linecap:square;stroke-linejoin:miter;stroke-miterlimit:4;stroke-dasharray:none;stroke-opacity:1"
       id="rect945"
       width="27.048096"
       height="19.069408"
       x="10.686229"
       y="12.184961"
       rx="0"
       ry="0" />
    <rect
       style="opacity:1;fill:#ffffff;fill-opacity:1;stroke:none;stroke-width:2;stroke-linecap:square;stroke-linejoin:miter;stroke-miterlimit:4;stroke-dasharray:none;stroke-opacity:0.954388"
       id="rect947"
       width="27.439325"
       height="1.884195"
       x="10.28513"
       y="26.328337"
       ry="0" />
    <g
       id="g963"
       transform="translate(1.3653283)">
      <g
         id="g957"
         transform="translate(0.61684513)">
        <rect
           style="opacity:1;fill:#ffffff;fill-opacity:1;stroke:none;stroke-width:2;stroke-linecap:square;stroke-linejoin:miter;stroke-miterlimit:4;stroke-dasharray:none;stroke-opacity:0.954388"
           id="rect949"
           width="1.932929"
           height="6.6240458"
           x="18.804722"
           y="30.918709" />
        <rect
           style="opacity:1;fill:#ffffff;fill-opacity:1;stroke:none;stroke-width:2;stroke-linecap:square;stroke-linejoin:miter;stroke-miterlimit:4;stroke-dasharray:none;stroke-opacity:0.954388"
           id="rect951"
           width="1.932929"
           height="6.6240458"
           x="23.718555"
           y="30.918709" />
      </g>
      <rect
         style="opacity:1;fill:#ffffff;fill-opacity:1;stroke:none;stroke-width:2.63532;stroke-linecap:square;stroke-linejoin:miter;stroke-miterlimit:4;stroke-dasharray:none;stroke-opacity:0.954388"
         id="rect953"
         width="1.932929"
         height="11.500876"
         x="37.542755"
         y="-28.595387"
         transform="rotate(90)" />
    </g>
  </g>
  <ellipse
     style="fill:#ffffff;fill-opacity:0.99215698;stroke:#c77485;stroke-width:2;stroke-linecap:square;stroke-miterlimit:4;stroke-dasharray:none;stroke-opacity:1"
     id="path850"
     cx="32.674698"
     cy="33.44595"
     rx="9.5022974"
     ry="9.4110479" />
  <path
     d="m 34.495065,28.916913 c -0.252134,0.0024 -0.509203,0.01747 -0.764339,0.04962 l 3.99e-4,-0.0024 c -1.062879,0.132572 -2.205118,0.632602 -3.134279,2.112032 -2.124462,3.3806 -1.973531,4.557267 -2.312109,4.937588 -0.339862,0.378658 -1.255748,0.584097 -1.123319,1.014542 0.770119,2.109201 4.500989,1.867161 5.482802,1.76078 3.878636,-0.485546 4.416446,-1.276881 4.381305,-1.669628 -0.03516,-0.393161 -0.853677,-0.679834 -0.853677,-0.679834 0,0 -0.605936,-2.064784 -0.450365,-2.912421 0.155576,-0.848051 0.746482,-2.083978 1.330636,-2.349953 0.58244,-0.268462 1.096856,0.745155 1.398152,0.457222 0.322233,-0.51045 -0.940029,-1.967431 -1.278536,-2.213474 -0.08187,-0.04735 -0.210382,-0.116092 -0.23391,-0.126314 -0.350243,-0.154068 -1.350194,-0.387576 -2.442772,-0.37771 z m -0.594806,2.242631 0.413677,0.998497 1.096724,0.378695 -0.845628,0.65202 -0.01842,1.058529 -0.897456,-0.555115 -1.200519,0.373672 0.336481,-1.026184 -0.625766,-0.946183 1.138326,-0.05844 z m -2.832442,2.064863 0.279465,1.040766 1.03794,0.511128 -0.923917,0.542375 -0.157393,1.046888 -0.815078,-0.658762 -1.24075,0.223343 0.467139,-0.975705 -0.495372,-1.016136 1.13655,0.08233 z m 2.297243,0.661581 0.699824,0.832736 1.163554,0.04851 -0.605987,0.864222 0.306474,1.01626 -1.026482,-0.27174 -1.031121,0.70054 0.0069,-1.076293 -0.889277,-0.723818 1.069719,-0.380285 0.306471,-1.010134 z"
     id="path12"
     style="fill:#c67486;stroke-width:0.398655;fill-opacity:0.99215686" />
</svg>
