<?xml version="1.0" encoding="UTF-8" standalone="no"?>
<svg
   xmlns:dc="http://purl.org/dc/elements/1.1/"
   xmlns:cc="http://creativecommons.org/ns#"
   xmlns:rdf="http://www.w3.org/1999/02/22-rdf-syntax-ns#"
   xmlns:svg="http://www.w3.org/2000/svg"
   xmlns="http://www.w3.org/2000/svg"
   xmlns:sodipodi="http://sodipodi.sourceforge.net/DTD/sodipodi-0.dtd"
   xmlns:inkscape="http://www.inkscape.org/namespaces/inkscape"
   height="48"
   width="48"
   version="1.1"
   id="svg6"
   sodipodi:docname="ca.desrt.dconf-editor.svg"
   inkscape:version="1.0.2 (e86c870879, 2021-01-15)">
  <metadata
     id="metadata12">
    <rdf:RDF>
      <cc:Work
         rdf:about="">
        <dc:format>image/svg+xml</dc:format>
        <dc:type
           rdf:resource="http://purl.org/dc/dcmitype/StillImage" />
        <dc:title></dc:title>
      </cc:Work>
    </rdf:RDF>
  </metadata>
  <defs
     id="defs10" />
  <sodipodi:namedview
     pagecolor="#ffffff"
     bordercolor="#666666"
     borderopacity="1"
     objecttolerance="10"
     gridtolerance="10"
     guidetolerance="10"
     inkscape:pageopacity="0"
     inkscape:pageshadow="2"
     inkscape:window-width="1920"
     inkscape:window-height="1031"
     id="namedview8"
     showgrid="false"
     inkscape:zoom="6.6880518"
     inkscape:cx="-37.353133"
     inkscape:cy="23.633077"
     inkscape:window-x="0"
     inkscape:window-y="24"
     inkscape:window-maximized="1"
     inkscape:current-layer="svg6"
     inkscape:document-rotation="0" />
  <path
     d="m44.322082 27.405077a19.729762 19.729765 0 0 1 -19.729762 19.729765 19.729762 19.729765 0 0 1 -19.7297621-19.729765 19.729762 19.729765 0 0 1 19.7297621-19.7297632 19.729762 19.729765 0 0 1 19.729762 19.7297632z"
     fill="#8fbcbb"
     opacity=".99"
     transform="matrix(1.1503549 0 0 1.1503549 -4.486125 -7.525565)"
     id="path2"
     style="fill:#85ba91;fill-opacity:1" />
  <path
     d="m 21.923986,9.4203602 c -0.506947,-0.223431 -1.09494,0.0048 -1.31837,0.511762 l -0.549029,1.2457058 a 7.986136,8.0745239 23.784859 0 0 -2.141036,-0.0237 L 17.413784,9.8615072 c -0.100239,-0.258227 -0.294129,-0.451929 -0.528038,-0.555021 -0.233908,-0.103092 -0.507695,-0.115516 -0.765923,-0.01528 l -1.864258,0.7236648 c -0.516454,0.200477 -0.770772,0.777505 -0.570296,1.29396 l 0.505766,1.302921 a 7.986136,8.0745239 23.784859 0 0 -1.55043,1.459614 l -1.263578,-0.556905 c -0.506946,-0.22343 -1.094939,0.0048 -1.318369,0.511763 l -0.8066074,1.830133 c -0.2234301,0.506947 0.00482,1.09494 0.5117628,1.31837 l 1.1938756,0.526185 a 7.986136,8.0745239 23.784859 0 0 -0.113496,2.218854 L 9.6931946,20.366559 C 9.1767401,20.567037 8.9224222,21.144066 9.1228984,21.66052 l 0.7236646,1.864258 c 0.200476,0.516454 0.777505,0.770772 1.29396,0.570296 L 12.17565,23.69326 a 7.986136,8.0745239 23.784859 0 0 1.595862,1.744946 l -0.425359,0.965109 c -0.22343,0.506947 0.0048,1.09494 0.511763,1.31837 l 1.830132,0.806607 c 0.506947,0.22343 1.09494,-0.0048 1.31837,-0.511763 l 0.409605,-0.929364 a 7.986136,8.0745239 23.784859 0 0 2.4094,0.03953 l 0.372827,0.960453 c 0.200478,0.516455 0.777507,0.770773 1.293961,0.570296 l 1.864258,-0.723664 c 0.516454,-0.200477 0.770772,-0.777506 0.570296,-1.293961 l -0.400814,-1.032551 a 7.986136,8.0745239 23.784859 0 0 1.643862,-1.642548 l 1.065193,0.46947 c 0.506947,0.22343 1.09494,-0.0048 1.31837,-0.511763 l 0.806607,-1.830133 c 0.22343,-0.506946 -0.0048,-1.094939 -0.511763,-1.318369 l -1.131322,-0.498616 a 7.986136,8.0745239 23.784859 0 0 0.01489,-2.23243 l 1.187048,-0.460787 c 0.516455,-0.200477 0.770773,-0.777506 0.570297,-1.29396 L 27.765468,14.423874 C 27.564991,13.90742 26.987962,13.653102 26.471507,13.853578 l -1.220522,0.473781 a 7.986136,8.0745239 23.784859 0 0 -1.52232,-1.563126 l 0.537213,-1.218897 c 0.22343,-0.506946 -0.0048,-1.094939 -0.511763,-1.318369 z m -0.82418,4.3495258 a 5.6875,5.6875 0 0 1 2.91065,7.498228 5.6875,5.6875 0 0 1 -7.498228,2.910651 5.6875,5.6875 0 0 1 -2.910651,-7.498228 5.6875,5.6875 0 0 1 7.498229,-2.910651 z"
     id="path4"
     style="fill:#ffffff;fill-opacity:0.68932307" />
  <path
     d="m 35.315059,21.682836 c -0.506947,-0.22343 -1.09494,0.0048 -1.31837,0.511763 l -0.403304,0.915066 a 6.1897211,6.1897211 0 0 0 -1.820022,-0.04017 L 31.411531,22.137366 C 31.211054,21.620911 30.634025,21.366593 30.11757,21.56707 l -0.932129,0.361832 c -0.516454,0.200477 -0.770773,0.777506 -0.570296,1.293961 l 0.362832,0.934703 a 6.1897211,6.1897211 0 0 0 -1.315468,1.255816 l -0.916854,-0.404091 c -0.506947,-0.22343 -1.094939,0.0048 -1.31837,0.511763 l -0.403303,0.915066 c -0.22343,0.506947 0.0048,1.09494 0.511763,1.31837 l 0.915066,0.403303 a 6.1897211,6.1897211 0 0 0 -0.04017,1.820023 l -0.932129,0.361832 c -0.516455,0.200476 -0.770773,0.777506 -0.570296,1.29396 l 0.361832,0.93213 c 0.200477,0.516454 0.777506,0.770772 1.293961,0.570296 l 0.934703,-0.362832 a 6.1897211,6.1897211 0 0 0 1.255816,1.315468 l -0.404088,0.916857 c -0.22343,0.506946 0.0048,1.094939 0.511763,1.318369 l 0.915066,0.403304 c 0.506947,0.22343 1.09494,-0.0048 1.31837,-0.511763 l 0.403303,-0.915066 a 6.1897211,6.1897211 0 0 0 1.820023,0.04017 l 0.361832,0.932129 c 0.200476,0.516454 0.777506,0.770773 1.29396,0.570296 l 0.93213,-0.361832 c 0.516454,-0.200477 0.770772,-0.777507 0.570296,-1.293961 l -0.362832,-0.934706 a 6.1897211,6.1897211 0 0 0 1.315468,-1.255816 l 0.916854,0.404091 c 0.506946,0.22343 1.094939,-0.0048 1.318369,-0.511763 l 0.403304,-0.915066 c 0.22343,-0.506947 -0.0048,-1.09494 -0.511763,-1.31837 l -0.915066,-0.403304 a 6.1897211,6.1897211 0 0 0 0.04017,-1.820022 l 0.932129,-0.361832 c 0.516454,-0.200477 0.770773,-0.777506 0.570296,-1.293961 L 39.82228,25.844295 c -0.200477,-0.516454 -0.777507,-0.770773 -1.293961,-0.570296 l -0.934703,0.362832 A 6.1897211,6.1897211 0 0 0 36.3378,24.321363 l 0.404091,-0.916854 c 0.22343,-0.506947 -0.0048,-1.094939 -0.511763,-1.31837 z m -1.319523,4.233662 a 3.59375,3.59375 0 0 1 1.839147,4.737892 3.59375,3.59375 0 0 1 -4.737891,1.839147 3.59375,3.59375 0 0 1 -1.839148,-4.737891 3.59375,3.59375 0 0 1 4.737892,-1.839148 z"
     id="path6"
     style="fill:#ffffff" />
  <path
     d="m 20.388703,29.361435 c -0.35275,-0.15547 -0.761894,0.0034 -0.917363,0.356099 l -0.280631,0.636732 a 4.3070007,4.3070007 0 0 0 -1.266428,-0.02795 l -0.251775,-0.648604 c -0.139497,-0.359367 -0.541013,-0.536329 -0.900377,-0.39683 l -0.648605,0.251773 c -0.359365,0.139498 -0.536328,0.541014 -0.39683,0.900378 l 0.25247,0.650396 a 4.3070007,4.3070007 0 0 0 -0.915343,0.873837 l -0.637975,-0.28118 c -0.35275,-0.155469 -0.761894,0.0034 -0.917364,0.356101 l -0.280631,0.636731 c -0.15547,0.35275 0.0034,0.761894 0.356101,0.917364 l 0.636731,0.28063 a 4.3070007,4.3070007 0 0 0 -0.02795,1.266428 l -0.648605,0.251775 c -0.359365,0.139497 -0.536328,0.541013 -0.396829,0.900377 l 0.251774,0.648605 c 0.139497,0.359365 0.541013,0.536328 0.900378,0.39683 l 0.650395,-0.25247 a 4.3070007,4.3070007 0 0 0 0.873836,0.915343 l -0.281179,0.637975 c -0.15547,0.35275 0.0034,0.761894 0.356101,0.917364 l 0.636731,0.280631 c 0.352749,0.15547 0.761894,-0.0034 0.917364,-0.356101 l 0.28063,-0.636731 a 4.3070007,4.3070007 0 0 0 1.266428,0.02795 l 0.251775,0.648605 c 0.139497,0.359365 0.541013,0.536328 0.900378,0.39683 l 0.648604,-0.251775 c 0.359366,-0.139497 0.536328,-0.541012 0.39683,-0.900378 l -0.25247,-0.650395 a 4.3070007,4.3070007 0 0 0 0.915345,-0.873836 l 0.637975,0.28118 c 0.352749,0.155469 0.761892,-0.0034 0.917362,-0.356102 l 0.280631,-0.636731 c 0.155469,-0.352749 -0.0034,-0.761893 -0.3561,-0.917363 l -0.636732,-0.280631 a 4.3070007,4.3070007 0 0 0 0.02795,-1.266428 l 0.648605,-0.251775 c 0.359366,-0.139497 0.536328,-0.541012 0.39683,-0.900378 l -0.251774,-0.648604 c -0.139498,-0.359366 -0.541013,-0.536328 -0.900378,-0.396829 l -0.650396,0.252469 a 4.3070007,4.3070007 0 0 0 -0.873836,-0.915345 l 0.281179,-0.637975 c 0.15547,-0.352749 -0.0034,-0.761892 -0.356101,-0.917362 z m -0.918165,2.945914 a 2.5006431,2.5006431 0 0 1 1.279736,3.296771 2.5006431,2.5006431 0 0 1 -3.296772,1.279737 2.5006431,2.5006431 0 0 1 -1.279736,-3.296773 2.5006431,2.5006431 0 0 1 3.296772,-1.279735 z"
     id="path8"
     style="fill:#ffffff;fill-opacity:0.54901153" />
</svg>
