<?xml version="1.0" encoding="UTF-8" standalone="no"?>
<svg
   height="48"
   width="48"
   version="1.1"
   id="svg6"
   sodipodi:docname="showmypictures.svg"
   inkscape:version="1.1.2 (0a00cf5339, 2022-02-04)"
   xmlns:inkscape="http://www.inkscape.org/namespaces/inkscape"
   xmlns:sodipodi="http://sodipodi.sourceforge.net/DTD/sodipodi-0.dtd"
   xmlns:xlink="http://www.w3.org/1999/xlink"
   xmlns="http://www.w3.org/2000/svg"
   xmlns:svg="http://www.w3.org/2000/svg"
   xmlns:rdf="http://www.w3.org/1999/02/22-rdf-syntax-ns#"
   xmlns:cc="http://creativecommons.org/ns#"
   xmlns:dc="http://purl.org/dc/elements/1.1/">
  <metadata
     id="metadata12">
    <rdf:RDF>
      <cc:Work
         rdf:about="">
        <dc:format>image/svg+xml</dc:format>
        <dc:type
           rdf:resource="http://purl.org/dc/dcmitype/StillImage" />
        <dc:title />
      </cc:Work>
    </rdf:RDF>
  </metadata>
  <defs
     id="defs10">
    <linearGradient
       inkscape:collect="always"
       id="linearGradient868">
      <stop
         style="stop-color:#edf4ee;stop-opacity:1"
         offset="0"
         id="stop864" />
      <stop
         style="stop-color:#ededed;stop-opacity:0.97804415"
         offset="1"
         id="stop866" />
    </linearGradient>
    <linearGradient
       inkscape:collect="always"
       xlink:href="#linearGradient868"
       id="linearGradient870"
       x1="12.30246"
       y1="18.046669"
       x2="15.181292"
       y2="9.6734638"
       gradientUnits="userSpaceOnUse" />
  </defs>
  <sodipodi:namedview
     pagecolor="#ffffff"
     bordercolor="#666666"
     borderopacity="1"
     objecttolerance="10"
     gridtolerance="10"
     guidetolerance="10"
     inkscape:pageopacity="0"
     inkscape:pageshadow="2"
     inkscape:window-width="1920"
     inkscape:window-height="1031"
     id="namedview8"
     showgrid="false"
     inkscape:zoom="3.3440258"
     inkscape:cx="-126.04568"
     inkscape:cy="16.297721"
     inkscape:window-x="0"
     inkscape:window-y="0"
     inkscape:window-maximized="1"
     inkscape:current-layer="svg6"
     inkscape:document-rotation="0"
     inkscape:pagecheckerboard="0" />
  <path
     id="circle2"
     style="opacity:0.99;fill:#b0bfce"
     transform="matrix(1.75830584759 0 0 1.75830608345 -18.15909274367 -30.97874795549)"
     d="M 37.173613,31.534513 A 13.232998,13.232998 0 0 1 23.940615,44.767511 13.232998,13.232998 0 0 1 10.707617,31.534513 13.232998,13.232998 0 0 1 23.940615,18.301516 13.232998,13.232998 0 0 1 37.173613,31.534513 Z" />
  <path
     id="circle831"
     style="opacity:0.99;fill:#ffffff;fill-opacity:0.994427;stroke-width:1.6391"
     d="M 45.626064,24.468578 A 21.690235,21.690239 0 0 1 23.935829,46.158817 21.690235,21.690239 0 0 1 2.245594,24.468578 21.690235,21.690239 0 0 1 23.935829,2.7783394 21.690235,21.690239 0 0 1 45.626064,24.468578 Z" />
  <path
     id="ellipse833"
     style="opacity:0.99;fill:#88c0d0;stroke-width:1.5348;fill-opacity:1"
     d="M 44.245905,24.468578 A 20.310076,20.31008 0 0 1 23.935829,44.778658 20.310076,20.31008 0 0 1 3.6257534,24.468578 20.310076,20.31008 0 0 1 23.935829,4.1584988 20.310076,20.31008 0 0 1 44.245905,24.468578 Z" />
  <path
     id="ellipse835"
     style="fill:#4c566a;fill-opacity:1;stroke-width:1.5348"
     d="M 5.3828125 32.732422 A 20.310076 20.31008 0 0 0 23.935547 44.779297 A 20.310076 20.31008 0 0 0 42.488281 32.732422 L 5.3828125 32.732422 z " />
  <path
     d="m 30.237728,17.348231 c -0.05117,0.09824 -0.165784,0.216951 -0.378641,0.388874 -0.458463,0.370454 -0.634481,0.66518 -0.634481,1.054054 0,0.358174 0.151458,0.687694 0.493257,1.074521 0.07982,0.09005 0.139178,0.171923 0.133036,0.182157 -0.0061,0.01023 0.02046,0.0573 0.05936,0.106428 0.04298,0.05526 0.07164,0.112569 0.07164,0.14941 0,0.03275 0.02865,0.104382 0.06345,0.159644 0.08801,0.145315 0.173969,0.423667 0.20467,0.659038 0.02455,0.204671 0.01637,0.800262 -0.01842,1.250538 -0.01637,0.196483 -0.0614,0.337706 -0.10643,0.337706 -0.01023,0 -0.06549,-0.04094 -0.122799,-0.0921 -0.0573,-0.05117 -0.268119,-0.214904 -0.466651,-0.366361 -0.442087,-0.331565 -0.72044,-0.562843 -0.72044,-0.59559 0,-0.01228 -0.05117,-0.108476 -0.114615,-0.214905 -0.120757,-0.196483 -0.171925,-0.329519 -0.171925,-0.437994 0,-0.106429 0.09005,-0.266073 0.2497,-0.446183 0.08391,-0.09415 0.169876,-0.196483 0.190344,-0.229231 l 0.03889,-0.05936 -0.04912,0.01638 c -0.186251,0.0573 -0.456416,0.214904 -0.618105,0.360221 -0.06959,0.06345 -0.08392,0.0921 -0.139178,0.315192 -0.09415,0.36636 -0.100288,0.458463 -0.03479,0.568985 0.07982,0.137129 0.327472,0.39092 0.736815,0.757281 0.52805,0.472789 0.669271,0.659039 0.669271,0.886223 0,0.08596 -0.01023,0.11257 -0.05321,0.153503 -0.05936,0.05526 -0.114617,0.14941 -0.10643,0.182157 0.0041,0.01228 -0.04298,0.04298 -0.104381,0.06959 -0.06345,0.02661 -0.100289,0.05322 -0.08596,0.0614 0.01228,0.0082 0.02251,0.02866 0.02251,0.04298 0,0.0307 -0.530096,0.395014 -0.691785,0.478929 -0.04913,0.02456 -0.108476,0.07777 -0.135082,0.122803 -0.05526,0.08596 -0.145317,0.165783 -0.188298,0.165783 -0.01432,0 -0.03684,0.03479 -0.04913,0.07573 -0.03274,0.102336 -0.11052,0.235371 -0.186249,0.32338 -0.04707,0.05321 -0.06141,0.08596 -0.05526,0.137129 0.0061,0.0573 0,0.06754 -0.04298,0.07368 -0.07164,0.01023 -0.386826,-0.319286 -0.697926,-0.732721 -0.139175,-0.18625 -0.352032,-0.440042 -0.474835,-0.566937 -0.120757,-0.124849 -0.251746,-0.278353 -0.290633,-0.339753 -0.266072,-0.415482 -0.184205,-0.933298 0.178064,-1.121595 0.128942,-0.06549 0.159643,-0.108476 0.112569,-0.153503 -0.04707,-0.04707 -0.182157,-0.0614 -0.202624,-0.02251 -0.01023,0.01638 -0.08187,0.05526 -0.159645,0.08596 -0.16783,0.06345 -0.268116,0.133036 -0.427761,0.294725 -0.09824,0.100289 -0.124849,0.141223 -0.155548,0.249699 -0.05731,0.210811 -0.06754,0.214905 -0.257885,0.106429 -0.08802,-0.04912 -0.274268,-0.139175 -0.413442,-0.198529 -0.255839,-0.110523 -1.146155,-0.456416 -1.295567,-0.50349 -0.36022,-0.112568 -0.493256,-0.380687 -0.349986,-0.706113 0.100289,-0.225138 0.206719,-0.366361 0.325426,-0.429809 0.0573,-0.03275 0.218999,-0.126896 0.358174,-0.208764 0.450275,-0.268118 0.787981,-0.425715 1.313985,-0.614011 0.585358,-0.208765 0.714301,-0.302913 0.72044,-0.526004 0,-0.04707 -0.01432,-0.120755 -0.03479,-0.163736 -0.03889,-0.07982 -0.126896,-0.161691 -0.16169,-0.14941 -0.01228,0.0041 -0.03684,0.07164 -0.05321,0.14941 -0.01842,0.07777 -0.04503,0.161689 -0.0573,0.18625 -0.04094,0.07573 -0.149409,0.141223 -0.341799,0.206717 -1.025401,0.345893 -1.316034,0.450275 -1.47363,0.523957 -0.120754,0.0573 -0.315193,0.18625 -0.562844,0.368407 -0.532143,0.392968 -0.646758,0.507583 -0.677459,0.6836 -0.01023,0.05117 -0.03479,0.112569 -0.05526,0.130988 -0.03275,0.03479 -0.04707,0.02866 -0.259931,-0.128942 -0.253793,-0.188297 -0.403202,-0.323379 -0.468696,-0.427762 -0.05117,-0.07777 -0.194437,-0.435948 -0.245606,-0.611963 -0.04298,-0.149411 -0.04093,-0.370455 0.0061,-0.534191 0.02046,-0.07368 0.102335,-0.28654 0.184203,-0.47279 0.184204,-0.427761 0.225137,-0.597637 0.190343,-0.802309 -0.03275,-0.19239 -0.120756,-0.376593 -0.24151,-0.505536 -0.05322,-0.05526 -0.102335,-0.102335 -0.112568,-0.102335 -0.0082,0 0.002,0.05117 0.02455,0.112568 0.14122,0.405249 0.08187,0.679508 -0.278354,1.279192 -0.07164,0.118709 -0.145316,0.249698 -0.165783,0.290632 -0.04299,0.0921 -0.07573,0.09619 -0.25789,0.03479 -0.151455,-0.05117 -0.57717,-0.280399 -0.728628,-0.390921 -0.11052,-0.08187 -0.16783,-0.173969 -0.208762,-0.333613 -0.02456,-0.102335 -0.08801,-0.20467 -0.139178,-0.233325 -0.03684,-0.02047 -0.04298,-0.01228 -0.06345,0.10643 -0.07368,0.421621 0.03889,0.589451 0.620151,0.933298 0.341799,0.202623 0.464602,0.296772 0.515771,0.395014 0.01637,0.03275 0.04912,0.141223 0.06959,0.241511 0.04298,0.204671 0.05526,0.229232 0.235372,0.532144 0.07164,0.118709 0.145316,0.264025 0.16783,0.325426 0.0266,0.07777 0.05936,0.126896 0.11871,0.17397 0.04502,0.03479 0.16783,0.145316 0.274257,0.243558 0.159643,0.147364 0.231279,0.196484 0.401155,0.278352 0.137129,0.06549 0.253791,0.139177 0.339753,0.216951 0.149409,0.133036 0.223092,0.173969 0.575124,0.315193 0.137129,0.0573 0.317239,0.128942 0.395014,0.16169 0.07982,0.03275 0.231279,0.08391 0.337706,0.116662 0.10643,0.03275 0.216952,0.07982 0.245605,0.104381 0.02866,0.02661 0.135083,0.07573 0.235372,0.110523 0.235371,0.08392 0.435948,0.184203 0.603778,0.302912 0.214904,0.153504 0.593545,0.476883 0.740907,0.63448 0.122803,0.130988 0.257886,0.323379 0.239465,0.339752 -0.0041,0.0041 -0.08596,-0.0061 -0.182157,-0.02047 -0.327472,-0.05322 -0.939438,-0.06959 -1.62099,-0.04707 -0.86371,0.03275 -1.837943,0.0307 -2.093782,0 -0.550563,-0.06754 -1.072472,-0.184203 -1.356965,-0.300865 -0.09415,-0.03889 -0.272212,-0.09824 -0.399107,-0.133036 -0.266073,-0.07164 -0.390921,-0.135083 -0.538284,-0.270165 -0.141223,-0.126896 -0.212857,-0.274259 -0.235371,-0.478929 -0.02455,-0.223092 -0.01023,-0.276306 0.116661,-0.419576 0.07164,-0.07982 0.116664,-0.153502 0.13099,-0.208764 0.01023,-0.04502 0.06141,-0.163736 0.112569,-0.259931 0.122802,-0.237417 0.124848,-0.315193 0.0061,-0.415482 -0.04707,-0.04094 -0.09211,-0.07368 -0.102338,-0.07368 -0.0082,0 -0.0307,0.02251 -0.04912,0.05117 -0.02456,0.03889 -0.0307,0.07573 -0.02046,0.149409 0.01637,0.126896 -0.02251,0.190344 -0.210811,0.3418 -0.11257,0.09005 -0.149409,0.135083 -0.165782,0.194437 -0.01228,0.04298 -0.06754,0.135082 -0.124851,0.206717 -0.108474,0.135084 -0.202624,0.307006 -0.202624,0.372501 0,0.03479 -0.002,0.03479 -0.06345,0 -0.114612,-0.0655 -0.204667,-0.194439 -0.358171,-0.507585 -0.114583,-0.23537 -0.182124,-0.347939 -0.296742,-0.480975 -0.07982,-0.0962 -0.165782,-0.214905 -0.192388,-0.266072 -0.07778,-0.151456 -0.218998,-0.259931 -0.450277,-0.345894 -0.153502,-0.05936 -0.321332,-0.06345 -0.419574,-0.01228 l -0.07163,0.03684 0.112566,0.03479 c 0.341802,0.102337 0.511678,0.307007 0.745003,0.894412 0.163735,0.409342 0.208763,0.491209 0.356127,0.644712 0.08596,0.09005 0.112569,0.133036 0.114615,0.184203 0.002,0.05731 0.02865,0.08596 0.196483,0.227185 0.552613,0.458462 1.127737,0.742954 1.803149,0.886224 0.139175,0.0307 0.276304,0.07164 0.304959,0.0921 0.02865,0.02047 0.110523,0.05117 0.184203,0.06959 0.07368,0.01842 0.147362,0.04707 0.163737,0.0614 0.01842,0.01638 0.122803,0.03684 0.239464,0.04912 0.194438,0.02047 0.313146,0.05117 0.313146,0.08392 0,0.0082 -0.208762,0.08596 -0.464601,0.17397 -0.6836,0.233325 -1.328314,0.462556 -1.676252,0.593545 -0.196485,0.07573 -0.370454,0.126895 -0.489164,0.145316 -0.100288,0.01432 -0.302912,0.05117 -0.450275,0.07982 -0.16783,0.03275 -0.376595,0.0573 -0.564893,0.06549 -0.272211,0.01023 -0.333611,0.0061 -0.716345,-0.05526 l -0.417498,-0.0655 -0.419576,-0.208763 c -0.411387,-0.204671 -0.767514,-0.341801 -0.890317,-0.339754 -0.03275,0.0021 -0.08391,0.01432 -0.108476,0.02866 l -0.04912,0.02661 0.04912,0.0307 c 0.02455,0.01638 0.13099,0.0614 0.231279,0.100289 0.112568,0.04298 0.307005,0.149409 0.493256,0.268119 0.16783,0.108474 0.362266,0.22309 0.427761,0.257884 0.388875,0.194438 0.992652,0.278352 1.6476,0.229231 0.296772,-0.02047 0.884175,-0.08801 1.041772,-0.116662 l 0.06959,-0.01228 -0.08392,0.110521 c -0.04502,0.0614 -0.151455,0.229232 -0.237417,0.372501 -0.245605,0.417528 -0.309051,0.480976 -0.663132,0.659039 -0.282446,0.14327 -0.390922,0.17397 -0.605826,0.17397 -0.194437,0 -0.274257,0.02251 -0.216951,0.0614 0.06754,0.04503 0.204671,0.06959 0.409341,0.06959 0.194436,0 0.235371,-0.0082 0.419577,-0.07368 0.30291,-0.106429 0.505536,-0.194437 0.618104,-0.268119 0.157597,-0.102336 0.331566,-0.294726 0.536236,-0.597638 0.458462,-0.673367 0.640621,-0.785935 1.905484,-1.168669 1.160482,-0.352034 1.659879,-0.427762 2.834687,-0.425715 0.562844,0 0.693834,0.0061 0.931252,0.04298 0.523957,0.08187 0.628338,0.133036 1.054053,0.511677 0.364315,0.32338 0.575124,0.632433 0.654946,0.963999 0.03684,0.147362 0.03684,0.153503 -0.0061,0.358173 -0.02455,0.114616 -0.07368,0.36022 -0.10643,0.546471 -0.09005,0.485069 -0.135082,0.640619 -0.208763,0.747047 -0.06345,0.09006 -0.06754,0.104383 -0.07982,0.354081 -0.01432,0.272212 -0.02661,0.356127 -0.159646,1.162529 -0.102335,0.620152 -0.139175,0.916925 -0.165781,1.328312 -0.02455,0.362267 -0.01637,0.554657 0.04502,1.054054 0.0614,0.517816 0.07982,0.587405 0.251743,0.931251 0.08392,0.16783 0.165784,0.36636 0.184203,0.440041 0.03479,0.155551 0.03889,0.425716 0.0082,0.603779 l -0.02046,0.126896 -0.245602,0.19239 c -0.135086,0.106429 -0.292679,0.216951 -0.352036,0.247652 -0.100288,0.05117 -0.599682,0.184203 -0.95581,0.253791 -0.08391,0.01638 -0.309052,0.04298 -0.501442,0.05936 -0.39297,0.03479 -0.818682,0.116662 -1.197324,0.225137 -0.536237,0.15555 -0.833009,0.29882 -1.326265,0.632433 -0.403201,0.272212 -0.630385,0.399108 -0.85143,0.47279 -0.182157,0.0614 -0.568985,0.118708 -0.67132,0.100288 -0.06345,-0.01228 -0.06549,-0.01228 -0.03275,0.02251 0.05321,0.0573 0.233325,0.09619 0.507585,0.106427 0.591496,0.02251 0.994698,-0.118707 1.727418,-0.607872 0.487118,-0.325426 0.685646,-0.409341 1.041774,-0.440042 l 0.157596,-0.01432 v 0.429808 0.431854 l -0.08596,0.02456 c -0.133036,0.03889 -0.155547,0.06345 -0.08596,0.09415 0.14327,0.0614 0.32952,0.01637 0.454368,-0.106428 0.08392,-0.08392 0.08596,-0.0921 0.08392,-0.202625 -0.0041,-0.102335 0.0041,-0.124849 0.08187,-0.241512 0.06959,-0.102334 0.08596,-0.143269 0.08187,-0.20467 -0.01228,-0.15555 0.102335,-0.208764 0.72249,-0.33566 0.544422,-0.110522 0.636523,-0.133035 1.283283,-0.31724 0.550564,-0.157595 0.650852,-0.19853 0.818682,-0.343846 0.13713,-0.116662 0.286539,-0.214904 0.30496,-0.196483 0.0061,0.0061 -0.0061,0.143269 -0.02661,0.302912 -0.02251,0.159643 -0.04093,0.397061 -0.04093,0.52805 0,0.231278 0.002,0.239464 0.07573,0.388874 0.09619,0.196485 0.261977,0.368408 0.579216,0.601733 0.732721,0.54033 0.794123,0.593545 0.923064,0.785936 0.05322,0.07982 0.05526,0.0921 0.0307,0.159642 -0.03275,0.08801 -0.01023,0.118708 0.07777,0.09824 0.173969,-0.03684 0.221045,-0.280396 0.104381,-0.517814 -0.07164,-0.141224 -0.323378,-0.392967 -0.579216,-0.577172 -0.08596,-0.0614 -0.15555,-0.118711 -0.157596,-0.124849 0,-0.0061 0.04912,-0.0041 0.106427,0.002 0.135083,0.01842 0.530097,-0.0082 0.81459,-0.05117 0.118708,-0.01842 0.333612,-0.03479 0.476882,-0.03479 0.255839,0 0.266072,0.002 0.319287,0.05321 0.06549,0.0614 0.145317,0.07164 0.145317,0.01637 0,-0.04912 -0.05731,-0.128943 -0.149411,-0.206718 -0.07368,-0.06549 -0.08391,-0.06754 -0.286538,-0.07778 -0.128944,-0.0061 -0.315193,0.0021 -0.489164,0.02251 -0.153504,0.01842 -0.356126,0.03275 -0.450275,0.03275 -0.151455,0 -0.19239,-0.0082 -0.378641,-0.08392 -0.155551,-0.0614 -0.227184,-0.102335 -0.274258,-0.157596 -0.05936,-0.06754 -0.06345,-0.07982 -0.05526,-0.206718 0.0061,-0.110522 0.0307,-0.182156 0.122803,-0.39092 0.112569,-0.247652 0.16783,-0.419575 0.147363,-0.454369 -0.03684,-0.0573 0.106427,0.01228 0.3111,0.151456 0.286537,0.192391 0.679505,0.3418 1.696719,0.640619 0.214904,0.06345 0.448229,0.13713 0.521909,0.163737 0.08392,0.0307 0.218999,0.0573 0.364315,0.07164 0.485069,0.04707 0.722486,0.102335 1.426554,0.331566 l 0.511675,0.16783 0.184205,0.188297 c 0.214904,0.218999 0.270165,0.255839 0.309052,0.20467 0.01227,-0.01842 0.0307,-0.07777 0.03684,-0.130987 0.0082,-0.05322 0.01842,-0.128944 0.02455,-0.169876 0.01023,-0.06345 0.002,-0.08187 -0.06141,-0.143271 -0.04093,-0.03889 -0.122802,-0.100289 -0.182156,-0.135083 -0.0573,-0.03479 -0.186251,-0.108475 -0.284491,-0.16783 -0.09824,-0.0573 -0.196485,-0.104382 -0.216953,-0.104382 -0.04912,0 -0.223091,-0.0614 -0.395014,-0.139176 -0.07573,-0.03479 -0.243558,-0.08596 -0.3725,-0.114616 -0.225137,-0.04912 -0.345894,-0.0921 -0.370454,-0.133035 -0.0061,-0.0082 0.08392,-0.02251 0.198532,-0.02866 0.206716,-0.01228 0.274258,-0.02456 0.894409,-0.165783 0.52805,-0.120756 0.751141,-0.135082 1.285332,-0.08187 l 0.126896,0.01432 -0.01638,-0.04913 c -0.02251,-0.05935 -0.124849,-0.133036 -0.227185,-0.161689 -0.315194,-0.09005 -0.814589,-0.07778 -1.567777,0.03889 -0.847337,0.130988 -1.182997,0.143269 -1.565731,0.05526 -0.07368,-0.01637 -0.184203,-0.03479 -0.245603,-0.03889 -0.06141,-0.0061 -0.169879,-0.03275 -0.23742,-0.06345 -0.06959,-0.02866 -0.198529,-0.06345 -0.286538,-0.07777 -0.173971,-0.02661 -0.221047,-0.05117 -0.483025,-0.247652 -0.401155,-0.300865 -1.013119,-0.990605 -1.39176,-1.565729 -0.128942,-0.198531 -0.343846,-0.636527 -0.423666,-0.865757 -0.159645,-0.464603 -0.227187,-1.047914 -0.186252,-1.629178 0.06345,-0.923065 0.341799,-2.206349 0.654946,-3.035266 0.190343,-0.503489 0.452321,-1.033586 0.519862,-1.0561 0.02046,-0.0061 0.09415,-0.06959 0.163738,-0.139176 0.102335,-0.102335 0.159642,-0.141223 0.329518,-0.212857 0.112569,-0.04912 0.233326,-0.110522 0.266073,-0.135083 0.104381,-0.07982 0.757282,-0.249698 1.24849,-0.32338 0.126897,-0.01842 0.392968,-0.0266 0.859618,-0.02456 0.687692,0 1.029494,0.02251 1.238256,0.08187 0.163738,0.04707 0.767515,0.358174 0.943532,0.48507 0.08392,0.0614 0.180111,0.126895 0.216953,0.143269 0.08391,0.04503 0.120755,0.09415 0.251744,0.3418 0.05936,0.114615 0.128942,0.221044 0.151456,0.237418 0.02456,0.01638 0.135082,0.09619 0.247652,0.176017 0.112568,0.07982 0.317239,0.200577 0.454368,0.266072 0.247651,0.122802 0.247651,0.122802 0.470742,0.133035 0.171924,0.0082 0.249699,0.0041 0.341801,-0.02251 0.126895,-0.03684 0.21695,-0.108475 0.21695,-0.171923 0,-0.03684 -0.0061,-0.03684 -0.147362,-0.01228 -0.227185,0.04094 -0.266072,0.03479 -0.487117,-0.0614 -0.483022,-0.212857 -0.736814,-0.462555 -0.736814,-0.724534 0,-0.06959 0.0021,-0.06959 0.06754,-0.05936 0.03479,0.0082 0.139175,0.02661 0.22923,0.04298 0.325427,0.05936 0.675414,0.07982 1.203463,0.06754 0.566938,-0.01228 0.853477,-0.04503 1.230072,-0.137129 0.435947,-0.108476 0.802308,-0.07982 1.225976,0.0921 0.210811,0.08596 0.239465,0.104383 0.362267,0.233325 0.09005,0.09415 0.159644,0.149409 0.212857,0.165783 0.07573,0.02456 0.284493,0.02047 0.313146,-0.0061 0.01842,-0.02047 -0.04912,-0.08801 -0.147362,-0.147363 -0.05117,-0.02866 -0.114616,-0.0921 -0.153504,-0.151456 -0.137129,-0.216951 -0.188296,-0.249698 -0.577171,-0.378641 -0.194437,-0.06549 -0.36022,-0.124849 -0.370453,-0.133035 -0.0307,-0.0307 0.163736,-0.14327 0.315192,-0.182158 0.08392,-0.02251 0.272212,-0.07368 0.417529,-0.114615 0.480976,-0.135082 1.019259,-0.218998 1.406086,-0.214904 0.294727,0 0.384782,0.02047 0.485071,0.09824 0.09415,0.07573 0.145316,0.07164 0.145316,-0.01023 0,-0.08391 -0.133036,-0.200576 -0.290632,-0.249697 -0.413436,-0.135083 -0.98242,-0.114616 -1.817476,0.06754 -0.173971,0.03684 -0.409342,0.08596 -0.52191,0.108476 -0.135083,0.0266 -0.294726,0.07982 -0.474836,0.15555 -0.311099,0.133035 -0.442088,0.167829 -0.681553,0.186251 -0.0962,0.0061 -0.229231,0.0307 -0.296773,0.05117 -0.200577,0.06345 -0.52191,0.0921 -1.033586,0.0921 -0.429809,0 -0.50349,-0.0061 -0.69588,-0.04707 -0.607872,-0.135082 -1.060194,-0.290632 -1.238258,-0.423667 -0.03275,-0.02456 -0.106428,-0.05117 -0.163736,-0.05936 -0.05526,-0.01023 -0.184206,-0.0573 -0.284494,-0.108476 -0.231276,-0.116662 -0.272211,-0.126896 -0.822775,-0.241511 -0.456417,-0.0921 -0.601731,-0.126896 -0.601731,-0.14327 0,-0.0061 0.06754,-0.04298 0.149409,-0.08391 0.188298,-0.09415 0.329519,-0.190344 0.648807,-0.437996 0.722486,-0.562844 0.972185,-0.650853 1.954604,-0.697927 0.343847,-0.01638 0.489163,-0.0307 0.542377,-0.05526 0.04913,-0.02251 0.167831,-0.03684 0.388875,-0.04503 0.278351,-0.01023 0.331566,-0.0082 0.429808,0.0266 0.130989,0.04503 0.513723,0.07573 0.736814,0.05936 0.128942,-0.0082 0.176017,-0.02251 0.304959,-0.09415 0.128943,-0.07164 0.212858,-0.15555 0.184204,-0.184204 -0.0041,-0.0061 -0.06345,0.01023 -0.130989,0.03479 -0.106429,0.03684 -0.16783,0.04298 -0.440043,0.04298 -0.280398,0 -0.329519,-0.0041 -0.433901,-0.04502 -0.188298,-0.07573 -0.186251,-0.09415 0.01432,-0.15555 0.255838,-0.07982 0.538283,-0.233325 0.833009,-0.450276 0.229231,-0.167829 0.272212,-0.19239 0.368407,-0.204671 0.05936,-0.0082 0.122803,-0.02251 0.139176,-0.03275 0.0266,-0.01638 0.02456,-0.02251 -0.01023,-0.04912 -0.161689,-0.120756 -0.511676,-0.04503 -0.804355,0.176017 -0.167829,0.128942 -0.208764,0.151456 -0.386828,0.223091 -0.08801,0.03479 -0.225137,0.09824 -0.302912,0.141222 -0.343846,0.18625 -0.749094,0.264025 -1.668066,0.315194 -0.298818,0.01842 -0.618104,0.03684 -0.710206,0.04094 l -0.165783,0.01023 0.04707,-0.110522 c 0.280398,-0.630385 0.640618,-1.119547 0.90055,-1.215743 0.245605,-0.0921 0.587405,-0.106429 1.105221,-0.04502 0.331567,0.03889 0.368408,0.03479 0.503491,-0.05936 0.102335,-0.07573 0.07777,-0.0921 -0.141223,-0.09415 -0.133036,-0.0021 -0.290632,-0.02251 -0.474836,-0.0614 -0.214905,-0.04503 -0.331566,-0.05731 -0.528051,-0.05936 H 35.68811 l 0.09415,-0.08596 c 0.100289,-0.09005 0.401154,-0.247652 0.675413,-0.352033 0.413434,-0.159644 0.740908,-0.202625 1.731513,-0.227186 1.017213,-0.02456 1.06224,-0.02866 1.144109,-0.102334 0.07164,-0.06549 0.06754,-0.128942 -0.0061,-0.114616 -0.237418,0.04912 -0.616058,0.04502 -0.851429,-0.0082 -0.163736,-0.03684 -0.257885,-0.04298 -0.587405,-0.04298 -0.433902,0.0021 -0.671319,0.02866 -1.111361,0.128943 -0.507583,0.114614 -0.968092,0.298819 -1.316032,0.526003 -0.206718,0.135082 -0.327473,0.249698 -0.521911,0.491209 -0.08596,0.108475 -0.249697,0.292679 -0.362266,0.411388 -0.13713,0.141223 -0.266072,0.30496 -0.380689,0.480976 -0.09619,0.145316 -0.245603,0.372501 -0.329519,0.501443 -0.278352,0.423669 -0.495302,0.620152 -0.779794,0.716347 -0.206718,0.06754 -0.2497,0.09005 -0.476883,0.239465 -0.274258,0.178063 -0.425715,0.223091 -1.123642,0.343846 -0.52805,0.09006 -0.843243,0.159644 -1.08066,0.237418 -0.100289,0.03275 -0.206719,0.05936 -0.237418,0.05936 -0.104384,0 -0.358174,0.07573 -0.566939,0.169876 -0.112569,0.05117 -0.245605,0.102335 -0.296771,0.116662 -0.04913,0.01228 -0.122802,0.05526 -0.161691,0.0921 -0.07573,0.06959 -0.145316,0.11257 -0.186249,0.11257 -0.03479,0 -0.0082,-0.165784 0.04502,-0.270166 0.06754,-0.130989 0.264025,-0.323379 0.573078,-0.560797 0.456414,-0.34794 0.620152,-0.530098 0.861662,-0.959906 0.05731,-0.102335 0.128943,-0.212857 0.159645,-0.245604 0.153501,-0.165784 0.302912,-0.620152 0.368407,-1.107268 0.02661,-0.202624 0.01842,-0.632432 -0.01842,-0.886224 -0.02866,-0.194437 -0.0041,-0.352034 0.07982,-0.517817 0.135082,-0.264025 0.352032,-0.478929 0.614012,-0.607871 0.184203,-0.0921 0.296772,-0.114616 0.52191,-0.106429 0.437994,0.01432 0.505536,0.01023 0.630384,-0.03684 0.108477,-0.04298 0.239467,-0.130989 0.239467,-0.161689 0,-0.0082 -0.182159,-0.01432 -0.40525,-0.01432 -0.221043,-0.0021 -0.440042,-0.0082 -0.485069,-0.01842 -0.07777,-0.01432 -0.07982,-0.01638 -0.04093,-0.04707 0.02251,-0.01842 0.133036,-0.07573 0.245606,-0.13099 0.221042,-0.106428 0.564889,-0.212857 0.916922,-0.284492 0.210811,-0.04298 0.227184,-0.04298 0.34794,-0.01023 0.165784,0.04298 0.46665,0.06345 0.517817,0.03479 0.03479,-0.01842 0.0307,-0.0266 -0.04503,-0.102335 -0.122802,-0.124848 -0.255839,-0.157597 -0.611964,-0.15555 -0.349989,0.0021 -0.526004,0.03684 -1.052008,0.210811 -0.206716,0.06959 -0.38478,0.124849 -0.399108,0.124849 -0.01228,0 -0.07572,0.03889 -0.139176,0.08801 -0.06549,0.04707 -0.235371,0.151456 -0.378638,0.229231 -0.202627,0.108475 -0.292682,0.171924 -0.395017,0.276305 -0.07368,0.07368 -0.173968,0.16169 -0.223091,0.194437 -0.06345,0.04298 -0.09619,0.08187 -0.108474,0.126896 -0.01842,0.06754 -0.08392,0.128943 -0.139178,0.126896 -0.01842,0 -0.0614,-0.06549 -0.106427,-0.157597 -0.04502,-0.09619 -0.139175,-0.233325 -0.239464,-0.352033 -0.09006,-0.106429 -0.231279,-0.276305 -0.317241,-0.374547 -0.194436,-0.231279 -0.298818,-0.435948 -0.298818,-0.589452 0,-0.06959 -0.01228,-0.128942 -0.03275,-0.159643 -0.0307,-0.04298 -0.0307,-0.05936 0.02251,-0.243557 0.120757,-0.433902 0.153504,-0.530098 0.212858,-0.620152 0.05936,-0.09415 0.19239,-0.204671 0.284491,-0.231278 0.02455,-0.0082 0.04502,-0.02866 0.04502,-0.04298 0,-0.01638 0.03684,-0.07164 0.08392,-0.124849 0.09005,-0.104383 0.09619,-0.159644 0.02455,-0.206718 -0.04094,-0.02866 -0.04707,-0.0266 -0.07777,0.03479 z"
     id="path4"
     style="fill:#4c566a;fill-opacity:1;stroke-width:0.0020467" />
  <circle
     style="opacity:1;fill:url(#linearGradient870);fill-opacity:1;stroke:none;stroke-width:2.5;stroke-linecap:round"
     id="path862"
     cx="10.982502"
     cy="13.878734"
     r="3.8900759" />
</svg>
