<?xml version="1.0" encoding="UTF-8" standalone="no"?>
<svg
   height="48"
   width="48"
   version="1.1"
   id="svg18"
   sodipodi:docname="xload.svg"
   inkscape:version="1.1.2 (0a00cf5339, 2022-02-04)"
   xmlns:inkscape="http://www.inkscape.org/namespaces/inkscape"
   xmlns:sodipodi="http://sodipodi.sourceforge.net/DTD/sodipodi-0.dtd"
   xmlns="http://www.w3.org/2000/svg"
   xmlns:svg="http://www.w3.org/2000/svg">
  <defs
     id="defs22" />
  <sodipodi:namedview
     id="namedview20"
     pagecolor="#ffffff"
     bordercolor="#666666"
     borderopacity="1.0"
     inkscape:pageshadow="2"
     inkscape:pageopacity="0.0"
     inkscape:pagecheckerboard="0"
     showgrid="false"
     inkscape:zoom="4.09375"
     inkscape:cx="90.748092"
     inkscape:cy="46.045801"
     inkscape:window-width="1920"
     inkscape:window-height="1031"
     inkscape:window-x="0"
     inkscape:window-y="0"
     inkscape:window-maximized="1"
     inkscape:current-layer="svg18" />
  <path
     id="path2"
     style="stroke-width:1.15035;fill:#b48ead;fill-opacity:1"
     d="M 23.804688 1.3046875 A 22.696228 22.696232 0 0 0 1.1074219 24 A 22.696228 22.696232 0 0 0 23.804688 46.695312 A 22.696228 22.696232 0 0 0 46.5 24 A 22.696228 22.696232 0 0 0 23.804688 1.3046875 z " />
  <path
     d="m7.5 25.5s1.3180195 2.56066 4.5 1.5c3.181981-1.06066 1.968961-11.749037 6-12s2.798667 11.683006 6 12 2.798667-6.316994 6-6 3.177039 5.250322 6 6h4.5"
     fill="none"
     stroke="#ffffff"
     stroke-linecap="round"
     stroke-width="2"
     id="path4" />
  <path
     d="m9.5261487 38.277623c-3.6539624-3.653962-5.9139852-8.701864-5.9139852-14.277623 0-11.151518 9.0400905-20.1916087 20.1916085-20.1916084 11.151517 0 20.191608 9.0400914 20.191608 20.1916084 0 5.575759-2.260023 10.623661-5.913985 14.277623"
     fill="none"
     stroke="#ffffff"
     stroke-linecap="round"
     stroke-opacity=".399061"
     stroke-width="1.5"
     id="path6" />
  <g
     fill="#ffffff"
     stroke-width=".218334"
     id="g14">
    <path
       d="m21.24196 40.880174h-1.074205c-.192135.847137-.550203 1.179005-1.135339 1.179005-.80347 0-1.283806-.80347-1.283806-2.139676 0-1.379874.489069-2.192077 1.31874-2.192077.602602 0 .925737.340601 1.100405 1.082938h1.074205c-.148468-1.39734-1.030539-2.218277-2.200811-2.218277-1.467206 0-2.384211 1.275073-2.384211 3.318682 0 2.034876.899538 3.283749 2.358011 3.283749 1.152806 0 1.921342-.707404 2.227011-2.314344z"
       id="path8" />
    <path
       d="m25.999874 38.705564c0-1.179006-.628803-1.947543-1.598207-1.947543h-2.349278v6.270563h1.074205v-2.270678h1.231406c.995604 0 1.641874-.812203 1.641874-2.052342zm-1.074205.0262c0 .646269-.262001.951937-.80347.951937h-.995605v-1.851475h.855871c.67247 0 .943204.253268.943204.899538z"
       id="path10" />
    <path
       d="m30.950605 40.836507v-4.078486h-1.091672v4.130886c0 .77727-.349335 1.196472-.995604 1.196472-.62007 0-.969405-.454135-.969405-1.257606v-4.069752h-1.091671v4.157086c0 1.44974.75107 2.279411 2.061076 2.279411 1.362406 0 2.087276-.820937 2.087276-2.358011z"
       id="path12" />
  </g>
  <path
     d="m23.803772 3.8083916c11.151517 0 20.191608 9.0400914 20.191608 20.1916084 0 5.575759-2.260023 10.623661-5.913985 14.277623"
     fill="none"
     stroke="#ffffff"
     stroke-linecap="round"
     stroke-width="1.5"
     id="path16" />
</svg>
