<?xml version="1.0" encoding="UTF-8" standalone="no"?>
<svg
   xmlns:dc="http://purl.org/dc/elements/1.1/"
   xmlns:cc="http://creativecommons.org/ns#"
   xmlns:rdf="http://www.w3.org/1999/02/22-rdf-syntax-ns#"
   xmlns:svg="http://www.w3.org/2000/svg"
   xmlns="http://www.w3.org/2000/svg"
   xmlns:sodipodi="http://sodipodi.sourceforge.net/DTD/sodipodi-0.dtd"
   xmlns:inkscape="http://www.inkscape.org/namespaces/inkscape"
   height="48"
   width="48"
   version="1.1"
   id="svg6"
   sodipodi:docname="deepin-repair.svg"
   inkscape:version="1.0.2 (e86c870879, 2021-01-15)">
  <metadata
     id="metadata12">
    <rdf:RDF>
      <cc:Work
         rdf:about="">
        <dc:format>image/svg+xml</dc:format>
        <dc:type
           rdf:resource="http://purl.org/dc/dcmitype/StillImage" />
        <dc:title></dc:title>
      </cc:Work>
    </rdf:RDF>
  </metadata>
  <defs
     id="defs10" />
  <sodipodi:namedview
     pagecolor="#ffffff"
     bordercolor="#666666"
     borderopacity="1"
     objecttolerance="10"
     gridtolerance="10"
     guidetolerance="10"
     inkscape:pageopacity="0"
     inkscape:pageshadow="2"
     inkscape:window-width="1920"
     inkscape:window-height="1031"
     id="namedview8"
     showgrid="false"
     inkscape:zoom="6.6880518"
     inkscape:cx="24"
     inkscape:cy="24"
     inkscape:window-x="0"
     inkscape:window-y="24"
     inkscape:window-maximized="1"
     inkscape:current-layer="svg6"
     inkscape:document-rotation="0" />
  <path
     d="m44.322082 27.405077a19.729762 19.729765 0 0 1 -19.729762 19.729765 19.729762 19.729765 0 0 1 -19.7297621-19.729765 19.729762 19.729765 0 0 1 19.7297621-19.7297632 19.729762 19.729765 0 0 1 19.729762 19.7297632z"
     fill="#8fbcbb"
     opacity=".99"
     transform="matrix(1.1503549 0 0 1.1503549 -4.486125 -7.525565)"
     id="path2"
     style="fill:#a591d2;fill-opacity:1" />
  <g
     fill="#ffffff"
     id="g8"
     transform="translate(0.82877024,0.30786292)">
    <path
       d="M 18.396484,10.376953 8.7734375,34.435547 C 16.260638,31.382718 19.291789,25.996718 21.158203,20 H 20 V 18.396484 H 18.396484 V 16.792969 H 20 V 15.1875 h 1.603516 v 1.605469 h 0.451172 c 0.169151,-0.671068 0.340993,-1.341194 0.5,-2.017578 2.246254,6.824307 7.809179,11.413759 15.08789,14.847656 -2.561276,-6.817911 -2.652919,-13.73281 -16.039062,-19.246094 0.04141,0.383517 0.105046,0.751392 0.164062,1.123047 z m 3.207032,8.019531 v 0.08398 c 0.0079,-0.02826 0.01758,-0.0557 0.02539,-0.08398 z M 20,34.435547 v 3.207031 h 14.435547 l 3.207031,-1.603516 -3.207031,-1.603515 z"
       fill-opacity="0.307339"
       id="path4" />
    <path
       d="m 18.396484,8.7734375 c -1.777097,0 -3.208984,1.4299345 -3.208984,3.2070315 v 25.662109 c 0,1.777097 1.431887,3.207031 3.208984,3.207031 h 4.810547 c 1.777097,0 3.208985,-1.429934 3.208985,-3.207031 V 15.1875 h 1.603515 c 0,-3.207756 4.810547,-3.206166 4.810547,1.605469 l 4.8125,-3.208985 V 10.376953 H 25.972656 C 25.418457,9.4212131 24.39573,8.7734375 23.207031,8.7734375 Z M 20,15.1875 h 1.603516 v 1.605469 h 1.603515 v 1.603515 H 21.603516 V 20 H 20 V 18.396484 H 18.396484 V 16.792969 H 20 Z"
       id="path6" />
  </g>
</svg>
