<?xml version="1.0" encoding="UTF-8" standalone="no"?>
<svg
   xmlns:dc="http://purl.org/dc/elements/1.1/"
   xmlns:cc="http://creativecommons.org/ns#"
   xmlns:rdf="http://www.w3.org/1999/02/22-rdf-syntax-ns#"
   xmlns:svg="http://www.w3.org/2000/svg"
   xmlns="http://www.w3.org/2000/svg"
   xmlns:sodipodi="http://sodipodi.sourceforge.net/DTD/sodipodi-0.dtd"
   xmlns:inkscape="http://www.inkscape.org/namespaces/inkscape"
   height="48"
   width="48"
   version="1.1"
   id="svg6"
   sodipodi:docname="discord.svg"
   inkscape:version="1.0.2 (e86c870879, 2021-01-15)">
  <metadata
     id="metadata12">
    <rdf:RDF>
      <cc:Work
         rdf:about="">
        <dc:format>image/svg+xml</dc:format>
        <dc:type
           rdf:resource="http://purl.org/dc/dcmitype/StillImage" />
        <dc:title></dc:title>
      </cc:Work>
    </rdf:RDF>
  </metadata>
  <defs
     id="defs10" />
  <sodipodi:namedview
     pagecolor="#ffffff"
     bordercolor="#666666"
     borderopacity="1"
     objecttolerance="10"
     gridtolerance="10"
     guidetolerance="10"
     inkscape:pageopacity="0"
     inkscape:pageshadow="2"
     inkscape:window-width="1920"
     inkscape:window-height="1031"
     id="namedview8"
     showgrid="false"
     inkscape:zoom="13.376103"
     inkscape:cx="8.2943403"
     inkscape:cy="17.2874"
     inkscape:window-x="0"
     inkscape:window-y="24"
     inkscape:window-maximized="1"
     inkscape:current-layer="svg6"
     inkscape:document-rotation="0" />
  <circle
     cx="23.940615"
     cy="31.534513"
     fill="#5e81ac"
     opacity=".99"
     id="circle2"
     style="fill:#938dbf;fill-opacity:1"
     transform="matrix(1.75830584759 0 0 1.75830608345 -18.15909274367 -30.97874795549)"
     r="13.232998" />
  <path
     d="m 29.863813,32.258762 c 2.108104,-0.66183 3.927244,-1.688103 5.340903,-3.515746 -7.738039,4.471788 -15.392721,4.334881 -23.116173,0.03098 0.630147,0.8991 1.388949,1.582175 2.27467,2.094887 0.883036,0.511244 1.820311,0.928927 2.765448,1.403701 -0.407552,0.508929 -0.891211,1.041035 -1.289579,1.630623 -0.3792,0.561773 -0.809164,0.758562 -1.502206,0.677977 C 11.725484,34.2777 9.377871,33.408653 7.4312457,31.590905 7.3748261,31.538055 7.3217721,31.481648 7.2645189,31.430043 6.4697989,30.714286 6.138029,29.915394 6.2064072,28.759781 6.5297513,23.289533 7.894587,18.113812 10.284082,13.197767 c 0.117131,-0.240981 0.317163,-0.472922 0.536045,-0.628219 1.908767,-1.354874 4.002111,-2.29075 6.317431,-2.6952968 0.442009,-0.07727 0.890448,-0.1351272 1.338029,-0.1549896 0.181939,-0.00804 0.36954,0.1090246 0.550487,0.2399751 -2.751537,0.9198093 -5.366325,2.0279843 -7.665962,3.8796523 7.902145,-3.764219 15.758185,-3.9504985 23.63631,-0.09541 -2.105936,-1.701861 -4.540471,-2.756489 -7.087423,-3.589918 0.190143,-0.3911782 0.455536,-0.4664321 0.862246,-0.4285735 2.756252,0.2561232 5.2176,1.2692665 7.464308,2.8452615 0.210862,0.147881 0.407716,0.365219 0.521219,0.594688 1.743268,3.529267 2.918279,7.242722 3.584356,11.12152 0.309375,1.802839 0.468658,3.618194 0.500267,5.444055 0.0039,0.256663 -0.10463,0.562546 -0.262698,0.767678 -1.46798,1.904669 -3.424732,3.081065 -5.728688,3.669495 -0.889985,0.227229 -1.818065,0.308129 -2.731919,0.433829 -0.141542,0.01957 -0.35571,-0.03095 -0.440551,-0.130815 C 31.06888,33.757337 30.48523,33.023036 29.863813,32.25876 Z M 17.658154,27.381038 c 1.010126,-0.0025 1.609061,-0.216411 2.134671,-0.653022 0.859166,-0.714212 1.179724,-1.655111 1.245858,-2.747367 0.07385,-1.22144 -0.40037,-2.129966 -1.415142,-2.749766 -1.046982,-0.639343 -2.141009,-0.692192 -3.20066,-0.0272 -1.700851,1.067379 -2.020334,3.606293 -0.667004,5.13632 0.592205,0.669401 1.327824,1.033924 1.902277,1.04103 z m 11.149087,0.04712 c 0.347235,-0.07965 0.71074,-0.117518 1.039119,-0.245838 2.026588,-0.790702 2.671876,-3.511803 1.270573,-5.305373 -1.091956,-1.397517 -3.126581,-1.523457 -4.370723,-0.257668 -0.822925,0.837135 -1.079598,1.861324 -0.939359,3.007433 0.18581,1.519056 1.51542,2.74768 3.00039,2.801455 z"
     fill="#ffffff"
     stroke-width="0.0772622"
     id="path859"
     style="fill:#ffffff;fill-opacity:1" />
  <path
     d="m 29.863813,32.258762 c 2.108104,-0.66183 3.927244,-1.688103 5.340903,-3.515746 -7.738039,4.471788 -15.392721,4.334881 -23.116173,0.03098 0.630147,0.8991 1.388949,1.582175 2.27467,2.094887 0.883036,0.511244 1.820311,0.928927 2.765448,1.403701 -0.407552,0.508929 -0.891211,1.041035 -1.289579,1.630623 -0.3792,0.561773 -0.809164,0.758562 -1.502206,0.677977 C 11.725484,34.2777 9.377871,33.408653 7.4312457,31.590905 7.3748261,31.538055 7.3217721,31.481648 7.2645189,31.430043 6.4697989,30.714286 6.138029,29.915394 6.2064072,28.759781 6.5297513,23.289533 7.894587,18.113812 10.284082,13.197767 c 0.117131,-0.240981 0.317163,-0.472922 0.536045,-0.628219 1.908767,-1.354874 4.002111,-2.29075 6.317431,-2.6952968 0.442009,-0.07727 0.890448,-0.1351272 1.338029,-0.1549896 0.181939,-0.00804 0.36954,0.1090246 0.550487,0.2399751 -2.751537,0.9198093 -5.366325,2.0279843 -7.665962,3.8796523 7.902145,-3.764219 15.758185,-3.9504985 23.63631,-0.09541 -2.105936,-1.701861 -4.540471,-2.756489 -7.087423,-3.589918 0.190143,-0.3911782 0.455536,-0.4664321 0.862246,-0.4285735 2.756252,0.2561232 5.2176,1.2692665 7.464308,2.8452615 0.210862,0.147881 0.407716,0.365219 0.521219,0.594688 1.743268,3.529267 2.918279,7.242722 3.584356,11.12152 0.309375,1.802839 0.468658,3.618194 0.500267,5.444055 0.0039,0.256663 -0.10463,0.562546 -0.262698,0.767678 -1.46798,1.904669 -3.424732,3.081065 -5.728688,3.669495 -0.889985,0.227229 -1.818065,0.308129 -2.731919,0.433829 -0.141542,0.01957 -0.35571,-0.03095 -0.440551,-0.130815 C 31.06888,33.757337 30.48523,33.023036 29.863813,32.25876 Z M 17.658154,27.381038 c 1.010126,-0.0025 1.609061,-0.216411 2.134671,-0.653022 0.859166,-0.714212 1.179724,-1.655111 1.245858,-2.747367 0.07385,-1.22144 -0.40037,-2.129966 -1.415142,-2.749766 -1.046982,-0.639343 -2.141009,-0.692192 -3.20066,-0.0272 -1.700851,1.067379 -2.020334,3.606293 -0.667004,5.13632 0.592205,0.669401 1.327824,1.033924 1.902277,1.04103 z m 11.149087,0.04712 c 0.347235,-0.07965 0.71074,-0.117518 1.039119,-0.245838 2.026588,-0.790702 2.671876,-3.511803 1.270573,-5.305373 -1.091956,-1.397517 -3.126581,-1.523457 -4.370723,-0.257668 -0.822925,0.837135 -1.079598,1.861324 -0.939359,3.007433 0.18581,1.519056 1.51542,2.74768 3.00039,2.801455 z"
     fill="#ffffff"
     stroke-width="0.0772622"
     id="path20"
     style="fill:#ffffff;fill-opacity:0.391642" />
  <circle
     style="fill:#e6a796;fill-opacity:1;stroke:none;stroke-width:0.942776;stroke-linecap:round;stroke-linejoin:round;stroke-miterlimit:4;stroke-dasharray:none"
     id="path907"
     cx="35.418285"
     cy="33.882309"
     r="7.0597405" />
  <path
     id="path917"
     style="fill:#e6a796;fill-opacity:1;stroke:#ffffff;stroke-width:2.72161;stroke-linecap:butt;stroke-linejoin:round;stroke-miterlimit:4;stroke-dasharray:none;stroke-opacity:1"
     inkscape:transform-center-x="-0.25172205"
     inkscape:transform-center-y="0.25172217"
     d="m 35.384149,26.82178 a 7.0597409,7.0597409 0 0 0 -4.029935,1.290609 l -3.059221,-0.81996 0.882467,3.292708 a 7.0597409,7.0597409 0 0 0 -0.818121,3.296383 7.0597409,7.0597409 0 0 0 7.059741,7.059742 7.0597409,7.0597409 0 0 0 7.059741,-7.059742 7.0597409,7.0597409 0 0 0 -7.059741,-7.05974 7.0597409,7.0597409 0 0 0 -0.03493,0 z" />
  <path
     sodipodi:type="star"
     style="fill:#8bacf1;fill-opacity:1;stroke:none;stroke-width:0.942776;stroke-linecap:round;stroke-linejoin:round;stroke-miterlimit:4;stroke-dasharray:none"
     id="path909"
     sodipodi:sides="3"
     sodipodi:cx="33.493485"
     sodipodi:cy="32.490921"
     sodipodi:r1="7.3517785"
     sodipodi:r2="3.6758895"
     sodipodi:arg1="-2.3561945"
     sodipodi:arg2="-1.3089969"
     inkscape:flatsided="true"
     inkscape:rounded="0"
     inkscape:randomized="0"
     inkscape:transform-center-x="-0.251722"
     inkscape:transform-center-y="0.25172258"
     d="m 28.294992,27.292429 12.299765,3.295712 -9.004053,9.004053 z" />
  <circle
     style="fill:#8bacf1;fill-opacity:1;stroke:none;stroke-width:0.942776;stroke-linecap:round;stroke-linejoin:round;stroke-miterlimit:4;stroke-dasharray:none"
     id="circle915"
     cx="35.418285"
     cy="33.882309"
     r="7.0597405" />
  <ellipse
     style="fill:#938dbf;fill-opacity:1;stroke:none;stroke-width:3.06928;stroke-linecap:butt;stroke-linejoin:round;stroke-miterlimit:4;stroke-dasharray:none;stroke-opacity:1"
     id="path922"
     cx="28.821714"
     cy="24.047749"
     rx="3.0666075"
     ry="3.3071871" />
  <circle
     style="fill:#ffffff;fill-opacity:1;stroke:none;stroke-width:2.72161;stroke-linecap:butt;stroke-linejoin:round;stroke-miterlimit:4;stroke-dasharray:none;stroke-opacity:1"
     id="path924"
     cx="32.21405"
     cy="34.41468"
     r="2.3532469" />
  <circle
     style="fill:#ffffff;fill-opacity:1;stroke:none;stroke-width:2.72161;stroke-linecap:butt;stroke-linejoin:round;stroke-miterlimit:4;stroke-dasharray:none;stroke-opacity:1"
     id="circle926"
     cx="38.545994"
     cy="34.41468"
     r="2.3532469" />
</svg>
