<?xml version="1.0" encoding="UTF-8" standalone="no"?>
<svg
   height="48"
   width="48"
   version="1.1"
   id="svg6"
   sodipodi:docname="Dnfdragora.svg"
   inkscape:version="1.1.2 (0a00cf5339, 2022-02-04)"
   xmlns:inkscape="http://www.inkscape.org/namespaces/inkscape"
   xmlns:sodipodi="http://sodipodi.sourceforge.net/DTD/sodipodi-0.dtd"
   xmlns="http://www.w3.org/2000/svg"
   xmlns:svg="http://www.w3.org/2000/svg"
   xmlns:rdf="http://www.w3.org/1999/02/22-rdf-syntax-ns#"
   xmlns:cc="http://creativecommons.org/ns#"
   xmlns:dc="http://purl.org/dc/elements/1.1/">
  <metadata
     id="metadata12">
    <rdf:RDF>
      <cc:Work
         rdf:about="">
        <dc:format>image/svg+xml</dc:format>
        <dc:type
           rdf:resource="http://purl.org/dc/dcmitype/StillImage" />
      </cc:Work>
    </rdf:RDF>
  </metadata>
  <defs
     id="defs10" />
  <sodipodi:namedview
     pagecolor="#ffffff"
     bordercolor="#666666"
     borderopacity="1"
     objecttolerance="10"
     gridtolerance="10"
     guidetolerance="10"
     inkscape:pageopacity="0"
     inkscape:pageshadow="2"
     inkscape:window-width="1920"
     inkscape:window-height="1031"
     id="namedview8"
     showgrid="false"
     inkscape:zoom="2.3645833"
     inkscape:cx="-166.20265"
     inkscape:cy="101.28635"
     inkscape:window-x="0"
     inkscape:window-y="0"
     inkscape:window-maximized="1"
     inkscape:current-layer="svg6"
     inkscape:document-rotation="0"
     inkscape:pagecheckerboard="0" />
  <path
     id="circle2"
     style="opacity:0.99;fill:#ded9d3;fill-opacity:1"
     transform="matrix(1.75830584759 0 0 1.75830608345 -18.15909274367 -30.97874795549)"
     d="M 37.173613,31.534513 A 13.232998,13.232998 0 0 1 23.940615,44.767511 13.232998,13.232998 0 0 1 10.707617,31.534513 13.232998,13.232998 0 0 1 23.940615,18.301516 13.232998,13.232998 0 0 1 37.173613,31.534513 Z" />
  <path
     id="circle1187"
     style="opacity:0.99;fill:#791506;fill-opacity:0.08383234;stroke-width:1.75831"
     d="M 0.66796875 24.46875 C 0.66796875 37.319124 11.085175 47.736328 23.935547 47.736328 C 36.785919 47.736328 47.203125 37.319124 47.203125 24.46875 L 0.66796875 24.46875 z " />
  <path
     id="path6"
     style="fill:#ffffff;fill-opacity:0.495455"
     d="M 23.892578 1.2011719 A 23.267658 23.267661 0 0 0 18.412109 1.8671875 L 18.412109 28.175781 L 19.412109 27.175781 L 20.482422 28.175781 L 21.412109 27.175781 L 22.412109 28.175781 L 23.412109 26.175781 L 24.412109 27.175781 L 25.412109 27.175781 L 26.412109 28.175781 L 27.412109 27.175781 L 28.412109 28.175781 L 28.412109 1.6347656 A 23.267658 23.267661 0 0 0 23.935547 1.2011719 A 23.267658 23.267661 0 0 0 23.892578 1.2011719 z " />
  <path
     id="circle8"
     d="M 34.648438 23.933594 A 9.5 9.5 0 0 0 25.298828 33.433594 A 9.5 9.5 0 0 0 34.798828 42.933594 A 9.5 9.5 0 0 0 39.736328 41.546875 A 23.267658 23.267661 0 0 0 43.705078 36.738281 A 9.5 9.5 0 0 0 43.707031 36.732422 A 9.5 9.5 0 0 0 44.298828 33.433594 A 9.5 9.5 0 0 0 34.798828 23.933594 A 9.5 9.5 0 0 0 34.648438 23.933594 z "
     style="fill:#ffffff" />
  <path
     d="m 32.411865,28.176398 v 6 h 5 v -6 z m -2,7 4.5,5 4.5,-5 z"
     fill="#afa096"
     id="path10"
     style="fill:#d6c8c2;fill-opacity:0.99215686" />
</svg>
