<?xml version="1.0" encoding="UTF-8" standalone="no"?>
<svg
   xmlns:dc="http://purl.org/dc/elements/1.1/"
   xmlns:cc="http://creativecommons.org/ns#"
   xmlns:rdf="http://www.w3.org/1999/02/22-rdf-syntax-ns#"
   xmlns:svg="http://www.w3.org/2000/svg"
   xmlns="http://www.w3.org/2000/svg"
   xmlns:sodipodi="http://sodipodi.sourceforge.net/DTD/sodipodi-0.dtd"
   xmlns:inkscape="http://www.inkscape.org/namespaces/inkscape"
   height="48"
   width="48"
   version="1.1"
   id="svg8"
   sodipodi:docname="deepin-graphics-driver-manager.svg"
   inkscape:version="1.0.2 (e86c870879, 2021-01-15)">
  <metadata
     id="metadata14">
    <rdf:RDF>
      <cc:Work
         rdf:about="">
        <dc:format>image/svg+xml</dc:format>
        <dc:type
           rdf:resource="http://purl.org/dc/dcmitype/StillImage" />
        <dc:title></dc:title>
      </cc:Work>
    </rdf:RDF>
  </metadata>
  <defs
     id="defs12" />
  <sodipodi:namedview
     pagecolor="#ffffff"
     bordercolor="#666666"
     borderopacity="1"
     objecttolerance="10"
     gridtolerance="10"
     guidetolerance="10"
     inkscape:pageopacity="0"
     inkscape:pageshadow="2"
     inkscape:window-width="1920"
     inkscape:window-height="1031"
     id="namedview10"
     showgrid="false"
     inkscape:zoom="18.916667"
     inkscape:cx="19.271819"
     inkscape:cy="27.088887"
     inkscape:window-x="0"
     inkscape:window-y="24"
     inkscape:window-maximized="1"
     inkscape:current-layer="svg8"
     inkscape:document-rotation="0" />
  <path
     d="m44.322082 27.405077a19.729762 19.729765 0 0 1 -19.729762 19.729765 19.729762 19.729765 0 0 1 -19.7297621-19.729765 19.729762 19.729765 0 0 1 19.7297621-19.7297632 19.729762 19.729765 0 0 1 19.729762 19.7297632z"
     fill="#89a02c"
     opacity=".99"
     transform="matrix(1.1503549 0 0 1.1503549 -4.486125 -7.525565)"
     id="path2"
     style="fill:#8485b1;fill-opacity:1" />
  <path
     d="M 44.508129,24 A 20.704357,20.704361 0 0 1 23.803772,44.70436 20.704357,20.704361 0 0 1 3.099413,24 20.704357,20.704361 0 0 1 23.803772,3.2956408 20.704357,20.704361 0 0 1 44.508129,24 Z"
     fill="#89a02c"
     opacity="0.99"
     id="path880"
     style="fill:#ffffff;fill-opacity:0.24299738;stroke-width:1.0494" />
  <path
     id="rect1080"
     style="fill:#ffffff;fill-opacity:0.996078;stroke:none;stroke-width:0.8;stroke-linecap:square"
     d="m 15.373773,15.71057 c -0.0066,0 -0.01172,0.0051 -0.01172,0.01172 v 16.357422 c 0,0.0066 0.0051,0.01172 0.01172,0.01172 h 16.357422 c 0.0066,0 0.01172,-0.0052 0.01172,-0.01172 V 15.722288 c 0,-0.0066 -0.0052,-0.01172 -0.01172,-0.01172 z m 1.179688,1.183594 h 13.996094 c 0.0056,0 0.0098,0.0041 0.0098,0.0098 v 13.996094 c 0,0.0056 -0.0041,0.0098 -0.0098,0.0098 H 16.553461 c -0.0056,0 -0.0098,-0.0041 -0.0098,-0.0098 V 16.903929 c 0,-0.0056 0.0041,-0.0098 0.0098,-0.0098 z" />
  <path
     style="fill:none;stroke:#f9f9f9;stroke-width:1px;stroke-linecap:butt;stroke-linejoin:miter;stroke-opacity:1"
     d="m 31.431541,20.382066 h 1.799438 l 1.696511,-1.696511 h 1.532018"
     id="path1094"
     sodipodi:nodetypes="cccc" />
  <path
     style="fill:none;stroke:#f9f9f9;stroke-width:1px;stroke-linecap:butt;stroke-linejoin:miter;stroke-opacity:1"
     d="m 33.230979,20.382066 1.547903,1.547903 h 3.269142"
     id="path1096" />
  <circle
     style="fill:none;fill-opacity:0.996078;stroke:#f9f9f9;stroke-width:1;stroke-linecap:square;stroke-miterlimit:4;stroke-dasharray:none;stroke-opacity:1"
     id="path1098"
     cx="37.657372"
     cy="18.61878"
     r="1.2022947" />
  <circle
     style="fill:none;fill-opacity:0.996078;stroke:#f9f9f9;stroke-width:1;stroke-linecap:square;stroke-miterlimit:4;stroke-dasharray:none;stroke-opacity:1"
     id="circle1100"
     cx="39.449547"
     cy="21.894039"
     r="1.2022947" />
  <path
     style="fill:none;stroke:#ffffff;stroke-width:1px;stroke-linecap:butt;stroke-linejoin:miter;stroke-opacity:1"
     d="M 15.998177,28.896195 H 14.198739 L 12.502228,27.199684 H 10.97021"
     id="path1094-3"
     sodipodi:nodetypes="cccc" />
  <path
     style="fill:none;stroke:#ffffff;stroke-width:1px;stroke-linecap:butt;stroke-linejoin:miter;stroke-opacity:1"
     d="m 14.198739,28.896195 -1.547903,1.547903 H 9.3816948"
     id="path1096-6" />
  <circle
     style="fill:none;fill-opacity:0.996078;stroke:#ffffff;stroke-width:1;stroke-linecap:square;stroke-miterlimit:4;stroke-dasharray:none;stroke-opacity:1"
     id="path1098-7"
     cx="-9.7723465"
     cy="27.13291"
     r="1.2022947"
     transform="scale(-1,1)" />
  <circle
     style="fill:none;fill-opacity:0.996078;stroke:#ffffff;stroke-width:1;stroke-linecap:square;stroke-miterlimit:4;stroke-dasharray:none;stroke-opacity:1"
     id="circle1100-5"
     cx="-7.9801698"
     cy="30.408167"
     r="1.2022947"
     transform="scale(-1,1)" />
  <path
     style="fill:none;stroke:#ffffff;stroke-width:1px;stroke-linecap:butt;stroke-linejoin:miter;stroke-opacity:1"
     d="m 15.566051,20.172106 h -3.953648 l -1.589171,-1.58917 H 7.7913166"
     id="path1134" />
  <circle
     style="fill:none;fill-opacity:0.996078;stroke:#ffffff;stroke-width:1;stroke-linecap:square;stroke-miterlimit:4;stroke-dasharray:none;stroke-opacity:1"
     id="circle1136"
     cx="-7.0865612"
     cy="18.644726"
     r="1.2022947"
     transform="scale(-1,1)" />
  <path
     style="fill:none;stroke:#ffffff;stroke-width:1px;stroke-linecap:butt;stroke-linejoin:miter;stroke-opacity:1"
     d="M 11.612403,20.172106 9.920112,22.583344 H 5.0232621"
     id="path1138" />
  <circle
     style="fill:none;fill-opacity:0.996078;stroke:#ffffff;stroke-width:1;stroke-linecap:square;stroke-miterlimit:4;stroke-dasharray:none;stroke-opacity:1"
     id="circle1140"
     cx="-4.0635886"
     cy="22.449623"
     r="1.2022947"
     transform="scale(-1,1)" />
  <path
     style="fill:none;stroke:#f9f9f9;stroke-width:1px;stroke-linecap:butt;stroke-linejoin:miter;stroke-opacity:1"
     d="m 30.666738,28.680106 h 3.953648 l 1.589171,-1.58917 h 2.231916"
     id="path1134-3" />
  <circle
     style="fill:none;fill-opacity:0.996078;stroke:#f9f9f9;stroke-width:1;stroke-linecap:square;stroke-miterlimit:4;stroke-dasharray:none;stroke-opacity:1"
     id="circle1136-5"
     cx="39.146225"
     cy="27.152725"
     r="1.2022947" />
  <path
     style="fill:none;stroke:#f9f9f9;stroke-width:1px;stroke-linecap:butt;stroke-linejoin:miter;stroke-opacity:1"
     d="m 34.620386,28.680106 1.692292,2.411238 h 4.896849"
     id="path1138-6" />
  <circle
     style="fill:none;fill-opacity:0.996078;stroke:#f9f9f9;stroke-width:1;stroke-linecap:square;stroke-miterlimit:4;stroke-dasharray:none;stroke-opacity:1"
     id="circle1140-2"
     cx="42.169197"
     cy="30.957624"
     r="1.2022947" />
  <rect
     style="fill:#ffffff;fill-opacity:0.996078;stroke:none;stroke-width:1;stroke-linecap:square;stroke-miterlimit:4;stroke-dasharray:none;stroke-opacity:1"
     id="rect1174"
     width="1.3063089"
     height="3.0774324"
     x="17.13932"
     y="13.025948"
     ry="0"
     rx="0" />
  <rect
     style="fill:#ffffff;fill-opacity:0.996078;stroke:none;stroke-width:1;stroke-linecap:square;stroke-miterlimit:4;stroke-dasharray:none;stroke-opacity:1"
     id="rect1176"
     width="1.3063089"
     height="3.0774324"
     x="21.01276"
     y="13.025948"
     ry="0"
     rx="0" />
  <rect
     style="fill:#ffffff;fill-opacity:0.996078;stroke:none;stroke-width:1;stroke-linecap:square;stroke-miterlimit:4;stroke-dasharray:none;stroke-opacity:1"
     id="rect1178"
     width="1.3063089"
     height="3.0774324"
     x="24.886198"
     y="13.025948"
     ry="0"
     rx="0" />
  <rect
     style="fill:#ffffff;fill-opacity:0.996078;stroke:none;stroke-width:1;stroke-linecap:square;stroke-miterlimit:4;stroke-dasharray:none;stroke-opacity:1"
     id="rect1180"
     width="1.3063089"
     height="3.0774324"
     x="28.759638"
     y="13.025948"
     ry="0"
     rx="0" />
  <rect
     style="fill:#ffffff;fill-opacity:0.996078;stroke:none;stroke-width:1;stroke-linecap:square;stroke-miterlimit:4;stroke-dasharray:none;stroke-opacity:1"
     id="rect1182"
     width="1.3063089"
     height="3.0774324"
     x="17.13932"
     y="31.689684"
     ry="0"
     rx="0" />
  <rect
     style="fill:#ffffff;fill-opacity:0.996078;stroke:none;stroke-width:1;stroke-linecap:square;stroke-miterlimit:4;stroke-dasharray:none;stroke-opacity:1"
     id="rect1184"
     width="1.3063089"
     height="3.0774324"
     x="21.01276"
     y="31.689684"
     ry="0"
     rx="0" />
  <rect
     style="fill:#ffffff;fill-opacity:0.996078;stroke:none;stroke-width:1;stroke-linecap:square;stroke-miterlimit:4;stroke-dasharray:none;stroke-opacity:1"
     id="rect1186"
     width="1.3063089"
     height="3.0774324"
     x="24.886198"
     y="31.689684"
     ry="0"
     rx="0" />
  <rect
     style="fill:#ffffff;fill-opacity:0.996078;stroke:none;stroke-width:1;stroke-linecap:square;stroke-miterlimit:4;stroke-dasharray:none;stroke-opacity:1"
     id="rect1188"
     width="1.3063089"
     height="3.0774324"
     x="28.759638"
     y="31.689684"
     ry="0"
     rx="0" />
  <g
     fill="#ec725f"
     transform="translate(-9.4475135,-9.099)"
     id="g12"
     style="fill:#ffffff;fill-opacity:0.992157">
    <path
       d="M 32.099609,28.5 C 31.767209,28.5 31.5,28.767209 31.5,29.099609 v 0.572266 a 3.6550763,3.6550763 0 0 0 -0.630859,0.363281 L 30.373047,29.75 c -0.287867,-0.1662 -0.654113,-0.06716 -0.820313,0.220703 l -0.90039,1.558594 c -0.1662,0.287867 -0.06716,0.654112 0.220703,0.820312 l 0.490234,0.283203 A 3.6550763,3.6550763 0 0 0 29.345703,33 a 3.6550763,3.6550763 0 0 0 0.02148,0.365234 l -0.494141,0.285157 c -0.287867,0.1662 -0.386903,0.532445 -0.220703,0.820312 l 0.90039,1.558594 c 0.1662,0.287867 0.532446,0.386903 0.820313,0.220703 l 0.494141,-0.285156 A 3.6550763,3.6550763 0 0 0 31.5,36.330078 v 0.570313 c 0,0.3324 0.267209,0.599609 0.599609,0.599609 h 1.800782 C 34.232791,37.5 34.5,37.232791 34.5,36.900391 v -0.572266 a 3.6550763,3.6550763 0 0 0 0.630859,-0.363281 L 35.626953,36.25 c 0.287867,0.1662 0.654113,0.06716 0.820313,-0.220703 l 0.90039,-1.558594 c 0.1662,-0.287867 0.06716,-0.654112 -0.220703,-0.820312 L 36.636719,33.367188 A 3.6550763,3.6550763 0 0 0 36.654297,33 3.6550763,3.6550763 0 0 0 36.632812,32.634766 l 0.494141,-0.285157 c 0.287867,-0.1662 0.386903,-0.532445 0.220703,-0.820312 l -0.90039,-1.558594 C 36.281066,29.682836 35.91482,29.5838 35.626953,29.75 l -0.494141,0.285156 A 3.6550763,3.6550763 0 0 0 34.5,29.669922 V 29.099609 C 34.5,28.767209 34.232791,28.5 33.900391,28.5 Z"
       id="path8"
       style="fill:#ffffff;fill-opacity:0.992157" />
    <circle
       cx="33"
       cy="33"
       r="2.1099329"
       stroke="#ffffff"
       stroke-linecap="round"
       stroke-width="0.7"
       id="circle10"
       style="fill:#ffffff;fill-opacity:0.992157;stroke:#a2a3c5;stroke-opacity:0.99215686" />
  </g>
</svg>
