<?xml version="1.0" encoding="UTF-8" standalone="no"?>
<svg
   xmlns:dc="http://purl.org/dc/elements/1.1/"
   xmlns:cc="http://creativecommons.org/ns#"
   xmlns:rdf="http://www.w3.org/1999/02/22-rdf-syntax-ns#"
   xmlns:svg="http://www.w3.org/2000/svg"
   xmlns="http://www.w3.org/2000/svg"
   xmlns:sodipodi="http://sodipodi.sourceforge.net/DTD/sodipodi-0.dtd"
   xmlns:inkscape="http://www.inkscape.org/namespaces/inkscape"
   height="48"
   width="48"
   version="1.1"
   id="svg6"
   sodipodi:docname="eom.svg"
   inkscape:version="1.0.2 (e86c870879, 2021-01-15)">
  <path
     d="m 25.129084,25.851562 -5,4 h 2 l -6,5 4,-1 -7,5 3,1 -0.850823,6.535857 17.651604,-4.535857 -4.800781,-6 4,2 -4,-6 h 2 l -2,-2 h 2 z"
     fill="#ef6f53"
     id="path22"
     sodipodi:nodetypes="cccccccccccccccc" />
  <metadata
     id="metadata12">
    <rdf:RDF>
      <cc:Work
         rdf:about="">
        <dc:format>image/svg+xml</dc:format>
        <dc:type
           rdf:resource="http://purl.org/dc/dcmitype/StillImage" />
        <dc:title></dc:title>
      </cc:Work>
    </rdf:RDF>
  </metadata>
  <defs
     id="defs10" />
  <sodipodi:namedview
     pagecolor="#ffffff"
     bordercolor="#666666"
     borderopacity="1"
     objecttolerance="10"
     gridtolerance="10"
     guidetolerance="10"
     inkscape:pageopacity="0"
     inkscape:pageshadow="2"
     inkscape:window-width="1920"
     inkscape:window-height="1031"
     id="namedview8"
     showgrid="false"
     inkscape:zoom="1.7630209"
     inkscape:cx="-117.74747"
     inkscape:cy="110.06123"
     inkscape:window-x="0"
     inkscape:window-y="24"
     inkscape:window-maximized="1"
     inkscape:current-layer="svg6"
     inkscape:document-rotation="0" />
  <circle
     cx="23.940615"
     cy="31.534513"
     fill="#5e81ac"
     opacity=".99"
     r="13.232998"
     transform="matrix(1.75830584759 0 0 1.75830608345 -18.15909274367 -30.97874795549)"
     id="circle2"
     style="fill:#b0bfce;fill-opacity:1" />
  <ellipse
     cx="23.935829"
     cy="24.468578"
     fill="#5e81ac"
     opacity="0.99"
     id="circle831"
     style="fill:#ffffff;fill-opacity:0.99442691;stroke-width:1.6391"
     rx="21.690235"
     ry="21.690239" />
  <ellipse
     cx="23.935829"
     cy="24.468578"
     fill="#5e81ac"
     opacity="0.99"
     id="ellipse833"
     style="fill:#64b0c2;fill-opacity:1;stroke-width:1.5348"
     rx="20.310076"
     ry="20.31008" />
  <g
     id="g994"
     style="opacity:0.51188586">
    <path
       id="path970"
       style="fill:#d68d50;fill-opacity:0.40968096;stroke:none;stroke-width:1.2;stroke-linecap:square;stroke-opacity:0.992157"
       d="M 23.373047 27.322266 A 49.96069 30.877405 0 0 0 4.3164062 29.720703 A 20.310076 20.31008 0 0 0 23.935547 44.779297 A 20.310076 20.31008 0 0 0 43.511719 29.875 A 49.96069 30.877405 0 0 0 23.623047 27.322266 A 49.96069 30.877405 0 0 0 23.373047 27.322266 z " />
    <path
       id="ellipse972"
       style="fill:#d68d50;fill-opacity:0.409681;stroke:none;stroke-width:1.2;stroke-linecap:square;stroke-opacity:0.992157"
       d="M 23.480469 23.257812 A 49.96069 30.877405 0 0 0 3.6738281 25.855469 A 20.310076 20.31008 0 0 0 23.935547 44.779297 A 20.310076 20.31008 0 0 0 44.191406 25.966797 A 49.96069 30.877405 0 0 0 23.728516 23.257812 A 49.96069 30.877405 0 0 0 23.480469 23.257812 z " />
    <path
       id="ellipse974"
       style="fill:#d68d50;fill-opacity:0.409681;stroke:none;stroke-width:1.2;stroke-linecap:square;stroke-opacity:0.992157"
       d="M 23.070312 19.511719 A 49.96069 30.877405 0 0 0 3.78125 21.972656 A 20.310076 20.31008 0 0 0 3.625 24.46875 A 20.310076 20.31008 0 0 0 23.935547 44.779297 A 20.310076 20.31008 0 0 0 44.246094 24.46875 A 20.310076 20.31008 0 0 0 44.130859 22.318359 A 49.96069 30.877405 0 0 0 23.320312 19.511719 A 49.96069 30.877405 0 0 0 23.070312 19.511719 z " />
    <path
       id="ellipse976"
       style="fill:#d68d50;fill-opacity:0.409681;stroke:none;stroke-width:1.2;stroke-linecap:square;stroke-opacity:0.992157"
       d="M 23.070312 15.583984 A 49.96069 30.877405 0 0 0 4.7539062 17.794922 A 20.310076 20.31008 0 0 0 3.625 24.46875 A 20.310076 20.31008 0 0 0 23.935547 44.779297 A 20.310076 20.31008 0 0 0 44.246094 24.46875 A 20.310076 20.31008 0 0 0 43.236328 18.144531 A 49.96069 30.877405 0 0 0 23.320312 15.583984 A 49.96069 30.877405 0 0 0 23.070312 15.583984 z " />
  </g>
  <path
     id="path6"
     d="M 42.128906 26.851562 L 38.128906 31.851562 L 34.128906 30.851562 L 31.128906 30.851562 L 25.923828 31.669922 L 20.537109 29.054688 C 4.4820591 41.260911 18.513729 28.460739 16.128906 28.851562 L 4.6269531 30.767578 A 20.310076 20.31008 0 0 0 4.9472656 31.669922 L 5.1289062 31.851562 L 5.1289062 32.134766 A 20.310076 20.31008 0 0 0 13.433594 41.851562 L 34.441406 41.851562 A 20.310076 20.31008 0 0 0 42.128906 33.496094 L 42.128906 26.851562 z "
     style="fill:#d5904f;fill-opacity:1" />
  <path
     id="path8"
     d="M 10.220703 28.488281 L 7.0390625 31.033203 L 8.3105469 31.033203 L 5.6308594 33.267578 A 20.310076 20.31008 0 0 0 5.9257812 33.855469 L 7.0390625 33.578125 L 6.1269531 34.230469 A 20.310076 20.31008 0 0 0 8.8203125 38.033203 L 14.673828 38.033203 L 12.128906 34.851562 L 14.673828 36.125 L 12.128906 32.306641 L 13.402344 32.306641 L 12.128906 31.033203 L 13.402344 31.033203 L 10.220703 28.488281 z "
     style="fill:#712a1b;fill-opacity:1" />
  <path
     id="path10"
     d="M 40.039062 31.306641 L 36.855469 33.851562 L 38.128906 33.851562 L 34.310547 37.033203 L 36.855469 36.396484 L 33.039062 39.123047 L 33.039062 39.791016 L 34.310547 40.214844 L 33.673828 40.851562 L 35.9375 40.851562 A 20.310076 20.31008 0 0 0 41.947266 33.851562 A 20.310076 20.31008 0 0 0 42.310547 33.123047 L 40.039062 31.306641 z "
     style="fill:#481307;fill-opacity:1" />
  <path
     id="path12"
     d="M 7.1171875 35.851562 A 20.310076 20.31008 0 0 0 13.433594 41.851562 L 34.441406 41.851562 A 20.310076 20.31008 0 0 0 40.755859 35.851562 L 7.1171875 35.851562 z "
     style="fill:#682719;fill-opacity:1" />
  <path
     id="path14"
     d="M 16.128906 26.851562 L 11.128906 30.851562 L 13.128906 30.851562 L 7.1289062 35.851562 L 11.128906 34.851562 L 8.0136719 37.076172 A 20.310076 20.31008 0 0 0 18.625 44.070312 L 22.164062 44.699219 A 20.310076 20.31008 0 0 0 23.935547 44.779297 A 20.310076 20.31008 0 0 0 26.050781 44.667969 L 19.128906 36.851562 L 23.128906 38.851562 L 19.128906 32.851562 L 21.128906 32.851562 L 19.128906 30.851562 L 21.128906 30.851562 L 16.128906 26.851562 z "
     style="fill:#883321;fill-opacity:1" />
  <path
     d="m 30.219993,30.487925 -3.181818,2.545455 h 1.272727 l -3.818182,3.181818 2.545455,-0.636363 -3.818182,2.726917 v 0.667436 l 1.272727,0.423828 -0.636363,0.636364 h 10.818181 l -2.545454,-3.181818 2.545454,1.272727 -2.545454,-3.818182 h 1.272727 L 32.129084,33.03338 h 1.272727 z"
     fill="#481307"
     id="path18"
     sodipodi:nodetypes="ccccccccccccccccc" />
  <path
     id="path20"
     d="M 33.128906 30.851562 L 28.128906 34.851562 L 30.128906 34.851562 L 24.128906 39.851562 L 28.128906 38.851562 L 19.705078 44.332031 A 20.310076 20.31008 0 0 0 23.935547 44.779297 A 20.310076 20.31008 0 0 0 37.78125 39.328125 L 36.128906 36.851562 L 38.128906 36.851562 L 36.128906 34.851562 L 38.128906 34.851562 L 33.128906 30.851562 z "
     style="fill:#883321;fill-opacity:1" />
</svg>
