<?xml version="1.0" encoding="UTF-8" standalone="no"?>
<svg
   xmlns:dc="http://purl.org/dc/elements/1.1/"
   xmlns:cc="http://creativecommons.org/ns#"
   xmlns:rdf="http://www.w3.org/1999/02/22-rdf-syntax-ns#"
   xmlns:svg="http://www.w3.org/2000/svg"
   xmlns="http://www.w3.org/2000/svg"
   xmlns:sodipodi="http://sodipodi.sourceforge.net/DTD/sodipodi-0.dtd"
   xmlns:inkscape="http://www.inkscape.org/namespaces/inkscape"
   height="48"
   width="48"
   version="1.1"
   id="svg6"
   sodipodi:docname="feedreader.svg"
   inkscape:version="1.0.2 (e86c870879, 2021-01-15)">
  <metadata
     id="metadata12">
    <rdf:RDF>
      <cc:Work
         rdf:about="">
        <dc:format>image/svg+xml</dc:format>
        <dc:type
           rdf:resource="http://purl.org/dc/dcmitype/StillImage" />
        <dc:title></dc:title>
      </cc:Work>
    </rdf:RDF>
  </metadata>
  <defs
     id="defs10" />
  <sodipodi:namedview
     pagecolor="#ffffff"
     bordercolor="#666666"
     borderopacity="1"
     objecttolerance="10"
     gridtolerance="10"
     guidetolerance="10"
     inkscape:pageopacity="0"
     inkscape:pageshadow="2"
     inkscape:window-width="1920"
     inkscape:window-height="1031"
     id="namedview8"
     showgrid="false"
     inkscape:zoom="4.7291666"
     inkscape:cx="-35.306633"
     inkscape:cy="29.513293"
     inkscape:window-x="0"
     inkscape:window-y="24"
     inkscape:window-maximized="1"
     inkscape:current-layer="svg6"
     inkscape:document-rotation="0" />
  <circle
     cx="23.940615"
     cy="31.534513"
     fill="#5e81ac"
     opacity=".99"
     r="13.232998"
     transform="matrix(1.75830584759 0 0 1.75830608345 -18.15909274367 -30.97874795549)"
     id="circle2"
     style="fill:#d6976e;fill-opacity:1" />
  <ellipse
     cx="23.935829"
     cy="24.468578"
     fill="#5e81ac"
     opacity="0.99"
     id="circle1050"
     style="fill:#ffffff;fill-opacity:0.15316169;stroke-width:1.59129"
     rx="21.057631"
     ry="21.057634" />
  <rect
     style="fill:none;fill-opacity:0.992157;stroke:#ffffff;stroke-width:1.69724;stroke-linecap:butt;stroke-linejoin:miter;stroke-miterlimit:4;stroke-dasharray:none;stroke-opacity:1"
     id="rect965"
     width="16.574635"
     height="22.55954"
     x="15.937262"
     y="12.151357"
     ry="0"
     rx="0" />
  <rect
     style="fill:#dda784;fill-opacity:0.99215686;stroke:#ffffff;stroke-width:1.69724;stroke-linecap:butt;stroke-linejoin:miter;stroke-miterlimit:4;stroke-dasharray:none;stroke-opacity:1"
     id="rect963"
     width="22.001486"
     height="18.239321"
     x="13.223839"
     y="15.950191"
     ry="0"
     rx="0" />
  <rect
     style="fill:#ffffff;fill-opacity:0.992157;stroke:none;stroke-width:1.35779;stroke-linecap:square;stroke-opacity:0.992157"
     id="rect961"
     width="31.277063"
     height="19.330288"
     x="8.5860491"
     y="19.290251"
     ry="0.013416697" />
  <path
     d="m 16.920249,22.895889 c 0,0.645238 0.645238,1.290476 1.290476,1.290476 6.414374,-7e-6 11.614281,5.199907 11.614281,11.614281 0,0.645238 0.585192,1.290476 1.290476,1.290476 0.645238,0 1.290475,-0.645238 1.290475,-1.290476 0,-7.83964 -6.355399,-14.195232 -14.195232,-14.195232 -0.645238,0 -1.290476,0.645237 -1.290476,1.290475 z m 0,5.161903 c 0,0.645238 0.645238,1.290476 1.290476,1.290476 3.563584,-4e-6 6.452378,2.888794 6.452378,6.452378 0,0.645238 0.645238,1.290476 1.290476,1.290476 0.645238,0 1.290476,-0.645238 1.290476,-1.290476 0,-4.988979 -4.044351,-9.03333 -9.03333,-9.03333 -0.645238,0 -1.290476,0.645238 -1.290476,1.290476 z m 2.580951,3.871427 c -1.425395,0 -2.580951,1.155557 -2.580951,2.580952 0,1.42533 1.155621,2.580951 2.580951,2.580951 1.425395,0 2.580952,-1.155556 2.580952,-2.580951 0,-1.425395 -1.155557,-2.580952 -2.580952,-2.580952 z"
     fill="#ffffff"
     id="path8"
     style="fill:#dda784;fill-opacity:0.992157;stroke-width:0.645238" />
</svg>
