<?xml version="1.0" encoding="UTF-8" standalone="no"?>
<svg
   xmlns:dc="http://purl.org/dc/elements/1.1/"
   xmlns:cc="http://creativecommons.org/ns#"
   xmlns:rdf="http://www.w3.org/1999/02/22-rdf-syntax-ns#"
   xmlns:svg="http://www.w3.org/2000/svg"
   xmlns="http://www.w3.org/2000/svg"
   xmlns:sodipodi="http://sodipodi.sourceforge.net/DTD/sodipodi-0.dtd"
   xmlns:inkscape="http://www.inkscape.org/namespaces/inkscape"
   height="48"
   width="48"
   version="1.1"
   id="svg16"
   sodipodi:docname="preferences-security-firewall.svg"
   inkscape:version="1.0.2 (e86c870879, 2021-01-15)">
  <metadata
     id="metadata22">
    <rdf:RDF>
      <cc:Work
         rdf:about="">
        <dc:format>image/svg+xml</dc:format>
        <dc:type
           rdf:resource="http://purl.org/dc/dcmitype/StillImage" />
        <dc:title></dc:title>
      </cc:Work>
    </rdf:RDF>
  </metadata>
  <defs
     id="defs20">
    <radialGradient
       gradientTransform="matrix(3.57049e-7,-0.102549,-0.288309,-1.33269e-7,78.984696,88.973262)"
       r="21.166656"
       fy="189.579361"
       fx="450.908936"
       cy="189.579361"
       cx="450.908936"
       gradientUnits="userSpaceOnUse"
       id="radial0">
      <stop
         id="stop822"
         style="stop-color:rgb(0%,0%,0%);stop-opacity:0.313726;"
         offset="0" />
      <stop
         id="stop824"
         style="stop-color:rgb(0%,0%,0%);stop-opacity:0.27451;"
         offset="0.222222" />
      <stop
         id="stop826"
         style="stop-color:rgb(0%,0%,0%);stop-opacity:0;"
         offset="1" />
    </radialGradient>
    <radialGradient
       gradientTransform="matrix(-3.57049e-7,0.102549,0.288309,1.33269e-7,-31.685907,-4.375346)"
       r="21.166656"
       fy="189.579361"
       fx="450.908936"
       cy="189.579361"
       cx="450.908936"
       gradientUnits="userSpaceOnUse"
       id="radial1">
      <stop
         id="stop829"
         style="stop-color:rgb(0%,0%,0%);stop-opacity:0.313726;"
         offset="0" />
      <stop
         id="stop831"
         style="stop-color:rgb(0%,0%,0%);stop-opacity:0.27451;"
         offset="0.222222" />
      <stop
         id="stop833"
         style="stop-color:rgb(0%,0%,0%);stop-opacity:0;"
         offset="1" />
    </radialGradient>
    <radialGradient
       gradientTransform="matrix(-3.57049e-7,-0.102549,0.288309,-1.33269e-7,-31.685907,88.973262)"
       r="21.166656"
       fy="189.579361"
       fx="450.908936"
       cy="189.579361"
       cx="450.908936"
       gradientUnits="userSpaceOnUse"
       id="radial2">
      <stop
         id="stop836"
         style="stop-color:rgb(0%,0%,0%);stop-opacity:0.313726;"
         offset="0" />
      <stop
         id="stop838"
         style="stop-color:rgb(0%,0%,0%);stop-opacity:0.27451;"
         offset="0.222222" />
      <stop
         id="stop840"
         style="stop-color:rgb(0%,0%,0%);stop-opacity:0;"
         offset="1" />
    </radialGradient>
    <radialGradient
       gradientTransform="matrix(3.57049e-7,0.102549,-0.288309,1.33269e-7,78.984692,-4.375346)"
       r="21.166656"
       fy="189.579361"
       fx="450.908936"
       cy="189.579361"
       cx="450.908936"
       gradientUnits="userSpaceOnUse"
       id="radial3">
      <stop
         id="stop843"
         style="stop-color:rgb(0%,0%,0%);stop-opacity:0.313726;"
         offset="0" />
      <stop
         id="stop845"
         style="stop-color:rgb(0%,0%,0%);stop-opacity:0.27451;"
         offset="0.222222" />
      <stop
         id="stop847"
         style="stop-color:rgb(0%,0%,0%);stop-opacity:0;"
         offset="1" />
    </radialGradient>
    <linearGradient
       gradientTransform="matrix(0.0273881,0,0,0.082039,16.656575,23.142854)"
       y2="254.666656"
       x2="255.323044"
       y1="233.5"
       x1="255.323059"
       gradientUnits="userSpaceOnUse"
       id="linear0">
      <stop
         id="stop850"
         style="stop-color:rgb(0%,0%,0%);stop-opacity:0.27451;"
         offset="0" />
      <stop
         id="stop852"
         style="stop-color:rgb(0%,0%,0%);stop-opacity:0;"
         offset="1" />
    </linearGradient>
    <linearGradient
       gradientTransform="matrix(0.093759,0,0,0.093759,0,20.158175)"
       y2="-168.666672"
       x2="254"
       y1="233.5"
       x1="254"
       gradientUnits="userSpaceOnUse"
       id="linear1">
      <stop
         id="stop855"
         style="stop-color:rgb(100%,43.921569%,26.274511%);stop-opacity:1;"
         offset="0" />
      <stop
         id="stop857"
         style="stop-color:rgb(100%,54.11765%,39.607844%);stop-opacity:1;"
         offset="1" />
    </linearGradient>
    <linearGradient
       gradientTransform="matrix(0.093759,0,0,0.093759,0,20.158175)"
       y2="-84"
       x2="254"
       y1="148.833328"
       x1="254"
       gradientUnits="userSpaceOnUse"
       id="linear2">
      <stop
         id="stop860"
         style="stop-color:rgb(74.117649%,74.117649%,74.117649%);stop-opacity:1;"
         offset="0" />
      <stop
         id="stop862"
         style="stop-color:rgb(87.843138%,87.843138%,87.843138%);stop-opacity:1;"
         offset="1" />
    </linearGradient>
    <linearGradient
       gradientTransform="matrix(0.08461253,0,0,0.08461253,-19.162897,21.468351)"
       y2="-84"
       x2="254"
       y1="148.83333"
       x1="254"
       gradientUnits="userSpaceOnUse"
       id="linear2-3">
      <stop
         id="stop860-6"
         style="stop-color:rgb(74.117649%,74.117649%,74.117649%);stop-opacity:1;"
         offset="0" />
      <stop
         id="stop862-7"
         style="stop-color:rgb(87.843138%,87.843138%,87.843138%);stop-opacity:1;"
         offset="1" />
    </linearGradient>
  </defs>
  <sodipodi:namedview
     pagecolor="#ffffff"
     bordercolor="#666666"
     borderopacity="1"
     objecttolerance="10"
     gridtolerance="10"
     guidetolerance="10"
     inkscape:pageopacity="0"
     inkscape:pageshadow="2"
     inkscape:window-width="1920"
     inkscape:window-height="1031"
     id="namedview18"
     showgrid="true"
     inkscape:zoom="4.9166665"
     inkscape:cx="25.675703"
     inkscape:cy="16.220644"
     inkscape:window-x="0"
     inkscape:window-y="24"
     inkscape:window-maximized="1"
     inkscape:current-layer="svg16"
     showguides="false"
     inkscape:document-rotation="0">
    <inkscape:grid
       type="xygrid"
       id="grid829" />
  </sodipodi:namedview>
  <circle
     style="opacity:1;fill:#b58e73;fill-opacity:1;stroke:none;stroke-width:6;stroke-linecap:round;stroke-linejoin:round;stroke-miterlimit:4;stroke-dasharray:none;stroke-dashoffset:0;stroke-opacity:1;paint-order:fill markers stroke"
     id="path4167"
     cx="23.713203"
     cy="23.985281"
     r="22.684189" />
  <path
     style="fill:#ffffff;fill-opacity:1;stroke-width:0.284365"
     d="m 24.743066,10.959247 c -0.188332,0 -0.375819,0.05801 -0.535751,0.174598 -1.527584,1.112057 -6.170648,4.152123 -11.85948,4.684236 -0.684573,0.06281 -1.210225,0.631488 -1.222182,1.319049 -0.06876,4.487092 0.65115,19.720248 13.275393,23.11026 0.224204,0.05979 0.46103,0.05979 0.685236,0 C 37.710526,36.860397 38.429835,21.624192 38.36407,17.13713 38.35509,16.449569 37.826426,15.880889 37.141882,15.818081 31.453055,15.285968 26.810557,12.245902 25.280013,11.133845 25.12008,11.017258 24.931398,10.959247 24.743066,10.959247 Z m -0.0586,9.501217 c 1.779785,0 3.227663,1.448038 3.227663,3.227663 V 25 c 0.254372,0.05355 0.446061,0.278751 0.446061,0.548907 v 4.913844 c 0,0.309432 -0.251289,0.56206 -0.560865,0.56206 h -6.224524 c -0.309583,0 -0.562061,-0.252628 -0.562061,-0.56206 v -4.913844 c 0,-0.270156 0.191699,-0.495987 0.44606,-0.548907 v -1.311873 c 0,-1.779625 1.447878,-3.227663 3.227664,-3.227663 z m 0,1.122925 c -1.160623,0 -2.104738,0.944097 -2.104738,2.104738 v 1.299915 h 4.209476 v -1.299915 c 0,-1.160583 -0.94412,-2.104738 -2.104738,-2.104738 z m -2.842591,4.013353 c -0.195104,0 -0.352784,0.158845 -0.352784,0.353977 0,0.195082 0.157714,0.352783 0.352784,0.352783 0.195074,0 0.352782,-0.157701 0.352782,-0.352783 0,-0.195017 -0.157678,-0.353977 -0.352782,-0.353977 z m 5.685183,0 c -0.19511,0 -0.352784,0.158845 -0.352784,0.353977 0,0.195082 0.157714,0.352783 0.352784,0.352783 0.195081,0 0.353977,-0.157701 0.353977,-0.352783 0,-0.195017 -0.158879,-0.353977 -0.353977,-0.353977 z m -2.842592,1.115749 c -0.434984,0 -0.786886,0.352896 -0.786886,0.788081 0,0.23065 0.09917,0.438403 0.257113,0.58239 l -0.209277,1.104987 c -0.01145,0.06158 0.03034,0.111217 0.09208,0.111217 h 1.309481 c 0.06177,0 0.103561,-0.0496 0.09208,-0.111217 l -0.211671,-1.116945 c 0.150502,-0.14351 0.245153,-0.346135 0.245153,-0.570432 0,-0.435185 -0.353109,-0.788081 -0.78808,-0.788081 z m -2.842591,2.995664 c -0.195104,0 -0.352784,0.158897 -0.352784,0.353977 0,0.195076 0.157714,0.352784 0.352784,0.352784 0.195074,0 0.352782,-0.157829 0.352782,-0.352784 0,-0.19508 -0.157678,-0.353977 -0.352782,-0.353977 z m 5.685183,0 c -0.19511,0 -0.352784,0.158897 -0.352784,0.353977 0,0.195076 0.157714,0.352784 0.352784,0.352784 0.195081,0 0.353977,-0.157829 0.353977,-0.352784 0,-0.19508 -0.158879,-0.353977 -0.353977,-0.353977 z"
     id="path1022"
     inkscape:connector-curvature="0" />
</svg>
