<?xml version="1.0" encoding="UTF-8" standalone="no"?>
<svg
   height="48"
   width="48"
   version="1.1"
   id="svg6"
   sodipodi:docname="yast-x11.svg"
   inkscape:version="1.1.2 (0a00cf5339, 2022-02-04)"
   xmlns:inkscape="http://www.inkscape.org/namespaces/inkscape"
   xmlns:sodipodi="http://sodipodi.sourceforge.net/DTD/sodipodi-0.dtd"
   xmlns="http://www.w3.org/2000/svg"
   xmlns:svg="http://www.w3.org/2000/svg"
   xmlns:rdf="http://www.w3.org/1999/02/22-rdf-syntax-ns#"
   xmlns:cc="http://creativecommons.org/ns#"
   xmlns:dc="http://purl.org/dc/elements/1.1/">
  <metadata
     id="metadata12">
    <rdf:RDF>
      <cc:Work
         rdf:about="">
        <dc:format>image/svg+xml</dc:format>
        <dc:type
           rdf:resource="http://purl.org/dc/dcmitype/StillImage" />
        <dc:title />
      </cc:Work>
    </rdf:RDF>
  </metadata>
  <defs
     id="defs10" />
  <sodipodi:namedview
     pagecolor="#ffffff"
     bordercolor="#666666"
     borderopacity="1"
     objecttolerance="10"
     gridtolerance="10"
     guidetolerance="10"
     inkscape:pageopacity="0"
     inkscape:pageshadow="2"
     inkscape:window-width="1920"
     inkscape:window-height="1031"
     id="namedview8"
     showgrid="false"
     inkscape:zoom="6.6880516"
     inkscape:cx="-37.081054"
     inkscape:cy="46.799878"
     inkscape:window-x="0"
     inkscape:window-y="0"
     inkscape:window-maximized="1"
     inkscape:current-layer="svg6"
     inkscape:document-rotation="0"
     inkscape:pagecheckerboard="0" />
  <path
     id="circle2"
     style="opacity:0.99;fill:#8b989f"
     transform="matrix(1.75830584759 0 0 1.75830608345 -18.15909274367 -30.97874795549)"
     d="M 37.173613,31.534513 A 13.232998,13.232998 0 0 1 23.940615,44.767511 13.232998,13.232998 0 0 1 10.707617,31.534513 13.232998,13.232998 0 0 1 23.940615,18.301516 13.232998,13.232998 0 0 1 37.173613,31.534513 Z" />
  <path
     id="circle891"
     style="opacity:0.99;fill:#ffffff;stroke-width:1.59761;fill-opacity:1"
     d="M 45.076986,24.468578 A 21.141157,21.141159 0 0 1 23.935829,45.609737 21.141157,21.141159 0 0 1 2.794672,24.468578 21.141157,21.141159 0 0 1 23.935829,3.3274193 21.141157,21.141159 0 0 1 45.076986,24.468578 Z" />
  <g
     aria-label="A"
     id="text6"
     style="font-size:36.9999px;font-family:'Bitstream Charter';fill:#81a1c1;stroke-width:3.08333;fill-opacity:1">
    <path
       d="M 19.087701,9.9739701 14.137519,23.397274 h 9.91843 z M 17.028136,6.3787649 h 4.137196 L 31.44509,33.351837 H 27.651154 L 25.19413,26.432422 H 13.035471 l -2.457025,6.919415 H 6.730312 Z"
       id="path924"
       style="fill:#81a1c1;fill-opacity:1" />
  </g>
  <text
     font-family="Symbol"
     x="13.906471"
     y="38.278595"
     id="text10"
     style="font-size:36.9999px;fill:#d08770;fill-opacity:1;stroke-width:3.08333"><tspan
       x="13.906471"
       y="38.278595"
       id="tspan8"
       style="fill:#d08770;fill-opacity:1;stroke-width:3.08333">A</tspan></text>
</svg>
