<?xml version="1.0" encoding="UTF-8" standalone="no"?>
<svg
   xmlns:dc="http://purl.org/dc/elements/1.1/"
   xmlns:cc="http://creativecommons.org/ns#"
   xmlns:rdf="http://www.w3.org/1999/02/22-rdf-syntax-ns#"
   xmlns:svg="http://www.w3.org/2000/svg"
   xmlns="http://www.w3.org/2000/svg"
   xmlns:sodipodi="http://sodipodi.sourceforge.net/DTD/sodipodi-0.dtd"
   xmlns:inkscape="http://www.inkscape.org/namespaces/inkscape"
   height="48"
   width="48"
   version="1.1"
   id="svg6"
   sodipodi:docname="application-x-prl18.svg"
   inkscape:version="1.0.2 (e86c870879, 2021-01-15)">
  <metadata
     id="metadata12">
    <rdf:RDF>
      <cc:Work
         rdf:about="">
        <dc:format>image/svg+xml</dc:format>
        <dc:type
           rdf:resource="http://purl.org/dc/dcmitype/StillImage" />
        <dc:title></dc:title>
      </cc:Work>
    </rdf:RDF>
  </metadata>
  <defs
     id="defs10">
    <marker
       style="overflow:visible"
       id="DotL"
       refX="0.0"
       refY="0.0"
       orient="auto"
       inkscape:stockid="DotL"
       inkscape:isstock="true">
      <path
         transform="scale(0.8) translate(7.4, 1)"
         style="fill-rule:evenodd;stroke:#000000;stroke-width:1pt;stroke-opacity:1;fill:#000000;fill-opacity:1"
         d="M -2.5,-1.0 C -2.5,1.7600000 -4.7400000,4.0 -7.5,4.0 C -10.260000,4.0 -12.5,1.7600000 -12.5,-1.0 C -12.5,-3.7600000 -10.260000,-6.0 -7.5,-6.0 C -4.7400000,-6.0 -2.5,-3.7600000 -2.5,-1.0 z "
         id="path898" />
    </marker>
  </defs>
  <sodipodi:namedview
     pagecolor="#ffffff"
     bordercolor="#666666"
     borderopacity="1"
     objecttolerance="10"
     gridtolerance="10"
     guidetolerance="10"
     inkscape:pageopacity="0"
     inkscape:pageshadow="2"
     inkscape:window-width="1920"
     inkscape:window-height="1031"
     id="namedview8"
     showgrid="false"
     inkscape:zoom="11.313708"
     inkscape:cx="7.9319203"
     inkscape:cy="29.418051"
     inkscape:window-x="0"
     inkscape:window-y="24"
     inkscape:window-maximized="1"
     inkscape:current-layer="svg6"
     inkscape:document-rotation="0" />
  <circle
     cx="23.940615"
     cy="31.534513"
     fill="#5e81ac"
     opacity=".99"
     r="13.232998"
     transform="matrix(1.75830584759 0 0 1.75830608345 -18.15909274367 -30.97874795549)"
     id="circle2"
     style="fill:#dc9a60;fill-opacity:1" />
  <path
     id="ellipse844"
     style="opacity:0.99;fill:#ffffff;fill-opacity:1;stroke-width:1.56227"
     d="M 44.609346,24.468578 H 3.2623119 c 1e-7,-11.417669 9.2558491,-20.6735189 20.6735171,-20.6735188 11.417668,0 20.673517,9.2558498 20.673517,20.6735188 z"
     sodipodi:nodetypes="ccsc" />
  <g
     id="g881"
     transform="translate(-0.43941978,1.4068988)"
     style="fill:#ffffff;fill-opacity:1">
    <circle
       style="fill:#ffffff;fill-opacity:1;stroke:none;stroke-width:3.04249;stroke-linecap:round;stroke-linejoin:round;stroke-miterlimit:4;stroke-dasharray:none;stroke-opacity:1"
       id="path1576"
       cx="24.37525"
       cy="34.372627"
       r="9.5953712" />
    <g
       aria-label="P"
       style="font-style:normal;font-variant:normal;font-weight:bold;font-stretch:normal;font-size:10.5833px;line-height:1.25;font-family:sans-serif;-inkscape-font-specification:'sans-serif Bold';letter-spacing:0px;word-spacing:0px;fill:#ffffff;fill-opacity:1;stroke:none;stroke-width:0.264583"
       id="text6186"
       transform="matrix(1.2169994,0,0,1.2169994,13.652248,3.7425617)" />
  </g>
  <path
     d="m 12.744902,9.4210392 h 22.5 V 21.921039 h -22.5 z"
     fill="none"
     stroke="#d88f4f"
     stroke-width="1.3"
     id="path10"
     style="stroke:#dc9a60;stroke-opacity:1" />
  <g
     fill="#d88f4f"
     id="g20"
     transform="translate(0.2449019,1.4210388)">
    <path
       d="m 15,10.5 h 2.5 V 13 H 15 Z"
       id="path12"
       style="fill:#dc9a60;fill-opacity:1" />
    <path
       d="m 15,15.5 h 2.5 V 18 H 15 Z"
       id="path14"
       style="fill:#dc9a60;fill-opacity:1" />
    <path
       d="M 20,10.5 V 13 h 12.5 v -2.5 z"
       id="path16"
       style="fill:#dc9a60;fill-opacity:1" />
    <path
       d="M 20,15.5 V 18 h 12.5 v -2.5 z"
       id="path18"
       style="fill:#dc9a60;fill-opacity:1" />
  </g>
  <path
     d="m 26.959959,37.867079 q 0,1.21153 -0.879952,1.938446 -0.867199,0.714163 -2.474068,0.714163 -1.441082,0 -2.576092,-0.548375 V 38.17315 q 0.650399,0.280564 1.339058,0.52287 0.701411,0.229553 1.390069,0.229553 0.714164,0 1.007481,-0.267811 0.306071,-0.280566 0.306071,-0.701413 0,-0.344328 -0.242306,-0.586633 -0.229552,-0.242306 -0.624893,-0.446353 -0.395341,-0.2168 -0.905458,-0.459105 -0.318824,-0.153035 -0.688659,-0.357083 -0.369835,-0.216799 -0.714164,-0.522869 -0.331576,-0.318825 -0.548376,-0.765176 -0.2168,-0.446353 -0.2168,-1.071246 0,-1.224281 0.828941,-1.900187 0.82894,-0.688658 2.257269,-0.688658 0.714163,0 1.35181,0.165787 0.6504,0.165789 1.35181,0.471859 l -0.624893,1.504846 q -0.624895,-0.255059 -1.122258,-0.39534 -0.497364,-0.140283 -1.020234,-0.140283 -0.548376,0 -0.841693,0.255059 -0.293318,0.255058 -0.293318,0.663152 0,0.484612 0.433599,0.765175 0.4336,0.280565 1.288046,0.688659 0.701411,0.331577 1.186023,0.688658 0.497364,0.357082 0.765176,0.841693 0.267811,0.484611 0.267811,1.198775 z"
     style="font-style:normal;font-variant:normal;font-weight:bold;font-stretch:normal;font-size:10.5833px;line-height:1.25;font-family:sans-serif;-inkscape-font-specification:'sans-serif Bold';letter-spacing:0px;word-spacing:0px;fill:#dc9a60;fill-opacity:1;stroke:none;stroke-width:0.318823"
     id="path4589" />
</svg>
