<?xml version="1.0" encoding="UTF-8" standalone="no"?>
<svg
   xmlns:dc="http://purl.org/dc/elements/1.1/"
   xmlns:cc="http://creativecommons.org/ns#"
   xmlns:rdf="http://www.w3.org/1999/02/22-rdf-syntax-ns#"
   xmlns:svg="http://www.w3.org/2000/svg"
   xmlns="http://www.w3.org/2000/svg"
   xmlns:sodipodi="http://sodipodi.sourceforge.net/DTD/sodipodi-0.dtd"
   xmlns:inkscape="http://www.inkscape.org/namespaces/inkscape"
   height="48"
   width="48"
   version="1.1"
   id="svg6"
   sodipodi:docname="application-x-pml18.svg"
   inkscape:version="1.0.2 (e86c870879, 2021-01-15)">
  <metadata
     id="metadata12">
    <rdf:RDF>
      <cc:Work
         rdf:about="">
        <dc:format>image/svg+xml</dc:format>
        <dc:type
           rdf:resource="http://purl.org/dc/dcmitype/StillImage" />
        <dc:title></dc:title>
      </cc:Work>
    </rdf:RDF>
  </metadata>
  <defs
     id="defs10">
    <marker
       style="overflow:visible"
       id="DotL"
       refX="0.0"
       refY="0.0"
       orient="auto"
       inkscape:stockid="DotL"
       inkscape:isstock="true">
      <path
         transform="scale(0.8) translate(7.4, 1)"
         style="fill-rule:evenodd;stroke:#000000;stroke-width:1pt;stroke-opacity:1;fill:#000000;fill-opacity:1"
         d="M -2.5,-1.0 C -2.5,1.7600000 -4.7400000,4.0 -7.5,4.0 C -10.260000,4.0 -12.5,1.7600000 -12.5,-1.0 C -12.5,-3.7600000 -10.260000,-6.0 -7.5,-6.0 C -4.7400000,-6.0 -2.5,-3.7600000 -2.5,-1.0 z "
         id="path898" />
    </marker>
  </defs>
  <sodipodi:namedview
     pagecolor="#ffffff"
     bordercolor="#666666"
     borderopacity="1"
     objecttolerance="10"
     gridtolerance="10"
     guidetolerance="10"
     inkscape:pageopacity="0"
     inkscape:pageshadow="2"
     inkscape:window-width="1920"
     inkscape:window-height="1031"
     id="namedview8"
     showgrid="false"
     inkscape:zoom="11.313708"
     inkscape:cx="7.9319203"
     inkscape:cy="29.418051"
     inkscape:window-x="0"
     inkscape:window-y="24"
     inkscape:window-maximized="1"
     inkscape:current-layer="svg6"
     inkscape:document-rotation="0" />
  <circle
     cx="23.940615"
     cy="31.534513"
     fill="#5e81ac"
     opacity=".99"
     r="13.232998"
     transform="matrix(1.75830584759 0 0 1.75830608345 -18.15909274367 -30.97874795549)"
     id="circle2"
     style="fill:#5db585;fill-opacity:1" />
  <path
     id="ellipse844"
     style="opacity:0.99;fill:#ffffff;fill-opacity:1;stroke-width:1.56227"
     d="M 44.609346,24.468578 H 3.2623119 c 1e-7,-11.417669 9.2558491,-20.6735189 20.6735171,-20.6735188 11.417668,0 20.673517,9.2558498 20.673517,20.6735188 z"
     sodipodi:nodetypes="ccsc" />
  <g
     id="g881"
     transform="translate(-0.43941978,1.4068988)"
     style="fill:#ffffff;fill-opacity:1">
    <circle
       style="fill:#ffffff;fill-opacity:1;stroke:none;stroke-width:3.04249;stroke-linecap:round;stroke-linejoin:round;stroke-miterlimit:4;stroke-dasharray:none;stroke-opacity:1"
       id="path1576"
       cx="24.37525"
       cy="34.372627"
       r="9.5953712" />
    <g
       aria-label="P"
       style="font-style:normal;font-variant:normal;font-weight:bold;font-stretch:normal;font-size:10.5833px;line-height:1.25;font-family:sans-serif;-inkscape-font-specification:'sans-serif Bold';letter-spacing:0px;word-spacing:0px;fill:#ffffff;fill-opacity:1;stroke:none;stroke-width:0.264583"
       id="text6186"
       transform="matrix(1.2169994,0,0,1.2169994,13.652248,3.7425617)" />
  </g>
  <path
     d="M 15.440931,9.0248534 V 21.524853 h 17.5 V 9.0248534 Z"
     fill="none"
     stroke="#50b77e"
     stroke-width="2"
     id="path10"
     style="stroke:#5db585;stroke-opacity:1" />
  <g
     fill="#50b77e"
     id="g16"
     transform="translate(0.44093177,1.0248534)">
    <path
       d="M 22.5,8 H 25 v 12.5 h -2.5 z"
       id="path12"
       style="fill:#5db585;fill-opacity:1" />
    <path
       d="m 15,13 h 17.5 v 2.5 H 15 Z"
       id="path14"
       style="fill:#5db585;fill-opacity:1" />
  </g>
  <path
     d="m 24.699687,31.26793 q 1.777428,0 2.588862,0.772795 0.824314,0.759915 0.824314,2.099426 0,0.798554 -0.334878,1.506949 -0.334877,0.695516 -1.120552,1.120553 -0.772795,0.425035 -2.112305,0.425035 h -0.837194 v 3.271498 H 21.763067 V 31.26793 Z m -0.10304,1.59711 h -0.888714 v 2.73054 h 0.643996 q 0.824314,0 1.300871,-0.321997 0.489437,-0.334878 0.489437,-1.069033 0,-1.33951 -1.54559,-1.33951 z"
     style="font-style:normal;font-variant:normal;font-weight:bold;font-stretch:normal;font-size:10.5833px;line-height:1.25;font-family:sans-serif;-inkscape-font-specification:'sans-serif Bold';letter-spacing:0px;word-spacing:0px;fill:#5db585;fill-opacity:1;stroke:none;stroke-width:0.321997"
     id="path6331" />
</svg>
