<?xml version="1.0" encoding="UTF-8" standalone="no"?>
<svg
   xmlns:dc="http://purl.org/dc/elements/1.1/"
   xmlns:cc="http://creativecommons.org/ns#"
   xmlns:rdf="http://www.w3.org/1999/02/22-rdf-syntax-ns#"
   xmlns:svg="http://www.w3.org/2000/svg"
   xmlns="http://www.w3.org/2000/svg"
   xmlns:sodipodi="http://sodipodi.sourceforge.net/DTD/sodipodi-0.dtd"
   xmlns:inkscape="http://www.inkscape.org/namespaces/inkscape"
   height="48"
   width="48"
   version="1.1"
   id="svg6"
   sodipodi:docname="gnome-sudoku.svg"
   inkscape:version="1.0.2 (e86c870879, 2021-01-15)">
  <metadata
     id="metadata12">
    <rdf:RDF>
      <cc:Work
         rdf:about="">
        <dc:format>image/svg+xml</dc:format>
        <dc:type
           rdf:resource="http://purl.org/dc/dcmitype/StillImage" />
        <dc:title></dc:title>
      </cc:Work>
    </rdf:RDF>
  </metadata>
  <defs
     id="defs10" />
  <sodipodi:namedview
     pagecolor="#ffffff"
     bordercolor="#666666"
     borderopacity="1"
     objecttolerance="10"
     gridtolerance="10"
     guidetolerance="10"
     inkscape:pageopacity="0"
     inkscape:pageshadow="2"
     inkscape:window-width="1920"
     inkscape:window-height="1031"
     id="namedview8"
     showgrid="false"
     inkscape:zoom="9.4583332"
     inkscape:cx="10.724874"
     inkscape:cy="31.04783"
     inkscape:window-x="0"
     inkscape:window-y="24"
     inkscape:window-maximized="1"
     inkscape:current-layer="svg6"
     inkscape:document-rotation="0" />
  <circle
     cx="23.940615"
     cy="31.534513"
     fill="#5e81ac"
     opacity=".99"
     r="13.232998"
     transform="matrix(1.75830584759 0 0 1.75830608345 -18.15909274367 -30.97874795549)"
     id="circle2"
     style="fill:#a9a09b;fill-opacity:1" />
  <ellipse
     cx="23.935829"
     cy="24.468578"
     fill="#5e81ac"
     opacity="0.99"
     id="circle1050"
     style="fill:#ffffff;fill-opacity:0.15316169;stroke-width:1.59129"
     rx="21.057631"
     ry="21.057634" />
  <g
     fill="#ffffff"
     id="g16"
     transform="matrix(0.7469611,0,0,0.76646339,6.4967483,5.715942)">
    <path
       d="M 4,5 V 44 H 43 V 5 H 41.5 Z M 5,6 H 41.5 42 V 43 H 5 Z m 24.5,0.5 v 12 h 12 v -12 z m 0,12 h -12 v 12 h 12 z m -12,12 h -12 v 12 h 12 z"
       fill-opacity="0.264368"
       id="path4" />
    <text
       fill-opacity="0.66092"
       font-family="'padmaa-Bold.1.1'"
       font-size="13.3333px"
       letter-spacing="0"
       word-spacing="0"
       x="32.585789"
       y="17.050762"
       id="text8"><tspan
         x="32.585789"
         y="17.050762"
         id="tspan6">3</tspan></text>
    <path
       d="m 12.340995,16.536232 v 0.3125 H 7.4581822 v -0.3125 q 1.0416666,0 1.3411458,-0.338542 0.2083333,-0.234375 0.2083333,-0.963541 v -5.013021 q 0,-0.4166667 -0.052083,-0.5729167 -0.1171875,-0.3255208 -0.4557292,-0.3255208 -0.1432292,0 -0.4296875,0.091146 -0.15625,0.052083 -0.6380208,0.234375 V 9.3096697 L 10.71339,7.8903989 h 0.221355 v 7.4218751 q 0,0.716146 0.208333,0.9375 0.273437,0.286458 1.197917,0.286458 z"
       fill-opacity="0.66092"
       id="path10" />
    <path
       d="m 13.692708,32.216146 -3.059896,8.802083 H 9.395833 L 12,34 H 9.304687 q -0.416666,0 -0.651041,0.130208 -0.442709,0.247396 -0.625,0.976563 H 7.703125 l 0.572917,-2.890625 z"
       fill-opacity="0.66092"
       id="path12" />
    <path
       d="m 7.641217,18.908813 5.477429,5.123258 6.831011,-7.303238 -5.477429,-5.123259 z M 13.84897,24.715172 25.16899,35.303239 32,28 20.679981,17.411934 Z m 12.050343,11.271168 9.98842,2.49629 -3.157409,-9.799529 z"
       id="path14" />
  </g>
</svg>
