<?xml version="1.0" encoding="UTF-8" standalone="no"?>
<svg
   xmlns:dc="http://purl.org/dc/elements/1.1/"
   xmlns:cc="http://creativecommons.org/ns#"
   xmlns:rdf="http://www.w3.org/1999/02/22-rdf-syntax-ns#"
   xmlns:svg="http://www.w3.org/2000/svg"
   xmlns="http://www.w3.org/2000/svg"
   xmlns:sodipodi="http://sodipodi.sourceforge.net/DTD/sodipodi-0.dtd"
   xmlns:inkscape="http://www.inkscape.org/namespaces/inkscape"
   height="48"
   width="48"
   version="1.1"
   id="svg6"
   sodipodi:docname="csd-xsettings.svg"
   inkscape:version="1.0.2 (e86c870879, 2021-01-15)">
  <metadata
     id="metadata12">
    <rdf:RDF>
      <cc:Work
         rdf:about="">
        <dc:format>image/svg+xml</dc:format>
        <dc:type
           rdf:resource="http://purl.org/dc/dcmitype/StillImage" />
        <dc:title></dc:title>
      </cc:Work>
    </rdf:RDF>
  </metadata>
  <defs
     id="defs10" />
  <sodipodi:namedview
     pagecolor="#ffffff"
     bordercolor="#666666"
     borderopacity="1"
     objecttolerance="10"
     gridtolerance="10"
     guidetolerance="10"
     inkscape:pageopacity="0"
     inkscape:pageshadow="2"
     inkscape:window-width="1920"
     inkscape:window-height="1031"
     id="namedview8"
     showgrid="false"
     inkscape:zoom="4.7291666"
     inkscape:cx="-59.097845"
     inkscape:cy="13.354469"
     inkscape:window-x="0"
     inkscape:window-y="24"
     inkscape:window-maximized="1"
     inkscape:current-layer="svg6"
     inkscape:document-rotation="0" />
  <circle
     cx="23.940615"
     cy="31.534513"
     fill="#5e81ac"
     opacity=".99"
     r="13.232998"
     transform="matrix(1.75830584759 0 0 1.75830608345 -18.15909274367 -30.97874795549)"
     id="circle2"
     style="fill:#99a7ba;fill-opacity:1" />
  <rect
     fill="#515357"
     height="28.652889"
     ry="1.4471159"
     transform="rotate(-90)"
     width="28.652889"
     x="-38.911362"
     y="9.6698523"
     id="rect2"
     style="stroke-width:0.842732;fill:#ffffff;fill-opacity:0.61859286" />
  <rect
     fill="#6f7177"
     height="28.652889"
     ry="1.4471159"
     transform="rotate(-45)"
     width="28.652889"
     x="-14.742661"
     y="20.025663"
     id="rect4"
     style="stroke-width:0.842732;fill:#ffffff;fill-opacity:0.60172236" />
  <g
     fill="#ffffff"
     transform="matrix(0.190398,0,0,0.190398,14.042796,14.445481)"
     id="g16"
     style="fill:#99a7ba;fill-opacity:0.992157">
    <path
       d="M 86.068,0 C 61.466,0 56.851,35.041 70.691,35.041 84.529,35.041 110.671,0 86.068,0 Z"
       id="path6"
       style="fill:#99a7ba;fill-opacity:0.992157" />
    <path
       d="M 45.217,30.699 C 52.586,31.149 60.671,2.577 46.821,4.374 32.976,6.171 37.845,30.249 45.217,30.699 Z"
       id="path8"
       style="fill:#99a7ba;fill-opacity:0.992157" />
    <path
       d="M 11.445,48.453 C 16.686,46.146 12.12,23.581 3.208,29.735 -5.7,35.89 6.204,50.759 11.445,48.453 Z"
       id="path10"
       style="fill:#99a7ba;fill-opacity:0.992157" />
    <path
       d="M 26.212,36.642 C 32.451,35.37 32.793,9.778 21.667,14.369 10.539,18.961 19.978,37.916 26.212,36.642 Z"
       id="path12"
       style="fill:#99a7ba;fill-opacity:0.992157" />
    <path
       d="m 58.791,93.913 c 1.107,8.454 -6.202,12.629 -13.36,7.179 C 22.644,83.743 83.16,75.088 79.171,51.386 75.86,31.712 15.495,37.769 8.621,68.553 3.968,89.374 27.774,118.26 52.614,118.26 c 12.22,0 26.315,-11.034 28.952,-25.012 C 83.58,82.589 57.867,86.86 58.791,93.913 Z"
       id="path14"
       style="fill:#99a7ba;fill-opacity:0.992157" />
  </g>
</svg>
