<?xml version="1.0" encoding="UTF-8" standalone="no"?>
<svg
   xmlns:dc="http://purl.org/dc/elements/1.1/"
   xmlns:cc="http://creativecommons.org/ns#"
   xmlns:rdf="http://www.w3.org/1999/02/22-rdf-syntax-ns#"
   xmlns:svg="http://www.w3.org/2000/svg"
   xmlns="http://www.w3.org/2000/svg"
   xmlns:sodipodi="http://sodipodi.sourceforge.net/DTD/sodipodi-0.dtd"
   xmlns:inkscape="http://www.inkscape.org/namespaces/inkscape"
   height="48"
   width="48"
   version="1.1"
   id="svg6"
   sodipodi:docname="gnome-2048.svg"
   inkscape:version="1.0.2 (e86c870879, 2021-01-15)">
  <metadata
     id="metadata12">
    <rdf:RDF>
      <cc:Work
         rdf:about="">
        <dc:format>image/svg+xml</dc:format>
        <dc:type
           rdf:resource="http://purl.org/dc/dcmitype/StillImage" />
        <dc:title></dc:title>
      </cc:Work>
    </rdf:RDF>
  </metadata>
  <defs
     id="defs10" />
  <sodipodi:namedview
     pagecolor="#ffffff"
     bordercolor="#666666"
     borderopacity="1"
     objecttolerance="10"
     gridtolerance="10"
     guidetolerance="10"
     inkscape:pageopacity="0"
     inkscape:pageshadow="2"
     inkscape:window-width="1507"
     inkscape:window-height="1056"
     id="namedview8"
     showgrid="false"
     inkscape:zoom="11.313708"
     inkscape:cx="22.064574"
     inkscape:cy="20.787498"
     inkscape:window-x="409"
     inkscape:window-y="24"
     inkscape:window-maximized="0"
     inkscape:current-layer="svg6"
     inkscape:document-rotation="0" />
  <circle
     cx="23.940615"
     cy="31.534513"
     fill="#5e81ac"
     opacity=".99"
     id="circle2"
     style="fill:#a0b9c9;fill-opacity:1"
     transform="matrix(1.75830584759 0 0 1.75830608345 -18.15909274367 -30.97874795549)"
     r="13.232998" />
  <path
     id="path869"
     style="color:#000000;font-style:normal;font-variant:normal;font-weight:normal;font-stretch:normal;font-size:medium;line-height:0%;font-family:sans-serif;font-variant-ligatures:normal;font-variant-position:normal;font-variant-caps:normal;font-variant-numeric:normal;font-variant-alternates:normal;font-variant-east-asian:normal;font-feature-settings:normal;font-variation-settings:normal;text-indent:0;text-align:start;text-decoration:none;text-decoration-line:none;text-decoration-style:solid;text-decoration-color:#000000;letter-spacing:0px;word-spacing:0px;text-transform:none;writing-mode:lr-tb;direction:ltr;text-orientation:mixed;dominant-baseline:auto;baseline-shift:baseline;text-anchor:start;white-space:normal;shape-padding:0;shape-margin:0;inline-size:0;clip-rule:nonzero;display:inline;overflow:visible;visibility:visible;isolation:auto;mix-blend-mode:normal;color-interpolation:sRGB;color-interpolation-filters:linearRGB;solid-color:#000000;solid-opacity:1;vector-effect:none;fill:#ffffff;fill-opacity:1;fill-rule:nonzero;stroke:none;stroke-width:1.43906;stroke-linecap:butt;stroke-linejoin:round;stroke-miterlimit:4;stroke-dasharray:none;stroke-dashoffset:0;stroke-opacity:1;color-rendering:auto;image-rendering:auto;shape-rendering:auto;text-rendering:auto;enable-background:accumulate;stop-color:#000000"
     d="m 9.7601588,18.145505 c -1.66616,0 -2.5908336,0.533198 -3.6088359,1.175324 A 0.71960204,0.71960204 0 0 0 5.9162582,20.29491 l 0.5157896,0.875997 a 0.71960204,0.71960204 0 0 0 1.0197414,0.233374 c 0.6530486,-0.435363 1.1782776,-0.786368 2.1054366,-0.786368 0.5289422,0 0.9022042,0.13893 1.1347372,0.344987 0.232533,0.206057 0.383882,0.495704 0.383882,1.033271 0,0.585862 -0.207456,1.136346 -0.947023,2.152787 -0.7395682,1.016442 -1.9871752,2.423761 -3.8811056,4.552477 a 0.71960204,0.71960204 0 0 0 -0.1809491,0.478586 v 0.735634 a 0.71960204,0.71960204 0 0 0 0.7187232,0.720414 h 6.4177755 a 0.71960204,0.71960204 0 0 0 0.720414,-0.720414 v -1.03327 a 0.71960204,0.71960204 0 0 0 -0.720414,-0.718723 h -3.087973 c 1.113287,-1.298403 2.221352,-2.574135 2.737913,-3.363625 0.699958,-1.069787 0.960552,-1.932595 0.960552,-2.803866 0,-1.127392 -0.441951,-2.124737 -1.183779,-2.805558 -0.741827,-0.680821 -1.75967,-1.045108 -2.8698202,-1.045108 z m 9.0660592,0 c -1.534133,0 -2.75537,0.838435 -3.476929,2.025954 -0.72156,1.18752 -1.029888,2.705557 -1.029888,4.297119 0,1.591563 0.308329,3.109599 1.029888,4.29712 0.721559,1.18752 1.942795,2.025954 3.476929,2.025954 1.52293,0 2.725599,-0.851448 3.424505,-2.041174 0.698908,-1.189727 0.989301,-2.702702 0.989301,-4.2819 0,-1.604894 -0.275217,-3.117476 -0.970698,-4.303884 -0.695481,-1.186406 -1.906945,-2.019189 -3.443108,-2.019189 z m 18.800109,0 c -0.944097,0 -1.876134,0.283064 -2.595859,0.886143 -0.719726,0.603081 -1.192234,1.546069 -1.192234,2.666887 0,1.047605 0.562331,1.777568 1.227747,2.379397 -1.235996,0.99435 -1.555824,2.22455 -1.555824,2.832614 0,1.222073 0.515532,2.255414 1.330907,2.91548 0.815374,0.660066 1.887366,0.965626 3.020329,0.965626 1.132717,0 2.176561,-0.346632 2.949302,-1.019742 0.77274,-0.67311 1.244659,-1.679371 1.244659,-2.829233 0,-0.841223 -0.39597,-1.553557 -0.916584,-2.059776 -0.285478,-0.277585 -0.644383,-0.437564 -0.979154,-0.640931 0.814528,-0.785437 1.317377,-1.695149 1.317377,-2.560347 0,-1.247306 -0.508356,-2.224163 -1.270026,-2.790337 -0.761671,-0.566174 -1.694852,-0.745781 -2.58064,-0.745781 z m -8.67203,0.218154 a 0.71960204,0.71960204 0 0 0 -0.610492,0.339913 l -4.5863,7.341124 a 0.71960204,0.71960204 0 0 0 -0.109923,0.380501 v 0.767765 a 0.71960204,0.71960204 0 0 0 0.720415,0.718724 h 4.523729 v 2.0361 a 0.71960204,0.71960204 0 0 0 0.720414,0.718723 h 1.298775 a 0.71960204,0.71960204 0 0 0 0.718723,-0.718723 v -2.0361 h 0.659535 a 0.71960204,0.71960204 0 0 0 0.718723,-0.718724 v -1.03327 a 0.71960204,0.71960204 0 0 0 -0.718723,-0.720415 h -0.659535 v -6.355204 a 0.71960204,0.71960204 0 0 0 -0.718722,-0.720414 z m -10.158519,2.254254 c 0.620514,0 0.931609,0.288047 1.241278,0.987611 0.309669,0.699562 0.465057,1.766305 0.465057,2.863054 0,1.09675 -0.155388,2.163492 -0.465057,2.863056 -0.309671,0.699563 -0.620764,0.98761 -1.241278,0.98761 -0.641132,0 -0.9578,-0.292889 -1.270026,-0.990992 -0.312225,-0.698105 -0.468439,-1.762924 -0.468439,-2.859674 0,-1.096749 0.156214,-2.161569 0.468439,-2.859672 0.312226,-0.698104 0.628894,-0.990993 1.270026,-0.990993 z m 18.90834,0 c 0.250479,0 0.524443,0.06815 0.698431,0.209698 0.173986,0.141548 0.33484,0.356011 0.33484,0.963934 0,0.428732 -0.11231,0.805133 -0.732252,1.249734 -0.390239,-0.19452 -0.798888,-0.39006 -1.028197,-0.573288 -0.313806,-0.250746 -0.400795,-0.403033 -0.400795,-0.629094 0,-0.860132 0.636856,-1.220984 1.127973,-1.220984 z m -8.812391,2.049629 v 2.771735 H 27.16679 Z m 8.350717,2.849527 c 0.551581,0.274463 1.117883,0.541378 1.476343,0.786368 0.458973,0.313686 0.598655,0.514002 0.598655,0.764382 0,0.425258 -0.149231,0.684645 -0.410941,0.897982 -0.261711,0.213337 -0.665228,0.353443 -1.124592,0.353443 -0.787842,0 -1.533839,-0.498887 -1.533839,-1.549061 0,-0.117675 -2.59e-4,-0.257538 0.138671,-0.50226 0.105753,-0.186282 0.464079,-0.471365 0.855703,-0.750854 z" />
</svg>
