<?xml version="1.0" encoding="UTF-8" standalone="no"?>
<svg
   height="48"
   width="48"
   version="1.1"
   id="svg6"
   sodipodi:docname="net.sourceforge.qtpfsgui.LuminanceHDR.svg"
   inkscape:version="1.1.2 (0a00cf5339, 2022-02-04)"
   xmlns:inkscape="http://www.inkscape.org/namespaces/inkscape"
   xmlns:sodipodi="http://sodipodi.sourceforge.net/DTD/sodipodi-0.dtd"
   xmlns="http://www.w3.org/2000/svg"
   xmlns:svg="http://www.w3.org/2000/svg"
   xmlns:rdf="http://www.w3.org/1999/02/22-rdf-syntax-ns#"
   xmlns:cc="http://creativecommons.org/ns#"
   xmlns:dc="http://purl.org/dc/elements/1.1/">
  <metadata
     id="metadata12">
    <rdf:RDF>
      <cc:Work
         rdf:about="">
        <dc:format>image/svg+xml</dc:format>
        <dc:type
           rdf:resource="http://purl.org/dc/dcmitype/StillImage" />
        <dc:title />
      </cc:Work>
    </rdf:RDF>
  </metadata>
  <defs
     id="defs10" />
  <sodipodi:namedview
     pagecolor="#ffffff"
     bordercolor="#666666"
     borderopacity="1"
     objecttolerance="10"
     gridtolerance="10"
     guidetolerance="10"
     inkscape:pageopacity="0"
     inkscape:pageshadow="2"
     inkscape:window-width="1920"
     inkscape:window-height="1031"
     id="namedview8"
     showgrid="false"
     inkscape:zoom="2.3645833"
     inkscape:cx="-144.42291"
     inkscape:cy="44.61674"
     inkscape:window-x="0"
     inkscape:window-y="0"
     inkscape:window-maximized="1"
     inkscape:current-layer="svg6"
     inkscape:document-rotation="0"
     inkscape:pagecheckerboard="0" />
  <path
     id="circle2"
     style="opacity:0.99;fill:#b0bfce"
     transform="matrix(1.75830584759 0 0 1.75830608345 -18.15909274367 -30.97874795549)"
     d="M 37.173613,31.534513 A 13.232998,13.232998 0 0 1 23.940615,44.767511 13.232998,13.232998 0 0 1 10.707617,31.534513 13.232998,13.232998 0 0 1 23.940615,18.301516 13.232998,13.232998 0 0 1 37.173613,31.534513 Z" />
  <path
     id="circle831"
     style="opacity:0.99;fill:#ffffff;fill-opacity:0.994427;stroke-width:1.6391"
     d="M 45.626064,24.468578 A 21.690235,21.690239 0 0 1 23.935829,46.158817 21.690235,21.690239 0 0 1 2.245594,24.468578 21.690235,21.690239 0 0 1 23.935829,2.7783394 21.690235,21.690239 0 0 1 45.626064,24.468578 Z" />
  <path
     id="ellipse833"
     style="opacity:0.99;fill:#a9d3c1;stroke-width:1.5348;fill-opacity:1"
     d="M 44.245905,24.468578 A 20.310076,20.31008 0 0 1 23.935829,44.778658 20.310076,20.31008 0 0 1 3.6257534,24.468578 20.310076,20.31008 0 0 1 23.935829,4.1584988 20.310076,20.31008 0 0 1 44.245905,24.468578 Z" />
  <path
     id="ellipse835"
     style="fill:#8cbcb5;fill-opacity:1;stroke-width:1.5348"
     d="M 5.3828125 32.732422 A 20.310076 20.31008 0 0 0 23.935547 44.779297 A 20.310076 20.31008 0 0 0 42.488281 32.732422 L 5.3828125 32.732422 z " />
  <path
     id="path862"
     style="opacity:1;fill:#ebcb8b;stroke-width:4.69726;stroke-linecap:round;fill-opacity:1"
     d="m 31.244911,20.585831 a 7.3090816,7.3090816 0 0 1 -7.309082,7.309081 7.3090816,7.3090816 0 0 1 -7.309081,-7.309081 7.3090816,7.3090816 0 0 1 7.309081,-7.309082 7.3090816,7.3090816 0 0 1 7.309082,7.309082 z" />
  <path
     id="path845"
     style="fill:#f6e7ca;fill-opacity:1;stroke:none;stroke-width:1px;stroke-linecap:butt;stroke-linejoin:miter;stroke-opacity:1"
     d="m 17.779297,32.732422 2.050781,0.609375 -3.195312,0.726562 3.111328,0.212891 -2.84375,1.179688 2.966797,0.253906 -1.439453,0.375 1.955078,0.833984 -1.085938,0.521484 1.046875,0.31836 -0.466797,0.787109 0.921875,0.802735 -0.503906,0.792968 1.212891,0.712891 -0.748047,1.638672 0.521484,2.105469 c 0.118355,0.01602 0.23685,0.03099 0.355469,0.04492 1.720109,0.299615 3.496045,0.04526 5.259766,-0.08789 0.255993,-0.03744 0.511248,-0.07976 0.765624,-0.126953 l -0.917968,-1.685547 0.863281,-1.009766 -0.695313,-0.679687 1.175782,-0.347656 -1.435547,-0.746094 1.759765,-1.199219 L 26.75,38.220703 28.814453,37.646484 27.847656,36.916016 29.933594,36.5 27.177734,35.802734 31.257812,34.683594 27.78125,34.625 30.236328,33.458984 28.083984,32.732422 Z"
     sodipodi:nodetypes="ccccccccccccccccccccccccccccccccccc" />
</svg>
