<?xml version="1.0" encoding="UTF-8" standalone="no"?>
<svg
   xmlns:dc="http://purl.org/dc/elements/1.1/"
   xmlns:cc="http://creativecommons.org/ns#"
   xmlns:rdf="http://www.w3.org/1999/02/22-rdf-syntax-ns#"
   xmlns:svg="http://www.w3.org/2000/svg"
   xmlns="http://www.w3.org/2000/svg"
   xmlns:sodipodi="http://sodipodi.sourceforge.net/DTD/sodipodi-0.dtd"
   xmlns:inkscape="http://www.inkscape.org/namespaces/inkscape"
   height="48"
   width="48"
   version="1.1"
   id="svg34"
   sodipodi:docname="nl.hjdskes.Gcolor3.svg"
   inkscape:version="1.0.2 (e86c870879, 2021-01-15)">
  <metadata
     id="metadata40">
    <rdf:RDF>
      <cc:Work
         rdf:about="">
        <dc:format>image/svg+xml</dc:format>
        <dc:type
           rdf:resource="http://purl.org/dc/dcmitype/StillImage" />
      </cc:Work>
    </rdf:RDF>
  </metadata>
  <defs
     id="defs38" />
  <sodipodi:namedview
     pagecolor="#ffffff"
     bordercolor="#666666"
     borderopacity="1"
     objecttolerance="10"
     gridtolerance="10"
     guidetolerance="10"
     inkscape:pageopacity="0"
     inkscape:pageshadow="2"
     inkscape:window-width="1920"
     inkscape:window-height="1031"
     id="namedview36"
     showgrid="false"
     inkscape:zoom="18.916667"
     inkscape:cx="24"
     inkscape:cy="24"
     inkscape:window-x="0"
     inkscape:window-y="24"
     inkscape:window-maximized="1"
     inkscape:current-layer="svg34" />
  <g
     fill="#c7b892"
     opacity=".99"
     transform="matrix(1.1503549 0 0 1.1503549 -4.486125 -7.525565)"
     id="g12">
    <path
       d="m44.322082 27.405077a19.729762 19.729765 0 0 1 -19.729762 19.729765 19.729762 19.729765 0 0 1 -19.7297621-19.729765 19.729762 19.729765 0 0 1 19.7297621-19.7297632 19.729762 19.729765 0 0 1 19.729762 19.7297632z"
       fill="#80c778"
       id="path2" />
    <path
       d="m44.322082 27.405077c0 10.896448-8.833315 19.729765-19.729762 19.729765s-19.7297621-8.833317-19.7297621-19.729765h19.7297621z"
       fill="#80c7f3"
       id="path4" />
    <path
       d="m24.59232 7.6753138c10.896446 0 19.729761 8.8333152 19.729762 19.7297632 0 10.896448-8.833315 19.729765-19.729762 19.729765"
       fill="#ffc778"
       id="path6" />
    <path
       d="m10.641272 13.454028c3.570385-3.5703853 8.502825-5.7787142 13.951048-5.7787142 10.896446.0000001 19.729761 8.8333152 19.729762 19.7297632h-19.729762z"
       fill="#4dc778"
       id="path8" />
    <path
       d="m24.59232 27.529263v-19.8539492c10.896446 0 19.729761 8.8333152 19.729762 19.7297632"
       fill="#ffc778"
       id="path10" />
  </g>
  <path
     d="m46.5 24a22.696228 22.696232 0 0 1 -22.696229 22.696232 22.696228 22.696232 0 0 1 -22.6962282-22.696232 22.696228 22.696232 0 0 1 22.6962282-22.69623 22.696228 22.696232 0 0 1 22.696229 22.69623z"
     fill="#80c778"
     id="path14"
     style="fill:#aacd87;fill-opacity:1" />
  <path
     d="m46.5 24c0 12.534782-10.161447 22.696232-22.696229 22.696232-12.534781 0-22.6962282-10.16145-22.6962282-22.696232h22.6962282z"
     fill="#80c7f3"
     id="path16"
     style="fill:#95c9de;fill-opacity:1" />
  <path
     d="m23.803771 1.30377c12.53478 0 22.696228 10.161447 22.696229 22.69623 0 12.534782-10.161447 22.696232-22.696229 22.696232"
     fill="#e17760"
     id="path18"
     style="fill:#e4846f;fill-opacity:1" />
  <path
     d="m7.7551149 7.9513422c4.1072101-4.1072102 9.7812661-6.6475722 16.0486561-6.6475722 12.53478.0000002 22.696228 10.161447 22.696229 22.69623h-22.696229z"
     fill="#4dc778"
     id="path20"
     style="fill:#57bd7b;fill-opacity:1" />
  <path
     d="m23.803771 24.142858v-22.839088c12.53478 0 22.696228 10.161447 22.696229 22.69623"
     fill="#ffc778"
     id="path22" />
  <path
     d="m23.902344 1.3066406c-.032732.0001387-.064958.0036292-.097656.0039063v22.6894531h.195312l15.947266-15.9472656c-4.093407-4.1436959-9.766374-6.7194995-16.044922-6.7460938z"
     fill="#f9b278"
     id="path24" />
  <path
     d="m23.803771 24.000001 22.696229-.000001c0 6.267391-2.540362 11.941449-6.647571 16.048659"
     fill="#d87a9c"
     id="path26"
     style="fill:#d47e9d;fill-opacity:1" />
  <path
     d="m23.803771 24v22.696232c-6.267391 0-11.941448-2.540362-16.048657-6.647573"
     fill="#5fb2e6"
     id="path28" />
  <circle
     cx="23.803772"
     cy="24.000002"
     fill="#ffffff"
     r="13.5"
     id="circle30" />
  <path
     d="m30.109208 14.643706c-.642751-.587567-1.633223-.54314-2.220789.09961l-2.828238 3.093866c-.124805.136528-.214932.290469-.283031.451179l-.0705-.06445c-.4285-.391711-1.088815-.362094-1.480526.0664l-.707059.773466c-.391712.4285-.362094 1.088815.0664 1.480526l.773466.707059-6.928814 7.57957c-.391711.4285-.362094 1.088815.0664 1.480525l-1.555899 1.702029c-.391711.428501-.362093 1.088816.0664 1.480527.4285.391711 1.088815.362093 1.480525-.0664l1.5559-1.702028c.4285.39171 1.088815.362092 1.480526-.0664l6.928814-7.579569.773467.707059c.4285.391711 1.088815.362094 1.480526-.0664l.70706-.773466c.39171-.428501.362093-1.088815-.0664-1.480526l-.07049-.06445c.153968-.08221.299223-.185761.424028-.322288l2.828238-3.093866c.587566-.642751.54314-1.633223-.09961-2.22079z"
     fill="#80c778"
     stroke-width=".698628"
     id="path32"
     style="fill:#95c9de;fill-opacity:1" />
</svg>
