<?xml version="1.0" encoding="UTF-8" standalone="no"?>
<svg
   xmlns:dc="http://purl.org/dc/elements/1.1/"
   xmlns:cc="http://creativecommons.org/ns#"
   xmlns:rdf="http://www.w3.org/1999/02/22-rdf-syntax-ns#"
   xmlns:svg="http://www.w3.org/2000/svg"
   xmlns="http://www.w3.org/2000/svg"
   xmlns:sodipodi="http://sodipodi.sourceforge.net/DTD/sodipodi-0.dtd"
   xmlns:inkscape="http://www.inkscape.org/namespaces/inkscape"
   height="48"
   width="48"
   version="1.1"
   id="svg6"
   sodipodi:docname="grsync.svg"
   inkscape:version="1.0.2 (e86c870879, 2021-01-15)">
  <metadata
     id="metadata12">
    <rdf:RDF>
      <cc:Work
         rdf:about="">
        <dc:format>image/svg+xml</dc:format>
        <dc:type
           rdf:resource="http://purl.org/dc/dcmitype/StillImage" />
        <dc:title></dc:title>
      </cc:Work>
    </rdf:RDF>
  </metadata>
  <defs
     id="defs10" />
  <sodipodi:namedview
     pagecolor="#ffffff"
     bordercolor="#666666"
     borderopacity="1"
     objecttolerance="10"
     gridtolerance="10"
     guidetolerance="10"
     inkscape:pageopacity="0"
     inkscape:pageshadow="2"
     inkscape:window-width="1920"
     inkscape:window-height="1031"
     id="namedview8"
     showgrid="false"
     inkscape:zoom="9.4583331"
     inkscape:cx="-22.436747"
     inkscape:cy="18.855737"
     inkscape:window-x="0"
     inkscape:window-y="24"
     inkscape:window-maximized="1"
     inkscape:current-layer="svg6"
     inkscape:document-rotation="0" />
  <circle
     cx="23.940615"
     cy="31.534513"
     fill="#5e81ac"
     opacity=".99"
     r="13.232998"
     transform="matrix(1.75830584759 0 0 1.75830608345 -18.15909274367 -30.97874795549)"
     id="circle2"
     style="fill:#bba498;fill-opacity:1" />
  <g
     fill="#ffffff"
     fill-rule="evenodd"
     transform="translate(-2.0425639,-3.6985065)"
     id="g8">
    <path
       d="m 33,12.072266 v 3 H 19 l -7,7 h 7 14 v 3 l 7,-7 z m 7,9.394531 -7,7 v 3 1.570312 h 7 z M 12,23.5 v 11.572266 l 7,-7 v -3 V 23.5 Z m 7,7.966797 -7,7 7,6 v -3 h 14 l 7,-7 H 33 19 Z"
       fill-opacity="0.496479"
       id="path4" />
    <path
       d="m 33,12.072266 v 3 H 19 l -7,7 h 7 14 v 3 l 7,-7 z m -14,19.394531 -7,7 7,6 v -3 h 14 l 7,-7 H 33 19 Z"
       fill-opacity="0.901408"
       id="path6" />
  </g>
</svg>
