<?xml version="1.0" encoding="UTF-8" standalone="no"?>
<svg
   xmlns:dc="http://purl.org/dc/elements/1.1/"
   xmlns:cc="http://creativecommons.org/ns#"
   xmlns:rdf="http://www.w3.org/1999/02/22-rdf-syntax-ns#"
   xmlns:svg="http://www.w3.org/2000/svg"
   xmlns="http://www.w3.org/2000/svg"
   xmlns:sodipodi="http://sodipodi.sourceforge.net/DTD/sodipodi-0.dtd"
   xmlns:inkscape="http://www.inkscape.org/namespaces/inkscape"
   height="48"
   width="48"
   version="1.1"
   id="svg6"
   sodipodi:docname="gtk-gnutella.svg"
   inkscape:version="1.0.2 (e86c870879, 2021-01-15)">
  <metadata
     id="metadata12">
    <rdf:RDF>
      <cc:Work
         rdf:about="">
        <dc:format>image/svg+xml</dc:format>
        <dc:type
           rdf:resource="http://purl.org/dc/dcmitype/StillImage" />
        <dc:title></dc:title>
      </cc:Work>
    </rdf:RDF>
  </metadata>
  <defs
     id="defs10" />
  <sodipodi:namedview
     pagecolor="#ffffff"
     bordercolor="#666666"
     borderopacity="1"
     objecttolerance="10"
     gridtolerance="10"
     guidetolerance="10"
     inkscape:pageopacity="0"
     inkscape:pageshadow="2"
     inkscape:window-width="1920"
     inkscape:window-height="1031"
     id="namedview8"
     showgrid="false"
     inkscape:zoom="9.4583331"
     inkscape:cx="17.150555"
     inkscape:cy="27.709084"
     inkscape:window-x="0"
     inkscape:window-y="24"
     inkscape:window-maximized="1"
     inkscape:current-layer="svg6"
     inkscape:document-rotation="0" />
  <circle
     cx="23.940615"
     cy="31.534513"
     fill="#5e81ac"
     opacity=".99"
     id="circle2"
     style="fill:#edd278;fill-opacity:1"
     transform="matrix(1.75830584759 0 0 1.75830608345 -18.15909274367 -30.97874795549)"
     r="13.232998" />
  <g
     id="g31"
     style="clip-rule:evenodd;fill:#ffffff;fill-opacity:0.475861;fill-rule:evenodd;stroke-linejoin:round;stroke-miterlimit:2"
     transform="matrix(0.03618567,0,0,0.03618567,4.5132984,5.4492098)">
    <path
       id="circle3"
       style="fill:#ffffff;fill-opacity:0.475861"
       d="M 768.66602,-397.54492 A 444.00201,444.00201 0 0 0 324.66406,46.457031 444.00201,444.00201 0 0 0 768.66602,490.45898 444.00201,444.00201 0 0 0 1212.668,46.457031 444.00201,444.00201 0 0 0 768.66602,-397.54492 Z m 111.59179,273.77734 c 5.78672,0.006 11.58805,2.00922 16.29102,6.0625 0.993,0.855 1.996,1.71799 3,2.58399 5.524,4.76 8.69464,11.69337 8.68164,18.984371 -0.012,7.291 -3.20709,14.214078 -8.74609,18.955078 -3.16301,2.707 -6.30821,5.396938 -9.15821,7.835938 -5.884,5.037 -6.69694,13.83914 -1.83594,19.869141 8.628,11.038999 19.7754,32.261828 19.77539,68.048828 0,206.557004 -229.42968,131.586424 -229.42968,181.232424 0,32.827 94.51942,5.35742 141.23242,5.35742 46.713,0 107.93164,19.63928 107.93164,96.23828 0,76.598 -64.73322,123.19141 -156.94922,123.19141 -51.742,0 -94.39419,-14.66988 -121.86719,-27.54688 -8.627,-4.145 -14.92829,-11.95467 -17.15429,-21.26367 -2.227,-9.308 -0.14318,-19.12461 5.67382,-26.72461 -0.038,-0.032 -0.0362,-0.0332 -0.0352,-0.0352 9.676,-12.642 27.20217,-16.19345 41.03515,-8.31445 19.674,10.97 51.40066,23.67578 92.34766,23.67578 71.801,0 89.80078,-34.69742 89.80078,-62.98242 0,-28.286 -35.82054,-37.8125 -62.81054,-37.8125 -26.991,0 -53.77014,9.52539 -90.86914,9.52539 -37.09902,0 -84.54688,-6.53584 -84.54688,-56.71484 0,-28.394 20.61272,-44.87217 38.51172,-53.82617 4,-1.967 6.64283,-5.9231 6.92383,-10.3711 0.282,-4.449 -1.83955,-8.70906 -5.56055,-11.16406 -22.733,-15.555 -53.14063,-48.695001 -53.14062,-115.000001 0,-98.093 78.21732,-141.593749 149.61132,-141.593749 43.252,0 64.8828,7.13472 75.2168,12.76172 5.677,3.290996 12.86564,2.29408 17.43164,-2.41992 3.237,-3.294 6.9845,-7.16236 10.64648,-10.94336 4.89547,-5.05485 11.43392,-7.61577 17.99219,-7.60938 z m -115.74609,61.000002 a 89.695198,88.383003 0 0 0 -89.48047,88.382812 89.695198,88.383003 0 0 0 89.69531,88.382816 89.695198,88.383003 0 0 0 89.69532,-88.382816 89.695198,88.383003 0 0 0 -89.69532,-88.382812 89.695198,88.383003 0 0 0 -0.21484,0 z"
       transform="translate(-231.92982,486.87515)" />
    <path
       d="m 536.736,89.332 c 245.051,0 444.001,198.95 444.001,444.001 0,245.052 -198.95,444.002 -444.001,444.002 -245.052,0 -444.002,-198.95 -444.002,-444.002 0,-245.051 198.95,-444.001 444.002,-444.001 z m 0,44.359 c 220.568,0 399.642,179.074 399.642,399.642 0,220.569 -179.074,399.642 -399.642,399.642 -220.569,0 -399.642,-179.073 -399.642,-399.642 0,-220.568 179.073,-399.642 399.642,-399.642 z"
       style="fill:#ffffff;fill-opacity:0.475861"
       id="path5" />
    <path
       id="circle7"
       style="fill:#ffffff;fill-opacity:0.475861"
       d="M 768.2168,-208.625 A 255.08299,255.08299 0 0 0 513.5957,46.457031 255.08299,255.08299 0 0 0 768.67969,301.54102 255.08299,255.08299 0 0 0 856.48828,285.95117 c -10.34505,-16.41669 -37.14005,-22.36328 -58.44726,-22.36328 -26.991,0 -53.77014,9.52539 -90.86914,9.52539 -37.09901,0 -84.54688,-6.53584 -84.54688,-56.71484 0,-28.394 20.61272,-44.87217 38.51172,-53.82617 4,-1.967 6.64283,-5.9231 6.92383,-10.3711 0.282,-4.449 -1.83955,-8.70906 -5.56055,-11.16406 -22.733,-15.555 -53.14062,-48.695001 -53.14062,-115.000001 0,-98.093 78.21732,-141.593749 149.61132,-141.593749 43.252,0 64.8828,7.13472 75.2168,12.76172 5.677,3.290998 12.86564,2.29408 17.43164,-2.41992 3.237,-3.294 6.98449,-7.16236 10.64648,-10.94336 9.21501,-9.515 24.25021,-10.19388 34.28321,-1.54688 0.993,0.855 1.996,1.71799 3,2.58399 5.524,4.76 8.69464,11.69337 8.68164,18.984371 -0.012,7.291 -3.20709,14.214078 -8.74609,18.955078 -3.16301,2.707 -6.30821,5.396938 -9.15821,7.835938 -5.884,5.037 -6.69694,13.83914 -1.83594,19.869141 8.628,11.038999 19.77539,32.261828 19.77539,68.048828 0,206.557004 -229.42968,131.586424 -229.42968,181.232424 0,32.827 94.51942,5.35742 141.23242,5.35742 34.9063,0 77.90854,10.97047 97.41797,48.47461 A 255.08299,255.08299 0 0 0 1023.7617,46.457031 255.08299,255.08299 0 0 0 768.67969,-208.625 a 255.08299,255.08299 0 0 0 -0.46289,0 z"
       transform="translate(-231.92982,486.87515)" />
    <g
       id="g27"
       style="fill:#ffffff;fill-opacity:0.475861">
      <g
         id="g13"
         style="fill:#ffffff;fill-opacity:0.475861">
        <circle
           cx="721.73602"
           cy="149.177"
           r="75.302002"
           style="fill:#ffffff;fill-opacity:0.475861"
           id="circle9" />
        <circle
           cx="351.63599"
           cy="149.177"
           r="75.302002"
           style="fill:#ffffff;fill-opacity:0.475861"
           id="circle11" />
      </g>
      <g
         id="g19"
         style="fill:#ffffff;fill-opacity:0.475861">
        <path
           d="m 932.656,830.946 c -10.756,40.144 -52.081,64.002 -92.225,53.246 -40.144,-10.757 -64.002,-52.081 -53.246,-92.225 10.757,-40.144 52.081,-64.003 92.225,-53.247 40.144,10.757 64.003,52.082 53.246,92.226 z"
           style="fill:#ffffff;fill-opacity:0.475861"
           id="path15" />
        <path
           d="m 1028.44,473.456 c -10.756,40.144 -52.081,64.003 -92.225,53.246 -40.144,-10.756 -64.002,-52.081 -53.246,-92.225 10.757,-40.144 52.081,-64.002 92.225,-53.246 40.144,10.757 64.003,52.081 53.246,92.225 z"
           style="fill:#ffffff;fill-opacity:0.475861"
           id="path17" />
      </g>
      <g
         id="g25"
         style="fill:#ffffff;fill-opacity:0.475861">
        <path
           d="m 45.053,473.554 c -10.757,-40.144 13.102,-81.469 53.246,-92.226 40.144,-10.756 81.469,13.103 92.225,53.247 10.757,40.144 -13.102,81.468 -53.246,92.225 -40.144,10.756 -81.469,-13.102 -92.225,-53.246 z"
           style="fill:#ffffff;fill-opacity:0.475861"
           id="path21" />
        <path
           d="m 140.842,831.043 c -10.757,-40.144 13.102,-81.469 53.246,-92.225 40.144,-10.757 81.469,13.102 92.225,53.246 10.757,40.144 -13.102,81.469 -53.246,92.225 -40.144,10.757 -81.469,-13.102 -92.225,-53.246 z"
           style="fill:#ffffff;fill-opacity:0.475861"
           id="path23" />
      </g>
    </g>
  </g>
</svg>
