<?xml version="1.0" encoding="UTF-8" standalone="no"?>
<svg
   height="48"
   width="48"
   version="1.1"
   id="svg6"
   sodipodi:docname="yast-security.svg"
   inkscape:version="1.1.2 (0a00cf5339, 2022-02-04)"
   xmlns:inkscape="http://www.inkscape.org/namespaces/inkscape"
   xmlns:sodipodi="http://sodipodi.sourceforge.net/DTD/sodipodi-0.dtd"
   xmlns="http://www.w3.org/2000/svg"
   xmlns:svg="http://www.w3.org/2000/svg">
  <defs
     id="defs10" />
  <sodipodi:namedview
     id="namedview8"
     pagecolor="#ffffff"
     bordercolor="#666666"
     borderopacity="1.0"
     inkscape:pageshadow="2"
     inkscape:pageopacity="0.0"
     inkscape:pagecheckerboard="0"
     showgrid="false"
     inkscape:zoom="16.375"
     inkscape:cx="12.48855"
     inkscape:cy="24.030534"
     inkscape:window-width="1920"
     inkscape:window-height="1031"
     inkscape:window-x="0"
     inkscape:window-y="0"
     inkscape:window-maximized="1"
     inkscape:current-layer="svg6" />
  <path
     d="m44.322082 27.405077a19.729762 19.729765 0 0 1 -19.729762 19.729765 19.729762 19.729765 0 0 1 -19.7297621-19.729765 19.729762 19.729765 0 0 1 19.7297621-19.7297632 19.729762 19.729765 0 0 1 19.729762 19.7297632z"
     fill="#6f7c91"
     opacity=".99"
     transform="matrix(1.1503549 0 0 1.1503549 -4.486125 -7.525565)"
     id="path2"
     style="fill:#586273;fill-opacity:1" />
  <path
     d="m11.81256 12c0 5.979943.621836 10.585925 1.595703 14.236328l8.21875-14.236328zm14.433594 0-11.074219 19.183594c.66748 1.40813 1.399327 2.589541 2.162109 3.609375l14.246094-22.792969zm9.548828.802734-15.642578 25.025391c1.296406 1.120453 2.567243 1.943266 3.660156 2.671875 4.439765-2.959843 11.786182-7.411522 11.982422-27.697266z"
     fill="#ffffff"
     id="path4" />
</svg>
