<?xml version="1.0" encoding="UTF-8" standalone="no"?>
<svg
   height="48"
   width="48"
   version="1.1"
   id="svg8"
   sodipodi:docname="org.gnome.Firmware.svg"
   inkscape:version="1.1.2 (0a00cf5339, 2022-02-04)"
   xmlns:inkscape="http://www.inkscape.org/namespaces/inkscape"
   xmlns:sodipodi="http://sodipodi.sourceforge.net/DTD/sodipodi-0.dtd"
   xmlns="http://www.w3.org/2000/svg"
   xmlns:svg="http://www.w3.org/2000/svg"
   xmlns:rdf="http://www.w3.org/1999/02/22-rdf-syntax-ns#"
   xmlns:cc="http://creativecommons.org/ns#"
   xmlns:dc="http://purl.org/dc/elements/1.1/">
  <metadata
     id="metadata14">
    <rdf:RDF>
      <cc:Work
         rdf:about="">
        <dc:format>image/svg+xml</dc:format>
        <dc:type
           rdf:resource="http://purl.org/dc/dcmitype/StillImage" />
        <dc:title />
      </cc:Work>
    </rdf:RDF>
  </metadata>
  <defs
     id="defs12" />
  <sodipodi:namedview
     pagecolor="#ffffff"
     bordercolor="#666666"
     borderopacity="1"
     objecttolerance="10"
     gridtolerance="10"
     guidetolerance="10"
     inkscape:pageopacity="0"
     inkscape:pageshadow="2"
     inkscape:window-width="1920"
     inkscape:window-height="1031"
     id="namedview10"
     showgrid="false"
     inkscape:zoom="6.6880518"
     inkscape:cx="6.9526973"
     inkscape:cy="18.914327"
     inkscape:window-x="0"
     inkscape:window-y="0"
     inkscape:window-maximized="1"
     inkscape:current-layer="svg8"
     inkscape:document-rotation="0"
     inkscape:pagecheckerboard="0" />
  <path
     id="path2"
     style="fill:#81a1c1;fill-opacity:1;stroke-width:1.15035"
     d="M 23.804688 1.3046875 A 22.696228 22.696232 0 0 0 1.1074219 24 A 22.696228 22.696232 0 0 0 23.804688 46.695312 A 22.696228 22.696232 0 0 0 46.5 24 A 22.696228 22.696232 0 0 0 23.804688 1.3046875 z " />
  <path
     id="rect1080"
     style="fill:#ffffff;fill-opacity:0.996078;stroke:none;stroke-width:0.8;stroke-linecap:square"
     d="m 15.373773,15.71057 c -0.0066,0 -0.01172,0.0051 -0.01172,0.01172 v 16.357422 c 0,0.0066 0.0051,0.01172 0.01172,0.01172 h 16.357422 c 0.0066,0 0.01172,-0.0052 0.01172,-0.01172 V 15.722288 c 0,-0.0066 -0.0052,-0.01172 -0.01172,-0.01172 z m 1.179688,1.183594 h 13.996094 c 0.0056,0 0.0098,0.0041 0.0098,0.0098 v 13.996094 c 0,0.0056 -0.0041,0.0098 -0.0098,0.0098 H 16.553461 c -0.0056,0 -0.0098,-0.0041 -0.0098,-0.0098 V 16.903929 c 0,-0.0056 0.0041,-0.0098 0.0098,-0.0098 z" />
  <path
     style="fill:none;stroke:#f9f9f9;stroke-width:1px;stroke-linecap:butt;stroke-linejoin:miter;stroke-opacity:1"
     d="m 31.431541,20.382066 h 1.799438 l 1.696511,-1.696511 h 1.532018"
     id="path1094"
     sodipodi:nodetypes="cccc" />
  <path
     style="fill:none;stroke:#f9f9f9;stroke-width:1px;stroke-linecap:butt;stroke-linejoin:miter;stroke-opacity:1"
     d="m 33.230979,20.382066 1.547903,1.547903 h 3.269142"
     id="path1096" />
  <circle
     style="fill:none;fill-opacity:0.996078;stroke:#f9f9f9;stroke-width:1;stroke-linecap:square;stroke-miterlimit:4;stroke-dasharray:none;stroke-opacity:1"
     id="path1098"
     cx="37.657372"
     cy="18.61878"
     r="1.2022947" />
  <circle
     style="fill:none;fill-opacity:0.996078;stroke:#f9f9f9;stroke-width:1;stroke-linecap:square;stroke-miterlimit:4;stroke-dasharray:none;stroke-opacity:1"
     id="circle1100"
     cx="39.449547"
     cy="21.894039"
     r="1.2022947" />
  <path
     style="fill:none;stroke:#ffffff;stroke-width:1px;stroke-linecap:butt;stroke-linejoin:miter;stroke-opacity:1"
     d="M 15.998177,28.896195 H 14.198739 L 12.502228,27.199684 H 10.97021"
     id="path1094-3"
     sodipodi:nodetypes="cccc" />
  <path
     style="fill:none;stroke:#ffffff;stroke-width:1px;stroke-linecap:butt;stroke-linejoin:miter;stroke-opacity:1"
     d="m 14.198739,28.896195 -1.547903,1.547903 H 9.3816948"
     id="path1096-6" />
  <circle
     style="fill:none;fill-opacity:0.996078;stroke:#ffffff;stroke-width:1;stroke-linecap:square;stroke-miterlimit:4;stroke-dasharray:none;stroke-opacity:1"
     id="path1098-7"
     cx="-9.7723465"
     cy="27.13291"
     r="1.2022947"
     transform="scale(-1,1)" />
  <circle
     style="fill:none;fill-opacity:0.996078;stroke:#ffffff;stroke-width:1;stroke-linecap:square;stroke-miterlimit:4;stroke-dasharray:none;stroke-opacity:1"
     id="circle1100-5"
     cx="-7.9801698"
     cy="30.408167"
     r="1.2022947"
     transform="scale(-1,1)" />
  <path
     style="fill:none;stroke:#ffffff;stroke-width:1px;stroke-linecap:butt;stroke-linejoin:miter;stroke-opacity:1"
     d="m 15.566051,20.172106 h -3.953648 l -1.589171,-1.58917 H 7.7913166"
     id="path1134" />
  <circle
     style="fill:none;fill-opacity:0.996078;stroke:#ffffff;stroke-width:1;stroke-linecap:square;stroke-miterlimit:4;stroke-dasharray:none;stroke-opacity:1"
     id="circle1136"
     cx="-7.0865612"
     cy="18.644726"
     r="1.2022947"
     transform="scale(-1,1)" />
  <path
     style="fill:none;stroke:#ffffff;stroke-width:1px;stroke-linecap:butt;stroke-linejoin:miter;stroke-opacity:1"
     d="M 11.612403,20.172106 9.920112,22.583344 H 5.0232621"
     id="path1138" />
  <circle
     style="fill:none;fill-opacity:0.996078;stroke:#ffffff;stroke-width:1;stroke-linecap:square;stroke-miterlimit:4;stroke-dasharray:none;stroke-opacity:1"
     id="circle1140"
     cx="-4.0635886"
     cy="22.449623"
     r="1.2022947"
     transform="scale(-1,1)" />
  <path
     style="fill:none;stroke:#f9f9f9;stroke-width:1px;stroke-linecap:butt;stroke-linejoin:miter;stroke-opacity:1"
     d="m 30.666738,28.680106 h 3.953648 l 1.589171,-1.58917 h 2.231916"
     id="path1134-3" />
  <circle
     style="fill:none;fill-opacity:0.996078;stroke:#f9f9f9;stroke-width:1;stroke-linecap:square;stroke-miterlimit:4;stroke-dasharray:none;stroke-opacity:1"
     id="circle1136-5"
     cx="39.146225"
     cy="27.152725"
     r="1.2022947" />
  <path
     style="fill:none;stroke:#f9f9f9;stroke-width:1px;stroke-linecap:butt;stroke-linejoin:miter;stroke-opacity:1"
     d="m 34.620386,28.680106 1.692292,2.411238 h 4.896849"
     id="path1138-6" />
  <circle
     style="fill:none;fill-opacity:0.996078;stroke:#f9f9f9;stroke-width:1;stroke-linecap:square;stroke-miterlimit:4;stroke-dasharray:none;stroke-opacity:1"
     id="circle1140-2"
     cx="42.169197"
     cy="30.957624"
     r="1.2022947" />
  <rect
     style="fill:#ffffff;fill-opacity:0.996078;stroke:none;stroke-width:1;stroke-linecap:square;stroke-miterlimit:4;stroke-dasharray:none;stroke-opacity:1"
     id="rect1174"
     width="1.3063089"
     height="3.0774324"
     x="17.13932"
     y="13.025948"
     ry="0"
     rx="0" />
  <rect
     style="fill:#ffffff;fill-opacity:0.996078;stroke:none;stroke-width:1;stroke-linecap:square;stroke-miterlimit:4;stroke-dasharray:none;stroke-opacity:1"
     id="rect1176"
     width="1.3063089"
     height="3.0774324"
     x="21.01276"
     y="13.025948"
     ry="0"
     rx="0" />
  <rect
     style="fill:#ffffff;fill-opacity:0.996078;stroke:none;stroke-width:1;stroke-linecap:square;stroke-miterlimit:4;stroke-dasharray:none;stroke-opacity:1"
     id="rect1178"
     width="1.3063089"
     height="3.0774324"
     x="24.886198"
     y="13.025948"
     ry="0"
     rx="0" />
  <rect
     style="fill:#ffffff;fill-opacity:0.996078;stroke:none;stroke-width:1;stroke-linecap:square;stroke-miterlimit:4;stroke-dasharray:none;stroke-opacity:1"
     id="rect1180"
     width="1.3063089"
     height="3.0774324"
     x="28.759638"
     y="13.025948"
     ry="0"
     rx="0" />
  <rect
     style="fill:#ffffff;fill-opacity:0.996078;stroke:none;stroke-width:1;stroke-linecap:square;stroke-miterlimit:4;stroke-dasharray:none;stroke-opacity:1"
     id="rect1182"
     width="1.3063089"
     height="3.0774324"
     x="17.13932"
     y="31.689684"
     ry="0"
     rx="0" />
  <rect
     style="fill:#ffffff;fill-opacity:0.996078;stroke:none;stroke-width:1;stroke-linecap:square;stroke-miterlimit:4;stroke-dasharray:none;stroke-opacity:1"
     id="rect1184"
     width="1.3063089"
     height="3.0774324"
     x="21.01276"
     y="31.689684"
     ry="0"
     rx="0" />
  <rect
     style="fill:#ffffff;fill-opacity:0.996078;stroke:none;stroke-width:1;stroke-linecap:square;stroke-miterlimit:4;stroke-dasharray:none;stroke-opacity:1"
     id="rect1186"
     width="1.3063089"
     height="3.0774324"
     x="24.886198"
     y="31.689684"
     ry="0"
     rx="0" />
  <rect
     style="fill:#ffffff;fill-opacity:0.996078;stroke:none;stroke-width:1;stroke-linecap:square;stroke-miterlimit:4;stroke-dasharray:none;stroke-opacity:1"
     id="rect1188"
     width="1.3063089"
     height="3.0774324"
     x="28.759638"
     y="31.689684"
     ry="0"
     rx="0" />
  <path
     id="circle6"
     style="fill:#ffffff;stroke:#81a1c1;stroke-width:1.6;stroke-linecap:round;stroke-opacity:1"
     d="m 41.54628,33.860722 a 8.25,8.25 0 0 1 -8.25,8.25 8.25,8.25 0 0 1 -8.25,-8.25 8.25,8.25 0 0 1 8.25,-8.25 8.25,8.25 0 0 1 8.25,8.25 z" />
  <path
     id="rect877"
     style="fill:#81a1c1;stroke-width:1.2;stroke-linecap:square;fill-opacity:1"
     d="m 32.072647,28.455447 c -0.0021,0 -0.0039,0.0018 -0.0039,0.0039 v 2.320312 c 0,0.0021 0.0018,0.0039 0.0039,0.0039 h 2.447266 c 0.0021,0 0.0039,-0.0018 0.0039,-0.0039 v -2.320312 c 0,-0.0021 -0.0018,-0.0039 -0.0039,-0.0039 z m 0.0078,3.685547 c -0.0066,0 -0.01172,0.0051 -0.01172,0.01172 v 7.101563 c 0,0.0066 0.0052,0.01172 0.01172,0.01172 h 2.43164 c 0.0066,0 0.01172,-0.0052 0.01172,-0.01172 v -7.101563 c 0,-0.0066 -0.0052,-0.01172 -0.01172,-0.01172 z" />
</svg>
