<?xml version="1.0" encoding="UTF-8" standalone="no"?>
<svg
   xmlns:dc="http://purl.org/dc/elements/1.1/"
   xmlns:cc="http://creativecommons.org/ns#"
   xmlns:rdf="http://www.w3.org/1999/02/22-rdf-syntax-ns#"
   xmlns:svg="http://www.w3.org/2000/svg"
   xmlns="http://www.w3.org/2000/svg"
   xmlns:sodipodi="http://sodipodi.sourceforge.net/DTD/sodipodi-0.dtd"
   xmlns:inkscape="http://www.inkscape.org/namespaces/inkscape"
   height="48"
   width="48"
   version="1.1"
   id="svg6"
   sodipodi:docname="com.github.ronnydo.wammer.svg"
   inkscape:version="1.0.2 (e86c870879, 2021-01-15)">
  <metadata
     id="metadata12">
    <rdf:RDF>
      <cc:Work
         rdf:about="">
        <dc:format>image/svg+xml</dc:format>
        <dc:type
           rdf:resource="http://purl.org/dc/dcmitype/StillImage" />
        <dc:title></dc:title>
      </cc:Work>
    </rdf:RDF>
  </metadata>
  <defs
     id="defs10" />
  <sodipodi:namedview
     pagecolor="#ffffff"
     bordercolor="#666666"
     borderopacity="1"
     objecttolerance="10"
     gridtolerance="10"
     guidetolerance="10"
     inkscape:pageopacity="0"
     inkscape:pageshadow="2"
     inkscape:window-width="1920"
     inkscape:window-height="1031"
     id="namedview8"
     showgrid="false"
     inkscape:zoom="9.4583335"
     inkscape:cx="24"
     inkscape:cy="24"
     inkscape:window-x="0"
     inkscape:window-y="24"
     inkscape:window-maximized="1"
     inkscape:current-layer="svg6"
     inkscape:document-rotation="0" />
  <path
     d="m44.322082 27.405077a19.729762 19.729765 0 0 1 -19.729762 19.729765 19.729762 19.729765 0 0 1 -19.7297621-19.729765 19.729762 19.729765 0 0 1 19.7297621-19.7297632 19.729762 19.729765 0 0 1 19.729762 19.7297632z"
     fill="#8fbcbb"
     opacity=".99"
     transform="matrix(1.1503549 0 0 1.1503549 -4.486125 -7.525565)"
     id="path2"
     style="fill:#87abdc;fill-opacity:1" />
  <path
     style="color:#000000;font-style:normal;font-variant:normal;font-weight:normal;font-stretch:normal;font-size:medium;line-height:normal;font-family:sans-serif;font-variant-ligatures:normal;font-variant-position:normal;font-variant-caps:normal;font-variant-numeric:normal;font-variant-alternates:normal;font-feature-settings:normal;text-indent:0;text-align:start;text-decoration:none;text-decoration-line:none;text-decoration-style:solid;text-decoration-color:#000000;letter-spacing:normal;word-spacing:normal;text-transform:none;writing-mode:lr-tb;direction:ltr;text-orientation:mixed;dominant-baseline:auto;baseline-shift:baseline;text-anchor:start;white-space:normal;shape-padding:0;clip-rule:nonzero;display:inline;overflow:visible;visibility:visible;isolation:auto;mix-blend-mode:normal;color-interpolation:sRGB;color-interpolation-filters:linearRGB;solid-color:#000000;solid-opacity:1;vector-effect:none;fill:#ffffff;fill-opacity:1;fill-rule:nonzero;stroke:none;stroke-width:1.05076;stroke-linecap:butt;stroke-linejoin:miter;stroke-miterlimit:4;stroke-dasharray:none;stroke-dashoffset:0;stroke-opacity:1;color-rendering:auto;image-rendering:auto;shape-rendering:auto;text-rendering:auto;enable-background:accumulate"
     d="m 7.5189424,13.187169 -0.0011,0.5246 -0.01007,4.7469 4.2212726,0.01 -0.02803,13.1967 -4.2212796,-0.01 -0.0011,0.5245 -0.009,4.2192 5.2724606,0.011 0.0079,-3.6936 22.165823,0.047 -0.0079,3.6936 4.744811,0.01 0.01008,-4.7437 -3.693616,-0.01 0.02805,-13.1968 4.232615,0.01 -0.0012,-5.2704 -5.271434,-0.011 -0.0011,0.5246 -0.0079,3.6967 -22.165827,-0.047 0.009,-4.2212 z m 1.04897,1.0524 3.1700816,0.01 -0.0067,3.171 -3.1700896,-0.01 z m 27.4382916,0.058 3.171111,0.01 0.0014,3.1702 -3.179362,-0.01 z m -23.225986,4.172 22.165821,0.047 -0.02804,13.1967 -22.165821,-0.047 z m 7.617657,3.1305 -0.01146,5.3941 c -3.3e-4,0.1562 -0.0019,0.289 -0.005,0.3989 -0.0032,0.107 -0.0092,0.1848 -0.01798,0.2339 -0.0059,0.047 -0.01316,0.089 -0.02193,0.1298 -0.0059,0.038 -0.0094,0.072 -0.0095,0.1041 -3e-5,0.058 0.01892,0.1057 0.05639,0.1432 0.03748,0.038 0.08527,0.057 0.143136,0.057 0.04754,0 0.08812,-0.017 0.1248,-0.048 h 0.523516 l 0.0066,-3.101 2.74501,2.1639 0.60501,0.9443 h 0.593612 l 0.304552,0.2397 4.95e-4,-0.239 h 0.03394 l 0.01347,-6.3391 h -0.746149 l -0.0072,3.368 -2.420878,-1.9283 -0.928568,-1.4469 H 20.49032 Z m -4.8841,0.063 -4.45e-4,0.2051 h -0.427685 l -0.01304,6.135 3.673008,0.01 c 0.0055,4e-4 0.0087,6e-4 0.01406,0 l 0.283465,10e-5 1.84e-4,-0.049 c 0.0091,-0.01 0.02343,-0.01 0.03079,-0.011 0.06366,-0.041 0.09602,-0.086 0.09614,-0.1378 1.88e-4,-0.052 -0.01895,-0.094 -0.05644,-0.1259 -0.01804,-0.015 -0.04138,-0.028 -0.07004,-0.036 l 7.39e-4,-0.3411 -1.759208,-0.01 0.0048,-2.2642 1.599462,0.01 0.0015,-0.6926 -1.599473,-0.01 0.0011,-0.5247 h 0.884252 c 0.0493,0 0.09237,10e-5 0.129575,0.01 0.04,0.01 0.07647,0.01 0.108387,0.01 0.04647,0 0.08334,-4e-4 0.10952,0 h 0.07736 c 0.07524,0 0.135016,-0.014 0.178383,-0.043 0.0434,-0.031 0.06509,-0.078 0.06521,-0.139 1.8e-4,-0.055 -0.02261,-0.097 -0.06876,-0.1261 -0.04332,-0.032 -0.09706,-0.048 -0.160665,-0.048 -0.04028,0 -0.07652,0 -0.108234,0.01 -0.02882,0.01 -0.06483,0.01 -0.108231,0.01 -0.03478,0.01 -0.0788,0.01 -0.130901,0.01 H 18.08213 17.293753 l 0.0024,-1.1388 1.759211,0.01 3.16e-4,-0.1341 c 0.02854,-0.01 0.0523,-0.024 0.07017,-0.045 0.03766,-0.043 0.05687,-0.09 0.05697,-0.1391 2.9e-5,-0.058 -0.0273,-0.1036 -0.08216,-0.1383 -0.01205,-0.01 -0.02972,-0.013 -0.04439,-0.017 l 4.9e-4,-0.2268 z m 11.688893,0.025 -4.46e-4,0.2051 -0.197868,-4e-4 -0.01303,6.1341 1.465493,0.01 h 0.499826 c 0.277659,3e-4 0.537423,-0.02 0.782353,-0.057 0.07564,-0.01 0.166528,-0.014 0.235026,-0.023 0.190832,-0.028 0.363266,-0.066 0.516562,-0.1153 0.153293,-0.049 0.303188,-0.1082 0.450746,-0.1774 0.271979,-0.1322 0.515354,-0.29 0.729635,-0.4745 0.217184,-0.1875 0.401916,-0.3989 0.552713,-0.6327 0.150791,-0.2338 0.265143,-0.4887 0.34378,-0.766 0.08153,-0.2773 0.12284,-0.5753 0.12351,-0.8932 6.33e-4,-0.2948 -0.03576,-0.5776 -0.107439,-0.8495 -0.07168,-0.2719 -0.176544,-0.5235 -0.31479,-0.7551 -0.138251,-0.2315 -0.309154,-0.4377 -0.513985,-0.6174 -0.156927,-0.1419 -0.338354,-0.2566 -0.532057,-0.3566 -0.12609,-0.097 -0.259194,-0.1875 -0.406522,-0.2627 -0.467152,-0.2376 -1.020209,-0.3567 -1.65953,-0.3579 z m 2.012281,0.6999 c 0.675429,0.031 1.210055,0.2206 1.589996,0.5856 0.419443,0.3916 0.628573,1.0109 0.626777,1.8574 -0.0033,1.5582 -0.752364,2.3837 -2.227261,2.4945 z m 3.009728,1.7522 c 0.06521,0.2446 0.09788,0.4972 0.09732,0.7587 -6.33e-4,0.2919 -0.03716,0.5637 -0.109932,0.815 -0.0163,0.056 -0.03905,0.107 -0.05807,0.1607 0.07898,-0.3211 0.120046,-0.6768 0.120797,-1.0685 4.99e-4,-0.2372 -0.01965,-0.4558 -0.05013,-0.6659 z m -23.6959956,8.5675 3.1700816,0.01 -0.0056,2.6435 -3.1700906,-0.01 z m 27.4382916,0.058 2.642419,0.01 -0.0056,2.6435 -2.642421,-0.01 z"
     id="rect4900-4"
     inkscape:connector-curvature="0" />
</svg>
