<?xml version="1.0" encoding="UTF-8" standalone="no"?>
<svg
   xmlns:dc="http://purl.org/dc/elements/1.1/"
   xmlns:cc="http://creativecommons.org/ns#"
   xmlns:rdf="http://www.w3.org/1999/02/22-rdf-syntax-ns#"
   xmlns:svg="http://www.w3.org/2000/svg"
   xmlns="http://www.w3.org/2000/svg"
   xmlns:sodipodi="http://sodipodi.sourceforge.net/DTD/sodipodi-0.dtd"
   xmlns:inkscape="http://www.inkscape.org/namespaces/inkscape"
   height="48"
   width="48"
   version="1.1"
   id="svg6"
   sodipodi:docname="idevice.svg"
   inkscape:version="1.0.2 (e86c870879, 2021-01-15)">
  <metadata
     id="metadata12">
    <rdf:RDF>
      <cc:Work
         rdf:about="">
        <dc:format>image/svg+xml</dc:format>
        <dc:type
           rdf:resource="http://purl.org/dc/dcmitype/StillImage" />
        <dc:title></dc:title>
      </cc:Work>
    </rdf:RDF>
  </metadata>
  <defs
     id="defs10" />
  <sodipodi:namedview
     pagecolor="#ffffff"
     bordercolor="#666666"
     borderopacity="1"
     objecttolerance="10"
     gridtolerance="10"
     guidetolerance="10"
     inkscape:pageopacity="0"
     inkscape:pageshadow="2"
     inkscape:window-width="1920"
     inkscape:window-height="1031"
     id="namedview8"
     showgrid="false"
     inkscape:zoom="9.4583333"
     inkscape:cx="24"
     inkscape:cy="21.885463"
     inkscape:window-x="0"
     inkscape:window-y="24"
     inkscape:window-maximized="1"
     inkscape:current-layer="svg6"
     showguides="false">
    <sodipodi:guide
       position="-3.6475771,14.748899"
       orientation="1,0"
       id="guide864" />
  </sodipodi:namedview>
  <circle
     cx="23.940615"
     cy="31.534513"
     fill="#53676c"
     opacity=".99"
     r="13.232998"
     transform="matrix(1.75830584759 0 0 1.75830608345 -18.15909274367 -30.97874795549)"
     id="circle2"
     style="fill:#6e83bf;fill-opacity:1" />
  <path
     id="rect893"
     style="fill:#ffffff;fill-opacity:1;fill-rule:nonzero;stroke:none;stroke-width:2.84463;stroke-linecap:round;stroke-linejoin:miter;stroke-miterlimit:4;stroke-dasharray:none;stroke-dashoffset:0;stroke-opacity:1"
     d="m 16.01151,6.7912492 c -1.35079,0 -2.438252,1.087461 -2.438252,2.438253 V 39.707657 c 0,1.350791 1.087462,2.438252 2.438252,2.438252 h 15.848641 c 1.350791,0 2.438252,-1.087461 2.438252,-2.438252 V 9.2295022 c 0,-1.350792 -1.087461,-2.438253 -2.438252,-2.438253 z m -1.219126,2.438253 H 33.079277 V 36.050278 H 14.792384 Z m 9.10535,2.9827318 -1.382629,3.047816 h 1.090546 v 11.588048 c -0.370377,-0.57279 -0.895968,-1.050138 -1.39374,-1.474698 -0.41594,-0.354759 -0.819366,-0.67652 -1.104834,-0.973079 -0.285467,-0.296558 -0.43505,-0.557427 -0.436536,-0.77624 -0.0039,-0.582901 0.01037,-0.952173 0.01905,-1.474698 0.802263,-0.06819 1.433426,-0.738922 1.433426,-1.558831 0,-0.865201 -0.69998,-1.56518 -1.565181,-1.56518 -0.8652,0 -1.569942,0.69998 -1.569942,1.56518 0,0.749009 0.526125,1.375564 1.228651,1.530258 -0.0086,0.532596 -0.02475,0.903039 -0.02064,1.506446 0.0029,0.416264 0.250207,0.769566 0.569879,1.101658 0.319671,0.33209 0.729902,0.658197 1.138168,1.006414 0.804269,0.685973 1.577845,1.450299 1.701697,2.414441 v 1.514384 c -0.821935,0.126601 -1.452475,0.83321 -1.452475,1.690585 0,0.946849 0.769132,1.712809 1.715984,1.712809 0.946851,0 1.711221,-0.76596 1.711221,-1.712809 0,-0.874716 -0.653767,-1.592046 -1.500096,-1.696935 v -1.51597 h 0.0048 c -9.76e-4,-0.0088 -0.0038,-0.01668 -0.0048,-0.0254 v -2.27475 h 0.0079 c 0,-0.989833 0.520509,-1.575903 1.239763,-2.155694 0.719258,-0.579792 1.629452,-1.112184 2.254114,-1.960444 l 0.0032,-0.0048 0.0048,-0.0032 c 0.07116,-0.107211 0.07463,-0.186822 0.09048,-0.292082 0.01585,-0.10526 0.02598,-0.227815 0.03334,-0.366691 0.01477,-0.277748 0.01449,-0.614067 0.01111,-0.94768 -0.0034,-0.333613 -0.0109,-0.66225 -0.01905,-0.917519 -0.0039,-0.117673 -0.0039,-0.134106 -0.0063,-0.215887 h 1.18579 v -2.593818 h -2.590643 v 2.593818 h 0.928631 c 0.0024,0.07884 0.004,0.109221 0.0079,0.230173 0.0081,0.253415 0.01888,0.579776 0.02222,0.907996 0.0034,0.328219 -0.0022,0.658009 -0.01587,0.917519 -0.0068,0.129754 -0.0165,0.24209 -0.02857,0.322243 -0.0087,0.05796 -0.02598,0.10217 -0.0254,0.106356 -0.549076,0.734807 -1.399935,1.248703 -2.150932,1.854088 -0.358056,0.28863 -0.696826,0.608918 -0.952442,0.988953 V 15.26005 h 1.134993 z m -1.790593,25.05717 h 3.657379 c 0.675396,0 1.219126,0.543731 1.219126,1.219126 v 1.219127 c 0,0.675396 -0.54373,1.219126 -1.219126,1.219126 h -3.657379 c -0.675395,0 -1.219126,-0.54373 -1.219126,-1.219126 V 38.48853 c 0,-0.675395 0.543731,-1.219126 1.219126,-1.219126 z" />
</svg>
