<?xml version="1.0" encoding="UTF-8" standalone="no"?>
<svg
   xmlns:dc="http://purl.org/dc/elements/1.1/"
   xmlns:cc="http://creativecommons.org/ns#"
   xmlns:rdf="http://www.w3.org/1999/02/22-rdf-syntax-ns#"
   xmlns:svg="http://www.w3.org/2000/svg"
   xmlns="http://www.w3.org/2000/svg"
   xmlns:sodipodi="http://sodipodi.sourceforge.net/DTD/sodipodi-0.dtd"
   xmlns:inkscape="http://www.inkscape.org/namespaces/inkscape"
   height="48"
   width="48"
   version="1.1"
   id="svg18"
   sodipodi:docname="im.dino.Dino.svg"
   inkscape:version="1.0.2 (e86c870879, 2021-01-15)">
  <metadata
     id="metadata24">
    <rdf:RDF>
      <cc:Work
         rdf:about="">
        <dc:format>image/svg+xml</dc:format>
        <dc:type
           rdf:resource="http://purl.org/dc/dcmitype/StillImage" />
        <dc:title></dc:title>
      </cc:Work>
    </rdf:RDF>
  </metadata>
  <defs
     id="defs22" />
  <sodipodi:namedview
     pagecolor="#ffffff"
     bordercolor="#666666"
     borderopacity="1"
     objecttolerance="10"
     gridtolerance="10"
     guidetolerance="10"
     inkscape:pageopacity="0"
     inkscape:pageshadow="2"
     inkscape:window-width="1920"
     inkscape:window-height="1031"
     id="namedview20"
     showgrid="true"
     inkscape:zoom="9.8333334"
     inkscape:cx="11.606746"
     inkscape:cy="32.029488"
     inkscape:window-x="0"
     inkscape:window-y="24"
     inkscape:window-maximized="1"
     inkscape:current-layer="svg18"
     inkscape:document-rotation="0">
    <inkscape:grid
       type="xygrid"
       id="grid834" />
  </sodipodi:namedview>
  <circle
     cx="23.940615"
     cy="31.534513"
     fill="#6c6753"
     opacity=".99"
     r="13.232998"
     transform="matrix(1.72140702696 0 0 1.72140725788 -17.2289093957 -30.06939350282)"
     id="circle2"
     style="fill:#b7c4c8" />
  <circle
     style="opacity:1;fill:#ffffff;fill-opacity:1;stroke:none;stroke-width:18.33686447;stroke-linecap:round;stroke-linejoin:bevel;stroke-miterlimit:4;stroke-dasharray:none;stroke-dashoffset:0;stroke-opacity:1"
     id="path4490"
     cx="23.982634"
     cy="24.214346"
     r="19.559322" />
  <g
     id="g61"
     transform="matrix(0.06000874,0,0,0.06000874,4.0963534,5.2622709)">
    <g
       id="g59">
      <g
         id="g17">
        <path
           d="M 277.81,547.7 C 154.57,530.71 67.6,423.12 83.55,307.39 99.5,191.65 212.32,111.6 335.57,128.59 c 123.25,16.98 210.23,124.56 194.28,240.3 -3.88,28.11 -13.47,54.12 -27.53,77.14 4.86,8.58 116.17,111.38 102.56,126.19 -9.08,9.87 -61.41,-12.44 -156.99,-66.95 -71.14,34.11 -127.84,48.25 -170.08,42.43 z"
           id="use15"
           style="fill:#7ac9b5;fill-opacity:1" />
      </g>
      <g
         id="g21">
        <path
           d="m 178.71,121.71 37.73,24.01 -34.3,20.58 -34.3,20.58 -3.43,-44.59 c -1.24,-16.12 -2.02,-26.2 -2.33,-30.23 -0.45,-5.91 6.05,-9.81 11.05,-6.63 3.41,2.17 11.94,7.6 25.58,16.28 z"
           id="use19"
           style="fill:#5a7871;fill-opacity:1" />
      </g>
      <g
         id="g25">
        <path
           d="m 296.82,79.31 35.14,46.32 -56.27,7.85 -56.27,7.85 21.12,-54.17 c 7.73,-19.81 12.56,-32.19 14.49,-37.14 2.91,-7.45 12.85,-8.84 17.68,-2.47 3.22,4.24 11.25,14.82 24.11,31.76 z"
           id="use23"
           style="fill:#5a7871;fill-opacity:1" />
      </g>
      <g
         id="g29">
        <path
           d="m 423.9,108.66 10.45,57.19 -53.76,-18.39 -53.75,-18.4 43.3,-38.8 c 15.84,-14.19 25.73,-23.05 29.69,-26.6 5.96,-5.34 15.46,-2.08 16.9,5.78 0.95,5.23 3.34,18.3 7.17,39.22 z"
           id="use27"
           style="fill:#5a7871;fill-opacity:1" />
      </g>
      <g
         id="g33">
        <path
           d="m 516.5,183.73 -16.11,49.39 -34.58,-38.02 -34.59,-38.02 50.69,-11.37 c 18.57,-4.17 30.18,-6.77 34.82,-7.81 7,-1.57 13.05,5.08 10.83,11.9 -1.48,4.52 -5.16,15.83 -11.06,33.93 z"
           id="use31"
           style="fill:#5a7871;fill-opacity:1" />
      </g>
      <g
         id="g37">
        <path
           d="m 559.46,273.17 -28.93,35.19 -16.1,-42.11 -16.1,-42.11 45.03,6.92 c 16.5,2.53 26.81,4.12 30.94,4.75 6.22,0.96 9.03,8.32 5.03,13.18 -2.65,3.22 -9.27,11.28 -19.87,24.18 z"
           id="use35"
           style="fill:#5a7871;fill-opacity:1" />
      </g>
      <g
         id="g41">
        <path
           d="m 558.48,387.86 -36.02,20.93 4.6,-48.27 4.59,-48.27 31.42,27.34 c 11.85,10.31 19.25,16.76 22.22,19.34 4.51,3.92 3.83,11.13 -1.35,14.13 -3.39,1.98 -11.88,6.91 -25.46,14.8 z"
           id="use39"
           style="fill:#5a7871;fill-opacity:1" />
      </g>
      <g
         id="g45">
        <path
           d="m 563,463.44 -13.22,35.89 -23.83,-26.38 -23.83,-26.38 37.05,-9.51 c 13.46,-3.46 21.87,-5.62 25.23,-6.48 5,-1.28 9.39,3.57 7.6,8.41 -1.2,3.26 -4.2,11.41 -9,24.45 z"
           id="use43"
           style="fill:#5a7871;fill-opacity:1" />
      </g>
      <g
         id="g49">
        <path
           d="m 602.61,533.87 -7.96,26.7 -19.9,-26.82 -19.9,-26.82 27.85,0.12 c 10.58,0.05 17.19,0.08 19.83,0.09 4.01,0.02 6.88,3.89 5.74,7.73 -0.76,2.54 -2.64,8.87 -5.66,19 z"
           id="use47"
           style="fill:#5a7871;fill-opacity:1" />
      </g>
      <g
         id="g53">
        <path
           d="m 426.77,533.52 c -15.36,8.71 -61.12,-61.4 -94.64,-55.19 -33.52,6.2 -68.38,87.43 -93.12,84.02 C 176.16,553.69 168.16,456.68 149.6,432.6 140.5,420.8 97.07,416.03 89.73,389.21 82.08,361.28 82.76,325.96 86.75,297.04 102.7,181.31 220.52,101.25 343.77,118.24 467.02,135.23 554,242.81 538.05,358.54 c -3.88,28.12 -13.47,54.12 -27.52,77.15 4.86,8.57 87.95,110.21 95.5,132.8 7.55,22.6 -141.5,-88.68 -153.31,-87.42 -11.82,1.25 -9.09,42.9 -25.95,52.45 z"
           id="use51"
           style="fill:#57a491;fill-opacity:1" />
      </g>
      <g
         id="g57">
        <path
           d="m 216.44,275.5 c 0,15.73 -12.32,28.5 -27.5,28.5 -15.18,0 -27.5,-12.77 -27.5,-28.5 0,-15.73 12.32,-28.5 27.5,-28.5 15.18,0 27.5,12.77 27.5,28.5 z"
           id="use55"
           style="fill:#bae3d8;fill-opacity:1" />
      </g>
    </g>
  </g>
</svg>
