<?xml version="1.0" encoding="UTF-8" standalone="no"?>
<svg
   xmlns:dc="http://purl.org/dc/elements/1.1/"
   xmlns:cc="http://creativecommons.org/ns#"
   xmlns:rdf="http://www.w3.org/1999/02/22-rdf-syntax-ns#"
   xmlns:svg="http://www.w3.org/2000/svg"
   xmlns="http://www.w3.org/2000/svg"
   xmlns:sodipodi="http://sodipodi.sourceforge.net/DTD/sodipodi-0.dtd"
   xmlns:inkscape="http://www.inkscape.org/namespaces/inkscape"
   height="48"
   width="48"
   version="1.1"
   id="svg8"
   sodipodi:docname="ipython.svg"
   inkscape:version="1.0.2 (e86c870879, 2021-01-15)">
  <metadata
     id="metadata14">
    <rdf:RDF>
      <cc:Work
         rdf:about="">
        <dc:format>image/svg+xml</dc:format>
        <dc:type
           rdf:resource="http://purl.org/dc/dcmitype/StillImage" />
        <dc:title></dc:title>
      </cc:Work>
    </rdf:RDF>
  </metadata>
  <defs
     id="defs12" />
  <sodipodi:namedview
     pagecolor="#ffffff"
     bordercolor="#666666"
     borderopacity="1"
     objecttolerance="10"
     gridtolerance="10"
     guidetolerance="10"
     inkscape:pageopacity="0"
     inkscape:pageshadow="2"
     inkscape:window-width="1920"
     inkscape:window-height="1031"
     id="namedview10"
     showgrid="false"
     inkscape:zoom="6.6880515"
     inkscape:cx="16.416699"
     inkscape:cy="29.829664"
     inkscape:window-x="0"
     inkscape:window-y="24"
     inkscape:window-maximized="1"
     inkscape:current-layer="svg8"
     inkscape:document-rotation="0" />
  <path
     d="m44.322082 27.405077a19.729762 19.729765 0 0 1 -19.729762 19.729765 19.729762 19.729765 0 0 1 -19.7297621-19.729765 19.729762 19.729765 0 0 1 19.7297621-19.7297632 19.729762 19.729765 0 0 1 19.729762 19.7297632z"
     fill="#89a02c"
     opacity=".99"
     id="path2"
     style="fill:#88d0af;fill-opacity:1"
     transform="matrix(1.1503549 0 0 1.1503549 -4.486125 -7.525565)" />
  <path
     id="path1136"
     style="fill:#66b390;fill-opacity:1;stroke-width:1.15035"
     d="M 1.1816406 25.832031 A 22.696228 22.696232 0 0 0 23.804688 46.695312 A 22.696228 22.696232 0 0 0 46.423828 25.845703 C 46.379938 25.841746 46.337923 25.832031 46.292969 25.832031 L 1.1816406 25.832031 z " />
  <path
     d="m 18.494438,8.8773762 c 0.325602,0 0.589754,0.2641525 0.589754,0.5897544 0,0.1173125 0,-0.1181105 0,0 0,0.3256018 -0.264152,0.5889564 -0.589754,0.5889564 -1.731755,0 -6.338862,0 -8.070617,0 -0.325603,0 -0.5897545,-0.2633546 -0.5897545,-0.5889564 0,-0.1181105 0,0.1173125 0,0 0,-0.3256019 0.2641515,-0.5897544 0.5897545,-0.5897544 1.731755,0 6.338862,0 8.070617,0 z"
     id="use48"
     style="fill:#ffffff;fill-opacity:1;stroke-width:0.0798043" />
  <path
     d="m 32.696425,12.559549 c 0.325602,0 0.588956,0.263355 0.588956,0.588958 0,0.118109 0,-0.117314 0,0 0,0.325601 -0.263354,0.589754 -0.588956,0.589754 -2.911263,0 -11.054503,0 -13.965766,0 -0.325602,0 -0.589755,-0.264153 -0.589755,-0.589754 0,-0.117314 0,0.118109 0,0 0,-0.325603 0.264153,-0.588958 0.589755,-0.588958 2.911263,0 11.054503,0 13.965766,0 z"
     id="use52"
     style="fill:#ffffff;fill-opacity:1;stroke-width:0.0798043" />
  <path
     d="m 14.527362,12.559549 c 0.162801,0 0.294478,0.131678 0.294478,0.294479 0,0.177165 0,0.412588 0,0.589755 0,0.1628 -0.131677,0.294478 -0.294478,0.294478 -1.30161,0 -4.9111625,0 -6.2119734,0 -0.1628009,0 -0.2952762,-0.131678 -0.2952762,-0.294478 0,-0.177167 0,-0.41259 0,-0.589755 0,-0.162801 0.1324753,-0.294479 0.2952762,-0.294479 1.3008109,0 4.9103634,0 6.2119734,0 z"
     id="use56"
     style="fill:#ffffff;fill-opacity:1;stroke-width:0.0798043" />
  <path
     d="m 24.067178,8.8773762 c 0.162801,0 0.295275,0.1316773 0.295275,0.2944781 0,0.1771658 0,0.4125888 0,0.5897544 0,0.1628009 -0.132474,0.2944783 -0.295275,0.2944783 -0.256172,0 -0.731806,0 -0.987978,0 -0.162802,0 -0.295278,-0.1316774 -0.295278,-0.2944783 0,-0.1771656 0,-0.4125886 0,-0.5897544 0,-0.1628008 0.132476,-0.2944781 0.295278,-0.2944781 0.256172,0 0.731806,0 0.987978,0 z"
     id="use60"
     style="fill:#ffffff;fill-opacity:1;stroke-width:0.0798043" />
  <path
     d="m 36.818321,12.559549 c 0.162801,0 0.294478,0.131678 0.294478,0.294479 0,0.177165 0,0.412588 0,0.589755 0,0.1628 -0.131677,0.294478 -0.294478,0.294478 -0.256969,0 -0.731806,0 -0.988775,0 -0.162802,0 -0.294479,-0.131678 -0.294479,-0.294478 0,-0.177167 0,-0.41259 0,-0.589755 0,-0.162801 0.131677,-0.294479 0.294479,-0.294479 0.256969,0 0.731806,0 0.988775,0 z"
     id="use64"
     style="fill:#ffffff;fill-opacity:1;stroke-width:0.0798043" />
  <path
     d="m 38.396054,16.42288 c 0.162801,0 0.294478,0.131677 0.294478,0.294479 0,0.177165 0,0.412587 0,0.589754 0,0.1628 -0.131677,0.294477 -0.294478,0.294477 -0.25697,0 -0.731806,0 -0.988777,0 -0.1628,0 -0.294478,-0.131677 -0.294478,-0.294477 0,-0.177167 0,-0.412589 0,-0.589754 0,-0.162802 0.131678,-0.294479 0.294478,-0.294479 0.256971,0 0.731807,0 0.988777,0 z"
     id="use68"
     style="fill:#ffffff;fill-opacity:1;stroke-width:0.0798043" />
  <path
     d="m 34.691534,16.42288 c 0.325603,0 0.588957,0.263355 0.588957,0.588956 0,0.11811 0,-0.117312 0,0 0,0.325603 -0.263354,0.589754 -0.588957,0.589754 -1.732553,0 -6.338861,0 -8.071415,0 -0.325601,0 -0.588956,-0.264151 -0.588956,-0.589754 0,-0.117312 0,0.11811 0,0 0,-0.325601 0.263355,-0.588956 0.588956,-0.588956 1.732554,0 6.338862,0 8.071415,0 z"
     id="use72"
     style="fill:#ffffff;fill-opacity:1;stroke-width:0.0798043" />
  <path
     d="m 22.489445,16.42288 c 0.162801,0 0.294477,0.131677 0.294477,0.294479 0,0.177165 0,0.412587 0,0.589754 0,0.1628 -0.131676,0.294477 -0.294477,0.294477 -1.217816,0 -4.576781,0 -5.794596,0 -0.162801,0 -0.295276,-0.131677 -0.295276,-0.294477 0,-0.177167 0,-0.412589 0,-0.589754 0,-0.162802 0.132475,-0.294479 0.295276,-0.294479 1.217815,0 4.57678,0 5.794596,0 z"
     id="use76"
     style="fill:#ffffff;fill-opacity:1;stroke-width:0.0798043" />
  <path
     d="m 13.149141,16.42288 c 0.162003,0 0.294477,0.131677 0.294477,0.294479 0,0.177165 0,0.412587 0,0.589754 0,0.1628 -0.132474,0.294477 -0.294477,0.294477 -0.256971,0 -0.732605,0 -0.988777,0 -0.162802,0 -0.294478,-0.131677 -0.294478,-0.294477 0,-0.177167 0,-0.412589 0,-0.589754 0,-0.162802 0.131676,-0.294479 0.294478,-0.294479 0.256172,0 0.731806,0 0.988777,0 z"
     id="use80"
     style="fill:#ffffff;fill-opacity:1;stroke-width:0.0798043" />
  <path
     d="m 36.679462,8.8773762 c 0.239412,0 0.433337,0.1939246 0.433337,0.4333378 0,0.1492341 0,0.1628009 0,0.3120352 0,0.2394131 -0.193925,0.4333378 -0.433337,0.4333378 -1.273678,0 -4.661374,0 -5.935052,0 -0.239413,0 -0.433338,-0.1939247 -0.433338,-0.4333378 0,-0.1492343 0,-0.1628011 0,-0.3120352 0,-0.2394132 0.193925,-0.4333378 0.433338,-0.4333378 1.273678,0 4.661374,0 5.935052,0 z"
     id="use84"
     style="fill:#ffffff;fill-opacity:1;stroke-width:0.0798043" />
  <path
     d="m 37.024216,19.723589 c 0.239414,0 0.433338,0.193925 0.433338,0.433338 0,0.149233 0,0.162801 0,0.312034 0,0.239414 -0.193924,0.433338 -0.433338,0.433338 -1.273677,0 -4.661374,0 -5.935051,0 -0.239413,0 -0.433338,-0.193924 -0.433338,-0.433338 0,-0.149233 0,-0.162801 0,-0.312034 0,-0.239413 0.193925,-0.433338 0.433338,-0.433338 1.273677,0 4.661374,0 5.935051,0 z"
     id="use96"
     style="fill:#ffffff;fill-opacity:1;stroke-width:0.0798043" />
  <path
     d="m 21.052167,19.723589 c 0.325603,0 0.589755,0.264152 0.589755,0.589754 0,0.117312 0,-0.11811 0,0 0,0.325602 -0.264152,0.588956 -0.589755,0.588956 -2.911263,0 -11.0545025,0 -13.9657658,0 -0.325602,0 -0.5897544,-0.263354 -0.5897544,-0.588956 0,-0.11811 0,0.117312 0,0 0,-0.325602 0.2641524,-0.589754 0.5897544,-0.589754 2.9112633,0 11.0545028,0 13.9657658,0 z"
     id="use100"
     style="fill:#ffffff;fill-opacity:1;stroke-width:0.0798043" />
  <path
     d="m 26.525153,19.723589 c 0.162801,0 0.294477,0.131677 0.294477,0.294479 0,0.177165 0,0.412587 0,0.589753 0,0.162802 -0.131676,0.294478 -0.294477,0.294478 -0.256971,0 -0.731806,0 -0.988777,0 -0.162801,0 -0.294479,-0.131676 -0.294479,-0.294478 0,-0.177166 0,-0.412588 0,-0.589753 0,-0.162802 0.131678,-0.294479 0.294479,-0.294479 0.256971,0 0.731806,0 0.988777,0 z"
     id="use104"
     style="fill:#ffffff;fill-opacity:1;stroke-width:0.0798043" />
  <path
     id="path1156"
     style="fill:#66b390;fill-opacity:1;stroke-width:1.15035"
     d="M 23.804688 1.3046875 A 22.696228 22.696232 0 0 0 1.1074219 24 A 22.696228 22.696232 0 0 0 23.804688 46.695312 A 22.696228 22.696232 0 0 0 46.5 24 A 22.696228 22.696232 0 0 0 23.804688 1.3046875 z M 23.759766 3.2382812 A 20.762165 20.762169 0 0 1 23.804688 3.2382812 A 20.762165 20.762169 0 0 1 44.566406 24 A 20.762165 20.762169 0 0 1 23.804688 44.761719 A 20.762165 20.762169 0 0 1 3.0410156 24 A 20.762165 20.762169 0 0 1 23.759766 3.2382812 z " />
  <path
     d="m 22.659023,28.301722 v 11.902037 h 3.277167 v -1.540638 h -1.73653 v -8.82076 h 1.652877 v -1.540639 z m 10.027242,0 v 1.540639 h 1.652877 v 8.82076 h -1.73653 v 1.540638 h 3.277167 V 28.301722 Z m -21.02957,3.058258 v 8.843779 h 1.718926 V 31.35998 Z m 3.164479,0 v 8.843779 h 1.731112 v -3.170646 h 1.342491 c 0.878717,0 1.573101,-0.259072 2.083324,-0.777394 0.514269,-0.522367 0.771371,-1.208877 0.771371,-2.059249 0,-0.846319 -0.255131,-1.530561 -0.765354,-2.052931 -0.51022,-0.52237 -1.206575,-0.783559 -2.089341,-0.783559 z m 11.91738,0.291427 1.796111,6.142695 -0.140826,0.450306 c -0.05255,0.198938 -0.138817,0.358481 -0.258928,0.478592 -0.116359,0.123866 -0.290861,0.18581 -0.523579,0.18581 -0.03377,0 -0.06566,-0.0038 -0.09568,-0.01127 -0.02628,-0.0037 -0.07145,-0.01116 -0.135258,-0.02243 l -0.185659,1.193545 c 0.168909,0.04504 0.303974,0.07889 0.405319,0.101408 0.101344,0.0225 0.217679,0.0337 0.349052,0.0337 0.529245,0 0.921454,-0.148211 1.176693,-0.444738 0.258991,-0.292775 0.46552,-0.658696 0.619415,-1.097855 l 2.055039,-7.009758 h -1.711706 l -0.889479,3.654051 -0.01127,-0.06199 -0.731956,-3.592065 z M 16.552286,32.7449 h 1.342491 c 0.372543,0 0.65387,0.139605 0.844191,0.41901 0.19437,0.27536 0.291578,0.623611 0.291578,1.044746 0,0.417086 -0.09721,0.761252 -0.291578,1.032559 -0.19437,0.271311 -0.475697,0.406979 -0.844191,0.406979 h -1.342491 z"
     fill="#ffffff"
     id="path32" />
</svg>
