<?xml version="1.0" encoding="UTF-8" standalone="no"?>
<svg
   xmlns:dc="http://purl.org/dc/elements/1.1/"
   xmlns:cc="http://creativecommons.org/ns#"
   xmlns:rdf="http://www.w3.org/1999/02/22-rdf-syntax-ns#"
   xmlns:svg="http://www.w3.org/2000/svg"
   xmlns="http://www.w3.org/2000/svg"
   xmlns:sodipodi="http://sodipodi.sourceforge.net/DTD/sodipodi-0.dtd"
   xmlns:inkscape="http://www.inkscape.org/namespaces/inkscape"
   height="48"
   width="48"
   version="1.1"
   id="svg6"
   sodipodi:docname="itch.svg"
   inkscape:version="1.0.2 (e86c870879, 2021-01-15)">
  <metadata
     id="metadata12">
    <rdf:RDF>
      <cc:Work
         rdf:about="">
        <dc:format>image/svg+xml</dc:format>
        <dc:type
           rdf:resource="http://purl.org/dc/dcmitype/StillImage" />
        <dc:title></dc:title>
      </cc:Work>
    </rdf:RDF>
  </metadata>
  <defs
     id="defs10" />
  <sodipodi:namedview
     pagecolor="#ffffff"
     bordercolor="#666666"
     borderopacity="1"
     objecttolerance="10"
     gridtolerance="10"
     guidetolerance="10"
     inkscape:pageopacity="0"
     inkscape:pageshadow="2"
     inkscape:window-width="1920"
     inkscape:window-height="1031"
     id="namedview8"
     showgrid="false"
     inkscape:zoom="3.3440258"
     inkscape:cx="-102.05783"
     inkscape:cy="-13.433535"
     inkscape:window-x="0"
     inkscape:window-y="24"
     inkscape:window-maximized="1"
     inkscape:current-layer="svg6"
     inkscape:document-rotation="0" />
  <circle
     cx="23.940615"
     cy="31.534513"
     fill="#5e81ac"
     opacity=".99"
     r="13.232998"
     transform="matrix(1.75830584759 0 0 1.75830608345 -18.15909274367 -30.97874795549)"
     id="circle2"
     style="fill:#86c18a;fill-opacity:1" />
  <path
     d="M 12.196354,28.190418 V 38.704551 H 35.196021 V 28.190418"
     fill="none"
     stroke="#ffffff"
     stroke-linejoin="round"
     stroke-width="3.28567"
     id="path8"
     style="stroke:#ffffff;stroke-opacity:0.977359" />
  <path
     d="m 8.910687,22.276218 c 0,4.9285 9.857001,4.9285 9.857001,0 0,4.9285 9.856999,4.9285 9.856999,0 0,4.9285 9.857,4.9285 9.857,0 L 36.838854,10.776385 H 10.553521 Z"
     fill="#ffffff"
     id="path6"
     style="fill:#ffffffbff;fill-opacity:1;stroke-width:1.64283" />
  <circle
     cx="33.429817"
     cy="34.978462"
     fill="#ffffff"
     r="8.25"
     stroke="#ec725f"
     stroke-linecap="round"
     stroke-width="1.6"
     id="circle6"
     style="stroke:#86c18a;stroke-opacity:0.99215686;fill:#ffffff;fill-opacity:0.9921568" />
  <path
     d="m 28.701935,35.381263 c -0.499037,0.499037 -0.423447,1.236955 0,1.80155 l 2.702325,3.6031 c 0.423445,0.564597 1.302513,0.499037 1.80155,0 l 0.450387,-0.450387 c 0.736038,-0.736038 0.279239,-2.080178 0.327511,-3.802065 0.326444,-0.474878 0.719362,-0.87628 1.184803,-1.211277 1.818507,0.106005 2.862414,0.638604 3.89233,-0.391312 l 0.450388,-0.450389 c 0.499037,-0.499037 0.554878,-1.365445 0,-1.801549 l -3.53079,-2.774631 c -0.55488,-0.436101 -1.302513,-0.499037 -1.80155,0 l -0.52175,0.52175 -0.451332,0.451332 c -0.383726,0.383727 -0.341703,0.939896 -0.443299,1.355417 -0.177468,0.725843 -0.901999,1.43793 -1.795411,1.814306 -0.386826,0.162964 -0.989665,0.05864 -1.364394,0.433373 l -0.450861,0.450861 z m 5.161261,-3.139478 a 0.96352738,0.96352738 0 0 1 0.04775,-0.04678 0.96352738,0.96352738 0 0 1 1.360143,0.05671 l 0.0047,0.0047 a 0.96352738,0.96352738 0 0 1 -0.06333,1.360142 0.96352738,0.96352738 0 0 1 -1.360141,-0.06144 0.96352738,0.96352738 0 0 1 0.01087,-1.313354 z m -3.971255,4.329485 0.900775,-0.900775 0.675817,0.675817 0.675818,-0.675817 0.900774,0.900775 -0.675817,0.675817 0.675345,0.675345 -0.900775,0.900775 -0.675345,-0.675345 -0.675345,0.675345 -0.900775,-0.900775 0.675345,-0.675345 z m 6.43917,-4.482608 a 0.96352738,0.96352738 0 0 1 0.04775,-0.04678 0.96352738,0.96352738 0 0 1 1.360142,0.05671 l 0.0047,0.0047 a 0.96352738,0.96352738 0 0 1 -0.06427,1.360142 0.96352738,0.96352738 0 0 1 -1.359669,-0.06097 0.96352738,0.96352738 0 0 1 0.01134,-1.313826 z"
     fill="#ffffff"
     id="path4"
     style="fill:#86c18a;fill-opacity:0.992157;stroke-width:0.342199" />
</svg>
