<?xml version="1.0" encoding="UTF-8" standalone="no"?>
<svg
   xmlns:dc="http://purl.org/dc/elements/1.1/"
   xmlns:cc="http://creativecommons.org/ns#"
   xmlns:rdf="http://www.w3.org/1999/02/22-rdf-syntax-ns#"
   xmlns:svg="http://www.w3.org/2000/svg"
   xmlns="http://www.w3.org/2000/svg"
   xmlns:sodipodi="http://sodipodi.sourceforge.net/DTD/sodipodi-0.dtd"
   xmlns:inkscape="http://www.inkscape.org/namespaces/inkscape"
   height="48"
   width="48"
   version="1.1"
   id="svg6"
   sodipodi:docname="appimagekit-joplin.svg"
   inkscape:version="1.0.2 (e86c870879, 2021-01-15)">
  <metadata
     id="metadata12">
    <rdf:RDF>
      <cc:Work
         rdf:about="">
        <dc:format>image/svg+xml</dc:format>
        <dc:type
           rdf:resource="http://purl.org/dc/dcmitype/StillImage" />
        <dc:title></dc:title>
      </cc:Work>
    </rdf:RDF>
  </metadata>
  <defs
     id="defs10" />
  <sodipodi:namedview
     pagecolor="#ffffff"
     bordercolor="#666666"
     borderopacity="1"
     objecttolerance="10"
     gridtolerance="10"
     guidetolerance="10"
     inkscape:pageopacity="0"
     inkscape:pageshadow="2"
     inkscape:window-width="1920"
     inkscape:window-height="1031"
     id="namedview8"
     showgrid="false"
     inkscape:zoom="13.376103"
     inkscape:cx="6.8398946"
     inkscape:cy="26.255549"
     inkscape:window-x="0"
     inkscape:window-y="24"
     inkscape:window-maximized="1"
     inkscape:current-layer="svg6"
     inkscape:document-rotation="0" />
  <circle
     cx="23.940615"
     cy="31.534513"
     fill="#5e81ac"
     opacity=".99"
     r="13.232998"
     transform="matrix(1.75830584759 0 0 1.75830608345 -18.15909274367 -30.97874795549)"
     id="circle2"
     style="fill:#b8c4ca;fill-opacity:1" />
  <path
     id="circle833"
     style="fill:#728892;fill-opacity:0.9921568;stroke-width:1.75831"
     d="M 23.892578 1.2011719 A 23.267658 23.267661 0 0 0 5.8320312 9.8515625 L 42.037109 9.8515625 A 23.267658 23.267661 0 0 0 23.935547 1.2011719 A 23.267658 23.267661 0 0 0 23.892578 1.2011719 z " />
  <g
     aria-label="j"
     id="text843"
     style="font-style:normal;font-variant:normal;font-weight:normal;font-stretch:normal;font-size:40px;line-height:1.25;font-family:KacstDecorative;-inkscape-font-specification:KacstDecorative;fill:#000000;fill-opacity:1;stroke:none">
    <path
       d="m 23.304212,12.129997 h 3.59375 v 22.265625 c 0,2.786458 -0.533854,4.804687 -1.601562,6.054687 -1.054687,1.25 -2.760417,1.875 -5.117188,1.875 h -1.367187 v -3.046875 h 0.957031 c 1.367187,0 2.298177,-0.31901 2.792969,-0.957031 0.494791,-0.625 0.742187,-1.933594 0.742187,-3.925781 z"
       style="font-style:normal;font-variant:normal;font-weight:normal;font-stretch:normal;font-family:'Samyak Gujarati';-inkscape-font-specification:'Samyak Gujarati';fill:#ffffff"
       id="path845"
       sodipodi:nodetypes="ccscsccscsc" />
    <path
       d="m 24.779973,13.556833 h 3.59375 v 22.265625 c 0,2.786458 -0.533854,4.804687 -1.601562,6.054687 -1.054687,1.25 -2.760417,1.875 -5.117188,1.875 H 20.287786 V 40.70527 h 0.957031 c 1.367187,0 2.298177,-0.31901 2.792969,-0.957031 0.494791,-0.625 0.742187,-1.933594 0.742187,-3.925781 z"
       style="font-style:normal;font-variant:normal;font-weight:normal;font-stretch:normal;font-family:'Samyak Gujarati';-inkscape-font-specification:'Samyak Gujarati';fill:#ffffff;fill-opacity:0.27096698"
       id="path848"
       sodipodi:nodetypes="ccscsccscsc" />
  </g>
</svg>
