<?xml version="1.0" encoding="UTF-8" standalone="no"?>
<svg
   height="48"
   width="48"
   version="1.1"
   id="svg10"
   sodipodi:docname="xfburn.svg"
   inkscape:version="1.1.2 (0a00cf5339, 2022-02-04)"
   xmlns:inkscape="http://www.inkscape.org/namespaces/inkscape"
   xmlns:sodipodi="http://sodipodi.sourceforge.net/DTD/sodipodi-0.dtd"
   xmlns="http://www.w3.org/2000/svg"
   xmlns:svg="http://www.w3.org/2000/svg">
  <defs
     id="defs14" />
  <sodipodi:namedview
     id="namedview12"
     pagecolor="#ffffff"
     bordercolor="#666666"
     borderopacity="1.0"
     inkscape:pageshadow="2"
     inkscape:pageopacity="0.0"
     inkscape:pagecheckerboard="0"
     showgrid="false"
     inkscape:zoom="8.1875"
     inkscape:cx="8.3664122"
     inkscape:cy="35.114504"
     inkscape:window-width="1920"
     inkscape:window-height="1031"
     inkscape:window-x="0"
     inkscape:window-y="0"
     inkscape:window-maximized="1"
     inkscape:current-layer="svg10" />
  <path
     id="path2"
     style="stroke-width:1.15035;fill:#bf616a;fill-opacity:1"
     d="M 23.804688 1.3046875 A 22.696228 22.696232 0 0 0 1.1074219 24 A 22.696228 22.696232 0 0 0 23.804688 46.695312 A 22.696228 22.696232 0 0 0 46.5 24 A 22.696228 22.696232 0 0 0 23.804688 1.3046875 z " />
  <g
     fill="#ffffff"
     id="g8">
    <path
       d="m40.714285 26.000002c0 8.126476-7.611159 14.714286-17 14.714286s-17.0000001-6.58781-17.0000001-14.714286c5.8416531 8.860109 12.0536451 2.439842 13.0523991 8.719183-3.387435-8.048978-6.830268-10.652596-2.78106-13.588957-.0561 4.04594 3.031648 5.3727 3.738487 5.664992 5.164393 2.135572 7.787109 2.290825 8.741247-.489505.421755-1.22898-.013559-4.404003-.965358-6.805715 10.963471 6.076829-1.463346 19.722472-1.640215 16.423691-.133803-2.49557 4.274901-8.343041 7.582231-5.913409 2.239125 1.644907 4.987879-1.122324 6.272269-4.01028z"
       fill-opacity=".982518"
       id="path4" />
    <path
       d="m13.5 34.5s-5.3522577-5.609747-5.7121831-9.202031c-.2587297-2.582286.1676-7.139549 2.7121831-7.297969.140567 2.648174-.435981 6.771875 3 6s1.994216-7.849623 1.5-9c5.345834 4.750073 2.199943 9.781904 1.5 12 3.12326 4.931049 2.349623-1.060347 3-3 .378413-1.987747-.872732-5.413163-.32977-7.779433.38404-1.673675 2.379523-2.746093 3.32977-2.720567-1.04906 1.677024-1.8781 4.553555 1.547094 6.152339 1.86461 2.145203 2.786132 6.861204 3.69918 6.739432-1.207314-1.270509-1.128764-7.762263.633003-9.890632 1.574545-1.902189-1.249673-4.406319-1.379277-4.501139 2.138109.474157 6.330234 2.074789 7.5 4.5-3.049992 5.270249-2.027076 6.204118-2.100444 8.727126l-.09374 3.223763c-.000805.02767 2.032172-2.110571 3.042752-3.597823 1.396795-2.055645.022305-5.352724.651432-5.353066 7.385387 1.28865 4.43636 8.932041 0 12-6.223222 4.303662-22.5 3-22.5 3z"
       fill-opacity=".534966"
       fill-rule="evenodd"
       id="path6" />
  </g>
</svg>
