<?xml version="1.0" encoding="UTF-8" standalone="no"?>
<svg
   height="48"
   width="48"
   version="1.1"
   id="svg6"
   sodipodi:docname="yad.svg"
   inkscape:version="1.1.2 (0a00cf5339, 2022-02-04)"
   xmlns:inkscape="http://www.inkscape.org/namespaces/inkscape"
   xmlns:sodipodi="http://sodipodi.sourceforge.net/DTD/sodipodi-0.dtd"
   xmlns="http://www.w3.org/2000/svg"
   xmlns:svg="http://www.w3.org/2000/svg"
   xmlns:rdf="http://www.w3.org/1999/02/22-rdf-syntax-ns#"
   xmlns:cc="http://creativecommons.org/ns#"
   xmlns:dc="http://purl.org/dc/elements/1.1/">
  <metadata
     id="metadata12">
    <rdf:RDF>
      <cc:Work
         rdf:about="">
        <dc:format>image/svg+xml</dc:format>
        <dc:type
           rdf:resource="http://purl.org/dc/dcmitype/StillImage" />
        <dc:title />
      </cc:Work>
    </rdf:RDF>
  </metadata>
  <defs
     id="defs10" />
  <sodipodi:namedview
     pagecolor="#ffffff"
     bordercolor="#666666"
     borderopacity="1"
     objecttolerance="10"
     gridtolerance="10"
     guidetolerance="10"
     inkscape:pageopacity="0"
     inkscape:pageshadow="2"
     inkscape:window-width="1920"
     inkscape:window-height="1031"
     id="namedview8"
     showgrid="false"
     inkscape:zoom="9.458333"
     inkscape:cx="0.15859031"
     inkscape:cy="27.753305"
     inkscape:window-x="0"
     inkscape:window-y="0"
     inkscape:window-maximized="1"
     inkscape:current-layer="svg6"
     inkscape:document-rotation="0"
     inkscape:pagecheckerboard="0" />
  <path
     id="circle2"
     style="opacity:0.99;fill:#88c0d0;fill-opacity:1"
     transform="matrix(1.75830584759 0 0 1.75830608345 -18.15909274367 -30.97874795549)"
     d="M 37.173613,31.534513 A 13.232998,13.232998 0 0 1 23.940615,44.767511 13.232998,13.232998 0 0 1 10.707617,31.534513 13.232998,13.232998 0 0 1 23.940615,18.301516 13.232998,13.232998 0 0 1 37.173613,31.534513 Z" />
  <g
     fill="#ffffff"
     id="g14"
     transform="matrix(0.8996434,0,0,0.8996434,1.8368287,1.7673672)">
    <path
       d="M 7.453125,9.212183 C 6.6483292,9.212183 6,9.8605122 6,10.665308 v 15.09375 c 0,0.804796 0.6483292,1.453125 1.453125,1.453125 H 16 v -4.546875 c 0,-0.804796 0.648329,-1.453125 1.453125,-1.453125 H 30 V 10.665308 C 30,9.8605122 29.351671,9.212183 28.546875,9.212183 Z"
       fill-opacity="0.486275"
       id="path4" />
    <rect
       fill-opacity="0.486772"
       height="20"
       ry="1.4527"
       width="26"
       x="16"
       y="21.212183"
       id="rect6" />
    <path
       d="m 17.4527,21.212183 h 23.0946 c 0.804796,0 1.4527,0.647904 1.4527,1.4527 v 4.451743 l -26,0.07143 v -4.523172 c 0,-0.804797 0.647904,-1.452701 1.4527,-1.452701 z"
       id="path8" />
    <text
       font-family="sans-serif"
       font-size="5.70506px"
       font-weight="bold"
       letter-spacing="0"
       transform="scale(0.78179329,1.2791105)"
       word-spacing="0"
       x="16.528921"
       y="17.391644"
       id="text12"><tspan
         x="16.528921"
         y="17.391644"
         id="tspan10">GTK</tspan></text>
  </g>
  <path
     id="rect16"
     style="fill:none;stroke:#88c0d0;stroke-width:1.43943;stroke-linecap:round;stroke-opacity:1"
     d="m 17.538033,20.850767 h 20.776904 c 0.724029,0 1.306912,0.582883 1.306912,1.306912 v 15.379045 c 0,0.724029 -0.582883,1.306912 -1.306912,1.306912 H 17.538033 c -0.724029,0 -1.306912,-0.582883 -1.306912,-1.306912 V 22.157679 c 0,-0.724029 0.582883,-1.306912 1.306912,-1.306912 z" />
  <path
     d="m 8.5419834,10.055047 c -0.7240292,0 -1.3072943,0.583265 -1.3072943,1.307294 v 3.126663 l 21.5914419,0.06426 v -3.190923 c 0,-0.724031 -0.583265,-1.307296 -1.307295,-1.307296 z"
     fill="#ffffff"
     id="path18"
     style="stroke-width:0.899643" />
  <text
     style="font-weight:bold;font-size:5.13252px;font-family:sans-serif;letter-spacing:0;word-spacing:0;fill:#ffffff;stroke-width:0.899643"
     transform="scale(0.78179329,1.2791105)"
     x="30.370991"
     y="26.673733"
     id="text22"><tspan
       x="30.370991"
       y="26.673733"
       id="tspan20"
       style="stroke-width:0.899643">GTK</tspan></text>
</svg>
