<?xml version="1.0" encoding="UTF-8" standalone="no"?>
<svg
   xmlns:dc="http://purl.org/dc/elements/1.1/"
   xmlns:cc="http://creativecommons.org/ns#"
   xmlns:rdf="http://www.w3.org/1999/02/22-rdf-syntax-ns#"
   xmlns:svg="http://www.w3.org/2000/svg"
   xmlns="http://www.w3.org/2000/svg"
   xmlns:sodipodi="http://sodipodi.sourceforge.net/DTD/sodipodi-0.dtd"
   xmlns:inkscape="http://www.inkscape.org/namespaces/inkscape"
   height="48"
   width="48"
   version="1.1"
   id="svg8"
   sodipodi:docname="kicad.svg"
   inkscape:version="1.0.2 (e86c870879, 2021-01-15)">
  <metadata
     id="metadata14">
    <rdf:RDF>
      <cc:Work
         rdf:about="">
        <dc:format>image/svg+xml</dc:format>
        <dc:type
           rdf:resource="http://purl.org/dc/dcmitype/StillImage" />
        <dc:title></dc:title>
      </cc:Work>
    </rdf:RDF>
  </metadata>
  <defs
     id="defs12" />
  <sodipodi:namedview
     pagecolor="#ffffff"
     bordercolor="#666666"
     borderopacity="1"
     objecttolerance="10"
     gridtolerance="10"
     guidetolerance="10"
     inkscape:pageopacity="0"
     inkscape:pageshadow="2"
     inkscape:window-width="1920"
     inkscape:window-height="1031"
     id="namedview10"
     showgrid="false"
     inkscape:zoom="9.4583333"
     inkscape:cx="14.070137"
     inkscape:cy="27.288289"
     inkscape:window-x="0"
     inkscape:window-y="24"
     inkscape:window-maximized="1"
     inkscape:current-layer="svg8"
     inkscape:document-rotation="0" />
  <path
     d="m44.322082 27.405077a19.729762 19.729765 0 0 1 -19.729762 19.729765 19.729762 19.729765 0 0 1 -19.7297621-19.729765 19.729762 19.729765 0 0 1 19.7297621-19.7297632 19.729762 19.729765 0 0 1 19.729762 19.7297632z"
     fill="#89a02c"
     opacity=".99"
     transform="matrix(1.1503549 0 0 1.1503549 -4.486125 -7.525565)"
     id="path2"
     style="fill:#edbe9a;fill-opacity:1" />
  <g
     fill="none"
     id="g10"
     transform="translate(0.19918651,-0.567484)">
    <path
       d="m 25.229498,21.3672 v 11.759244 l -3.666859,3.666862 3.28753,3.287532 v 3.892787"
       stroke="#ffffff"
       stroke-opacity="0.989011"
       stroke-width="0.89409"
       id="path4" />
    <path
       d="m 21.249372,33.724446 v 5.632773"
       stroke="#ffffff"
       stroke-opacity="0.989011"
       stroke-width="0.89409"
       id="path6" />
    <path
       d="M 21.562639,36.793306 H 18.030646"
       stroke="#ffffff"
       stroke-opacity="0.989011"
       stroke-width="0.89409"
       id="path8" />
  </g>
  <path
     d="m 1.1075423,24 c 0,12.534782 10.1614467,22.696231 22.6962277,22.696231 V 1.3037694 C 11.26899,1.3037694 1.1075433,11.465217 1.1075423,24 Z"
     fill="#89a02c"
     opacity="0.99"
     id="path839"
     sodipodi:nodetypes="sccs"
     style="fill:#e4985f;fill-opacity:1;stroke-width:1.15035" />
  <path
     d="m 30.601333,13.121542 a 7.5,7.5 0 0 1 -7.836122,7.133709 7.5,7.5 0 0 1 -7.148003,-7.823085 7.5,7.5 0 0 1 7.810023,-7.1622737 7.5,7.5 0 0 1 7.17652,7.7969337"
     fill="#ffffff"
     id="path14" />
  <path
     d="m 24.354357,23.903124 h 2.145817 v 4.291635 h -2.145817 z"
     style="opacity:0.924;fill:#edbe9a;stroke:#ffffff;stroke-width:0.89409;stroke-linecap:round;stroke-opacity:0.989011;fill-opacity:0.99215686"
     id="path14-3" />
  <path
     d="m 25.428685,31.35775 h 7.14406"
     fill="none"
     stroke="#ffffff"
     stroke-opacity="0.989011"
     stroke-width="0.89409"
     id="path16" />
  <path
     d="m 32.699187,30.409423 v 2.023093 h 4.046192 l 2.157098,-1.027427 -2.359733,-1.027433 z"
     fill="none"
     stroke="#ffffff"
     stroke-opacity="0.989011"
     stroke-width="0.89409"
     id="path18" />
  <g
     fill="#e38855"
     stroke-width="0.153797"
     transform="matrix(0.78335276,0,0,1.2765641,0.95835631,-0.20208615)"
     id="g26"
     style="fill:#e4985f;fill-opacity:1">
    <path
       d="M 30.68403,14.298376 26.986347,9.5327297 30.328042,5.9269154 H 28.295465 L 25.022671,9.6016306 V 5.9269154 h -1.722522 v 8.3714606 h 1.722522 v -2.80197 l 0.861262,-0.895712 2.744553,3.697682 z"
       id="path22"
       style="fill:#e4985f;fill-opacity:1" />
    <path
       d="M 33.194966,14.298376 V 5.9269154 h -1.722523 v 8.3714606 z"
       id="path24"
       style="fill:#e4985f;fill-opacity:1" />
  </g>
</svg>
