<?xml version="1.0" encoding="UTF-8" standalone="no"?>
<svg
   xmlns:dc="http://purl.org/dc/elements/1.1/"
   xmlns:cc="http://creativecommons.org/ns#"
   xmlns:rdf="http://www.w3.org/1999/02/22-rdf-syntax-ns#"
   xmlns:svg="http://www.w3.org/2000/svg"
   xmlns="http://www.w3.org/2000/svg"
   xmlns:sodipodi="http://sodipodi.sourceforge.net/DTD/sodipodi-0.dtd"
   xmlns:inkscape="http://www.inkscape.org/namespaces/inkscape"
   height="48"
   width="48"
   version="1.1"
   id="svg8"
   sodipodi:docname="kile.svg"
   inkscape:version="1.0.2 (e86c870879, 2021-01-15)">
  <metadata
     id="metadata14">
    <rdf:RDF>
      <cc:Work
         rdf:about="">
        <dc:format>image/svg+xml</dc:format>
        <dc:type
           rdf:resource="http://purl.org/dc/dcmitype/StillImage" />
        <dc:title></dc:title>
      </cc:Work>
    </rdf:RDF>
  </metadata>
  <defs
     id="defs12" />
  <sodipodi:namedview
     pagecolor="#ffffff"
     bordercolor="#666666"
     borderopacity="1"
     objecttolerance="10"
     gridtolerance="10"
     guidetolerance="10"
     inkscape:pageopacity="0"
     inkscape:pageshadow="2"
     inkscape:window-width="1920"
     inkscape:window-height="1031"
     id="namedview10"
     showgrid="false"
     inkscape:zoom="9.4583333"
     inkscape:cx="14.070137"
     inkscape:cy="27.288289"
     inkscape:window-x="0"
     inkscape:window-y="24"
     inkscape:window-maximized="1"
     inkscape:current-layer="svg8"
     inkscape:document-rotation="0" />
  <path
     d="m44.322082 27.405077a19.729762 19.729765 0 0 1 -19.729762 19.729765 19.729762 19.729765 0 0 1 -19.7297621-19.729765 19.729762 19.729765 0 0 1 19.7297621-19.7297632 19.729762 19.729765 0 0 1 19.729762 19.7297632z"
     fill="#89a02c"
     opacity=".99"
     transform="matrix(1.1503549 0 0 1.1503549 -4.486125 -7.525565)"
     id="path2"
     style="fill:#f19e7a;fill-opacity:1" />
  <path
     id="path926"
     style="fill:#ffffff;fill-opacity:1;stroke-width:1.01092"
     d="M 23.644531 4.0546875 A 19.945146 19.945149 0 0 0 3.859375 24 A 19.945146 19.945149 0 0 0 11.804688 39.931641 L 11.804688 38.304688 L 15.804688 38.304688 L 15.804688 40.304688 L 12.318359 40.304688 A 19.945146 19.945149 0 0 0 23.804688 43.945312 A 19.945146 19.945149 0 0 0 43.748047 24 A 19.945146 19.945149 0 0 0 23.804688 4.0546875 A 19.945146 19.945149 0 0 0 23.644531 4.0546875 z M 19.285156 5.4375 L 22.816406 5.4375 L 22.816406 16.451172 L 23.400391 16.451172 L 25.675781 11.378906 L 29.740234 11.378906 L 26.234375 17.433594 L 30.324219 24.830078 L 26.283203 24.830078 L 23.462891 19.236328 L 22.816406 19.236328 L 22.816406 24.830078 L 19.285156 24.830078 L 19.285156 5.4375 z M 11.804688 28.304688 L 20.804688 28.304688 L 20.804688 30.304688 L 11.804688 30.304688 L 11.804688 28.304688 z M 23.804688 28.304688 L 32.804688 28.304688 L 32.804688 30.304688 L 23.804688 30.304688 L 23.804688 28.304688 z M 11.804688 33.304688 L 18.804688 33.304688 L 18.804688 35.304688 L 11.804688 35.304688 L 11.804688 33.304688 z M 21.804688 33.304688 L 28.804688 33.304688 L 28.804688 35.304688 L 21.804688 35.304688 L 21.804688 33.304688 z M 31.804688 33.304688 L 35.804688 33.304688 L 35.804688 35.304688 L 31.804688 35.304688 L 31.804688 33.304688 z M 18.804688 38.304688 L 25.804688 38.304688 L 25.804688 40.304688 L 18.804688 40.304688 L 18.804688 38.304688 z M 28.804688 38.304688 L 32.804688 38.304688 L 32.804688 40.304688 L 28.804688 40.304688 L 28.804688 38.304688 z " />
</svg>
