<?xml version="1.0" encoding="UTF-8" standalone="no"?>
<svg
   xmlns:dc="http://purl.org/dc/elements/1.1/"
   xmlns:cc="http://creativecommons.org/ns#"
   xmlns:rdf="http://www.w3.org/1999/02/22-rdf-syntax-ns#"
   xmlns:svg="http://www.w3.org/2000/svg"
   xmlns="http://www.w3.org/2000/svg"
   xmlns:sodipodi="http://sodipodi.sourceforge.net/DTD/sodipodi-0.dtd"
   xmlns:inkscape="http://www.inkscape.org/namespaces/inkscape"
   height="48"
   width="48"
   version="1.1"
   id="svg6"
   sodipodi:docname="krop.svg"
   inkscape:version="1.0.2 (e86c870879, 2021-01-15)">
  <metadata
     id="metadata12">
    <rdf:RDF>
      <cc:Work
         rdf:about="">
        <dc:format>image/svg+xml</dc:format>
        <dc:type
           rdf:resource="http://purl.org/dc/dcmitype/StillImage" />
        <dc:title></dc:title>
      </cc:Work>
    </rdf:RDF>
  </metadata>
  <defs
     id="defs10" />
  <sodipodi:namedview
     pagecolor="#ffffff"
     bordercolor="#666666"
     borderopacity="1"
     objecttolerance="10"
     gridtolerance="10"
     guidetolerance="10"
     inkscape:pageopacity="0"
     inkscape:pageshadow="2"
     inkscape:window-width="1920"
     inkscape:window-height="1031"
     id="namedview8"
     showgrid="false"
     inkscape:zoom="13.376103"
     inkscape:cx="17.150555"
     inkscape:cy="27.709084"
     inkscape:window-x="0"
     inkscape:window-y="24"
     inkscape:window-maximized="1"
     inkscape:current-layer="svg6"
     inkscape:document-rotation="0" />
  <circle
     cx="23.940615"
     cy="31.534513"
     fill="#5e81ac"
     opacity=".99"
     id="circle2"
     style="fill:#a1bcc9;fill-opacity:1"
     transform="matrix(1.75830584759 0 0 1.75830608345 -18.15909274367 -30.97874795549)"
     r="13.232998" />
  <path
     id="path4487-3"
     d="m 17.461595,6.6082245 c -4.948954,8.2482565 24.744769,26.3944205 24.744769,21.4454675 0,-8.248257 -31.343375,3.299302 -28.044072,11.547559 6.598605,3.299302 9.897908,-32.9930265 3.299303,-32.9930265 z"
     inkscape:connector-curvature="0"
     style="fill:none;stroke:#ffffff;stroke-width:1.64965;stroke-linejoin:round" />
  <circle
     style="fill:#ffffff;fill-opacity:1;stroke:#a1bcc9;stroke-width:2;stroke-linecap:round;stroke-linejoin:round;stroke-miterlimit:4;stroke-dasharray:none;stroke-dashoffset:0;stroke-opacity:0.99215686;paint-order:fill markers stroke"
     id="path4516"
     cx="33.239243"
     cy="35.263527"
     r="8" />
  <path
     style="fill:#a1bcc9;fill-opacity:0.99215686;stroke-width:0.791854"
     id="path47-6"
     d="m 29.602603,30.709739 c 0,2.7323 0.680008,3.7012 1.723448,4.364 l -1.770884,1.3756 c -0.355698,0.2272 -0.638153,0.5474 -0.77476,0.9487 l -0.09487,0.1423 0.07907,-0.016 c -0.04148,0.1523 -0.07907,0.2967 -0.07907,0.4586 0,1.0063 0.812453,1.8341 1.818319,1.8341 1.006365,0 1.834128,-0.8283 1.834128,-1.8341 0,-0.4048 -0.140525,-0.7568 -0.363664,-1.0594 0.435704,-0.3513 0.857404,-0.5965 1.264918,-0.8222 0.40942,0.2263 0.826964,0.4694 1.264914,0.8222 -0.223124,0.3005 -0.347851,0.6546 -0.347851,1.0594 0,1.0079 0.811951,1.8341 1.81832,1.8341 1.007891,0 1.818324,-0.8257 1.818324,-1.8341 0,-0.164 -0.03544,-0.3083 -0.06328,-0.4586 l 0.06328,0.016 -0.09487,-0.1423 c -0.136614,-0.3992 -0.418563,-0.7215 -0.774766,-0.9487 l -1.755075,-1.3756 c 1.043439,-0.6625 1.723457,-1.6317 1.723457,-4.364 l -3.652453,2.8619 z m 0.901254,6.372 c 0.499891,0 0.917063,0.4014 0.917063,0.9013 0,0.4999 -0.417172,0.9171 -0.917063,0.9171 -0.499897,0 -0.901254,-0.4172 -0.901254,-0.9171 0,-0.4999 0.401357,-0.9013 0.901254,-0.9013 z m 5.470766,0 c 0.501924,0 0.91707,0.4014 0.91707,0.9013 0,0.5019 -0.415146,0.9171 -0.91707,0.9171 -0.499893,0 -0.917066,-0.4152 -0.917066,-0.9171 0,-0.4999 0.417173,-0.9013 0.917066,-0.9013 z"
     inkscape:connector-curvature="0" />
</svg>
