<?xml version="1.0" encoding="UTF-8" standalone="no"?>
<svg
   xmlns:dc="http://purl.org/dc/elements/1.1/"
   xmlns:cc="http://creativecommons.org/ns#"
   xmlns:rdf="http://www.w3.org/1999/02/22-rdf-syntax-ns#"
   xmlns:svg="http://www.w3.org/2000/svg"
   xmlns="http://www.w3.org/2000/svg"
   xmlns:sodipodi="http://sodipodi.sourceforge.net/DTD/sodipodi-0.dtd"
   xmlns:inkscape="http://www.inkscape.org/namespaces/inkscape"
   height="48"
   width="48"
   version="1.1"
   id="svg6"
   sodipodi:docname="kvantum.svg"
   inkscape:version="1.0.2 (e86c870879, 2021-01-15)">
  <metadata
     id="metadata12">
    <rdf:RDF>
      <cc:Work
         rdf:about="">
        <dc:format>image/svg+xml</dc:format>
        <dc:type
           rdf:resource="http://purl.org/dc/dcmitype/StillImage" />
        <dc:title />
      </cc:Work>
    </rdf:RDF>
  </metadata>
  <defs
     id="defs10" />
  <sodipodi:namedview
     pagecolor="#ffffff"
     bordercolor="#666666"
     borderopacity="1"
     objecttolerance="10"
     gridtolerance="10"
     guidetolerance="10"
     inkscape:pageopacity="0"
     inkscape:pageshadow="2"
     inkscape:window-width="1920"
     inkscape:window-height="1028"
     id="namedview8"
     showgrid="false"
     inkscape:zoom="13.376103"
     inkscape:cx="8.9844789"
     inkscape:cy="28.314246"
     inkscape:window-x="0"
     inkscape:window-y="24"
     inkscape:window-maximized="1"
     inkscape:current-layer="svg6"
     inkscape:document-rotation="0" />
  <circle
     cx="23.940615"
     cy="31.534513"
     fill="#5e81ac"
     opacity=".99"
     r="13.232998"
     transform="matrix(1.75830584759 0 0 1.75830608345 -18.15909274367 -30.97874795549)"
     id="circle2"
     style="fill:#81a1c1;fill-opacity:1" />
  <path
     id="path1026"
     style="fill:#ebcb8b;stroke:none;stroke-width:1px;stroke-linecap:butt;stroke-linejoin:miter;stroke-opacity:1;fill-opacity:1"
     d="M 39.976562 7.6152344 L 2.3066406 33.042969 A 23.267658 23.267661 0 0 0 23.935547 47.736328 A 23.267658 23.267661 0 0 0 47.203125 24.46875 A 23.267658 23.267661 0 0 0 39.976562 7.6152344 z " />
  <path
     id="path1021"
     style="fill:#d08770;stroke:none;stroke-width:1px;stroke-linecap:butt;stroke-linejoin:miter;stroke-opacity:1;fill-opacity:1"
     d="M 26.619141 16.632812 L 13.869141 25.238281 L 11.708984 44.263672 A 23.267658 23.267661 0 0 0 23.935547 47.736328 A 23.267658 23.267661 0 0 0 36.580078 44 L 26.619141 16.632812 z " />
  <path
     d="m 22.43583,9.9685784 c -0.554,0 -0.95907,0.4475136 -1,0.9999996 l -0.171875,2.330079 a 11.5,11.5 0 0 0 -5.666016,3.269531 l -2.103515,-1.015625 c -0.479778,-0.277 -1.088236,-0.112591 -1.365235,0.367188 l -1.5,2.597656 c -0.277,0.479779 -0.09277,1.055499 0.365235,1.367188 l 1.923828,1.308593 a 11.5,11.5 0 0 0 -0.482422,3.275391 11.5,11.5 0 0 0 0.484375,3.273438 l -1.925781,1.310546 c -0.479779,0.277 -0.642236,0.88741 -0.365235,1.367188 l 1.5,2.597656 c 0.277,0.479779 0.866303,0.607985 1.365235,0.367188 l 2.097656,-1.011719 a 11.5,11.5 0 0 0 5.671875,3.267578 l 0.171875,2.328125 c 0,0.554 0.446,1 1,1 h 3 c 0.554,0 0.95907,-0.447514 1,-1 l 0.171875,-2.330078 a 11.5,11.5 0 0 0 5.666016,-3.269531 l 2.103515,1.015625 c 0.479778,0.277 1.088236,0.112591 1.365235,-0.367188 l 1.5,-2.597656 c 0.277001,-0.479779 0.09277,-1.055499 -0.365235,-1.367188 L 34.953408,27.74397 a 11.5,11.5 0 0 0 0.482422,-3.275391 11.5,11.5 0 0 0 -0.484375,-3.273438 l 1.925781,-1.310546 c 0.479778,-0.277 0.642236,-0.88741 0.365235,-1.367188 l -1.5,-2.597656 c -0.277,-0.479779 -0.866303,-0.607985 -1.365235,-0.367188 L 32.27958,16.564282 A 11.5,11.5 0 0 0 26.607705,13.296704 L 26.43583,10.968578 c 0,-0.554 -0.446,-0.9999996 -1,-0.9999996 z m -5.658203,9.6406256 h 1.902344 v 3.951172 h 0.613281 l 1.896484,-3.951172 h 2.328125 l -2.648437,4.439453 2.86914,5.279297 h -2.308593 l -1.921875,-4.039063 h -0.828125 v 4.039063 h -1.902344 z m 6.908203,0 h 1.996094 l 1.607422,7.236328 0.07422,0.373047 h 0.03906 l 0.07422,-0.353516 1.621093,-7.255859 h 1.996094 l -2.716797,9.71875 h -1.974609 z"
     fill="#ffffff"
     id="path15" />
</svg>
