<?xml version="1.0" encoding="UTF-8" standalone="no"?>
<svg
   height="48"
   width="48"
   version="1.1"
   id="svg8"
   sodipodi:docname="libreoffice-draw.svg"
   inkscape:version="1.1.2 (0a00cf5339, 2022-02-04)"
   xmlns:inkscape="http://www.inkscape.org/namespaces/inkscape"
   xmlns:sodipodi="http://sodipodi.sourceforge.net/DTD/sodipodi-0.dtd"
   xmlns="http://www.w3.org/2000/svg"
   xmlns:svg="http://www.w3.org/2000/svg"
   xmlns:rdf="http://www.w3.org/1999/02/22-rdf-syntax-ns#"
   xmlns:cc="http://creativecommons.org/ns#"
   xmlns:dc="http://purl.org/dc/elements/1.1/">
  <metadata
     id="metadata14">
    <rdf:RDF>
      <cc:Work
         rdf:about="">
        <dc:format>image/svg+xml</dc:format>
        <dc:type
           rdf:resource="http://purl.org/dc/dcmitype/StillImage" />
      </cc:Work>
    </rdf:RDF>
  </metadata>
  <defs
     id="defs12" />
  <sodipodi:namedview
     pagecolor="#ffffff"
     bordercolor="#666666"
     borderopacity="1"
     objecttolerance="10"
     gridtolerance="10"
     guidetolerance="10"
     inkscape:pageopacity="0"
     inkscape:pageshadow="2"
     inkscape:window-width="1920"
     inkscape:window-height="1031"
     id="namedview10"
     showgrid="false"
     inkscape:zoom="1.1822917"
     inkscape:cx="-121.37445"
     inkscape:cy="118.837"
     inkscape:window-x="0"
     inkscape:window-y="0"
     inkscape:window-maximized="1"
     inkscape:current-layer="svg8"
     inkscape:document-rotation="0"
     inkscape:pagecheckerboard="0" />
  <path
     id="path2"
     style="fill:#ebcb8b;fill-opacity:1;stroke-width:1.15035"
     d="M 23.804688 1.3046875 A 22.696228 22.696232 0 0 0 1.1074219 24 A 22.696228 22.696232 0 0 0 23.804688 46.695312 A 22.696228 22.696232 0 0 0 46.5 24 A 22.696228 22.696232 0 0 0 23.804688 1.3046875 z " />
  <path
     style="color:#000000;fill:#ffffff;fill-opacity:1;-inkscape-stroke:none"
     d="m 39.117446,18.26658 -1.304688,0.367187 c -3.806348,1.073804 -7.827835,2.064254 -10.521484,4.503906 -1.346825,1.219827 -2.326129,2.846751 -2.63086,4.896485 -0.283174,1.904736 0.05318,4.189087 0.966797,6.880859 l -3.427734,4.320313 1.566406,1.24414 3.396485,-4.28125 c 2.604825,0.501901 4.757853,0.463605 6.4375,-0.222656 1.83298,-0.748909 3.083057,-2.185592 3.859375,-3.900391 1.552635,-3.429597 1.513815,-8.030403 1.625,-12.453125 z m -2.097657,2.708984 c -0.106525,3.951347 -0.265035,7.806346 -1.382812,10.275391 -0.626917,1.38479 -1.472816,2.333665 -2.792969,2.873046 -1.212316,0.495322 -2.981954,0.57025 -5.335937,0.115235 -0.827939,-2.459272 -1.091339,-4.430657 -0.871094,-5.91211 0.238573,-1.604731 0.93124,-2.742587 1.996094,-3.707031 1.871033,-1.694605 5.056265,-2.689809 8.386718,-3.644531 z"
     id="path4710" />
  <path
     id="path839"
     style="fill:#ddb779;fill-opacity:1;stroke-width:1.15035"
     d="M 23.804688 1.3046875 C 11.269908 1.3046875 1.1074229 11.465217 1.1074219 24 C 1.1074219 36.534782 11.269906 46.695313 23.804688 46.695312 L 23.804688 1.3046875 z " />
  <path
     d="m 30.601333,13.121542 a 7.5,7.5 0 0 1 -7.836122,7.133709 7.5,7.5 0 0 1 -7.148003,-7.823085 7.5,7.5 0 0 1 7.810023,-7.1622737 7.5,7.5 0 0 1 7.17652,7.7969337"
     fill="#ffffff"
     id="path14" />
  <g
     aria-label="D"
     transform="matrix(0.97294673,0,0,1.0278055,-0.30709184,0.13524634)"
     id="text2090"
     style="font-weight:bold;font-size:12.9908px;font-family:'DejaVu Sans Mono';-inkscape-font-specification:'DejaVu Sans Mono Bold';stroke:#000000;stroke-width:0.5;fill:#ebcb8b;fill-opacity:1">
    <g
       id="path3561"
       style="fill:#ebcb8b;fill-opacity:1">
      <path
         id="path3566"
         style="color:#000000;-inkscape-font-specification:'DejaVu Sans Mono Bold';fill:#ebcb8b;stroke:none;-inkscape-stroke:none;fill-opacity:1"
         d="m 20.076172,7.5039062 v 0.2558594 9.9921874 h 2.193359 c 1.544626,0 2.707048,-0.3926 3.431641,-1.224609 0.723891,-0.835954 1.05664,-2.149919 1.05664,-3.910156 0,-1.755981 -0.333707,-3.0630367 -1.058593,-3.8906255 -0.724666,-0.831176 -1.885814,-1.2226561 -3.429688,-1.2226563 z m 2.30664,2.2480469 h 0.251954 c 0.665109,0 1.073424,0.2013349 1.328125,0.5976559 0.253788,0.3949 0.414062,1.157463 0.414062,2.267579 0,1.118991 -0.159712,1.887702 -0.414062,2.287109 -0.254701,0.396321 -0.663016,0.599609 -1.328125,0.599609 h -0.251954 z"
         transform="scale(1.0278055,0.97294673)" />
    </g>
  </g>
  <path
     style="fill:none;stroke:#ffffff;stroke-width:1px;stroke-linecap:butt;stroke-linejoin:miter;stroke-opacity:1"
     d="M 35.168255,22.811572 28.738879,32.904197"
     id="path4939" />
  <path
     style="fill:none;stroke:#ffffff;stroke-width:1px;stroke-linecap:butt;stroke-linejoin:miter;stroke-opacity:1"
     d="m 32.775929,26.886002 2.541847,-0.336421"
     id="path4941" />
  <path
     style="fill:none;stroke:#ffffff;stroke-width:1px;stroke-linecap:butt;stroke-linejoin:miter;stroke-opacity:1"
     d="M 30.495744,30.17545 29.262201,27.521464"
     id="path4943" />
</svg>
