<?xml version="1.0" encoding="UTF-8" standalone="no"?>
<svg
   xmlns:dc="http://purl.org/dc/elements/1.1/"
   xmlns:cc="http://creativecommons.org/ns#"
   xmlns:rdf="http://www.w3.org/1999/02/22-rdf-syntax-ns#"
   xmlns:svg="http://www.w3.org/2000/svg"
   xmlns="http://www.w3.org/2000/svg"
   xmlns:sodipodi="http://sodipodi.sourceforge.net/DTD/sodipodi-0.dtd"
   xmlns:inkscape="http://www.inkscape.org/namespaces/inkscape"
   height="48"
   width="48"
   version="1.1"
   id="svg8"
   sodipodi:docname="lightcord.svg"
   inkscape:version="1.0.2 (e86c870879, 2021-01-15)">
  <metadata
     id="metadata14">
    <rdf:RDF>
      <cc:Work
         rdf:about="">
        <dc:format>image/svg+xml</dc:format>
        <dc:type
           rdf:resource="http://purl.org/dc/dcmitype/StillImage" />
        <dc:title></dc:title>
      </cc:Work>
    </rdf:RDF>
  </metadata>
  <defs
     id="defs12" />
  <sodipodi:namedview
     pagecolor="#ffffff"
     bordercolor="#666666"
     borderopacity="1"
     objecttolerance="10"
     gridtolerance="10"
     guidetolerance="10"
     inkscape:pageopacity="0"
     inkscape:pageshadow="2"
     inkscape:window-width="1920"
     inkscape:window-height="1031"
     id="namedview10"
     showgrid="false"
     inkscape:zoom="4.7291668"
     inkscape:cx="-52.38404"
     inkscape:cy="31.530414"
     inkscape:window-x="0"
     inkscape:window-y="24"
     inkscape:window-maximized="1"
     inkscape:current-layer="svg8"
     inkscape:document-rotation="0" />
  <path
     d="m44.322082 27.405077a19.729762 19.729765 0 0 1 -19.729762 19.729765 19.729762 19.729765 0 0 1 -19.7297621-19.729765 19.729762 19.729765 0 0 1 19.7297621-19.7297632 19.729762 19.729765 0 0 1 19.729762 19.7297632z"
     fill="#89a02c"
     opacity=".99"
     transform="matrix(1.1503549 0 0 1.1503549 -4.486125 -7.525565)"
     id="path2"
     style="fill:#c67965;fill-opacity:1" />
  <path
     id="path844"
     style="fill:#ba5d5d;fill-opacity:1;stroke-width:1.15035"
     d="M 23.804688 1.3046875 C 11.269906 1.3046875 1.1074207 11.465218 1.1074219 24 C 1.1074219 30.267391 3.6486504 35.941619 7.7558594 40.048828 L 13.621094 34.183594 L 19.898438 35.8125 L 18.185547 29.617188 L 39.851562 7.9511719 C 35.744352 3.8439619 30.072077 1.3046875 23.804688 1.3046875 z " />
  <g
     id="g880"
     transform="rotate(-45,9.9269914,22.936309)">
    <circle
       style="fill:#ffffff;fill-opacity:1;stroke:none;stroke-width:0.885181;stroke-linecap:square"
       id="path871"
       cx="9.4212971"
       cy="23.193588"
       r="2.8147938" />
    <circle
       style="fill:#ffffff;fill-opacity:1;stroke:none;stroke-width:0.885181;stroke-linecap:square"
       id="circle873"
       cx="19.516201"
       cy="23.193588"
       r="2.8147938" />
    <circle
       style="fill:#ffffff;fill-opacity:1;stroke:none;stroke-width:0.885181;stroke-linecap:square"
       id="circle875"
       cx="29.611105"
       cy="23.193588"
       r="2.8147938" />
  </g>
  <path
     d="m 37.890815,32.676596 c 0.643058,-1.231597 0.99559,-2.496755 0.811521,-3.937937 -1.452276,5.428863 -4.916656,8.771497 -10.264386,10.291936 0.679951,0.119586 1.321054,0.08591 1.94284,-0.07994 0.619939,-0.165311 1.222396,-0.396338 1.853732,-0.605475 0.04507,0.407495 0.06662,0.859136 0.151638,1.298411 0.08117,0.418386 -0.0225,0.697059 -0.366477,0.969376 -1.296045,1.026166 -2.72627,1.683582 -4.400027,1.740885 -0.04858,0.0016 -0.09725,9.7e-5 -0.145656,0.0026 -0.671604,0.03511 -1.174331,-0.172588 -1.657749,-0.716811 -2.288472,-2.576009 -3.982909,-5.484143 -5.106291,-8.732411 -0.05507,-0.159227 -0.06926,-0.351295 -0.04099,-0.517668 0.246278,-1.451114 0.760924,-2.797998 1.610513,-4.007334 0.162175,-0.230886 0.335838,-0.456004 0.526016,-0.663842 0.07733,-0.08447 0.212784,-0.115833 0.351464,-0.138063 -0.814444,1.632393 -1.48433,3.287737 -1.683511,5.133534 1.83985,-5.187224 5.250061,-8.763086 10.467007,-10.551854 -1.693063,0.179665 -3.244453,0.793213 -4.747474,1.555099 -0.08939,-0.258474 -0.0049,-0.409936 0.192823,-0.573938 1.339396,-1.111634 2.884261,-1.755551 4.583951,-2.05377 0.159505,-0.028 0.343671,-0.01889 0.496168,0.03267 2.34433,0.794112 4.517892,1.922782 6.538684,3.351256 0.939148,0.664047 1.817139,1.400381 2.643028,2.19816 0.115938,0.112304 0.203601,0.29665 0.224531,0.458136 0.194165,1.499583 -0.152803,2.892676 -0.915579,4.17872 -0.294682,0.496747 -0.671367,0.945368 -1.021802,1.407588 -0.05428,0.0716 -0.171966,0.144354 -0.254045,0.137721 -0.587814,-0.04655 -1.173815,-0.113538 -1.789938,-0.177058 z m -7.595798,3.258226 c 0.448044,-0.450223 0.619216,-0.811662 0.658787,-1.239494 0.06445,-0.699573 -0.211371,-1.260456 -0.667616,-1.775511 -0.510257,-0.575924 -1.125066,-0.769031 -1.851847,-0.593414 -0.749792,0.181248 -1.259728,0.644187 -1.435203,1.41102 -0.281662,1.230839 0.705166,2.501772 1.987195,2.580336 0.560949,0.03432 1.050105,-0.130677 1.308684,-0.382937 z m 4.978182,-4.936272 c 0.118971,-0.189813 0.263761,-0.368273 0.352712,-0.571337 0.549513,-1.252654 -0.373457,-2.749453 -1.793996,-2.923868 -1.106895,-0.135861 -2.06755,0.712799 -2.057925,1.828792 0.0063,0.738113 0.34758,1.307624 0.91953,1.754865 0.758036,0.592802 1.895505,0.5479 2.579679,-0.08845 z"
     fill="#ffffff"
     stroke-width="0.0485827"
     id="path20" />
</svg>
