<?xml version="1.0" encoding="UTF-8" standalone="no"?>
<svg
   xmlns:dc="http://purl.org/dc/elements/1.1/"
   xmlns:cc="http://creativecommons.org/ns#"
   xmlns:rdf="http://www.w3.org/1999/02/22-rdf-syntax-ns#"
   xmlns:svg="http://www.w3.org/2000/svg"
   xmlns="http://www.w3.org/2000/svg"
   xmlns:sodipodi="http://sodipodi.sourceforge.net/DTD/sodipodi-0.dtd"
   xmlns:inkscape="http://www.inkscape.org/namespaces/inkscape"
   height="48"
   width="48"
   version="1.1"
   id="svg6"
   sodipodi:docname="lightdm-gtk-greeter-settings.svg"
   inkscape:version="1.0.2 (e86c870879, 2021-01-15)">
  <metadata
     id="metadata12">
    <rdf:RDF>
      <cc:Work
         rdf:about="">
        <dc:format>image/svg+xml</dc:format>
        <dc:type
           rdf:resource="http://purl.org/dc/dcmitype/StillImage" />
        <dc:title></dc:title>
      </cc:Work>
    </rdf:RDF>
  </metadata>
  <defs
     id="defs10" />
  <sodipodi:namedview
     pagecolor="#ffffff"
     bordercolor="#666666"
     borderopacity="1"
     objecttolerance="10"
     gridtolerance="10"
     guidetolerance="10"
     inkscape:pageopacity="0"
     inkscape:pageshadow="2"
     inkscape:window-width="1920"
     inkscape:window-height="1031"
     id="namedview8"
     showgrid="false"
     inkscape:zoom="9.4583335"
     inkscape:cx="30.102694"
     inkscape:cy="31.265652"
     inkscape:window-x="0"
     inkscape:window-y="24"
     inkscape:window-maximized="1"
     inkscape:current-layer="svg6"
     inkscape:document-rotation="0" />
  <path
     d="m44.322082 27.405077a19.729762 19.729765 0 0 1 -19.729762 19.729765 19.729762 19.729765 0 0 1 -19.7297621-19.729765 19.729762 19.729765 0 0 1 19.7297621-19.7297632 19.729762 19.729765 0 0 1 19.729762 19.7297632z"
     fill="#8fbcbb"
     opacity=".99"
     transform="matrix(1.1503549 0 0 1.1503549 -4.486125 -7.525565)"
     id="path2"
     style="fill:#92d1cc;fill-opacity:1" />
  <rect
     style="fill:#fcfcfc;fill-opacity:0.298348;stroke-width:0.772188;stroke-linecap:square"
     id="rect892"
     width="28.841637"
     height="18.472891"
     x="11.842487"
     y="17.497351"
     ry="0"
     rx="0" />
  <g
     id="g888"
     transform="translate(0,0.67731064)">
    <rect
       style="fill:#fcfcfc;fill-opacity:0.996078;stroke-width:0.772188;stroke-linecap:square"
       id="rect831"
       width="28.841637"
       height="18.472891"
       x="9.3829527"
       y="14.086245"
       ry="0"
       rx="0" />
    <circle
       style="fill:#92d1cc;fill-opacity:0.992157;stroke-width:0.8;stroke-linecap:square"
       id="path835"
       cx="16.644983"
       cy="19.340979"
       r="2.2263262" />
    <path
       id="path837"
       style="fill:#92d1cc;fill-opacity:0.992157;stroke-width:0.703197;stroke-linecap:square"
       d="m 16.642578,22.501375 -1.015625,0.865235 0.796875,0.945312 -0.279297,3.283203 0.498047,1.732422 0.498047,-1.732422 -0.279297,-3.283203 0.796875,-0.945312 z m -1.392578,0.002 c -2.689447,0.670366 -3.943359,3.27386 -3.943359,5.816406 h 4.580078 l -1.392578,-2.669922 0.974609,-1.058594 -1.736328,-0.466797 z m 2.785156,0 1.517578,1.621093 -1.736328,0.466797 0.97461,1.058594 -1.392578,2.669922 h 4.580078 c 0,-2.542546 -1.253913,-5.14604 -3.94336,-5.816406 z" />
  </g>
  <rect
     style="fill:#92d1cc;fill-opacity:0.99215686;stroke-width:0.8;stroke-linecap:square"
     id="rect890"
     width="13.569758"
     height="2.7506676"
     x="23.714495"
     y="25.921036"
     rx="0"
     ry="0" />
</svg>
