<?xml version="1.0" encoding="UTF-8" standalone="no"?>
<svg
   height="48"
   width="48"
   version="1.1"
   id="svg6"
   sodipodi:docname="xfce4-appfinder.svg"
   inkscape:version="1.1.2 (0a00cf5339, 2022-02-04)"
   xmlns:inkscape="http://www.inkscape.org/namespaces/inkscape"
   xmlns:sodipodi="http://sodipodi.sourceforge.net/DTD/sodipodi-0.dtd"
   xmlns="http://www.w3.org/2000/svg"
   xmlns:svg="http://www.w3.org/2000/svg"
   xmlns:rdf="http://www.w3.org/1999/02/22-rdf-syntax-ns#"
   xmlns:cc="http://creativecommons.org/ns#"
   xmlns:dc="http://purl.org/dc/elements/1.1/">
  <metadata
     id="metadata12">
    <rdf:RDF>
      <cc:Work
         rdf:about="">
        <dc:format>image/svg+xml</dc:format>
        <dc:type
           rdf:resource="http://purl.org/dc/dcmitype/StillImage" />
        <dc:title />
      </cc:Work>
    </rdf:RDF>
  </metadata>
  <defs
     id="defs10" />
  <sodipodi:namedview
     pagecolor="#ffffff"
     bordercolor="#666666"
     borderopacity="1"
     objecttolerance="10"
     gridtolerance="10"
     guidetolerance="10"
     inkscape:pageopacity="0"
     inkscape:pageshadow="2"
     inkscape:window-width="1920"
     inkscape:window-height="1031"
     id="namedview8"
     showgrid="false"
     inkscape:zoom="9.4583333"
     inkscape:cx="7.2422908"
     inkscape:cy="31.348018"
     inkscape:window-x="0"
     inkscape:window-y="0"
     inkscape:window-maximized="1"
     inkscape:current-layer="svg6"
     inkscape:document-rotation="0"
     inkscape:pagecheckerboard="0" />
  <path
     id="circle2"
     style="opacity:0.99;fill:#66484b;fill-opacity:1"
     transform="matrix(1.75830584759 0 0 1.75830608345 -18.15909274367 -30.97874795549)"
     d="M 37.173613,31.534513 A 13.232998,13.232998 0 0 1 23.940615,44.767511 13.232998,13.232998 0 0 1 10.707617,31.534513 13.232998,13.232998 0 0 1 23.940615,18.301516 13.232998,13.232998 0 0 1 37.173613,31.534513 Z" />
  <path
     id="rect1078"
     style="fill:#ffffff;fill-opacity:1;stroke:none;stroke-width:2"
     d="M 6.5039062 9.0585938 A 23.267658 23.267661 0 0 0 0.66796875 24.46875 A 23.267658 23.267661 0 0 0 2.8847656 34.378906 L 44.986328 34.378906 A 23.267658 23.267661 0 0 0 47.203125 24.46875 A 23.267658 23.267661 0 0 0 41.367188 9.0585938 L 6.5039062 9.0585938 z " />
  <path
     id="circle1080"
     style="fill:#bf616a;fill-opacity:1;stroke-width:1.75831"
     d="M 23.892578 1.2011719 A 23.267658 23.267661 0 0 0 0.66796875 24.46875 A 23.267658 23.267661 0 0 0 23.935547 47.736328 A 23.267658 23.267661 0 0 0 47.203125 24.46875 A 23.267658 23.267661 0 0 0 23.935547 1.2011719 A 23.267658 23.267661 0 0 0 23.892578 1.2011719 z M 23.775391 2.5742188 A 21.894934 21.894938 0 0 1 23.935547 2.5742188 A 21.894934 21.894938 0 0 1 45.830078 24.46875 A 21.894934 21.894938 0 0 1 23.935547 46.363281 A 21.894934 21.894938 0 0 1 2.0410156 24.46875 A 21.894934 21.894938 0 0 1 23.775391 2.5742188 z " />
  <path
     id="path1076"
     style="fill:#bf616a;stroke:none;stroke-width:1px;stroke-linecap:butt;stroke-linejoin:miter;stroke-opacity:1;fill-opacity:1"
     d="M 25.873047 12.085938 L 19.857422 18.101562 L 1.5566406 18.101562 A 23.267658 23.267661 0 0 0 0.66796875 24.46875 A 23.267658 23.267661 0 0 0 23.935547 47.736328 A 23.267658 23.267661 0 0 0 47.203125 24.46875 A 23.267658 23.267661 0 0 0 43.632812 12.085938 L 25.873047 12.085938 z " />
  <path
     d="M 32.249804,15.173156 A 10.571428,10.571428 0 0 1 42.5291,25.272766 10.571428,10.571428 0 0 1 32.452929,36.30011 10.571428,10.571428 0 0 1 21.408007,26.245422 l -0.0039,-0.07617 a 10.571428,10.571428 0 0 1 10.117181,-10.990236 10.571428,10.571428 0 0 1 0.728516,-0.0059 z m -0.07617,2.855469 a 7.7142849,7.7142849 0 0 0 -0.533203,0.0039 7.7142849,7.7142849 0 0 0 -7.38086,8.019532 l 0.002,0.05664 a 7.7142849,7.7142849 0 0 0 8.0605,7.337897 7.7142849,7.7142849 0 0 0 7.351563,-8.046875 7.7142849,7.7142849 0 0 0 -7.5,-7.371094 z"
     fill="#ffffff"
     id="path8" />
  <path
     d="m 24.173632,31.028625 -12.124355,7"
     fill="none"
     stroke="#ffffff"
     stroke-linecap="round"
     stroke-width="3"
     id="path10" />
  <path
     d="m 30.174278,21.07617 a 2.0002487,2.0002487 0 0 0 2.089892,1.902559 2.0002487,2.0002487 0 0 0 1.906371,-2.086415 2.0002487,2.0002487 0 0 0 -2.082932,-1.910177 2.0002487,2.0002487 0 0 0 -1.913976,2.079441"
     fill="#ffffff"
     fill-opacity="0.644366"
     id="path12" />
</svg>
