<?xml version="1.0" encoding="UTF-8" standalone="no"?>
<svg
   xmlns:dc="http://purl.org/dc/elements/1.1/"
   xmlns:cc="http://creativecommons.org/ns#"
   xmlns:rdf="http://www.w3.org/1999/02/22-rdf-syntax-ns#"
   xmlns:svg="http://www.w3.org/2000/svg"
   xmlns="http://www.w3.org/2000/svg"
   xmlns:sodipodi="http://sodipodi.sourceforge.net/DTD/sodipodi-0.dtd"
   xmlns:inkscape="http://www.inkscape.org/namespaces/inkscape"
   height="48"
   width="48"
   version="1.1"
   id="svg6"
   sodipodi:docname="mailnag.svg"
   inkscape:version="1.0.2 (e86c870879, 2021-01-15)">
  <metadata
     id="metadata12">
    <rdf:RDF>
      <cc:Work
         rdf:about="">
        <dc:format>image/svg+xml</dc:format>
        <dc:type
           rdf:resource="http://purl.org/dc/dcmitype/StillImage" />
        <dc:title></dc:title>
      </cc:Work>
    </rdf:RDF>
  </metadata>
  <defs
     id="defs10" />
  <sodipodi:namedview
     pagecolor="#ffffff"
     bordercolor="#666666"
     borderopacity="1"
     objecttolerance="10"
     gridtolerance="10"
     guidetolerance="10"
     inkscape:pageopacity="0"
     inkscape:pageshadow="2"
     inkscape:window-width="1920"
     inkscape:window-height="1031"
     id="namedview8"
     showgrid="false"
     inkscape:zoom="18.916667"
     inkscape:cx="24"
     inkscape:cy="24"
     inkscape:window-x="0"
     inkscape:window-y="24"
     inkscape:window-maximized="1"
     inkscape:current-layer="svg6" />
  <path
     d="m44.322082 27.405077a19.729762 19.729765 0 0 1 -19.729762 19.729765 19.729762 19.729765 0 0 1 -19.7297621-19.729765 19.729762 19.729765 0 0 1 19.7297621-19.7297632 19.729762 19.729765 0 0 1 19.729762 19.7297632z"
     fill="#8fbcbb"
     opacity=".99"
     transform="matrix(1.1503549 0 0 1.1503549 -4.486125 -7.525565)"
     id="path2"
     style="fill:#598db6;fill-opacity:1" />
  <path
     d="m24 10.5-13.5 10.5h27zm13.5 10.5-13.5 6 10.5 7.5-24-12.705078v15.705078h27z"
     fill="#ffffff"
     id="path4" />
  <circle
     style="fill:#ffffff;fill-opacity:1;stroke:#598db6;stroke-width:2;stroke-linecap:round;stroke-linejoin:round;stroke-miterlimit:4;stroke-dasharray:none;stroke-dashoffset:0;stroke-opacity:0.99215686;paint-order:fill markers stroke"
     id="path4516"
     cx="33.10714"
     cy="33.886417"
     r="8" />
  <path
     d="m 30.007255,30.388908 c -0.526431,-0.08737 -1.121404,0.01008 -1.62711,0.30764 -1.101588,0.648177 -1.429723,1.904833 -1.429723,3.060389 0,1.155556 0.328135,2.412211 1.429723,3.060389 0.505706,0.29756 1.100679,0.395008 1.62711,0.307639 0.52643,-0.08737 0.979656,-0.322567 1.392379,-0.609944 0.573374,-0.399236 1.048587,-0.961259 1.539975,-1.49374 0.491388,0.532481 0.966601,1.094504 1.539975,1.49374 0.412723,0.287377 0.865949,0.522576 1.392379,0.609944 0.52643,0.08737 1.121403,-0.01008 1.627109,-0.307639 1.101588,-0.648178 1.429724,-1.904833 1.429724,-3.060389 0,-1.155556 -0.328136,-2.412212 -1.429724,-3.060389 -0.505706,-0.29756 -1.100679,-0.395009 -1.627109,-0.30764 -0.52643,0.08737 -0.979656,0.322568 -1.392379,0.609944 -0.573374,0.399237 -1.048587,0.96126 -1.539975,1.49374 -0.491388,-0.53248 -0.966601,-1.094503 -1.539975,-1.49374 -0.412723,-0.287376 -0.865949,-0.522575 -1.392379,-0.609944 z m -0.298748,1.796046 c 0.153123,0.02541 0.379515,0.120492 0.650844,0.309416 0.366204,0.254987 0.835028,0.784809 1.283905,1.262567 -0.448877,0.477757 -0.917701,1.00758 -1.283905,1.262566 -0.271329,0.188924 -0.497721,0.284005 -0.650844,0.309417 -0.153124,0.02541 -0.236117,0.01856 -0.403666,-0.08002 -0.206259,-0.121364 -0.533479,-0.756114 -0.533479,-1.491962 0,-0.735849 0.32722,-1.370598 0.533479,-1.491962 0.167549,-0.09859 0.250542,-0.105435 0.403666,-0.08002 z m 6.462204,0 c 0.153124,-0.02541 0.236117,-0.01857 0.403666,0.08002 0.206259,0.121364 0.533478,0.756113 0.533478,1.491962 0,0.735848 -0.327219,1.370598 -0.533478,1.491962 -0.167549,0.09859 -0.250542,0.105434 -0.403666,0.08002 -0.153123,-0.02541 -0.379515,-0.120493 -0.650844,-0.309417 -0.366204,-0.254986 -0.835028,-0.784809 -1.283905,-1.262566 0.448877,-0.477758 0.917701,-1.00758 1.283905,-1.262567 0.271329,-0.188924 0.497721,-0.284004 0.650844,-0.309416 z"
     fill="#5b909a"
     id="path14"
     style="stroke-width:0.91047;fill:#598db6;fill-opacity:0.99215686" />
</svg>
