<?xml version="1.0" encoding="UTF-8" standalone="no"?>
<svg
   xmlns:dc="http://purl.org/dc/elements/1.1/"
   xmlns:cc="http://creativecommons.org/ns#"
   xmlns:rdf="http://www.w3.org/1999/02/22-rdf-syntax-ns#"
   xmlns:svg="http://www.w3.org/2000/svg"
   xmlns="http://www.w3.org/2000/svg"
   xmlns:sodipodi="http://sodipodi.sourceforge.net/DTD/sodipodi-0.dtd"
   xmlns:inkscape="http://www.inkscape.org/namespaces/inkscape"
   height="48"
   width="48"
   version="1.1"
   id="svg8"
   sodipodi:docname="mame.svg"
   inkscape:version="1.0.2 (e86c870879, 2021-01-15)">
  <metadata
     id="metadata14">
    <rdf:RDF>
      <cc:Work
         rdf:about="">
        <dc:format>image/svg+xml</dc:format>
        <dc:type
           rdf:resource="http://purl.org/dc/dcmitype/StillImage" />
        <dc:title></dc:title>
      </cc:Work>
    </rdf:RDF>
  </metadata>
  <defs
     id="defs12" />
  <sodipodi:namedview
     pagecolor="#ffffff"
     bordercolor="#666666"
     borderopacity="1"
     objecttolerance="10"
     gridtolerance="10"
     guidetolerance="10"
     inkscape:pageopacity="0"
     inkscape:pageshadow="2"
     inkscape:window-width="1920"
     inkscape:window-height="1031"
     id="namedview10"
     showgrid="false"
     inkscape:zoom="6.6880515"
     inkscape:cx="16.416699"
     inkscape:cy="29.829664"
     inkscape:window-x="0"
     inkscape:window-y="24"
     inkscape:window-maximized="1"
     inkscape:current-layer="svg8"
     inkscape:document-rotation="0" />
  <path
     d="m44.322082 27.405077a19.729762 19.729765 0 0 1 -19.729762 19.729765 19.729762 19.729765 0 0 1 -19.7297621-19.729765 19.729762 19.729765 0 0 1 19.7297621-19.7297632 19.729762 19.729765 0 0 1 19.729762 19.7297632z"
     fill="#89a02c"
     opacity=".99"
     id="path2"
     style="fill:#6a7478;fill-opacity:1"
     transform="matrix(1.1503549 0 0 1.1503549 -4.486125 -7.525565)" />
  <path
     id="path1136"
     style="fill:#95bccc;fill-opacity:1;stroke-width:1.15035"
     d="M 1.1816406 25.832031 A 22.696228 22.696232 0 0 0 23.804688 46.695312 A 22.696228 22.696232 0 0 0 46.423828 25.845703 C 46.379938 25.841746 46.337923 25.832031 46.292969 25.832031 L 1.1816406 25.832031 z " />
  <path
     id="path1156"
     style="fill:#95bccc;fill-opacity:1;stroke-width:1.15035"
     d="M 23.804688 1.3046875 A 22.696228 22.696232 0 0 0 1.1074219 24 A 22.696228 22.696232 0 0 0 23.804688 46.695312 A 22.696228 22.696232 0 0 0 46.5 24 A 22.696228 22.696232 0 0 0 23.804688 1.3046875 z M 23.759766 3.2382812 A 20.762165 20.762169 0 0 1 23.804688 3.2382812 A 20.762165 20.762169 0 0 1 44.566406 24 A 20.762165 20.762169 0 0 1 23.804688 44.761719 A 20.762165 20.762169 0 0 1 3.0410156 24 A 20.762165 20.762169 0 0 1 23.759766 3.2382812 z " />
  <circle
     style="fill:#ffffff;fill-opacity:1;stroke-width:35;stroke-linecap:round;stroke-linejoin:round"
     id="path839"
     cx="8.7300787"
     cy="30.959213"
     r="2.8051097" />
  <circle
     style="fill:#ffffff;fill-opacity:1;stroke-width:35;stroke-linecap:round;stroke-linejoin:round"
     id="circle841"
     cx="16.088963"
     cy="37.135891"
     r="2.8051097" />
  <rect
     style="fill:#ffffff;fill-opacity:1;stroke-width:35;stroke-linecap:round;stroke-linejoin:round"
     id="rect843"
     width="4.7316813"
     height="11.902602"
     x="32.336079"
     y="28.066406"
     rx="0"
     ry="0" />
  <rect
     style="fill:#ffffff;fill-opacity:1;stroke-width:35;stroke-linecap:round;stroke-linejoin:round"
     id="rect845"
     width="4.7316813"
     height="11.902602"
     x="31.651867"
     y="-40.653221"
     rx="0"
     ry="0"
     transform="rotate(90)" />
  <path
     style="fill:#95bccc;fill-opacity:1;fill-rule:evenodd;stroke-width:0.416808"
     d="M 26.711035,8.1286268 10.872311,23.96735 h 6.252128 l 7.085745,-7.085744 V 23.96735 L 30.87912,17.298414 V 23.96735 L 34.663743,20.18273 34.630403,8.1286268 26.71104,16.047988 Z"
     id="path4" />
</svg>
