<?xml version="1.0" encoding="UTF-8" standalone="no"?>
<svg
   height="48"
   width="48"
   version="1.1"
   id="svg6"
   sodipodi:docname="xfce4-menueditor.svg"
   inkscape:version="1.1.2 (0a00cf5339, 2022-02-04)"
   xmlns:inkscape="http://www.inkscape.org/namespaces/inkscape"
   xmlns:sodipodi="http://sodipodi.sourceforge.net/DTD/sodipodi-0.dtd"
   xmlns="http://www.w3.org/2000/svg"
   xmlns:svg="http://www.w3.org/2000/svg"
   xmlns:rdf="http://www.w3.org/1999/02/22-rdf-syntax-ns#"
   xmlns:cc="http://creativecommons.org/ns#"
   xmlns:dc="http://purl.org/dc/elements/1.1/">
  <metadata
     id="metadata12">
    <rdf:RDF>
      <cc:Work
         rdf:about="">
        <dc:format>image/svg+xml</dc:format>
        <dc:type
           rdf:resource="http://purl.org/dc/dcmitype/StillImage" />
        <dc:title />
      </cc:Work>
    </rdf:RDF>
  </metadata>
  <defs
     id="defs10" />
  <sodipodi:namedview
     pagecolor="#ffffff"
     bordercolor="#666666"
     borderopacity="1"
     objecttolerance="10"
     gridtolerance="10"
     guidetolerance="10"
     inkscape:pageopacity="0"
     inkscape:pageshadow="2"
     inkscape:window-width="1920"
     inkscape:window-height="1031"
     id="namedview8"
     showgrid="false"
     inkscape:zoom="6.6880516"
     inkscape:cx="83.20809"
     inkscape:cy="8.8964625"
     inkscape:window-x="0"
     inkscape:window-y="0"
     inkscape:window-maximized="1"
     inkscape:current-layer="svg6"
     inkscape:document-rotation="0"
     inkscape:pagecheckerboard="0" />
  <path
     id="circle2"
     style="opacity:0.99;fill:#8fbcbb;fill-opacity:1"
     transform="matrix(1.75830584759 0 0 1.75830608345 -18.15909274367 -30.97874795549)"
     d="M 37.173613,31.534513 A 13.232998,13.232998 0 0 1 23.940615,44.767511 13.232998,13.232998 0 0 1 10.707617,31.534513 13.232998,13.232998 0 0 1 23.940615,18.301516 13.232998,13.232998 0 0 1 37.173613,31.534513 Z" />
  <rect
     fill="#ffffff"
     height="28.218485"
     ry="1.7636553"
     width="27.336658"
     x="10.308336"
     y="9.5792675"
     id="rect4"
     style="stroke-width:0.881828" />
  <path
     d="m 12.071991,36.034097 5.290966,7.936449 5.290966,-7.936449 z"
     fill="#ffffff"
     id="path6"
     style="stroke-width:0.881828" />
  <path
     d="m 22.667702,13.988406 -0.489139,4.886221 -3.799437,-3.108788 -1.870439,1.87044 3.107064,3.799436 -4.884498,0.489139 v 2.645483 l 4.886221,0.487417 -3.108787,3.801159 1.870439,1.870439 3.797714,-3.108787 0.490862,4.886221 h 2.645483 l 0.487416,-4.884498 3.80116,3.107064 1.870439,-1.870439 -3.11051,-3.799436 4.887944,-0.48914 v -2.645483 l -4.884498,-0.489139 3.107064,-3.799436 -1.870439,-1.87044 -3.799437,3.107065 -0.489139,-4.884498 z"
     fill="#8fbcbb"
     id="path8"
     style="stroke-width:0.881828" />
  <circle
     cx="23.991198"
     cy="23.243759"
     fill="#8fbcbb"
     r="7.5108089"
     id="circle10"
     style="stroke-width:0.881828" />
  <circle
     cx="23.951473"
     cy="23.208626"
     fill="#ffffff"
     r="3.9048018"
     id="circle12"
     style="stroke-width:0.881828" />
</svg>
