<?xml version="1.0" encoding="UTF-8" standalone="no"?>
<svg
   xmlns:dc="http://purl.org/dc/elements/1.1/"
   xmlns:cc="http://creativecommons.org/ns#"
   xmlns:rdf="http://www.w3.org/1999/02/22-rdf-syntax-ns#"
   xmlns:svg="http://www.w3.org/2000/svg"
   xmlns="http://www.w3.org/2000/svg"
   xmlns:sodipodi="http://sodipodi.sourceforge.net/DTD/sodipodi-0.dtd"
   xmlns:inkscape="http://www.inkscape.org/namespaces/inkscape"
   height="48"
   width="48"
   version="1.1"
   id="svg8"
   sodipodi:docname="tespeak-gui.svg"
   inkscape:version="1.0.2 (e86c870879, 2021-01-15)">
  <metadata
     id="metadata14">
    <rdf:RDF>
      <cc:Work
         rdf:about="">
        <dc:format>image/svg+xml</dc:format>
        <dc:type
           rdf:resource="http://purl.org/dc/dcmitype/StillImage" />
        <dc:title></dc:title>
      </cc:Work>
    </rdf:RDF>
  </metadata>
  <defs
     id="defs12" />
  <sodipodi:namedview
     pagecolor="#ffffff"
     bordercolor="#666666"
     borderopacity="1"
     objecttolerance="10"
     gridtolerance="10"
     guidetolerance="10"
     inkscape:pageopacity="0"
     inkscape:pageshadow="2"
     inkscape:window-width="1920"
     inkscape:window-height="1031"
     id="namedview10"
     showgrid="false"
     inkscape:zoom="4.7291668"
     inkscape:cx="-52.38404"
     inkscape:cy="31.530414"
     inkscape:window-x="0"
     inkscape:window-y="24"
     inkscape:window-maximized="1"
     inkscape:current-layer="svg8"
     inkscape:document-rotation="0" />
  <path
     d="m44.322082 27.405077a19.729762 19.729765 0 0 1 -19.729762 19.729765 19.729762 19.729765 0 0 1 -19.7297621-19.729765 19.729762 19.729765 0 0 1 19.7297621-19.7297632 19.729762 19.729765 0 0 1 19.729762 19.7297632z"
     fill="#89a02c"
     opacity=".99"
     transform="matrix(1.1503549 0 0 1.1503549 -4.486125 -7.525565)"
     id="path2"
     style="fill:#8da9c0;fill-opacity:1" />
  <path
     id="path844"
     style="fill:#7cb8e0;fill-opacity:1;stroke-width:1.15035"
     d="M 23.804688 1.3046875 C 11.269906 1.3046875 1.1074207 11.465218 1.1074219 24 C 1.1074219 30.267391 3.6486504 35.941619 7.7558594 40.048828 L 13.621094 34.183594 L 19.898438 35.8125 L 18.185547 29.617188 L 39.851562 7.9511719 C 35.744352 3.8439619 30.072077 1.3046875 23.804688 1.3046875 z " />
  <g
     id="g880"
     transform="rotate(-45,9.9269914,22.936309)">
    <circle
       style="fill:#ffffff;fill-opacity:1;stroke:none;stroke-width:0.885181;stroke-linecap:square"
       id="path871"
       cx="9.4212971"
       cy="23.193588"
       r="2.8147938" />
    <circle
       style="fill:#ffffff;fill-opacity:1;stroke:none;stroke-width:0.885181;stroke-linecap:square"
       id="circle873"
       cx="19.516201"
       cy="23.193588"
       r="2.8147938" />
    <circle
       style="fill:#ffffff;fill-opacity:1;stroke:none;stroke-width:0.885181;stroke-linecap:square"
       id="circle875"
       cx="29.611105"
       cy="23.193588"
       r="2.8147938" />
  </g>
</svg>
