<?xml version="1.0" encoding="UTF-8" standalone="no"?>
<svg
   xmlns:dc="http://purl.org/dc/elements/1.1/"
   xmlns:cc="http://creativecommons.org/ns#"
   xmlns:rdf="http://www.w3.org/1999/02/22-rdf-syntax-ns#"
   xmlns:svg="http://www.w3.org/2000/svg"
   xmlns="http://www.w3.org/2000/svg"
   xmlns:sodipodi="http://sodipodi.sourceforge.net/DTD/sodipodi-0.dtd"
   xmlns:inkscape="http://www.inkscape.org/namespaces/inkscape"
   height="48"
   width="48"
   version="1.1"
   id="svg6"
   sodipodi:docname="MidnightCommander.svg"
   inkscape:version="1.0.2 (e86c870879, 2021-01-15)">
  <metadata
     id="metadata12">
    <rdf:RDF>
      <cc:Work
         rdf:about="">
        <dc:format>image/svg+xml</dc:format>
        <dc:type
           rdf:resource="http://purl.org/dc/dcmitype/StillImage" />
        <dc:title></dc:title>
      </cc:Work>
    </rdf:RDF>
  </metadata>
  <defs
     id="defs10" />
  <sodipodi:namedview
     pagecolor="#ffffff"
     bordercolor="#666666"
     borderopacity="1"
     objecttolerance="10"
     gridtolerance="10"
     guidetolerance="10"
     inkscape:pageopacity="0"
     inkscape:pageshadow="2"
     inkscape:window-width="1920"
     inkscape:window-height="1031"
     id="namedview8"
     showgrid="false"
     inkscape:zoom="6.6880516"
     inkscape:cx="5.8740283"
     inkscape:cy="31.084797"
     inkscape:window-x="0"
     inkscape:window-y="24"
     inkscape:window-maximized="1"
     inkscape:current-layer="svg6"
     inkscape:document-rotation="0" />
  <circle
     cx="23.940615"
     cy="31.534513"
     fill="#5e81ac"
     opacity=".99"
     r="13.232998"
     transform="matrix(1.75830584759 0 0 1.75830608345 -18.15909274367 -30.97874795549)"
     id="circle2"
     style="fill:#c1d1dd;fill-opacity:1" />
  <path
     id="rect1078"
     style="fill:#ffffff;fill-opacity:1;stroke:none;stroke-width:2"
     d="M 6.5039062 9.0585938 A 23.267658 23.267661 0 0 0 0.66796875 24.46875 A 23.267658 23.267661 0 0 0 2.8847656 34.378906 L 44.986328 34.378906 A 23.267658 23.267661 0 0 0 47.203125 24.46875 A 23.267658 23.267661 0 0 0 41.367188 9.0585938 L 6.5039062 9.0585938 z " />
  <path
     id="circle1080"
     style="fill:#82adc5;fill-opacity:1;stroke-width:1.75831"
     d="M 23.892578 1.2011719 A 23.267658 23.267661 0 0 0 0.66796875 24.46875 A 23.267658 23.267661 0 0 0 23.935547 47.736328 A 23.267658 23.267661 0 0 0 47.203125 24.46875 A 23.267658 23.267661 0 0 0 23.935547 1.2011719 A 23.267658 23.267661 0 0 0 23.892578 1.2011719 z M 23.775391 2.5742188 A 21.894934 21.894938 0 0 1 23.935547 2.5742188 A 21.894934 21.894938 0 0 1 45.830078 24.46875 A 21.894934 21.894938 0 0 1 23.935547 46.363281 A 21.894934 21.894938 0 0 1 2.0410156 24.46875 A 21.894934 21.894938 0 0 1 23.775391 2.5742188 z " />
  <path
     id="path1076"
     style="fill:#82adc5;stroke:none;stroke-width:1px;stroke-linecap:butt;stroke-linejoin:miter;stroke-opacity:1;fill-opacity:1"
     d="M 25.873047 12.085938 L 19.857422 18.101562 L 1.5566406 18.101562 A 23.267658 23.267661 0 0 0 0.66796875 24.46875 A 23.267658 23.267661 0 0 0 23.935547 47.736328 A 23.267658 23.267661 0 0 0 47.203125 24.46875 A 23.267658 23.267661 0 0 0 43.632812 12.085938 L 25.873047 12.085938 z " />
  <text
     xml:space="preserve"
     style="font-style:normal;font-variant:normal;font-weight:bold;font-stretch:normal;font-size:13.4102px;line-height:1.25;font-family:sans-serif;-inkscape-font-specification:'sans-serif Bold';fill:#ffffff;fill-opacity:1;stroke:none;stroke-width:0.335256"
     x="15.905653"
     y="32.093487"
     id="text835"
     transform="scale(0.86455442,1.1566652)"><tspan
       sodipodi:role="line"
       id="tspan833"
       x="15.905653"
       y="32.093487"
       style="fill:#ffffff;stroke-width:0.335256">MC</tspan></text>
</svg>
