<?xml version="1.0" encoding="UTF-8" standalone="no"?>
<svg
   xmlns:dc="http://purl.org/dc/elements/1.1/"
   xmlns:cc="http://creativecommons.org/ns#"
   xmlns:rdf="http://www.w3.org/1999/02/22-rdf-syntax-ns#"
   xmlns:svg="http://www.w3.org/2000/svg"
   xmlns="http://www.w3.org/2000/svg"
   xmlns:sodipodi="http://sodipodi.sourceforge.net/DTD/sodipodi-0.dtd"
   xmlns:inkscape="http://www.inkscape.org/namespaces/inkscape"
   height="48"
   viewBox="0 0 47.999999 47.999999"
   width="48"
   version="1.1"
   id="svg10"
   sodipodi:docname="org.midori_browser.Midori.svg"
   inkscape:version="1.0.2 (e86c870879, 2021-01-15)">
  <metadata
     id="metadata16">
    <rdf:RDF>
      <cc:Work
         rdf:about="">
        <dc:format>image/svg+xml</dc:format>
        <dc:type
           rdf:resource="http://purl.org/dc/dcmitype/StillImage" />
      </cc:Work>
    </rdf:RDF>
  </metadata>
  <defs
     id="defs14" />
  <sodipodi:namedview
     pagecolor="#ffffff"
     bordercolor="#666666"
     borderopacity="1"
     objecttolerance="10"
     gridtolerance="10"
     guidetolerance="10"
     inkscape:pageopacity="0"
     inkscape:pageshadow="2"
     inkscape:window-width="1920"
     inkscape:window-height="1031"
     id="namedview12"
     showgrid="false"
     inkscape:zoom="18.916667"
     inkscape:cx="24"
     inkscape:cy="24"
     inkscape:window-x="0"
     inkscape:window-y="24"
     inkscape:window-maximized="1"
     inkscape:current-layer="svg10" />
  <g
     fill-rule="evenodd"
     transform="translate(0 -1004.3622)"
     id="g8">
    <path
       d="m196.27499 575.17534c-121.139071 0-219.342946 98.20391-219.342946 219.34297 0 93.87058 58.966816 173.96863 141.880506 205.27237-78.725001-33.29789-133.967323-111.25281-133.967323-202.10711 0-121.13905 98.203875-219.34295 219.342953-219.34295 27.26436 0 53.36748 4.97977 77.45002 14.07056-26.23883-11.09647-55.08247-17.23584-85.36321-17.23584z"
       fill="#ffffff"
       fill-opacity=".158416"
       id="path2" />
    <circle
       cx="23.981405"
       cy="1029.2708"
       fill="#87aade"
       r="23.14761"
       id="circle4"
       style="fill:#87bbde;fill-opacity:1" />
    <path
       d="m22.990035 1029.1992c6.403863 0 11.595208-5.1913 11.595208-11.5952 0-6.4038-5.191345-11.5952-11.152777-11.6027 13.285326-.01 23.696548 10.4038 23.696548 23.2467s-10.411222 23.2541-23.425431 23.1698c-6.575157-.084-11.766523-5.2756-11.766523-11.6795 0-6.4038 5.191366-11.5951 11.595208-11.5951"
       fill="#8dd35f"
       id="path6"
       style="fill:#9adaaa;fill-opacity:1" />
  </g>
</svg>
