<?xml version="1.0" encoding="UTF-8" standalone="no"?>
<svg
   xmlns:dc="http://purl.org/dc/elements/1.1/"
   xmlns:cc="http://creativecommons.org/ns#"
   xmlns:rdf="http://www.w3.org/1999/02/22-rdf-syntax-ns#"
   xmlns:svg="http://www.w3.org/2000/svg"
   xmlns="http://www.w3.org/2000/svg"
   xmlns:sodipodi="http://sodipodi.sourceforge.net/DTD/sodipodi-0.dtd"
   xmlns:inkscape="http://www.inkscape.org/namespaces/inkscape"
   height="48"
   width="48"
   version="1.1"
   id="svg8"
   sodipodi:docname="minetime.svg"
   inkscape:version="1.0.2 (e86c870879, 2021-01-15)">
  <metadata
     id="metadata14">
    <rdf:RDF>
      <cc:Work
         rdf:about="">
        <dc:format>image/svg+xml</dc:format>
        <dc:type
           rdf:resource="http://purl.org/dc/dcmitype/StillImage" />
        <dc:title></dc:title>
      </cc:Work>
    </rdf:RDF>
  </metadata>
  <defs
     id="defs12" />
  <sodipodi:namedview
     pagecolor="#ffffff"
     bordercolor="#666666"
     borderopacity="1"
     objecttolerance="10"
     gridtolerance="10"
     guidetolerance="10"
     inkscape:pageopacity="0"
     inkscape:pageshadow="2"
     inkscape:window-width="1920"
     inkscape:window-height="1031"
     id="namedview10"
     showgrid="false"
     inkscape:zoom="9.4583336"
     inkscape:cx="14.598212"
     inkscape:cy="22.238518"
     inkscape:window-x="0"
     inkscape:window-y="24"
     inkscape:window-maximized="1"
     inkscape:current-layer="svg8"
     inkscape:document-rotation="0" />
  <path
     d="m44.322082 27.405077a19.729762 19.729765 0 0 1 -19.729762 19.729765 19.729762 19.729765 0 0 1 -19.7297621-19.729765 19.729762 19.729765 0 0 1 19.7297621-19.7297632 19.729762 19.729765 0 0 1 19.729762 19.7297632z"
     fill="#89a02c"
     opacity=".99"
     transform="matrix(1.1503549 0 0 1.1503549 -4.486125 -7.525565)"
     id="path2"
     style="fill:#7c86c7;fill-opacity:1" />
  <path
     style="fill:#ffffff;fill-opacity:1;stroke:none;stroke-width:0.783562px;stroke-linecap:butt;stroke-linejoin:miter;stroke-opacity:1"
     d="m 12.642076,8.571691 -2.56494,4.701368 H 8.5100144 V 38.347018 H 39.068902 V 13.273059 H 23.611933 L 20.477688,8.571691 Z m 1.062092,1.0728065 c 0.254963,0 0.454074,0.074035 0.596853,0.2219065 0.14278,0.147878 0.214255,0.349543 0.214255,0.604505 0,0.170825 -0.04058,0.327563 -0.120905,0.472891 -0.07903,0.145329 -0.21178,0.336271 -0.397902,0.570837 l -0.362704,0.520334 h 0.941192 v 0.4331 h -1.645168 v -0.368825 l 0.759076,-0.961086 c 0.100707,-0.142779 0.172441,-0.267606 0.215785,-0.373416 0.04461,-0.105807 0.06734,-0.202556 0.06734,-0.289243 0,-0.118557 -0.02297,-0.21352 -0.06887,-0.286184 -0.0459,-0.07267 -0.112258,-0.10866 -0.19895,-0.10866 -0.08923,0 -0.158161,0.04365 -0.206604,0.131613 -0.04717,0.08796 -0.0704,0.20309 -0.0704,0.345869 h -0.529521 l -0.0047,-0.0092 c -0.005,-0.252413 0.06637,-0.466586 0.214255,-0.6412348 0.147878,-0.175924 0.346991,-0.2632284 0.596853,-0.2632284 z m 1.98339,0 c 0.248588,0 0.445913,0.097009 0.593792,0.2907747 0.147878,0.1924958 0.221907,0.4735508 0.221907,0.8432468 v 0.598383 c 0,0.37097 -0.07404,0.65228 -0.221907,0.844777 -0.146604,0.191222 -0.343418,0.287713 -0.590732,0.287713 -0.249862,0 -0.448975,-0.09649 -0.596853,-0.287713 -0.147878,-0.192497 -0.221906,-0.473807 -0.221906,-0.844777 v -0.598383 c 0,-0.369696 0.07377,-0.650751 0.220376,-0.8432468 0.147877,-0.1937719 0.346735,-0.2907747 0.595323,-0.2907747 z m 3.874955,0 c 0.243489,0 0.442345,0.097767 0.595322,0.2953658 0.152979,0.1963207 0.22956,0.4715027 0.22956,0.8233517 v 0.681024 c 0,0.326352 -0.08705,0.584943 -0.261698,0.77744 -0.173374,0.191222 -0.393163,0.287713 -0.659599,0.287713 -0.07903,0 -0.163022,-0.01023 -0.250984,-0.03061 -0.08796,-0.0204 -0.169649,-0.05052 -0.244863,-0.08877 l 0.06122,-0.405554 c 0.07011,0.0306 0.139039,0.05357 0.206604,0.06887 0.06885,0.01403 0.145166,0.02142 0.228028,0.02142 0.109633,0 0.199491,-0.05309 0.27088,-0.157631 0.07267,-0.104532 0.10866,-0.250551 0.10866,-0.439223 v -0.107133 c -0.051,0.07393 -0.110213,0.1301 -0.179057,0.168344 -0.06757,0.03825 -0.139297,0.05816 -0.215785,0.05816 -0.217993,0 -0.38928,-0.08628 -0.514212,-0.257106 -0.123656,-0.172099 -0.186708,-0.405163 -0.186708,-0.70092 0,-0.279184 0.07659,-0.515819 0.229559,-0.7070413 0.154252,-0.192497 0.348514,-0.2877136 0.58308,-0.2877136 z m -1.599262,0.038261 v 2.7853145 h -0.543288 v -2.216008 l -0.517274,0.01224 V 9.8709976 Z m 1.59467,0.4086145 c -0.07776,-0.0051 -0.141581,0.04826 -0.191299,0.159161 -0.04972,0.109632 -0.07498,0.239567 -0.07498,0.38872 0,0.167001 0.02272,0.299996 0.06734,0.399432 0.04462,0.09943 0.108951,0.148448 0.19436,0.148448 0.06375,0 0.119895,-0.01531 0.168344,-0.04591 0.04971,-0.03187 0.09081,-0.07501 0.12396,-0.128553 V 10.69588 c 0,-0.20142 -0.02552,-0.354329 -0.07652,-0.457587 -0.051,-0.103258 -0.117623,-0.152017 -0.200482,-0.146919 z m -3.876485,0.0015 c -0.08541,-0.0063 -0.151528,0.04212 -0.19742,0.145387 -0.0459,0.103258 -0.06887,0.26689 -0.06887,0.491258 v 0.691741 c 0,0.226916 0.02475,0.391313 0.07193,0.495848 0.04717,0.103257 0.113546,0.151506 0.198952,0.143856 h 0.01073 c 0.08413,0.0077 0.148468,-0.0406 0.194361,-0.143856 0.0459,-0.103258 0.06887,-0.267657 0.06887,-0.495848 v -0.691734 c 0,-0.224367 -0.02323,-0.387997 -0.0704,-0.491256 -0.04717,-0.103258 -0.111753,-0.151762 -0.195891,-0.145388 z m 3.798435,11.015772 h 1.567123 l 2.350683,3.134244 h 0.783562 l 2.350684,-3.134244 h 1.567122 l 0.783562,0.78356 v 7.052052 l -0.783562,0.78356 h -1.567122 l -0.783562,-0.78356 v -2.350684 l -0.78356,0.783562 h -2.350684 l -0.783562,-0.783562 v 2.350684 l -0.783561,0.78356 h -1.567123 l -0.783561,-0.78356 v -7.052052 z"
     id="path843" />
  <path
     style="fill:#ffffff;fill-opacity:1;stroke:none;stroke-width:0.783562px;stroke-linecap:butt;stroke-linejoin:miter;stroke-opacity:1"
     d="m 28.099045,8.571691 -2.326198,3.956065 H 37.939473 L 35.934657,8.571691 Z m 0.982512,1.0728065 c 0.254963,0 0.454074,0.074035 0.596853,0.2219065 0.14278,0.147878 0.214255,0.349543 0.214255,0.604505 0,0.170825 -0.04058,0.327563 -0.120905,0.472891 -0.07903,0.145329 -0.21178,0.336271 -0.397902,0.570837 l -0.362704,0.520334 h 0.941192 v 0.4331 h -1.645168 v -0.368825 l 0.759076,-0.961086 c 0.100707,-0.142779 0.172441,-0.267606 0.215785,-0.373416 0.04461,-0.105807 0.06734,-0.202556 0.06734,-0.289243 0,-0.118557 -0.02297,-0.21352 -0.06887,-0.286184 -0.0459,-0.07267 -0.112258,-0.10866 -0.19895,-0.10866 -0.08923,0 -0.158161,0.04365 -0.206604,0.131613 -0.04717,0.08796 -0.0704,0.20309 -0.0704,0.345869 h -0.529517 l -0.0047,-0.0092 c -0.0051,-0.252413 0.06637,-0.466586 0.214255,-0.6412348 0.147878,-0.175924 0.34699,-0.2632284 0.596853,-0.2632284 z m 1.98339,0 c 0.248588,0 0.445913,0.097009 0.593792,0.2907747 0.147878,0.1924958 0.221907,0.4735508 0.221907,0.8432468 v 0.598383 c 0,0.37097 -0.07404,0.65228 -0.221907,0.844777 -0.146604,0.191222 -0.343418,0.287713 -0.590732,0.287713 -0.249863,0 -0.448975,-0.09649 -0.596853,-0.287713 -0.147878,-0.192497 -0.221906,-0.473807 -0.221906,-0.844777 v -0.598383 c 0,-0.369696 0.07377,-0.650751 0.220376,-0.8432468 0.147878,-0.1937719 0.346735,-0.2907747 0.595323,-0.2907747 z m 3.89332,0 c 0.229466,0 0.413772,0.067143 0.554003,0.2035423 0.141503,0.1364047 0.212723,0.3278582 0.212723,0.5738972 0,0.14023 -0.03267,0.264801 -0.09642,0.371885 -0.06247,0.107082 -0.147473,0.189538 -0.257106,0.249453 0.124931,0.06375 0.222447,0.153087 0.293836,0.26782 0.07138,0.114732 0.107133,0.247218 0.107133,0.396371 0,0.258787 -0.07428,0.457643 -0.223438,0.595324 -0.149153,0.137678 -0.345712,0.206602 -0.589202,0.206602 -0.243488,0 -0.440303,-0.06892 -0.590731,-0.206602 -0.150428,-0.138955 -0.226498,-0.337812 -0.226498,-0.595324 0,-0.149153 0.03574,-0.281638 0.107133,-0.396371 0.07138,-0.116007 0.170691,-0.205354 0.296897,-0.26782 -0.110907,-0.05991 -0.197701,-0.142369 -0.260167,-0.249453 -0.06247,-0.107082 -0.09335,-0.231655 -0.09335,-0.371885 0,-0.246039 0.06943,-0.4374925 0.209663,-0.5738972 0.140229,-0.136406 0.326066,-0.2035423 0.555533,-0.2035423 z m -1.617627,0.038261 v 2.7853145 h -0.543288 v -2.216008 l -0.517272,0.01224 V 9.8709976 Z m 1.617627,0.3979015 c -0.07138,0 -0.125247,0.03141 -0.162222,0.09642 -0.03697,0.06501 -0.05663,0.156401 -0.05663,0.272409 0,0.117282 0.01965,0.209436 0.05663,0.277002 0.03825,0.06628 0.09236,0.09947 0.163752,0.09947 0.07138,0 0.125247,-0.03319 0.162221,-0.09947 0.03697,-0.06628 0.05509,-0.158444 0.05509,-0.277002 0,-0.113457 -0.01838,-0.203059 -0.05663,-0.269349 -0.03697,-0.06628 -0.09084,-0.09947 -0.162223,-0.09947 z m -3.899442,0.01224 c -0.08541,-0.0063 -0.151528,0.04212 -0.19742,0.145387 -0.0459,0.103258 -0.06887,0.266889 -0.06887,0.491257 v 0.691737 c 0,0.226917 0.02475,0.391313 0.07193,0.495847 0.04717,0.103258 0.113546,0.151507 0.198952,0.143857 h 0.01073 c 0.08413,0.0077 0.148468,-0.0406 0.194361,-0.143857 0.0459,-0.103257 0.06887,-0.267655 0.06887,-0.495847 v -0.691736 c 0,-0.224367 -0.02323,-0.387998 -0.0704,-0.491256 -0.04717,-0.103258 -0.111753,-0.151762 -0.19589,-0.145388 z m 3.899442,1.167689 c -0.08286,0 -0.148979,0.03625 -0.197422,0.110188 -0.04843,0.07266 -0.07193,0.171964 -0.07193,0.296896 0,0.127482 0.02348,0.227293 0.07193,0.299958 0.04843,0.07138 0.114808,0.107133 0.198952,0.107133 0.08158,0 0.145917,-0.03574 0.19436,-0.107133 0.04971,-0.07267 0.07498,-0.172476 0.07498,-0.299958 0,-0.124932 -0.02527,-0.224232 -0.07498,-0.296896 -0.04972,-0.07393 -0.114303,-0.110188 -0.19589,-0.110188 z"
     id="path817" />
  <path
     style="fill:none;stroke:#7c86c7;stroke-width:0.39178;stroke-linecap:butt;stroke-linejoin:miter;stroke-miterlimit:4;stroke-dasharray:none;stroke-opacity:0.992157"
     d="m 10.077136,17.974425 h 3.134246 V 14.05662"
     id="path829"
     inkscape:connector-curvature="0" />
  <path
     style="fill:none;stroke:#7c86c7;stroke-width:0.39178;stroke-linecap:butt;stroke-linejoin:miter;stroke-miterlimit:4;stroke-dasharray:none;stroke-opacity:0.992157"
     d="m 13.211382,17.974425 h 3.917806"
     id="path831"
     inkscape:connector-curvature="0" />
  <path
     style="fill:none;stroke:#7c86c7;stroke-width:0.39178;stroke-linecap:butt;stroke-linejoin:miter;stroke-miterlimit:4;stroke-dasharray:none;stroke-opacity:0.992157"
     d="M 17.129188,14.05662 V 29.727844"
     id="path833"
     inkscape:connector-curvature="0"
     sodipodi:nodetypes="cc" />
  <path
     style="fill:none;stroke:#7c86c7;stroke-width:0.39178;stroke-linecap:butt;stroke-linejoin:miter;stroke-miterlimit:4;stroke-dasharray:none;stroke-opacity:0.992157"
     d="M 10.077136,21.892231 H 21.046994"
     id="path835"
     inkscape:connector-curvature="0" />
  <path
     style="fill:none;stroke:#7c86c7;stroke-width:0.39178;stroke-linecap:butt;stroke-linejoin:miter;stroke-miterlimit:4;stroke-dasharray:none;stroke-opacity:0.992157"
     d="M 13.211382,14.05662 V 29.727844"
     id="path837"
     inkscape:connector-curvature="0"
     sodipodi:nodetypes="cc" />
  <path
     style="fill:none;stroke:#7c86c7;stroke-width:0.39178;stroke-linecap:butt;stroke-linejoin:miter;stroke-miterlimit:4;stroke-dasharray:none;stroke-opacity:0.992157"
     d="m 10.077136,25.810038 h 7.052052"
     id="path839"
     inkscape:connector-curvature="0" />
  <path
     inkscape:connector-curvature="0"
     id="path841"
     d="M 27.315483,33.64565 H 38.285341"
     style="fill:none;stroke:#7c86c7;stroke-width:0.39178;stroke-linecap:butt;stroke-linejoin:miter;stroke-miterlimit:4;stroke-dasharray:none;stroke-opacity:0.992157" />
  <path
     sodipodi:nodetypes="cc"
     inkscape:connector-curvature="0"
     id="path844"
     d="M 35.151096,22.675793 V 38.347018"
     style="fill:none;stroke:#7c86c7;stroke-width:0.39178;stroke-linecap:butt;stroke-linejoin:miter;stroke-miterlimit:4;stroke-dasharray:none;stroke-opacity:0.992157" />
</svg>
