<?xml version="1.0" encoding="UTF-8" standalone="no"?>
<svg
   height="48"
   width="48"
   version="1.1"
   id="svg8"
   sodipodi:docname="mozilla_thunderbird.svg"
   inkscape:version="1.1.2 (0a00cf5339, 2022-02-04)"
   xmlns:inkscape="http://www.inkscape.org/namespaces/inkscape"
   xmlns:sodipodi="http://sodipodi.sourceforge.net/DTD/sodipodi-0.dtd"
   xmlns="http://www.w3.org/2000/svg"
   xmlns:svg="http://www.w3.org/2000/svg"
   xmlns:rdf="http://www.w3.org/1999/02/22-rdf-syntax-ns#"
   xmlns:cc="http://creativecommons.org/ns#"
   xmlns:dc="http://purl.org/dc/elements/1.1/">
  <metadata
     id="metadata14">
    <rdf:RDF>
      <cc:Work
         rdf:about="">
        <dc:format>image/svg+xml</dc:format>
        <dc:type
           rdf:resource="http://purl.org/dc/dcmitype/StillImage" />
        <dc:title />
      </cc:Work>
    </rdf:RDF>
  </metadata>
  <defs
     id="defs12" />
  <sodipodi:namedview
     pagecolor="#ffffff"
     bordercolor="#666666"
     borderopacity="1"
     objecttolerance="10"
     gridtolerance="10"
     guidetolerance="10"
     inkscape:pageopacity="0"
     inkscape:pageshadow="2"
     inkscape:window-width="1920"
     inkscape:window-height="1031"
     id="namedview10"
     showgrid="false"
     inkscape:zoom="9.4583335"
     inkscape:cx="-113.81498"
     inkscape:cy="-16.123348"
     inkscape:window-x="0"
     inkscape:window-y="0"
     inkscape:window-maximized="1"
     inkscape:current-layer="svg8"
     inkscape:document-rotation="0"
     inkscape:pagecheckerboard="0" />
  <path
     d="m44.322082 27.405077a19.729762 19.729765 0 0 1 -19.729762 19.729765 19.729762 19.729765 0 0 1 -19.7297621-19.729765 19.729762 19.729765 0 0 1 19.7297621-19.7297632 19.729762 19.729765 0 0 1 19.729762 19.7297632z"
     fill="#89a02c"
     opacity=".99"
     transform="matrix(1.1503549 0 0 1.1503549 -4.486125 -7.525565)"
     id="path2"
     style="fill:#82a5cd;fill-opacity:1" />
  <path
     id="path880"
     style="fill:#ffffff;fill-opacity:1;stroke-width:1.0494"
     d="M 23.804688 3.2949219 A 20.704357 20.704361 0 0 0 3.0996094 24 A 20.704357 20.704361 0 0 0 23.804688 44.705078 A 20.704357 20.704361 0 0 0 44.507812 24 A 20.704357 20.704361 0 0 0 23.804688 3.2949219 z " />
  <path
     id="rect1065"
     style="fill:#bf616a;fill-opacity:1;stroke-width:0.29899"
     d="M 28.880859 1.8789062 L 19.390625 19.330078 L 22.285156 21.560547 L 21.822266 21.572266 L 21.494141 24.027344 L 20.222656 21.947266 L 20.291016 21.822266 L 20.015625 21.607422 L 10.933594 6.765625 L 7.734375 8.0839844 L 5.8164062 11.048828 L 12.603516 22.142578 L 4.8242188 36.447266 A 22.696228 22.696232 0 0 0 5.2285156 37.041016 L 10.011719 40.722656 L 17.412109 27.119141 L 28.375 45.037109 L 34.552734 42.490234 L 25.732422 28.074219 L 45.050781 27.648438 L 45.134766 21.023438 L 25.521484 21.478516 L 34.130859 5.6484375 L 29.402344 2.0058594 A 22.696228 22.696232 0 0 0 28.880859 1.8789062 z " />
  <path
     id="rect1067"
     style="fill:#5e81ac;fill-opacity:1;stroke-width:0.298991"
     d="M 16.574219 2.4863281 A 22.696228 22.696232 0 0 0 16.203125 2.6152344 L 16.708984 22.466797 L 22.990234 23.304688 L 22.945312 21.501953 L 23.980469 24.013672 L 21.753906 26.90625 L 21.716797 26.886719 L 21.644531 24.044922 L 15.021484 23.162109 L 15.023438 23.246094 L 3.9121094 17.203125 L 1.2070312 23.185547 L 15.216797 30.853516 L 15.568359 44.671875 L 22.193359 45.554688 L 21.779297 29.306641 L 38.859375 38.595703 L 42.904297 33.34375 L 26.876953 24.626953 L 42.480469 15.080078 L 39.960938 8.96875 L 22.890625 19.414062 L 22.480469 3.2734375 L 16.574219 2.4863281 z " />
  <path
     id="path1160"
     style="fill:#a7bad0;fill-opacity:1;stroke-width:1.15035"
     d="M 23.804688 1.3046875 A 22.696228 22.696232 0 0 0 1.1074219 24 A 22.696228 22.696232 0 0 0 23.804688 46.695312 A 22.696228 22.696232 0 0 0 46.5 24 A 22.696228 22.696232 0 0 0 23.804688 1.3046875 z M 23.804688 3.2949219 A 20.704357 20.704361 0 0 1 44.507812 24 A 20.704357 20.704361 0 0 1 23.804688 44.705078 A 20.704357 20.704361 0 0 1 3.0996094 24 A 20.704357 20.704361 0 0 1 23.804688 3.2949219 z " />
  <path
     id="path1173"
     style="fill:#ffffff;fill-opacity:1;stroke-width:0.954314"
     d="M 23.802734 5.171875 A 18.82834 18.828343 0 0 0 4.9746094 24 A 18.82834 18.828343 0 0 0 23.804688 42.828125 A 18.82834 18.828343 0 0 0 42.632812 24 A 18.82834 18.828343 0 0 0 23.802734 5.171875 z " />
  <path
     id="path19"
     style="fill:#5e81ac;stroke-width:1.52629;fill-opacity:1"
     d="M 31.755859 8.890625 C 28.527237 9.0654656 27.294954 11.341336 25.650391 14.994141 L 25.650391 13.46875 C 21.228168 16.674453 22.058875 18.679126 21.072266 21.099609 L 21.072266 19.574219 C 18.375812 24.139013 18.981351 25.730005 18.019531 28.732422 L 28.703125 13.46875 L 19.544922 28.732422 C 22.983937 27.818461 25.727397 26.853027 25.650391 25.679688 L 24.125 25.679688 C 25.969906 24.8325 27.946121 24.05579 28.703125 22.626953 L 27.177734 22.626953 C 29.713005 20.624019 30.282057 19.919601 31.755859 16.521484 L 30.228516 16.521484 C 32.187436 14.585783 32.001687 11.750898 31.755859 8.890625 z M 19.544922 28.732422 L 18.019531 28.732422 C 15.877908 31.912492 15.848461 33.326093 14.966797 36.363281 L 14.966797 37.888672 C 15.817573 34.74531 17.647634 31.306163 19.544922 28.732422 z " />
</svg>
