<?xml version="1.0" encoding="UTF-8" standalone="no"?>
<svg
   xmlns:dc="http://purl.org/dc/elements/1.1/"
   xmlns:cc="http://creativecommons.org/ns#"
   xmlns:rdf="http://www.w3.org/1999/02/22-rdf-syntax-ns#"
   xmlns:svg="http://www.w3.org/2000/svg"
   xmlns="http://www.w3.org/2000/svg"
   xmlns:sodipodi="http://sodipodi.sourceforge.net/DTD/sodipodi-0.dtd"
   xmlns:inkscape="http://www.inkscape.org/namespaces/inkscape"
   height="48"
   width="48"
   version="1.1"
   id="svg8"
   sodipodi:docname="mps.svg"
   inkscape:version="1.0.2 (e86c870879, 2021-01-15)">
  <metadata
     id="metadata14">
    <rdf:RDF>
      <cc:Work
         rdf:about="">
        <dc:format>image/svg+xml</dc:format>
        <dc:type
           rdf:resource="http://purl.org/dc/dcmitype/StillImage" />
        <dc:title></dc:title>
      </cc:Work>
    </rdf:RDF>
  </metadata>
  <defs
     id="defs12" />
  <sodipodi:namedview
     pagecolor="#ffffff"
     bordercolor="#666666"
     borderopacity="1"
     objecttolerance="10"
     gridtolerance="10"
     guidetolerance="10"
     inkscape:pageopacity="0"
     inkscape:pageshadow="2"
     inkscape:window-width="1920"
     inkscape:window-height="1031"
     id="namedview10"
     showgrid="false"
     inkscape:zoom="9.4583333"
     inkscape:cx="9.6322786"
     inkscape:cy="30.689624"
     inkscape:window-x="0"
     inkscape:window-y="24"
     inkscape:window-maximized="1"
     inkscape:current-layer="svg8"
     inkscape:document-rotation="0" />
  <path
     d="m44.322082 27.405077a19.729762 19.729765 0 0 1 -19.729762 19.729765 19.729762 19.729765 0 0 1 -19.7297621-19.729765 19.729762 19.729765 0 0 1 19.7297621-19.7297632 19.729762 19.729765 0 0 1 19.729762 19.7297632z"
     fill="#89a02c"
     opacity=".99"
     transform="matrix(1.1503549 0 0 1.1503549 -4.486125 -7.525565)"
     id="path2"
     style="fill:#6ba39d;fill-opacity:1" />
  <path
     d="M 44.322082,27.405077 H 4.8625579 c 1e-6,-10.896448 8.8333161,-19.7297633 19.7297621,-19.7297632 10.896446,0 19.729761,8.8333152 19.729762,19.7297632 z"
     fill="#89a02c"
     opacity="0.99"
     transform="matrix(1.1503549,0,0,1.1503549,-4.486125,-7.525565)"
     id="path839"
     sodipodi:nodetypes="ccsc"
     style="fill:#ffffff;fill-opacity:0.16203129" />
  <path
     d="m 44.322082,27.405077 c 0,10.896448 -8.833315,19.729765 -19.729762,19.729765 V 7.6753138 c 10.896446,0 19.729761,8.8333152 19.729762,19.7297632 z"
     fill="#89a02c"
     opacity="0.99"
     transform="matrix(1.1503549,0,0,1.1503549,-4.486125,-7.525565)"
     id="path841"
     sodipodi:nodetypes="sccs"
     style="fill:#4570c4;fill-opacity:0.2576012" />
  <path
     d="M 11.416127,12.69551 V 36.743857 H 35.464474 V 12.69551 Z m 19.093883,4.272598 c 0.742716,0 1.346554,0.225473 1.810752,0.675388 0.464197,0.446345 0.689671,1.010506 0.675388,1.692519 l -0.01134,0.03239 h -1.478727 c 0,-0.357075 -0.0887,-0.646738 -0.26724,-0.868124 -0.178537,-0.221387 -0.429812,-0.332026 -0.75475,-0.332026 -0.303514,0 -0.541243,0.0929 -0.712639,0.278578 -0.167826,0.182108 -0.252664,0.411445 -0.252664,0.689964 0,0.257095 0.09581,0.470311 0.285056,0.638136 0.18925,0.164256 0.516969,0.347144 0.984738,0.550677 0.739146,0.249953 1.295247,0.568324 1.666606,0.953965 0.374928,0.382071 0.562013,0.899782 0.562013,1.55323 0,0.674873 -0.225473,1.203553 -0.675388,1.585624 -0.449916,0.38207 -1.048268,0.573351 -1.794557,0.573351 -0.742716,0 -1.385899,-0.215794 -1.932225,-0.647855 -0.542754,-0.435632 -0.806616,-1.058498 -0.788762,-1.869059 l 0.01134,-0.03239 h 1.483586 c 0,0.482052 0.102578,0.827512 0.306112,1.038186 0.203531,0.210675 0.509315,0.315829 0.919952,0.315829 0.321368,0 0.559096,-0.08451 0.71264,-0.255902 0.157114,-0.171396 0.236467,-0.403642 0.236467,-0.696444 0,-0.303514 -0.07935,-0.542531 -0.236467,-0.717498 -0.157114,-0.178537 -0.4329,-0.353366 -0.829253,-0.524762 -0.810562,-0.282089 -1.419883,-0.601749 -1.82695,-0.958824 -0.403495,-0.360647 -0.605743,-0.864814 -0.605743,-1.51112 0,-0.639165 0.236441,-1.158165 0.70778,-1.55809 0.47134,-0.403494 1.07227,-0.605743 1.804275,-0.605743 z m -16.646614,0.111755 h 1.975955 l 1.397746,5.727031 h 0.03239 l 1.413942,-5.727031 h 1.987292 v 7.798544 h -1.515978 v -2.264249 l 0.12957,-3.031958 -0.03239,-0.0065 -1.488445,5.302686 h -1.012272 l -1.473869,-5.258956 -0.03239,0.0049 0.13443,2.989848 v 2.264249 h -1.515979 z m 7.95403,0 h 2.70965 c 0.778424,0 1.39323,0.230957 1.843145,0.691584 0.449915,0.460627 0.675388,1.064465 0.675388,1.810753 0,0.749858 -0.226761,1.354983 -0.680246,1.815611 -0.449916,0.457057 -1.063433,0.685106 -1.838287,0.685105 h -1.183954 v 2.795491 h -1.525696 z m 1.525696,1.221205 v 2.560643 h 1.183954 c 0.324939,0 0.573636,-0.118698 0.745032,-0.357938 0.171397,-0.239242 0.257522,-0.544068 0.257522,-0.911856 0,-0.371358 -0.08613,-0.677141 -0.257522,-0.919953 -0.167825,-0.246381 -0.416522,-0.370896 -0.745032,-0.370896 z M 13.903887,30.10983 h 9.95104 v 1.658507 h -9.95104 z"
     fill="#ffffff"
     id="path10-3"
     style="stroke-width:0.829253" />
</svg>
