<?xml version="1.0" encoding="UTF-8" standalone="no"?>
<svg
   xmlns:dc="http://purl.org/dc/elements/1.1/"
   xmlns:cc="http://creativecommons.org/ns#"
   xmlns:rdf="http://www.w3.org/1999/02/22-rdf-syntax-ns#"
   xmlns:svg="http://www.w3.org/2000/svg"
   xmlns="http://www.w3.org/2000/svg"
   xmlns:sodipodi="http://sodipodi.sourceforge.net/DTD/sodipodi-0.dtd"
   xmlns:inkscape="http://www.inkscape.org/namespaces/inkscape"
   height="48"
   width="48"
   version="1.1"
   id="svg6"
   sodipodi:docname="ms-excel.svg"
   inkscape:version="1.0.2 (e86c870879, 2021-01-15)">
  <metadata
     id="metadata12">
    <rdf:RDF>
      <cc:Work
         rdf:about="">
        <dc:format>image/svg+xml</dc:format>
        <dc:type
           rdf:resource="http://purl.org/dc/dcmitype/StillImage" />
        <dc:title />
      </cc:Work>
    </rdf:RDF>
  </metadata>
  <defs
     id="defs10" />
  <sodipodi:namedview
     pagecolor="#ffffff"
     bordercolor="#666666"
     borderopacity="1"
     objecttolerance="10"
     gridtolerance="10"
     guidetolerance="10"
     inkscape:pageopacity="0"
     inkscape:pageshadow="2"
     inkscape:window-width="1920"
     inkscape:window-height="1028"
     id="namedview8"
     showgrid="false"
     inkscape:zoom="9.4583333"
     inkscape:cx="21.896482"
     inkscape:cy="38.77567"
     inkscape:window-x="0"
     inkscape:window-y="24"
     inkscape:window-maximized="1"
     inkscape:current-layer="svg6"
     inkscape:document-rotation="0" />
  <path
     id="circle2"
     style="opacity:0.99;fill:#a3be8c;fill-opacity:1"
     transform="matrix(1.75830584759 0 0 1.75830608345 -18.15909274367 -30.97874795549)"
     d="M 37.173613,31.534513 A 13.232998,13.232998 0 0 1 23.940615,44.767511 13.232998,13.232998 0 0 1 10.707617,31.534513 13.232998,13.232998 0 0 1 23.940615,18.301516 13.232998,13.232998 0 0 1 37.173613,31.534513 Z" />
  <path
     id="circle918"
     style="opacity:0.99;fill:#ffffff;fill-opacity:0.19750977"
     transform="matrix(1.7583058,0,0,1.7583061,-18.159093,-30.978748)"
     d="m 37.173613,31.534513 c 0,7.308383 -5.924615,13.232998 -13.232998,13.232998 V 18.301516 c 7.308383,0 13.232997,5.924614 13.232998,13.232997 z"
     sodipodi:nodetypes="sccs" />
  <path
     id="circle928"
     style="fill:#ffffff;fill-opacity:0.13356289;stroke-width:1.75831"
     d="M 23.892578 1.2011719 A 23.267658 23.267661 0 0 0 0.66796875 24.46875 A 23.267658 23.267661 0 0 0 1.9824219 32.175781 L 45.888672 32.175781 A 23.267658 23.267661 0 0 0 47.203125 24.46875 A 23.267658 23.267661 0 0 0 23.935547 1.2011719 A 23.267658 23.267661 0 0 0 23.892578 1.2011719 z " />
  <path
     id="path932"
     style="fill:#ffffff;fill-opacity:0.13356289;stroke-width:1.75831"
     d="M 23.892578 1.2011719 A 23.267658 23.267661 0 0 0 1.9921875 16.738281 L 45.878906 16.738281 A 23.267658 23.267661 0 0 0 23.935547 1.2011719 A 23.267658 23.267661 0 0 0 23.892578 1.2011719 z " />
  <path
     id="circle937"
     style="opacity:0.99;fill:#87aa69;fill-opacity:0.9921568"
     d="m 37.173613,31.534513 c 0,1.827096 -0.370288,3.567706 -1.039915,5.15088 -0.669626,1.583174 -1.63859,3.008912 -2.83594,4.206263 -2.394702,2.394701 -5.702952,3.875855 -9.357143,3.875855 -1.827096,0 -3.567706,-0.370288 -5.15088,-1.039915 -1.583174,-0.669626 -3.008913,-1.638589 -4.206263,-2.83594 -1.19735,-1.197351 -2.166314,-2.623089 -2.83594,-4.206263 z"
     sodipodi:nodetypes="cssssscc"
     transform="matrix(1.7583058,0,0,1.7583061,-18.159093,-30.978748)" />
  <text
     xml:space="preserve"
     style="font-style:normal;font-variant:normal;font-weight:bold;font-stretch:normal;font-size:23.7322px;line-height:1.25;font-family:'Roboto Condensed';-inkscape-font-specification:'Roboto Condensed, Bold';letter-spacing:0px;word-spacing:0px;fill:#ffffff;fill-opacity:1;stroke:none;stroke-width:0.593305"
     x="16.33252"
     y="49.463612"
     id="text825"
     transform="scale(1.1308921,0.88425766)"><tspan
       sodipodi:role="line"
       id="tspan823"
       x="16.33252"
       y="49.463612"
       style="font-style:normal;font-variant:normal;font-weight:bold;font-stretch:normal;font-family:'Roboto Condensed';-inkscape-font-specification:'Roboto Condensed, Bold';fill:#ffffff;stroke-width:0.593305">x</tspan></text>
</svg>
