<?xml version="1.0" encoding="UTF-8" standalone="no"?>
<svg
   height="48"
   width="48"
   version="1.1"
   id="svg6"
   sodipodi:docname="view-media-playlist.svg"
   inkscape:version="1.1.2 (0a00cf5339, 2022-02-04)"
   xmlns:inkscape="http://www.inkscape.org/namespaces/inkscape"
   xmlns:sodipodi="http://sodipodi.sourceforge.net/DTD/sodipodi-0.dtd"
   xmlns="http://www.w3.org/2000/svg"
   xmlns:svg="http://www.w3.org/2000/svg">
  <defs
     id="defs10" />
  <sodipodi:namedview
     id="namedview8"
     pagecolor="#ffffff"
     bordercolor="#666666"
     borderopacity="1.0"
     inkscape:pageshadow="2"
     inkscape:pageopacity="0.0"
     inkscape:pagecheckerboard="0"
     showgrid="false"
     inkscape:zoom="16.375"
     inkscape:cx="12.48855"
     inkscape:cy="24.030534"
     inkscape:window-width="1920"
     inkscape:window-height="1031"
     inkscape:window-x="0"
     inkscape:window-y="0"
     inkscape:window-maximized="1"
     inkscape:current-layer="svg6" />
  <path
     id="circle2"
     transform="matrix(1.72140702696 0 0 1.72140725788 -17.2289093957 -30.06939350282)"
     style="opacity:0.99;fill:#d08770;fill-opacity:1"
     d="M 37.173613,31.534513 A 13.232998,13.232998 0 0 1 23.940615,44.767511 13.232998,13.232998 0 0 1 10.707617,31.534513 13.232998,13.232998 0 0 1 23.940615,18.301516 13.232998,13.232998 0 0 1 37.173613,31.534513 Z" />
  <path
     d="m25.36799 7.154172c-.792685-.077659-.367482.8573213-.473993 1.3400823-.0078 6.8141397.01563 13.6301717-.01171 20.4431287-.122884.648168-.884033.52715-1.344964.402621-2.881916-.255014-6.09145 1.741807-6.502101 4.755993-.429467 2.271148 1.879254 4.224849 4.027352 4.006622 2.956431-.168805 5.332977-3.16498 4.937426-6.102619.007-5.509457-.01395-11.020508.01045-16.528972.100234-.603948.882617-.640182 1.247192-.249674 2.717989 1.560703 5.161286 4.163394 5.377393 7.449601.118755.650043-.08965 2.25665-.04315 2.287285.951601-3.551913-.02941-7.628064-2.736482-10.157291-1.94778-2.074396-3.665181-4.781407-3.996028-7.5665523-.158823-.050998-.320419-.1019021-.491377-.080225z"
     fill="#f7f7f7"
     stroke="#ffffff"
     stroke-width=".985427"
     id="path4" />
</svg>
