<?xml version="1.0" encoding="UTF-8" standalone="no"?>
<svg
   xmlns:dc="http://purl.org/dc/elements/1.1/"
   xmlns:cc="http://creativecommons.org/ns#"
   xmlns:rdf="http://www.w3.org/1999/02/22-rdf-syntax-ns#"
   xmlns:svg="http://www.w3.org/2000/svg"
   xmlns="http://www.w3.org/2000/svg"
   xmlns:sodipodi="http://sodipodi.sourceforge.net/DTD/sodipodi-0.dtd"
   xmlns:inkscape="http://www.inkscape.org/namespaces/inkscape"
   height="48"
   width="48"
   version="1.1"
   id="svg6"
   sodipodi:docname="mx-datetime.svg"
   inkscape:version="1.0.2 (e86c870879, 2021-01-15)">
  <metadata
     id="metadata12">
    <rdf:RDF>
      <cc:Work
         rdf:about="">
        <dc:format>image/svg+xml</dc:format>
        <dc:type
           rdf:resource="http://purl.org/dc/dcmitype/StillImage" />
        <dc:title></dc:title>
      </cc:Work>
    </rdf:RDF>
  </metadata>
  <defs
     id="defs10" />
  <sodipodi:namedview
     pagecolor="#ffffff"
     bordercolor="#666666"
     borderopacity="1"
     objecttolerance="10"
     gridtolerance="10"
     guidetolerance="10"
     inkscape:pageopacity="0"
     inkscape:pageshadow="2"
     inkscape:window-width="1920"
     inkscape:window-height="1031"
     id="namedview8"
     showgrid="false"
     inkscape:zoom="13.376103"
     inkscape:cx="8.2943403"
     inkscape:cy="20.277808"
     inkscape:window-x="0"
     inkscape:window-y="24"
     inkscape:window-maximized="1"
     inkscape:current-layer="svg6"
     inkscape:document-rotation="0" />
  <circle
     cx="23.940615"
     cy="31.534513"
     fill="#5e81ac"
     opacity=".99"
     id="circle2"
     style="fill:#95aed4;fill-opacity:1"
     transform="matrix(1.75830584759 0 0 1.75830608345 -18.15909274367 -30.97874795549)"
     r="13.232998" />
  <path
     id="circle842"
     style="fill:#626a6d;fill-opacity:1;stroke-width:1.75831"
     d="M 23.892578 1.2011719 A 23.267658 23.267661 0 0 0 4.7539062 11.300781 L 43.117188 11.300781 A 23.267658 23.267661 0 0 0 23.935547 1.2011719 A 23.267658 23.267661 0 0 0 23.892578 1.2011719 z " />
  <circle
     style="fill:#ffffff;fill-opacity:1;stroke:none;stroke-width:1.2;stroke-linecap:square;stroke-opacity:0.992157"
     id="path849"
     cx="15.836551"
     cy="7.8996682"
     r="2.7945614" />
  <circle
     style="fill:#ffffff;fill-opacity:1;stroke:none;stroke-width:1.2;stroke-linecap:square;stroke-opacity:0.992157"
     id="circle847"
     cx="32.447353"
     cy="7.8996682"
     r="2.7945614" />
  <path
     id="path853"
     style="fill:#ffffff;fill-opacity:1;stroke-width:18.5398;stroke-linecap:round;stroke-linejoin:round"
     d="M 23.935832,12.81496 A 11.653622,11.653622 0 0 0 12.28221,24.468582 11.653622,11.653622 0 0 0 23.935832,36.122198 11.653622,11.653622 0 0 0 35.589451,24.468582 11.653622,11.653622 0 0 0 23.935832,12.81496 Z m 2.955823,4.211815 c 0.598704,0 1.192964,0.109221 1.782598,0.326931 0.598704,0.208641 1.251953,0.630315 1.959514,1.265304 0.716631,0.63499 1.074938,1.678228 1.074938,3.129632 0,2.077325 -0.630321,3.438434 -1.89123,4.082494 -1.260909,0.644062 -2.141353,1.055943 -2.640274,1.237369 -1.097625,0.399137 -1.809861,0.731174 -2.136428,0.99424 -0.689417,0.544277 -1.033555,1.25548 -1.033555,2.135394 v 0.08172 h 7.564923 v 1.592234 h -9.469603 v -1.14323 c 0,-2.10454 0.529858,-3.428551 1.591199,-3.972828 1.061341,-0.544257 1.773577,-0.889433 2.136428,-1.034571 l 0.884574,-0.35383 c 0.235856,-0.09072 0.657528,-0.266632 1.265305,-0.529709 0.607776,-0.272149 1.061133,-0.703607 1.360485,-1.293238 0.290282,-0.580562 0.435562,-1.14314 0.435562,-1.687417 0,-0.544276 -0.06774,-1.002014 -0.203811,-1.373937 -0.136072,-0.371922 -0.412465,-0.780461 -0.829744,-1.224953 -0.417279,-0.444493 -1.074905,-0.666276 -1.972962,-0.666276 -1.478621,0 -2.481419,0.765812 -3.007554,2.298859 l -1.700866,-0.625927 c 0.62592,-1.569332 1.437584,-2.498973 2.435425,-2.789254 0.997841,-0.299353 1.796372,-0.449013 2.395076,-0.449013 z m -7.946685,0.353831 h 1.333586 V 31.872104 H 18.442159 V 19.503586 l -2.041246,1.020102 v -1.877779 z" />
  <circle
     style="fill:#95aed4;stroke:#95aed4;stroke-width:1.5;stroke-linecap:square;stroke-miterlimit:4;stroke-dasharray:none;stroke-opacity:0.99215686;fill-opacity:0.99215686"
     id="path870"
     cx="33.95277"
     cy="35.048813"
     r="7.7699962" />
  <circle
     style="fill:#ffffff;fill-opacity:1;stroke-width:29.6902;stroke-linecap:round;stroke-linejoin:round"
     id="path865-3"
     cx="33.820763"
     cy="35.363617"
     r="1.2724354" />
  <path
     style="fill:none;stroke:#ffffff;stroke-width:0.848289px;stroke-linecap:butt;stroke-linejoin:miter;stroke-opacity:1"
     d="m 33.708848,30.337454 v 5.089742 h 2.544871"
     id="path867-6" />
  <path
     id="circle896"
     style="fill:#ffffff;fill-opacity:1;stroke:none;stroke-width:1.53727;stroke-linecap:square;stroke-miterlimit:4;stroke-dasharray:none;stroke-opacity:0.992157"
     d="m 33.95277,27.08592 a 7.9630423,7.9630423 0 0 0 -7.962891,7.962891 7.9630423,7.9630423 0 0 0 7.962891,7.96289 7.9630423,7.9630423 0 0 0 7.96289,-7.96289 7.9630423,7.9630423 0 0 0 -7.96289,-7.962891 z m -0.0332,0.757812 a 7.2049365,7.2049365 0 0 1 0.0332,0 7.2049365,7.2049365 0 0 1 7.205078,7.205079 7.2049365,7.2049365 0 0 1 -7.205078,7.205078 7.2049365,7.2049365 0 0 1 -7.205078,-7.205078 7.2049365,7.2049365 0 0 1 7.171875,-7.205079 z" />
</svg>
