<?xml version="1.0" encoding="UTF-8" standalone="no"?>
<svg
   xmlns:dc="http://purl.org/dc/elements/1.1/"
   xmlns:cc="http://creativecommons.org/ns#"
   xmlns:rdf="http://www.w3.org/1999/02/22-rdf-syntax-ns#"
   xmlns:svg="http://www.w3.org/2000/svg"
   xmlns="http://www.w3.org/2000/svg"
   xmlns:sodipodi="http://sodipodi.sourceforge.net/DTD/sodipodi-0.dtd"
   xmlns:inkscape="http://www.inkscape.org/namespaces/inkscape"
   height="48"
   width="48"
   version="1.1"
   id="svg6"
   sodipodi:docname="mx-tweak.svg"
   inkscape:version="1.0.2 (e86c870879, 2021-01-15)">
  <metadata
     id="metadata12">
    <rdf:RDF>
      <cc:Work
         rdf:about="">
        <dc:format>image/svg+xml</dc:format>
        <dc:type
           rdf:resource="http://purl.org/dc/dcmitype/StillImage" />
        <dc:title></dc:title>
      </cc:Work>
    </rdf:RDF>
  </metadata>
  <defs
     id="defs10" />
  <sodipodi:namedview
     pagecolor="#ffffff"
     bordercolor="#666666"
     borderopacity="1"
     objecttolerance="10"
     gridtolerance="10"
     guidetolerance="10"
     inkscape:pageopacity="0"
     inkscape:pageshadow="2"
     inkscape:window-width="1920"
     inkscape:window-height="1031"
     id="namedview8"
     showgrid="false"
     inkscape:zoom="13.376103"
     inkscape:cx="8.9844789"
     inkscape:cy="28.314246"
     inkscape:window-x="0"
     inkscape:window-y="24"
     inkscape:window-maximized="1"
     inkscape:current-layer="svg6"
     inkscape:document-rotation="0" />
  <circle
     cx="23.940615"
     cy="31.534513"
     fill="#5e81ac"
     opacity=".99"
     r="13.232998"
     transform="matrix(1.75830584759 0 0 1.75830608345 -18.15909274367 -30.97874795549)"
     id="circle2"
     style="fill:#82b0c9;fill-opacity:1" />
  <path
     id="path1026"
     style="fill:#f4e3aa;stroke:none;stroke-width:1px;stroke-linecap:butt;stroke-linejoin:miter;stroke-opacity:1;fill-opacity:1"
     d="M 39.976562 7.6152344 L 2.3066406 33.042969 A 23.267658 23.267661 0 0 0 23.935547 47.736328 A 23.267658 23.267661 0 0 0 47.203125 24.46875 A 23.267658 23.267661 0 0 0 39.976562 7.6152344 z " />
  <path
     id="path1021"
     style="fill:#d588a2;stroke:none;stroke-width:1px;stroke-linecap:butt;stroke-linejoin:miter;stroke-opacity:1;fill-opacity:1"
     d="M 26.619141 16.632812 L 13.869141 25.238281 L 11.708984 44.263672 A 23.267658 23.267661 0 0 0 23.935547 47.736328 A 23.267658 23.267661 0 0 0 36.580078 44 L 26.619141 16.632812 z " />
  <g
     style="fill:#ffffff"
     id="g10"
     transform="translate(0.13205868,0.46857802)">
    <path
       d="m 22,10 c -0.554,0 -0.95907,0.447514 -1,1 l -0.171875,2.330078 c -2.165358,0.518359 -4.133678,1.654163 -5.666016,3.269531 l -2.103515,-1.015625 c -0.479778,-0.277 -1.088236,-0.112591 -1.365235,0.367188 l -1.5,2.597656 c -0.2769992,0.479779 -0.09277,1.055499 0.365235,1.367188 l 1.923828,1.308593 C 12.164475,22.287423 12.001985,23.390649 12,24.5 c 0.0028,1.108791 0.165954,2.211348 0.484375,3.273438 l -1.925781,1.310546 c -0.479779,0.277 -0.6422342,0.88741 -0.365235,1.367188 l 1.5,2.597656 c 0.277,0.479779 0.866303,0.607985 1.365235,0.367188 l 2.097656,-1.011719 c 1.53418,1.615627 3.504639,2.750812 5.671875,3.267578 L 21,38 c 0,0.554 0.446,1 1,1 h 3 c 0.554,0 0.95907,-0.447514 1,-1 l 0.171875,-2.330078 c 2.165358,-0.518359 4.133678,-1.654163 5.666016,-3.269531 l 2.103515,1.015625 c 0.479778,0.277 1.088236,0.112591 1.365235,-0.367188 l 1.5,-2.597656 c 0.277001,-0.479779 0.09277,-1.055499 -0.365235,-1.367188 L 34.517578,27.775391 C 34.835525,26.712577 34.998015,25.609351 35,24.5 34.9972,23.391209 34.834046,22.288653 34.515625,21.226562 l 1.925781,-1.310546 c 0.479778,-0.277 0.642236,-0.88741 0.365235,-1.367188 l -1.5,-2.597656 c -0.277,-0.479779 -0.866303,-0.607985 -1.365235,-0.367188 L 31.84375,16.595703 C 30.30957,14.980076 28.339111,13.844891 26.171875,13.328125 L 26,11 c 0,-0.554 -0.446,-1 -1,-1 z m -4.513672,9.998047 h 1.771484 l 1.251954,6.306641 h 0.0293 l 1.267579,-6.306641 h 1.779297 v 8.589844 H 22.228516 V 26.09375 l 0.115234,-3.339844 -0.0293,-0.0059 -1.333984,5.839844 h -0.90625 l -1.320313,-5.792969 -0.0293,0.0059 0.121094,3.292969 v 2.494141 h -1.359375 z m 6.84961,0 h 1.568359 l 0.935547,3.003906 h 0.0293 l 0.949218,-3.003906 h 1.580079 l -1.69336,4.259765 1.808594,4.330079 h -1.646484 l -0.978516,-3.066407 h -0.0293 l -0.978516,3.066407 h -1.589843 l 1.738281,-4.330079 z"
       transform="translate(0.30377111,-0.4999991)"
       id="path4" />
  </g>
</svg>
