<?xml version="1.0" encoding="UTF-8" standalone="no"?>
<svg
   xmlns:dc="http://purl.org/dc/elements/1.1/"
   xmlns:cc="http://creativecommons.org/ns#"
   xmlns:rdf="http://www.w3.org/1999/02/22-rdf-syntax-ns#"
   xmlns:svg="http://www.w3.org/2000/svg"
   xmlns="http://www.w3.org/2000/svg"
   xmlns:sodipodi="http://sodipodi.sourceforge.net/DTD/sodipodi-0.dtd"
   xmlns:inkscape="http://www.inkscape.org/namespaces/inkscape"
   height="48"
   width="48"
   version="1.1"
   id="svg6"
   sodipodi:docname="MyPaint.svg"
   inkscape:version="1.0.2 (e86c870879, 2021-01-15)">
  <metadata
     id="metadata12">
    <rdf:RDF>
      <cc:Work
         rdf:about="">
        <dc:format>image/svg+xml</dc:format>
        <dc:type
           rdf:resource="http://purl.org/dc/dcmitype/StillImage" />
        <dc:title></dc:title>
      </cc:Work>
    </rdf:RDF>
  </metadata>
  <defs
     id="defs10" />
  <sodipodi:namedview
     pagecolor="#ffffff"
     bordercolor="#666666"
     borderopacity="1"
     objecttolerance="10"
     gridtolerance="10"
     guidetolerance="10"
     inkscape:pageopacity="0"
     inkscape:pageshadow="2"
     inkscape:window-width="1920"
     inkscape:window-height="1031"
     id="namedview8"
     showgrid="false"
     inkscape:zoom="13.376103"
     inkscape:cx="8.9844789"
     inkscape:cy="28.314246"
     inkscape:window-x="0"
     inkscape:window-y="24"
     inkscape:window-maximized="1"
     inkscape:current-layer="svg6"
     inkscape:document-rotation="0" />
  <circle
     cx="23.940615"
     cy="31.534513"
     fill="#5e81ac"
     opacity=".99"
     r="13.232998"
     transform="matrix(1.75830584759 0 0 1.75830608345 -18.15909274367 -30.97874795549)"
     id="circle2"
     style="fill:#cccccc;fill-opacity:1" />
  <ellipse
     cx="23.935829"
     cy="24.468578"
     fill="#5e81ac"
     opacity="0.99"
     id="circle878"
     style="fill:#ffffff;fill-opacity:1;stroke-width:1.59854"
     rx="21.15344"
     ry="21.153442" />
  <g
     id="g41"
     transform="matrix(0.10920258,0,0,0.10920258,-20.802484,4.0741408)">
    <path
       d="m 439.59,218.46 v 0 l -8.6,5.07 z"
       id="use35"
       style="fill:#5c546a;fill-opacity:1" />
    <g
       id="g39">
      <path
         d="m 439.59,218.46 v 0 l -8.6,5.07 z"
         id="use37"
         style="fill-opacity:0;stroke:#000000;stroke-width:1;stroke-opacity:0" />
    </g>
  </g>
  <g
     id="g49"
     transform="matrix(0.10920258,0,0,0.10920258,-20.802484,4.0741408)">
    <path
       d="m 322.81,256.19 c -0.53,-0.32 -1.12,-0.64 -1.74,-0.97 -4.94,-2.61 -11.57,-5.08 -17.99,-7.47 -5.71,-2.13 -11.11,-4.15 -14.64,-6.01 -2.48,-1.31 -3.16,-2.1 -3.34,-2.42 -1.53,-4.37 6.8,-9.66 10.37,-11.93 0.91,-0.58 1.63,-1.04 2.09,-1.39 6.47,-4.98 12.37,-10.8 11.71,-19.63 -0.55,-7.34 -6.33,-16 -14.66,-22.02 -2.38,-1.84 -5.27,-3.64 -9.11,-5.66 -3.16,-1.67 -6.62,-3.31 -9.96,-4.89 -3.43,-1.62 -6.98,-3.3 -10.3,-5.05 -11.42,-6.02 -16.98,-11.43 -18.57,-18.04 -2.79,-12.59 14.29,-23.48 26.81,-25.16 0.77,-0.1 1.16,-0.73 0.9,-1.44 -0.27,-0.7 -1.1,-1.24 -1.91,-1.24 -14.96,0.12 -28.68,7.43 -33.36,17.78 -2.5,5.52 -3.65,14.42 5.08,25.45 4.7,5.94 14.31,11.74 23.61,17.35 9.14,5.52 18.6,11.23 20.17,15.53 0.41,1.13 0.25,2.15 -0.5,3.15 -3.28,4.62 -9.11,7.8 -14.76,10.88 -10.66,5.81 -21.69,11.81 -16.49,27.68 4.58,13.94 16.96,20.48 29.72,27.12 1.04,0.55 2.09,1.09 3.13,1.64 5.55,2.93 11.9,6.44 16.92,11.01 3.51,3.37 4.29,6.93 2.69,12.33 -0.83,3.38 -0.28,6.69 1.16,9.72 1.07,-1.2 2.58,-2.08 4.43,-2.52 9.13,-2.17 10.61,-7.93 12.84,-19.71 1.03,-5.47 2.18,-11.54 4.78,-17.44 -2.89,-2.58 -5.87,-4.77 -9.08,-6.65 z"
       id="use43"
       style="fill:#8ea4bf;fill-opacity:1" />
    <g
       id="g47">
      <path
         d="m 322.81,256.19 c -0.53,-0.32 -1.12,-0.64 -1.74,-0.97 -4.94,-2.61 -11.57,-5.08 -17.99,-7.47 -5.71,-2.13 -11.11,-4.15 -14.64,-6.01 -2.48,-1.31 -3.16,-2.1 -3.34,-2.42 -1.53,-4.37 6.8,-9.66 10.37,-11.93 0.91,-0.58 1.63,-1.04 2.09,-1.39 6.47,-4.98 12.37,-10.8 11.71,-19.63 -0.55,-7.34 -6.33,-16 -14.66,-22.02 -2.38,-1.84 -5.27,-3.64 -9.11,-5.66 -3.16,-1.67 -6.62,-3.31 -9.96,-4.89 -3.43,-1.62 -6.98,-3.3 -10.3,-5.05 -11.42,-6.02 -16.98,-11.43 -18.57,-18.04 -2.79,-12.59 14.29,-23.48 26.81,-25.16 0.77,-0.1 1.16,-0.73 0.9,-1.44 -0.27,-0.7 -1.1,-1.24 -1.91,-1.24 -14.96,0.12 -28.68,7.43 -33.36,17.78 -2.5,5.52 -3.65,14.42 5.08,25.45 4.7,5.94 14.31,11.74 23.61,17.35 9.14,5.52 18.6,11.23 20.17,15.53 0.41,1.13 0.25,2.15 -0.5,3.15 -3.28,4.62 -9.11,7.8 -14.76,10.88 -10.66,5.81 -21.69,11.81 -16.49,27.68 4.58,13.94 16.96,20.48 29.72,27.12 1.04,0.55 2.09,1.09 3.13,1.64 5.55,2.93 11.9,6.44 16.92,11.01 3.51,3.37 4.29,6.93 2.69,12.33 -0.83,3.38 -0.28,6.69 1.16,9.72 1.07,-1.2 2.58,-2.08 4.43,-2.52 9.13,-2.17 10.61,-7.93 12.84,-19.71 1.03,-5.47 2.18,-11.54 4.78,-17.44 -2.89,-2.58 -5.87,-4.77 -9.08,-6.65 z"
         id="use45"
         style="fill-opacity:0;stroke:#000000;stroke-width:1;stroke-opacity:0" />
    </g>
  </g>
  <g
     id="g53"
     transform="matrix(0.10920258,0,0,0.10920258,-20.802484,4.0741408)">
    <path
       d="m 423.21,198.76 28.28,35.9 -46.79,36.86 -28.29,-35.9 z"
       id="use51"
       style="fill:#b0afaf;fill-opacity:1" />
  </g>
  <g
     id="g61"
     transform="matrix(0.10920258,0,0,0.10920258,-20.802484,4.0741408)">
    <path
       d="m 374.61,232.3 0.81,0.04 0.78,0.05 0.77,0.06 0.75,0.07 0.73,0.08 0.71,0.1 0.7,0.1 0.14,0.02 0.14,0.02 0.14,0.03 0.14,0.02 0.15,0.02 0.14,0.03 0.14,0.03 0.14,0.02 0.14,0.03 0.14,0.02 0.14,0.03 0.14,0.03 0.14,0.03 0.14,0.03 0.14,0.03 0.14,0.02 0.14,0.03 0.14,0.04 0.14,0.03 0.14,0.03 0.14,0.03 0.13,0.03 0.14,0.03 0.14,0.04 0.14,0.03 0.14,0.04 0.13,0.03 0.14,0.03 0.14,0.04 0.14,0.04 0.13,0.03 0.14,0.04 0.14,0.04 0.13,0.03 0.14,0.04 0.13,0.04 0.14,0.04 0.14,0.04 0.13,0.04 0.14,0.04 25.27,28.72 0.01,0.19 0.01,0.19 0.01,0.19 v 0.19 l 0.01,0.19 v 0.19 0.19 0.19 0.19 l -0.01,0.19 v 0.19 l -0.01,0.19 v 0.19 l -0.01,0.19 -0.01,0.19 -0.01,0.19 -0.02,0.19 -0.01,0.19 -0.02,0.19 -0.01,0.19 -0.02,0.19 -0.02,0.19 -0.02,0.19 -0.02,0.19 -0.03,0.19 -0.02,0.2 -0.03,0.19 -0.03,0.19 -0.03,0.19 -0.03,0.19 -0.03,0.19 -0.03,0.19 -0.04,0.19 -0.04,0.2 -0.03,0.19 -0.04,0.19 -0.04,0.19 -0.05,0.19 -0.04,0.19 -0.04,0.19 -0.19,0.74 -0.21,0.73 -0.22,0.73 -0.25,0.72 -0.26,0.73 -0.29,0.72 -0.31,0.73 -0.32,0.72 -0.35,0.71 -0.36,0.72 -0.39,0.71 -0.4,0.71 -0.42,0.71 -0.45,0.71 -0.46,0.7 -0.48,0.7 -0.5,0.7 -0.52,0.69 -0.54,0.69 -0.55,0.69 -0.58,0.69 -0.6,0.68 -0.61,0.67 -0.63,0.68 -0.65,0.67 -0.67,0.67 -0.69,0.66 -0.7,0.66 -0.72,0.65 -0.75,0.65 -0.76,0.65 -0.77,0.64 -0.8,0.64 -0.81,0.63 -0.83,0.63 -0.85,0.62 -0.86,0.62 -0.89,0.62 -0.9,0.61 -0.92,0.6 -2.04,1.29 -2.06,1.21 -2.08,1.14 -2.08,1.07 -2.09,1 -2.1,0.93 -2.11,0.87 -2.11,0.79 -2.11,0.74 -2.11,0.66 -2.12,0.61 -2.1,0.54 -2.11,0.49 -2.1,0.42 -2.09,0.37 -2.08,0.31 -2.07,0.25 -2.05,0.2 -2.04,0.15 -2.03,0.09 -2.01,0.04 -1.98,-0.01 -1.97,-0.05 -1.94,-0.11 -1.92,-0.14 -1.9,-0.2 -1.86,-0.24 -1.84,-0.28 -1.8,-0.32 -1.77,-0.37 -1.74,-0.4 -1.7,-0.44 -1.66,-0.48 -1.62,-0.51 -1.58,-0.55 -1.54,-0.58 -1.49,-0.61 -1.45,-0.65 -1.39,-0.67 -1.35,-0.7 -0.03,-0.02 -0.03,-0.01 -0.03,-0.02 -0.03,-0.02 -0.03,-0.01 -0.02,-0.02 -0.03,-0.02 -0.03,-0.02 -0.03,-0.01 -0.02,-0.02 -0.03,-0.02 -0.03,-0.02 -0.03,-0.02 -0.02,-0.02 -0.03,-0.01 -0.02,-0.02 -0.03,-0.02 -0.03,-0.02 -0.02,-0.02 -0.03,-0.02 -0.02,-0.02 -0.03,-0.02 -0.02,-0.02 -0.03,-0.02 -0.02,-0.02 -0.02,-0.03 -0.03,-0.02 -0.02,-0.02 -0.02,-0.02 -0.03,-0.02 -0.02,-0.02 -0.02,-0.02 -0.03,-0.03 -0.02,-0.02 -0.02,-0.02 -0.02,-0.02 -0.02,-0.03 -0.02,-0.02 -0.03,-0.02 -0.02,-0.03 -0.03,-0.03 -0.03,-0.04 -0.04,-0.05 -0.03,-0.04 -0.03,-0.04 -0.03,-0.04 -0.03,-0.04 -0.03,-0.04 -0.03,-0.05 -0.03,-0.04 -0.03,-0.04 -0.02,-0.04 -0.03,-0.05 -0.02,-0.04 -0.03,-0.05 -0.02,-0.04 -0.02,-0.05 -0.03,-0.04 -0.02,-0.05 -0.02,-0.04 -0.02,-0.05 -0.01,-0.05 -0.02,-0.04 -0.02,-0.05 -0.01,-0.05 -0.02,-0.04 -0.01,-0.05 -0.02,-0.05 -0.01,-0.04 -0.01,-0.05 -0.01,-0.05 -0.01,-0.05 -0.01,-0.05 -0.01,-0.04 -0.01,-0.05 v -0.05 L 309.56,301 v -0.05 l -0.01,-0.05 v -0.05 -0.07 -0.08 -0.08 l 0.01,-0.07 v -0.08 l 0.01,-0.07 0.02,-0.08 0.01,-0.07 0.02,-0.07 0.02,-0.07 0.02,-0.07 0.02,-0.07 0.02,-0.07 0.03,-0.07 0.03,-0.07 0.03,-0.06 0.04,-0.07 0.03,-0.06 0.04,-0.06 0.04,-0.06 0.04,-0.06 0.04,-0.06 0.05,-0.06 0.05,-0.06 0.05,-0.05 0.05,-0.06 0.05,-0.05 0.06,-0.05 0.05,-0.05 0.06,-0.05 0.06,-0.05 0.06,-0.04 0.07,-0.05 0.06,-0.04 0.07,-0.04 0.07,-0.04 0.07,-0.04 0.07,-0.03 0.07,-0.04 0.08,-0.03 0.75,-0.32 0.72,-0.34 0.69,-0.35 0.65,-0.37 0.62,-0.38 0.6,-0.39 0.56,-0.41 0.54,-0.41 0.5,-0.44 0.49,-0.44 0.45,-0.46 0.43,-0.47 0.41,-0.48 0.38,-0.5 0.36,-0.51 0.34,-0.52 0.32,-0.53 0.3,-0.54 0.28,-0.56 0.27,-0.56 0.24,-0.58 0.23,-0.59 0.22,-0.59 0.2,-0.61 0.19,-0.62 0.18,-0.63 0.16,-0.64 0.15,-0.65 0.15,-0.66 0.13,-0.67 0.13,-0.68 0.12,-0.69 0.12,-0.7 0.11,-0.71 0.1,-0.72 0.1,-0.72 0.1,-0.73 0.1,-0.75 0.09,-0.75 0.1,-0.76 0.1,-0.8 0.11,-0.8 0.1,-0.81 0.11,-0.82 0.12,-0.82 0.12,-0.82 0.13,-0.82 0.14,-0.83 0.14,-0.83 0.16,-0.83 0.17,-0.83 0.18,-0.84 0.19,-0.83 0.21,-0.84 0.22,-0.83 0.24,-0.84 0.26,-0.83 0.28,-0.83 0.3,-0.83 0.32,-0.83 0.34,-0.83 0.37,-0.82 0.39,-0.82 0.41,-0.82 0.44,-0.81 0.47,-0.81 0.5,-0.81 0.52,-0.79 0.56,-0.8 0.59,-0.79 0.62,-0.78 0.66,-0.77 0.69,-0.77 0.73,-0.76 0.77,-0.76 0.8,-0.74 0.84,-0.74 0.89,-0.72 0.92,-0.72 0.97,-0.71 1.24,-0.87 1.24,-0.82 1.22,-0.79 1.22,-0.75 1.2,-0.7 1.2,-0.68 1.18,-0.63 1.18,-0.6 1.16,-0.56 1.16,-0.54 1.14,-0.49 1.13,-0.47 1.12,-0.43 1.1,-0.41 1.1,-0.37 1.08,-0.34 1.06,-0.32 1.06,-0.29 1.04,-0.26 1.03,-0.24 1.01,-0.21 1,-0.19 0.98,-0.17 0.97,-0.14 0.96,-0.12 0.94,-0.1 0.92,-0.08 0.91,-0.06 0.89,-0.05 0.87,-0.02 0.86,-0.01 h 0.84 z m -7.52,9.82 -2.81,0.42 -2.58,0.56 -2.38,0.7 -2.16,0.8 -1.95,0.88 -1.75,0.92 -1.56,0.95 -1.35,0.95 -1.18,0.92 -0.98,0.86 -0.81,0.78 -0.63,0.67 -0.46,0.53 -0.3,0.38 -0.14,0.18 -0.28,0.45 -0.22,0.47 -0.17,0.48 -0.11,0.5 -0.06,0.5 v 0.51 l 0.05,0.52 0.1,0.51 0.15,0.5 0.2,0.5 0.24,0.49 0.3,0.47 0.34,0.45 0.39,0.43 0.43,0.41 0.48,0.38 0.52,0.35 0.11,0.06 0.12,0.07 0.11,0.07 0.12,0.06 0.12,0.06 0.12,0.06 0.12,0.05 0.12,0.06 0.12,0.05 0.12,0.05 0.13,0.05 0.12,0.04 0.13,0.05 0.12,0.04 0.13,0.04 0.13,0.04 0.12,0.03 0.04,0.01 0.04,0.01 0.04,0.01 0.04,0.01 0.03,0.01 0.04,0.01 0.04,0.01 h 0.04 l 0.03,0.01 0.04,0.01 0.04,0.01 0.04,0.01 h 0.04 l 0.03,0.01 0.04,0.01 h 0.04 l 0.04,0.01 0.43,0.06 0.42,0.04 0.42,0.01 0.42,-0.02 0.41,-0.03 0.4,-0.07 0.39,-0.08 0.38,-0.11 0.37,-0.13 0.36,-0.15 0.34,-0.18 0.32,-0.19 0.31,-0.22 0.29,-0.23 0.26,-0.26 0.25,-0.27 0.22,-0.29 0.09,-0.11 0.18,-0.22 0.29,-0.31 0.39,-0.39 0.51,-0.46 0.62,-0.5 0.74,-0.54 0.86,-0.55 0.98,-0.56 1.12,-0.54 1.24,-0.51 1.38,-0.47 1.52,-0.4 1.66,-0.33 1.81,-0.24 1.95,-0.13 h 2.11 0.3 l 0.3,-0.01 0.29,-0.02 0.28,-0.04 0.28,-0.04 0.28,-0.06 0.27,-0.07 0.27,-0.08 0.25,-0.09 0.26,-0.1 0.24,-0.12 0.24,-0.12 0.23,-0.14 0.22,-0.14 0.22,-0.16 0.2,-0.17 0.2,-0.17 0.19,-0.19 0.17,-0.19 0.17,-0.2 0.15,-0.21 0.13,-0.21 0.13,-0.22 0.11,-0.23 0.1,-0.23 0.09,-0.24 0.07,-0.24 0.06,-0.24 0.05,-0.25 0.03,-0.25 0.03,-0.26 v -0.26 -0.26 l -0.02,-0.27 -0.08,-0.48 -0.11,-0.48 -0.16,-0.46 -0.2,-0.46 -0.24,-0.43 -0.27,-0.42 -0.3,-0.4 -0.34,-0.38 -0.37,-0.36 -0.4,-0.34 -0.42,-0.31 -0.45,-0.28 -0.48,-0.25 -0.49,-0.22 -0.51,-0.18 -0.53,-0.15 -0.55,-0.12 -0.06,-0.01 -0.06,-0.01 -0.06,-0.01 -0.06,-0.01 -0.06,-0.01 h -0.07 l -0.06,-0.01 -0.06,-0.01 h -0.06 l -0.07,-0.01 -0.06,-0.01 h -0.06 -0.06 l -0.06,-0.01 h -0.07 -0.06 l -0.06,-0.01 -3.27,0.02 z"
       id="use55"
       style="fill:#5b6571;fill-opacity:1" />
    <g
       id="g59">
      <path
         d="m 374.61,232.3 0.81,0.04 0.78,0.05 0.77,0.06 0.75,0.07 0.73,0.08 0.71,0.1 0.7,0.1 0.14,0.02 0.14,0.02 0.14,0.03 0.14,0.02 0.15,0.02 0.14,0.03 0.14,0.03 0.14,0.02 0.14,0.03 0.14,0.02 0.14,0.03 0.14,0.03 0.14,0.03 0.14,0.03 0.14,0.03 0.14,0.02 0.14,0.03 0.14,0.04 0.14,0.03 0.14,0.03 0.14,0.03 0.13,0.03 0.14,0.03 0.14,0.04 0.14,0.03 0.14,0.04 0.13,0.03 0.14,0.03 0.14,0.04 0.14,0.04 0.13,0.03 0.14,0.04 0.14,0.04 0.13,0.03 0.14,0.04 0.13,0.04 0.14,0.04 0.14,0.04 0.13,0.04 0.14,0.04 25.27,28.72 0.01,0.19 0.01,0.19 0.01,0.19 v 0.19 l 0.01,0.19 v 0.19 0.19 0.19 0.19 l -0.01,0.19 v 0.19 l -0.01,0.19 v 0.19 l -0.01,0.19 -0.01,0.19 -0.01,0.19 -0.02,0.19 -0.01,0.19 -0.02,0.19 -0.01,0.19 -0.02,0.19 -0.02,0.19 -0.02,0.19 -0.02,0.19 -0.03,0.19 -0.02,0.2 -0.03,0.19 -0.03,0.19 -0.03,0.19 -0.03,0.19 -0.03,0.19 -0.03,0.19 -0.04,0.19 -0.04,0.2 -0.03,0.19 -0.04,0.19 -0.04,0.19 -0.05,0.19 -0.04,0.19 -0.04,0.19 -0.19,0.74 -0.21,0.73 -0.22,0.73 -0.25,0.72 -0.26,0.73 -0.29,0.72 -0.31,0.73 -0.32,0.72 -0.35,0.71 -0.36,0.72 -0.39,0.71 -0.4,0.71 -0.42,0.71 -0.45,0.71 -0.46,0.7 -0.48,0.7 -0.5,0.7 -0.52,0.69 -0.54,0.69 -0.55,0.69 -0.58,0.69 -0.6,0.68 -0.61,0.67 -0.63,0.68 -0.65,0.67 -0.67,0.67 -0.69,0.66 -0.7,0.66 -0.72,0.65 -0.75,0.65 -0.76,0.65 -0.77,0.64 -0.8,0.64 -0.81,0.63 -0.83,0.63 -0.85,0.62 -0.86,0.62 -0.89,0.62 -0.9,0.61 -0.92,0.6 -2.04,1.29 -2.06,1.21 -2.08,1.14 -2.08,1.07 -2.09,1 -2.1,0.93 -2.11,0.87 -2.11,0.79 -2.11,0.74 -2.11,0.66 -2.12,0.61 -2.1,0.54 -2.11,0.49 -2.1,0.42 -2.09,0.37 -2.08,0.31 -2.07,0.25 -2.05,0.2 -2.04,0.15 -2.03,0.09 -2.01,0.04 -1.98,-0.01 -1.97,-0.05 -1.94,-0.11 -1.92,-0.14 -1.9,-0.2 -1.86,-0.24 -1.84,-0.28 -1.8,-0.32 -1.77,-0.37 -1.74,-0.4 -1.7,-0.44 -1.66,-0.48 -1.62,-0.51 -1.58,-0.55 -1.54,-0.58 -1.49,-0.61 -1.45,-0.65 -1.39,-0.67 -1.35,-0.7 -0.03,-0.02 -0.03,-0.01 -0.03,-0.02 -0.03,-0.02 -0.03,-0.01 -0.02,-0.02 -0.03,-0.02 -0.03,-0.02 -0.03,-0.01 -0.02,-0.02 -0.03,-0.02 -0.03,-0.02 -0.03,-0.02 -0.02,-0.02 -0.03,-0.01 -0.02,-0.02 -0.03,-0.02 -0.03,-0.02 -0.02,-0.02 -0.03,-0.02 -0.02,-0.02 -0.03,-0.02 -0.02,-0.02 -0.03,-0.02 -0.02,-0.02 -0.02,-0.03 -0.03,-0.02 -0.02,-0.02 -0.02,-0.02 -0.03,-0.02 -0.02,-0.02 -0.02,-0.02 -0.03,-0.03 -0.02,-0.02 -0.02,-0.02 -0.02,-0.02 -0.02,-0.03 -0.02,-0.02 -0.03,-0.02 -0.02,-0.03 -0.03,-0.03 -0.03,-0.04 -0.04,-0.05 -0.03,-0.04 -0.03,-0.04 -0.03,-0.04 -0.03,-0.04 -0.03,-0.04 -0.03,-0.05 -0.03,-0.04 -0.03,-0.04 -0.02,-0.04 -0.03,-0.05 -0.02,-0.04 -0.03,-0.05 -0.02,-0.04 -0.02,-0.05 -0.03,-0.04 -0.02,-0.05 -0.02,-0.04 -0.02,-0.05 -0.01,-0.05 -0.02,-0.04 -0.02,-0.05 -0.01,-0.05 -0.02,-0.04 -0.01,-0.05 -0.02,-0.05 -0.01,-0.04 -0.01,-0.05 -0.01,-0.05 -0.01,-0.05 -0.01,-0.05 -0.01,-0.04 -0.01,-0.05 v -0.05 L 309.56,301 v -0.05 l -0.01,-0.05 v -0.05 -0.07 -0.08 -0.08 l 0.01,-0.07 v -0.08 l 0.01,-0.07 0.02,-0.08 0.01,-0.07 0.02,-0.07 0.02,-0.07 0.02,-0.07 0.02,-0.07 0.02,-0.07 0.03,-0.07 0.03,-0.07 0.03,-0.06 0.04,-0.07 0.03,-0.06 0.04,-0.06 0.04,-0.06 0.04,-0.06 0.04,-0.06 0.05,-0.06 0.05,-0.06 0.05,-0.05 0.05,-0.06 0.05,-0.05 0.06,-0.05 0.05,-0.05 0.06,-0.05 0.06,-0.05 0.06,-0.04 0.07,-0.05 0.06,-0.04 0.07,-0.04 0.07,-0.04 0.07,-0.04 0.07,-0.03 0.07,-0.04 0.08,-0.03 0.75,-0.32 0.72,-0.34 0.69,-0.35 0.65,-0.37 0.62,-0.38 0.6,-0.39 0.56,-0.41 0.54,-0.41 0.5,-0.44 0.49,-0.44 0.45,-0.46 0.43,-0.47 0.41,-0.48 0.38,-0.5 0.36,-0.51 0.34,-0.52 0.32,-0.53 0.3,-0.54 0.28,-0.56 0.27,-0.56 0.24,-0.58 0.23,-0.59 0.22,-0.59 0.2,-0.61 0.19,-0.62 0.18,-0.63 0.16,-0.64 0.15,-0.65 0.15,-0.66 0.13,-0.67 0.13,-0.68 0.12,-0.69 0.12,-0.7 0.11,-0.71 0.1,-0.72 0.1,-0.72 0.1,-0.73 0.1,-0.75 0.09,-0.75 0.1,-0.76 0.1,-0.8 0.11,-0.8 0.1,-0.81 0.11,-0.82 0.12,-0.82 0.12,-0.82 0.13,-0.82 0.14,-0.83 0.14,-0.83 0.16,-0.83 0.17,-0.83 0.18,-0.84 0.19,-0.83 0.21,-0.84 0.22,-0.83 0.24,-0.84 0.26,-0.83 0.28,-0.83 0.3,-0.83 0.32,-0.83 0.34,-0.83 0.37,-0.82 0.39,-0.82 0.41,-0.82 0.44,-0.81 0.47,-0.81 0.5,-0.81 0.52,-0.79 0.56,-0.8 0.59,-0.79 0.62,-0.78 0.66,-0.77 0.69,-0.77 0.73,-0.76 0.77,-0.76 0.8,-0.74 0.84,-0.74 0.89,-0.72 0.92,-0.72 0.97,-0.71 1.24,-0.87 1.24,-0.82 1.22,-0.79 1.22,-0.75 1.2,-0.7 1.2,-0.68 1.18,-0.63 1.18,-0.6 1.16,-0.56 1.16,-0.54 1.14,-0.49 1.13,-0.47 1.12,-0.43 1.1,-0.41 1.1,-0.37 1.08,-0.34 1.06,-0.32 1.06,-0.29 1.04,-0.26 1.03,-0.24 1.01,-0.21 1,-0.19 0.98,-0.17 0.97,-0.14 0.96,-0.12 0.94,-0.1 0.92,-0.08 0.91,-0.06 0.89,-0.05 0.87,-0.02 0.86,-0.01 h 0.84 z m -7.52,9.82 -2.81,0.42 -2.58,0.56 -2.38,0.7 -2.16,0.8 -1.95,0.88 -1.75,0.92 -1.56,0.95 -1.35,0.95 -1.18,0.92 -0.98,0.86 -0.81,0.78 -0.63,0.67 -0.46,0.53 -0.3,0.38 -0.14,0.18 -0.28,0.45 -0.22,0.47 -0.17,0.48 -0.11,0.5 -0.06,0.5 v 0.51 l 0.05,0.52 0.1,0.51 0.15,0.5 0.2,0.5 0.24,0.49 0.3,0.47 0.34,0.45 0.39,0.43 0.43,0.41 0.48,0.38 0.52,0.35 0.11,0.06 0.12,0.07 0.11,0.07 0.12,0.06 0.12,0.06 0.12,0.06 0.12,0.05 0.12,0.06 0.12,0.05 0.12,0.05 0.13,0.05 0.12,0.04 0.13,0.05 0.12,0.04 0.13,0.04 0.13,0.04 0.12,0.03 0.04,0.01 0.04,0.01 0.04,0.01 0.04,0.01 0.03,0.01 0.04,0.01 0.04,0.01 h 0.04 l 0.03,0.01 0.04,0.01 0.04,0.01 0.04,0.01 h 0.04 l 0.03,0.01 0.04,0.01 h 0.04 l 0.04,0.01 0.43,0.06 0.42,0.04 0.42,0.01 0.42,-0.02 0.41,-0.03 0.4,-0.07 0.39,-0.08 0.38,-0.11 0.37,-0.13 0.36,-0.15 0.34,-0.18 0.32,-0.19 0.31,-0.22 0.29,-0.23 0.26,-0.26 0.25,-0.27 0.22,-0.29 0.09,-0.11 0.18,-0.22 0.29,-0.31 0.39,-0.39 0.51,-0.46 0.62,-0.5 0.74,-0.54 0.86,-0.55 0.98,-0.56 1.12,-0.54 1.24,-0.51 1.38,-0.47 1.52,-0.4 1.66,-0.33 1.81,-0.24 1.95,-0.13 h 2.11 0.3 l 0.3,-0.01 0.29,-0.02 0.28,-0.04 0.28,-0.04 0.28,-0.06 0.27,-0.07 0.27,-0.08 0.25,-0.09 0.26,-0.1 0.24,-0.12 0.24,-0.12 0.23,-0.14 0.22,-0.14 0.22,-0.16 0.2,-0.17 0.2,-0.17 0.19,-0.19 0.17,-0.19 0.17,-0.2 0.15,-0.21 0.13,-0.21 0.13,-0.22 0.11,-0.23 0.1,-0.23 0.09,-0.24 0.07,-0.24 0.06,-0.24 0.05,-0.25 0.03,-0.25 0.03,-0.26 v -0.26 -0.26 l -0.02,-0.27 -0.08,-0.48 -0.11,-0.48 -0.16,-0.46 -0.2,-0.46 -0.24,-0.43 -0.27,-0.42 -0.3,-0.4 -0.34,-0.38 -0.37,-0.36 -0.4,-0.34 -0.42,-0.31 -0.45,-0.28 -0.48,-0.25 -0.49,-0.22 -0.51,-0.18 -0.53,-0.15 -0.55,-0.12 -0.06,-0.01 -0.06,-0.01 -0.06,-0.01 -0.06,-0.01 -0.06,-0.01 h -0.07 l -0.06,-0.01 -0.06,-0.01 h -0.06 l -0.07,-0.01 -0.06,-0.01 h -0.06 -0.06 l -0.06,-0.01 h -0.07 -0.06 l -0.06,-0.01 -3.27,0.02 z"
         id="use57"
         style="fill-opacity:0;stroke:#000000;stroke-width:1;stroke-opacity:0" />
    </g>
  </g>
  <g
     id="g69"
     transform="matrix(0.10920258,0,0,0.10920258,-20.802484,4.0741408)">
    <path
       d="m 562.55,96.94 c -4.46,3.03 -109.36,74.5 -123.69,85.82 -7.16,5.66 -16.64,15.68 -24.91,24.99 2.72,3.37 24.46,30.27 27.18,33.64 11.04,-5.93 23.08,-12.91 30.35,-18.65 14.49,-11.45 107.88,-96.71 111.85,-100.33 6.33,-5.78 6.99,-15.45 1.52,-22.15 -5.46,-6.7 -15.2,-8.15 -22.3,-3.32 z"
       id="use63"
       style="fill:#776f69;fill-opacity:1" />
    <g
       id="g67">
      <path
         d="m 562.55,96.94 c -4.46,3.03 -109.36,74.5 -123.69,85.82 -7.16,5.66 -16.64,15.68 -24.91,24.99 2.72,3.37 24.46,30.27 27.18,33.64 11.04,-5.93 23.08,-12.91 30.35,-18.65 14.49,-11.45 107.88,-96.71 111.85,-100.33 6.33,-5.78 6.99,-15.45 1.52,-22.15 -5.46,-6.7 -15.2,-8.15 -22.3,-3.32 z"
         id="use65"
         style="fill-opacity:0;stroke:#000000;stroke-width:1;stroke-opacity:0" />
    </g>
  </g>
</svg>
