<?xml version="1.0" encoding="UTF-8" standalone="no"?>
<svg
   xmlns:dc="http://purl.org/dc/elements/1.1/"
   xmlns:cc="http://creativecommons.org/ns#"
   xmlns:rdf="http://www.w3.org/1999/02/22-rdf-syntax-ns#"
   xmlns:svg="http://www.w3.org/2000/svg"
   xmlns="http://www.w3.org/2000/svg"
   xmlns:sodipodi="http://sodipodi.sourceforge.net/DTD/sodipodi-0.dtd"
   xmlns:inkscape="http://www.inkscape.org/namespaces/inkscape"
   height="48"
   width="48"
   version="1.1"
   id="svg6"
   sodipodi:docname="natron.svg"
   inkscape:version="1.0.2 (e86c870879, 2021-01-15)">
  <metadata
     id="metadata12">
    <rdf:RDF>
      <cc:Work
         rdf:about="">
        <dc:format>image/svg+xml</dc:format>
        <dc:type
           rdf:resource="http://purl.org/dc/dcmitype/StillImage" />
        <dc:title></dc:title>
      </cc:Work>
    </rdf:RDF>
  </metadata>
  <defs
     id="defs10">
    <marker
       style="overflow:visible"
       id="DotL"
       refX="0.0"
       refY="0.0"
       orient="auto"
       inkscape:stockid="DotL"
       inkscape:isstock="true">
      <path
         transform="scale(0.8) translate(7.4, 1)"
         style="fill-rule:evenodd;stroke:#000000;stroke-width:1pt;stroke-opacity:1;fill:#000000;fill-opacity:1"
         d="M -2.5,-1.0 C -2.5,1.7600000 -4.7400000,4.0 -7.5,4.0 C -10.260000,4.0 -12.5,1.7600000 -12.5,-1.0 C -12.5,-3.7600000 -10.260000,-6.0 -7.5,-6.0 C -4.7400000,-6.0 -2.5,-3.7600000 -2.5,-1.0 z "
         id="path898" />
    </marker>
  </defs>
  <sodipodi:namedview
     pagecolor="#ffffff"
     bordercolor="#666666"
     borderopacity="1"
     objecttolerance="10"
     gridtolerance="10"
     guidetolerance="10"
     inkscape:pageopacity="0"
     inkscape:pageshadow="2"
     inkscape:window-width="1920"
     inkscape:window-height="1024"
     id="namedview8"
     showgrid="false"
     inkscape:zoom="7.9999996"
     inkscape:cx="17.686959"
     inkscape:cy="49.99685"
     inkscape:window-x="0"
     inkscape:window-y="24"
     inkscape:window-maximized="1"
     inkscape:current-layer="svg6"
     inkscape:document-rotation="0" />
  <circle
     cx="23.940615"
     cy="31.534513"
     fill="#5e81ac"
     opacity=".99"
     r="13.232998"
     transform="matrix(1.75830584759 0 0 1.75830608345 -18.15909274367 -30.97874795549)"
     id="circle2"
     style="fill:#859bac;fill-opacity:1" />
  <g
     id="g853"
     transform="translate(0.41248973,-1.1928081)">
    <path
       style="clip-rule:evenodd;fill:#ffffff;fill-rule:evenodd;stroke-width:0.0764797;stroke-linecap:round;stroke-linejoin:round;stroke-miterlimit:1.5"
       d="m 40.580421,25.009047 -0.794012,0.460331 7.8e-5,7.7e-5 c 0.0017,0.0028 0.01277,0.02784 0.02072,0.06531 0.0082,0.0374 0.01391,0.08665 0.01377,0.135905 1.53e-4,0.05277 -0.0064,0.105695 -0.0153,0.143935 -0.0046,0.01912 -0.0094,0.03449 -0.01338,0.04466 l -0.0047,0.01109 -0.0011,0.0024 v 0 l -7.945473,13.723047 -7.7e-5,8e-5 c -0.0016,0.003 -0.01927,0.0269 -0.04986,0.0538 -0.0452,0.0412 -0.119156,0.0885 -0.185158,0.11594 -0.03281,0.0141 -0.06325,0.0236 -0.08527,0.0284 -0.01101,0.002 -0.01981,0.004 -0.02547,0.005 l -0.0063,6.5e-4 -0.0014,8e-5 1.52e-4,0.004 v -0.004 h -1.52e-4 l 1.52e-4,0.004 v -0.004 0.89427 l 0.0023,-0.89427 h -0.0023 v 0.89427 l 0.0023,-0.89427 -0.0019,0.75684 0.0021,-0.75684 h -2.27e-4 l -0.0019,0.75684 0.0021,-0.75684 c -0.0014,7e-5 -0.01553,-3.3e-4 -0.04535,9.7e-4 l 0.04237,0.91676 5.34e-4,-0.91776 -15.910984,-0.009 h -1.52e-4 c -0.0037,1.6e-4 -0.03319,-0.003 -0.07204,-0.0163 -0.05858,-0.0186 -0.136899,-0.059 -0.193876,-0.10263 -0.02868,-0.0214 -0.05239,-0.0432 -0.06768,-0.0598 -0.0077,-0.008 -0.01338,-0.0152 -0.0169,-0.0199 l -0.0037,-0.005 -6.95e-4,-10e-4 -0.0034,0.002 0.0034,-0.002 v -8e-5 l -0.0034,0.002 0.0034,-0.002 -7.9615343,-13.732998 v -7.6e-5 -7.7e-5 c -0.0018,-0.0028 -0.01277,-0.02776 -0.02073,-0.06531 -0.0083,-0.0374 -0.01384,-0.0868 -0.01377,-0.135981 -1.53e-4,-0.05285 0.0063,-0.105695 0.01545,-0.143935 0.0044,-0.01912 0.0094,-0.03457 0.01323,-0.04466 l 0.0047,-0.01109 0.0011,-0.0023 v 0 l 7.9453973,-13.723205 7.6e-5,-7.7e-5 c 0.0017,-0.0032 0.01927,-0.02692 0.04986,-0.05384 0.0452,-0.04122 0.119155,-0.08856 0.185157,-0.115944 0.03281,-0.014 0.0634,-0.02356 0.08535,-0.02845 0.01094,-0.0024 0.01973,-0.0039 0.02547,-0.0046 l 0.0063,-6.15e-4 0.0012,-7.6e-5 -1.53e-4,-0.0044 v 0.0044 h 1.53e-4 l -1.53e-4,-0.0044 v 0.0044 -0.405648 l -1.53e-4,0.405648 h 1.53e-4 V 11.11713 l -1.53e-4,0.405648 3.88e-4,-0.869421 -0.0047,0.869421 h 0.0044 l 3.87e-4,-0.869421 -0.0047,0.869421 h 0.0023 l 15.913201,0.0089 h 2.26e-4 c 0.0038,-7.7e-5 0.03327,0.0033 0.07197,0.01629 0.05866,0.01858 0.136822,0.05897 0.1938,0.102559 0.02876,0.02149 0.05246,0.04321 0.06768,0.05981 0.0079,0.0083 0.01346,0.01522 0.01698,0.01989 l 0.0037,0.0051 6.95e-4,0.0011 0.0034,-0.0021 -0.0034,0.0021 v 7.6e-5 l 0.0034,-0.0021 -0.0034,0.0021 h -7.6e-5 l 7.961686,13.733072 0.793934,-0.460255 0.794013,-0.460331 -7.961533,-13.733072 h -7.7e-5 c -0.107301,-0.184469 -0.236704,-0.336051 -0.376738,-0.46729 -0.210855,-0.195941 -0.446948,-0.34783 -0.705067,-0.461555 -0.12925,-0.05652 -0.26439,-0.102942 -0.407024,-0.13644 -0.142635,-0.03335 -0.292917,-0.054 -0.452989,-0.05422 l -15.91106,-0.0089 h 0.0045 -0.0048 -8.4e-4 L 15.559,10.266463 V 9.687512 h -1.53e-4 L 15.559,10.266463 V 9.687512 c -0.213455,3.88e-4 -0.409472,0.03625 -0.593253,0.09162 -0.27525,0.0842 -0.525033,0.212307 -0.752789,0.378727 -0.113649,0.08359 -0.221562,0.17728 -0.32198,0.283969 -0.100265,0.106766 -0.193417,0.226533 -0.273797,0.365038 L 5.6716817,24.530032 c -0.106842,0.18531 -0.173992,0.373297 -0.218044,0.560367 -0.04352,0.187222 -0.06332,0.374291 -0.06348,0.561284 1.53e-4,0.187375 0.02011,0.374521 0.06378,0.561896 0.0442,0.187069 0.111507,0.37498 0.218349,0.560137 v -7.6e-5 l 7.9616113,13.733072 v 7e-5 c 0.107377,0.18439 0.236704,0.33605 0.376738,0.46714 0.210855,0.19594 0.446871,0.34783 0.70499,0.46156 0.129251,0.0565 0.26439,0.10294 0.407025,0.13644 0.142634,0.0333 0.292917,0.054 0.453065,0.0542 l 15.932398,0.009 0.02134,-0.001 -0.04214,-0.91126 0.0034,0.91233 c 0.0068,-8e-5 0.01935,-8e-5 0.0387,-0.001 l -0.04214,-0.91126 0.0034,0.91233 -0.0034,-0.89963 -0.0024,0.89963 h 0.0058 l -0.0034,-0.89963 -0.0024,0.89963 h 3.07e-4 0.0023 c 0.213455,-3.2e-4 0.409472,-0.0364 0.593253,-0.0916 0.275327,-0.0842 0.524956,-0.21223 0.752865,-0.37865 0.113573,-0.0836 0.221486,-0.17721 0.32198,-0.28397 0.100341,-0.10677 0.19334,-0.22661 0.273797,-0.36504 L 41.374999,26.793 c 0.106766,-0.18531 0.173992,-0.373297 0.218044,-0.56029 0.04352,-0.187222 0.06332,-0.374368 0.06348,-0.561361 -1.54e-4,-0.187298 -0.02011,-0.374597 -0.06378,-0.561896 -0.04413,-0.187146 -0.111508,-0.375056 -0.218274,-0.560137 z"
       id="path16810" />
    <path
       style="clip-rule:evenodd;fill:#ffffff;fill-rule:evenodd;stroke-width:0.0764797;stroke-linecap:round;stroke-linejoin:round;stroke-miterlimit:1.5"
       d="m 30.532523,15.488935 c -0.315096,-0.5466 -0.575586,-0.99393 -0.578951,-0.99393 -0.0033,0 -0.006,0.516238 -0.006,1.147195 v 8.795162 c 0,0.630957 -0.258807,0.700477 -0.575127,0.154565 l -5.274037,-9.104293 c -0.31632,-0.545911 -1.091365,-0.992629 -1.722322,-0.992629 H 18.2341 c -0.630958,0 -1.405008,0.447253 -1.720105,0.99393 l -5.290557,9.178172 c -0.315097,0.5466 -0.315097,1.441183 0,1.987859 l 5.290557,9.178176 c 0.315097,0.54667 0.575586,0.99393 0.578875,0.99393 0.0033,0 0.006,-0.51624 0.006,-1.1472 v -8.94812 c 0,-0.630958 0.25613,-0.699101 0.569162,-0.151201 L 22.954,35.830992 c 0.313108,0.54798 1.085476,0.99608 1.716434,0.99608 h 4.141909 c 0.630957,0 1.405008,-0.44726 1.720104,-0.99386 l 5.290558,-9.178322 c 0.315096,-0.5466 0.315096,-1.441107 0,-1.987783 z"
       id="path16812" />
  </g>
</svg>
