<?xml version="1.0" encoding="UTF-8" standalone="no"?>
<svg
   height="48"
   width="48"
   version="1.1"
   id="svg8"
   sodipodi:docname="yast-network-services.svg"
   inkscape:version="1.1.2 (0a00cf5339, 2022-02-04)"
   xmlns:inkscape="http://www.inkscape.org/namespaces/inkscape"
   xmlns:sodipodi="http://sodipodi.sourceforge.net/DTD/sodipodi-0.dtd"
   xmlns="http://www.w3.org/2000/svg"
   xmlns:svg="http://www.w3.org/2000/svg"
   xmlns:rdf="http://www.w3.org/1999/02/22-rdf-syntax-ns#"
   xmlns:cc="http://creativecommons.org/ns#"
   xmlns:dc="http://purl.org/dc/elements/1.1/">
  <metadata
     id="metadata14">
    <rdf:RDF>
      <cc:Work
         rdf:about="">
        <dc:format>image/svg+xml</dc:format>
        <dc:type
           rdf:resource="http://purl.org/dc/dcmitype/StillImage" />
        <dc:title />
      </cc:Work>
    </rdf:RDF>
  </metadata>
  <defs
     id="defs12" />
  <sodipodi:namedview
     pagecolor="#ffffff"
     bordercolor="#666666"
     borderopacity="1"
     objecttolerance="10"
     gridtolerance="10"
     guidetolerance="10"
     inkscape:pageopacity="0"
     inkscape:pageshadow="2"
     inkscape:window-width="1920"
     inkscape:window-height="1031"
     id="namedview10"
     showgrid="false"
     inkscape:zoom="4.9166667"
     inkscape:cx="-16.474576"
     inkscape:cy="24"
     inkscape:window-x="0"
     inkscape:window-y="0"
     inkscape:window-maximized="1"
     inkscape:current-layer="svg8"
     inkscape:pagecheckerboard="0" />
  <g
     transform="matrix(.36404222 0 0 .36404222 .260514 -59.553138)"
     id="g6">
    <path
       id="circle2"
       style="fill:#88c0d0;fill-opacity:1"
       d="m 130.0238,230.09819 a 63.499996,63.499996 0 0 1 -63.499996,63.5 63.499996,63.499996 0 0 1 -63.4999965,-63.5 63.499996,63.499996 0 0 1 63.4999965,-63.5 63.499996,63.499996 0 0 1 63.499996,63.5 z" />
    <path
       d="m320 50.267578v61.732422c0 20.00001.00001 20-20 20h-50.71484c-9.28572 0-9.28516.00083-9.28516 8.57227v31.42773c0 20.00001 0 20-20 20h-39.35156c-20.64796 0-20.64844-.00001-20.64844 20 0 19.99997 0 20 20 20h180c20.00002 0 20-.00001 20 20v40c0 20.00001.00003 20 20 20h64.70703a220 220 0 0 0 6.7207-52.85742 220 220 0 0 0 -151.42773-208.875002zm-273.164062 128.568362a220 220 0 0 0 -15.408204 80.30664 220 220 0 0 0 219.999996 220 220 220 0 0 0 41.75782-4.17969l-33.18555-82.96289c-20 19.99997-100-40.00001-80-80z"
       fill="#ffffff"
       transform="matrix(.26458333 0 0 .26458333 0 161.53332)"
       id="path4" />
  </g>
</svg>
