<?xml version="1.0" encoding="UTF-8" standalone="no"?>
<svg
   xmlns:dc="http://purl.org/dc/elements/1.1/"
   xmlns:cc="http://creativecommons.org/ns#"
   xmlns:rdf="http://www.w3.org/1999/02/22-rdf-syntax-ns#"
   xmlns:svg="http://www.w3.org/2000/svg"
   xmlns="http://www.w3.org/2000/svg"
   xmlns:sodipodi="http://sodipodi.sourceforge.net/DTD/sodipodi-0.dtd"
   xmlns:inkscape="http://www.inkscape.org/namespaces/inkscape"
   height="48"
   width="48"
   version="1.1"
   id="svg6"
   sodipodi:docname="notion.app.svg"
   inkscape:version="1.0.2 (e86c870879, 2021-01-15)">
  <metadata
     id="metadata12">
    <rdf:RDF>
      <cc:Work
         rdf:about="">
        <dc:format>image/svg+xml</dc:format>
        <dc:type
           rdf:resource="http://purl.org/dc/dcmitype/StillImage" />
        <dc:title></dc:title>
      </cc:Work>
    </rdf:RDF>
  </metadata>
  <defs
     id="defs10" />
  <sodipodi:namedview
     pagecolor="#ffffff"
     bordercolor="#666666"
     borderopacity="1"
     objecttolerance="10"
     gridtolerance="10"
     guidetolerance="10"
     inkscape:pageopacity="0"
     inkscape:pageshadow="2"
     inkscape:window-width="1920"
     inkscape:window-height="1031"
     id="namedview8"
     showgrid="false"
     inkscape:zoom="9.458333"
     inkscape:cx="19.988208"
     inkscape:cy="27.738873"
     inkscape:window-x="0"
     inkscape:window-y="24"
     inkscape:window-maximized="1"
     inkscape:current-layer="svg6"
     inkscape:document-rotation="0" />
  <circle
     cx="23.940615"
     cy="31.534513"
     fill="#5e81ac"
     opacity=".99"
     id="circle2"
     style="fill:#77a9d5;fill-opacity:0.99607831"
     transform="matrix(1.75830584759 0 0 1.75830608345 -18.15909274367 -30.97874795549)"
     r="13.232998" />
  <g
     style="font-style:normal;font-variant:normal;font-weight:bold;font-stretch:normal;font-size:8.41052px;line-height:1.25;font-family:'URW Palladio L';-inkscape-font-specification:'URW Palladio L Bold';letter-spacing:0px;word-spacing:0px;fill:#ffffff;fill-opacity:1;stroke:none;stroke-width:0.210263"
     id="text834"
     aria-label="N"
     transform="matrix(3.7795276,0,0,3.7795276,0.4377674,-1080.7014)">
    <path
       id="path836"
       style="font-style:normal;font-variant:normal;font-weight:bold;font-stretch:normal;font-family:'URW Palladio L';-inkscape-font-specification:'URW Palladio L Bold';fill:#ffffff;stroke-width:0.210263"
       d="m 4.0183585,288.00871 h -0.176621 c -0.075695,0 -0.3532418,-0.008 -0.8326414,-0.0252 v 0.31119 l 0.3111892,0.0252 c 0.3784734,0.0336 0.403705,0.0841 0.403705,0.82423 v 3.43149 c 0,0.74013 -0.025232,0.79059 -0.403705,0.82423 l -0.3111892,0.0252 v 0.31119 c 0.8074099,-0.0252 0.8074099,-0.0252 0.9672098,-0.0252 0.1682104,0 0.5550943,0.008 0.9587992,0.0252 v -0.31119 l -0.3111892,-0.0252 c -0.3784734,-0.0336 -0.403705,-0.0757 -0.403705,-0.82423 v -3.30533 l 2.7418294,3.29692 1.0260834,1.16907 0.6896628,0.10933 0.05887,-0.0336 c -0.01682,-0.47099 -0.02523,-0.65602 -0.02523,-0.84946 v -3.81838 c 0,-0.74012 0.02523,-0.79059 0.403705,-0.82423 l 0.311189,-0.0252 v -0.31119 c 0,0 -0.9587992,0.0252 -0.9587992,0.0252 -0.092516,0 -0.227084,0 -0.9672097,-0.0252 v 0.31119 l 0.3111892,0.0252 c 0.3784734,0.0336 0.4037049,0.0841 0.4037049,0.82423 v 3.01938 l -2.6240821,-3.06143 c -0.1766209,-0.20185 -0.3280102,-0.40371 -0.8662835,-1.1186 z" />
  </g>
  <path
     id="circle937"
     style="opacity:0.99;fill:#5590c4;fill-opacity:0.98823529"
     transform="matrix(1.7583058,0,0,1.7583061,-18.159093,-30.978748)"
     d="m 37.173613,31.534513 c 0,1.827096 -0.370288,3.567706 -1.039915,5.15088 -0.669626,1.583174 -1.63859,3.008912 -2.83594,4.206263 -2.394702,2.394701 -5.702952,3.875855 -9.357143,3.875855 -1.827096,0 -3.567706,-0.370288 -5.15088,-1.039915 -1.583174,-0.669626 -3.008913,-1.638589 -4.206263,-2.83594 -1.19735,-1.197351 -2.166314,-2.623089 -2.83594,-4.206263 z"
     sodipodi:nodetypes="cssssscc" />
</svg>
