<?xml version="1.0" encoding="UTF-8" standalone="no"?>
<svg
   height="48"
   width="48"
   version="1.1"
   id="svg6"
   sodipodi:docname="okular.svg"
   inkscape:version="1.1.2 (0a00cf5339, 2022-02-04)"
   xmlns:inkscape="http://www.inkscape.org/namespaces/inkscape"
   xmlns:sodipodi="http://sodipodi.sourceforge.net/DTD/sodipodi-0.dtd"
   xmlns="http://www.w3.org/2000/svg"
   xmlns:svg="http://www.w3.org/2000/svg"
   xmlns:rdf="http://www.w3.org/1999/02/22-rdf-syntax-ns#"
   xmlns:cc="http://creativecommons.org/ns#"
   xmlns:dc="http://purl.org/dc/elements/1.1/">
  <metadata
     id="metadata12">
    <rdf:RDF>
      <cc:Work
         rdf:about="">
        <dc:format>image/svg+xml</dc:format>
        <dc:type
           rdf:resource="http://purl.org/dc/dcmitype/StillImage" />
        <dc:title />
      </cc:Work>
    </rdf:RDF>
  </metadata>
  <defs
     id="defs10" />
  <sodipodi:namedview
     pagecolor="#ffffff"
     bordercolor="#666666"
     borderopacity="1"
     objecttolerance="10"
     gridtolerance="10"
     guidetolerance="10"
     inkscape:pageopacity="0"
     inkscape:pageshadow="2"
     inkscape:window-width="1920"
     inkscape:window-height="1031"
     id="namedview8"
     showgrid="false"
     inkscape:zoom="9.458333"
     inkscape:cx="32.933922"
     inkscape:cy="30.502204"
     inkscape:window-x="0"
     inkscape:window-y="0"
     inkscape:window-maximized="1"
     inkscape:current-layer="svg6"
     inkscape:document-rotation="0"
     inkscape:pagecheckerboard="0" />
  <path
     id="circle2"
     style="opacity:0.99;fill:#b48ead;fill-opacity:1"
     transform="matrix(1.75830584759 0 0 1.75830608345 -18.15909274367 -30.97874795549)"
     d="M 37.173613,31.534513 A 13.232998,13.232998 0 0 1 23.940615,44.767511 13.232998,13.232998 0 0 1 10.707617,31.534513 13.232998,13.232998 0 0 1 23.940615,18.301516 13.232998,13.232998 0 0 1 37.173613,31.534513 Z" />
  <path
     id="rect902"
     style="fill:#ffffff;fill-opacity:1;stroke:none;stroke-width:1.2;stroke-linecap:square;stroke-opacity:0.992157"
     d="m 12.511621,8.0072404 c -0.0066,0 -0.01172,0.00515 -0.01172,0.011719 V 37.030679 c 0,0.0066 0.0052,0.01172 0.01172,0.01172 h 22.732422 c 0.0066,0 0.01172,-0.0051 0.01172,-0.01172 V 8.0189592 c 0,-0.00657 -0.0052,-0.011719 -0.01172,-0.011719 z m 8.326172,1.8457029 h 12.648438 c 0.0057,0 0.0098,0.004 0.0098,0.0098 V 35.186963 c 0,0.0057 -0.004,0.0098 -0.0098,0.0098 H 14.269434 c -0.0057,0 -0.01172,-0.004 -0.01172,-0.0098 V 16.55021 Z m 0.40625,1.2734377 c -0.0066,0 -0.01172,0.0051 -0.01172,0.01172 v 1.244141 c 0,0.0066 0.0051,0.01367 0.01172,0.01367 H 31.0292 c 0.0066,0 0.01172,-0.0071 0.01172,-0.01367 v -1.244141 c 0,-0.0066 -0.0051,-0.01172 -0.01172,-0.01172 z m -3.83789,2.992188 c -0.0066,0 -0.01367,0.0051 -0.01367,0.01172 v 1.244141 c 0,0.0066 0.0071,0.01367 0.01367,0.01367 h 3.390625 c 0.0066,0 0.01172,-0.0071 0.01172,-0.01367 v -1.244141 c 0,-0.0066 -0.0052,-0.01172 -0.01172,-0.01172 z m 4.683594,0 c -0.0066,0 -0.01172,0.0051 -0.01172,0.01172 v 1.244141 c 0,0.0066 0.0051,0.01367 0.01172,0.01367 h 9.099609 c 0.0066,0 0.01172,-0.0071 0.01172,-0.01367 v -1.244141 c 0,-0.0066 -0.0052,-0.01172 -0.01172,-0.01172 z m -7.003907,2.992188 c -0.0066,0 -0.01367,0.0051 -0.01367,0.01172 v 1.244141 c 0,0.0066 0.0071,0.01367 0.01367,0.01367 h 6.507813 c 0.0066,0 0.01172,-0.0071 0.01172,-0.01367 v -1.244141 c 0,-0.0066 -0.0051,-0.01172 -0.01172,-0.01172 z m 8.6875,0 c -0.0066,0 -0.01172,0.0051 -0.01172,0.01172 v 1.244141 c 0,0.0066 0.0052,0.01367 0.01172,0.01367 h 6.509766 c 0.0066,0 0.01172,-0.0071 0.01172,-0.01367 v -1.244141 c 0,-0.0066 -0.0052,-0.01172 -0.01172,-0.01172 z" />
  <path
     id="circle937"
     style="opacity:0.99;fill:#92748c;fill-opacity:1;stroke-width:1.75831"
     d="M 47.203125 24.46875 L 2.4960938 33.525391 C 3.673501 36.309095 5.3771144 38.816565 7.4824219 40.921875 C 9.5877293 43.027185 12.095202 44.730796 14.878906 45.908203 C 17.66261 47.085612 20.722953 47.736328 23.935547 47.736328 C 30.360732 47.736328 36.178053 45.132492 40.388672 40.921875 C 42.493979 38.816565 44.197593 36.309095 45.375 33.525391 C 46.552409 30.741686 47.203125 27.681344 47.203125 24.46875 z " />
  <path
     d="m 8.1393725,35.057394 0.539549,2.734385 1.9460485,-0.226723 c 0,0 1.325403,5.191588 3.471265,6.181266 2.971912,1.370653 7.265057,0.358838 9.632626,-1.900712 1.832881,-1.749255 1.816257,-7.381872 1.816257,-7.381872 0,0 2.508166,5.164868 4.961264,6.044531 2.858808,1.025147 6.909445,0.495528 8.938969,-1.763839 1.597861,-1.778815 0.628228,-7.14745 0.628228,-7.14745 l 1.962166,-0.387175 -0.53955,-2.734386 z m 4.4778715,2.030934 10.791913,-2.129462 c 0,0 1.414495,6.391513 -4.594426,7.669269 -4.751432,1.01036 -6.197487,-5.539807 -6.197487,-5.539807 z m 15.361997,-3.031232 10.791913,-2.129462 c 0,0 1.414496,6.391513 -4.594425,7.669268 -4.751433,1.010361 -6.197488,-5.539806 -6.197488,-5.539806 z"
     fill-rule="evenodd"
     id="path8"
     style="fill:#ffffff" />
</svg>
