<?xml version="1.0" encoding="UTF-8" standalone="no"?>
<svg
   xmlns:dc="http://purl.org/dc/elements/1.1/"
   xmlns:cc="http://creativecommons.org/ns#"
   xmlns:rdf="http://www.w3.org/1999/02/22-rdf-syntax-ns#"
   xmlns:svg="http://www.w3.org/2000/svg"
   xmlns="http://www.w3.org/2000/svg"
   xmlns:sodipodi="http://sodipodi.sourceforge.net/DTD/sodipodi-0.dtd"
   xmlns:inkscape="http://www.inkscape.org/namespaces/inkscape"
   height="48"
   width="48"
   version="1.1"
   id="svg6"
   sodipodi:docname="om.github.junrrein.PDFSlicer.svg"
   inkscape:version="1.0.2 (e86c870879, 2021-01-15)">
  <metadata
     id="metadata12">
    <rdf:RDF>
      <cc:Work
         rdf:about="">
        <dc:format>image/svg+xml</dc:format>
        <dc:type
           rdf:resource="http://purl.org/dc/dcmitype/StillImage" />
        <dc:title></dc:title>
      </cc:Work>
    </rdf:RDF>
  </metadata>
  <defs
     id="defs10" />
  <sodipodi:namedview
     pagecolor="#ffffff"
     bordercolor="#666666"
     borderopacity="1"
     objecttolerance="10"
     gridtolerance="10"
     guidetolerance="10"
     inkscape:pageopacity="0"
     inkscape:pageshadow="2"
     inkscape:window-width="1920"
     inkscape:window-height="1031"
     id="namedview8"
     showgrid="false"
     inkscape:zoom="13.376103"
     inkscape:cx="8.2943403"
     inkscape:cy="17.2874"
     inkscape:window-x="0"
     inkscape:window-y="24"
     inkscape:window-maximized="1"
     inkscape:current-layer="svg6"
     inkscape:document-rotation="0" />
  <circle
     cx="23.940615"
     cy="31.534513"
     fill="#5e81ac"
     opacity=".99"
     id="circle2"
     style="fill:#e8b281;fill-opacity:1"
     transform="matrix(1.75830584759 0 0 1.75830608345 -18.15909274367 -30.97874795549)"
     r="13.232998" />
  <path
     d="m 38.76791,10.765046 c 0,-0.284814 -0.113118,-0.558015 -0.314545,-0.759398 C 38.251983,9.8042188 37.978783,9.6910578 37.693969,9.6910578 H 10.307843 c -0.284861,0 -0.5580153,0.113161 -0.7594432,0.3145902 -0.201382,0.201383 -0.3145449,0.474584 -0.3145449,0.759398 v 27.386125 c 0,0.28486 0.1131629,0.558014 0.3145449,0.759442 0.2014279,0.201382 0.4745822,0.314546 0.7594432,0.314546 h 27.386126 c 0.284814,0 0.558014,-0.113164 0.759396,-0.314546 0.201427,-0.201428 0.314545,-0.474582 0.314545,-0.759442 z"
     style="clip-rule:evenodd;fill:#ffffff;fill-opacity:0.178862;fill-rule:evenodd;stroke-width:0.0464547;stroke-linecap:round;stroke-linejoin:round;stroke-miterlimit:1.5"
     id="path4"
     inkscape:connector-curvature="0" />
  <g
     id="g14"
     transform="matrix(0.0464548,0,0,0.0464548,0.14446092,0.79254586)"
     style="clip-rule:evenodd;fill-rule:evenodd;stroke-linecap:round;stroke-linejoin:round;stroke-miterlimit:1.5">
    <path
       d="m 185.313,182.116 c -0.626,10e-4 -1.133,0.508 -1.133,1.133 -0.001,10.594 -0.013,92.213 -0.015,102.808 0,0.626 0.507,1.133 1.132,1.133 4.17,0.002 18.647,0.01 22.81,0.012 0.624,0 1.131,-0.504 1.133,-1.128 0.045,-9.73 0.367,-79.121 0.367,-79.121 0,0 69.266,0.121 79.008,0.138 0.3,0 0.589,-0.118 0.801,-0.331 0.213,-0.212 0.333,-0.5 0.333,-0.8 0.006,-4.164 0.027,-18.589 0.033,-22.756 0.001,-0.3 -0.119,-0.589 -0.331,-0.802 -0.213,-0.213 -0.501,-0.332 -0.802,-0.332 -10.638,0.005 -92.711,0.042 -103.336,0.046 z"
       style="fill:#ffffff;fill-opacity:1"
       id="path6"
       inkscape:connector-curvature="0" />
    <path
       d="m 838.687,182.116 c 0.626,10e-4 1.133,0.508 1.133,1.133 10e-4,10.594 0.013,92.213 0.015,102.808 0,0.626 -0.507,1.133 -1.132,1.133 -4.17,0.002 -18.647,0.01 -22.81,0.012 -0.624,0 -1.131,-0.504 -1.133,-1.128 -0.045,-9.73 -0.367,-79.121 -0.367,-79.121 0,0 -69.266,0.121 -79.008,0.138 -0.3,0 -0.589,-0.118 -0.801,-0.331 -0.213,-0.212 -0.333,-0.5 -0.333,-0.8 -0.006,-4.164 -0.027,-18.589 -0.033,-22.756 -10e-4,-0.3 0.119,-0.589 0.331,-0.802 0.213,-0.213 0.501,-0.332 0.802,-0.332 10.638,0.005 92.711,0.042 103.336,0.046 z"
       style="fill:#ffffff;fill-opacity:1"
       id="path8"
       inkscape:connector-curvature="0" />
    <path
       d="m 185.313,836.306 c -0.626,-0.001 -1.133,-0.508 -1.133,-1.133 -0.001,-10.594 -0.013,-92.213 -0.015,-102.808 0,-0.626 0.507,-1.133 1.132,-1.133 4.17,-0.002 18.647,-0.01 22.81,-0.012 0.624,0 1.131,0.504 1.133,1.128 0.045,9.73 0.367,79.121 0.367,79.121 0,0 69.266,-0.121 79.008,-0.138 0.3,0 0.589,0.119 0.801,0.331 0.213,0.212 0.333,0.5 0.333,0.8 0.006,4.164 0.027,18.59 0.033,22.756 0.001,0.301 -0.119,0.589 -0.331,0.802 -0.213,0.213 -0.501,0.332 -0.802,0.332 -10.638,-0.005 -92.711,-0.042 -103.336,-0.046 z"
       style="fill:#ffffff;fill-opacity:1"
       id="path10"
       inkscape:connector-curvature="0" />
    <path
       d="m 838.687,836.306 c 0.626,-0.001 1.133,-0.508 1.133,-1.133 10e-4,-10.594 0.013,-92.213 0.015,-102.808 0,-0.626 -0.507,-1.133 -1.132,-1.133 -4.17,-0.002 -18.647,-0.01 -22.81,-0.012 -0.624,0 -1.131,0.504 -1.133,1.128 -0.045,9.73 -0.367,79.121 -0.367,79.121 0,0 -69.266,-0.121 -79.008,-0.138 -0.3,0 -0.589,0.119 -0.801,0.331 -0.213,0.212 -0.333,0.5 -0.333,0.8 -0.006,4.164 -0.027,18.59 -0.033,22.756 -10e-4,0.301 0.119,0.589 0.331,0.802 0.213,0.213 0.501,0.332 0.802,0.332 10.638,-0.005 92.711,-0.042 103.336,-0.046 z"
       style="fill:#ffffff;fill-opacity:1"
       id="path12"
       inkscape:connector-curvature="0" />
  </g>
  <g
     id="g22"
     transform="matrix(0.0464548,0,0,0.0464548,0.14446092,0.79254586)"
     style="clip-rule:evenodd;fill-rule:evenodd;stroke-linecap:round;stroke-linejoin:round;stroke-miterlimit:1.5">
    <path
       d="m 405.772,342.296 157.643,211.7 -3.029,38.356 6.351,45.325 c -1.325,-0.976 -4.813,2.036 -7.792,-2.524 -10.092,-15.441 -159.831,-242.675 -159.831,-242.675 0,0 -6.756,-9.531 -5.384,-26.687 1.484,-18.563 12.042,-23.495 12.042,-23.495 z"
       style="fill:#ffffff;fill-opacity:1"
       id="path16"
       inkscape:connector-curvature="0" />
    <path
       style="fill:#ffffff;fill-opacity:1"
       d="m 591.94336,544.32031 c -13.18941,-0.10727 -25.24553,4.07016 -34.03516,12.85938 -21.635,21.635 -15.3335,63.06689 14.0625,92.46289 29.396,29.396 70.82789,35.6975 92.46289,14.0625 21.635,-21.635 15.3335,-63.06689 -14.0625,-92.46289 -17.45387,-17.45388 -39.1509,-26.7651 -58.42773,-26.92188 z m 7.11914,22.52539 c 12.02035,0.0977 25.54956,5.90367 36.43359,16.78711 18.33,18.331 22.26053,44.16525 8.76953,57.65625 -13.49099,13.491 -39.32625,9.56342 -57.65624,-8.76758 -18.33101,-18.33 -22.26054,-44.16525 -8.76954,-57.65625 5.48072,-5.48071 12.99821,-8.08635 21.22266,-8.01953 z"
       id="path18"
       inkscape:connector-curvature="0" />
  </g>
  <g
     id="g30"
     transform="matrix(0.0464548,0,0,0.0464548,0.14446092,0.79254586)"
     style="clip-rule:evenodd;fill-rule:evenodd;stroke-linecap:round;stroke-linejoin:round;stroke-miterlimit:1.5">
    <path
       d="m 618.228,342.296 -157.643,211.7 3.029,38.356 -6.351,45.325 c 1.325,-0.976 4.813,2.036 7.792,-2.524 10.092,-15.441 159.831,-242.675 159.831,-242.675 0,0 6.756,-9.531 5.384,-26.687 -1.484,-18.563 -12.042,-23.495 -12.042,-23.495 z"
       style="fill:#ffffff;fill-opacity:1;stroke:#000000;stroke-width:0.03px"
       id="path24"
       inkscape:connector-curvature="0" />
    <path
       style="fill:#ffffff;fill-opacity:1;stroke:#000000;stroke-width:0.03px"
       d="m 432.05664,544.32031 c -19.27683,0.15678 -40.97386,9.468 -58.42773,26.92188 -29.396,29.396 -35.6975,70.82789 -14.0625,92.46289 21.635,21.635 63.06689,15.3335 92.46289,-14.0625 29.396,-29.396 35.6975,-70.82789 14.0625,-92.46289 -8.78963,-8.78922 -20.84575,-12.96665 -34.03516,-12.85938 z m -7.11914,22.52539 c 8.22445,-0.0668 15.74194,2.53882 21.22266,8.01953 13.491,13.491 9.56147,39.32625 -8.76954,57.65625 -18.32999,18.331 -44.16525,22.25858 -57.65624,8.76758 -13.491,-13.491 -9.56047,-39.32525 8.76953,-57.65625 10.88403,-10.88344 24.41324,-16.68944 36.43359,-16.78711 z"
       id="path26"
       inkscape:connector-curvature="0" />
  </g>
</svg>
