<?xml version="1.0" encoding="UTF-8" standalone="no"?>
<svg
   xmlns:dc="http://purl.org/dc/elements/1.1/"
   xmlns:cc="http://creativecommons.org/ns#"
   xmlns:rdf="http://www.w3.org/1999/02/22-rdf-syntax-ns#"
   xmlns:svg="http://www.w3.org/2000/svg"
   xmlns="http://www.w3.org/2000/svg"
   xmlns:sodipodi="http://sodipodi.sourceforge.net/DTD/sodipodi-0.dtd"
   xmlns:inkscape="http://www.inkscape.org/namespaces/inkscape"
   height="48"
   width="48"
   version="1.1"
   id="svg6"
   sodipodi:docname="org.gnome.IconPreview.svg"
   inkscape:version="1.0.2 (e86c870879, 2021-01-15)">
  <metadata
     id="metadata12">
    <rdf:RDF>
      <cc:Work
         rdf:about="">
        <dc:format>image/svg+xml</dc:format>
        <dc:type
           rdf:resource="http://purl.org/dc/dcmitype/StillImage" />
        <dc:title></dc:title>
      </cc:Work>
    </rdf:RDF>
  </metadata>
  <defs
     id="defs10" />
  <sodipodi:namedview
     pagecolor="#ffffff"
     bordercolor="#666666"
     borderopacity="1"
     objecttolerance="10"
     gridtolerance="10"
     guidetolerance="10"
     inkscape:pageopacity="0"
     inkscape:pageshadow="2"
     inkscape:window-width="1920"
     inkscape:window-height="1031"
     id="namedview8"
     showgrid="false"
     inkscape:zoom="2.3645833"
     inkscape:cx="-191.02813"
     inkscape:cy="-56.917254"
     inkscape:window-x="0"
     inkscape:window-y="24"
     inkscape:window-maximized="1"
     inkscape:current-layer="svg6"
     inkscape:document-rotation="0" />
  <circle
     cx="23.940615"
     cy="31.534513"
     fill="#5e81ac"
     opacity=".99"
     id="circle2"
     style="fill:#6885bd;fill-opacity:1"
     transform="matrix(1.75830584759 0 0 1.75830608345 -18.15909274367 -30.97874795549)"
     r="13.232998" />
  <g
     id="g868">
    <path
       id="circle842"
       style="opacity:0.99;fill:#ffffff;fill-opacity:1;stroke-width:1.59055"
       d="m 44.983568,24.468578 c 0,11.624347 -9.423394,21.047743 -21.047739,21.047743 -5.812173,0 -11.074107,-2.355849 -14.8829989,-6.164741 L 38.818828,9.5855765 c 3.808891,3.8088925 6.16474,9.0708275 6.16474,14.8830015 z"
       sodipodi:nodetypes="ssccs" />
    <path
       id="path845"
       style="fill:#6885bd;fill-opacity:0.99215686;stroke-width:1.2;stroke-linecap:square;stroke-opacity:0.992157"
       d="m 33.062984,24.468578 c 0,5.040789 -4.086366,9.127155 -9.127155,9.127155 -2.520394,0 -4.802183,-1.021592 -6.453873,-2.673282 L 30.389702,18.014705 c 1.65169,1.65169 2.673282,3.933479 2.673282,6.453873 z"
       sodipodi:nodetypes="ssccs" />
  </g>
  <g
     id="g874"
     transform="rotate(180,23.935829,24.468578)">
    <path
       id="path870"
       style="opacity:0.99;fill:#ffffff;fill-opacity:0.54990941;stroke-width:1.59055"
       d="m 44.983568,24.468578 c 0,11.624347 -9.423394,21.047743 -21.047739,21.047743 -5.812173,0 -11.074107,-2.355849 -14.8829989,-6.164741 L 38.818828,9.5855765 c 3.808891,3.8088925 6.16474,9.0708275 6.16474,14.8830015 z"
       sodipodi:nodetypes="ssccs" />
    <path
       id="path872"
       style="fill:#fefefe;fill-opacity:1;stroke-width:1.2;stroke-linecap:square;stroke-opacity:0.992157"
       d="m 33.062984,24.468578 c 0,5.040789 -4.086366,9.127155 -9.127155,9.127155 -2.520394,0 -4.802183,-1.021592 -6.453873,-2.673282 L 30.389702,18.014705 c 1.65169,1.65169 2.673282,3.933479 2.673282,6.453873 z"
       sodipodi:nodetypes="ssccs" />
  </g>
</svg>
