<?xml version="1.0" encoding="UTF-8" standalone="no"?>
<svg
   xmlns:dc="http://purl.org/dc/elements/1.1/"
   xmlns:cc="http://creativecommons.org/ns#"
   xmlns:rdf="http://www.w3.org/1999/02/22-rdf-syntax-ns#"
   xmlns:svg="http://www.w3.org/2000/svg"
   xmlns="http://www.w3.org/2000/svg"
   xmlns:sodipodi="http://sodipodi.sourceforge.net/DTD/sodipodi-0.dtd"
   xmlns:inkscape="http://www.inkscape.org/namespaces/inkscape"
   height="48"
   width="48"
   version="1.1"
   id="svg6"
   sodipodi:docname="org.xfce.PanelProfiles.svg"
   inkscape:version="1.0.2 (e86c870879, 2021-01-15)">
  <metadata
     id="metadata12">
    <rdf:RDF>
      <cc:Work
         rdf:about="">
        <dc:format>image/svg+xml</dc:format>
        <dc:type
           rdf:resource="http://purl.org/dc/dcmitype/StillImage" />
        <dc:title></dc:title>
      </cc:Work>
    </rdf:RDF>
  </metadata>
  <defs
     id="defs10" />
  <sodipodi:namedview
     pagecolor="#ffffff"
     bordercolor="#666666"
     borderopacity="1"
     objecttolerance="10"
     gridtolerance="10"
     guidetolerance="10"
     inkscape:pageopacity="0"
     inkscape:pageshadow="2"
     inkscape:window-width="1920"
     inkscape:window-height="1031"
     id="namedview8"
     showgrid="false"
     inkscape:zoom="13.376103"
     inkscape:cx="8.2943403"
     inkscape:cy="17.2874"
     inkscape:window-x="0"
     inkscape:window-y="24"
     inkscape:window-maximized="1"
     inkscape:current-layer="svg6"
     inkscape:document-rotation="0" />
  <circle
     cx="23.940615"
     cy="31.534513"
     fill="#5e81ac"
     opacity=".99"
     id="circle2"
     style="fill:#a9b7c0;fill-opacity:1"
     transform="matrix(1.75830584759 0 0 1.75830608345 -18.15909274367 -30.97874795549)"
     r="13.232998" />
  <path
     id="circle842"
     style="fill:#626a6d;fill-opacity:1;stroke-width:1.75831"
     d="M 23.892578 1.2011719 A 23.267658 23.267661 0 0 0 4.7539062 11.300781 L 43.117188 11.300781 A 23.267658 23.267661 0 0 0 23.935547 1.2011719 A 23.267658 23.267661 0 0 0 23.892578 1.2011719 z " />
  <circle
     style="fill:#ffffff;fill-opacity:1;stroke:none;stroke-width:1.2;stroke-linecap:square;stroke-opacity:0.992157"
     id="path849"
     cx="15.836551"
     cy="7.8996682"
     r="2.7945614" />
  <path
     sodipodi:type="star"
     style="fill:#ffffff;fill-opacity:1;stroke:none;stroke-width:2.12411;stroke-linecap:square;stroke-linejoin:round"
     id="path833"
     sodipodi:sides="5"
     sodipodi:cx="39.152263"
     sodipodi:cy="27.024123"
     sodipodi:r1="3.0039427"
     sodipodi:r2="1.5019712"
     sodipodi:arg1="0.78539816"
     sodipodi:arg2="1.4137167"
     inkscape:flatsided="false"
     inkscape:rounded="0"
     inkscape:randomized="0"
     inkscape:transform-center-x="0.38873976"
     inkscape:transform-center-y="-0.38873834"
     d="m 41.276372,29.148231 -1.889148,-0.640629 -1.598722,1.193053 0.02549,-1.994652 -1.628693,-1.151801 1.904906,-0.592134 0.592133,-1.904905 1.151801,1.628693 1.994652,-0.02549 -1.193053,1.598721 z" />
  <path
     sodipodi:type="star"
     style="fill:#ffffff;fill-opacity:1;stroke:none;stroke-width:4;stroke-linecap:square;stroke-linejoin:round"
     id="path835"
     sodipodi:sides="5"
     sodipodi:cx="34.635741"
     sodipodi:cy="34.259084"
     sodipodi:r1="5.6568542"
     sodipodi:r2="2.8284271"
     sodipodi:arg1="0.78539816"
     sodipodi:arg2="1.4137167"
     inkscape:flatsided="false"
     inkscape:rounded="0"
     inkscape:randomized="0"
     inkscape:transform-center-x="0.73205081"
     inkscape:transform-center-y="-0.73205081"
     d="m 38.635742,38.259083 -3.557536,-1.206396 -3.010622,2.24669 0.04801,-3.756215 -3.067062,-2.169006 3.587209,-1.115073 1.115073,-3.587209 2.169006,3.067062 3.756215,-0.04801 -2.246689,3.010621 z" />
  <path
     sodipodi:type="star"
     style="fill:#ffffff;fill-opacity:1;stroke:none;stroke-width:2.12411;stroke-linecap:square;stroke-linejoin:round"
     id="path837"
     sodipodi:sides="5"
     sodipodi:cx="27.974008"
     sodipodi:cy="29.577203"
     sodipodi:r1="3.0039427"
     sodipodi:r2="1.5019712"
     sodipodi:arg1="0.78539816"
     sodipodi:arg2="1.4137167"
     inkscape:flatsided="false"
     inkscape:rounded="0"
     inkscape:randomized="0"
     inkscape:transform-center-x="0.38873976"
     inkscape:transform-center-y="-0.38873834"
     d="m 30.098117,31.701312 -1.889148,-0.640629 -1.598722,1.193053 0.02549,-1.994652 -1.628693,-1.1518 1.904906,-0.592134 0.592133,-1.904905 1.151801,1.628693 1.994652,-0.0255 -1.193053,1.598722 z" />
  <path
     sodipodi:type="star"
     style="fill:#ffffff;fill-opacity:1;stroke:none;stroke-width:2.12411;stroke-linecap:square;stroke-linejoin:round"
     id="path839"
     sodipodi:sides="5"
     sodipodi:cx="24.062054"
     sodipodi:cy="40.062054"
     sodipodi:r1="3.0039427"
     sodipodi:r2="1.5019712"
     sodipodi:arg1="0.78539816"
     sodipodi:arg2="1.4137167"
     inkscape:flatsided="false"
     inkscape:rounded="0"
     inkscape:randomized="0"
     inkscape:transform-center-x="0.26898091"
     inkscape:transform-center-y="-0.26349375"
     transform="matrix(0.69193076,0,0,0.67781855,10.134491,11.028664)"
     d="m 26.186162,42.186162 -1.889148,-0.640629 -1.598722,1.193053 0.0255,-1.994652 -1.628693,-1.1518 L 23,39 l 0.592133,-1.904906 1.151801,1.628694 1.994652,-0.0255 -1.193053,1.598722 z" />
  <path
     sodipodi:type="star"
     style="fill:#ffffff;fill-opacity:1;stroke:none;stroke-width:2.12411;stroke-linecap:square;stroke-linejoin:round"
     id="path841"
     sodipodi:sides="5"
     sodipodi:cx="24.062054"
     sodipodi:cy="40.062054"
     sodipodi:r1="3.0039427"
     sodipodi:r2="1.5019712"
     sodipodi:arg1="0.78539816"
     sodipodi:arg2="1.4137167"
     inkscape:flatsided="false"
     inkscape:rounded="0"
     inkscape:randomized="0"
     inkscape:transform-center-x="0.16254673"
     inkscape:transform-center-y="-0.15923072"
     transform="matrix(0.41813777,0,0,0.40960968,19.73569,25.407889)"
     d="m 26.186162,42.186162 -1.889148,-0.640629 -1.598722,1.193053 0.0255,-1.994652 -1.628693,-1.1518 L 23,39 l 0.592133,-1.904906 1.151801,1.628694 1.994652,-0.0255 -1.193053,1.598722 z" />
  <path
     sodipodi:type="star"
     style="fill:#ffffff;fill-opacity:1;stroke:none;stroke-width:2.12411;stroke-linecap:square;stroke-linejoin:round"
     id="path843"
     sodipodi:sides="5"
     sodipodi:cx="24.062054"
     sodipodi:cy="40.062054"
     sodipodi:r1="3.0039427"
     sodipodi:r2="1.5019712"
     sodipodi:arg1="0.78539816"
     sodipodi:arg2="1.4137167"
     inkscape:flatsided="false"
     inkscape:rounded="0"
     inkscape:randomized="0"
     inkscape:transform-center-x="0.16254673"
     inkscape:transform-center-y="-0.15923072"
     transform="matrix(0.41813777,0,0,0.40960968,17.954189,17.753037)"
     d="m 26.186162,42.186162 -1.889148,-0.640629 -1.598722,1.193053 0.0255,-1.994652 -1.628693,-1.1518 L 23,39 l 0.592133,-1.904906 1.151801,1.628694 1.994652,-0.0255 -1.193053,1.598722 z" />
  <path
     sodipodi:type="star"
     style="fill:#ffffff;fill-opacity:1;stroke:none;stroke-width:2.12411;stroke-linecap:square;stroke-linejoin:round"
     id="path845"
     sodipodi:sides="5"
     sodipodi:cx="24.062054"
     sodipodi:cy="40.062054"
     sodipodi:r1="3.0039427"
     sodipodi:r2="1.5019712"
     sodipodi:arg1="0.78539816"
     sodipodi:arg2="1.4137167"
     inkscape:flatsided="false"
     inkscape:rounded="0"
     inkscape:randomized="0"
     inkscape:transform-center-x="0.16254673"
     inkscape:transform-center-y="-0.15923072"
     transform="matrix(0.41813777,0,0,0.40960968,23.289367,10.397446)"
     d="m 26.186162,42.186162 -1.889148,-0.640629 -1.598722,1.193053 0.0255,-1.994652 -1.628693,-1.1518 L 23,39 l 0.592133,-1.904906 1.151801,1.628694 1.994652,-0.0255 -1.193053,1.598722 z" />
  <path
     sodipodi:type="star"
     style="fill:#ffffff;fill-opacity:1;stroke:none;stroke-width:2.12411;stroke-linecap:square;stroke-linejoin:round"
     id="path847"
     sodipodi:sides="5"
     sodipodi:cx="24.062054"
     sodipodi:cy="40.062054"
     sodipodi:r1="3.0039427"
     sodipodi:r2="1.5019712"
     sodipodi:arg1="0.78539816"
     sodipodi:arg2="1.4137167"
     inkscape:flatsided="false"
     inkscape:rounded="0"
     inkscape:randomized="0"
     inkscape:transform-center-x="0.16254673"
     inkscape:transform-center-y="-0.15923072"
     transform="matrix(0.41813777,0,0,0.40960968,31.954189,15.753037)"
     d="m 26.186162,42.186162 -1.889148,-0.640629 -1.598722,1.193053 0.0255,-1.994652 -1.628693,-1.1518 L 23,39 l 0.592133,-1.904906 1.151801,1.628694 1.994652,-0.0255 -1.193053,1.598722 z" />
  <path
     sodipodi:type="star"
     style="fill:#ffffff;fill-opacity:1;stroke:none;stroke-width:2.12411;stroke-linecap:square;stroke-linejoin:round"
     id="path849-3"
     sodipodi:sides="5"
     sodipodi:cx="24.062054"
     sodipodi:cy="40.062054"
     sodipodi:r1="3.0039427"
     sodipodi:r2="1.5019712"
     sodipodi:arg1="0.78539816"
     sodipodi:arg2="1.4137167"
     inkscape:flatsided="false"
     inkscape:rounded="0"
     inkscape:randomized="0"
     inkscape:transform-center-x="0.071920968"
     inkscape:transform-center-y="-0.070454206"
     transform="matrix(0.18501068,0,0,0.18123731,25.380495,30.190829)"
     d="m 26.186162,42.186162 -1.889148,-0.640629 -1.598722,1.193053 0.0255,-1.994652 -1.628693,-1.1518 L 23,39 l 0.592133,-1.904906 1.151801,1.628694 1.994652,-0.0255 -1.193053,1.598722 z" />
  <path
     sodipodi:type="star"
     style="fill:#ffffff;fill-opacity:1;stroke:none;stroke-width:2.12411;stroke-linecap:square;stroke-linejoin:round"
     id="path851"
     sodipodi:sides="5"
     sodipodi:cx="24.062054"
     sodipodi:cy="40.062054"
     sodipodi:r1="3.0039427"
     sodipodi:r2="1.5019712"
     sodipodi:arg1="0.78539816"
     sodipodi:arg2="1.4137167"
     inkscape:flatsided="false"
     inkscape:rounded="0"
     inkscape:randomized="0"
     inkscape:transform-center-x="0.071920968"
     inkscape:transform-center-y="-0.070454206"
     transform="matrix(0.18501068,0,0,0.18123731,32.140534,20.729483)"
     d="m 26.186162,42.186162 -1.889148,-0.640629 -1.598722,1.193053 0.0255,-1.994652 -1.628693,-1.1518 L 23,39 l 0.592133,-1.904906 1.151801,1.628694 1.994652,-0.0255 -1.193053,1.598722 z" />
  <path
     sodipodi:type="star"
     style="fill:#ffffff;fill-opacity:1;stroke:none;stroke-width:2.12411;stroke-linecap:square;stroke-linejoin:round"
     id="path853"
     sodipodi:sides="5"
     sodipodi:cx="24.062054"
     sodipodi:cy="40.062054"
     sodipodi:r1="3.0039427"
     sodipodi:r2="1.5019712"
     sodipodi:arg1="0.78539816"
     sodipodi:arg2="1.4137167"
     inkscape:flatsided="false"
     inkscape:rounded="0"
     inkscape:randomized="0"
     inkscape:transform-center-x="0.071920968"
     inkscape:transform-center-y="-0.070454206"
     transform="matrix(0.18501068,0,0,0.18123731,17.431598,28.874763)"
     d="m 26.186162,42.186162 -1.889148,-0.640629 -1.598722,1.193053 0.0255,-1.994652 -1.628693,-1.1518 L 23,39 l 0.592133,-1.904906 1.151801,1.628694 1.994652,-0.0255 -1.193053,1.598722 z" />
  <path
     sodipodi:type="star"
     style="fill:#ffffff;fill-opacity:1;stroke:none;stroke-width:2.12411;stroke-linecap:square;stroke-linejoin:round"
     id="path855"
     sodipodi:sides="5"
     sodipodi:cx="24.062054"
     sodipodi:cy="40.062054"
     sodipodi:r1="3.0039427"
     sodipodi:r2="1.5019712"
     sodipodi:arg1="0.78539816"
     sodipodi:arg2="1.4137167"
     inkscape:flatsided="false"
     inkscape:rounded="0"
     inkscape:randomized="0"
     inkscape:transform-center-x="0.071920968"
     inkscape:transform-center-y="-0.070454206"
     transform="matrix(0.18501068,0,0,0.18123731,20.140534,24.729483)"
     d="m 26.186162,42.186162 -1.889148,-0.640629 -1.598722,1.193053 0.0255,-1.994652 -1.628693,-1.1518 L 23,39 l 0.592133,-1.904906 1.151801,1.628694 1.994652,-0.0255 -1.193053,1.598722 z" />
  <path
     sodipodi:type="star"
     style="fill:#ffffff;fill-opacity:1;stroke:none;stroke-width:2.12411;stroke-linecap:square;stroke-linejoin:round"
     id="path857"
     sodipodi:sides="5"
     sodipodi:cx="24.062054"
     sodipodi:cy="40.062054"
     sodipodi:r1="3.0039427"
     sodipodi:r2="1.5019712"
     sodipodi:arg1="0.78539816"
     sodipodi:arg2="1.4137167"
     inkscape:flatsided="false"
     inkscape:rounded="0"
     inkscape:randomized="0"
     inkscape:transform-center-x="0.071920968"
     inkscape:transform-center-y="-0.070454206"
     transform="matrix(0.18501068,0,0,0.18123731,26.140534,18.729483)"
     d="m 26.186162,42.186162 -1.889148,-0.640629 -1.598722,1.193053 0.0255,-1.994652 -1.628693,-1.1518 L 23,39 l 0.592133,-1.904906 1.151801,1.628694 1.994652,-0.0255 -1.193053,1.598722 z" />
  <path
     sodipodi:type="star"
     style="fill:#ffffff;fill-opacity:1;stroke:none;stroke-width:2.12411;stroke-linecap:square;stroke-linejoin:round"
     id="path859"
     sodipodi:sides="5"
     sodipodi:cx="24.062054"
     sodipodi:cy="40.062054"
     sodipodi:r1="3.0039427"
     sodipodi:r2="1.5019712"
     sodipodi:arg1="0.78539816"
     sodipodi:arg2="1.4137167"
     inkscape:flatsided="false"
     inkscape:rounded="0"
     inkscape:randomized="0"
     inkscape:transform-center-x="0.071920968"
     inkscape:transform-center-y="-0.070454206"
     transform="matrix(0.18501068,0,0,0.18123731,38.909545,19.955762)"
     d="m 26.186162,42.186162 -1.889148,-0.640629 -1.598722,1.193053 0.0255,-1.994652 -1.628693,-1.1518 L 23,39 l 0.592133,-1.904906 1.151801,1.628694 1.994652,-0.0255 -1.193053,1.598722 z" />
  <path
     sodipodi:type="star"
     style="fill:#ffffff;fill-opacity:1;stroke:none;stroke-width:2.12411;stroke-linecap:square;stroke-linejoin:round"
     id="path861"
     sodipodi:sides="5"
     sodipodi:cx="24.062054"
     sodipodi:cy="40.062054"
     sodipodi:r1="3.0039427"
     sodipodi:r2="1.5019712"
     sodipodi:arg1="0.78539816"
     sodipodi:arg2="1.4137167"
     inkscape:flatsided="false"
     inkscape:rounded="0"
     inkscape:randomized="0"
     inkscape:transform-center-x="0.071920968"
     inkscape:transform-center-y="-0.070454206"
     transform="matrix(0.18501068,0,0,0.18123731,28.909545,14.955762)"
     d="m 26.186162,42.186162 -1.889148,-0.640629 -1.598722,1.193053 0.0255,-1.994652 -1.628693,-1.1518 L 23,39 l 0.592133,-1.904906 1.151801,1.628694 1.994652,-0.0255 -1.193053,1.598722 z" />
</svg>
