<?xml version="1.0" encoding="UTF-8" standalone="no"?>
<svg
   xmlns:dc="http://purl.org/dc/elements/1.1/"
   xmlns:cc="http://creativecommons.org/ns#"
   xmlns:rdf="http://www.w3.org/1999/02/22-rdf-syntax-ns#"
   xmlns:svg="http://www.w3.org/2000/svg"
   xmlns="http://www.w3.org/2000/svg"
   xmlns:sodipodi="http://sodipodi.sourceforge.net/DTD/sodipodi-0.dtd"
   xmlns:inkscape="http://www.inkscape.org/namespaces/inkscape"
   height="48"
   width="48"
   version="1.1"
   id="svg6"
   sodipodi:docname="org.gnome.DiskUtility.svg"
   inkscape:version="1.0.2 (e86c870879, 2021-01-15)">
  <metadata
     id="metadata12">
    <rdf:RDF>
      <cc:Work
         rdf:about="">
        <dc:format>image/svg+xml</dc:format>
        <dc:type
           rdf:resource="http://purl.org/dc/dcmitype/StillImage" />
        <dc:title></dc:title>
      </cc:Work>
    </rdf:RDF>
  </metadata>
  <defs
     id="defs10" />
  <sodipodi:namedview
     pagecolor="#ffffff"
     bordercolor="#666666"
     borderopacity="1"
     objecttolerance="10"
     gridtolerance="10"
     guidetolerance="10"
     inkscape:pageopacity="0"
     inkscape:pageshadow="2"
     inkscape:window-width="1920"
     inkscape:window-height="1031"
     id="namedview8"
     showgrid="false"
     inkscape:zoom="9.4583331"
     inkscape:cx="36.560451"
     inkscape:cy="39.650534"
     inkscape:window-x="0"
     inkscape:window-y="24"
     inkscape:window-maximized="1"
     inkscape:current-layer="svg6"
     inkscape:document-rotation="0" />
  <circle
     cx="23.940615"
     cy="31.534513"
     fill="#5e81ac"
     opacity=".99"
     id="circle2"
     style="fill:#e88170;fill-opacity:1"
     transform="matrix(1.75830584759 0 0 1.75830608345 -18.15909274367 -30.97874795549)"
     r="13.232998" />
  <path
     d="m 22.572198,6.8367964 c 0.354148,-0.3668832 0.842177,-0.5741089 1.35212,-0.5741089 0.509944,0 0.998015,0.2072257 1.352112,0.5741554 3.385549,3.5077521 12.183117,12.6228531 15.365779,15.9204091 0.666237,0.690281 0.705863,1.771451 0.09195,2.508587 -3.074315,3.69155 -11.881722,14.267221 -15.366136,18.451232 -0.357037,0.428696 -0.886146,0.676611 -1.44406,0.676611 -0.557955,0 -1.087022,-0.247915 -1.444059,-0.676704 C 18.995579,39.532837 10.188347,28.956545 7.114073,25.264819 6.5002082,24.527637 6.5398753,23.446467 7.2061121,22.756232 10.388874,19.458853 19.186566,10.344331 22.572198,6.8367964 Z"
     style="clip-rule:evenodd;fill:#ffffff;fill-rule:evenodd;stroke-width:0.0443739;stroke-linejoin:round;stroke-miterlimit:2;fill-opacity:0.45552489"
     id="path2"
     inkscape:connector-curvature="0" />
  <path
     id="path4-3"
     style="clip-rule:evenodd;fill:#ffffff;fill-rule:evenodd;stroke-width:0.0443739;stroke-linejoin:round;stroke-miterlimit:2;fill-opacity:1"
     d="M 14.689453 9.9042969 C 13.948009 9.9042969 13.235213 10.198336 12.710938 10.722656 C 12.186613 11.246975 11.892578 11.957731 11.892578 12.699219 L 11.892578 36.976562 C 11.892578 37.71805 12.186613 38.428806 12.710938 38.953125 C 13.235214 39.477444 13.948009 39.773437 14.689453 39.773438 L 33.134766 39.773438 C 33.876259 39.773438 34.587011 39.477444 35.111328 38.953125 C 35.635604 38.428806 35.931641 37.71805 35.931641 36.976562 L 35.931641 12.699219 C 35.931641 11.957731 35.635604 11.246975 35.111328 10.722656 C 34.587011 10.198336 33.876259 9.9042969 33.134766 9.9042969 L 14.689453 9.9042969 z M 23.710938 11.623047 C 23.710938 11.623047 23.782136 11.622893 23.904297 11.623047 C 24.026462 11.622912 24.097656 11.623047 24.097656 11.623047 C 24.91307 11.624447 26.775475 11.629493 27.28125 11.658203 C 27.721607 11.683233 28.098661 11.914546 28.171875 12.162109 C 28.241215 12.396717 28.186108 12.657955 28.671875 13.236328 C 28.959426 13.578732 29.403625 13.74679 29.769531 13.830078 L 32.039062 13.830078 C 32.547852 13.830078 33.036698 14.032792 33.396484 14.392578 C 33.75622 14.752318 33.957031 15.241209 33.957031 15.75 C 33.957031 16.258791 33.75622 16.745688 33.396484 17.105469 C 33.036698 17.465209 32.547852 17.667969 32.039062 17.667969 L 30.275391 17.667969 L 30.275391 17.683594 C 30.268146 17.683557 30.256957 17.681641 30.25 17.681641 C 29.430681 17.681641 28.765625 18.346697 28.765625 19.166016 C 28.765625 19.674303 28.800545 20.406964 30.275391 21.583984 C 30.279982 21.587649 30.28249 21.59203 30.287109 21.595703 A 9.3935477 9.3935477 0 0 1 33.287109 28.476562 A 9.3935477 9.3935477 0 0 1 23.894531 37.871094 A 9.3935477 9.3935477 0 0 1 14.5 28.476562 A 9.3935477 9.3935477 0 0 1 17.507812 21.589844 A 9.3935477 9.3935477 0 0 1 17.509766 21.587891 C 18.988107 20.409215 19.023437 19.674709 19.023438 19.166016 C 19.023438 18.346697 18.358337 17.681641 17.539062 17.681641 C 17.532104 17.681641 17.520918 17.683557 17.513672 17.683594 L 17.513672 17.667969 L 15.777344 17.667969 C 15.268605 17.667969 14.781619 17.465209 14.421875 17.105469 C 14.062139 16.745688 13.859375 16.258791 13.859375 15.75 C 13.859375 15.241209 14.062139 14.752318 14.421875 14.392578 C 14.781619 14.032792 15.268605 13.830078 15.777344 13.830078 L 18.039062 13.830078 C 18.404968 13.746788 18.847181 13.578732 19.134766 13.236328 C 19.620528 12.657955 19.567366 12.396717 19.636719 12.162109 C 19.709959 11.914546 20.085025 11.68323 20.525391 11.658203 C 21.031165 11.629463 22.895523 11.624287 23.710938 11.623047 z " />
  <g
     id="g18"
     style="clip-rule:evenodd;fill-rule:evenodd;stroke-linejoin:round;stroke-miterlimit:2"
     transform="matrix(0.04437386,0,0,0.04437386,1.2047189,2.724096)" />
  <circle
     cx="14.935014"
     cy="11.8605"
     r="1.0690107"
     style="clip-rule:evenodd;fill:#e88170;fill-rule:evenodd;stroke-width:0.0443739;stroke-linejoin:round;stroke-miterlimit:2;fill-opacity:0.99215686"
     id="circle20" />
  <circle
     cx="14.928223"
     cy="20.071918"
     r="1.0690107"
     style="clip-rule:evenodd;fill:#e88170;fill-rule:evenodd;stroke-width:0.0443739;stroke-linejoin:round;stroke-miterlimit:2;fill-opacity:0.99215686"
     id="circle22" />
  <circle
     cx="14.935014"
     cy="36.166935"
     r="1.0690107"
     style="clip-rule:evenodd;fill:#e88170;fill-rule:evenodd;stroke-width:0.0443739;stroke-linejoin:round;stroke-miterlimit:2;fill-opacity:0.99215686"
     id="circle24" />
  <circle
     cx="32.860683"
     cy="11.8605"
     r="1.0690107"
     style="clip-rule:evenodd;fill:#e88170;fill-rule:evenodd;stroke-width:0.0443739;stroke-linejoin:round;stroke-miterlimit:2;fill-opacity:0.99215686"
     id="circle26" />
  <circle
     cx="32.85384"
     cy="20.071918"
     r="1.0690107"
     style="clip-rule:evenodd;fill:#e88170;fill-rule:evenodd;stroke-width:0.0443739;stroke-linejoin:round;stroke-miterlimit:2;fill-opacity:0.99215686"
     id="circle28" />
  <path
     d="m 24.633635,23.884526 -3.10009,2.619345 c 0,0 6.277787,7.430091 9.06793,10.732351 0.723292,0.856062 2.00361,0.96371 2.859713,0.240374 0,0 0,0 0,0 0.856061,-0.723295 0.963719,-2.003657 0.240377,-2.859719 -2.790143,-3.30226 -9.06793,-10.732351 -9.06793,-10.732351 z"
     style="clip-rule:evenodd;fill:#ffffff;fill-rule:evenodd;stroke-width:0.0443739;stroke-linejoin:round;stroke-miterlimit:2"
     id="path30"
     inkscape:connector-curvature="0" />
  <path
     id="circle32"
     style="clip-rule:evenodd;fill:#ffffff;fill-rule:evenodd;stroke-width:0.0443739;stroke-linejoin:round;stroke-miterlimit:2"
     d="M 22.626953 20.072266 A 4.8109703 4.8109703 0 0 0 21.175781 20.296875 C 21.655003 20.870548 22.969825 22.44164 23.826172 23.466797 C 24.1158 23.813488 24.069347 24.329512 23.722656 24.619141 C 23.258152 25.007143 22.628567 25.533827 22.164062 25.921875 C 21.817329 26.211504 21.301355 26.165096 21.011719 25.818359 C 20.157049 24.795194 18.850017 23.230333 18.367188 22.652344 A 4.8109703 4.8109703 0 0 0 17.816406 24.882812 A 4.8109703 4.8109703 0 0 0 22.626953 29.693359 A 4.8109703 4.8109703 0 0 0 27.4375 24.882812 A 4.8109703 4.8109703 0 0 0 22.626953 20.072266 z " />
</svg>
