<?xml version="1.0" encoding="UTF-8" standalone="no"?>
<svg
   xmlns:dc="http://purl.org/dc/elements/1.1/"
   xmlns:cc="http://creativecommons.org/ns#"
   xmlns:rdf="http://www.w3.org/1999/02/22-rdf-syntax-ns#"
   xmlns:svg="http://www.w3.org/2000/svg"
   xmlns="http://www.w3.org/2000/svg"
   xmlns:sodipodi="http://sodipodi.sourceforge.net/DTD/sodipodi-0.dtd"
   xmlns:inkscape="http://www.inkscape.org/namespaces/inkscape"
   height="48"
   width="48"
   version="1.1"
   id="svg6"
   sodipodi:docname="org.kde.step.svg"
   inkscape:version="1.0.2 (e86c870879, 2021-01-15)">
  <metadata
     id="metadata12">
    <rdf:RDF>
      <cc:Work
         rdf:about="">
        <dc:format>image/svg+xml</dc:format>
        <dc:type
           rdf:resource="http://purl.org/dc/dcmitype/StillImage" />
        <dc:title></dc:title>
      </cc:Work>
    </rdf:RDF>
  </metadata>
  <defs
     id="defs10" />
  <sodipodi:namedview
     pagecolor="#ffffff"
     bordercolor="#666666"
     borderopacity="1"
     objecttolerance="10"
     gridtolerance="10"
     guidetolerance="10"
     inkscape:pageopacity="0"
     inkscape:pageshadow="2"
     inkscape:window-width="1920"
     inkscape:window-height="1031"
     id="namedview8"
     showgrid="false"
     inkscape:zoom="13.376103"
     inkscape:cx="8.2943403"
     inkscape:cy="17.2874"
     inkscape:window-x="0"
     inkscape:window-y="24"
     inkscape:window-maximized="1"
     inkscape:current-layer="svg6"
     inkscape:document-rotation="0" />
  <circle
     cx="23.940615"
     cy="31.534513"
     fill="#5e81ac"
     opacity=".99"
     id="circle2"
     style="fill:#b48ead;fill-opacity:1"
     transform="matrix(1.75830584759 0 0 1.75830608345 -18.15909274367 -30.97874795549)"
     r="13.232998" />
  <g
     id="g22"
     style="fill:#c69aac;fill-opacity:1"
     transform="matrix(0.05721211,0,0,0.05721211,6.1727145,6.0442332)">
    <path
       d="M 91.35,89.66 H 518.76 V 463.82 H 91.35 Z"
       id="use20"
       style="fill:#dfe2f9;fill-opacity:0.9921568" />
  </g>
  <g
     id="g26"
     style="fill:#ffffff;fill-opacity:1"
     transform="matrix(0.05721211,0,0,0.05721211,6.1727145,6.0442332)">
    <path
       d="m 64.27,463.82 h 494.38 v 84.27 H 64.27 Z"
       id="use24"
       style="fill:#ffffff;fill-opacity:1" />
  </g>
  <g
     id="g30"
     style="fill:#977681;fill-opacity:1"
     transform="matrix(0.05721211,0,0,0.05721211,6.1727145,6.0442332)">
    <path
       d="M 110.22,116.4 H 497.87 V 455.96 H 110.22 Z"
       id="use28"
       style="fill:#b48ead;fill-opacity:0.99215686" />
  </g>
  <g
     id="g34"
     style="fill:#c69aac;fill-opacity:1"
     transform="matrix(0.05721211,0,0,0.05721211,6.1727145,6.0442332)">
    <path
       d="M 414.61,111.85 429.64,102 568.2,313.46 553.16,323.31 Z"
       id="use32"
       style="fill:#dfe2f9;fill-opacity:0.9921568" />
  </g>
  <g
     id="g38"
     style="fill:#c69aac;fill-opacity:1"
     transform="matrix(0.05721211,0,0,0.05721211,6.1727145,6.0442332)">
    <path
       d="m 159.89,99.55 h 17.98 v 252.81 h -17.98 z"
       id="use36"
       style="fill:#e0e3fa;fill-opacity:1" />
  </g>
  <g
     id="g42"
     style="fill:#c69aac;fill-opacity:1"
     transform="matrix(0.05721211,0,0,0.05721211,6.1727145,6.0442332)">
    <path
       d="m 263.03,99.55 h 17.98 v 252.81 h -17.98 z"
       id="use40"
       style="fill:#e0e3fa;fill-opacity:1" />
  </g>
  <g
     id="g46"
     style="fill:#c69aac;fill-opacity:1"
     transform="matrix(0.05721211,0,0,0.05721211,6.1727145,6.0442332)">
    <path
       d="m 359.44,102 h 17.98 v 252.81 h -17.98 z"
       id="use44"
       style="fill:#e0e3fa;fill-opacity:1" />
  </g>
  <g
     id="g50"
     style="fill:#ddafc2;fill-opacity:1"
     transform="matrix(0.05721211,0,0,0.05721211,6.1727145,6.0442332)">
    <path
       d="m 215.06,357.98 c 0,24.55 -20.7,44.49 -46.18,44.49 -25.49,0 -46.18,-19.94 -46.18,-44.49 0,-24.56 20.69,-44.5 46.18,-44.5 25.48,0 46.18,19.94 46.18,44.5 z"
       id="use48"
       style="fill:#e0e3fa;fill-opacity:1" />
  </g>
  <g
     id="g54"
     style="fill:#ddafc2;fill-opacity:1"
     transform="matrix(0.05721211,0,0,0.05721211,6.1727145,6.0442332)">
    <path
       d="m 317.08,357.98 c 0,24.55 -20.69,44.49 -46.18,44.49 -25.49,0 -46.18,-19.94 -46.18,-44.49 0,-24.56 20.69,-44.5 46.18,-44.5 25.49,0 46.18,19.94 46.18,44.5 z"
       id="use52"
       style="fill:#e0e3fa;fill-opacity:1" />
  </g>
  <g
     id="g58"
     style="fill:#ddafc2;fill-opacity:1"
     transform="matrix(0.05721211,0,0,0.05721211,6.1727145,6.0442332)">
    <path
       d="m 414.61,357.98 c 0,24.55 -20.7,44.49 -46.18,44.49 -25.49,0 -46.18,-19.94 -46.18,-44.49 0,-24.56 20.69,-44.5 46.18,-44.5 25.48,0 46.18,19.94 46.18,44.5 z"
       id="use56"
       style="fill:#e0e3fa;fill-opacity:1" />
  </g>
  <g
     id="g62"
     style="fill:#ddafc2;fill-opacity:1"
     transform="matrix(0.05721211,0,0,0.05721211,6.1727145,6.0442332)">
    <path
       d="m 603.72,299.2 c 17.18,17.55 16.33,46.28 -1.89,64.1 -18.22,17.83 -46.95,18.05 -64.13,0.49 -17.17,-17.55 -16.32,-46.27 1.9,-64.1 18.21,-17.82 46.95,-18.04 64.12,-0.49 z"
       id="use60"
       style="fill:#ffffff;fill-opacity:1" />
  </g>
</svg>
