<?xml version="1.0" encoding="UTF-8" standalone="no"?>
<svg
   xmlns:dc="http://purl.org/dc/elements/1.1/"
   xmlns:cc="http://creativecommons.org/ns#"
   xmlns:rdf="http://www.w3.org/1999/02/22-rdf-syntax-ns#"
   xmlns:svg="http://www.w3.org/2000/svg"
   xmlns="http://www.w3.org/2000/svg"
   xmlns:sodipodi="http://sodipodi.sourceforge.net/DTD/sodipodi-0.dtd"
   xmlns:inkscape="http://www.inkscape.org/namespaces/inkscape"
   height="48"
   width="48"
   version="1.1"
   id="svg6"
   sodipodi:docname="parlatype.svg"
   inkscape:version="1.0.2 (e86c870879, 2021-01-15)">
  <metadata
     id="metadata12">
    <rdf:RDF>
      <cc:Work
         rdf:about="">
        <dc:format>image/svg+xml</dc:format>
        <dc:type
           rdf:resource="http://purl.org/dc/dcmitype/StillImage" />
        <dc:title></dc:title>
      </cc:Work>
    </rdf:RDF>
  </metadata>
  <defs
     id="defs10">
    <marker
       style="overflow:visible"
       id="DotL"
       refX="0.0"
       refY="0.0"
       orient="auto"
       inkscape:stockid="DotL"
       inkscape:isstock="true">
      <path
         transform="scale(0.8) translate(7.4, 1)"
         style="fill-rule:evenodd;stroke:#000000;stroke-width:1pt;stroke-opacity:1;fill:#000000;fill-opacity:1"
         d="M -2.5,-1.0 C -2.5,1.7600000 -4.7400000,4.0 -7.5,4.0 C -10.260000,4.0 -12.5,1.7600000 -12.5,-1.0 C -12.5,-3.7600000 -10.260000,-6.0 -7.5,-6.0 C -4.7400000,-6.0 -2.5,-3.7600000 -2.5,-1.0 z "
         id="path898" />
    </marker>
  </defs>
  <sodipodi:namedview
     pagecolor="#ffffff"
     bordercolor="#666666"
     borderopacity="1"
     objecttolerance="10"
     gridtolerance="10"
     guidetolerance="10"
     inkscape:pageopacity="0"
     inkscape:pageshadow="2"
     inkscape:window-width="1920"
     inkscape:window-height="1028"
     id="namedview8"
     showgrid="false"
     inkscape:zoom="11.313708"
     inkscape:cx="7.9319203"
     inkscape:cy="29.418051"
     inkscape:window-x="0"
     inkscape:window-y="24"
     inkscape:window-maximized="1"
     inkscape:current-layer="svg6"
     inkscape:document-rotation="0" />
  <circle
     cx="23.940615"
     cy="31.534513"
     fill="#5e81ac"
     opacity=".99"
     r="13.232998"
     transform="matrix(1.75830584759 0 0 1.75830608345 -18.15909274367 -30.97874795549)"
     id="circle2"
     style="fill:#aac3cd;fill-opacity:1" />
  <path
     inkscape:connector-curvature="0"
     style="fill:#ffffff;stroke-width:1.59495"
     d="M 23.935889,8.5162251 A 15.949562,15.949562 0 0 0 7.9863265,24.465787 15.949562,15.949562 0 0 0 8.3103034,27.652585 c -0.3882012,1.190663 -0.4333161,2.584873 -0.00622,3.993622 l 1.2990174,4.289559 c 0.9521102,3.14056 3.7802192,5.065932 6.3393292,4.317596 2.559109,-0.748336 3.852313,-3.877869 2.900203,-7.018431 L 17.543619,28.945372 C 16.784384,26.441013 14.83138,24.735104 12.774327,24.51563 a 11.164694,11.164694 0 0 1 -0.0032,-0.04984 11.164694,11.164694 0 0 1 11.164692,-11.164694 11.164694,11.164694 0 0 1 11.164694,11.164694 11.164694,11.164694 0 0 1 -0.0032,0.05608 c -2.057053,0.219473 -4.010056,1.925382 -4.769292,4.42974 l -1.299017,4.286446 c -0.952109,3.14056 0.341095,6.273209 2.900203,7.021545 2.55911,0.748335 5.387218,-1.177036 6.339329,-4.317596 l 1.299016,-4.289559 c 0.429119,-1.415463 0.381067,-2.81805 -0.01244,-4.012313 A 15.949562,15.949562 0 0 0 39.885334,24.465792 15.949562,15.949562 0 0 0 23.935772,8.5162308 Z"
     id="path4675-3" />
</svg>
