<?xml version="1.0" encoding="UTF-8" standalone="no"?>
<svg
   height="48"
   width="48"
   version="1.1"
   id="svg6"
   sodipodi:docname="plasmadiscover.svg"
   inkscape:version="1.1.2 (0a00cf5339, 2022-02-04)"
   xmlns:inkscape="http://www.inkscape.org/namespaces/inkscape"
   xmlns:sodipodi="http://sodipodi.sourceforge.net/DTD/sodipodi-0.dtd"
   xmlns="http://www.w3.org/2000/svg"
   xmlns:svg="http://www.w3.org/2000/svg"
   xmlns:rdf="http://www.w3.org/1999/02/22-rdf-syntax-ns#"
   xmlns:cc="http://creativecommons.org/ns#"
   xmlns:dc="http://purl.org/dc/elements/1.1/">
  <metadata
     id="metadata12">
    <rdf:RDF>
      <cc:Work
         rdf:about="">
        <dc:format>image/svg+xml</dc:format>
        <dc:type
           rdf:resource="http://purl.org/dc/dcmitype/StillImage" />
        <dc:title />
      </cc:Work>
    </rdf:RDF>
  </metadata>
  <defs
     id="defs10" />
  <sodipodi:namedview
     pagecolor="#ffffff"
     bordercolor="#666666"
     borderopacity="1"
     objecttolerance="10"
     gridtolerance="10"
     guidetolerance="10"
     inkscape:pageopacity="0"
     inkscape:pageshadow="2"
     inkscape:window-width="1920"
     inkscape:window-height="1031"
     id="namedview8"
     showgrid="false"
     inkscape:zoom="13.376103"
     inkscape:cx="0.82236209"
     inkscape:cy="22.353297"
     inkscape:window-x="0"
     inkscape:window-y="0"
     inkscape:window-maximized="1"
     inkscape:current-layer="svg6"
     inkscape:document-rotation="0"
     inkscape:pagecheckerboard="0" />
  <path
     id="circle2"
     style="opacity:0.99;fill:#81a1c1;fill-opacity:1"
     transform="matrix(1.75830584759 0 0 1.75830608345 -18.15909274367 -30.97874795549)"
     d="M 37.173613,31.534513 A 13.232998,13.232998 0 0 1 23.940615,44.767511 13.232998,13.232998 0 0 1 10.707617,31.534513 13.232998,13.232998 0 0 1 23.940615,18.301516 13.232998,13.232998 0 0 1 37.173613,31.534513 Z" />
  <path
     d="M 12.196354,28.190418 V 38.704551 H 35.196021 V 28.190418"
     fill="none"
     stroke="#ffffff"
     stroke-linejoin="round"
     stroke-width="3.28567"
     id="path8"
     style="stroke:#ffffff;stroke-opacity:0.977359" />
  <path
     d="m 8.910687,22.276218 c 0,4.9285 9.857001,4.9285 9.857001,0 0,4.9285 9.856999,4.9285 9.856999,0 0,4.9285 9.857,4.9285 9.857,0 L 36.838854,10.776385 H 10.553521 Z"
     fill="#ffffff"
     id="path6"
     style="fill:#ffffffbff;fill-opacity:1;stroke-width:1.64283" />
  <path
     id="circle6"
     style="fill:#ffffff;stroke:#81a1c1;stroke-width:1.6;stroke-linecap:round;stroke-opacity:0.99215686"
     d="m 41.679817,34.978462 a 8.25,8.25 0 0 1 -8.25,8.25 8.25,8.25 0 0 1 -8.25,-8.25 8.25,8.25 0 0 1 8.25,-8.25 8.25,8.25 0 0 1 8.25,8.25 z" />
  <path
     id="path6-3"
     style="fill:#81a1c1;fill-opacity:1;stroke:none;stroke-opacity:0.99215686"
     d="M 30.570312 29.59375 C 30.112396 29.59375 29.744141 29.962005 29.744141 30.419922 C 29.744141 30.877838 30.112397 31.248047 30.570312 31.248047 C 31.028229 31.248047 31.398438 30.877838 31.398438 30.419922 C 31.398438 29.962005 31.028229 29.59375 30.570312 29.59375 z M 35.53125 29.59375 L 33.876953 31.248047 L 36.357422 33.726562 L 33.876953 36.207031 L 35.53125 37.859375 L 38.009766 35.380859 L 39.664062 33.726562 L 38.009766 32.074219 L 35.53125 29.59375 z M 29.332031 33.726562 C 28.645157 33.726562 28.091797 34.279922 28.091797 34.966797 C 28.091797 35.653671 28.645157 36.207031 29.332031 36.207031 C 30.018904 36.207031 30.570313 35.653671 30.570312 34.966797 C 30.570312 34.279922 30.018904 33.726562 29.332031 33.726562 z M 31.677734 37.859375 C 30.761901 37.859375 30.023438 38.59784 30.023438 39.513672 C 30.023438 40.429504 30.761901 41.166016 31.677734 41.166016 C 32.593565 41.166016 33.330078 40.429504 33.330078 39.513672 C 33.330078 38.59784 32.593565 37.859375 31.677734 37.859375 z " />
</svg>
