<?xml version="1.0" encoding="UTF-8" standalone="no"?>
<svg
   xmlns:dc="http://purl.org/dc/elements/1.1/"
   xmlns:cc="http://creativecommons.org/ns#"
   xmlns:rdf="http://www.w3.org/1999/02/22-rdf-syntax-ns#"
   xmlns:svg="http://www.w3.org/2000/svg"
   xmlns="http://www.w3.org/2000/svg"
   xmlns:sodipodi="http://sodipodi.sourceforge.net/DTD/sodipodi-0.dtd"
   xmlns:inkscape="http://www.inkscape.org/namespaces/inkscape"
   height="48"
   width="48"
   version="1.1"
   id="svg6"
   sodipodi:docname="applications-languages.svg"
   inkscape:version="1.0.2 (e86c870879, 2021-01-15)">
  <metadata
     id="metadata12">
    <rdf:RDF>
      <cc:Work
         rdf:about="">
        <dc:format>image/svg+xml</dc:format>
        <dc:type
           rdf:resource="http://purl.org/dc/dcmitype/StillImage" />
        <dc:title />
      </cc:Work>
    </rdf:RDF>
  </metadata>
  <defs
     id="defs10">
    <clipPath
       id="a">
      <rect
         height="43"
         ry="1.452703"
         width="43"
         x="2"
         y="3"
         id="rect2" />
    </clipPath>
  </defs>
  <sodipodi:namedview
     pagecolor="#ffffff"
     bordercolor="#666666"
     borderopacity="1"
     objecttolerance="10"
     gridtolerance="10"
     guidetolerance="10"
     inkscape:pageopacity="0"
     inkscape:pageshadow="2"
     inkscape:window-width="1920"
     inkscape:window-height="1028"
     id="namedview8"
     showgrid="false"
     inkscape:zoom="13.376103"
     inkscape:cx="15.240056"
     inkscape:cy="19.184966"
     inkscape:window-x="0"
     inkscape:window-y="24"
     inkscape:window-maximized="1"
     inkscape:current-layer="svg6"
     inkscape:document-rotation="0" />
  <circle
     cx="23.940615"
     cy="31.534513"
     fill="#5e81ac"
     opacity=".99"
     r="13.232998"
     transform="matrix(1.75830584759 0 0 1.75830608345 -18.15909274367 -30.97874795549)"
     id="circle2"
     style="fill:#81a1c1;fill-opacity:1" />
  <path
     id="path7"
     clip-path="url(#a)"
     d="M 15.605469 6.8964844 L 15.605469 7.8964844 L 14.605469 7.8964844 L 14.605469 8.8964844 L 12.605469 8.8964844 L 12.605469 9.8964844 L 11.605469 9.8964844 L 11.605469 10.896484 L 11.605469 11.896484 L 10.605469 11.896484 L 10.605469 12.896484 L 10.605469 13.896484 L 12.605469 13.896484 L 12.605469 14.896484 L 12.605469 15.896484 L 13.605469 15.896484 L 13.605469 16.896484 L 13.605469 17.896484 L 13.605469 18.896484 L 13.605469 19.896484 L 14.605469 19.896484 L 14.605469 20.896484 L 15.605469 20.896484 L 15.605469 19.896484 L 15.605469 18.896484 L 16.605469 18.896484 L 16.605469 17.896484 L 17.605469 17.896484 L 17.605469 16.896484 L 17.605469 15.896484 L 18.605469 15.896484 L 18.605469 14.896484 L 18.605469 13.896484 L 18.605469 12.896484 L 18.605469 11.896484 L 18.605469 10.896484 L 19.605469 10.896484 L 19.605469 9.8964844 L 19.605469 8.8964844 L 18.605469 8.8964844 L 18.605469 9.8964844 L 17.605469 9.8964844 L 17.605469 8.8964844 L 16.605469 8.8964844 L 16.605469 7.8964844 L 17.605469 7.8964844 L 17.605469 6.8964844 L 15.605469 6.8964844 z M 8.6054688 7.8964844 L 8.6054688 8.8964844 L 7.6054688 8.8964844 L 7.6054688 9.8964844 L 8.6054688 9.8964844 L 8.6054688 10.896484 L 8.6054688 11.896484 L 8.6054688 12.896484 L 9.6054688 12.896484 L 9.6054688 11.896484 L 9.6054688 10.896484 L 10.605469 10.896484 L 10.605469 9.8964844 L 10.605469 8.8964844 L 11.605469 8.8964844 L 11.605469 7.8964844 L 8.6054688 7.8964844 z M 7.6054688 9.8964844 L 6.6054688 9.8964844 L 6.6054688 10.896484 L 6.6054688 11.896484 L 7.6054688 11.896484 L 7.6054688 10.896484 L 7.6054688 9.8964844 z M 36.605469 9.8964844 L 36.605469 10.896484 L 36.605469 11.896484 L 37.605469 11.896484 L 37.605469 10.896484 L 37.605469 9.8964844 L 36.605469 9.8964844 z M 37.605469 11.896484 L 37.605469 12.896484 L 38.605469 12.896484 L 38.605469 11.896484 L 37.605469 11.896484 z M 6.6054688 12.896484 L 6.6054688 13.896484 L 7.6054688 13.896484 L 7.6054688 12.896484 L 6.6054688 12.896484 z M 7.6054688 13.896484 L 7.6054688 14.896484 L 8.6054688 14.896484 L 8.6054688 13.896484 L 7.6054688 13.896484 z M 3.6054688 13.152344 A 23.267658 23.267661 0 0 0 3.2089844 13.896484 L 3.6054688 13.896484 L 3.6054688 13.152344 z M 4.6054688 13.896484 L 4.6054688 14.896484 L 5.6054688 14.896484 L 5.6054688 13.896484 L 4.6054688 13.896484 z M 35.605469 13.896484 L 35.605469 14.896484 L 36.605469 14.896484 L 37.605469 14.896484 L 37.605469 15.896484 L 35.605469 15.896484 L 35.605469 14.896484 L 34.605469 14.896484 L 34.605469 15.896484 L 33.605469 15.896484 L 33.605469 16.896484 L 33.605469 18.896484 L 32.605469 18.896484 L 32.605469 17.896484 L 32.605469 16.896484 L 32.605469 15.896484 L 31.605469 15.896484 L 31.605469 16.896484 L 31.605469 17.896484 L 30.605469 17.896484 L 29.605469 17.896484 L 29.605469 18.896484 L 28.605469 18.896484 L 28.605469 19.896484 L 27.605469 19.896484 L 26.605469 19.896484 L 26.605469 18.896484 L 27.605469 18.896484 L 27.605469 17.896484 L 26.605469 17.896484 L 26.605469 16.896484 L 25.605469 16.896484 L 25.605469 17.896484 L 24.605469 17.896484 L 24.605469 18.896484 L 25.605469 18.896484 L 25.605469 19.896484 L 25.605469 20.896484 L 25.605469 21.896484 L 24.605469 21.896484 L 24.605469 22.896484 L 22.605469 22.896484 L 22.605469 23.896484 L 21.605469 23.896484 L 21.605469 24.896484 L 20.605469 24.896484 L 20.605469 25.896484 L 22.605469 25.896484 L 22.605469 24.896484 L 23.205078 24.896484 L 23.205078 25.095703 L 23.40625 25.095703 L 23.40625 25.296875 L 23.605469 25.296875 L 23.605469 25.496094 L 23.804688 25.496094 L 23.804688 25.697266 L 24.005859 25.697266 L 24.005859 25.896484 L 24.205078 25.896484 L 24.205078 25.697266 L 24.40625 25.697266 L 24.40625 25.496094 L 24.205078 25.496094 L 24.005859 25.496094 L 24.005859 25.296875 L 23.804688 25.296875 L 23.804688 25.095703 L 23.605469 25.095703 L 23.605469 24.896484 L 24.605469 24.896484 L 24.605469 25.896484 L 25.605469 25.896484 L 25.605469 24.896484 L 27.605469 24.896484 L 27.605469 25.896484 L 26.605469 25.896484 L 25.605469 25.896484 L 25.605469 26.896484 L 26.605469 26.896484 L 26.605469 27.896484 L 27.605469 27.896484 L 27.605469 28.896484 L 28.605469 28.896484 L 28.605469 29.896484 L 29.605469 29.896484 L 30.605469 29.896484 L 30.605469 28.896484 L 29.605469 28.896484 L 29.605469 27.896484 L 30.605469 27.896484 L 31.605469 27.896484 L 31.605469 28.896484 L 32.605469 28.896484 L 32.605469 29.896484 L 33.605469 29.896484 L 33.605469 30.896484 L 34.605469 30.896484 L 34.605469 29.896484 L 34.605469 28.896484 L 36.605469 28.896484 L 36.605469 29.896484 L 37.605469 29.896484 L 37.605469 28.896484 L 39.605469 28.896484 L 39.605469 27.896484 L 40.605469 27.896484 L 40.605469 26.896484 L 40.605469 25.896484 L 41.605469 25.896484 L 41.605469 24.896484 L 42.605469 24.896484 L 42.605469 23.896484 L 43.605469 23.896484 L 43.605469 22.896484 L 42.605469 22.896484 L 42.605469 21.896484 L 43.605469 21.896484 L 43.605469 20.896484 L 45.605469 20.896484 L 45.605469 19.896484 L 46.75 19.896484 A 23.267658 23.267661 0 0 0 46.255859 17.896484 L 45.605469 17.896484 L 45.605469 16.896484 L 44.605469 16.896484 L 44.605469 15.896484 L 43.605469 15.896484 L 43.605469 16.896484 L 41.605469 16.896484 L 41.605469 15.896484 L 38.605469 15.896484 L 38.605469 14.896484 L 38.605469 13.896484 L 37.605469 13.896484 L 36.605469 13.896484 L 35.605469 13.896484 z M 37.605469 29.896484 L 37.605469 30.896484 L 38.605469 30.896484 L 38.605469 29.896484 L 37.605469 29.896484 z M 27.605469 28.896484 L 26.605469 28.896484 L 26.605469 27.896484 L 23.605469 27.896484 L 23.605469 26.896484 L 20.605469 26.896484 L 20.605469 27.896484 L 19.605469 27.896484 L 19.605469 28.896484 L 19.605469 29.896484 L 19.605469 30.896484 L 19.605469 31.896484 L 20.605469 31.896484 L 22.605469 31.896484 L 22.605469 32.896484 L 23.605469 32.896484 L 23.605469 33.896484 L 23.605469 34.896484 L 23.605469 35.896484 L 23.605469 36.896484 L 24.605469 36.896484 L 24.605469 37.896484 L 26.605469 37.896484 L 26.605469 36.896484 L 26.605469 35.896484 L 27.605469 35.896484 L 27.605469 34.896484 L 27.605469 33.896484 L 27.605469 32.896484 L 28.605469 32.896484 L 28.605469 31.896484 L 29.605469 31.896484 L 29.605469 30.896484 L 27.605469 30.896484 L 27.605469 29.896484 L 27.605469 28.896484 z M 24.205078 25.896484 L 24.205078 26.095703 L 24.40625 26.095703 L 24.40625 25.896484 L 24.205078 25.896484 z M 24.605469 18.896484 L 23.605469 18.896484 L 23.605469 19.896484 L 24.605469 19.896484 L 24.605469 18.896484 z M 23.605469 19.896484 L 22.605469 19.896484 L 22.605469 20.896484 L 23.605469 20.896484 L 23.605469 19.896484 z M 2.7304688 14.896484 A 23.267658 23.267661 0 0 0 2.6054688 15.175781 L 2.6054688 15.896484 L 3.6054688 15.896484 L 3.6054688 14.896484 L 2.7304688 14.896484 z M 3.6054688 15.896484 L 3.6054688 16.896484 L 4.6054688 16.896484 L 5.6054688 16.896484 L 5.6054688 15.896484 L 4.6054688 15.896484 L 3.6054688 15.896484 z M 8.6054688 15.896484 L 8.6054688 16.896484 L 9.6054688 16.896484 L 10.605469 16.896484 L 10.605469 15.896484 L 9.6054688 15.896484 L 8.6054688 15.896484 z M 10.605469 16.896484 L 10.605469 17.896484 L 10.605469 18.896484 L 11.605469 18.896484 L 11.605469 17.896484 L 11.605469 16.896484 L 10.605469 16.896484 z M 1.9355469 16.896484 A 23.267658 23.267661 0 0 0 0.8125 21.896484 L 1.6054688 21.896484 L 1.6054688 22.896484 L 1.6054688 23.896484 L 2.6054688 23.896484 L 2.6054688 24.896484 L 2.6054688 25.896484 L 2.6054688 26.896484 L 3.6054688 26.896484 L 3.6054688 27.896484 L 3.6054688 28.896484 L 4.6054688 28.896484 L 4.6054688 29.896484 L 5.6054688 29.896484 L 5.6054688 30.896484 L 6.6054688 30.896484 L 7.6054688 30.896484 L 8.6054688 30.896484 L 8.6054688 29.896484 L 8.6054688 28.896484 L 7.6054688 28.896484 L 7.6054688 29.896484 L 6.6054688 29.896484 L 6.6054688 28.896484 L 6.6054688 27.896484 L 7.6054688 27.896484 L 8.6054688 27.896484 L 9.6054688 27.896484 L 9.6054688 26.896484 L 9.6054688 25.896484 L 10.605469 25.896484 L 10.605469 24.896484 L 10.605469 23.896484 L 11.605469 23.896484 L 12.605469 23.896484 L 12.605469 22.896484 L 12.605469 21.896484 L 11.605469 21.896484 L 11.605469 20.896484 L 10.605469 20.896484 L 10.605469 19.896484 L 9.6054688 19.896484 L 9.6054688 20.896484 L 9.6054688 21.896484 L 9.6054688 22.896484 L 8.6054688 22.896484 L 8.6054688 21.896484 L 7.6054688 21.896484 L 6.6054688 21.896484 L 6.6054688 20.896484 L 7.6054688 20.896484 L 7.6054688 19.896484 L 7.6054688 18.896484 L 8.6054688 18.896484 L 9.6054688 18.896484 L 9.6054688 17.896484 L 8.6054688 17.896484 L 7.6054688 17.896484 L 7.6054688 16.896484 L 6.6054688 16.896484 L 6.6054688 17.896484 L 5.6054688 17.896484 L 4.6054688 17.896484 L 3.6054688 17.896484 L 2.6054688 17.896484 L 2.6054688 16.896484 L 1.9355469 16.896484 z M 8.6054688 30.896484 L 8.6054688 31.896484 L 9.6054688 31.896484 L 9.6054688 32.896484 L 8.6054688 32.896484 L 8.6054688 33.896484 L 9.6054688 33.896484 L 9.6054688 34.896484 L 10.605469 34.896484 L 10.605469 35.896484 L 10.605469 36.896484 L 10.605469 37.896484 L 10.605469 38.896484 L 10.605469 39.896484 L 10.605469 40.896484 L 9.6054688 40.896484 L 9.6054688 41.896484 L 10.605469 41.896484 L 10.605469 42.896484 L 11.605469 42.896484 L 11.605469 41.896484 L 11.605469 40.896484 L 11.605469 39.896484 L 11.605469 38.896484 L 12.605469 38.896484 L 12.605469 37.896484 L 13.605469 37.896484 L 13.605469 36.896484 L 14.605469 36.896484 L 14.605469 35.896484 L 15.605469 35.896484 L 15.605469 34.896484 L 16.605469 34.896484 L 16.605469 33.896484 L 15.605469 33.896484 L 15.605469 32.896484 L 14.605469 32.896484 L 13.605469 32.896484 L 13.605469 31.896484 L 12.605469 31.896484 L 12.605469 30.896484 L 11.605469 30.896484 L 10.605469 30.896484 L 9.6054688 30.896484 L 8.6054688 30.896484 z M 18.605469 18.896484 L 18.605469 19.896484 L 19.605469 19.896484 L 19.605469 18.896484 L 18.605469 18.896484 z M 46.605469 20.896484 L 46.605469 21.896484 L 47.060547 21.896484 A 23.267658 23.267661 0 0 0 46.925781 20.896484 L 46.605469 20.896484 z M 46.605469 21.896484 L 45.605469 21.896484 L 45.605469 22.896484 L 46.605469 22.896484 L 46.605469 21.896484 z M 20.605469 21.896484 L 20.605469 22.896484 L 21.605469 22.896484 L 21.605469 21.896484 L 20.605469 21.896484 z M 28.605469 23.896484 L 29.605469 23.896484 L 29.605469 24.896484 L 29.605469 25.896484 L 29.605469 26.896484 L 28.605469 26.896484 L 28.605469 25.896484 L 28.605469 24.896484 L 28.605469 23.896484 z M 40.605469 34.896484 L 40.605469 35.896484 L 39.605469 35.896484 L 39.605469 36.896484 L 39.605469 37.896484 L 42.9375 37.896484 A 23.267658 23.267661 0 0 0 44.605469 35.150391 L 44.605469 34.896484 L 43.605469 34.896484 L 43.605469 35.896484 L 42.605469 35.896484 L 42.605469 34.896484 L 40.605469 34.896484 z "
     style="fill:#ffffff;fill-opacity:0.24254937" />
  <path
     id="path9"
     style="fill:#f1f2f3;fill-opacity:1"
     d="m 15.086885,6.8964844 c -1.108,0 -2,0.892 -2,2 v 9.9999996 c 0,1.108 0.892,2 2,2 h 5 l 4,4 4,-4 h 5 c 1.108,0 2,-0.892 2,-2 V 8.8964844 c 0,-1.108 -0.892,-2 -2,-2 z" />
  <path
     d="m 17.479178,16.953914 -0.373635,2.339282 H 15.505409 L 17.235503,9.115693 h 2.111852 l 1.705727,10.177503 h -1.608257 l -0.365512,-2.339282 z m 0.804129,-5.507061 -0.568576,4.012519 h 1.137151 z"
     id="path11"
     style="fill:#81a1c1;fill-opacity:0.992157;stroke-width:0.285912" />
  <path
     d="m 22.117131,13.436868 h 4.548604 v 1.543276 h -4.548604 z"
     id="path13"
     style="fill:#81a1c1;fill-opacity:0.992157;stroke-width:0.285912" />
  <path
     d="m 32.207317,9.115693 v 1.535154 l -2.826633,7.115318 h 2.826633 v 1.527031 h -4.483625 v -1.527031 l 2.834755,-7.115318 H 27.723692 V 9.115693 Z"
     id="path15"
     style="fill:#81a1c1;fill-opacity:0.992157;stroke-width:0.285912" />
</svg>
