<?xml version="1.0" encoding="UTF-8" standalone="no"?>
<svg
   xmlns:dc="http://purl.org/dc/elements/1.1/"
   xmlns:cc="http://creativecommons.org/ns#"
   xmlns:rdf="http://www.w3.org/1999/02/22-rdf-syntax-ns#"
   xmlns:svg="http://www.w3.org/2000/svg"
   xmlns="http://www.w3.org/2000/svg"
   xmlns:sodipodi="http://sodipodi.sourceforge.net/DTD/sodipodi-0.dtd"
   xmlns:inkscape="http://www.inkscape.org/namespaces/inkscape"
   height="48"
   width="48"
   version="1.1"
   id="svg6"
   sodipodi:docname="preferences-system-splash.svg"
   inkscape:version="1.0.2 (e86c870879, 2021-01-15)">
  <metadata
     id="metadata12">
    <rdf:RDF>
      <cc:Work
         rdf:about="">
        <dc:format>image/svg+xml</dc:format>
        <dc:type
           rdf:resource="http://purl.org/dc/dcmitype/StillImage" />
        <dc:title></dc:title>
      </cc:Work>
    </rdf:RDF>
  </metadata>
  <defs
     id="defs10" />
  <sodipodi:namedview
     pagecolor="#ffffff"
     bordercolor="#666666"
     borderopacity="1"
     objecttolerance="10"
     gridtolerance="10"
     guidetolerance="10"
     inkscape:pageopacity="0"
     inkscape:pageshadow="2"
     inkscape:window-width="1920"
     inkscape:window-height="1031"
     id="namedview8"
     showgrid="false"
     inkscape:zoom="13.376103"
     inkscape:cx="8.2943403"
     inkscape:cy="17.2874"
     inkscape:window-x="0"
     inkscape:window-y="24"
     inkscape:window-maximized="1"
     inkscape:current-layer="svg6"
     inkscape:document-rotation="0" />
  <circle
     cx="23.940615"
     cy="31.534513"
     fill="#5e81ac"
     opacity=".99"
     id="circle2"
     style="fill:#94abd5;fill-opacity:1"
     transform="matrix(1.75830584759 0 0 1.75830608345 -18.15909274367 -30.97874795549)"
     r="13.232998" />
  <g
     id="g1274"
     transform="translate(3.7116603,-1009.0084)">
    <circle
       style="opacity:0.6;fill:#ffffff;stroke-width:1.52732"
       cx="-20.224169"
       cy="1022.7858"
       r="2.2909739"
       transform="scale(-1,1)"
       id="circle6" />
    <circle
       style="fill:#ffffff;stroke-width:1.52732"
       cx="-20.224169"
       cy="1044.1682"
       r="2.2909739"
       transform="scale(-1,1)"
       id="circle8" />
    <circle
       style="opacity:0.4;fill:#ffffff;stroke-width:1.52732"
       cx="-1033.4771"
       cy="-30.915382"
       r="2.2909739"
       transform="matrix(0,-1,-1,0,0,0)"
       id="circle10" />
    <circle
       style="opacity:0.8;fill:#ffffff;stroke-width:1.52732"
       cx="-1033.4771"
       cy="-9.5329571"
       r="2.2909739"
       transform="matrix(0,-1,-1,0,0,0)"
       id="circle12" />
    <circle
       style="opacity:0.3;fill:#ffffff;stroke-width:1.52732"
       cx="-716.47797"
       cy="-755.77008"
       r="2.2909741"
       transform="matrix(0.70710678,-0.70710678,-0.70710678,-0.70710678,0,0)"
       id="circle14" />
    <circle
       style="opacity:0.7;fill:#ffffff;stroke-width:1.52732"
       cx="-716.47797"
       cy="-734.38763"
       r="2.2909741"
       transform="matrix(0.70710678,-0.70710678,-0.70710678,-0.70710678,0,0)"
       id="circle16" />
    <circle
       style="opacity:0.9;fill:#ffffff;stroke-width:1.52732"
       cx="-745.07886"
       cy="-727.16919"
       r="2.2909741"
       transform="rotate(-135)"
       id="circle18" />
    <circle
       style="opacity:0.5;fill:#ffffff;stroke-width:1.52732"
       cx="-745.07886"
       cy="-705.7868"
       r="2.2909741"
       transform="rotate(-135)"
       id="circle20" />
  </g>
  <ellipse
     style="fill:#fbfbfb;fill-opacity:1;stroke:#94abd5;stroke-width:2;stroke-linecap:square;stroke-miterlimit:4;stroke-dasharray:none;stroke-opacity:0.99215686"
     id="path850"
     cx="33.400784"
     cy="33.07539"
     rx="9.5022974"
     ry="9.4110479" />
  <g
     fill="#ec725f"
     transform="matrix(1.4612758,0,0,1.4612758,-14.618387,-15.462491)"
     id="g12"
     style="fill:#94abd5;fill-opacity:0.99215686">
    <path
       d="M 32.099609,28.5 C 31.767209,28.5 31.5,28.767209 31.5,29.099609 v 0.572266 a 3.6550763,3.6550763 0 0 0 -0.630859,0.363281 L 30.373047,29.75 c -0.287867,-0.1662 -0.654113,-0.06716 -0.820313,0.220703 l -0.90039,1.558594 c -0.1662,0.287867 -0.06716,0.654112 0.220703,0.820312 l 0.490234,0.283203 A 3.6550763,3.6550763 0 0 0 29.345703,33 a 3.6550763,3.6550763 0 0 0 0.02148,0.365234 l -0.494141,0.285157 c -0.287867,0.1662 -0.386903,0.532445 -0.220703,0.820312 l 0.90039,1.558594 c 0.1662,0.287867 0.532446,0.386903 0.820313,0.220703 l 0.494141,-0.285156 A 3.6550763,3.6550763 0 0 0 31.5,36.330078 v 0.570313 c 0,0.3324 0.267209,0.599609 0.599609,0.599609 h 1.800782 C 34.232791,37.5 34.5,37.232791 34.5,36.900391 v -0.572266 a 3.6550763,3.6550763 0 0 0 0.630859,-0.363281 L 35.626953,36.25 c 0.287867,0.1662 0.654113,0.06716 0.820313,-0.220703 l 0.90039,-1.558594 c 0.1662,-0.287867 0.06716,-0.654112 -0.220703,-0.820312 L 36.636719,33.367188 A 3.6550763,3.6550763 0 0 0 36.654297,33 3.6550763,3.6550763 0 0 0 36.632812,32.634766 l 0.494141,-0.285157 c 0.287867,-0.1662 0.386903,-0.532445 0.220703,-0.820312 l -0.90039,-1.558594 C 36.281066,29.682836 35.91482,29.5838 35.626953,29.75 l -0.494141,0.285156 A 3.6550763,3.6550763 0 0 0 34.5,29.669922 V 29.099609 C 34.5,28.767209 34.232791,28.5 33.900391,28.5 Z"
       id="path8"
       style="fill:#94abd5;fill-opacity:0.99215686" />
    <circle
       cx="33"
       cy="33"
       r="2.1099329"
       stroke="#ffffff"
       stroke-linecap="round"
       stroke-width="0.7"
       id="circle10-3"
       style="fill:#94abd5;fill-opacity:0.99215686" />
  </g>
</svg>
