<?xml version="1.0" encoding="UTF-8" standalone="no"?>
<svg
   xmlns:dc="http://purl.org/dc/elements/1.1/"
   xmlns:cc="http://creativecommons.org/ns#"
   xmlns:rdf="http://www.w3.org/1999/02/22-rdf-syntax-ns#"
   xmlns:svg="http://www.w3.org/2000/svg"
   xmlns="http://www.w3.org/2000/svg"
   xmlns:sodipodi="http://sodipodi.sourceforge.net/DTD/sodipodi-0.dtd"
   xmlns:inkscape="http://www.inkscape.org/namespaces/inkscape"
   height="48"
   width="48"
   version="1.1"
   id="svg6"
   sodipodi:docname="preferences-desktop-plasma.svg"
   inkscape:version="1.0.2 (e86c870879, 2021-01-15)">
  <metadata
     id="metadata12">
    <rdf:RDF>
      <cc:Work
         rdf:about="">
        <dc:format>image/svg+xml</dc:format>
        <dc:type
           rdf:resource="http://purl.org/dc/dcmitype/StillImage" />
        <dc:title />
      </cc:Work>
    </rdf:RDF>
  </metadata>
  <defs
     id="defs10" />
  <sodipodi:namedview
     pagecolor="#ffffff"
     bordercolor="#666666"
     borderopacity="1"
     objecttolerance="10"
     gridtolerance="10"
     guidetolerance="10"
     inkscape:pageopacity="0"
     inkscape:pageshadow="2"
     inkscape:window-width="1920"
     inkscape:window-height="1028"
     id="namedview8"
     showgrid="false"
     inkscape:zoom="13.376103"
     inkscape:cx="8.9844789"
     inkscape:cy="28.314246"
     inkscape:window-x="0"
     inkscape:window-y="24"
     inkscape:window-maximized="1"
     inkscape:current-layer="svg6"
     inkscape:document-rotation="0" />
  <circle
     cx="23.940615"
     cy="31.534513"
     fill="#5e81ac"
     opacity=".99"
     r="13.232998"
     transform="matrix(1.75830584759 0 0 1.75830608345 -18.15909274367 -30.97874795549)"
     id="circle2"
     style="fill:#b48ead;fill-opacity:1" />
  <path
     id="path1026"
     style="fill:#a3be8c;stroke:none;stroke-width:1px;stroke-linecap:butt;stroke-linejoin:miter;stroke-opacity:1;fill-opacity:1"
     d="M 39.976562 7.6152344 L 2.3066406 33.042969 A 23.267658 23.267661 0 0 0 23.935547 47.736328 A 23.267658 23.267661 0 0 0 47.203125 24.46875 A 23.267658 23.267661 0 0 0 39.976562 7.6152344 z " />
  <path
     id="path1021"
     style="fill:#88c0d0;stroke:none;stroke-width:1px;stroke-linecap:butt;stroke-linejoin:miter;stroke-opacity:1;fill-opacity:1"
     d="M 26.619141 16.632812 L 13.869141 25.238281 L 11.708984 44.263672 A 23.267658 23.267661 0 0 0 23.935547 47.736328 A 23.267658 23.267661 0 0 0 36.580078 44 L 26.619141 16.632812 z " />
  <path
     d="m 18.203348,10.846584 c -0.954903,0 -1.72902,0.774117 -1.72902,1.729018 0,0.954903 0.774117,1.729019 1.72902,1.729019 0.954902,0 1.729018,-0.774116 1.729018,-1.729019 0,-0.954901 -0.774116,-1.729018 -1.729018,-1.729018 z m 12.103134,0 -3.458039,3.458037 6.916075,6.916075 -6.916075,6.916078 3.458039,3.458038 6.916075,-6.916077 3.458037,-3.458039 -3.458037,-3.458036 z m -17.29019,10.374112 c -1.909806,0 -3.4580381,1.548235 -3.4580381,3.458039 0,1.909805 1.5482321,3.458039 3.4580381,3.458039 1.909805,0 3.458036,-1.548234 3.458036,-3.458039 0,-1.909804 -1.548231,-3.458039 -3.458036,-3.458039 z m 8.645094,10.374116 c -2.864741,0 -5.187058,2.322313 -5.187058,5.187056 0,2.864742 2.322317,5.187057 5.187058,5.187057 2.864742,0 5.187057,-2.322315 5.187057,-5.187057 0,-2.864743 -2.322315,-5.187056 -5.187057,-5.187056 z"
     fill="#ffffff"
     id="path15" />
</svg>
