<?xml version="1.0" encoding="UTF-8" standalone="no"?>
<svg
   xmlns:dc="http://purl.org/dc/elements/1.1/"
   xmlns:cc="http://creativecommons.org/ns#"
   xmlns:rdf="http://www.w3.org/1999/02/22-rdf-syntax-ns#"
   xmlns:svg="http://www.w3.org/2000/svg"
   xmlns="http://www.w3.org/2000/svg"
   xmlns:sodipodi="http://sodipodi.sourceforge.net/DTD/sodipodi-0.dtd"
   xmlns:inkscape="http://www.inkscape.org/namespaces/inkscape"
   height="48"
   width="48"
   version="1.1"
   id="svg6"
   sodipodi:docname="preferences-desktop-tweaks.svg"
   inkscape:version="1.0.2 (e86c870879, 2021-01-15)">
  <metadata
     id="metadata12">
    <rdf:RDF>
      <cc:Work
         rdf:about="">
        <dc:format>image/svg+xml</dc:format>
        <dc:type
           rdf:resource="http://purl.org/dc/dcmitype/StillImage" />
        <dc:title></dc:title>
      </cc:Work>
    </rdf:RDF>
  </metadata>
  <defs
     id="defs10" />
  <sodipodi:namedview
     pagecolor="#ffffff"
     bordercolor="#666666"
     borderopacity="1"
     objecttolerance="10"
     gridtolerance="10"
     guidetolerance="10"
     inkscape:pageopacity="0"
     inkscape:pageshadow="2"
     inkscape:window-width="1920"
     inkscape:window-height="1031"
     id="namedview8"
     showgrid="false"
     inkscape:zoom="18.916667"
     inkscape:cx="17.503364"
     inkscape:cy="44.923864"
     inkscape:window-x="0"
     inkscape:window-y="24"
     inkscape:window-maximized="1"
     inkscape:current-layer="svg6"
     inkscape:document-rotation="0" />
  <circle
     cx="23.940615"
     cy="31.534513"
     fill="#5e81ac"
     opacity=".99"
     id="circle2"
     style="fill:#c67486;fill-opacity:1"
     transform="matrix(1.75830584759 0 0 1.75830608345 -18.15909274367 -30.97874795549)"
     r="13.232998" />
  <g
     id="g981"
     transform="translate(-0.27444652,0.46623468)">
    <rect
       style="opacity:1;fill:none;fill-opacity:1;stroke:#ffffff;stroke-width:1.87675;stroke-linecap:square;stroke-linejoin:miter;stroke-miterlimit:4;stroke-dasharray:none;stroke-opacity:1"
       id="rect945"
       width="27.048096"
       height="19.069408"
       x="10.686229"
       y="12.184961"
       rx="0"
       ry="0" />
    <rect
       style="opacity:1;fill:#ffffff;fill-opacity:1;stroke:none;stroke-width:2;stroke-linecap:square;stroke-linejoin:miter;stroke-miterlimit:4;stroke-dasharray:none;stroke-opacity:0.954388"
       id="rect947"
       width="27.439325"
       height="1.884195"
       x="10.28513"
       y="26.328337"
       ry="0" />
    <g
       id="g963"
       transform="translate(1.3653283)">
      <g
         id="g957"
         transform="translate(0.61684513)">
        <rect
           style="opacity:1;fill:#ffffff;fill-opacity:1;stroke:none;stroke-width:2;stroke-linecap:square;stroke-linejoin:miter;stroke-miterlimit:4;stroke-dasharray:none;stroke-opacity:0.954388"
           id="rect949"
           width="1.932929"
           height="6.6240458"
           x="18.804722"
           y="30.918709" />
        <rect
           style="opacity:1;fill:#ffffff;fill-opacity:1;stroke:none;stroke-width:2;stroke-linecap:square;stroke-linejoin:miter;stroke-miterlimit:4;stroke-dasharray:none;stroke-opacity:0.954388"
           id="rect951"
           width="1.932929"
           height="6.6240458"
           x="23.718555"
           y="30.918709" />
      </g>
      <rect
         style="opacity:1;fill:#ffffff;fill-opacity:1;stroke:none;stroke-width:2.63532;stroke-linecap:square;stroke-linejoin:miter;stroke-miterlimit:4;stroke-dasharray:none;stroke-opacity:0.954388"
         id="rect953"
         width="1.932929"
         height="11.500876"
         x="37.542755"
         y="-28.595387"
         transform="rotate(90)" />
    </g>
  </g>
  <ellipse
     style="fill:#ffffff;fill-opacity:0.99215698;stroke:#c77485;stroke-width:2;stroke-linecap:square;stroke-miterlimit:4;stroke-dasharray:none;stroke-opacity:1"
     id="path850"
     cx="32.674698"
     cy="33.44595"
     rx="9.5022974"
     ry="9.4110479" />
  <g
     fill="#ec725f"
     transform="matrix(1.4612758,0,0,1.4612758,-15.344473,-15.091927)"
     id="g12"
     style="fill:#c67486;fill-opacity:0.99215686">
    <path
       d="M 32.099609,28.5 C 31.767209,28.5 31.5,28.767209 31.5,29.099609 v 0.572266 a 3.6550763,3.6550763 0 0 0 -0.630859,0.363281 L 30.373047,29.75 c -0.287867,-0.1662 -0.654113,-0.06716 -0.820313,0.220703 l -0.90039,1.558594 c -0.1662,0.287867 -0.06716,0.654112 0.220703,0.820312 l 0.490234,0.283203 A 3.6550763,3.6550763 0 0 0 29.345703,33 a 3.6550763,3.6550763 0 0 0 0.02148,0.365234 l -0.494141,0.285157 c -0.287867,0.1662 -0.386903,0.532445 -0.220703,0.820312 l 0.90039,1.558594 c 0.1662,0.287867 0.532446,0.386903 0.820313,0.220703 l 0.494141,-0.285156 A 3.6550763,3.6550763 0 0 0 31.5,36.330078 v 0.570313 c 0,0.3324 0.267209,0.599609 0.599609,0.599609 h 1.800782 C 34.232791,37.5 34.5,37.232791 34.5,36.900391 v -0.572266 a 3.6550763,3.6550763 0 0 0 0.630859,-0.363281 L 35.626953,36.25 c 0.287867,0.1662 0.654113,0.06716 0.820313,-0.220703 l 0.90039,-1.558594 c 0.1662,-0.287867 0.06716,-0.654112 -0.220703,-0.820312 L 36.636719,33.367188 A 3.6550763,3.6550763 0 0 0 36.654297,33 3.6550763,3.6550763 0 0 0 36.632812,32.634766 l 0.494141,-0.285157 c 0.287867,-0.1662 0.386903,-0.532445 0.220703,-0.820312 l -0.90039,-1.558594 C 36.281066,29.682836 35.91482,29.5838 35.626953,29.75 l -0.494141,0.285156 A 3.6550763,3.6550763 0 0 0 34.5,29.669922 V 29.099609 C 34.5,28.767209 34.232791,28.5 33.900391,28.5 Z"
       id="path8"
       style="fill:#c67486;fill-opacity:0.99215686" />
    <circle
       cx="33"
       cy="33"
       r="2.1099329"
       stroke="#ffffff"
       stroke-linecap="round"
       stroke-width="0.7"
       id="circle10"
       style="fill:#c67486;fill-opacity:0.99215686" />
  </g>
</svg>
