<?xml version="1.0" encoding="UTF-8" standalone="no"?>
<svg
   height="48"
   width="48"
   version="1.1"
   id="svg18"
   sodipodi:docname="yast-timezone.svg"
   inkscape:version="1.1.2 (0a00cf5339, 2022-02-04)"
   xmlns:inkscape="http://www.inkscape.org/namespaces/inkscape"
   xmlns:sodipodi="http://sodipodi.sourceforge.net/DTD/sodipodi-0.dtd"
   xmlns="http://www.w3.org/2000/svg"
   xmlns:svg="http://www.w3.org/2000/svg">
  <defs
     id="defs22" />
  <sodipodi:namedview
     id="namedview20"
     pagecolor="#ffffff"
     bordercolor="#666666"
     borderopacity="1.0"
     inkscape:pageshadow="2"
     inkscape:pageopacity="0.0"
     inkscape:pagecheckerboard="0"
     showgrid="false"
     inkscape:zoom="5.7894368"
     inkscape:cx="-4.2318452"
     inkscape:cy="35.150224"
     inkscape:window-width="1920"
     inkscape:window-height="1031"
     inkscape:window-x="0"
     inkscape:window-y="0"
     inkscape:window-maximized="1"
     inkscape:current-layer="svg18" />
  <path
     id="path2"
     style="stroke-width:1.15035;fill:#bf616a;fill-opacity:1"
     d="M 23.804688 1.3046875 A 22.696228 22.696232 0 0 0 1.1074219 24 A 22.696228 22.696232 0 0 0 23.804688 46.695312 A 22.696228 22.696232 0 0 0 46.5 24 A 22.696228 22.696232 0 0 0 23.804688 1.3046875 z " />
  <g
     fill="none"
     stroke="#ffffff"
     id="g14">
    <path
       d="m24 3v6"
       stroke-opacity=".423313"
       stroke-width="2.5"
       id="path4" />
    <path
       d="m24 39v6"
       stroke-opacity=".423313"
       stroke-width="2.5"
       id="path6" />
    <path
       d="m39 24h6"
       stroke-opacity=".423313"
       stroke-width="2.5"
       id="path8" />
    <path
       d="m3 24h6"
       stroke-opacity=".423313"
       stroke-width="2.5"
       id="path10" />
    <path
       d="m28.5 12-4.5 12 7.5 6"
       stroke-linecap="round"
       stroke-opacity=".509202"
       stroke-width="1.5"
       id="path12" />
  </g>
  <path
     d="m26.996573 24.143347a3 3 0 0 1 -3.134449 2.853483 3 3 0 0 1 -2.859201-3.129234 3 3 0 0 1 3.124009-2.864909 3 3 0 0 1 2.870608 3.118773"
     fill="#ffffff"
     id="path16" />
</svg>
