<?xml version="1.0" encoding="UTF-8" standalone="no"?>
<svg
   height="48"
   width="48"
   version="1.1"
   id="svg8"
   sodipodi:docname="xfsm-logout.svg"
   inkscape:version="1.1.2 (0a00cf5339, 2022-02-04)"
   xmlns:inkscape="http://www.inkscape.org/namespaces/inkscape"
   xmlns:sodipodi="http://sodipodi.sourceforge.net/DTD/sodipodi-0.dtd"
   xmlns="http://www.w3.org/2000/svg"
   xmlns:svg="http://www.w3.org/2000/svg"
   xmlns:rdf="http://www.w3.org/1999/02/22-rdf-syntax-ns#"
   xmlns:cc="http://creativecommons.org/ns#"
   xmlns:dc="http://purl.org/dc/elements/1.1/">
  <metadata
     id="metadata14">
    <rdf:RDF>
      <cc:Work
         rdf:about="">
        <dc:format>image/svg+xml</dc:format>
        <dc:type
           rdf:resource="http://purl.org/dc/dcmitype/StillImage" />
        <dc:title />
      </cc:Work>
    </rdf:RDF>
  </metadata>
  <defs
     id="defs12" />
  <sodipodi:namedview
     pagecolor="#ffffff"
     bordercolor="#666666"
     borderopacity="1"
     objecttolerance="10"
     gridtolerance="10"
     guidetolerance="10"
     inkscape:pageopacity="0"
     inkscape:pageshadow="2"
     inkscape:window-width="1920"
     inkscape:window-height="1031"
     id="namedview10"
     showgrid="false"
     inkscape:zoom="9.4583336"
     inkscape:cx="2.6431717"
     inkscape:cy="32.352422"
     inkscape:window-x="0"
     inkscape:window-y="0"
     inkscape:window-maximized="1"
     inkscape:current-layer="svg8"
     inkscape:document-rotation="0"
     inkscape:pagecheckerboard="0" />
  <path
     id="path2"
     style="fill:#d08770;fill-opacity:1;stroke-width:1.15035"
     d="M 23.804688 1.3046875 A 22.696228 22.696232 0 0 0 1.1074219 24 A 22.696228 22.696232 0 0 0 23.804688 46.695312 A 22.696228 22.696232 0 0 0 46.5 24 A 22.696228 22.696232 0 0 0 23.804688 1.3046875 z " />
  <circle
     style="fill:#ffffff;fill-opacity:1;stroke-width:2.05471;stroke-linecap:square"
     id="path835"
     cx="24.005949"
     cy="13.22702"
     r="5.7180758" />
  <path
     id="path837"
     style="fill:#ffffff;fill-opacity:1;stroke-width:1.80608;stroke-linecap:square"
     d="m 23.999768,21.344156 -2.608521,2.222262 2.046685,2.42793 -0.717344,8.43255 1.27918,4.449536 1.279179,-4.449536 -0.717344,-8.43255 2.046687,-2.42793 z m -3.576685,0.0051 c -6.90755,1.721762 -10.128087,8.408552 -10.128087,14.938804 h 11.763431 l -3.576685,-6.857404 2.503177,-2.718882 -4.45957,-1.198917 z m 7.153369,0 3.897734,4.163601 -4.459568,1.198917 2.503179,2.718882 -3.576685,6.857404 h 11.76343 c 0,-6.530252 -3.220538,-13.217042 -10.12809,-14.938804 z" />
  <path
     id="circle6"
     style="fill:#ffffff;stroke:#d08770;stroke-width:1.6;stroke-linecap:round;stroke-opacity:1"
     d="m 42.73148,32.459538 a 8.25,8.25 0 0 1 -8.25,8.25 8.25,8.25 0 0 1 -8.25,-8.25 8.25,8.25 0 0 1 8.25,-8.25 8.25,8.25 0 0 1 8.25,8.25 z" />
  <g
     fill="#ec725f"
     transform="translate(1.5171924,-0.50475058)"
     id="g12"
     style="fill:#df7b6c;fill-opacity:1">
    <path
       d="M 32.099609,28.5 C 31.767209,28.5 31.5,28.767209 31.5,29.099609 v 0.572266 a 3.6550763,3.6550763 0 0 0 -0.630859,0.363281 L 30.373047,29.75 c -0.287867,-0.1662 -0.654113,-0.06716 -0.820313,0.220703 l -0.90039,1.558594 c -0.1662,0.287867 -0.06716,0.654112 0.220703,0.820312 l 0.490234,0.283203 A 3.6550763,3.6550763 0 0 0 29.345703,33 a 3.6550763,3.6550763 0 0 0 0.02148,0.365234 l -0.494141,0.285157 c -0.287867,0.1662 -0.386903,0.532445 -0.220703,0.820312 l 0.90039,1.558594 c 0.1662,0.287867 0.532446,0.386903 0.820313,0.220703 l 0.494141,-0.285156 A 3.6550763,3.6550763 0 0 0 31.5,36.330078 v 0.570313 c 0,0.3324 0.267209,0.599609 0.599609,0.599609 h 1.800782 C 34.232791,37.5 34.5,37.232791 34.5,36.900391 v -0.572266 a 3.6550763,3.6550763 0 0 0 0.630859,-0.363281 L 35.626953,36.25 c 0.287867,0.1662 0.654113,0.06716 0.820313,-0.220703 l 0.90039,-1.558594 c 0.1662,-0.287867 0.06716,-0.654112 -0.220703,-0.820312 L 36.636719,33.367188 A 3.6550763,3.6550763 0 0 0 36.654297,33 3.6550763,3.6550763 0 0 0 36.632812,32.634766 l 0.494141,-0.285157 c 0.287867,-0.1662 0.386903,-0.532445 0.220703,-0.820312 l -0.90039,-1.558594 C 36.281066,29.682836 35.91482,29.5838 35.626953,29.75 l -0.494141,0.285156 A 3.6550763,3.6550763 0 0 0 34.5,29.669922 V 29.099609 C 34.5,28.767209 34.232791,28.5 33.900391,28.5 Z"
       id="path8"
       style="fill:#d08770;fill-opacity:1" />
    <path
       id="circle10"
       style="fill:#d08770;stroke:#ffffff;stroke-width:0.7;stroke-linecap:round;fill-opacity:1"
       d="M 35.109933,33 A 2.1099329,2.1099329 0 0 1 33,35.109933 2.1099329,2.1099329 0 0 1 30.890067,33 2.1099329,2.1099329 0 0 1 33,30.890067 2.1099329,2.1099329 0 0 1 35.109933,33 Z" />
  </g>
</svg>
