<?xml version="1.0" encoding="UTF-8" standalone="no"?>
<svg
   height="48"
   width="48"
   version="1.1"
   id="svg6"
   sodipodi:docname="yast-printer.svg"
   inkscape:version="1.1.2 (0a00cf5339, 2022-02-04)"
   xmlns:inkscape="http://www.inkscape.org/namespaces/inkscape"
   xmlns:sodipodi="http://sodipodi.sourceforge.net/DTD/sodipodi-0.dtd"
   xmlns="http://www.w3.org/2000/svg"
   xmlns:svg="http://www.w3.org/2000/svg"
   xmlns:rdf="http://www.w3.org/1999/02/22-rdf-syntax-ns#"
   xmlns:cc="http://creativecommons.org/ns#"
   xmlns:dc="http://purl.org/dc/elements/1.1/">
  <metadata
     id="metadata12">
    <rdf:RDF>
      <cc:Work
         rdf:about="">
        <dc:format>image/svg+xml</dc:format>
        <dc:type
           rdf:resource="http://purl.org/dc/dcmitype/StillImage" />
        <dc:title />
      </cc:Work>
    </rdf:RDF>
  </metadata>
  <defs
     id="defs10" />
  <sodipodi:namedview
     pagecolor="#ffffff"
     bordercolor="#666666"
     borderopacity="1"
     objecttolerance="10"
     gridtolerance="10"
     guidetolerance="10"
     inkscape:pageopacity="0"
     inkscape:pageshadow="2"
     inkscape:window-width="1920"
     inkscape:window-height="1031"
     id="namedview8"
     showgrid="false"
     inkscape:zoom="6.6880516"
     inkscape:cx="-35.361569"
     inkscape:cy="46.725118"
     inkscape:window-x="0"
     inkscape:window-y="0"
     inkscape:window-maximized="1"
     inkscape:current-layer="svg6"
     inkscape:document-rotation="0"
     inkscape:pagecheckerboard="0" />
  <path
     id="circle2"
     style="opacity:0.99;fill:#8b989f"
     transform="matrix(1.75830584759 0 0 1.75830608345 -18.15909274367 -30.97874795549)"
     d="M 37.173613,31.534513 A 13.232998,13.232998 0 0 1 23.940615,44.767511 13.232998,13.232998 0 0 1 10.707617,31.534513 13.232998,13.232998 0 0 1 23.940615,18.301516 13.232998,13.232998 0 0 1 37.173613,31.534513 Z" />
  <path
     id="circle891"
     style="opacity:0.99;fill:#ffffff;stroke-width:1.59761"
     d="M 45.076986,24.468578 A 21.141157,21.141159 0 0 1 23.935829,45.609737 21.141157,21.141159 0 0 1 2.794672,24.468578 21.141157,21.141159 0 0 1 23.935829,3.3274193 21.141157,21.141159 0 0 1 45.076986,24.468578 Z" />
  <rect
     fill="#66747c"
     height="28.900234"
     ry="0.72250587"
     width="23.842695"
     x="12.096767"
     y="7.5968585"
     id="rect2"
     style="stroke-width:0.722506" />
  <path
     d="M 14.986791,9.7643755 H 33.049439 V 25.659507 H 14.986791 Z"
     fill="#ffffff"
     id="path4"
     style="stroke-width:0.722506" />
  <rect
     fill="#8b989f"
     height="17.340166"
     ry="1.0495864"
     width="31.067753"
     x="8.4842386"
     y="20.601965"
     id="rect6"
     style="stroke-width:0.722506" />
  <g
     fill="#fcfcfd"
     id="g14"
     transform="matrix(0.72250586,0,0,0.72250586,7.0392266,4.7068345)">
    <circle
       cx="7"
       cy="30.686802"
       r="2"
       id="circle8" />
    <circle
       cx="12.9599"
       cy="30.585787"
       r="2"
       id="circle10" />
    <rect
       height="3"
       ry="1.4949239"
       width="34"
       x="7"
       y="37"
       id="rect12" />
  </g>
</svg>
