<?xml version="1.0" encoding="UTF-8" standalone="no"?>
<svg
   xmlns:dc="http://purl.org/dc/elements/1.1/"
   xmlns:cc="http://creativecommons.org/ns#"
   xmlns:rdf="http://www.w3.org/1999/02/22-rdf-syntax-ns#"
   xmlns:svg="http://www.w3.org/2000/svg"
   xmlns="http://www.w3.org/2000/svg"
   xmlns:sodipodi="http://sodipodi.sourceforge.net/DTD/sodipodi-0.dtd"
   xmlns:inkscape="http://www.inkscape.org/namespaces/inkscape"
   height="48"
   width="48"
   version="1.1"
   id="svg8"
   sodipodi:docname="com.jetbrains.PyCharm.svg"
   inkscape:version="1.0.2 (e86c870879, 2021-01-15)">
  <metadata
     id="metadata14">
    <rdf:RDF>
      <cc:Work
         rdf:about="">
        <dc:format>image/svg+xml</dc:format>
        <dc:type
           rdf:resource="http://purl.org/dc/dcmitype/StillImage" />
        <dc:title></dc:title>
      </cc:Work>
    </rdf:RDF>
  </metadata>
  <defs
     id="defs12" />
  <sodipodi:namedview
     pagecolor="#ffffff"
     bordercolor="#666666"
     borderopacity="1"
     objecttolerance="10"
     gridtolerance="10"
     guidetolerance="10"
     inkscape:pageopacity="0"
     inkscape:pageshadow="2"
     inkscape:window-width="1920"
     inkscape:window-height="1031"
     id="namedview10"
     showgrid="false"
     inkscape:zoom="9.4583333"
     inkscape:cx="9.6322786"
     inkscape:cy="30.689624"
     inkscape:window-x="0"
     inkscape:window-y="24"
     inkscape:window-maximized="1"
     inkscape:current-layer="svg8"
     inkscape:document-rotation="0" />
  <path
     d="m44.322082 27.405077a19.729762 19.729765 0 0 1 -19.729762 19.729765 19.729762 19.729765 0 0 1 -19.7297621-19.729765 19.729762 19.729765 0 0 1 19.7297621-19.7297632 19.729762 19.729765 0 0 1 19.729762 19.7297632z"
     fill="#89a02c"
     opacity=".99"
     transform="matrix(1.1503549 0 0 1.1503549 -4.486125 -7.525565)"
     id="path2"
     style="fill:#6ba36e;fill-opacity:1" />
  <path
     d="M 44.322082,27.405077 H 4.8625579 c 1e-6,-10.896448 8.8333161,-19.7297633 19.7297621,-19.7297632 10.896446,0 19.729761,8.8333152 19.729762,19.7297632 z"
     fill="#89a02c"
     opacity="0.99"
     transform="matrix(1.1503549,0,0,1.1503549,-4.486125,-7.525565)"
     id="path839"
     sodipodi:nodetypes="ccsc"
     style="fill:#ffffff;fill-opacity:0.16203129" />
  <path
     d="m 44.322082,27.405077 c 0,10.896448 -8.833315,19.729765 -19.729762,19.729765 V 7.6753138 c 10.896446,0 19.729761,8.8333152 19.729762,19.7297632 z"
     fill="#89a02c"
     opacity="0.99"
     transform="matrix(1.1503549,0,0,1.1503549,-4.486125,-7.525565)"
     id="path841"
     sodipodi:nodetypes="sccs"
     style="fill:#3158d5;fill-opacity:0.2576012" />
  <path
     d="M 11.175104,12.352419 V 36.879947 H 35.702632 V 12.352419 Z m 13.884286,3.274082 c 1.100239,0 1.931472,0.294061 2.491076,0.882117 0.564347,0.58806 0.854891,1.459261 0.87386,2.611668 l -0.02148,0.04295 H 26.45525 c 0.02846,-0.678165 -0.06412,-1.168122 -0.27752,-1.466895 -0.213409,-0.298771 -0.587192,-0.447668 -1.118342,-0.447668 -0.45527,3e-6 -0.803794,0.177887 -1.045657,0.533567 -0.241863,0.355681 -0.361768,0.89472 -0.361768,1.615566 v 3.108891 c 0,0.730332 0.127152,1.273101 0.383243,1.628781 0.260832,0.355681 0.640212,0.533566 1.138164,0.533566 0.488468,0 0.827879,-0.139781 1.017576,-0.419584 0.194439,-0.284545 0.279756,-0.76912 0.256045,-1.452027 h 1.949251 l 0.02147,0.04295 c 0.0094,1.138178 -0.26097,1.99675 -0.811088,2.575324 -0.550119,0.578574 -1.361477,0.867253 -2.43326,0.867253 -1.071784,0 -1.926839,-0.326781 -2.567064,-0.981234 -0.640226,-0.659195 -0.961411,-1.590456 -0.961411,-2.795028 v -3.095676 c 0,-1.199829 0.308555,-2.129226 0.925068,-2.788421 0.621256,-0.663937 1.450839,-0.996099 2.489426,-0.996099 z m -11.409729,0.150323 h 3.599509 c 1.033844,0 1.850584,0.305039 2.448127,0.916809 0.597544,0.61177 0.895334,1.414014 0.895334,2.405178 0,0.995905 -0.301308,1.800015 -0.903595,2.411785 -0.597542,0.607029 -1.410764,0.910202 -2.439866,0.910202 h -1.572617 v 3.713488 h -2.026892 z m 2.026892,1.622173 v 3.399627 h 1.572617 c 0.431558,0 0.761856,-0.158009 0.989491,-0.47575 0.227637,-0.31774 0.340294,-0.722381 0.340294,-1.210848 0,-0.49321 -0.112653,-0.899928 -0.340294,-1.222412 C 18.01577,17.562388 17.68547,17.398997 17.24917,17.398997 Z m -1.964119,12.714735 h 10.149322 v 1.691554 H 13.712434 Z"
     fill="#ffffff"
     id="path10"
     style="stroke-width:0.845777" />
</svg>
