<?xml version="1.0" encoding="UTF-8" standalone="no"?>
<svg
   xmlns:dc="http://purl.org/dc/elements/1.1/"
   xmlns:cc="http://creativecommons.org/ns#"
   xmlns:rdf="http://www.w3.org/1999/02/22-rdf-syntax-ns#"
   xmlns:svg="http://www.w3.org/2000/svg"
   xmlns="http://www.w3.org/2000/svg"
   xmlns:sodipodi="http://sodipodi.sourceforge.net/DTD/sodipodi-0.dtd"
   xmlns:inkscape="http://www.inkscape.org/namespaces/inkscape"
   height="48"
   width="48"
   version="1.1"
   id="svg6"
   sodipodi:docname="pyrenamer.svg"
   inkscape:version="1.0.2 (e86c870879, 2021-01-15)">
  <metadata
     id="metadata12">
    <rdf:RDF>
      <cc:Work
         rdf:about="">
        <dc:format>image/svg+xml</dc:format>
        <dc:type
           rdf:resource="http://purl.org/dc/dcmitype/StillImage" />
        <dc:title></dc:title>
      </cc:Work>
    </rdf:RDF>
  </metadata>
  <defs
     id="defs10" />
  <sodipodi:namedview
     pagecolor="#ffffff"
     bordercolor="#666666"
     borderopacity="1"
     objecttolerance="10"
     gridtolerance="10"
     guidetolerance="10"
     inkscape:pageopacity="0"
     inkscape:pageshadow="2"
     inkscape:window-width="1920"
     inkscape:window-height="1031"
     id="namedview8"
     showgrid="false"
     inkscape:zoom="13.376103"
     inkscape:cx="15.717127"
     inkscape:cy="22.326507"
     inkscape:window-x="0"
     inkscape:window-y="24"
     inkscape:window-maximized="1"
     inkscape:current-layer="svg6"
     inkscape:document-rotation="0" />
  <circle
     cx="23.940615"
     cy="31.534513"
     fill="#5e81ac"
     opacity=".99"
     r="13.232998"
     transform="matrix(1.75830584759 0 0 1.75830608345 -18.15909274367 -30.97874795549)"
     id="circle2"
     style="fill:#c67485;fill-opacity:1" />
  <path
     id="circle833"
     style="opacity:0.99;fill:#ffffff;fill-opacity:1;stroke-width:1.75831"
     d="M 39.066406 9.3378906 L 8.8046875 39.599609 A 21.398523 21.398527 0 0 0 23.935547 45.867188 A 21.398523 21.398527 0 0 0 45.333984 24.46875 A 21.398523 21.398527 0 0 0 39.066406 9.3378906 z " />
  <g
     aria-label="A"
     style="font-style:normal;font-variant:normal;font-weight:bold;font-stretch:normal;font-size:21.6778px;line-height:125%;font-family:'Source Sans Pro';-inkscape-font-specification:'Source Sans Pro Bold';letter-spacing:0px;word-spacing:0px;fill:#000000;fill-opacity:1;stroke:none;stroke-width:0.541945px;stroke-linecap:butt;stroke-linejoin:miter;stroke-opacity:1"
     id="text821"
     transform="translate(-0.06675313,-0.61917885)">
    <path
       d="m 11.154116,16.725482 0.346844,-1.300668 c 0.390201,-1.409057 0.758723,-3.05657 1.105568,-4.552338 h 0.08671 c 0.368523,1.47409 0.758723,3.143281 1.148924,4.552338 l 0.325167,1.300668 z m 4.53066,5.853005 h 3.381736 L 14.644241,8.4445623 h -3.83697 L 6.3849998,22.578487 h 3.2516699 l 0.8671123,-3.360058 h 4.313882 z"
       style="fill:#ffffff;fill-opacity:1;stroke-width:0.541945px"
       id="path827" />
  </g>
  <g
     aria-label="B"
     style="font-style:normal;font-variant:normal;font-weight:bold;font-stretch:normal;font-size:21.6778px;line-height:125%;font-family:'Source Sans Pro';-inkscape-font-specification:'Source Sans Pro Bold';letter-spacing:0px;word-spacing:0px;fill:#c67485;fill-opacity:0.99215686;stroke:none;stroke-width:0.541945px;stroke-linecap:butt;stroke-linejoin:miter;stroke-opacity:1"
     id="text825"
     transform="translate(-0.06675313,-0.61917885)">
    <path
       d="m 27.508678,41 h 5.246027 c 3.05657,0 5.484483,-1.27899 5.484483,-4.162137 0,-1.885969 -1.040534,-2.948181 -3.056569,-3.316704 v -0.08671 c 1.647512,-0.433556 2.36288,-1.799257 2.36288,-3.05657 0,-2.709725 -2.276169,-3.511803 -5.202672,-3.511803 h -4.834149 z m 3.186636,-8.432664 v -3.229992 h 1.517446 c 1.495768,0 2.211136,0.433556 2.211136,1.495768 0,1.062212 -0.672012,1.734224 -2.232814,1.734224 z m 0,5.961395 v -3.706904 h 1.799257 c 1.755902,0 2.623014,0.541945 2.623014,1.77758 0,1.27899 -0.88879,1.929324 -2.623014,1.929324 z"
       style="fill:#c67485;fill-opacity:0.99215686;stroke-width:0.541945px"
       id="path830" />
  </g>
</svg>
