<?xml version="1.0" encoding="UTF-8" standalone="no"?>
<svg
   xmlns:dc="http://purl.org/dc/elements/1.1/"
   xmlns:cc="http://creativecommons.org/ns#"
   xmlns:rdf="http://www.w3.org/1999/02/22-rdf-syntax-ns#"
   xmlns:svg="http://www.w3.org/2000/svg"
   xmlns="http://www.w3.org/2000/svg"
   xmlns:sodipodi="http://sodipodi.sourceforge.net/DTD/sodipodi-0.dtd"
   xmlns:inkscape="http://www.inkscape.org/namespaces/inkscape"
   height="48"
   width="48"
   version="1.1"
   id="svg6"
   sodipodi:docname="com.github.mubitosh.qrshare.svg"
   inkscape:version="1.0.2 (e86c870879, 2021-01-15)">
  <metadata
     id="metadata12">
    <rdf:RDF>
      <cc:Work
         rdf:about="">
        <dc:format>image/svg+xml</dc:format>
        <dc:type
           rdf:resource="http://purl.org/dc/dcmitype/StillImage" />
        <dc:title></dc:title>
      </cc:Work>
    </rdf:RDF>
  </metadata>
  <defs
     id="defs10" />
  <sodipodi:namedview
     pagecolor="#ffffff"
     bordercolor="#666666"
     borderopacity="1"
     objecttolerance="10"
     gridtolerance="10"
     guidetolerance="10"
     inkscape:pageopacity="0"
     inkscape:pageshadow="2"
     inkscape:window-width="1920"
     inkscape:window-height="1031"
     id="namedview8"
     showgrid="false"
     inkscape:zoom="18.916667"
     inkscape:cx="24"
     inkscape:cy="24"
     inkscape:window-x="0"
     inkscape:window-y="24"
     inkscape:window-maximized="1"
     inkscape:current-layer="svg6"
     inkscape:document-rotation="0" />
  <path
     d="m44.322082 27.405077a19.729762 19.729765 0 0 1 -19.729762 19.729765 19.729762 19.729765 0 0 1 -19.7297621-19.729765 19.729762 19.729765 0 0 1 19.7297621-19.7297632 19.729762 19.729765 0 0 1 19.729762 19.7297632z"
     fill="#8fbcbb"
     opacity=".99"
     transform="matrix(1.1503549 0 0 1.1503549 -4.486125 -7.525565)"
     id="path2"
     style="fill:#c0b1a3;fill-opacity:1" />
  <path
     d="m 9.0023442,10.676161 h 7.5213478 v 7.521347 H 9.0023442 Z"
     fill="none"
     stroke="#ffffff"
     stroke-linecap="round"
     stroke-linejoin="round"
     stroke-width="1.88034"
     id="path4" />
  <path
     d="m 11.82285,13.496666 h 1.880337 v 1.880337 H 11.82285 Z"
     fill="#ffffff"
     id="path6"
     style="stroke-width:0.940168" />
  <path
     d="m 31.566387,10.676161 h 7.521347 v 7.521347 h -7.521347 z"
     fill="none"
     stroke="#ffffff"
     stroke-linecap="round"
     stroke-linejoin="round"
     stroke-width="1.88034"
     id="path8" />
  <path
     d="m 34.386892,13.496666 h 1.880337 v 1.880337 h -1.880337 z"
     fill="#ffffff"
     id="path10"
     style="stroke-width:0.940168" />
  <path
     d="m 9.0023442,31.359866 h 7.5213478 v 7.521348 H 9.0023442 Z"
     fill="none"
     stroke="#ffffff"
     stroke-linecap="round"
     stroke-linejoin="round"
     stroke-width="1.88034"
     id="path12" />
  <g
     fill="#ffffff"
     id="g132"
     transform="matrix(0.94016842,0,0,0.94016842,1.4809969,1.2744768)">
    <path
       d="m 11,35 h 2 v 2 h -2 z"
       id="path14" />
    <path
       d="m 26,12 h 2 v 2 h -2 z"
       id="path16" />
    <path
       d="m 22,12 h 2 v 2 h -2 z"
       id="path18" />
    <path
       d="m 20,12 h 2 v 2 h -2 z"
       id="path20" />
    <path
       d="m 26,16 h 2 v 2 h -2 z"
       id="path22" />
    <path
       d="m 24,14 h 2 v 2 h -2 z"
       id="path24" />
    <path
       d="m 22,16 h 2 v 2 h -2 z"
       id="path26" />
    <path
       d="m 22,18 h 2 v 2 h -2 z"
       id="path28" />
    <path
       d="m 22,20 h 2 v 2 h -2 z"
       id="path30" />
    <path
       d="m 8,22 h 2 v 2 H 8 Z"
       id="path32" />
    <path
       d="m 12,24 h 2 v 2 h -2 z"
       id="path34" />
    <path
       d="m 38,22 h 2 v 2 h -2 z"
       id="path36" />
    <path
       d="m 34,22 h 2 v 2 h -2 z"
       id="path38" />
    <path
       d="m 30,22 h 2 v 2 h -2 z"
       id="path40" />
    <path
       d="m 28,22 h 2 v 2 h -2 z"
       id="path42" />
    <path
       d="m 32,24 h 2 v 2 h -2 z"
       id="path44" />
    <path
       d="m 34,24 h 2 v 2 h -2 z"
       id="path46" />
    <path
       d="m 36,24 h 2 v 2 h -2 z"
       id="path48" />
    <path
       d="m 34,24 h 2 v 2 h -2 z"
       id="path50" />
    <path
       d="m 26,24 h 2 v 2 h -2 z"
       id="path52" />
    <path
       d="m 24,22 h 2 v 2 h -2 z"
       id="path54" />
    <path
       d="m 22,24 h 2 v 2 h -2 z"
       id="path56" />
    <path
       d="m 22,26 h 2 v 2 h -2 z"
       id="path58" />
    <path
       d="m 26,20 h 2 v 2 h -2 z"
       id="path60" />
    <path
       d="m 24,18 h 2 v 2 h -2 z"
       id="path62" />
    <path
       d="m 20,18 h 2 v 2 h -2 z"
       id="path64" />
    <path
       d="m 18,20 h 2 v 2 h -2 z"
       id="path66" />
    <path
       d="m 16,22 h 2 v 2 h -2 z"
       id="path68" />
    <path
       d="m 12,22 h 2 v 2 h -2 z"
       id="path70" />
    <path
       d="m 10,24 h 2 v 2 h -2 z"
       id="path72" />
    <path
       d="m 8,26 h 2 v 2 H 8 Z"
       id="path74" />
    <path
       d="m 12,26 h 2 v 2 h -2 z"
       id="path76" />
    <path
       d="m 16,26 h 2 v 2 h -2 z"
       id="path78" />
    <path
       d="m 14,24 h 2 v 2 h -2 z"
       id="path80" />
    <path
       d="m 18,24 h 2 v 2 h -2 z"
       id="path82" />
    <path
       d="m 20,28 h 2 v 2 h -2 z"
       id="path84" />
    <path
       d="m 38,38 h 2 v 2 h -2 z"
       id="path86" />
    <path
       d="m 34,36 h 2 v 4 h -2 z"
       id="path88" />
    <path
       d="m 30,36 h 2 v 4 h -2 z"
       id="path90" />
    <path
       d="m 38,38 h 2 v 2 h -2 z"
       id="path92" />
    <path
       d="m 22,36 h 2 v 2 h -2 z"
       id="path94" />
    <path
       d="m 24,34 h 2 v 2 h -2 z"
       id="path96" />
    <path
       d="m 26,32 h 2 v 2 h -2 z"
       id="path98" />
    <path
       d="m 22,30 h 2 v 2 h -2 z"
       id="path100" />
    <path
       d="m 18,34 h 2 v 2 h -2 z"
       id="path102" />
    <path
       d="m 30,28 h 2 v 2 h -2 z"
       id="path104" />
    <path
       d="m 38,26 h 2 v 2 h -2 z"
       id="path106" />
    <path
       d="m 38,28 h 2 v 2 h -2 z"
       id="path108" />
    <path
       d="m 38,30 h 2 v 2 h -2 z"
       id="path110" />
    <path
       d="m 38,32 h 2 v 2 h -2 z"
       id="path112" />
    <path
       d="m 28,38 h 2 v 2 h -2 z"
       id="path114" />
    <path
       d="m 36,28 h 2 v 2 h -2 z"
       id="path116" />
    <path
       d="m 34,28 h 2 v 2 h -2 z"
       id="path118" />
    <path
       d="m 8,20 h 2 v 2 H 8 Z"
       id="path120" />
    <path
       d="m 28,24 h 2 v 2 h -2 z"
       id="path122" />
    <path
       d="m 28,26 h 2 v 2 h -2 z"
       id="path124" />
    <path
       d="m 28,30 h 2 v 2 h -2 z"
       id="path126" />
    <path
       d="m 28,32 h 2 v 2 h -2 z"
       id="path128" />
    <path
       d="m 22,34 h 2 v 2 h -2 z"
       id="path130" />
  </g>
</svg>
