<?xml version="1.0" encoding="UTF-8" standalone="no"?>
<svg
   xmlns:dc="http://purl.org/dc/elements/1.1/"
   xmlns:cc="http://creativecommons.org/ns#"
   xmlns:rdf="http://www.w3.org/1999/02/22-rdf-syntax-ns#"
   xmlns:svg="http://www.w3.org/2000/svg"
   xmlns="http://www.w3.org/2000/svg"
   xmlns:sodipodi="http://sodipodi.sourceforge.net/DTD/sodipodi-0.dtd"
   xmlns:inkscape="http://www.inkscape.org/namespaces/inkscape"
   height="48"
   width="48"
   version="1.1"
   id="svg8"
   sodipodi:docname="yast-hardware.svg"
   inkscape:version="1.0.2 (e86c870879, 2021-01-15)">
  <metadata
     id="metadata14">
    <rdf:RDF>
      <cc:Work
         rdf:about="">
        <dc:format>image/svg+xml</dc:format>
        <dc:type
           rdf:resource="http://purl.org/dc/dcmitype/StillImage" />
        <dc:title></dc:title>
      </cc:Work>
    </rdf:RDF>
  </metadata>
  <defs
     id="defs12" />
  <sodipodi:namedview
     pagecolor="#ffffff"
     bordercolor="#666666"
     borderopacity="1"
     objecttolerance="10"
     gridtolerance="10"
     guidetolerance="10"
     inkscape:pageopacity="0"
     inkscape:pageshadow="2"
     inkscape:window-width="1920"
     inkscape:window-height="1031"
     id="namedview10"
     showgrid="false"
     inkscape:zoom="18.916667"
     inkscape:cx="19.271819"
     inkscape:cy="22.859812"
     inkscape:window-x="0"
     inkscape:window-y="24"
     inkscape:window-maximized="1"
     inkscape:current-layer="svg8"
     inkscape:document-rotation="0" />
  <path
     d="m44.322082 27.405077a19.729762 19.729765 0 0 1 -19.729762 19.729765 19.729762 19.729765 0 0 1 -19.7297621-19.729765 19.729762 19.729765 0 0 1 19.7297621-19.7297632 19.729762 19.729765 0 0 1 19.729762 19.7297632z"
     fill="#89a02c"
     opacity=".99"
     transform="matrix(1.1503549 0 0 1.1503549 -4.486125 -7.525565)"
     id="path2"
     style="fill:#c9a5cd;fill-opacity:1" />
  <path
     d="M 44.508129,24 A 20.704357,20.704361 0 0 1 23.803772,44.70436 20.704357,20.704361 0 0 1 3.099413,24 20.704357,20.704361 0 0 1 23.803772,3.2956408 20.704357,20.704361 0 0 1 44.508129,24 Z"
     fill="#89a02c"
     opacity="0.99"
     id="path880"
     style="fill:#ffffff;fill-opacity:0.24299738;stroke-width:1.0494" />
  <path
     style="fill:#ffffff;fill-opacity:1;stroke:none;stroke-width:1px;stroke-linecap:butt;stroke-linejoin:miter;stroke-opacity:1"
     d="m 16.429438,35.91854 c 6.894699,-1.656108 11.111561,-0.971587 15,0 l -1,-9 c 0,0 11,0 5.271867,-9.755046 -5.245492,-8.933107 -8.271867,0.755046 -8.271867,0.755046 0,0 4,-6 -4.042682,-5.833684 -5.09793,0.105421 -3.957318,4.833684 -3.957318,4.833684 0,0 -4.796232,-6.396412 -7.761775,-0.107863 -5.2382255,11.107863 5.761775,10.107863 5.761775,10.107863 z"
     id="path828"
     inkscape:connector-curvature="0"
     sodipodi:nodetypes="cccscscscc" />
</svg>
