<?xml version="1.0" encoding="UTF-8" standalone="no"?>
<svg
   xmlns:dc="http://purl.org/dc/elements/1.1/"
   xmlns:cc="http://creativecommons.org/ns#"
   xmlns:rdf="http://www.w3.org/1999/02/22-rdf-syntax-ns#"
   xmlns:svg="http://www.w3.org/2000/svg"
   xmlns="http://www.w3.org/2000/svg"
   xmlns:sodipodi="http://sodipodi.sourceforge.net/DTD/sodipodi-0.dtd"
   xmlns:inkscape="http://www.inkscape.org/namespaces/inkscape"
   height="48"
   width="48"
   version="1.1"
   id="svg8"
   sodipodi:docname="rider.svg"
   inkscape:version="1.0.2 (e86c870879, 2021-01-15)">
  <metadata
     id="metadata14">
    <rdf:RDF>
      <cc:Work
         rdf:about="">
        <dc:format>image/svg+xml</dc:format>
        <dc:type
           rdf:resource="http://purl.org/dc/dcmitype/StillImage" />
        <dc:title></dc:title>
      </cc:Work>
    </rdf:RDF>
  </metadata>
  <defs
     id="defs12" />
  <sodipodi:namedview
     pagecolor="#ffffff"
     bordercolor="#666666"
     borderopacity="1"
     objecttolerance="10"
     gridtolerance="10"
     guidetolerance="10"
     inkscape:pageopacity="0"
     inkscape:pageshadow="2"
     inkscape:window-width="1920"
     inkscape:window-height="1031"
     id="namedview10"
     showgrid="false"
     inkscape:zoom="9.4583333"
     inkscape:cx="9.6322786"
     inkscape:cy="30.689624"
     inkscape:window-x="0"
     inkscape:window-y="24"
     inkscape:window-maximized="1"
     inkscape:current-layer="svg8"
     inkscape:document-rotation="0" />
  <path
     d="m44.322082 27.405077a19.729762 19.729765 0 0 1 -19.729762 19.729765 19.729762 19.729765 0 0 1 -19.7297621-19.729765 19.729762 19.729765 0 0 1 19.7297621-19.7297632 19.729762 19.729765 0 0 1 19.729762 19.7297632z"
     fill="#89a02c"
     opacity=".99"
     transform="matrix(1.1503549 0 0 1.1503549 -4.486125 -7.525565)"
     id="path2"
     style="fill:#a085c6;fill-opacity:1" />
  <path
     d="M 44.322082,27.405077 H 4.8625579 c 1e-6,-10.896448 8.8333161,-19.7297633 19.7297621,-19.7297632 10.896446,0 19.729761,8.8333152 19.729762,19.7297632 z"
     fill="#89a02c"
     opacity="0.99"
     transform="matrix(1.1503549,0,0,1.1503549,-4.486125,-7.525565)"
     id="path839"
     sodipodi:nodetypes="ccsc"
     style="fill:#ffffff;fill-opacity:0.16203129" />
  <path
     d="m 44.322082,27.405077 c 0,10.896448 -8.833315,19.729765 -19.729762,19.729765 V 7.6753138 c 10.896446,0 19.729761,8.8333152 19.729762,19.7297632 z"
     fill="#89a02c"
     opacity="0.99"
     transform="matrix(1.1503549,0,0,1.1503549,-4.486125,-7.525565)"
     id="path841"
     sodipodi:nodetypes="sccs"
     style="fill:#f7e96a;fill-opacity:0.42248908" />
  <path
     id="path10-6"
     style="fill:#ffffff;stroke-width:0.850929"
     d="M 10.870511,12.920294 V 37.59723 H 35.547447 V 12.920294 Z m 3.333913,6.485008 h 4.37763 c 2.619202,0 3.717828,1.289706 3.717828,3.543321 v 0.0482 c 0,1.929245 -0.968442,2.952815 -2.52952,3.322279 l 2.52952,4.218081 h -2.024281 l -2.428138,-4.050222 -1.618759,0.0033 v 4.046898 h -2.02428 z m 9.107598,0 h 4.377629 c 2.618254,0 4.73163,2.041528 4.73163,5.541009 v 0.05152 c 0,3.533855 -2.539279,5.499268 -4.498954,5.522728 l -1.573886,0.01662 h -3.036419 z m -7.083318,2.02428 v 3.03642 h 2.024279 c 1.21817,0.0012 2.022618,-0.578802 2.022618,-1.49245 v -0.05152 c 0,-1.09634 -0.804448,-1.492447 -2.022618,-1.492447 z m 9.107597,0 v 7.08498 h 2.02428 c 1.21817,0 3.03642,-0.994955 3.03642,-3.51673 v -0.05152 c 0,-2.487592 -1.81796,-3.516726 -3.03642,-3.516726 z" />
</svg>
