<?xml version="1.0" encoding="UTF-8" standalone="no"?>
<svg
   xmlns:dc="http://purl.org/dc/elements/1.1/"
   xmlns:cc="http://creativecommons.org/ns#"
   xmlns:rdf="http://www.w3.org/1999/02/22-rdf-syntax-ns#"
   xmlns:svg="http://www.w3.org/2000/svg"
   xmlns="http://www.w3.org/2000/svg"
   xmlns:sodipodi="http://sodipodi.sourceforge.net/DTD/sodipodi-0.dtd"
   xmlns:inkscape="http://www.inkscape.org/namespaces/inkscape"
   height="48"
   width="48"
   version="1.1"
   id="svg8"
   sodipodi:docname="com.jetbrains.RubyMine.svg"
   inkscape:version="1.0.2 (e86c870879, 2021-01-15)">
  <metadata
     id="metadata14">
    <rdf:RDF>
      <cc:Work
         rdf:about="">
        <dc:format>image/svg+xml</dc:format>
        <dc:type
           rdf:resource="http://purl.org/dc/dcmitype/StillImage" />
        <dc:title></dc:title>
      </cc:Work>
    </rdf:RDF>
  </metadata>
  <defs
     id="defs12" />
  <sodipodi:namedview
     pagecolor="#ffffff"
     bordercolor="#666666"
     borderopacity="1"
     objecttolerance="10"
     gridtolerance="10"
     guidetolerance="10"
     inkscape:pageopacity="0"
     inkscape:pageshadow="2"
     inkscape:window-width="1920"
     inkscape:window-height="1031"
     id="namedview10"
     showgrid="false"
     inkscape:zoom="9.4583333"
     inkscape:cx="9.6322786"
     inkscape:cy="30.689624"
     inkscape:window-x="0"
     inkscape:window-y="24"
     inkscape:window-maximized="1"
     inkscape:current-layer="svg8"
     inkscape:document-rotation="0" />
  <path
     d="m44.322082 27.405077a19.729762 19.729765 0 0 1 -19.729762 19.729765 19.729762 19.729765 0 0 1 -19.7297621-19.729765 19.729762 19.729765 0 0 1 19.7297621-19.7297632 19.729762 19.729765 0 0 1 19.729762 19.7297632z"
     fill="#89a02c"
     opacity=".99"
     transform="matrix(1.1503549 0 0 1.1503549 -4.486125 -7.525565)"
     id="path2"
     style="fill:#8a9fc1;fill-opacity:1" />
  <path
     d="M 44.322082,27.405077 H 4.8625579 c 1e-6,-10.896448 8.8333161,-19.7297633 19.7297621,-19.7297632 10.896446,0 19.729761,8.8333152 19.729762,19.7297632 z"
     fill="#89a02c"
     opacity="0.99"
     transform="matrix(1.1503549,0,0,1.1503549,-4.486125,-7.525565)"
     id="path839"
     sodipodi:nodetypes="ccsc"
     style="fill:#ffffff;fill-opacity:0.16203129" />
  <path
     d="m 44.322082,27.405077 c 0,10.896448 -8.833315,19.729765 -19.729762,19.729765 V 7.6753138 c 10.896446,0 19.729761,8.8333152 19.729762,19.7297632 z"
     fill="#89a02c"
     opacity="0.99"
     transform="matrix(1.1503549,0,0,1.1503549,-4.486125,-7.525565)"
     id="path841"
     sodipodi:nodetypes="sccs"
     style="fill:#c4458a;fill-opacity:0.2576012" />
  <path
     id="path10-3"
     style="fill:#ffffff;stroke-width:0.848863"
     d="M 10.930415,12.920294 V 37.537326 H 35.547447 V 12.920294 Z m 3.110287,6.245444 h 2.657671 c 1.243224,0 2.15799,0.256336 2.745542,0.767625 0.596067,0.511288 0.893627,1.28753 0.893627,2.329399 0,0.472701 -0.08027,0.888172 -0.242058,1.24511 -0.153275,0.34729 -0.36107,0.646123 -0.625042,0.896944 -0.255458,0.241174 -0.532592,0.439191 -0.830626,0.593541 l 2.682541,4.499638 H 19.17533 l -2.170239,-3.965783 h -1.034552 v 3.965783 h -1.929837 z m 8.430604,0 h 2.631144 l 2.158633,7.901723 h 0.03813 l 2.286295,-7.901723 h 2.631144 v 10.332257 h -1.800517 v -4.890911 c 0,-0.327997 0.0048,-0.70459 0.01327,-1.129055 0.01704,-0.424466 0.02962,-0.824116 0.03813,-1.200345 0.01703,-0.385878 0.02962,-0.67582 0.03813,-0.868759 h -0.0514 l -2.350953,8.08907 h -1.77399 l -2.196765,-8.103991 h -0.0514 c 0.0085,0.19294 0.02107,0.482882 0.03813,0.868758 0.01703,0.385878 0.03437,0.80135 0.0514,1.24511 0.01704,0.434112 0.02487,0.828488 0.02487,1.185425 v 4.804698 h -1.724253 z m -6.500767,1.793887 v 2.793622 h 0.625042 c 0.638642,0 1.093652,-0.120257 1.366139,-0.36143 0.281004,-0.241175 0.422774,-0.598327 0.422774,-1.071027 0,-0.491994 -0.14961,-0.840256 -0.447643,-1.042842 -0.289518,-0.212233 -0.749274,-0.318323 -1.379403,-0.318323 z" />
</svg>
