<?xml version="1.0" encoding="UTF-8" standalone="no"?>
<svg
   height="48"
   width="48"
   version="1.1"
   id="svg6"
   sodipodi:docname="xfce4-session.svg"
   inkscape:version="1.1.2 (0a00cf5339, 2022-02-04)"
   xmlns:inkscape="http://www.inkscape.org/namespaces/inkscape"
   xmlns:sodipodi="http://sodipodi.sourceforge.net/DTD/sodipodi-0.dtd"
   xmlns="http://www.w3.org/2000/svg"
   xmlns:svg="http://www.w3.org/2000/svg">
  <defs
     id="defs10" />
  <sodipodi:namedview
     id="namedview8"
     pagecolor="#ffffff"
     bordercolor="#666666"
     borderopacity="1.0"
     inkscape:pageshadow="2"
     inkscape:pageopacity="0.0"
     inkscape:pagecheckerboard="0"
     showgrid="false"
     inkscape:zoom="16.375"
     inkscape:cx="12.48855"
     inkscape:cy="24.030534"
     inkscape:window-width="1920"
     inkscape:window-height="1031"
     inkscape:window-x="0"
     inkscape:window-y="0"
     inkscape:window-maximized="1"
     inkscape:current-layer="svg6" />
  <path
     id="ellipse2"
     style="fill:#ebcb8b;fill-opacity:1"
     d="M 46.762007,24.214348 A 22.779375,22.779379 0 0 1 23.982632,46.993727 22.779375,22.779379 0 0 1 1.2032566,24.214348 22.779375,22.779379 0 0 1 23.982632,1.4349689 22.779375,22.779379 0 0 1 46.762007,24.214348 Z" />
  <path
     d="m24.482632 7c-9 10-7 14-4 24h7c3-10 6-14-3-24zm-8 15s-2.233072.276859-3 1c-1.306032 1.231464-2 5-2 5l7 2zm15 0-2 8 7-2s-.693968-3.768536-2-5c-.766928-.723141-3-1-3-1zm-10 10 1 3h3l1-3zm2 4s-1.848979 1.069365-2 2c-.119393.735732 1 2 1 2 0-1 0-1 1-1 2 1 1 2 1 2s2.118427-1.803999 2-3c-.0929-.938221-2-2-2-2z"
     fill="#ffffff"
     fill-opacity=".948571"
     id="path4" />
</svg>
