<?xml version="1.0" encoding="UTF-8" standalone="no"?>
<svg
   xmlns:dc="http://purl.org/dc/elements/1.1/"
   xmlns:cc="http://creativecommons.org/ns#"
   xmlns:rdf="http://www.w3.org/1999/02/22-rdf-syntax-ns#"
   xmlns:svg="http://www.w3.org/2000/svg"
   xmlns="http://www.w3.org/2000/svg"
   xmlns:sodipodi="http://sodipodi.sourceforge.net/DTD/sodipodi-0.dtd"
   xmlns:inkscape="http://www.inkscape.org/namespaces/inkscape"
   height="48"
   width="48"
   version="1.1"
   id="svg6"
   sodipodi:docname="aptik-gtk.svg"
   inkscape:version="1.0.2 (e86c870879, 2021-01-15)">
  <metadata
     id="metadata12">
    <rdf:RDF>
      <cc:Work
         rdf:about="">
        <dc:format>image/svg+xml</dc:format>
        <dc:type
           rdf:resource="http://purl.org/dc/dcmitype/StillImage" />
        <dc:title></dc:title>
      </cc:Work>
    </rdf:RDF>
  </metadata>
  <defs
     id="defs10" />
  <sodipodi:namedview
     pagecolor="#ffffff"
     bordercolor="#666666"
     borderopacity="1"
     objecttolerance="10"
     gridtolerance="10"
     guidetolerance="10"
     inkscape:pageopacity="0"
     inkscape:pageshadow="2"
     inkscape:window-width="1920"
     inkscape:window-height="1031"
     id="namedview8"
     showgrid="false"
     inkscape:zoom="6.6880515"
     inkscape:cx="-142.41198"
     inkscape:cy="-24.698292"
     inkscape:window-x="0"
     inkscape:window-y="24"
     inkscape:window-maximized="1"
     inkscape:current-layer="svg6"
     inkscape:document-rotation="0" />
  <circle
     cx="23.940615"
     cy="31.534513"
     fill="#5e81ac"
     opacity=".99"
     r="13.232998"
     transform="matrix(1.75830584759 0 0 1.75830608345 -18.15909274367 -30.97874795549)"
     id="circle2"
     style="fill:#8fabc4;fill-opacity:1" />
  <path
     style="fill:#ffffff;fill-opacity:1;fill-rule:nonzero;stroke:none;stroke-width:2.27168;stroke-linecap:square;stroke-linejoin:miter;stroke-miterlimit:4;stroke-dasharray:none;stroke-dashoffset:0;stroke-opacity:0.992701"
     d="m 38.450235,10.353486 a 1.8031495,1.8031495 0 0 0 -1.804289,1.802616 1.8031495,1.8031495 0 0 0 1.804289,1.802617 1.8031495,1.8031495 0 0 0 1.802615,-1.802617 1.8031495,1.8031495 0 0 0 -1.802615,-1.802616 z m -29.7615627,0.01003 a 1.8031495,1.8031495 0 0 0 -1.8042885,1.804289 1.8031495,1.8031495 0 0 0 1.8042885,1.802616 1.8031495,1.8031495 0 0 0 1.8026157,-1.802616 1.8031495,1.8031495 0 0 0 -1.8026157,-1.804289 z m 0,22.054459 A 1.8031495,1.8031495 0 0 0 6.8843838,34.220594 1.8031495,1.8031495 0 0 0 8.6886723,36.02321 1.8031495,1.8031495 0 0 0 10.491288,34.220594 1.8031495,1.8031495 0 0 0 8.6886723,32.417978 Z m 29.7498567,0 a 1.8031495,1.8031495 0 0 0 -1.802616,1.802616 1.8031495,1.8031495 0 0 0 1.802616,1.802616 1.8031495,1.8031495 0 0 0 1.804289,-1.802616 1.8031495,1.8031495 0 0 0 -1.804289,-1.802616 z"
     id="path884" />
  <path
     style="fill:#fefefe;stroke-width:0.856159"
     id="path6620-3"
     d="m 20.569552,18.038852 h 6.849273 v 8.561591 h -6.849273 z"
     inkscape:connector-curvature="0" />
  <path
     id="path6622-6"
     d="m 18.001074,25.744284 h 11.986228 l -5.993114,5.993114 z"
     inkscape:connector-curvature="0"
     style="fill:#fefefe;fill-rule:evenodd;stroke-width:0.856159" />
  <path
     id="rect936"
     style="fill:#000000;fill-opacity:0.2654447;stroke-width:0.8;stroke-linecap:square"
     d="M 4.4589844 37.195312 A 23.267658 23.267661 0 0 0 23.935547 47.736328 A 23.267658 23.267661 0 0 0 43.414062 37.195312 L 4.4589844 37.195312 z " />
  <g
     id="g946"
     transform="translate(-4.1533611,-1.605236)">
    <rect
       style="fill:#000000;fill-opacity:0.483019;fill-rule:nonzero;stroke:none;stroke-width:1.61794;stroke-linecap:square;stroke-linejoin:miter;stroke-miterlimit:4;stroke-dasharray:none;stroke-dashoffset:0;stroke-opacity:0.992701"
       id="rect969"
       width="23.116297"
       height="5.1369548"
       x="18.001076"
       y="39.442833" />
    <rect
       style="fill:#000000;fill-opacity:0.521569;fill-rule:nonzero;stroke:none;stroke-width:1.61794;stroke-linecap:square;stroke-linejoin:miter;stroke-miterlimit:4;stroke-dasharray:none;stroke-dashoffset:0;stroke-opacity:0.992701"
       id="rect893"
       width="8.5615911"
       height="3.4246366"
       x="18.857233"
       y="40.298992"
       ry="0" />
    <rect
       ry="0"
       y="40.298992"
       x="29.131144"
       height="3.4246366"
       width="11.130069"
       id="rect895"
       style="fill:#000000;fill-opacity:0.520599;fill-rule:nonzero;stroke:none;stroke-width:1.84473;stroke-linecap:square;stroke-linejoin:miter;stroke-miterlimit:4;stroke-dasharray:none;stroke-dashoffset:0;stroke-opacity:0.992701" />
    <path
       style="fill:#d9ce87;fill-opacity:1;fill-rule:nonzero;stroke:none;stroke-width:1.61794;stroke-linecap:square;stroke-linejoin:miter;stroke-miterlimit:4;stroke-dasharray:none;stroke-dashoffset:0;stroke-opacity:0.992701"
       d="m 19.713392,40.298989 v 2.568478 h 1.712319 v -2.568478 z m 2.568478,0 v 2.568478 h 1.712318 v -2.568478 z m 2.568477,0 v 2.568478 h 1.712318 v -2.568478 z m 5.136955,0 v 2.568478 h 1.712318 v -2.568478 z m 2.568477,0 v 2.568478 h 1.712319 v -2.568478 z m 2.568478,0 v 2.568478 h 1.712318 v -2.568478 z m 2.568477,0 v 2.568478 h 1.712318 v -2.568478 z"
       id="rect897" />
    <path
       style="fill:#9e9e9e;fill-opacity:0.569288;fill-rule:nonzero;stroke:none;stroke-width:1.61794;stroke-linecap:square;stroke-linejoin:miter;stroke-miterlimit:4;stroke-dasharray:none;stroke-dashoffset:0;stroke-opacity:0.992701"
       d="m 18.857233,42.867467 v 0.856159 h 8.561592 v -0.856159 z m 10.27391,0 v 0.856159 h 11.130069 v -0.856159 z"
       id="rect926" />
  </g>
</svg>
