<?xml version="1.0" encoding="UTF-8" standalone="no"?>
<svg
   xmlns:dc="http://purl.org/dc/elements/1.1/"
   xmlns:cc="http://creativecommons.org/ns#"
   xmlns:rdf="http://www.w3.org/1999/02/22-rdf-syntax-ns#"
   xmlns:svg="http://www.w3.org/2000/svg"
   xmlns="http://www.w3.org/2000/svg"
   xmlns:sodipodi="http://sodipodi.sourceforge.net/DTD/sodipodi-0.dtd"
   xmlns:inkscape="http://www.inkscape.org/namespaces/inkscape"
   height="48"
   width="48"
   version="1.1"
   id="svg8"
   sodipodi:docname="sigil.svg"
   inkscape:version="1.0.2 (e86c870879, 2021-01-15)">
  <metadata
     id="metadata14">
    <rdf:RDF>
      <cc:Work
         rdf:about="">
        <dc:format>image/svg+xml</dc:format>
        <dc:type
           rdf:resource="http://purl.org/dc/dcmitype/StillImage" />
        <dc:title></dc:title>
      </cc:Work>
    </rdf:RDF>
  </metadata>
  <defs
     id="defs12" />
  <sodipodi:namedview
     pagecolor="#ffffff"
     bordercolor="#666666"
     borderopacity="1"
     objecttolerance="10"
     gridtolerance="10"
     guidetolerance="10"
     inkscape:pageopacity="0"
     inkscape:pageshadow="2"
     inkscape:window-width="1920"
     inkscape:window-height="1031"
     id="namedview10"
     showgrid="false"
     inkscape:zoom="6.6880515"
     inkscape:cx="16.416699"
     inkscape:cy="29.829664"
     inkscape:window-x="0"
     inkscape:window-y="24"
     inkscape:window-maximized="1"
     inkscape:current-layer="svg8"
     inkscape:document-rotation="0" />
  <path
     d="m44.322082 27.405077a19.729762 19.729765 0 0 1 -19.729762 19.729765 19.729762 19.729765 0 0 1 -19.7297621-19.729765 19.729762 19.729765 0 0 1 19.7297621-19.7297632 19.729762 19.729765 0 0 1 19.729762 19.7297632z"
     fill="#89a02c"
     opacity=".99"
     id="path2"
     style="fill:#ad956b;fill-opacity:1"
     transform="matrix(1.1503549 0 0 1.1503549 -4.486125 -7.525565)" />
  <path
     id="path1136"
     style="fill:#c7b390;fill-opacity:1;stroke-width:1.15035"
     d="M 1.1816406 25.832031 A 22.696228 22.696232 0 0 0 23.804688 46.695312 A 22.696228 22.696232 0 0 0 46.423828 25.845703 C 46.379938 25.841746 46.337923 25.832031 46.292969 25.832031 L 1.1816406 25.832031 z " />
  <path
     d="m 18.494438,8.8773762 c 0.325602,0 0.589754,0.2641525 0.589754,0.5897544 0,0.1173125 0,-0.1181105 0,0 0,0.3256018 -0.264152,0.5889564 -0.589754,0.5889564 -1.731755,0 -6.338862,0 -8.070617,0 -0.325603,0 -0.5897545,-0.2633546 -0.5897545,-0.5889564 0,-0.1181105 0,0.1173125 0,0 0,-0.3256019 0.2641515,-0.5897544 0.5897545,-0.5897544 1.731755,0 6.338862,0 8.070617,0 z"
     id="use48"
     style="fill:#ffffff;fill-opacity:1;stroke-width:0.0798043" />
  <path
     d="m 32.696425,12.559549 c 0.325602,0 0.588956,0.263355 0.588956,0.588958 0,0.118109 0,-0.117314 0,0 0,0.325601 -0.263354,0.589754 -0.588956,0.589754 -2.911263,0 -11.054503,0 -13.965766,0 -0.325602,0 -0.589755,-0.264153 -0.589755,-0.589754 0,-0.117314 0,0.118109 0,0 0,-0.325603 0.264153,-0.588958 0.589755,-0.588958 2.911263,0 11.054503,0 13.965766,0 z"
     id="use52"
     style="fill:#ffffff;fill-opacity:1;stroke-width:0.0798043" />
  <path
     d="m 14.527362,12.559549 c 0.162801,0 0.294478,0.131678 0.294478,0.294479 0,0.177165 0,0.412588 0,0.589755 0,0.1628 -0.131677,0.294478 -0.294478,0.294478 -1.30161,0 -4.9111625,0 -6.2119734,0 -0.1628009,0 -0.2952762,-0.131678 -0.2952762,-0.294478 0,-0.177167 0,-0.41259 0,-0.589755 0,-0.162801 0.1324753,-0.294479 0.2952762,-0.294479 1.3008109,0 4.9103634,0 6.2119734,0 z"
     id="use56"
     style="fill:#ffffff;fill-opacity:1;stroke-width:0.0798043" />
  <path
     d="m 24.067178,8.8773762 c 0.162801,0 0.295275,0.1316773 0.295275,0.2944781 0,0.1771658 0,0.4125888 0,0.5897544 0,0.1628009 -0.132474,0.2944783 -0.295275,0.2944783 -0.256172,0 -0.731806,0 -0.987978,0 -0.162802,0 -0.295278,-0.1316774 -0.295278,-0.2944783 0,-0.1771656 0,-0.4125886 0,-0.5897544 0,-0.1628008 0.132476,-0.2944781 0.295278,-0.2944781 0.256172,0 0.731806,0 0.987978,0 z"
     id="use60"
     style="fill:#ffffff;fill-opacity:1;stroke-width:0.0798043" />
  <path
     d="m 36.818321,12.559549 c 0.162801,0 0.294478,0.131678 0.294478,0.294479 0,0.177165 0,0.412588 0,0.589755 0,0.1628 -0.131677,0.294478 -0.294478,0.294478 -0.256969,0 -0.731806,0 -0.988775,0 -0.162802,0 -0.294479,-0.131678 -0.294479,-0.294478 0,-0.177167 0,-0.41259 0,-0.589755 0,-0.162801 0.131677,-0.294479 0.294479,-0.294479 0.256969,0 0.731806,0 0.988775,0 z"
     id="use64"
     style="fill:#ffffff;fill-opacity:1;stroke-width:0.0798043" />
  <path
     d="m 38.396054,16.42288 c 0.162801,0 0.294478,0.131677 0.294478,0.294479 0,0.177165 0,0.412587 0,0.589754 0,0.1628 -0.131677,0.294477 -0.294478,0.294477 -0.25697,0 -0.731806,0 -0.988777,0 -0.1628,0 -0.294478,-0.131677 -0.294478,-0.294477 0,-0.177167 0,-0.412589 0,-0.589754 0,-0.162802 0.131678,-0.294479 0.294478,-0.294479 0.256971,0 0.731807,0 0.988777,0 z"
     id="use68"
     style="fill:#ffffff;fill-opacity:1;stroke-width:0.0798043" />
  <path
     d="m 34.691534,16.42288 c 0.325603,0 0.588957,0.263355 0.588957,0.588956 0,0.11811 0,-0.117312 0,0 0,0.325603 -0.263354,0.589754 -0.588957,0.589754 -1.732553,0 -6.338861,0 -8.071415,0 -0.325601,0 -0.588956,-0.264151 -0.588956,-0.589754 0,-0.117312 0,0.11811 0,0 0,-0.325601 0.263355,-0.588956 0.588956,-0.588956 1.732554,0 6.338862,0 8.071415,0 z"
     id="use72"
     style="fill:#ffffff;fill-opacity:1;stroke-width:0.0798043" />
  <path
     d="m 22.489445,16.42288 c 0.162801,0 0.294477,0.131677 0.294477,0.294479 0,0.177165 0,0.412587 0,0.589754 0,0.1628 -0.131676,0.294477 -0.294477,0.294477 -1.217816,0 -4.576781,0 -5.794596,0 -0.162801,0 -0.295276,-0.131677 -0.295276,-0.294477 0,-0.177167 0,-0.412589 0,-0.589754 0,-0.162802 0.132475,-0.294479 0.295276,-0.294479 1.217815,0 4.57678,0 5.794596,0 z"
     id="use76"
     style="fill:#ffffff;fill-opacity:1;stroke-width:0.0798043" />
  <path
     d="m 13.149141,16.42288 c 0.162003,0 0.294477,0.131677 0.294477,0.294479 0,0.177165 0,0.412587 0,0.589754 0,0.1628 -0.132474,0.294477 -0.294477,0.294477 -0.256971,0 -0.732605,0 -0.988777,0 -0.162802,0 -0.294478,-0.131677 -0.294478,-0.294477 0,-0.177167 0,-0.412589 0,-0.589754 0,-0.162802 0.131676,-0.294479 0.294478,-0.294479 0.256172,0 0.731806,0 0.988777,0 z"
     id="use80"
     style="fill:#ffffff;fill-opacity:1;stroke-width:0.0798043" />
  <path
     d="m 36.679462,8.8773762 c 0.239412,0 0.433337,0.1939246 0.433337,0.4333378 0,0.1492341 0,0.1628009 0,0.3120352 0,0.2394131 -0.193925,0.4333378 -0.433337,0.4333378 -1.273678,0 -4.661374,0 -5.935052,0 -0.239413,0 -0.433338,-0.1939247 -0.433338,-0.4333378 0,-0.1492343 0,-0.1628011 0,-0.3120352 0,-0.2394132 0.193925,-0.4333378 0.433338,-0.4333378 1.273678,0 4.661374,0 5.935052,0 z"
     id="use84"
     style="fill:#ffffff;fill-opacity:1;stroke-width:0.0798043" />
  <path
     d="m 37.024216,19.723589 c 0.239414,0 0.433338,0.193925 0.433338,0.433338 0,0.149233 0,0.162801 0,0.312034 0,0.239414 -0.193924,0.433338 -0.433338,0.433338 -1.273677,0 -4.661374,0 -5.935051,0 -0.239413,0 -0.433338,-0.193924 -0.433338,-0.433338 0,-0.149233 0,-0.162801 0,-0.312034 0,-0.239413 0.193925,-0.433338 0.433338,-0.433338 1.273677,0 4.661374,0 5.935051,0 z"
     id="use96"
     style="fill:#ffffff;fill-opacity:1;stroke-width:0.0798043" />
  <path
     d="m 21.052167,19.723589 c 0.325603,0 0.589755,0.264152 0.589755,0.589754 0,0.117312 0,-0.11811 0,0 0,0.325602 -0.264152,0.588956 -0.589755,0.588956 -2.911263,0 -11.0545025,0 -13.9657658,0 -0.325602,0 -0.5897544,-0.263354 -0.5897544,-0.588956 0,-0.11811 0,0.117312 0,0 0,-0.325602 0.2641524,-0.589754 0.5897544,-0.589754 2.9112633,0 11.0545028,0 13.9657658,0 z"
     id="use100"
     style="fill:#ffffff;fill-opacity:1;stroke-width:0.0798043" />
  <path
     d="m 26.525153,19.723589 c 0.162801,0 0.294477,0.131677 0.294477,0.294479 0,0.177165 0,0.412587 0,0.589753 0,0.162802 -0.131676,0.294478 -0.294477,0.294478 -0.256971,0 -0.731806,0 -0.988777,0 -0.162801,0 -0.294479,-0.131676 -0.294479,-0.294478 0,-0.177166 0,-0.412588 0,-0.589753 0,-0.162802 0.131678,-0.294479 0.294479,-0.294479 0.256971,0 0.731806,0 0.988777,0 z"
     id="use104"
     style="fill:#ffffff;fill-opacity:1;stroke-width:0.0798043" />
  <path
     id="path1156"
     style="fill:#c7b390;fill-opacity:1;stroke-width:1.15035"
     d="M 23.804688 1.3046875 A 22.696228 22.696232 0 0 0 1.1074219 24 A 22.696228 22.696232 0 0 0 23.804688 46.695312 A 22.696228 22.696232 0 0 0 46.5 24 A 22.696228 22.696232 0 0 0 23.804688 1.3046875 z M 23.759766 3.2382812 A 20.762165 20.762169 0 0 1 23.804688 3.2382812 A 20.762165 20.762169 0 0 1 44.566406 24 A 20.762165 20.762169 0 0 1 23.804688 44.761719 A 20.762165 20.762169 0 0 1 3.0410156 24 A 20.762165 20.762169 0 0 1 23.759766 3.2382812 z " />
  <path
     d="m 20.187511,29.007715 c 1.137355,-1.278607 3.389308,-1.854313 5.064884,-1.558428 1.067067,0.175391 1.378352,0.201499 2.316888,0.865571 0.59646,-0.261747 1.160787,-0.31664 1.788709,-0.352788 -0.153968,1.27325 -0.08903,1.158108 0.127861,1.872387 0.17539,0.564997 0.240325,1.179531 -0.01539,1.767956 -0.188109,0.447178 -0.31396,0.588428 -0.599137,0.912431 -0.240324,0.271787 -0.538888,0.415713 -1.189572,0.530855 0.04418,-0.295217 0.112464,-0.494037 0.178068,-1.411823 0.10443,-1.425209 -0.290532,-1.563781 -0.721643,-2.081248 -1.275927,-1.514245 -3.514492,-1.804107 -5.21149,-0.706246 -0.816031,0.522824 -0.935858,1.140035 -0.891677,2.118068 0.02878,0.643319 0.643319,1.257853 0.951926,1.482782 0.894354,0.658715 1.990206,1.105893 2.988992,1.558425 0.368854,0.138572 1.961421,0.737709 2.327598,0.899711 0.481318,0.211539 1.024893,0.507425 1.289316,0.708924 0.789924,0.601144 1.257854,1.218355 1.526964,1.935312 0.488681,1.310069 0.556963,3.86728 -0.601146,5.159276 -1.328144,1.480103 -3.590139,2.110033 -5.591056,2.065851 -1.864355,0.01539 -2.248607,-0.510103 -4.991918,-0.43178 -0.08903,-0.386929 -0.146604,-1.338854 -0.09439,-1.534997 -0.237647,-0.407681 -0.37421,-0.967322 -0.426425,-1.883098 -0.03414,-0.583071 -0.0054,-1.053678 0.297895,-1.948034 0.355466,-1.06171 1.592566,-1.880419 2.729924,-1.987528 0.978033,0.01339 1.958743,0.149282 2.758708,0.763816 0.687501,0.530856 0.842141,1.553071 0.732354,2.167605 -0.170035,0.959959 -0.768502,1.759924 -1.767957,1.786032 -0.507426,0.01539 -1.281283,-0.591104 -1.268565,-1.051001 0.04217,-1.466715 1.521608,-1.231745 1.78871,-1.02757 0.216894,0.164679 0.431781,0.407682 0.345424,0.854859 0.366177,-0.38693 0.617212,-1.252499 0.12786,-1.81214 -1.221034,-1.407136 -3.122207,-1.108572 -3.990454,-0.170035 -0.53889,0.583072 -0.345424,1.595245 -0.232961,2.395211 0.12786,0.920463 0.842139,1.66018 1.579179,2.274713 0.703568,0.585749 1.534997,0.758461 1.754568,0.773857 1.417178,0.08635 2.008281,0.227606 3.582774,-0.496714 0.975355,-0.449855 1.514244,-0.959959 1.961421,-2.272705 0.120498,-0.355466 0.08903,-1.061712 -0.06828,-1.61332 -0.159324,-0.55964 -0.499393,-1.077108 -0.954604,-1.485458 -1.012173,-0.954603 -2.245927,-1.281284 -3.52788,-1.817495 -1.153423,-0.483996 -2.028364,-0.831429 -3.098778,-1.456674 -0.747752,-0.486673 -0.964645,-0.651351 -1.47207,-1.35425 -0.332036,-0.460566 -0.559641,-1.684278 -0.491361,-2.196391 0.16468,-0.839461 0.326681,-1.545707 0.986067,-2.233209 m 0,-0.01071"
     fill="#ffffff"
     id="path32"
     style="stroke-width:0.669577" />
</svg>
