<?xml version="1.0" encoding="UTF-8" standalone="no"?>
<svg
   xmlns:dc="http://purl.org/dc/elements/1.1/"
   xmlns:cc="http://creativecommons.org/ns#"
   xmlns:rdf="http://www.w3.org/1999/02/22-rdf-syntax-ns#"
   xmlns:svg="http://www.w3.org/2000/svg"
   xmlns="http://www.w3.org/2000/svg"
   xmlns:sodipodi="http://sodipodi.sourceforge.net/DTD/sodipodi-0.dtd"
   xmlns:inkscape="http://www.inkscape.org/namespaces/inkscape"
   height="48"
   width="48"
   version="1.1"
   id="svg6"
   sodipodi:docname="cs-cat-hardware.svg"
   inkscape:version="1.0.2 (e86c870879, 2021-01-15)">
  <metadata
     id="metadata12">
    <rdf:RDF>
      <cc:Work
         rdf:about="">
        <dc:format>image/svg+xml</dc:format>
        <dc:type
           rdf:resource="http://purl.org/dc/dcmitype/StillImage" />
        <dc:title></dc:title>
      </cc:Work>
    </rdf:RDF>
  </metadata>
  <defs
     id="defs10" />
  <sodipodi:namedview
     pagecolor="#ffffff"
     bordercolor="#666666"
     borderopacity="1"
     objecttolerance="10"
     gridtolerance="10"
     guidetolerance="10"
     inkscape:pageopacity="0"
     inkscape:pageshadow="2"
     inkscape:window-width="1920"
     inkscape:window-height="1031"
     id="namedview8"
     showgrid="false"
     inkscape:zoom="6.6880516"
     inkscape:cx="-7.311196"
     inkscape:cy="46.773782"
     inkscape:window-x="0"
     inkscape:window-y="24"
     inkscape:window-maximized="1"
     inkscape:current-layer="svg6"
     inkscape:document-rotation="0" />
  <circle
     cx="23.940615"
     cy="31.534513"
     fill="#5e81ac"
     opacity=".99"
     r="13.232998"
     transform="matrix(1.75830584759 0 0 1.75830608345 -18.15909274367 -30.97874795549)"
     id="circle2"
     style="fill:#dfa38e;fill-opacity:1" />
  <path
     id="path4"
     d="M 23.728516 3.0117188 A 21.457434 21.457438 0 0 0 13.935547 5.484375 L 13.935547 35.251953 L 23.572266 25.251953 L 33.935547 35.251953 L 33.935547 5.484375 A 21.457434 21.457438 0 0 0 23.935547 3.0117188 A 21.457434 21.457438 0 0 0 23.728516 3.0117188 z M 23.804688 6.8984375 L 26.234375 9.515625 L 29.804688 9.3828125 L 29.671875 12.953125 L 32.289062 15.382812 L 29.671875 17.814453 L 29.804688 21.382812 L 26.234375 21.251953 L 23.804688 23.869141 L 21.373047 21.251953 L 17.804688 21.382812 L 17.935547 17.814453 L 15.318359 15.382812 L 17.935547 12.953125 L 17.804688 9.3828125 L 21.373047 9.515625 L 23.804688 6.8984375 z "
     style="fill:#ffffff" />
</svg>
