<?xml version="1.0" encoding="UTF-8" standalone="no"?>
<svg
   xmlns:dc="http://purl.org/dc/elements/1.1/"
   xmlns:cc="http://creativecommons.org/ns#"
   xmlns:rdf="http://www.w3.org/1999/02/22-rdf-syntax-ns#"
   xmlns:svg="http://www.w3.org/2000/svg"
   xmlns="http://www.w3.org/2000/svg"
   xmlns:sodipodi="http://sodipodi.sourceforge.net/DTD/sodipodi-0.dtd"
   xmlns:inkscape="http://www.inkscape.org/namespaces/inkscape"
   height="48"
   width="48"
   version="1.1"
   id="svg8"
   sodipodi:docname="spectrum.svg"
   inkscape:version="1.0.2 (e86c870879, 2021-01-15)">
  <metadata
     id="metadata14">
    <rdf:RDF>
      <cc:Work
         rdf:about="">
        <dc:format>image/svg+xml</dc:format>
        <dc:type
           rdf:resource="http://purl.org/dc/dcmitype/StillImage" />
        <dc:title></dc:title>
      </cc:Work>
    </rdf:RDF>
  </metadata>
  <defs
     id="defs12" />
  <sodipodi:namedview
     pagecolor="#ffffff"
     bordercolor="#666666"
     borderopacity="1"
     objecttolerance="10"
     gridtolerance="10"
     guidetolerance="10"
     inkscape:pageopacity="0"
     inkscape:pageshadow="2"
     inkscape:window-width="1920"
     inkscape:window-height="1031"
     id="namedview10"
     showgrid="false"
     inkscape:zoom="18.916667"
     inkscape:cx="19.271819"
     inkscape:cy="22.859812"
     inkscape:window-x="0"
     inkscape:window-y="24"
     inkscape:window-maximized="1"
     inkscape:current-layer="svg8"
     inkscape:document-rotation="0" />
  <path
     d="m44.322082 27.405077a19.729762 19.729765 0 0 1 -19.729762 19.729765 19.729762 19.729765 0 0 1 -19.7297621-19.729765 19.729762 19.729765 0 0 1 19.7297621-19.7297632 19.729762 19.729765 0 0 1 19.729762 19.7297632z"
     fill="#89a02c"
     opacity=".99"
     transform="matrix(1.1503549 0 0 1.1503549 -4.486125 -7.525565)"
     id="path2"
     style="fill:#a5c0cd;fill-opacity:1" />
  <path
     d="M 44.508129,24 A 20.704357,20.704361 0 0 1 23.803772,44.70436 20.704357,20.704361 0 0 1 3.099413,24 20.704357,20.704361 0 0 1 23.803772,3.2956408 20.704357,20.704361 0 0 1 44.508129,24 Z"
     fill="#89a02c"
     opacity="0.99"
     id="path880"
     style="fill:#ffffff;fill-opacity:0.24299738;stroke-width:1.0494" />
  <g
     id="g21"
     transform="matrix(0.1,0,0,0.1,-7.8136054,-9.116963)">
    <path
       d="m 420.44,462.04 c 65.43,-75.25 65.36,-185.47 -0.15,-246.17 -65.52,-60.71 -171.67,-48.92 -237.1,26.33 -0.85,-0.78 -7.63,-7.07 -8.47,-7.85 70.1,-80.63 183.83,-93.26 254.03,-28.21 70.2,65.04 70.27,183.12 0.16,263.75 -1.69,-1.57 -7.62,-7.07 -8.47,-7.85 z"
       id="use15"
       style="fill:#ffffff;fill-opacity:1" />
    <g
       id="g19">
      <path
         d="m 420.44,462.04 c 65.43,-75.25 65.36,-185.47 -0.15,-246.17 -65.52,-60.71 -171.67,-48.92 -237.1,26.33 -0.85,-0.78 -7.63,-7.07 -8.47,-7.85 70.1,-80.63 183.83,-93.26 254.03,-28.21 70.2,65.04 70.27,183.12 0.16,263.75 -1.69,-1.57 -7.62,-7.07 -8.47,-7.85 z"
         id="use17"
         style="fill-opacity:0;stroke:#000000;stroke-width:1;stroke-opacity:0" />
    </g>
  </g>
  <g
     id="g29"
     transform="matrix(0.1,0,0,0.1,-7.8136054,-9.116963)">
    <path
       d="m 403.49,446.33 c 56.09,-64.5 56.03,-158.96 -0.13,-211 -56.15,-52.03 -147.14,-41.93 -203.22,22.57 -0.85,-0.78 -7.63,-7.06 -8.48,-7.85 60.76,-69.87 159.33,-80.82 220.17,-24.45 60.83,56.37 60.89,158.71 0.14,228.59 -1.7,-1.57 -7.63,-7.07 -8.48,-7.86 z"
       id="use23"
       style="fill:#ffffff;fill-opacity:1" />
    <g
       id="g27">
      <path
         d="m 403.49,446.33 c 56.09,-64.5 56.03,-158.96 -0.13,-211 -56.15,-52.03 -147.14,-41.93 -203.22,22.57 -0.85,-0.78 -7.63,-7.06 -8.48,-7.85 60.76,-69.87 159.33,-80.82 220.17,-24.45 60.83,56.37 60.89,158.71 0.14,228.59 -1.7,-1.57 -7.63,-7.07 -8.48,-7.86 z"
         id="use25"
         style="fill-opacity:0;stroke:#000000;stroke-width:1;stroke-opacity:0" />
    </g>
  </g>
  <g
     id="g37"
     transform="matrix(0.1,0,0,0.1,-7.8136054,-9.116963)">
    <path
       d="m 386.55,430.63 c 46.74,-53.75 46.69,-132.47 -0.11,-175.83 -46.8,-43.37 -122.62,-34.94 -169.36,18.81 -0.85,-0.79 -7.62,-7.07 -8.47,-7.86 51.41,-59.12 134.82,-68.38 186.29,-20.68 51.48,47.69 51.53,134.29 0.12,193.41 -1.69,-1.57 -7.62,-7.06 -8.47,-7.85 z"
       id="use31"
       style="fill:#ffffff;fill-opacity:1" />
    <g
       id="g35">
      <path
         d="m 386.55,430.63 c 46.74,-53.75 46.69,-132.47 -0.11,-175.83 -46.8,-43.37 -122.62,-34.94 -169.36,18.81 -0.85,-0.79 -7.62,-7.07 -8.47,-7.86 51.41,-59.12 134.82,-68.38 186.29,-20.68 51.48,47.69 51.53,134.29 0.12,193.41 -1.69,-1.57 -7.62,-7.06 -8.47,-7.85 z"
         id="use33"
         style="fill-opacity:0;stroke:#000000;stroke-width:1;stroke-opacity:0" />
    </g>
  </g>
  <g
     id="g45"
     transform="matrix(0.1,0,0,0.1,-7.8136054,-9.116963)">
    <path
       d="m 369.6,414.93 c 37.39,-43 37.35,-105.98 -0.09,-140.67 -37.44,-34.69 -98.09,-27.95 -135.48,15.05 -0.85,-0.79 -7.63,-7.07 -8.47,-7.85 42.06,-48.38 110.3,-55.96 152.42,-16.93 42.11,39.02 42.16,109.88 0.09,158.25 -1.69,-1.57 -7.62,-7.07 -8.47,-7.85 z"
       id="use39"
       style="fill:#ffffff;fill-opacity:1" />
    <g
       id="g43">
      <path
         d="m 369.6,414.93 c 37.39,-43 37.35,-105.98 -0.09,-140.67 -37.44,-34.69 -98.09,-27.95 -135.48,15.05 -0.85,-0.79 -7.63,-7.07 -8.47,-7.85 42.06,-48.38 110.3,-55.96 152.42,-16.93 42.11,39.02 42.16,109.88 0.09,158.25 -1.69,-1.57 -7.62,-7.07 -8.47,-7.85 z"
         id="use41"
         style="fill-opacity:0;stroke:#000000;stroke-width:1;stroke-opacity:0" />
    </g>
  </g>
  <g
     id="g53"
     transform="matrix(0.1,0,0,0.1,-7.8136054,-9.116963)">
    <path
       d="m 352.65,399.23 c 28.04,-32.25 28.02,-79.49 -0.06,-105.5 -28.08,-26.02 -73.57,-20.97 -101.61,11.28 -0.85,-0.78 -7.63,-7.07 -8.48,-7.85 32.72,-37.62 85.79,-43.52 118.55,-13.17 32.76,30.36 32.79,85.46 0.08,123.09 -1.7,-1.57 -7.63,-7.07 -8.48,-7.85 z"
       id="use47"
       style="fill:#fcfdff;fill-opacity:1" />
    <g
       id="g51">
      <path
         d="m 352.65,399.23 c 28.04,-32.25 28.02,-79.49 -0.06,-105.5 -28.08,-26.02 -73.57,-20.97 -101.61,11.28 -0.85,-0.78 -7.63,-7.07 -8.48,-7.85 32.72,-37.62 85.79,-43.52 118.55,-13.17 32.76,30.36 32.79,85.46 0.08,123.09 -1.7,-1.57 -7.63,-7.07 -8.48,-7.85 z"
         id="use49"
         style="fill-opacity:0;stroke:#000000;stroke-width:1;stroke-opacity:0" />
    </g>
  </g>
  <g
     id="g61"
     transform="matrix(0.1,0,0,0.1,-7.8136054,-9.116963)">
    <path
       d="m 335.71,383.52 c 18.69,-21.49 18.67,-52.99 -0.05,-70.33 -18.71,-17.34 -49.05,-13.97 -67.74,7.52 -0.85,-0.78 -7.62,-7.06 -8.47,-7.85 23.37,-26.87 61.28,-31.08 84.68,-9.4 23.4,21.68 23.42,61.04 0.05,87.92 -1.69,-1.57 -7.62,-7.07 -8.47,-7.86 z"
       id="use55"
       style="fill:#ffffff;fill-opacity:1" />
    <g
       id="g59">
      <path
         d="m 335.71,383.52 c 18.69,-21.49 18.67,-52.99 -0.05,-70.33 -18.71,-17.34 -49.05,-13.97 -67.74,7.52 -0.85,-0.78 -7.62,-7.06 -8.47,-7.85 23.37,-26.87 61.28,-31.08 84.68,-9.4 23.4,21.68 23.42,61.04 0.05,87.92 -1.69,-1.57 -7.62,-7.07 -8.47,-7.86 z"
         id="use57"
         style="fill-opacity:0;stroke:#000000;stroke-width:1;stroke-opacity:0" />
    </g>
  </g>
</svg>
