<?xml version="1.0" encoding="UTF-8" standalone="no"?>
<svg
   xmlns:dc="http://purl.org/dc/elements/1.1/"
   xmlns:cc="http://creativecommons.org/ns#"
   xmlns:rdf="http://www.w3.org/1999/02/22-rdf-syntax-ns#"
   xmlns:svg="http://www.w3.org/2000/svg"
   xmlns="http://www.w3.org/2000/svg"
   xmlns:sodipodi="http://sodipodi.sourceforge.net/DTD/sodipodi-0.dtd"
   xmlns:inkscape="http://www.inkscape.org/namespaces/inkscape"
   height="48"
   width="48"
   version="1.1"
   id="svg8"
   sodipodi:docname="station.svg"
   inkscape:version="1.0.2 (e86c870879, 2021-01-15)">
  <metadata
     id="metadata14">
    <rdf:RDF>
      <cc:Work
         rdf:about="">
        <dc:format>image/svg+xml</dc:format>
        <dc:type
           rdf:resource="http://purl.org/dc/dcmitype/StillImage" />
        <dc:title></dc:title>
      </cc:Work>
    </rdf:RDF>
  </metadata>
  <defs
     id="defs12" />
  <sodipodi:namedview
     pagecolor="#ffffff"
     bordercolor="#666666"
     borderopacity="1"
     objecttolerance="10"
     gridtolerance="10"
     guidetolerance="10"
     inkscape:pageopacity="0"
     inkscape:pageshadow="2"
     inkscape:window-width="1920"
     inkscape:window-height="1031"
     id="namedview10"
     showgrid="false"
     inkscape:zoom="18.916667"
     inkscape:cx="19.271819"
     inkscape:cy="22.859812"
     inkscape:window-x="0"
     inkscape:window-y="24"
     inkscape:window-maximized="1"
     inkscape:current-layer="svg8"
     inkscape:document-rotation="0" />
  <path
     d="m44.322082 27.405077a19.729762 19.729765 0 0 1 -19.729762 19.729765 19.729762 19.729765 0 0 1 -19.7297621-19.729765 19.729762 19.729765 0 0 1 19.7297621-19.7297632 19.729762 19.729765 0 0 1 19.729762 19.7297632z"
     fill="#89a02c"
     opacity=".99"
     transform="matrix(1.1503549 0 0 1.1503549 -4.486125 -7.525565)"
     id="path2"
     style="fill:#82a5cd;fill-opacity:1" />
  <path
     d="M 44.508129,24 A 20.704357,20.704361 0 0 1 23.803772,44.70436 20.704357,20.704361 0 0 1 3.099413,24 20.704357,20.704361 0 0 1 23.803772,3.2956408 20.704357,20.704361 0 0 1 44.508129,24 Z"
     fill="#89a02c"
     opacity="0.99"
     id="path880"
     style="fill:#ffffff;fill-opacity:0.24299738;stroke-width:1.0494" />
  <path
     style="color:#000000;font-style:normal;font-variant:normal;font-weight:normal;font-stretch:normal;font-size:medium;line-height:normal;font-family:sans-serif;font-variant-ligatures:normal;font-variant-position:normal;font-variant-caps:normal;font-variant-numeric:normal;font-variant-alternates:normal;font-feature-settings:normal;text-indent:0;text-align:start;text-decoration:none;text-decoration-line:none;text-decoration-style:solid;text-decoration-color:#000000;letter-spacing:normal;word-spacing:normal;text-transform:none;writing-mode:lr-tb;direction:ltr;text-orientation:mixed;dominant-baseline:auto;baseline-shift:baseline;text-anchor:start;white-space:normal;shape-padding:0;clip-rule:nonzero;display:inline;overflow:visible;visibility:visible;isolation:auto;mix-blend-mode:normal;color-interpolation:sRGB;color-interpolation-filters:linearRGB;solid-color:#000000;solid-opacity:1;vector-effect:none;fill:#ffffff;fill-opacity:0.994505;fill-rule:nonzero;stroke:none;stroke-width:2;stroke-linecap:round;stroke-linejoin:round;stroke-miterlimit:4;stroke-dasharray:none;stroke-dashoffset:0;stroke-opacity:1;paint-order:fill markers stroke;color-rendering:auto;image-rendering:auto;shape-rendering:auto;text-rendering:auto;enable-background:accumulate"
     d="m 27.264724,18.095688 v 0.01 c -4.127945,0.01 -7.489086,3.3857 -7.482422,7.5137 0.0067,4.128 3.377904,7.4897 7.505859,7.4863 3.99447,0 7.209951,-3.1787 7.417969,-7.123 a 1.0001,1.0001 0 0 0 0.07617,-0.3772 1.0001,1.0001 0 0 0 0,-0.016 1.0001,1.0001 0 0 0 0,-0.014 c -7e-6,0 -0.0019,2e-4 -0.002,-0.01 a 1.0001,1.0001 0 0 0 -0.07422,-0.3671 c -0.218903,-3.9453 -3.445699,-7.1132 -7.441404,-7.1036 z m 0.0039,2.0059 c 3.047638,-0.01 5.503831,2.4347 5.513672,5.4824 a 1.0001,1.0001 0 0 0 0,0.01 1.0001,1.0001 0 0 0 0,0.01 c 0,3.0477 -2.448447,5.4976 -5.496094,5.5 -3.047646,0 -5.498986,-2.4427 -5.503906,-5.4903 -0.0049,-3.0476 2.43869,-5.5023 5.486328,-5.5097 z m -6.486328,15 v 2 h 13 v -2 z"
     id="path996"
     inkscape:connector-curvature="0" />
  <path
     style="fill:#ffffff;fill-opacity:0.862637;stroke:none;stroke-width:6;stroke-linecap:round;stroke-linejoin:round;stroke-miterlimit:4;stroke-dasharray:none;stroke-dashoffset:0;stroke-opacity:1;paint-order:fill markers stroke"
     id="path821"
     sodipodi:type="arc"
     sodipodi:cx="10.991324"
     sodipodi:cy="11.108807"
     sodipodi:rx="2.2500005"
     sodipodi:ry="2.2500005"
     sodipodi:start="0"
     sodipodi:end="6.2799564"
     sodipodi:open="true"
     sodipodi:arc-type="arc"
     d="M 13.241325,11.108807 A 2.2500005,2.2500005 0 0 1 10.993141,13.358806 2.2500005,2.2500005 0 0 1 8.7413269,11.112439 2.2500005,2.2500005 0 0 1 10.985876,8.8588127 2.2500005,2.2500005 0 0 1 13.241313,11.101542" />
  <path
     sodipodi:open="true"
     sodipodi:end="6.2799564"
     sodipodi:start="0"
     sodipodi:ry="2.2500005"
     sodipodi:rx="2.2500005"
     sodipodi:cy="18.108807"
     sodipodi:cx="10.991324"
     sodipodi:type="arc"
     id="path823"
     style="fill:#ffffff;fill-opacity:0.862637;stroke:none;stroke-width:6;stroke-linecap:round;stroke-linejoin:round;stroke-miterlimit:4;stroke-dasharray:none;stroke-dashoffset:0;stroke-opacity:1;paint-order:fill markers stroke"
     sodipodi:arc-type="arc"
     d="m 13.241325,18.108807 a 2.2500005,2.2500005 0 0 1 -2.248184,2.249999 2.2500005,2.2500005 0 0 1 -2.2518141,-2.246367 2.2500005,2.2500005 0 0 1 2.2445491,-2.253626 2.2500005,2.2500005 0 0 1 2.255437,2.242729" />
  <path
     style="fill:#ffffff;fill-opacity:0.862637;stroke:none;stroke-width:6;stroke-linecap:round;stroke-linejoin:round;stroke-miterlimit:4;stroke-dasharray:none;stroke-dashoffset:0;stroke-opacity:1;paint-order:fill markers stroke"
     id="path825"
     sodipodi:type="arc"
     sodipodi:cx="10.991324"
     sodipodi:cy="25.108807"
     sodipodi:rx="2.2500005"
     sodipodi:ry="2.2500005"
     sodipodi:start="0"
     sodipodi:end="6.2799564"
     sodipodi:open="true"
     sodipodi:arc-type="arc"
     d="m 13.241325,25.108807 a 2.2500005,2.2500005 0 0 1 -2.248184,2.249999 2.2500005,2.2500005 0 0 1 -2.2518141,-2.246367 2.2500005,2.2500005 0 0 1 2.2445491,-2.253626 2.2500005,2.2500005 0 0 1 2.255437,2.242729" />
  <path
     style="fill:none;stroke:#ffffff;stroke-width:2;stroke-linecap:round;stroke-linejoin:miter;stroke-miterlimit:4;stroke-dasharray:none;stroke-opacity:0.214286"
     d="m 15.241313,12.101541 h 7"
     id="path827"
     inkscape:connector-curvature="0"
     sodipodi:nodetypes="cc" />
  <path
     style="fill:none;stroke:#ffffff;stroke-width:2;stroke-linecap:round;stroke-linejoin:miter;stroke-miterlimit:4;stroke-dasharray:none;stroke-opacity:0.214286"
     d="m 25.241313,12.101541 h 6"
     id="path829"
     inkscape:connector-curvature="0" />
  <path
     sodipodi:nodetypes="cc"
     inkscape:connector-curvature="0"
     id="path831"
     d="m 15.241313,19.101541 h 7"
     style="fill:none;stroke:#ffffff;stroke-width:2;stroke-linecap:round;stroke-linejoin:miter;stroke-miterlimit:4;stroke-dasharray:none;stroke-opacity:0.214286" />
</svg>
