<?xml version="1.0" encoding="UTF-8" standalone="no"?>
<svg
   xmlns:dc="http://purl.org/dc/elements/1.1/"
   xmlns:cc="http://creativecommons.org/ns#"
   xmlns:rdf="http://www.w3.org/1999/02/22-rdf-syntax-ns#"
   xmlns:svg="http://www.w3.org/2000/svg"
   xmlns="http://www.w3.org/2000/svg"
   xmlns:sodipodi="http://sodipodi.sourceforge.net/DTD/sodipodi-0.dtd"
   xmlns:inkscape="http://www.inkscape.org/namespaces/inkscape"
   height="48"
   width="48"
   version="1.1"
   id="svg6"
   sodipodi:docname="sweethome3d.svg"
   inkscape:version="1.0.2 (e86c870879, 2021-01-15)">
  <metadata
     id="metadata12">
    <rdf:RDF>
      <cc:Work
         rdf:about="">
        <dc:format>image/svg+xml</dc:format>
        <dc:type
           rdf:resource="http://purl.org/dc/dcmitype/StillImage" />
        <dc:title></dc:title>
      </cc:Work>
    </rdf:RDF>
  </metadata>
  <defs
     id="defs10">
    <clipPath
       id="_clip2">
      <path
         d="m 362.691,209.643 h 9.844 v 36.359 H 65.488 v 33.244 H 33.142 V 176.398 h 32.346 v 33.245 H 226.136 V 68.456 h 36.772 z M 258.482,114.224 v 95.419 h 67.436 z"
         id="path44" />
    </clipPath>
    <clipPath
       id="_clip3">
      <path
         d="m 222.648,71.647 v 137.967 h 20.733 V 71.647 Z"
         id="path47" />
    </clipPath>
    <clipPath
       id="_clip4">
      <path
         d="m 246.665,71.675 99.352,137.968 H 366.75 L 267.398,71.675 Z"
         id="path54" />
    </clipPath>
    <clipPath
       id="_clip5">
      <path
         d="m 86.76,328.6 c -0.209,0.14 -0.307,0.397 -0.242,0.64 0.065,0.244 0.279,0.418 0.53,0.434 5.977,0.37 25.279,1.568 25.279,1.568 l -4.458,-16.639 c 0,0 -16.118,10.688 -21.109,13.997 z"
         id="path73" />
    </clipPath>
  </defs>
  <sodipodi:namedview
     pagecolor="#ffffff"
     bordercolor="#666666"
     borderopacity="1"
     objecttolerance="10"
     gridtolerance="10"
     guidetolerance="10"
     inkscape:pageopacity="0"
     inkscape:pageshadow="2"
     inkscape:window-width="1920"
     inkscape:window-height="1031"
     id="namedview8"
     showgrid="false"
     inkscape:zoom="13.376103"
     inkscape:cx="8.9844789"
     inkscape:cy="28.314246"
     inkscape:window-x="0"
     inkscape:window-y="24"
     inkscape:window-maximized="1"
     inkscape:current-layer="svg6"
     inkscape:document-rotation="0" />
  <circle
     cx="23.940615"
     cy="31.534513"
     fill="#5e81ac"
     opacity=".99"
     r="13.232998"
     transform="matrix(1.75830584759 0 0 1.75830608345 -18.15909274367 -30.97874795549)"
     id="circle2"
     style="fill:#cccccc;fill-opacity:1" />
  <ellipse
     cx="23.935829"
     cy="24.468578"
     fill="#5e81ac"
     opacity="0.99"
     id="circle878"
     style="fill:#ffffff;fill-opacity:1;stroke-width:1.56656"
     rx="20.730261"
     ry="20.730263" />
  <path
     d="m 39.998763,24.878894 h 1.008586 v 3.725249 H 9.5481363 v 3.406091 H 6.2340522 V 21.472702 h 3.3140841 v 3.406192 H 26.007701 V 10.413253 h 3.767563 z M 29.321785,15.102519 v 9.776375 h 6.909313 z"
     style="clip-rule:evenodd;fill:#d5d5d5;fill-rule:evenodd;stroke-width:0.102457;stroke-miterlimit:2.29"
     id="path42" />
  <g
     clip-path="url(#_clip2)"
     id="g63"
     style="clip-rule:evenodd;fill-rule:evenodd;stroke-miterlimit:2.29"
     transform="matrix(0.10245732,0,0,0.10245732,2.8384103,3.3994344)">
    <clipPath
       id="clipPath971">
      <path
         d="m 222.648,71.647 v 137.967 h 20.733 V 71.647 Z"
         id="path969" />
    </clipPath>
    <g
       clip-path="url(#_clip3)"
       id="g52">
      <path
         d="m 242.855,-30.609 v -3.385 h -20.207 v 3.385 z m 0,49.242 v -3.385 h -20.207 v 3.385 z m 0,8.207 v -3.384 h -20.207 v 3.384 z m 0,8.207 v -3.384 h -20.207 v 3.384 z m 0,8.207 V 39.87 h -20.207 v 3.384 z m 0,8.207 v -3.384 h -20.207 v 3.384 z m 0,-49.242 v -3.385 h -20.207 v 3.385 z m 0,8.207 V 7.041 h -20.207 v 3.385 z m 0,49.242 v -3.384 h -20.207 v 3.384 z m 0,8.207 v -3.384 h -20.207 v 3.384 z m 0,8.207 v -3.384 h -20.207 v 3.384 z m 0,16.414 v -3.384 h -20.207 v 3.384 z m 0,73.864 v -3.384 h -20.207 v 3.384 z m 0,65.657 v -3.385 h -20.207 v 3.385 z m 0,-131.314 v -3.384 h -20.207 v 3.384 z m 0,-16.414 v -3.384 h -20.207 v 3.384 z m 0,114.9 v -3.385 h -20.207 v 3.385 z m 0,41.035 v -3.384 h -20.207 v 3.384 z m 0,8.207 v -3.384 h -20.207 v 3.384 z m 0,8.207 v -3.384 h -20.207 v 3.384 z m 0,8.207 v -3.384 h -20.207 v 3.384 z m 0,8.207 v -3.384 h -20.207 v 3.384 z m 0,-57.449 v -3.385 h -20.207 v 3.385 z m 0,8.207 v -3.385 h -20.207 v 3.385 z m 0,-238.005 v -3.385 h -20.207 v 3.385 z m 0,-8.207 v -3.385 h -20.207 v 3.385 z m 0,196.969 v -3.384 h -20.207 v 3.384 z m 0,-16.414 v -3.384 h -20.207 v 3.384 z m 0,-8.206 v -3.385 h -20.207 v 3.385 z m 0,-8.208 v -3.384 h -20.207 v 3.384 z m 0,-8.207 v -3.384 h -20.207 v 3.384 z m 0,-16.414 v -3.385 h -20.207 v 3.385 z m 0,-8.207 v -3.385 h -20.207 v 3.385 z m 0,73.863 v -3.384 h -20.207 v 3.384 z m 0,8.208 v -3.385 h -20.207 v 3.385 z m 0,16.414 v -3.385 h -20.207 v 3.385 z m 0,-213.384 v -3.385 h -20.207 v 3.385 z m 0,131.313 v -3.384 h -20.207 v 3.384 z"
         style="fill:#c7c7c7"
         id="path50" />
    </g>
    <clipPath
       id="clipPath977">
      <path
         d="m 246.665,71.675 99.352,137.968 H 366.75 L 267.398,71.675 Z"
         id="path975" />
    </clipPath>
    <g
       clip-path="url(#_clip4)"
       id="g59">
      <path
         d="m 193.236,-30.581 -2.437,-3.384 h -20.207 l 2.437,3.384 z m 35.46,49.242 -2.437,-3.384 h -20.207 l 2.437,3.384 z m 5.91,8.207 -2.437,-3.384 h -20.207 l 2.437,3.384 z m 5.91,8.207 -2.437,-3.384 h -20.207 l 2.437,3.384 z m 5.91,8.208 -2.437,-3.385 h -20.207 l 2.437,3.385 z m 5.91,8.207 -2.437,-3.385 h -20.207 l 2.437,3.385 z m -35.46,-49.243 -2.437,-3.384 h -20.207 l 2.437,3.384 z m 5.91,8.207 -2.437,-3.384 h -20.207 l 2.437,3.384 z m 35.46,49.243 -2.437,-3.385 h -20.207 l 2.437,3.385 z m 5.91,8.207 -2.437,-3.385 h -20.207 l 2.437,3.385 z m 5.91,8.207 -2.437,-3.385 h -20.207 l 2.437,3.385 z m 11.82,16.414 -2.437,-3.385 h -20.207 l 2.437,3.385 z m 53.19,73.864 -2.437,-3.385 h -20.207 l 2.437,3.385 z m 47.28,65.656 -2.437,-3.384 h -20.207 l 2.437,3.384 z m -94.56,-131.313 -2.437,-3.385 h -20.207 l 2.437,3.385 z m -11.82,-16.415 -2.437,-3.384 h -20.207 l 2.437,3.384 z m 82.74,114.9 -2.437,-3.385 h -20.207 l 2.437,3.385 z m 29.55,41.035 -2.437,-3.384 h -20.207 l 2.437,3.384 z m 5.91,8.207 -2.437,-3.384 h -20.207 l 2.437,3.384 z m 5.91,8.208 -2.437,-3.385 h -20.207 l 2.437,3.385 z m 5.91,8.206 -2.437,-3.384 h -20.207 l 2.437,3.384 z m 5.91,8.208 -2.437,-3.385 h -20.207 l 2.437,3.385 z m -41.37,-57.45 -2.437,-3.385 h -20.207 l 2.437,3.385 z m 5.91,8.207 -2.437,-3.384 h -20.207 l 2.437,3.384 z m -171.39,-238.005 -2.437,-3.384 h -20.207 l 2.437,3.384 z m -5.91,-8.207 -2.437,-3.384 h -20.207 l 2.437,3.384 z m 141.84,196.97 -2.437,-3.385 h -20.207 l 2.437,3.385 z m -11.82,-16.414 -2.437,-3.385 h -20.207 l 2.437,3.385 z m -5.91,-8.207 -2.437,-3.385 h -20.207 l 2.438,3.385 z m -5.91,-8.207 -2.437,-3.385 h -20.207 l 2.437,3.385 z m -5.91,-8.207 -2.437,-3.385 h -20.207 l 2.437,3.385 z m -11.82,-16.415 -2.437,-3.384 h -20.207 l 2.437,3.384 z m -5.91,-8.207 -2.437,-3.385 h -20.207 l 2.437,3.385 z m 53.19,73.864 -2.437,-3.385 h -20.207 l 2.437,3.385 z m 5.91,8.207 -2.437,-3.385 h -20.207 l 2.437,3.385 z m 11.82,16.414 -2.437,-3.385 h -20.207 l 2.437,3.385 z M 210.966,-5.96 208.529,-9.344 h -20.207 l 2.437,3.384 z m 94.56,131.313 -2.437,-3.384 h -20.207 l 2.437,3.384 z"
         style="fill:#c7c7c7"
         id="path57" />
    </g>
    <path
       d="m 369.15,229.849 h 3.385 v -20.206 h -3.385 z m -49.242,0 h 3.384 v -20.206 h -3.384 z m -8.207,0 h 3.384 v -20.206 h -3.384 z m -8.207,0 h 3.384 v -20.206 h -3.384 z m -8.207,0 h 3.384 v -20.206 h -3.384 z m -8.208,0 h 3.385 v -20.206 h -3.385 z m 49.243,0 h 3.384 v -20.206 h -3.384 z m -8.207,0 h 3.384 v -20.206 h -3.384 z m -49.243,0 h 3.385 v -20.206 h -3.385 z m -8.206,0 h 3.384 v -20.206 h -3.384 z m -8.207,0 h 3.384 v -20.206 h -3.384 z m -16.415,0 h 3.385 v -20.206 h -3.385 z m -73.864,0 h 3.385 v -20.206 h -3.385 z m -65.656,0 h 3.385 v -20.206 h -3.385 z m 131.313,0 h 3.385 v -20.206 h -3.385 z m 16.415,0 h 3.384 v -20.206 h -3.384 z m -114.9,0 h 3.385 v -20.206 h -3.385 z m -41.035,0 h 3.384 v -20.206 h -3.384 z m -8.207,0 h 3.384 V 209.643 H 90.11 Z m -8.207,0 h 3.384 v -20.206 h -3.384 z m -8.207,0 h 3.384 v -20.206 h -3.384 z m -8.208,0 h 3.385 v -20.206 h -3.385 z m 57.45,0 h 3.385 v -20.206 h -3.385 z m -8.207,0 h 3.384 v -20.206 h -3.384 z m 238.005,0 h 3.384 v -20.206 h -3.384 z m 8.207,0 h 3.384 v -20.206 h -3.384 z m -196.97,0 h 3.385 v -20.206 h -3.385 z m 16.414,0 h 3.385 v -20.206 h -3.385 z m 8.207,0 h 3.385 v -20.206 h -3.385 z m 8.207,0 h 3.385 v -20.206 h -3.385 z m 8.207,0 h 3.385 v -20.206 h -3.385 z m 16.415,0 h 3.384 v -20.206 h -3.384 z m 8.207,0 h 3.385 v -20.206 h -3.385 z m -73.864,0 h 3.385 v -20.206 h -3.385 z m -8.207,0 h 3.385 v -20.206 h -3.385 z m -16.414,0 h 3.385 v -20.206 h -3.385 z m 213.384,0 h 3.384 v -20.206 h -3.384 z m -131.313,0 h 3.384 v -20.206 h -3.384 z"
       style="fill:#c7c7c7"
       id="path61" />
  </g>
  <g
     id="pencil"
     style="clip-rule:evenodd;fill-rule:evenodd;stroke-miterlimit:2.29"
     transform="matrix(0.10245732,0,0,0.10245732,2.8384103,3.3994344)">
    <g
       id="g80">
      <g
         id="g69">
        <path
           d="m 314.807,276.988 -4.458,-16.64 -202.48,54.255 4.458,16.639 z"
           style="fill:#ffc27b"
           id="path65" />
        <path
           d="m 313.455,271.942 -1.339,-4.998 -202.48,54.254 1.339,4.999 z"
           style="fill:#ffcd93"
           id="path67" />
      </g>
      <path
         d="m 86.76,328.6 c -0.209,0.14 -0.307,0.397 -0.242,0.64 0.065,0.244 0.279,0.418 0.53,0.434 5.977,0.37 25.279,1.568 25.279,1.568 l -4.458,-16.639 c 0,0 -16.118,10.688 -21.109,13.997 z"
         style="fill:#ffdeb7"
         id="path71" />
      <clipPath
         id="clipPath989">
        <path
           d="m 86.76,328.6 c -0.209,0.14 -0.307,0.397 -0.242,0.64 0.065,0.244 0.279,0.418 0.53,0.434 5.977,0.37 25.279,1.568 25.279,1.568 l -4.458,-16.639 c 0,0 -16.118,10.688 -21.109,13.997 z"
           id="path987" />
      </clipPath>
      <g
         clip-path="url(#_clip5)"
         id="g78">
        <path
           d="m 85.557,328.913 c -0.227,0.134 -0.337,0.403 -0.268,0.657 0.068,0.254 0.297,0.432 0.56,0.434 2.851,0.025 7.574,0.065 7.574,0.065 l -1.34,-4.998 c 0,0 -4.07,2.396 -6.526,3.842 z"
           style="fill:#626262"
           id="path76" />
      </g>
    </g>
    <g
       id="g100">
      <g
         id="g92">
        <path
           d="m 317.439,276.282 -4.458,-16.639 -14.717,3.943 4.458,16.64 z"
           style="fill:#dedede"
           id="path82" />
        <g
           id="g90">
          <path
             d="m 310.259,276.806 -3.758,-14.027 -1.057,0.284 3.758,14.026 z"
             style="fill:#c3c3c3"
             id="path84" />
          <path
             d="m 306.721,277.754 -3.758,-14.027 -1.057,0.284 3.758,14.026 z"
             style="fill:#c3c3c3"
             id="path86" />
          <path
             d="m 313.798,275.858 -3.759,-14.027 -1.057,0.283 3.759,14.027 z"
             style="fill:#c3c3c3"
             id="path88" />
        </g>
      </g>
      <g
         id="g98">
        <path
           d="m 328.261,273.383 c 1.458,-0.391 2.324,-1.89 1.933,-3.349 -0.833,-3.111 -2.21,-8.247 -3.043,-11.357 -0.391,-1.459 -1.89,-2.324 -3.349,-1.934 -3.92,1.051 -10.821,2.9 -10.821,2.9 l 4.458,16.639 c 0,0 6.901,-1.849 10.822,-2.899 z"
           style="fill:#ff8677"
           id="path94" />
        <path
           d="m 328.707,271.627 c 0.271,-0.073 0.502,-0.25 0.642,-0.492 0.14,-0.243 0.178,-0.531 0.105,-0.802 -0.675,-2.521 -2.418,-9.024 -3.093,-11.545 -0.073,-0.271 -0.25,-0.502 -0.492,-0.642 -0.243,-0.14 -0.531,-0.178 -0.802,-0.105 -0.001,0 -0.002,0 -0.002,0 l 3.641,13.586 c 0,0 0,0 10e-4,0 z"
           style="fill:#ff9c95"
           id="path96" />
      </g>
    </g>
  </g>
</svg>
