<?xml version="1.0" encoding="UTF-8" standalone="no"?>
<svg
   xmlns:dc="http://purl.org/dc/elements/1.1/"
   xmlns:cc="http://creativecommons.org/ns#"
   xmlns:rdf="http://www.w3.org/1999/02/22-rdf-syntax-ns#"
   xmlns:svg="http://www.w3.org/2000/svg"
   xmlns="http://www.w3.org/2000/svg"
   xmlns:sodipodi="http://sodipodi.sourceforge.net/DTD/sodipodi-0.dtd"
   xmlns:inkscape="http://www.inkscape.org/namespaces/inkscape"
   height="48"
   width="48"
   version="1.1"
   id="svg6"
   sodipodi:docname="syphon.svg"
   inkscape:version="1.0.2 (e86c870879, 2021-01-15)">
  <metadata
     id="metadata12">
    <rdf:RDF>
      <cc:Work
         rdf:about="">
        <dc:format>image/svg+xml</dc:format>
        <dc:type
           rdf:resource="http://purl.org/dc/dcmitype/StillImage" />
        <dc:title></dc:title>
      </cc:Work>
    </rdf:RDF>
  </metadata>
  <defs
     id="defs10">
    <marker
       style="overflow:visible"
       id="DotL"
       refX="0.0"
       refY="0.0"
       orient="auto"
       inkscape:stockid="DotL"
       inkscape:isstock="true">
      <path
         transform="scale(0.8) translate(7.4, 1)"
         style="fill-rule:evenodd;stroke:#000000;stroke-width:1pt;stroke-opacity:1;fill:#000000;fill-opacity:1"
         d="M -2.5,-1.0 C -2.5,1.7600000 -4.7400000,4.0 -7.5,4.0 C -10.260000,4.0 -12.5,1.7600000 -12.5,-1.0 C -12.5,-3.7600000 -10.260000,-6.0 -7.5,-6.0 C -4.7400000,-6.0 -2.5,-3.7600000 -2.5,-1.0 z "
         id="path898" />
    </marker>
  </defs>
  <sodipodi:namedview
     pagecolor="#ffffff"
     bordercolor="#666666"
     borderopacity="1"
     objecttolerance="10"
     gridtolerance="10"
     guidetolerance="10"
     inkscape:pageopacity="0"
     inkscape:pageshadow="2"
     inkscape:window-width="1920"
     inkscape:window-height="1024"
     id="namedview8"
     showgrid="false"
     inkscape:zoom="5.656854"
     inkscape:cx="30.326351"
     inkscape:cy="42.460659"
     inkscape:window-x="0"
     inkscape:window-y="24"
     inkscape:window-maximized="1"
     inkscape:current-layer="svg6"
     inkscape:document-rotation="0" />
  <circle
     cx="23.940615"
     cy="31.534513"
     fill="#5e81ac"
     opacity=".99"
     r="13.232998"
     transform="matrix(1.75830584759 0 0 1.75830608345 -18.15909274367 -30.97874795549)"
     id="circle2"
     style="fill:#a2d5d1;fill-opacity:1" />
  <path
     d="m 13.351893,15.958499 1.42e-4,3.462079 0.01128,-3e-5 c -0.01121,0.0588 -0.01835,0.118707 -0.02116,0.179367 l -0.0014,0.05942 v 10.694939 c 0,0.437322 0.224137,0.842864 0.591654,1.077362 l 0.05101,0.03088 8.509533,4.891464 v 3.52563 l -10.216134,1.611374 c -0.05814,0.0124 -0.117792,0.02072 -0.178636,0.02468 -0.639322,0.05279 -1.220691,-0.39564 -1.323071,-1.039243 -0.0211,-0.13261 -0.02022,-0.263649 -8.6e-5,-0.389408 l 9.4e-5,-9.537836 -0.0037,-0.09727 -0.0013,-0.09766 V 19.65934 c 0,-1.341778 0.703326,-2.583847 1.8508,-3.279256 l 0.07716,-0.04555 z m 21.136955,3.437172 2.589092,2.85e-4 c 0.0039,0.05781 0.0066,0.115862 0.008,0.174126 l 10e-4,0.08929 v 10.694935 c 0,1.341781 -0.703325,2.583853 -1.850801,3.279258 l -0.07716,0.04553 -9.302511,5.347468 c -0.188121,0.108138 -0.383125,0.199229 -0.582841,0.273262 l -1.86e-4,-2.893895 8.600278,-4.943372 c 0.380382,-0.218656 0.621059,-0.614697 0.641269,-1.048837 l 0.0015,-0.05943 V 19.65938 c 0,-0.08962 -0.0094,-0.177914 -0.02755,-0.263669 z m -21.231088,14.605268 1.56e-4,4.832524 6.59684,-1.040395 z m 11.727269,-17.139114 0.06951,0.03833 5.379004,3.092074 c 0.668285,0.384158 1.087984,1.08393 1.113563,1.848337 l 0.0013,0.07417 v 6.184143 c 0,0.768316 -0.398815,1.48009 -1.050911,1.884353 l -0.06389,0.03814 -5.379004,3.092078 c -0.666848,0.383329 -1.48328,0.396104 -2.1601,0.03832 l -0.06955,-0.03832 -5.379004,-3.092078 c -0.668284,-0.384155 -1.087984,-1.08393 -1.113563,-1.848338 l -0.0013,-0.07416 v -6.184142 c 0,-0.76832 0.398815,-1.480094 1.050911,-1.884354 l 0.06389,-0.03816 5.379003,-3.092075 c 0.666849,-0.383331 1.483281,-0.396107 2.160101,-0.03833 z m 0.78974,-5.920451 0.08177,0.0457 9.302513,5.347467 c 0.153686,0.08835 0.299773,0.186343 0.437664,0.292971 l -5.069444,-1.43e-4 -5.956035,-3.423755 c -0.379597,-0.21821 -0.843278,-0.228129 -1.23052,-0.02976 l -0.05479,0.02976 -7.153519,4.111993 v -2.955375 l 5.868216,-3.373158 c 1.165908,-0.670212 2.596217,-0.685445 3.774144,-0.0457 z"
     id="app-icon-raw-short"
     style="clip-rule:evenodd;fill:#ffffff;fill-opacity:1;fill-rule:nonzero;stroke:none;stroke-width:0.248371;stroke-linecap:round;stroke-linejoin:round;stroke-miterlimit:1.5" />
</svg>
