<?xml version="1.0" encoding="UTF-8" standalone="no"?>
<svg
   height="48"
   width="48"
   version="1.1"
   id="svg12"
   sodipodi:docname="yast-network-group.svg"
   inkscape:version="1.1.2 (0a00cf5339, 2022-02-04)"
   xmlns:inkscape="http://www.inkscape.org/namespaces/inkscape"
   xmlns:sodipodi="http://sodipodi.sourceforge.net/DTD/sodipodi-0.dtd"
   xmlns="http://www.w3.org/2000/svg"
   xmlns:svg="http://www.w3.org/2000/svg">
  <defs
     id="defs16" />
  <sodipodi:namedview
     id="namedview14"
     pagecolor="#ffffff"
     bordercolor="#666666"
     borderopacity="1.0"
     inkscape:pageshadow="2"
     inkscape:pageopacity="0.0"
     inkscape:pagecheckerboard="0"
     showgrid="false"
     inkscape:zoom="4.09375"
     inkscape:cx="3.5419847"
     inkscape:cy="60.70229"
     inkscape:window-width="1920"
     inkscape:window-height="1031"
     inkscape:window-x="0"
     inkscape:window-y="0"
     inkscape:window-maximized="1"
     inkscape:current-layer="svg12" />
  <path
     id="path2"
     style="fill:#a3be8c;fill-opacity:1;stroke-width:1.15035"
     d="M 23.804688 1.3046875 A 22.696228 22.696232 0 0 0 1.1074219 24 A 22.696228 22.696232 0 0 0 23.804688 46.695312 A 22.696228 22.696232 0 0 0 46.5 24 A 22.696228 22.696232 0 0 0 23.804688 1.3046875 z " />
  <circle
     cx="23.803772"
     cy="24"
     fill="#fbfbfb"
     fill-opacity=".432624"
     r=".3"
     id="circle4" />
  <g
     fill="#ffffff"
     id="g10">
    <path
       d="m15.458984 11.617188c-.804796 0-1.453125.648329-1.453125 1.453125v2.09375c0 .804796.648329 1.453125 1.453125 1.453125h17.09375c.804796 0 1.453125-.648329 1.453125-1.453125v-2.09375c0-.804796-.648329-1.453125-1.453125-1.453125zm1.041016 2.382812a1 1 0 0 1 1 1 1 1 0 0 1 -1 1 1 1 0 0 1 -1-1 1 1 0 0 1 1-1zm-1.041016 4.617188c-.804796 0-1.453125.648329-1.453125 1.453125v2.09375c0 .804796.648329 1.453125 1.453125 1.453125h17.09375c.804796 0 1.453125-.648329 1.453125-1.453125v-2.09375c0-.804796-.648329-1.453125-1.453125-1.453125zm1.041016 2.382812a1 1 0 0 1 1 1 1 1 0 0 1 -1 1 1 1 0 0 1 -1-1 1 1 0 0 1 1-1zm-1.041016 4.617188c-.804796 0-1.453125.648329-1.453125 1.453125v2.09375c0 .804796.648329 1.453125 1.453125 1.453125h17.09375c.804796 0 1.453125-.648329 1.453125-1.453125v-2.09375c0-.804796-.648329-1.453125-1.453125-1.453125zm1.041016 2.382812a1 1 0 0 1 1 1 1 1 0 0 1 -1 1 1 1 0 0 1 -1-1 1 1 0 0 1 1-1z"
       id="path6" />
    <path
       d="m22.755859 31.617188v2h-2.75v1.5h-6v1h6v.5h8v-.5h6v-1h-6v-1.5h-2.75v-2z"
       id="path8" />
  </g>
</svg>
