<?xml version="1.0" encoding="UTF-8" standalone="no"?>
<svg
   xmlns:dc="http://purl.org/dc/elements/1.1/"
   xmlns:cc="http://creativecommons.org/ns#"
   xmlns:rdf="http://www.w3.org/1999/02/22-rdf-syntax-ns#"
   xmlns:svg="http://www.w3.org/2000/svg"
   xmlns="http://www.w3.org/2000/svg"
   xmlns:sodipodi="http://sodipodi.sourceforge.net/DTD/sodipodi-0.dtd"
   xmlns:inkscape="http://www.inkscape.org/namespaces/inkscape"
   height="48"
   width="48"
   version="1.1"
   id="svg6"
   sodipodi:docname="text-x-python3.svg"
   inkscape:version="1.0.2 (e86c870879, 2021-01-15)">
  <metadata
     id="metadata12">
    <rdf:RDF>
      <cc:Work
         rdf:about="">
        <dc:format>image/svg+xml</dc:format>
        <dc:type
           rdf:resource="http://purl.org/dc/dcmitype/StillImage" />
        <dc:title></dc:title>
      </cc:Work>
    </rdf:RDF>
  </metadata>
  <defs
     id="defs10" />
  <sodipodi:namedview
     pagecolor="#ffffff"
     bordercolor="#666666"
     borderopacity="1"
     objecttolerance="10"
     gridtolerance="10"
     guidetolerance="10"
     inkscape:pageopacity="0"
     inkscape:pageshadow="2"
     inkscape:window-width="1920"
     inkscape:window-height="1031"
     id="namedview8"
     showgrid="false"
     inkscape:zoom="9.458333"
     inkscape:cx="19.988208"
     inkscape:cy="27.738873"
     inkscape:window-x="0"
     inkscape:window-y="24"
     inkscape:window-maximized="1"
     inkscape:current-layer="svg6"
     inkscape:document-rotation="0" />
  <circle
     cx="23.940615"
     cy="31.534513"
     fill="#5e81ac"
     opacity=".99"
     id="circle2"
     style="fill:#6599c8;fill-opacity:0.99607831"
     transform="matrix(1.75830584759 0 0 1.75830608345 -18.15909274367 -30.97874795549)"
     r="13.232998" />
  <path
     id="path979-1"
     d="m 23.005455,7.8956432 c -1.171895,0.0049 -2.292336,0.107259 -3.279194,0.278061 -2.904827,0.510036 -3.435802,1.5710166 -3.435802,3.5316828 v 2.58884 h 6.868408 v 0.862945 h -9.44446 c -1.997439,0 -3.7423539,1.186176 -4.2891599,3.442194 -0.629833,2.585759 -0.663044,4.201101 0,6.89717 0.486314,2.010491 1.6504919,3.442194 3.6467449,3.442194 h 2.019932 v -3.4358 c 0,-2.238223 1.961614,-4.202863 4.292355,-4.202863 h 7.188017 c 1.908479,0 3.717058,-1.557537 3.717058,-3.451785 v -6.130107 c 0,-1.8396892 -1.850093,-3.2256638 -3.717058,-3.5316888 -1.176638,-0.194524 -2.399329,-0.282802 -3.570038,-0.278056 l 0.0032,-0.01276 z m -3.627568,2.6623498 c 0.698966,0 1.265653,0.563489 1.265653,1.262457 0,0.698962 -0.566687,1.265655 -1.265653,1.265655 -0.698966,0 -1.265654,-0.566693 -1.265654,-1.265655 0,-0.698968 0.566688,-1.262457 1.265654,-1.262457 z m 11.889473,4.595982 v 3.017113 c 0,2.335484 -2.004678,4.027077 -4.289159,4.027077 h -7.536392 c -1.876455,0 -3.432606,1.871183 -3.432606,3.729846 v 6.468898 c 0,1.839682 1.615458,2.91756 3.432606,3.445385 2.172986,0.629834 4.540084,0.750823 7.140075,0 1.728189,-0.495802 3.435802,-1.490651 3.435802,-3.445385 v -2.592037 h -6.858819 v -0.862945 h 10.297817 c 1.992695,0 2.737535,-1.380705 3.432606,-3.442194 0.717608,-2.126727 0.680838,-4.173824 0,-6.89717 -0.495802,-1.968974 -1.435166,-3.442194 -3.432606,-3.442194 z m -4.295552,16.664439 c 0.698966,0 1.265653,0.566686 1.265653,1.265654 0,0.698962 -0.566687,1.265654 -1.265653,1.265654 -0.698966,0 -1.265653,-0.566692 -1.265653,-1.265654 0,-0.698968 0.566687,-1.265654 1.265653,-1.265654 z"
     inkscape:connector-curvature="0"
     style="fill:#ffffff" />
  <path
     id="circle937"
     style="opacity:0.99;fill:#5588b3;fill-opacity:0.98823529"
     transform="matrix(1.7583058,0,0,1.7583061,-18.159093,-30.978748)"
     d="m 37.173613,31.534513 c 0,1.827096 -0.370288,3.567706 -1.039915,5.15088 -0.669626,1.583174 -1.63859,3.008912 -2.83594,4.206263 -2.394702,2.394701 -5.702952,3.875855 -9.357143,3.875855 -1.827096,0 -3.567706,-0.370288 -5.15088,-1.039915 -1.583174,-0.669626 -3.008913,-1.638589 -4.206263,-2.83594 -1.19735,-1.197351 -2.166314,-2.623089 -2.83594,-4.206263 z"
     sodipodi:nodetypes="cssssscc" />
</svg>
