<?xml version="1.0" encoding="UTF-8" standalone="no"?>
<svg
   height="48"
   width="48"
   version="1.1"
   id="svg10"
   sodipodi:docname="xfce-sensors.svg"
   inkscape:version="1.1.2 (0a00cf5339, 2022-02-04)"
   xmlns:inkscape="http://www.inkscape.org/namespaces/inkscape"
   xmlns:sodipodi="http://sodipodi.sourceforge.net/DTD/sodipodi-0.dtd"
   xmlns="http://www.w3.org/2000/svg"
   xmlns:svg="http://www.w3.org/2000/svg">
  <defs
     id="defs14" />
  <sodipodi:namedview
     id="namedview12"
     pagecolor="#ffffff"
     bordercolor="#666666"
     borderopacity="1.0"
     inkscape:pageshadow="2"
     inkscape:pageopacity="0.0"
     inkscape:pagecheckerboard="0"
     showgrid="false"
     inkscape:zoom="4.09375"
     inkscape:cx="36.763359"
     inkscape:cy="69.740458"
     inkscape:window-width="1920"
     inkscape:window-height="1031"
     inkscape:window-x="0"
     inkscape:window-y="0"
     inkscape:window-maximized="1"
     inkscape:current-layer="svg10" />
  <path
     id="path2"
     style="stroke-width:1.15035;fill:#a3be8c;fill-opacity:1"
     d="M 23.804688 1.3046875 A 22.696228 22.696232 0 0 0 1.1074219 24 A 22.696228 22.696232 0 0 0 23.804688 46.695312 A 22.696228 22.696232 0 0 0 46.5 24 A 22.696228 22.696232 0 0 0 23.804688 1.3046875 z " />
  <g
     transform="translate(-.946229 -.986327)"
     id="g8">
    <path
       d="m22.5 23.486328v3.511719c-1.830484.868274-2.998018 2.712308-3 4.738281 0 2.899495 2.350505 5.25 5.25 5.25s5.25-2.350505 5.25-5.25c-.0027-2.025267-1.170152-3.868357-3-4.736328v-3.513672z"
       fill="#ffffff"
       fill-opacity=".368613"
       id="path4" />
    <path
       d="m24 12.986328c-.831 0-1.5.669-1.5 1.5v12.511719a5.25 5.25 0 0 0 -3 4.738281 5.25 5.25 0 0 0 5.25 5.25 5.25 5.25 0 0 0 5.25-5.25 5.25 5.25 0 0 0 -3-4.736328v-12.513672c0-.831-.669-1.5-1.5-1.5z"
       fill="none"
       stroke="#ffffff"
       stroke-linecap="round"
       stroke-linejoin="round"
       stroke-width="2"
       id="path6" />
  </g>
</svg>
