<?xml version="1.0" encoding="UTF-8" standalone="no"?>
<svg
   xmlns:dc="http://purl.org/dc/elements/1.1/"
   xmlns:cc="http://creativecommons.org/ns#"
   xmlns:rdf="http://www.w3.org/1999/02/22-rdf-syntax-ns#"
   xmlns:svg="http://www.w3.org/2000/svg"
   xmlns="http://www.w3.org/2000/svg"
   xmlns:sodipodi="http://sodipodi.sourceforge.net/DTD/sodipodi-0.dtd"
   xmlns:inkscape="http://www.inkscape.org/namespaces/inkscape"
   height="48"
   width="48"
   version="1.1"
   id="svg8"
   sodipodi:docname="tribler.svg"
   inkscape:version="1.0.2 (e86c870879, 2021-01-15)">
  <metadata
     id="metadata14">
    <rdf:RDF>
      <cc:Work
         rdf:about="">
        <dc:format>image/svg+xml</dc:format>
        <dc:type
           rdf:resource="http://purl.org/dc/dcmitype/StillImage" />
        <dc:title></dc:title>
      </cc:Work>
    </rdf:RDF>
  </metadata>
  <defs
     id="defs12" />
  <sodipodi:namedview
     pagecolor="#ffffff"
     bordercolor="#666666"
     borderopacity="1"
     objecttolerance="10"
     gridtolerance="10"
     guidetolerance="10"
     inkscape:pageopacity="0"
     inkscape:pageshadow="2"
     inkscape:window-width="1920"
     inkscape:window-height="1031"
     id="namedview10"
     showgrid="false"
     inkscape:zoom="4.7291668"
     inkscape:cx="-5.6776548"
     inkscape:cy="21.926345"
     inkscape:window-x="0"
     inkscape:window-y="24"
     inkscape:window-maximized="1"
     inkscape:current-layer="svg8"
     inkscape:document-rotation="0" />
  <path
     d="m44.322082 27.405077a19.729762 19.729765 0 0 1 -19.729762 19.729765 19.729762 19.729765 0 0 1 -19.7297621-19.729765 19.729762 19.729765 0 0 1 19.7297621-19.7297632 19.729762 19.729765 0 0 1 19.729762 19.7297632z"
     fill="#89a02c"
     opacity=".99"
     transform="matrix(1.1503549 0 0 1.1503549 -4.486125 -7.525565)"
     id="path2"
     style="fill:#ad977e;fill-opacity:1" />
  <path
     d="M 44.508129,24 A 20.704357,20.704361 0 0 1 23.803772,44.70436 20.704357,20.704361 0 0 1 3.099413,24 20.704357,20.704361 0 0 1 23.803772,3.2956408 20.704357,20.704361 0 0 1 44.508129,24 Z"
     fill="#89a02c"
     opacity="0.99"
     id="path880"
     style="fill:#ffffff;fill-opacity:0.24299738;stroke-width:1.0494" />
  <path
     id="path1001-2"
     style="fill:#ffffff;fill-opacity:1;stroke-width:0.0610451"
     d="M 23.804688 3.2949219 A 20.704357 20.704361 0 0 0 12.632812 6.5683594 L 12.585938 21.074219 C 12.585938 31.098919 12.606384 36.533147 12.646484 36.748047 C 12.839504 37.782347 13.744732 38.744491 14.789062 39.025391 L 14.789062 39.033203 C 15.279368 39.156303 32.168364 39.164603 32.662109 39.033203 C 33.757771 38.741703 34.605526 37.854413 34.837891 36.757812 C 34.912551 36.405213 34.926812 34.097409 34.927734 21.037109 L 34.974609 6.5683594 A 20.704357 20.704361 0 0 0 23.804688 3.2949219 z M 22.464844 9.2265625 C 22.621633 9.2388346 22.778127 9.2646875 22.931641 9.3046875 C 23.413721 9.4302875 23.631315 9.5701095 24.25 10.162109 C 24.909743 10.794209 25.059818 10.848688 25.849609 10.742188 C 26.723003 10.623787 27.318508 10.814772 27.855469 11.388672 C 28.357846 11.925872 28.538494 12.798713 28.296875 13.507812 C 28.163671 13.898812 27.628722 14.470441 27.197266 14.681641 L 27.197266 14.679688 C 26.950784 14.799688 26.74499 14.848234 26.423828 14.865234 C 25.900039 14.890034 25.619842 14.808438 25.035156 14.460938 C 24.441774 14.108337 24.341362 14.102694 23.513672 14.371094 C 22.403358 14.731594 21.734012 14.720325 20.949219 14.328125 C 19.885107 13.796425 19.318522 12.592619 19.564453 11.386719 C 19.618036 11.123919 19.719636 10.788625 19.791016 10.640625 C 20.240465 9.7121626 21.367317 9.140658 22.464844 9.2265625 z M 24.083984 16.183594 L 27.4375 16.199219 L 27.5625 16.369141 C 27.678142 16.524141 27.691592 16.657478 27.732422 18.017578 C 27.815451 20.782978 28.130081 22.238544 29.003906 23.902344 C 29.206641 24.288344 29.373047 24.628203 29.373047 24.658203 C 29.373047 24.900503 28.34608 25.6392 27.335938 26.125 C 26.570984 26.4927 26.435113 26.501713 26.232422 26.195312 C 25.785575 25.520012 25.237732 23.958784 24.921875 22.458984 C 24.668994 21.258284 24.60294 21.052734 24.466797 21.052734 C 24.296114 21.052734 24.179278 21.303853 23.943359 22.189453 C 23.512509 23.806653 23.085138 24.853447 22.386719 25.998047 C 21.65515 27.196947 20.509868 28.543378 19.712891 29.142578 L 19.712891 29.140625 C 19.512555 29.291225 19.309706 29.414062 19.259766 29.414062 C 19.12751 29.414062 18.426474 28.720984 18.041016 28.208984 C 17.697538 27.752784 17.347656 27.144953 17.347656 27.001953 C 17.347656 26.957153 17.636965 26.486078 17.992188 25.955078 C 19.162299 24.205678 19.752062 22.993513 20.095703 21.632812 C 20.347268 20.636812 20.398997 20.147741 20.404297 18.681641 C 20.410761 16.918941 20.45774 16.365306 20.611328 16.253906 C 20.709994 16.183906 21.274974 16.166594 24.083984 16.183594 z M 20.216797 31.673828 L 20.705078 31.673828 L 21.193359 31.673828 L 21.193359 32.072266 L 21.193359 32.46875 L 20.705078 32.46875 L 20.216797 32.46875 L 20.216797 32.072266 L 20.216797 31.673828 z M 21.681641 31.673828 L 22.169922 31.673828 L 22.658203 31.673828 L 22.658203 32.40625 L 22.658203 33.136719 L 22.945312 32.955078 C 23.180136 32.806378 23.295849 32.773438 23.591797 32.773438 C 24.389326 32.773438 24.859516 33.350419 24.853516 34.324219 C 24.849112 35.036519 24.579907 35.551531 24.099609 35.769531 C 23.664171 35.967231 23.135188 35.886159 22.796875 35.568359 L 22.658203 35.4375 L 22.658203 35.632812 L 22.658203 35.826172 L 22.169922 35.826172 L 21.681641 35.826172 L 21.681641 33.75 L 21.681641 31.673828 z M 25.283203 31.673828 L 25.771484 31.673828 L 26.259766 31.673828 L 26.259766 33.75 L 26.259766 35.824219 L 25.8125 35.824219 C 25.566284 35.824219 25.346599 35.807156 25.324219 35.785156 C 25.301829 35.762756 25.283203 34.828084 25.283203 33.708984 L 25.283203 31.673828 z M 15.216797 31.980469 L 15.701172 31.980469 L 16.1875 31.980469 L 16.1875 32.408203 L 16.1875 32.833984 L 16.675781 32.833984 L 17.164062 32.833984 L 17.164062 33.169922 L 17.164062 33.505859 L 16.675781 33.505859 L 16.1875 33.505859 L 16.1875 34.236328 C 16.1875 35.076228 16.197465 35.09375 16.732422 35.09375 L 17.041016 35.09375 L 17.041016 35.458984 L 17.042969 35.816406 L 16.599609 35.816406 C 16.052622 35.806606 15.70864 35.751031 15.541016 35.644531 C 15.280228 35.478031 15.242657 35.339622 15.210938 34.419922 L 15.179688 33.535156 L 14.951172 33.517578 L 14.722656 33.498047 L 14.722656 33.169922 L 14.722656 32.841797 L 14.951172 32.824219 L 15.179688 32.804688 L 15.197266 32.392578 L 15.216797 31.980469 z M 19.478516 32.773438 L 19.789062 32.773438 L 19.789062 33.195312 L 19.789062 33.617188 L 19.423828 33.583984 C 19.14697 33.559984 19.024039 33.573391 18.908203 33.650391 C 18.641242 33.825291 18.600579 33.976156 18.568359 34.910156 L 18.537109 35.794922 L 18.064453 35.814453 C 17.716082 35.826453 17.581214 35.81 17.558594 35.75 C 17.541594 35.7059 17.535922 35.038978 17.544922 34.267578 L 17.560547 32.865234 L 18.064453 32.847656 L 18.568359 32.828125 L 18.568359 33.027344 C 18.568359 33.220744 18.571803 33.222609 18.658203 33.099609 C 18.79297 32.907509 19.13034 32.773438 19.478516 32.773438 z M 32.330078 32.775391 L 32.669922 32.775391 L 32.669922 33.203125 L 32.669922 33.630859 L 32.335938 33.589844 C 32.119028 33.562844 31.936525 33.578906 31.814453 33.628906 C 31.49588 33.760906 31.426327 33.978978 31.398438 34.955078 L 31.373047 35.826172 L 30.933594 35.826172 C 30.691115 35.826172 30.473562 35.809109 30.451172 35.787109 C 30.428782 35.764609 30.410156 35.091116 30.410156 34.291016 L 30.410156 32.835938 L 30.898438 32.835938 L 31.386719 32.835938 L 31.386719 33.029297 L 31.386719 33.224609 L 31.554688 33.068359 C 31.809181 32.830859 31.958534 32.775391 32.330078 32.775391 z M 28.521484 32.783203 C 28.910994 32.801003 29.034187 32.835534 29.285156 32.990234 C 29.670569 33.228534 29.909137 33.674484 29.935547 34.208984 L 29.953125 34.576172 L 28.869141 34.591797 C 27.717499 34.609597 27.685896 34.620038 27.880859 34.898438 C 28.134141 35.259137 28.718144 35.301166 29.439453 35.009766 L 29.800781 34.863281 L 29.800781 35.246094 C 29.800781 35.682494 29.823336 35.660728 29.169922 35.798828 L 29.169922 35.800781 C 28.098739 36.026281 27.320495 35.776891 26.933594 35.087891 C 26.808256 34.864691 26.780497 34.736831 26.779297 34.332031 C 26.777551 33.731131 26.942268 33.343819 27.314453 33.074219 C 27.64375 32.836019 27.964587 32.758203 28.521484 32.783203 z M 20.216797 32.833984 L 20.705078 32.833984 L 21.193359 32.833984 L 21.193359 34.330078 L 21.193359 35.824219 L 20.746094 35.824219 C 20.499879 35.824219 20.280203 35.807156 20.257812 35.785156 C 20.235422 35.762756 20.216797 35.089163 20.216797 34.289062 L 20.216797 32.833984 z M 28.365234 33.445312 C 28.147042 33.445312 28.074711 33.476512 27.943359 33.632812 C 27.856423 33.736112 27.785156 33.860156 27.785156 33.910156 C 27.785156 33.982156 27.889056 33.999422 28.351562 33.982422 C 28.913262 33.965222 28.916021 33.961947 28.900391 33.810547 C 28.877124 33.585547 28.670657 33.445312 28.365234 33.445312 z M 23.267578 33.501953 C 23.120827 33.502053 22.97539 33.550038 22.876953 33.648438 C 22.587539 33.937738 22.60203 34.680122 22.904297 34.982422 L 22.904297 34.986328 C 23.116143 35.197628 23.382074 35.208678 23.603516 35.017578 C 23.914087 34.749878 23.94827 33.936437 23.660156 33.648438 C 23.562126 33.549638 23.414329 33.501853 23.267578 33.501953 z " />
</svg>
