<?xml version="1.0" encoding="UTF-8" standalone="no"?>
<svg
   xmlns:dc="http://purl.org/dc/elements/1.1/"
   xmlns:cc="http://creativecommons.org/ns#"
   xmlns:rdf="http://www.w3.org/1999/02/22-rdf-syntax-ns#"
   xmlns:svg="http://www.w3.org/2000/svg"
   xmlns="http://www.w3.org/2000/svg"
   xmlns:sodipodi="http://sodipodi.sourceforge.net/DTD/sodipodi-0.dtd"
   xmlns:inkscape="http://www.inkscape.org/namespaces/inkscape"
   height="48"
   width="48"
   version="1.1"
   id="svg6"
   sodipodi:docname="tromdiagrams.svg"
   inkscape:version="1.0.2 (e86c870879, 2021-01-15)">
  <metadata
     id="metadata12">
    <rdf:RDF>
      <cc:Work
         rdf:about="">
        <dc:format>image/svg+xml</dc:format>
        <dc:type
           rdf:resource="http://purl.org/dc/dcmitype/StillImage" />
        <dc:title></dc:title>
      </cc:Work>
    </rdf:RDF>
  </metadata>
  <defs
     id="defs10" />
  <sodipodi:namedview
     pagecolor="#ffffff"
     bordercolor="#666666"
     borderopacity="1"
     objecttolerance="10"
     gridtolerance="10"
     guidetolerance="10"
     inkscape:pageopacity="0"
     inkscape:pageshadow="2"
     inkscape:window-width="1920"
     inkscape:window-height="1024"
     id="namedview8"
     showgrid="false"
     inkscape:zoom="2.3645833"
     inkscape:cx="-42.193897"
     inkscape:cy="30.995142"
     inkscape:window-x="0"
     inkscape:window-y="24"
     inkscape:window-maximized="1"
     inkscape:current-layer="svg6"
     inkscape:document-rotation="0" />
  <circle
     cx="23.940615"
     cy="31.534513"
     fill="#5e81ac"
     opacity=".99"
     id="circle2"
     style="fill:#a9b7c0;fill-opacity:1"
     transform="matrix(1.75830584759 0 0 1.75830608345 -18.15909274367 -30.97874795549)"
     r="13.232998" />
  <ellipse
     cx="23.935829"
     cy="24.468578"
     fill="#5e81ac"
     opacity="0.99"
     id="circle856"
     style="fill:#ffffff;fill-opacity:1;stroke-width:1.54048"
     rx="20.385096"
     ry="20.385099" />
  <g
     id="g865"
     transform="matrix(1.0684902,0,0,1.0684902,1.2614914,-3.4756744)"
     style="fill:#c87d6e;fill-opacity:1">
    <path
       style="fill:#c87d6e;fill-rule:evenodd;stroke:none;stroke-width:1.76064;stroke-linecap:square;paint-order:stroke markers fill;fill-opacity:1"
       d="m 18.216584,22.864381 c -0.426714,-0.426715 -0.426714,-5.692733 0,-6.119447 0.42671,-0.42671 5.692724,-0.42671 6.119438,0 0.499026,0.499029 0.418934,5.507889 -0.09631,6.023133 -0.515248,0.515243 -5.524107,0.595334 -6.023128,0.09631 z"
       id="path3133" />
    <path
       style="fill:#c87d6e;fill-rule:evenodd;stroke:none;stroke-width:1.76064;stroke-linecap:square;paint-order:stroke markers fill;fill-opacity:1"
       d="M 28.439032,25.89561 C 28.028794,25.110504 27.32868,24.148137 26.88323,23.757015 26.084351,23.055577 26.07434,23.016738 26.148627,20.906677 l 0.07532,-2.139211 h 1.871875 c 1.581082,0 1.921393,-0.0793 2.19065,-0.510437 0.175334,-0.280747 0.689077,-0.701931 1.141663,-0.93598 1.147505,-0.593392 2.641826,-0.143379 3.34311,1.006767 1.225178,2.009338 -0.03418,4.069827 -2.487502,4.069827 -0.716802,0 -1.122116,-0.188491 -1.672695,-0.777895 -0.667707,-0.714776 -0.867774,-0.777899 -2.465762,-0.777899 h -1.7391 l 1.352087,1.215651 c 1.479351,1.330054 2.443518,2.702186 2.992875,4.259241 l 0.355481,1.007567 -0.960862,-4.24e-4 c -0.901401,-4.3e-4 -1.00703,-0.08896 -1.706732,-1.428088 z"
       id="path3172" />
    <path
       style="fill:#c87d6e;fill-rule:evenodd;stroke:none;stroke-width:1.76064;stroke-linecap:square;paint-order:stroke markers fill;fill-opacity:1"
       d="m 27.249289,35.3796 c -0.348539,-0.651242 -0.348539,-5.087405 0,-5.738652 0.239851,-0.448182 0.565427,-0.501553 3.059719,-0.501553 1.825274,0 2.898975,0.107686 3.102456,0.311162 0.426715,0.42671 0.426715,5.692724 0,6.119439 -0.203481,0.20347 -1.277182,0.311156 -3.102456,0.311156 -2.494292,0 -2.819868,-0.05337 -3.059719,-0.501552 z"
       id="path3211" />
    <path
       style="fill:#c87d6e;fill-rule:evenodd;stroke:none;stroke-width:1.76064;stroke-linecap:square;paint-order:stroke markers fill;fill-opacity:1"
       d="m 8.0321381,21.639692 c -1.3719141,-1.371923 -1.008092,-3.485539 0.7430353,-4.316501 1.1390083,-0.540494 2.6354596,-0.175741 3.2733906,0.797862 0.384475,0.58678 0.590442,0.646413 2.232658,0.646413 h 1.809114 v 1.037196 1.037187 h -1.716037 c -1.536944,0 -1.80849,0.08118 -2.602,0.777899 -1.226448,1.076835 -2.6755426,1.084562 -3.7401609,0.01994 z"
       id="path3250" />
    <path
       style="fill:#c87d6e;fill-rule:evenodd;stroke:none;stroke-width:1.76064;stroke-linecap:square;paint-order:stroke markers fill;fill-opacity:1"
       d="m 8.8391051,35.3796 c -0.3485395,-0.651242 -0.3485395,-5.087405 0,-5.738652 0.2398645,-0.448182 0.5654265,-0.501553 3.0597189,-0.501553 1.825286,0 2.898989,0.107686 3.102455,0.311162 0.426715,0.42671 0.426715,5.692724 0,6.119439 -0.203466,0.20347 -1.277169,0.311156 -3.102455,0.311156 -2.4942924,0 -2.8198544,-0.05337 -3.0597189,-0.501552 z"
       id="path3289" />
    <path
       style="fill:#c87d6e;fill-rule:evenodd;stroke:none;stroke-width:1.76064;stroke-linecap:square;paint-order:stroke markers fill;fill-opacity:1"
       d="m 11.425495,27.000184 c 0.0067,-0.854075 1.423729,-3.210339 2.695562,-4.482177 0.77927,-0.779274 1.528386,-1.416857 1.6647,-1.416857 0.136321,0 0.301975,0.437562 0.36815,0.972368 0.106474,0.860542 -0.0057,1.108571 -0.974919,2.156673 -0.602366,0.651373 -1.250601,1.614012 -1.440518,2.139211 -0.315384,0.872183 -0.430638,0.954906 -1.330397,0.954906 -0.616573,0 -0.984157,-0.121253 -0.982578,-0.324124 z"
       id="path3765" />
  </g>
</svg>
