<?xml version="1.0" encoding="UTF-8" standalone="no"?>
<svg
   xmlns:dc="http://purl.org/dc/elements/1.1/"
   xmlns:cc="http://creativecommons.org/ns#"
   xmlns:rdf="http://www.w3.org/1999/02/22-rdf-syntax-ns#"
   xmlns:svg="http://www.w3.org/2000/svg"
   xmlns="http://www.w3.org/2000/svg"
   xmlns:sodipodi="http://sodipodi.sourceforge.net/DTD/sodipodi-0.dtd"
   xmlns:inkscape="http://www.inkscape.org/namespaces/inkscape"
   height="48"
   width="48"
   version="1.1"
   id="svg8"
   sodipodi:docname="tromspeed.svg"
   inkscape:version="1.0.2 (e86c870879, 2021-01-15)">
  <metadata
     id="metadata14">
    <rdf:RDF>
      <cc:Work
         rdf:about="">
        <dc:format>image/svg+xml</dc:format>
        <dc:type
           rdf:resource="http://purl.org/dc/dcmitype/StillImage" />
        <dc:title></dc:title>
      </cc:Work>
    </rdf:RDF>
  </metadata>
  <defs
     id="defs12" />
  <sodipodi:namedview
     pagecolor="#ffffff"
     bordercolor="#666666"
     borderopacity="1"
     objecttolerance="10"
     gridtolerance="10"
     guidetolerance="10"
     inkscape:pageopacity="0"
     inkscape:pageshadow="2"
     inkscape:window-width="1920"
     inkscape:window-height="1024"
     id="namedview10"
     showgrid="false"
     inkscape:zoom="1.6720129"
     inkscape:cx="-126.20313"
     inkscape:cy="73.707059"
     inkscape:window-x="0"
     inkscape:window-y="24"
     inkscape:window-maximized="1"
     inkscape:current-layer="svg8"
     inkscape:document-rotation="0" />
  <path
     id="path935"
     style="fill:#e39b74;fill-opacity:1;stroke-width:1.15035"
     d="M 23.804688,1.3046875 C 11.269861,1.3041142 1.1079297,11.465171 1.1074219,24 1.10793,36.534829 11.269861,46.695885 23.804688,46.695312 36.338752,46.694806 46.499492,36.534066 46.5,24 46.499492,11.465934 36.338752,1.3051934 23.804688,1.3046875 Z"
     sodipodi:nodetypes="ccccc" />
  <path
     id="path937"
     style="fill:#ecbba0;fill-opacity:1;stroke-width:1.01627"
     d="M 23.804573,3.9499043 C 12.730724,3.9493978 3.7532011,12.926148 3.7527525,24 3.7532014,35.073851 12.730724,44.050601 23.804573,44.050095 34.877749,44.049648 43.85422,35.073177 43.854669,24 43.85422,12.926822 34.877749,3.9503512 23.804573,3.9499043 Z"
     sodipodi:nodetypes="ccccc" />
  <g
     transform="matrix(0.1192282,0,0,0.1192282,-23.217205,-16.215934)"
     id="g3319"
     style="display:inline;fill:#ffffff;fill-opacity:1">
    <path
       style="fill:#ffffff;fill-opacity:1;stroke-width:1.75408"
       id="path680"
       d="m 275.36338,342.4699 c 2.80652,65.60246 58.41075,116.64608 124.18861,113.66415 65.60246,-2.80652 116.64609,-58.41074 113.66416,-124.18861 C 510.40963,266.34298 454.8054,215.29935 389.02754,218.28128 323.42507,221.26321 272.55686,276.86744 275.36338,342.4699 Z m 262.40984,-11.4015 c 3.50815,79.10885 -57.88452,146.28998 -137.16878,149.62272 -79.28426,3.50816 -146.28998,-57.88452 -149.62272,-137.16878 -3.50816,-79.10885 57.88452,-146.28998 137.16878,-149.62272 79.10885,-3.33275 146.11457,58.05993 149.62272,137.16878 z"
       class="st6" />
    <path
       style="fill:#ffffff;fill-opacity:1;stroke-width:1.75408"
       id="path684"
       d="m 497.07865,349.66161 -15.9621,-2.10489 c 1.05245,-7.54253 1.05245,-15.26047 0,-22.803 l 15.9621,-2.10489 c 1.05244,8.94579 1.05244,18.06699 0,27.01278 z"
       class="st7" />
    <path
       style="fill:#ffffff;fill-opacity:1;stroke-width:1.75408"
       id="path686"
       d="m 486.20337,288.26893 c 4.20979,8.06876 7.36712,16.66373 9.29661,25.43411 l -15.78669,3.50816 c -1.57867,-7.36713 -4.20978,-14.55884 -7.71794,-21.39974 z"
       class="st14" />
    <path
       style="fill:#ffffff;fill-opacity:1;stroke-width:1.75408"
       id="path688"
       d="m 486.20337,384.04151 -14.38343,-7.36712 c 3.50816,-6.8409 6.13927,-14.03261 7.89335,-21.39973 l 15.78669,3.50815 c -1.92949,8.59497 -5.08682,17.18995 -9.29661,25.2587 z"
       class="st8" />
    <path
       style="fill:#ffffff;fill-opacity:1;stroke-width:1.75408"
       id="path690"
       d="m 481.64277,280.551 -13.50639,8.59497 c -4.03437,-6.31467 -8.94579,-12.27853 -14.73424,-17.54076 l 10.87528,-11.92772 c 6.84089,6.31467 12.62935,13.33098 17.36535,20.87351 z"
       class="st9" />
    <path
       style="fill:#ffffff;fill-opacity:1;stroke-width:1.75408"
       id="path692"
       d="m 457.43652,253.88903 -9.82283,12.80476 c -6.13927,-4.736 -12.80476,-8.59497 -19.82106,-11.40149 l 6.13926,-14.90965 c 8.24416,3.50815 16.13751,7.89334 23.50463,13.50638 z"
       class="st3" />
    <rect
       style="fill:#ffffff;fill-opacity:1;stroke-width:1.75408"
       id="rect694"
       height="12.103127"
       width="12.103127"
       class="st6"
       y="400.0036"
       x="424.63522" />
    <rect
       style="fill:#ffffff;fill-opacity:1;stroke-width:1.75408"
       id="rect696"
       height="12.103127"
       width="12.103127"
       class="st6"
       y="400.0036"
       x="400.42902" />
    <path
       style="fill:#ffffff;fill-opacity:1;stroke-width:1.75408"
       id="path698"
       d="m 398.85036,232.66471 c 8.94579,0.35081 18.06699,1.92948 26.66197,4.73601 l -4.91142,15.43587 c -6.8409,-2.10489 -14.03261,-3.50815 -21.22432,-3.85897 l -1.05245,-6.8409 z"
       class="st6" />
    <path
       style="fill:#ffffff;fill-opacity:1;stroke-width:1.75408"
       id="path700"
       d="m 394.28976,331.24381 c 3.68357,0 6.8409,2.98193 6.8409,6.8409 0,3.68356 -2.98193,6.84089 -6.8409,6.84089 -3.68356,0 -6.84089,-2.98193 -6.84089,-6.84089 0.1754,-3.85897 3.15733,-6.8409 6.84089,-6.8409 z"
       class="st1" />
    <path
       style="fill:#ffffff;fill-opacity:1;stroke-width:1.75408"
       id="path709"
       d="m 409.55023,336.68144 c 0,12.10313 -6.8409,21.92596 -15.26047,21.92596 -8.41956,0 -15.26046,-9.82283 -15.26046,-21.92596 l 1.22785,-8.94579 13.85721,-94.54472 13.8572,94.54472 z m -8.41957,1.22786 c 0,-3.68356 -2.98193,-6.8409 -6.8409,-6.8409 -3.68356,0 -6.84089,2.98193 -6.84089,6.8409 0,3.68356 2.98193,6.8409 6.84089,6.8409 3.85897,0 6.8409,-2.98193 6.8409,-6.8409 z"
       class="st17" />
    <path
       style="fill:#ffffff;fill-opacity:1;stroke-width:1.75408"
       id="path711"
       d="m 363.0672,237.22531 c 8.59498,-2.63112 17.54077,-4.20979 26.66197,-4.73601 l 0.35081,9.64742 -0.87704,6.49009 c -7.19171,0.35081 -14.38342,1.75407 -21.22432,3.85896 z"
       class="st6" />
    <rect
       style="fill:#ffffff;fill-opacity:1;stroke-width:1.75408"
       id="rect713"
       height="12.103127"
       width="12.103127"
       class="st6"
       y="400.0036"
       x="376.04736" />
    <rect
       style="fill:#ffffff;fill-opacity:1;stroke-width:1.75408"
       id="rect715"
       height="12.103127"
       width="12.103127"
       class="st6"
       y="400.0036"
       x="351.84106" />
    <path
       style="fill:#ffffff;fill-opacity:1;stroke-width:1.75408"
       id="path717"
       d="m 331.14301,253.88903 c 7.36712,-5.61304 15.26047,-10.17364 23.50463,-13.50638 l 6.13926,14.90965 c -7.0163,2.80652 -13.68179,6.66549 -19.82106,11.40149 z"
       class="st6" />
    <path
       style="fill:#ffffff;fill-opacity:1;stroke-width:1.75408"
       id="path719"
       d="m 324.30211,259.85289 10.87528,11.92772 c -1.92949,1.75408 -3.68356,3.50816 -5.43764,5.43764 -3.50815,3.85897 -6.66549,7.89335 -9.29661,12.10313 l -13.68179,-8.59498 c 3.15734,-5.08682 6.8409,-9.82282 11.05068,-14.38342 2.10489,-2.45571 4.20978,-4.5606 6.49008,-6.49009 z"
       class="st6" />
    <path
       style="fill:#ffffff;fill-opacity:1;stroke-width:1.75408"
       id="path721"
       d="m 316.58418,376.67439 -14.38343,7.36712 c -4.20978,-8.06875 -7.36712,-16.66373 -9.29661,-25.43411 l 15.78669,-3.50815 c 1.75408,7.36712 4.38519,14.73424 7.89335,21.57514 z"
       class="st6" />
    <path
       style="fill:#ffffff;fill-opacity:1;stroke-width:1.75408"
       id="path723"
       d="m 307.46298,347.55672 -15.9621,2.10489 c -1.22785,-8.94579 -1.22785,-18.06699 0,-27.01278 l 15.9621,2.10489 c -1.05245,7.54253 -1.05245,15.26047 0,22.803 z"
       class="st6" />
    <path
       style="fill:#ffffff;fill-opacity:1;stroke-width:1.75408"
       id="path725"
       d="m 293.07955,313.70304 c 1.92949,-8.77038 5.08682,-17.36535 9.29661,-25.43411 l 14.38342,7.36713 c -3.50815,6.84089 -6.13926,14.03261 -7.89334,21.39973 z"
       class="st6" />
  </g>
  <path
     id="circle933"
     style="fill:#e39b74;fill-opacity:1;stroke-width:0.540517;stroke-linecap:square"
     d="M 33.066406 22.515625 A 11.538194 11.538194 0 0 0 21.65625 34.052734 A 11.538194 11.538194 0 0 0 31.277344 45.429688 C 37.30672 43.3269 42.178475 38.756418 44.675781 32.923828 A 11.538194 11.538194 0 0 0 33.195312 22.515625 A 11.538194 11.538194 0 0 0 33.066406 22.515625 z " />
  <circle
     style="fill:#ffffff;fill-opacity:1;stroke-width:0.477736;stroke-linecap:square"
     id="circle931"
     cx="33.194695"
     cy="34.053402"
     r="10.198045" />
  <circle
     style="fill:#e39b74;fill-opacity:1;stroke-width:0.414224;stroke-linecap:square"
     id="circle958"
     cx="33.194695"
     cy="34.053402"
     r="8.8422899" />
  <path
     id="path8810"
     style="fill:#ffffff;fill-opacity:1;stroke:none;stroke-width:0.0885317;stroke-linecap:round;stroke-linejoin:round;stroke-miterlimit:4;stroke-dasharray:none;stroke-opacity:0.168478"
     d="M 33.195007,27.856226 A 6.1972104,6.1972104 0 0 0 26.99721,34.0534 6.1972104,6.1972104 0 0 0 33.195007,40.250578 6.1972104,6.1972104 0 0 0 39.39218,34.0534 6.1972104,6.1972104 0 0 0 33.195007,27.856226 Z m -0.03361,0.888689 a 5.2802964,5.2802964 0 0 1 0.0055,0 5.2802964,5.2802964 0 0 1 1.539028,0.22964 5.2802964,5.2802964 0 0 1 3.742078,5.050842 5.2802964,5.2802964 0 0 1 -0.868153,2.900687 5.2802964,5.2802964 0 0 0 0.406382,-0.751154 c -0.383065,0.153803 -0.755964,0.284148 -1.123933,0.401401 a 0.88531582,0.88531582 0 0 1 0.0137,0.0199 0.88531582,0.88531582 0 0 1 0.04668,0.07468 0.88531582,0.88531582 0 0 0 -0.04668,-0.07468 0.88531582,0.88531582 0 0 0 -0.728127,-0.381487 0.88531582,0.88531582 0 0 0 -0.266357,0.04109 C 35.595252,35.805712 35.342031,35.34283 35.134776,34.862431 a 0.88531582,0.88531582 0 0 1 -0.142515,0.09708 0.88531582,0.88531582 0 0 1 -0.08028,0.03923 0.88531582,0.88531582 0 0 1 -0.03734,0.01492 0.88531582,0.88531582 0 0 0 0.03734,-0.01492 0.88531582,0.88531582 0 0 0 0.08028,-0.03923 0.88531582,0.88531582 0 0 0 0.457414,-0.774804 0.88531582,0.88531582 0 0 0 -0.225284,-0.589343 0.88531582,0.88531582 0 0 0 -0.01431,-0.01617 0.88531582,0.88531582 0 0 1 0.01431,0.01617 c 0.586573,-0.887881 1.358077,-1.714916 2.349923,-2.474394 a 5.2802964,5.2802964 0 0 0 -0.375258,-0.49662 c -1.061435,0.814335 -1.899804,1.711471 -2.524174,2.68225 a 0.88531582,0.88531582 0 0 0 -0.05974,-0.0055 0.88531582,0.88531582 0 0 0 -0.03237,-0.0015 0.88531582,0.88531582 0 0 1 0.03237,0.0015 0.88531582,0.88531582 0 0 1 0.0062,0 c -0.0487,-0.223393 -0.0866,-0.449882 -0.11762,-0.680206 a 0.88531582,0.88531582 0 0 0 0.437499,-0.7636 0.88531582,0.88531582 0 0 0 -0.0013,-0.04233 c 0.676558,-0.446624 1.314635,-0.968357 1.913669,-1.56392 a 5.2802964,5.2802964 0 0 0 -0.468586,-0.404531 c -0.53741,0.531064 -1.106633,0.986472 -1.698964,1.389667 a 0.88531582,0.88531582 0 0 0 -0.248287,-0.177376 c 0.02374,-0.666415 0.103421,-1.356451 0.268225,-2.084185 a 5.2802964,5.2802964 0 0 0 -0.60178,-0.141261 c -0.169029,0.751969 -0.261299,1.474469 -0.285027,2.171312 a 0.88531582,0.88531582 0 0 0 -0.648471,0.852598 0.88531582,0.88531582 0 0 0 0.03174,0.233993 c -0.847407,0.37768 -1.757497,0.620547 -2.740747,0.71568 a 0.88531582,0.88531582 0 0 0 -0.375888,-0.410738 c 0.27437,-1.128394 0.771408,-2.266215 1.559563,-3.422821 a 5.2802964,5.2802964 0 0 0 -0.980172,0.406384 c -0.568358,0.975767 -0.9536,1.949602 -1.183053,2.919979 a 0.88531582,0.88531582 0 0 0 -0.642867,0.520892 c -0.262224,-0.01932 -0.519617,-0.02985 -0.790361,-0.06597 a 5.2802964,5.2802964 0 0 0 -0.115754,0.608641 c 0.29919,0.03984 0.586548,0.05487 0.876865,0.07468 a 0.88531582,0.88531582 0 0 0 0.443722,0.520271 c -0.03295,0.640474 -0.01791,1.279083 0.07095,1.91429 -0.472773,-0.289271 -0.926664,-0.631797 -1.369128,-1.010046 a 5.2802964,5.2802964 0 0 0 0.262623,0.99262 c 0.239932,0.174951 0.485529,0.337397 0.733728,0.492262 a 0.88531582,0.88531582 0 0 0 -0.0473,0.284407 0.88531582,0.88531582 0 0 0 0.79036,0.879974 0.88531582,0.88531582 0 0 1 -0.0037,0 c 0.06669,0.220288 0.137862,0.438974 0.214705,0.658431 a 5.2802964,5.2802964 0 0 0 0.873131,0.558849 C 30.585846,38.273973 30.426242,37.819179 30.288074,37.36485 a 0.88531582,0.88531582 0 0 1 -0.03174,0.01932 0.88531582,0.88531582 0 0 1 -0.07779,0.04296 0.88531582,0.88531582 0 0 1 -0.210971,0.07156 0.88531582,0.88531582 0 0 1 -0.04294,0.0081 0.88531582,0.88531582 0 0 0 0.04294,-0.0081 0.88531582,0.88531582 0 0 0 0.210971,-0.07156 0.88531582,0.88531582 0 0 0 0.07779,-0.04296 0.88531582,0.88531582 0 0 0 0.268847,-0.260136 c 0.66184,0.251851 1.352465,0.427563 2.07672,0.515291 a 0.88531582,0.88531582 0 0 0 0.538938,0.481065 c -0.02553,0.389691 -0.03764,0.783533 -0.03112,1.182428 a 5.2802964,5.2802964 0 0 0 0.05725,0.0038 5.2802964,5.2802964 0 0 1 -5.280451,-5.281108 5.2802964,5.2802964 0 0 1 5.27488,-5.280483 z m 0.399538,3.846008 a 0.88531582,0.88531582 0 0 0 0.444343,0.149981 0.88531582,0.88531582 0 0 0 0.03237,0.0015 0.88531582,0.88531582 0 0 1 -0.03237,-0.0015 0.88531582,0.88531582 0 0 1 -0.08961,-0.0087 c 0.03488,0.248257 0.07713,0.493885 0.130067,0.734971 a 0.88531582,0.88531582 0 0 0 -0.366553,0.717551 0.88531582,0.88531582 0 0 0 0.227151,0.592458 c -0.217432,0.522509 -0.386131,1.062056 -0.512179,1.614328 a 0.88531582,0.88531582 0 0 0 -0.835791,0.641 c -0.657554,-0.08771 -1.286437,-0.251764 -1.88753,-0.489154 a 0.88531582,0.88531582 0 0 0 -0.74742,-0.786628 c -0.08093,-0.57299 -0.111062,-1.147714 -0.08339,-1.723234 a 0.88531582,0.88531582 0 0 0 0.669007,-0.638513 0.88531582,0.88531582 0 0 1 -0.005,0.01866 c 1.096297,-0.108575 2.11359,-0.389614 3.056892,-0.82272 z m -3.022664,0.546407 a 0.88531582,0.88531582 0 0 1 6.06e-4,0.03052 0.88531582,0.88531582 0 0 0 -6.06e-4,-0.03052 z m 0,0.04916 a 0.88531582,0.88531582 0 0 1 -0.0012,0.03238 0.88531582,0.88531582 0 0 0 0.0012,-0.03238 z m -0.005,0.08277 a 0.88531582,0.88531582 0 0 1 -0.0055,0.03798 0.88531582,0.88531582 0 0 0 0.0055,-0.03798 z m 3.938734,0.0355 a 0.88531582,0.88531582 0 0 0 -0.04108,0.005 0.88531582,0.88531582 0 0 0 -0.03796,0.0062 0.88531582,0.88531582 0 0 1 0.03796,-0.0062 0.88531582,0.88531582 0 0 1 0.04108,-0.005 z m -0.09086,0.01368 a 0.88531582,0.88531582 0 0 0 -0.02428,0.0055 0.88531582,0.88531582 0 0 1 0.02428,-0.0055 z m 0.412607,0.01119 a 0.88531582,0.88531582 0 0 1 0.02985,0.0087 0.88531582,0.88531582 0 0 0 -0.02985,-0.0087 z m -0.540185,0.02612 a 0.88531582,0.88531582 0 0 0 -0.03734,0.01492 0.88531582,0.88531582 0 0 0 -0.04045,0.01866 0.88531582,0.88531582 0 0 0 -0.03796,0.0199 0.88531582,0.88531582 0 0 1 0.03796,-0.0199 0.88531582,0.88531582 0 0 1 0.04045,-0.01866 0.88531582,0.88531582 0 0 1 0.03734,-0.01492 z m -0.155582,0.07655 a 0.88531582,0.88531582 0 0 0 -0.03298,0.02114 0.88531582,0.88531582 0 0 1 0.03298,-0.02114 z m 0.940341,0.005 a 0.88531582,0.88531582 0 0 1 0.03236,0.02176 0.88531582,0.88531582 0 0 0 -0.03236,-0.02176 z m 0.03609,0.02363 a 0.88531582,0.88531582 0 0 1 0.03422,0.02612 0.88531582,0.88531582 0 0 1 0.03298,0.02612 0.88531582,0.88531582 0 0 0 -0.03298,-0.02612 0.88531582,0.88531582 0 0 0 -0.03422,-0.02612 z m 0.07032,0.05476 a 0.88531582,0.88531582 0 0 1 0.02428,0.0224 0.88531582,0.88531582 0 0 0 -0.02428,-0.0224 z m -5.885387,0.444968 a 0.88531582,0.88531582 0 0 0 0.03734,0.01741 0.88531582,0.88531582 0 0 1 -0.03734,-0.01741 z m 0.167407,0.06285 a 0.88531582,0.88531582 0 0 0 0.03298,0.0081 0.88531582,0.88531582 0 0 1 -0.03298,-0.0081 z m 0.08713,0.01866 a 0.88531582,0.88531582 0 0 0 0.03236,0.0043 0.88531582,0.88531582 0 0 1 -0.03236,-0.0043 z m 0.08899,0.0093 a 0.88531582,0.88531582 0 0 0 0.03236,0.0015 0.88531582,0.88531582 0 0 1 -0.03236,-0.0015 z m 5.225094,0.978308 a 0.88531582,0.88531582 0 0 1 -0.03422,0.0099 0.88531582,0.88531582 0 0 0 0.03422,-0.0099 z m -0.08651,0.0224 a 0.88531582,0.88531582 0 0 1 -0.04356,0.0075 0.88531582,0.88531582 0 0 1 -0.0448,0.0055 0.88531582,0.88531582 0 0 0 0.0448,-0.0055 0.88531582,0.88531582 0 0 0 0.04356,-0.0075 z m -0.29125,0.01 a 0.88531582,0.88531582 0 0 0 0.112644,0.0081 c 0.228125,0.543824 0.509501,1.064318 0.829565,1.5689 a 0.88531582,0.88531582 0 0 0 0,4.78e-4 0.88531582,0.88531582 0 0 0 -0.119488,0.323612 c -0.34051,0.05825 -0.673368,0.09878 -0.999463,0.121357 a 0.88531582,0.88531582 0 0 0 -0.286261,-0.479201 c 0.113342,-0.528803 0.259914,-1.046137 0.463015,-1.543385 z m -1.022489,1.329299 a 0.88531582,0.88531582 0 0 1 0.03236,0.0015 0.88531582,0.88531582 0 0 0 -0.03236,-0.0015 z m 3.518038,0.324234 a 0.88531582,0.88531582 0 0 1 0.01619,0.03674 0.88531582,0.88531582 0 0 1 0.01494,0.03736 0.88531582,0.88531582 0 0 0 -0.01494,-0.03736 0.88531582,0.88531582 0 0 0 -0.01619,-0.03674 z m 0.03422,0.08277 a 0.88531582,0.88531582 0 0 1 0.01245,0.03674 0.88531582,0.88531582 0 0 0 -0.01245,-0.03674 z m 0.01306,0.03798 a 0.88531582,0.88531582 0 0 1 0.01122,0.03798 0.88531582,0.88531582 0 0 0 -0.01122,-0.03798 z m 0.0137,0.04731 a 0.88531582,0.88531582 0 0 1 0.0069,0.02985 0.88531582,0.88531582 0 0 0 -0.0069,-0.02985 z m 0.0099,0.04668 a 0.88531582,0.88531582 0 0 1 0.0062,0.03606 0.88531582,0.88531582 0 0 0 -0.0062,-0.03606 z m 0.502221,0.0865 a 5.2802964,5.2802964 0 0 1 -4.346362,2.289554 5.2802964,5.2802964 0 0 0 0.560099,-0.03612 c -0.0037,-0.402596 0.01222,-0.797382 0.04108,-1.187408 1.5e-5,-2.05e-4 -1.5e-5,-3.15e-4 0,-4.77e-4 a 0.88531582,0.88531582 0 0 0 0.418213,-0.3927 c 0.390732,-0.01985 0.79009,-0.06524 1.197989,-0.133177 a 0.88531582,0.88531582 0 0 0 0.758001,0.428785 0.88531582,0.88531582 0 0 0 0.210971,-0.02549 c 0.04505,0.05486 0.08723,0.111115 0.133175,0.165536 a 5.2802964,5.2802964 0 0 0 0.459904,-0.42505 c -0.02623,-0.03042 -0.05266,-0.0613 -0.07966,-0.09148 a 0.88531582,0.88531582 0 0 0 0.161184,-0.49973 0.88531582,0.88531582 0 0 1 -0.002,0.05849 c 0.162295,-0.04996 0.323025,-0.09433 0.487286,-0.150604 z m -2.254705,0.03238 a 0.88531582,0.88531582 0 0 0 -0.0012,0.03861 0.88531582,0.88531582 0 0 1 0.0012,-0.03861 z m -0.986397,0.0585 a 0.88531582,0.88531582 0 0 1 0.0062,0.03488 0.88531582,0.88531582 0 0 1 0.0056,0.04481 0.88531582,0.88531582 0 0 1 0.0037,0.04047 0.88531582,0.88531582 0 0 0 -0.0037,-0.04047 0.88531582,0.88531582 0 0 0 -0.0056,-0.04481 0.88531582,0.88531582 0 0 0 -0.0062,-0.03488 z m -1.752483,0.117621 a 0.88531582,0.88531582 0 0 0 -0.0013,0.0386 0.88531582,0.88531582 0 0 1 0.0013,-0.0386 z m 1.768667,0.06908 a 0.88531582,0.88531582 0 0 1 -0.0013,0.03238 0.88531582,0.88531582 0 0 0 0.0013,-0.03238 z m -1.741907,0.202882 a 0.88531582,0.88531582 0 0 0 0.0112,0.04109 0.88531582,0.88531582 0 0 1 -0.0112,-0.04109 z m -2.717721,0.01803 a 0.88531582,0.88531582 0 0 1 -0.04418,0.0015 0.88531582,0.88531582 0 0 0 0.04418,-0.0015 z m 2.730168,0.02679 a 0.88531582,0.88531582 0 0 0 0.0093,0.02861 0.88531582,0.88531582 0 0 1 -0.0093,-0.02861 z" />
</svg>
