<?xml version="1.0" encoding="UTF-8" standalone="no"?>
<svg
   height="48"
   width="48"
   version="1.1"
   id="svg8"
   sodipodi:docname="com.viber.Viber.svg"
   inkscape:version="1.1.2 (0a00cf5339, 2022-02-04)"
   xmlns:inkscape="http://www.inkscape.org/namespaces/inkscape"
   xmlns:sodipodi="http://sodipodi.sourceforge.net/DTD/sodipodi-0.dtd"
   xmlns="http://www.w3.org/2000/svg"
   xmlns:svg="http://www.w3.org/2000/svg"
   xmlns:rdf="http://www.w3.org/1999/02/22-rdf-syntax-ns#"
   xmlns:cc="http://creativecommons.org/ns#"
   xmlns:dc="http://purl.org/dc/elements/1.1/">
  <metadata
     id="metadata14">
    <rdf:RDF>
      <cc:Work
         rdf:about="">
        <dc:format>image/svg+xml</dc:format>
        <dc:type
           rdf:resource="http://purl.org/dc/dcmitype/StillImage" />
      </cc:Work>
    </rdf:RDF>
  </metadata>
  <defs
     id="defs12" />
  <sodipodi:namedview
     pagecolor="#ffffff"
     bordercolor="#666666"
     borderopacity="1"
     objecttolerance="10"
     gridtolerance="10"
     guidetolerance="10"
     inkscape:pageopacity="0"
     inkscape:pageshadow="2"
     inkscape:window-width="1920"
     inkscape:window-height="1031"
     id="namedview10"
     showgrid="false"
     inkscape:zoom="6.6880518"
     inkscape:cx="91.880269"
     inkscape:cy="12.634472"
     inkscape:window-x="0"
     inkscape:window-y="0"
     inkscape:window-maximized="1"
     inkscape:current-layer="svg8"
     inkscape:document-rotation="0"
     inkscape:pagecheckerboard="0"
     inkscape:lockguides="true" />
  <path
     id="path2"
     style="fill:#b48ead;fill-opacity:1;stroke-width:1.15035"
     d="M 23.804688 1.3046875 A 22.696228 22.696232 0 0 0 1.1074219 24 A 22.696228 22.696232 0 0 0 23.804688 46.695312 A 22.696228 22.696232 0 0 0 46.5 24 A 22.696228 22.696232 0 0 0 23.804688 1.3046875 z " />
  <path
     id="path844"
     style="fill:#8f788f;fill-opacity:1;stroke-width:1.15035"
     d="M 39.851562 7.9511719 L 7.7558594 40.048828 C 11.863069 44.156038 17.537297 46.695312 23.804688 46.695312 C 36.339469 46.695312 46.500001 36.534782 46.5 24 C 46.5 17.732609 43.958771 12.058381 39.851562 7.9511719 z " />
  <path
     id="path846"
     style="fill:#ffffff;fill-opacity:0.38265306;stroke-width:1.04041"
     d="M 23.804688 3.4726562 A 20.527088 20.527092 0 0 0 3.2773438 24 A 20.527088 20.527092 0 0 0 23.804688 44.527344 A 20.527088 20.527092 0 0 0 44.330078 24 A 20.527088 20.527092 0 0 0 23.804688 3.4726562 z " />
  <path
     d="m 25.692397,13.00008 c -0.48314,0 -0.88408,0.38589 -0.88867,0.85352 -0.0028,0.469751 0.39819,0.864781 0.88477,0.867191 2.0999,0.01577 3.8265,0.67944 5.2188,1.9883 1.3759,1.2967 2.0931,3.0932 2.1113,5.4375 v 0.002 c 0.005,0.46636 0.40622,0.85152 0.89062,0.85152 5.1e-5,0 0.0092,-0.0018 0.0098,-0.002 0.4855,-0.0045 0.88869,-0.3959 0.88477,-0.86524 v -0.002 c -0.0113,-1.3664 -0.23344,-2.6227 -0.668,-3.7284 -0.4398,-1.1171 -1.1083,-2.1056 -1.9805,-2.9277 -1.7225,-1.619901 -3.9228,-2.456701 -6.4551,-2.474601 h -0.0078 z m -9.0195,2.021501 c -0.3388,-0.05759 -0.7058,0.0054 -1.0723,0.18164 h -0.0293 l -0.04102,0.02344 c -0.67914,0.38604 -1.3158,0.90359 -1.9121,1.5527 l -0.04687,0.05078 v 0.04687 c -0.41259,0.51439 -0.6853,1.0321 -0.74805,1.5508 -0.02002,0.0879 -0.01953,0.16714 -0.01953,0.25196 0,0.23596 0.03468,0.47576 0.10742,0.71094 l 0.01953,0.06641 0.04102,0.02344 c 0.23553,0.80809 0.77,2.0657 1.9395,4.1953 0.77892,1.4115 1.5748,2.5906 2.3652,3.584 0.41639,0.5221 0.88808,1.0657 1.4355,1.6133 0.0065,0.0065 0.02959,0.03008 0.05469,0.05273 0.0087,0.0087 0.02087,0.02673 0.05078,0.05664 l 0.05469,0.05469 h 0.0039 c 0.01927,0.01927 0.03227,0.03326 0.03516,0.03711 l 0.0098,0.01172 0.0098,0.0098 c 0.54744,0.54148 1.0874,1.016 1.6152,1.4297 0.99189,0.79051 2.1707,1.5927 3.582,2.373 2.132,1.1762 3.4013,1.7078 4.2051,1.9395 l 0.0293,0.03516 0.04883,0.01758 c 0.2277,0.07591 0.46464,0.11096 0.69922,0.10742 0.09514,0.0052 0.17939,-0.0015 0.25976,-0.01953 0.55048,-0.06436 1.0955,-0.325 1.6348,-0.77734 l 0.0059,-0.0078 0.0059,-0.0039 c 0.0083,-0.0083 0.0034,-0.0043 0.0078,-0.0098 0.0048,-0.0043 0.0069,-0.0093 0.01172,-0.01367 0.63825,-0.58251 1.1534,-1.2161 1.541,-1.8945 l 0.02539,-0.04297 v -0.04102 c 0.35599,-0.74129 0.21499,-1.4981 -0.36328,-1.9805 -0.01417,-0.01215 -0.29201,-0.2444 -0.63672,-0.52539 -0.35253,-0.28727 -0.77061,-0.62493 -1.0529,-0.83206 -0.53408,-0.39509 -1.3596,-0.90615 -1.8301,-1.168 h -0.002 c -0.90375,-0.50613 -1.8481,-0.21199 -2.2637,0.32617 l -0.72852,0.91211 c -0.29381,0.3702 -0.8809,0.33489 -0.89648,0.33398 -4.9414,-1.2713 -6.2699,-6.24 -6.2793,-6.2754 -8.81e-4,-0.01555 -0.0364,-0.60368 0.33398,-0.90234 l 0.9082,-0.72656 c 0.53945,-0.41319 0.84274,-1.3574 0.33398,-2.2637 -0.2654,-0.46852 -0.77867,-1.3002 -1.168,-1.8301 h -0.002 c -0.2087,-0.28127 -0.54533,-0.70183 -0.83203,-1.0547 -0.14335,-0.17643 -0.27386,-0.33792 -0.36914,-0.45312 -0.04764,-0.05761 -0.08595,-0.10414 -0.11328,-0.13672 -0.01367,-0.01629 -0.02518,-0.02775 -0.0332,-0.03711 -0.004,-0.0047 -0.0063,-0.0078 -0.0098,-0.01172 -0.25169,-0.29887 -0.57248,-0.48096 -0.92578,-0.54102 z m 9.0723,1.9805 c -0.47653,-0.0336 -0.90471,0.32346 -0.93945,0.7832 -0.03478,0.46025 0.3365,0.87074 0.8125,0.9043 1.1771,0.08319 1.9714,0.42925 2.5684,1.0605 v 0.002 c 0.60928,0.643 0.88651,1.3773 0.86328,2.3809 v 0.0039 c -0.0104,0.46178 0.37701,0.85312 0.85547,0.86324 h 0.02147 c 0.47147,0 0.86451,-0.37219 0.875,-0.82812 0.03225,-1.3793 -0.41702,-2.6101 -1.3223,-3.5645 -0.90942,-0.95914 -2.1978,-1.4963 -3.7344,-1.6055 z"
     fill="#ffffff"
     id="path20"
     style="fill:#ffffff;fill-opacity:1" />
</svg>
