<?xml version="1.0" encoding="UTF-8" standalone="no"?>
<svg
   xmlns:dc="http://purl.org/dc/elements/1.1/"
   xmlns:cc="http://creativecommons.org/ns#"
   xmlns:rdf="http://www.w3.org/1999/02/22-rdf-syntax-ns#"
   xmlns:svg="http://www.w3.org/2000/svg"
   xmlns="http://www.w3.org/2000/svg"
   xmlns:sodipodi="http://sodipodi.sourceforge.net/DTD/sodipodi-0.dtd"
   xmlns:inkscape="http://www.inkscape.org/namespaces/inkscape"
   height="48"
   width="48"
   version="1.1"
   id="svg8"
   sodipodi:docname="com.jetbrains.WebStorm.svg"
   inkscape:version="1.0.2 (e86c870879, 2021-01-15)">
  <metadata
     id="metadata14">
    <rdf:RDF>
      <cc:Work
         rdf:about="">
        <dc:format>image/svg+xml</dc:format>
        <dc:type
           rdf:resource="http://purl.org/dc/dcmitype/StillImage" />
        <dc:title></dc:title>
      </cc:Work>
    </rdf:RDF>
  </metadata>
  <defs
     id="defs12" />
  <sodipodi:namedview
     pagecolor="#ffffff"
     bordercolor="#666666"
     borderopacity="1"
     objecttolerance="10"
     gridtolerance="10"
     guidetolerance="10"
     inkscape:pageopacity="0"
     inkscape:pageshadow="2"
     inkscape:window-width="1920"
     inkscape:window-height="1031"
     id="namedview10"
     showgrid="false"
     inkscape:zoom="9.4583333"
     inkscape:cx="9.6322786"
     inkscape:cy="30.689624"
     inkscape:window-x="0"
     inkscape:window-y="24"
     inkscape:window-maximized="1"
     inkscape:current-layer="svg8"
     inkscape:document-rotation="0" />
  <path
     d="m44.322082 27.405077a19.729762 19.729765 0 0 1 -19.729762 19.729765 19.729762 19.729765 0 0 1 -19.7297621-19.729765 19.729762 19.729765 0 0 1 19.7297621-19.7297632 19.729762 19.729765 0 0 1 19.729762 19.7297632z"
     fill="#89a02c"
     opacity=".99"
     transform="matrix(1.1503549 0 0 1.1503549 -4.486125 -7.525565)"
     id="path2"
     style="fill:#84b396;fill-opacity:1" />
  <path
     d="M 44.322082,27.405077 H 4.8625579 c 1e-6,-10.896448 8.8333161,-19.7297633 19.7297621,-19.7297632 10.896446,0 19.729761,8.8333152 19.729762,19.7297632 z"
     fill="#89a02c"
     opacity="0.99"
     transform="matrix(1.1503549,0,0,1.1503549,-4.486125,-7.525565)"
     id="path839"
     sodipodi:nodetypes="ccsc"
     style="fill:#ffffff;fill-opacity:0.16203129" />
  <path
     d="m 44.322082,27.405077 c 0,10.896448 -8.833315,19.729765 -19.729762,19.729765 V 7.6753138 c 10.896446,0 19.729761,8.8333152 19.729762,19.7297632 z"
     fill="#89a02c"
     opacity="0.99"
     transform="matrix(1.1503549,0,0,1.1503549,-4.486125,-7.525565)"
     id="path841"
     sodipodi:nodetypes="sccs"
     style="fill:#3158d5;fill-opacity:0.2576012" />
  <path
     d="M 11.094509,12.239586 V 36.92293 H 35.777853 V 12.239586 Z m 17.528366,2.322376 c 0.999938,0 1.813783,0.303602 2.438744,0.909333 0.624961,0.600924 0.926901,1.360942 0.907672,2.279153 l -0.01496,0.04322 h -1.989894 c 0,-0.480739 -0.120372,-0.87061 -0.360741,-1.168668 -0.24037,-0.298059 -0.578255,-0.447187 -1.015728,-0.447187 -0.408628,0 -0.728451,0.124056 -0.959206,0.374041 -0.225947,0.245177 -0.33913,0.555968 -0.33913,0.930945 0,0.346132 0.127561,0.631852 0.382352,0.857799 0.254793,0.22114 0.696829,0.469073 1.326597,0.743094 0.99513,0.336518 1.742612,0.764176 2.242581,1.283374 0.504776,0.514391 0.758055,1.21155 0.758055,2.091302 0,0.908597 -0.303603,1.620133 -0.909334,2.134524 -0.605732,0.514391 -1.410725,0.771355 -2.41547,0.771355 -0.999938,0 -1.867791,-0.291067 -2.603322,-0.872762 -0.730723,-0.586502 -1.084649,-1.425598 -1.060612,-2.516876 l 0.01496,-0.04322 h 1.996543 c 0,0.648997 0.138254,1.116105 0.412276,1.399742 0.274021,0.283636 0.687302,0.425575 1.240152,0.425575 0.432665,0 0.752488,-0.115026 0.959206,-0.34578 0.211525,-0.230754 0.317518,-0.543388 0.317518,-0.937594 0,-0.408629 -0.105993,-0.730294 -0.317518,-0.965856 -0.211526,-0.24037 -0.585177,-0.477429 -1.118797,-0.708183 -1.091278,-0.379784 -1.91065,-0.809285 -2.458692,-1.290024 -0.543236,-0.485547 -0.814577,-1.16298 -0.814577,-2.033118 0,-0.860523 0.31798,-1.561185 0.952556,-2.099613 0.634575,-0.543236 1.443254,-0.814577 2.428769,-0.814576 z m -15.14282,0.151278 h 1.989896 l 1.132096,6.69948 h 0.04322 l 1.514448,-6.69948 h 1.471226 L 21.167,21.41272 h 0.04322 l 1.132095,-6.69948 h 1.989895 l -2.024805,10.499731 h -1.911763 l -1.477875,-6.431833 h -0.04322 l -1.464576,6.431833 h -1.903448 z m 0.167903,15.400492 h 10.213798 v 1.702299 H 13.647958 Z"
     fill="#ffffff"
     id="path10-3"
     style="stroke-width:0.85115" />
</svg>
