<?xml version="1.0" encoding="UTF-8" standalone="no"?>
<svg
   height="48"
   width="48"
   version="1.1"
   id="svg6"
   sodipodi:docname="xfwm4.svg"
   inkscape:version="1.1.2 (0a00cf5339, 2022-02-04)"
   xmlns:inkscape="http://www.inkscape.org/namespaces/inkscape"
   xmlns:sodipodi="http://sodipodi.sourceforge.net/DTD/sodipodi-0.dtd"
   xmlns="http://www.w3.org/2000/svg"
   xmlns:svg="http://www.w3.org/2000/svg"
   xmlns:rdf="http://www.w3.org/1999/02/22-rdf-syntax-ns#"
   xmlns:cc="http://creativecommons.org/ns#"
   xmlns:dc="http://purl.org/dc/elements/1.1/">
  <metadata
     id="metadata12">
    <rdf:RDF>
      <cc:Work
         rdf:about="">
        <dc:format>image/svg+xml</dc:format>
        <dc:type
           rdf:resource="http://purl.org/dc/dcmitype/StillImage" />
        <dc:title />
      </cc:Work>
    </rdf:RDF>
  </metadata>
  <defs
     id="defs10" />
  <sodipodi:namedview
     pagecolor="#ffffff"
     bordercolor="#666666"
     borderopacity="1"
     objecttolerance="10"
     gridtolerance="10"
     guidetolerance="10"
     inkscape:pageopacity="0"
     inkscape:pageshadow="2"
     inkscape:window-width="1920"
     inkscape:window-height="1031"
     id="namedview8"
     showgrid="false"
     inkscape:zoom="6.6880515"
     inkscape:cx="-12.335431"
     inkscape:cy="22.353297"
     inkscape:window-x="0"
     inkscape:window-y="0"
     inkscape:window-maximized="1"
     inkscape:current-layer="svg6"
     inkscape:document-rotation="0"
     inkscape:pagecheckerboard="0" />
  <path
     id="circle2"
     style="opacity:0.99;fill:#81a1c1;fill-opacity:1"
     transform="matrix(1.75830584759 0 0 1.75830608345 -18.15909274367 -30.97874795549)"
     d="M 37.173613,31.534513 A 13.232998,13.232998 0 0 1 23.940615,44.767511 13.232998,13.232998 0 0 1 10.707617,31.534513 13.232998,13.232998 0 0 1 23.940615,18.301516 13.232998,13.232998 0 0 1 37.173613,31.534513 Z" />
  <path
     id="circle833"
     style="opacity:0.99;fill:#d8dee9;fill-opacity:1;stroke-width:1.75831"
     d="M 39.066406 9.3378906 L 8.8046875 39.599609 A 21.398523 21.398527 0 0 0 23.935547 45.867188 A 21.398523 21.398527 0 0 0 45.333984 24.46875 A 21.398523 21.398527 0 0 0 39.066406 9.3378906 z " />
  <g
     id="g842"
     transform="rotate(-44.037682,13.265209,28.297732)"
     style="fill:#ffffff">
    <path
       id="path833"
       style="fill:#bf616a;stroke-width:0.8;stroke-linecap:square;fill-opacity:1"
       d="M 15.074172,24.352217 A 4.3560519,4.3560519 0 0 1 10.71812,28.708269 4.3560519,4.3560519 0 0 1 6.3620677,24.352217 4.3560519,4.3560519 0 0 1 10.71812,19.996165 4.3560519,4.3560519 0 0 1 15.074172,24.352217 Z" />
    <circle
       style="fill:#a3be8c;stroke-width:0.8;stroke-linecap:square;fill-opacity:1"
       id="circle835"
       cx="23.156765"
       cy="24.352217"
       r="4.3560519" />
    <circle
       style="fill:#ebcb8b;stroke-width:0.8;stroke-linecap:square;fill-opacity:1"
       id="circle837"
       cx="35.595413"
       cy="24.352217"
       r="4.3560519" />
  </g>
  <path
     d="m 18.898804,31.546663 c -0.29003,0.359966 -0.233728,0.883247 0.126237,1.173277 l 0.83377,0.671783 a 5.7609955,5.7609955 0 0 0 -0.34483,1.157895 l -1.058699,0.113909 c -0.459616,0.04946 -0.789742,0.459181 -0.74029,0.918797 l 0.178507,1.659086 c 0.04945,0.459616 0.45918,0.789742 0.918797,0.740291 l 1.058698,-0.11391 a 5.7609955,5.7609955 0 0 0 0.585296,1.055503 l -0.673828,0.836308 c -0.29003,0.359965 -0.233728,0.883247 0.126237,1.173276 l 1.299514,1.047041 c 0.359965,0.29003 0.883246,0.233729 1.173276,-0.126237 l 0.701435,-0.870572 a 5.7609955,5.7609955 0 0 0 1.120354,0.308303 l 0.121799,1.13203 c 0.04945,0.459615 0.459181,0.789741 0.918796,0.740289 l 1.659088,-0.178506 c 0.459615,-0.04946 0.789741,-0.459181 0.74029,-0.918798 l -0.128456,-1.1939 a 5.7609955,5.7609955 0 0 0 0.958372,-0.540073 l 0.947985,0.763808 c 0.359966,0.290029 0.883246,0.233728 1.173277,-0.126237 l 1.04704,-1.299514 c 0.29003,-0.359965 0.233729,-0.883247 -0.126237,-1.173277 l -0.982249,-0.791416 a 5.7609955,5.7609955 0 0 0 0.287071,-1.016072 l 1.264937,-0.136099 c 0.459617,-0.04946 0.789743,-0.459181 0.740291,-0.918797 l -0.178506,-1.659087 c -0.04945,-0.459616 -0.459182,-0.789742 -0.918797,-0.74029 l -1.262648,0.135852 a 5.7609955,5.7609955 0 0 0 -0.495867,-0.935311 l 0.788348,-0.978443 c 0.290029,-0.359965 0.233728,-0.883246 -0.126237,-1.173277 l -1.299514,-1.04704 c -0.359965,-0.290029 -0.883247,-0.233728 -1.173277,0.126237 l -0.761763,0.945447 A 5.7609955,5.7609955 0 0 0 26.34316,29.98305 l -0.127963,-1.189317 c -0.04945,-0.459617 -0.45918,-0.789742 -0.918797,-0.740291 l -1.659087,0.178507 c -0.459615,0.04945 -0.789741,0.459181 -0.740289,0.918797 l 0.121551,1.129737 a 5.7609955,5.7609955 0 0 0 -1.032688,0.538798 l -0.866765,-0.698369 c -0.359965,-0.290029 -0.883248,-0.233728 -1.173277,0.126237 z m 3.319252,1.602811 a 3.9192343,3.9192343 0 0 1 5.511194,-0.592968 3.9192343,3.9192343 0 0 1 0.592968,5.511195 3.9192343,3.9192343 0 0 1 -5.511194,0.592966 3.9192343,3.9192343 0 0 1 -0.592968,-5.511193 z"
     id="path12"
     style="stroke-width:0.83442;fill:#3b4252;fill-opacity:0.99215686" />
  <path
     d="m 30.514919,24.158559 c -0.29003,0.359966 -0.233728,0.883247 0.126236,1.173277 l 0.760166,0.612478 a 5.1498988,5.1498988 0 0 0 -0.176226,0.613549 l -0.973912,0.104787 c -0.459616,0.04945 -0.789742,0.45918 -0.74029,0.918797 l 0.178506,1.659086 c 0.04945,0.459616 0.459181,0.789742 0.918798,0.74029 l 0.97162,-0.104539 a 5.1498988,5.1498988 0 0 0 0.303978,0.563042 l -0.611456,0.758895 c -0.29003,0.359965 -0.233728,0.883247 0.126237,1.173277 l 1.299515,1.047041 c 0.359965,0.29003 0.883246,0.233729 1.173277,-0.126237 l 0.612478,-0.760164 a 5.1498988,5.1498988 0 0 0 0.613549,0.176225 l 0.104786,0.973911 c 0.04945,0.459617 0.459181,0.789743 0.918797,0.740291 l 1.659087,-0.178506 c 0.459616,-0.04946 0.789742,-0.459182 0.74029,-0.918797 l -0.10454,-0.971621 a 5.1498988,5.1498988 0 0 0 0.563041,-0.303978 l 0.758897,0.611455 c 0.359965,0.290031 0.883247,0.233729 1.173276,-0.126237 l 1.047041,-1.299513 c 0.29003,-0.359965 0.233729,-0.883247 -0.126237,-1.173277 l -0.760164,-0.612478 a 5.1498988,5.1498988 0 0 0 0.176225,-0.613549 l 0.973912,-0.104786 c 0.459616,-0.04945 0.789741,-0.459182 0.74029,-0.918798 L 42.78359,26.153394 c -0.04946,-0.459616 -0.459182,-0.789742 -0.918797,-0.74029 l -0.97162,0.104539 a 5.1498988,5.1498988 0 0 0 -0.303979,-0.563041 l 0.611455,-0.758896 c 0.29003,-0.359966 0.233729,-0.883247 -0.126236,-1.173277 l -1.299515,-1.047041 c -0.359965,-0.29003 -0.883247,-0.233728 -1.173277,0.126237 l -0.612477,0.760165 a 5.1498988,5.1498988 0 0 0 -0.61355,-0.176226 l -0.104786,-0.973912 c -0.04946,-0.459616 -0.459182,-0.789742 -0.918797,-0.74029 l -1.659087,0.178506 c -0.459616,0.04945 -0.789742,0.459182 -0.74029,0.918798 l 0.10454,0.97162 a 5.1498988,5.1498988 0 0 0 -0.563042,0.303978 L 32.735236,22.732809 C 32.375271,22.442778 31.85199,22.49908 31.561959,22.859045 Z m 3.102243,1.427964 a 3.3629896,3.3629896 0 0 1 4.729773,-0.508891 3.3629896,3.3629896 0 0 1 0.508892,4.729772 3.3629896,3.3629896 0 0 1 -4.729772,0.508892 3.3629896,3.3629896 0 0 1 -0.508893,-4.729773 z"
     id="path14"
     style="stroke-width:0.83442;fill:#3b4252;fill-opacity:0.99215686" />
</svg>
