<?xml version="1.0" encoding="UTF-8" standalone="no"?>
<svg
   xmlns:dc="http://purl.org/dc/elements/1.1/"
   xmlns:cc="http://creativecommons.org/ns#"
   xmlns:rdf="http://www.w3.org/1999/02/22-rdf-syntax-ns#"
   xmlns:svg="http://www.w3.org/2000/svg"
   xmlns="http://www.w3.org/2000/svg"
   xmlns:sodipodi="http://sodipodi.sourceforge.net/DTD/sodipodi-0.dtd"
   xmlns:inkscape="http://www.inkscape.org/namespaces/inkscape"
   height="48"
   width="48"
   version="1.1"
   id="svg8"
   sodipodi:docname="bottles_winetricks.svg"
   inkscape:version="1.0.2 (e86c870879, 2021-01-15)">
  <metadata
     id="metadata14">
    <rdf:RDF>
      <cc:Work
         rdf:about="">
        <dc:format>image/svg+xml</dc:format>
        <dc:type
           rdf:resource="http://purl.org/dc/dcmitype/StillImage" />
        <dc:title></dc:title>
      </cc:Work>
    </rdf:RDF>
  </metadata>
  <defs
     id="defs12" />
  <sodipodi:namedview
     pagecolor="#ffffff"
     bordercolor="#666666"
     borderopacity="1"
     objecttolerance="10"
     gridtolerance="10"
     guidetolerance="10"
     inkscape:pageopacity="0"
     inkscape:pageshadow="2"
     inkscape:window-width="1920"
     inkscape:window-height="1031"
     id="namedview10"
     showgrid="false"
     inkscape:zoom="6.6880516"
     inkscape:cx="4.6006372"
     inkscape:cy="37.051624"
     inkscape:window-x="0"
     inkscape:window-y="24"
     inkscape:window-maximized="1"
     inkscape:current-layer="svg8"
     inkscape:document-rotation="0" />
  <path
     d="m44.322082 27.405077a19.729762 19.729765 0 0 1 -19.729762 19.729765 19.729762 19.729765 0 0 1 -19.7297621-19.729765 19.729762 19.729765 0 0 1 19.7297621-19.7297632 19.729762 19.729765 0 0 1 19.729762 19.7297632z"
     fill="#89a02c"
     opacity=".99"
     transform="matrix(1.1503549 0 0 1.1503549 -4.486125 -7.525565)"
     id="path2"
     style="fill:#be947f;fill-opacity:1" />
  <g
     fill="#ffffff"
     id="g30"
     transform="matrix(0.87852286,0,0,0.87852286,3.4227876,2.7661711)">
    <path
       d="M 18,9 V 26 H 29 V 9 Z m -4,19 10,13 9,-13 z"
       fill-opacity="0.719149"
       stroke-width="1.45455"
       id="path4" />
    <path
       d="m 12.165632,19.509478 -2.118709,-1.41473 -2.3665492,0.94331 0.6907711,-2.452188 -1.6284452,-1.959223 2.545629,-0.100805 1.3601153,-2.154177 0.882514,2.389887 L 14,15.38942 11.999795,16.967257 Z"
       stroke-width="0.383641"
       id="path6" />
    <path
       d="m 18.089046,26.542222 -1.307319,-0.872939 -1.460244,0.582056 0.42623,-1.513087 -1.004808,-1.20891 1.570743,-0.0622 0.839239,-1.329203 0.544542,1.474644 1.523487,0.387418 -1.234198,0.97358 z"
       stroke-width="0.23672"
       id="path8" />
    <path
       d="m 34.868131,14.542222 -1.307319,-0.872939 -1.460244,0.582056 0.42623,-1.513087 -1.004808,-1.20891 1.570743,-0.0622 0.839239,-1.329203 0.544542,1.474644 1.523487,0.387418 -1.234198,0.97358 z"
       stroke-width="0.23672"
       id="path10" />
    <path
       d="M 34.917147,28.391154 33.159179,27.217302 31.195568,28 l 0.573158,-2.034667 -1.351179,-1.625638 2.112199,-0.08364 1.128536,-1.787397 0.732253,1.982974 2.048653,0.520966 -1.659642,1.309187 z"
       stroke-width="0.31832"
       id="path12" />
    <path
       d="M 8.9957803,41.939522 7.835899,41.165032 6.5403382,41.681445 6.9184988,40.339001 6.0270112,39.26643 l 1.3935974,-0.05519 0.7445911,-1.179297 0.4831299,1.308336 1.3516702,0.343725 -1.0950066,0.863782 z"
       stroke-width="0.210023"
       id="path14" />
    <path
       d="m 42.347451,16.599239 -1.159881,-0.77449 -1.295561,0.516412 0.378161,-1.342443 -0.891488,-1.072571 1.393597,-0.05519 L 41.51687,12.691663 42,14 l 1.351671,0.343725 -1.095007,0.863782 z"
       stroke-width="0.210023"
       id="path16" />
    <path
       d="m 41.159882,42.774491 -1.159881,-0.77449 -1.295561,0.516412 0.378161,-1.342443 -0.891488,-1.072571 1.393598,-0.05519 0.744591,-1.179298 0.48313,1.308337 1.35167,0.343725 -1.095007,0.863782 z"
       stroke-width="0.210023"
       id="path18" />
    <path
       d="m 24.077281,41.600521 -1.159882,-0.77449 -1.29556,0.516413 0.37816,-1.342443 -0.891487,-1.072572 1.393597,-0.05518 0.744591,-1.179298 0.48313,1.308336 1.35167,0.343726 -1.095006,0.863782 z"
       stroke-width="0.210023"
       id="path20" />
    <path
       d="m 26.118708,35.414728 -2.118709,-1.41473 -2.366549,0.94331 0.690771,-2.452187 -1.628445,-1.959223 2.545629,-0.100806 1.360115,-2.154176 0.882514,2.389886 2.469042,0.627869 -2.000205,1.577836 z"
       stroke-width="0.383641"
       id="path22" />
    <path
       d="M 18.526612,11.939524 16.768643,10.765672 14.805033,11.54837 15.37819,9.5137022 14.027011,7.8880648 16.13921,7.8044229 17.267746,6.0170257 18,7.9999998 20.048652,8.520965 18.389011,9.8301523 Z"
       stroke-width="0.31832"
       id="path24" />
    <path
       d="m 24.830581,21.907576 -1.159882,-0.77449 -1.295561,0.516412 0.378161,-1.342443 -0.891488,-1.072571 1.393598,-0.05519 L 24,18 l 0.48313,1.308337 1.35167,0.343725 -1.095007,0.863782 z"
       stroke-width="0.210023"
       id="path26" />
    <path
       d="M 9.3073188,30.872939 8.0000004,30 6.5397558,30.582056 6.9659859,29.06897 5.9611777,27.860059 l 1.5707431,-0.0622 0.839239,-1.329203 0.5445425,1.474644 1.5234867,0.387418 -1.2341976,0.973581 z"
       stroke-width="0.23672"
       id="path28" />
  </g>
</svg>
