<?xml version="1.0" encoding="UTF-8" standalone="no"?>
<svg
   height="48"
   width="48"
   version="1.1"
   id="svg6"
   sodipodi:docname="wine-winecfg.svg"
   inkscape:version="1.1.2 (0a00cf5339, 2022-02-04)"
   xmlns:inkscape="http://www.inkscape.org/namespaces/inkscape"
   xmlns:sodipodi="http://sodipodi.sourceforge.net/DTD/sodipodi-0.dtd"
   xmlns="http://www.w3.org/2000/svg"
   xmlns:svg="http://www.w3.org/2000/svg"
   xmlns:rdf="http://www.w3.org/1999/02/22-rdf-syntax-ns#"
   xmlns:cc="http://creativecommons.org/ns#"
   xmlns:dc="http://purl.org/dc/elements/1.1/">
  <metadata
     id="metadata12">
    <rdf:RDF>
      <cc:Work
         rdf:about="">
        <dc:format>image/svg+xml</dc:format>
        <dc:type
           rdf:resource="http://purl.org/dc/dcmitype/StillImage" />
        <dc:title />
      </cc:Work>
    </rdf:RDF>
  </metadata>
  <defs
     id="defs10" />
  <sodipodi:namedview
     pagecolor="#ffffff"
     bordercolor="#666666"
     borderopacity="1"
     objecttolerance="10"
     gridtolerance="10"
     guidetolerance="10"
     inkscape:pageopacity="0"
     inkscape:pageshadow="2"
     inkscape:window-width="1920"
     inkscape:window-height="1031"
     id="namedview8"
     showgrid="false"
     inkscape:zoom="6.6880515"
     inkscape:cx="-11.587829"
     inkscape:cy="27.73603"
     inkscape:window-x="0"
     inkscape:window-y="0"
     inkscape:window-maximized="1"
     inkscape:current-layer="svg6"
     inkscape:document-rotation="0"
     inkscape:pagecheckerboard="0" />
  <path
     id="circle2"
     style="opacity:0.99;fill:#9eb0b5"
     transform="matrix(1.75830584759 0 0 1.75830608345 -18.15909274367 -30.97874795549)"
     d="M 37.173613,31.534513 A 13.232998,13.232998 0 0 1 23.940615,44.767511 13.232998,13.232998 0 0 1 10.707617,31.534513 13.232998,13.232998 0 0 1 23.940615,18.301516 13.232998,13.232998 0 0 1 37.173613,31.534513 Z" />
  <rect
     style="fill:#ffffff;fill-rule:evenodd;stroke-width:18.8976;stroke-opacity:0.992157;fill-opacity:0.29081634"
     id="rect866"
     width="28.652889"
     height="28.652889"
     x="9.6698523"
     y="10.258472"
     ry="1.44712" />
  <rect
     style="fill:#ffffff;fill-rule:evenodd;stroke-width:18.8976;stroke-opacity:0.992157;fill-opacity:0.83673471"
     id="rect948"
     width="28.652889"
     height="28.652889"
     x="-14.742661"
     y="20.025661"
     ry="1.44712"
     transform="rotate(-45)" />
  <path
     d="m 14.907993,15.282492 v 8 h 8 v -8 z m 10,0 v 8 h 8 v -8 z m -10,10 v 8 h 8 v -8 z m 10,0 v 8 h 8 v -8 z"
     fill-opacity="0.577273"
     id="path10"
     style="fill:#9eb0b5;fill-opacity:0.99215686" />
</svg>
