<?xml version="1.0" encoding="UTF-8" standalone="no"?>
<svg
   xmlns:dc="http://purl.org/dc/elements/1.1/"
   xmlns:cc="http://creativecommons.org/ns#"
   xmlns:rdf="http://www.w3.org/1999/02/22-rdf-syntax-ns#"
   xmlns:svg="http://www.w3.org/2000/svg"
   xmlns="http://www.w3.org/2000/svg"
   xmlns:sodipodi="http://sodipodi.sourceforge.net/DTD/sodipodi-0.dtd"
   xmlns:inkscape="http://www.inkscape.org/namespaces/inkscape"
   height="48"
   width="48"
   version="1.1"
   id="svg6"
   sodipodi:docname="wmtweaks.svg"
   inkscape:version="1.0.2 (e86c870879, 2021-01-15)">
  <metadata
     id="metadata12">
    <rdf:RDF>
      <cc:Work
         rdf:about="">
        <dc:format>image/svg+xml</dc:format>
        <dc:type
           rdf:resource="http://purl.org/dc/dcmitype/StillImage" />
        <dc:title />
      </cc:Work>
    </rdf:RDF>
  </metadata>
  <defs
     id="defs10" />
  <sodipodi:namedview
     pagecolor="#ffffff"
     bordercolor="#666666"
     borderopacity="1"
     objecttolerance="10"
     gridtolerance="10"
     guidetolerance="10"
     inkscape:pageopacity="0"
     inkscape:pageshadow="2"
     inkscape:window-width="1920"
     inkscape:window-height="1028"
     id="namedview8"
     showgrid="false"
     inkscape:zoom="13.376103"
     inkscape:cx="15.717127"
     inkscape:cy="22.326507"
     inkscape:window-x="0"
     inkscape:window-y="24"
     inkscape:window-maximized="1"
     inkscape:current-layer="svg6"
     inkscape:document-rotation="0" />
  <circle
     cx="23.940615"
     cy="31.534513"
     fill="#5e81ac"
     opacity=".99"
     r="13.232998"
     transform="matrix(1.75830584759 0 0 1.75830608345 -18.15909274367 -30.97874795549)"
     id="circle2"
     style="fill:#5e81ac;fill-opacity:1" />
  <path
     id="rect2"
     style="fill:#ffffff;fill-opacity:0.46650904;stroke-width:0.842732"
     transform="rotate(-90)"
     d="m -37.464246,9.6698523 h 25.758658 c 0.801702,0 1.447116,0.6454137 1.447116,1.4471157 v 25.758658 c 0,0.801702 -0.645414,1.447116 -1.447116,1.447116 h -25.758658 c -0.801702,0 -1.447116,-0.645414 -1.447116,-1.447116 V 11.116968 c 0,-0.801702 0.645414,-1.4471157 1.447116,-1.4471157 z" />
  <path
     id="rect4"
     style="fill:#ffffff;fill-opacity:1;stroke-width:0.842732"
     transform="rotate(-45)"
     d="m -13.295546,20.025663 h 25.758658 c 0.801702,0 1.447116,0.645414 1.447116,1.447116 v 25.758658 c 0,0.801702 -0.645414,1.447116 -1.447116,1.447116 h -25.758658 c -0.801702,0 -1.447115,-0.645414 -1.447115,-1.447116 V 21.472779 c 0,-0.801702 0.645413,-1.447116 1.447115,-1.447116 z" />
  <path
     id="path6"
     style="stroke-width:0.842732;fill:#5e81ac;fill-opacity:0.99215686"
     d="M 24.005859 20.222656 A 4.1843198 4.1843198 0 0 0 19.849609 24.222656 A 4.1843198 4.1843198 0 0 0 23.835938 28.587891 A 4.1843198 4.1843198 0 0 0 28.208984 24.607422 L 28.208984 24.576172 A 4.1843198 4.1843198 0 0 0 24.207031 20.226562 A 4.1843198 4.1843198 0 0 0 24.005859 20.222656 z " />
</svg>
