<?xml version="1.0" encoding="UTF-8" standalone="no"?>
<svg
   xmlns:dc="http://purl.org/dc/elements/1.1/"
   xmlns:cc="http://creativecommons.org/ns#"
   xmlns:rdf="http://www.w3.org/1999/02/22-rdf-syntax-ns#"
   xmlns:svg="http://www.w3.org/2000/svg"
   xmlns="http://www.w3.org/2000/svg"
   xmlns:sodipodi="http://sodipodi.sourceforge.net/DTD/sodipodi-0.dtd"
   xmlns:inkscape="http://www.inkscape.org/namespaces/inkscape"
   height="48"
   width="48"
   version="1.1"
   id="svg10"
   sodipodi:docname="x-tile.svg"
   inkscape:version="1.0.2 (e86c870879, 2021-01-15)">
  <metadata
     id="metadata16">
    <rdf:RDF>
      <cc:Work
         rdf:about="">
        <dc:format>image/svg+xml</dc:format>
        <dc:type
           rdf:resource="http://purl.org/dc/dcmitype/StillImage" />
        <dc:title></dc:title>
      </cc:Work>
    </rdf:RDF>
  </metadata>
  <defs
     id="defs14" />
  <sodipodi:namedview
     pagecolor="#ffffff"
     bordercolor="#666666"
     borderopacity="1"
     objecttolerance="10"
     gridtolerance="10"
     guidetolerance="10"
     inkscape:pageopacity="0"
     inkscape:pageshadow="2"
     inkscape:window-width="1920"
     inkscape:window-height="1028"
     id="namedview12"
     showgrid="false"
     inkscape:zoom="9.4583331"
     inkscape:cx="12.460448"
     inkscape:cy="43.088892"
     inkscape:window-x="0"
     inkscape:window-y="24"
     inkscape:window-maximized="1"
     inkscape:current-layer="svg10"
     inkscape:document-rotation="0" />
  <g
     fill="#be514c"
     opacity=".99"
     transform="matrix(1.1503549 0 0 1.1503549 -4.486125 -7.525565)"
     id="g6"
     style="fill:#85bfb3;fill-opacity:1">
    <path
       d="m44.322082 27.405077a19.729762 19.729765 0 0 1 -19.729762 19.729765 19.729762 19.729765 0 0 1 -19.7297621-19.729765 19.729762 19.729765 0 0 1 19.7297621-19.7297632 19.729762 19.729765 0 0 1 19.729762 19.7297632z"
       id="path2"
       style="fill:#85bfb3;fill-opacity:1" />
    <path
       d="m44.322082 27.405077a19.729762 19.729765 0 0 1 -19.729762 19.729765 19.729762 19.729765 0 0 1 -19.7297621-19.729765 19.729762 19.729765 0 0 1 19.7297621-19.7297632 19.729762 19.729765 0 0 1 19.729762 19.7297632z"
       id="path4"
       style="fill:#85bfb3;fill-opacity:1" />
    <path
       d="m 44.322082,27.405077 c 0,10.896448 -8.833315,19.729765 -19.729762,19.729765 V 7.6753138 c 10.896446,0 19.729761,8.8333152 19.729762,19.7297632 z"
       id="path835"
       style="fill:#daca95;fill-opacity:1"
       sodipodi:nodetypes="sccs" />
    <path
       d="m 44.322082,27.405077 c 0,10.896448 -8.833315,19.729765 -19.729762,19.729765 -10.896447,0 -19.7297621,-8.833317 -19.7297621,-19.729765 z"
       id="path833"
       style="fill:#84b8de;fill-opacity:1"
       sodipodi:nodetypes="cscc" />
  </g>
  <path
     d="M 46.499999,24 A 22.696228,22.696232 0 0 1 23.803771,46.696231 22.696228,22.696232 0 0 1 1.1075422,24 22.696228,22.696232 0 0 1 23.803771,1.3037698 22.696228,22.696232 0 0 1 46.499999,24 Z"
     id="path837"
     style="opacity:0.99;fill:#5f676a;fill-opacity:1;stroke-width:1.15035" />
  <rect
     style="fill:#d0e2e8;fill-opacity:1;stroke-width:0.993828;stroke-linecap:round;stroke-linejoin:round"
     id="rect849"
     width="12.324939"
     height="12.324939"
     x="8.1812153"
     y="9.1801834"
     rx="1.3102237"
     ry="1.3102237" />
  <path
     id="rect851"
     style="fill:#a5bcc4;fill-opacity:1;stroke-width:0.993828;stroke-linecap:round;stroke-linejoin:round"
     d="m 9.4916249,9.1806655 c -0.7258639,0 -1.3096136,0.58375 -1.3096136,1.3096135 v 0.677919 0.183174 1.309614 h 1.3096136 9.7048351 1.309613 v -1.309614 -0.183174 -0.677919 c 0,-0.7258635 -0.583749,-1.3096135 -1.309613,-1.3096135 z" />
  <rect
     style="fill:#bbd6c5;fill-opacity:1;stroke-width:0.993828;stroke-linecap:round;stroke-linejoin:round"
     id="rect856"
     width="12.324939"
     height="12.324939"
     x="26.372269"
     y="9.3961601"
     rx="1.3102237"
     ry="1.3102237" />
  <path
     id="path858"
     style="fill:#a3c1ae;fill-opacity:1;stroke-width:0.993828;stroke-linecap:round;stroke-linejoin:round"
     d="m 27.682679,9.3966415 c -0.725863,0 -1.309614,0.58375 -1.309614,1.3096135 v 0.677918 0.183175 1.309613 h 1.309614 9.704836 1.309613 v -1.309613 -0.183175 -0.677918 c 0,-0.7258635 -0.583749,-1.3096135 -1.309613,-1.3096135 z" />
  <rect
     style="fill:#cbafcb;fill-opacity:1;stroke-width:0.993828;stroke-linecap:round;stroke-linejoin:round"
     id="rect860"
     width="12.324939"
     height="12.324939"
     x="8.9166012"
     y="27.396811"
     rx="1.3102237"
     ry="1.3102237" />
  <path
     id="path862"
     style="fill:#b090b0;fill-opacity:1;stroke-width:0.993828;stroke-linecap:round;stroke-linejoin:round"
     d="m 10.227011,27.397293 c -0.7258631,0 -1.3096136,0.58375 -1.3096136,1.309613 v 0.677918 0.183175 1.309614 h 1.3096136 9.704836 1.309613 v -1.309614 -0.183175 -0.677918 c 0,-0.725863 -0.58375,-1.309613 -1.309613,-1.309613 z" />
  <rect
     style="fill:#f0e5ae;fill-opacity:1;stroke-width:0.993828;stroke-linecap:round;stroke-linejoin:round"
     id="rect860-3"
     width="12.324939"
     height="12.324939"
     x="25.384857"
     y="26.713423"
     rx="1.3102237"
     ry="1.3102237" />
  <path
     id="path862-6"
     style="fill:#e5d197;fill-opacity:1;stroke-width:0.993828;stroke-linecap:round;stroke-linejoin:round"
     d="m 26.695265,26.713906 c -0.725863,0 -1.309613,0.583749 -1.309613,1.309613 v 0.677918 0.183174 1.309614 h 1.309613 9.704837 1.309613 v -1.309614 -0.183174 -0.677918 c 0,-0.725864 -0.58375,-1.309613 -1.309613,-1.309613 z" />
  <path
     style="fill:#ffffff;fill-opacity:1;stroke-width:0.594363"
     d="m 12.015875,14.64843 v 1.463048 l 3.264124,0.434959 6.528249,7.710654 -7.015429,7.631571 -2.776942,0.316333 v 1.463048 h 9.509805 v -1.463048 l -3.078996,-0.276792 -0.24359,-0.474502 4.969265,-5.733562 4.530797,5.891729 -0.243591,0.316335 -2.367708,0.276792 v 1.463048 h 10.698532 v -1.463048 l -2.923094,-0.316333 -7.161588,-8.461949 6.430813,-6.919817 2.465144,-0.395418 V 14.64843 h -8.32108 v 1.463048 l 2.153348,0.237251 0.389746,0.514043 -4.433364,5.061352 -4.092333,-5.179978 0.243589,-0.395417 2.172836,-0.237251 V 14.64843 Z"
     id="path24" />
</svg>
