<?xml version="1.0" encoding="UTF-8" standalone="no"?>
<svg
   xmlns:dc="http://purl.org/dc/elements/1.1/"
   xmlns:cc="http://creativecommons.org/ns#"
   xmlns:rdf="http://www.w3.org/1999/02/22-rdf-syntax-ns#"
   xmlns:svg="http://www.w3.org/2000/svg"
   xmlns="http://www.w3.org/2000/svg"
   xmlns:sodipodi="http://sodipodi.sourceforge.net/DTD/sodipodi-0.dtd"
   xmlns:inkscape="http://www.inkscape.org/namespaces/inkscape"
   height="48"
   width="48"
   version="1.1"
   id="svg6"
   sodipodi:docname="xampp.svg"
   inkscape:version="1.0.2 (e86c870879, 2021-01-15)">
  <metadata
     id="metadata12">
    <rdf:RDF>
      <cc:Work
         rdf:about="">
        <dc:format>image/svg+xml</dc:format>
        <dc:type
           rdf:resource="http://purl.org/dc/dcmitype/StillImage" />
        <dc:title></dc:title>
      </cc:Work>
    </rdf:RDF>
  </metadata>
  <defs
     id="defs10" />
  <sodipodi:namedview
     pagecolor="#ffffff"
     bordercolor="#666666"
     borderopacity="1"
     objecttolerance="10"
     gridtolerance="10"
     guidetolerance="10"
     inkscape:pageopacity="0"
     inkscape:pageshadow="2"
     inkscape:window-width="1920"
     inkscape:window-height="1031"
     id="namedview8"
     showgrid="false"
     inkscape:zoom="13.376103"
     inkscape:cx="17.150555"
     inkscape:cy="27.709084"
     inkscape:window-x="0"
     inkscape:window-y="24"
     inkscape:window-maximized="1"
     inkscape:current-layer="svg6"
     inkscape:document-rotation="0" />
  <circle
     cx="23.940615"
     cy="31.534513"
     fill="#5e81ac"
     opacity=".99"
     id="circle2"
     style="fill:#decd99;fill-opacity:1"
     transform="matrix(1.75830584759 0 0 1.75830608345 -18.15909274367 -30.97874795549)"
     r="13.232998" />
  <path
     d="m 16.935801,10.468494 a 7,7 0 0 0 -7.0000004,7 7,7 0 0 0 6.5644994,6.9844 c 0.05966,-0.09489 0.10813,-0.18611 0.17383,-0.2832 0.68592,-1.0136 1.951,-1.9183 3.1973,-2.2812 1.247,-0.363 2.48,-0.42 4.065,-0.42 a 3.0003,3.0003 0 0 1 0.43945,0.0332 c 0.98874,0.14623 1.4321,0.04025 1.5508,-0.0039 0.11865,-0.04416 0.08741,0.0063 0.27148,-0.27148 0.36815,-0.55548 0.93216,-2.4934 1.9805,-4.9395 a 3.0003,3.0003 0 0 1 2.7441,-1.8574 3.0003,3.0003 0 0 1 2.7715,4.2207 c -0.79786,1.8617 -1.1285,3.7811 -2.4414,5.8027 a 7,7 0 0 0 6.683,-6.984 7,7 0 0 0 -7,-7 7,7 0 0 0 -6.9824,6.5234 7,7 0 0 0 -0.01758,0 7,7 0 0 0 -0.02344,0 7,7 0 0 0 -6.977,-6.523 z m 0,4 a 3,3 0 0 1 3,3 3,3 0 0 1 -3,3 3,3 0 0 1 -3,-3 3,3 0 0 1 3,-3 z m 14.301,10.01 c -0.0136,0.02081 -0.0233,0.04167 -0.03711,0.0625 -0.680641,1.027 -1.786301,2.0634 -3.179701,2.582 -1.2909,0.48046 -2.683699,0.53365 -4.1719,0.34961 -1.2575,0.0058 -2.0048,0.10599 -2.248,0.17188 -0.06297,0.14144 -0.59502,2.0073 -1.916,5.0273 a 3.0003,3.0003 0 1 1 -5.4961,-2.4062 c 1.0581,-2.419 1.1253,-3.9059 2.2871,-5.7734 a 7,7 0 0 0 -6.5390004,6.976 7,7 0 0 0 7.0000004,7 7,7 0 0 0 7,-7 7,7 0 0 0 -0.02344,-0.47852 7,7 0 0 0 0.02344,0.002 7,7 0 0 0 0.01758,0 7,7 0 0 0 -0.018,0.477 7,7 0 0 0 7,7 7,7 0 0 0 7,-7 7,7 0 0 0 -6.6992,-6.9902 z m -0.301,3.99 a 3,3 0 0 1 3,3 3,3 0 0 1 -3,3 3,3 0 0 1 -3,-3 3,3 0 0 1 3,-3 z"
     fill="#ffffff"
     id="path4" />
</svg>
