<?xml version="1.0" encoding="UTF-8" standalone="no"?>
<svg
   xmlns:dc="http://purl.org/dc/elements/1.1/"
   xmlns:cc="http://creativecommons.org/ns#"
   xmlns:rdf="http://www.w3.org/1999/02/22-rdf-syntax-ns#"
   xmlns:svg="http://www.w3.org/2000/svg"
   xmlns="http://www.w3.org/2000/svg"
   xmlns:sodipodi="http://sodipodi.sourceforge.net/DTD/sodipodi-0.dtd"
   xmlns:inkscape="http://www.inkscape.org/namespaces/inkscape"
   height="48"
   width="48"
   version="1.1"
   id="svg6"
   sodipodi:docname="xcas.svg"
   inkscape:version="1.0.2 (e86c870879, 2021-01-15)">
  <metadata
     id="metadata12">
    <rdf:RDF>
      <cc:Work
         rdf:about="">
        <dc:format>image/svg+xml</dc:format>
        <dc:type
           rdf:resource="http://purl.org/dc/dcmitype/StillImage" />
        <dc:title></dc:title>
      </cc:Work>
    </rdf:RDF>
  </metadata>
  <defs
     id="defs10" />
  <sodipodi:namedview
     pagecolor="#ffffff"
     bordercolor="#666666"
     borderopacity="1"
     objecttolerance="10"
     gridtolerance="10"
     guidetolerance="10"
     inkscape:pageopacity="0"
     inkscape:pageshadow="2"
     inkscape:window-width="1920"
     inkscape:window-height="1031"
     id="namedview8"
     showgrid="false"
     inkscape:zoom="13.376103"
     inkscape:cx="17.150555"
     inkscape:cy="27.709084"
     inkscape:window-x="0"
     inkscape:window-y="24"
     inkscape:window-maximized="1"
     inkscape:current-layer="svg6"
     inkscape:document-rotation="0" />
  <circle
     cx="23.940615"
     cy="31.534513"
     fill="#5e81ac"
     opacity=".99"
     id="circle2"
     style="fill:#a2c1d5;fill-opacity:1"
     transform="matrix(1.75830584759 0 0 1.75830608345 -18.15909274367 -30.97874795549)"
     r="13.232998" />
  <path
     d="m 23.93412,9.4685365 c -1.104569,0 -2,0.8954315 -2,2.0000005 0.0013,0.713268 0.38229,1.371883 1,1.728516 v 2.279295 L 20.533729,13.67752 c -1.074496,-0.859399 -2.325409,0.809167 -1.199218,1.59961 l 3.599609,2.699218 v 4.759766 L 18.813026,20.357208 18.295448,16.05252 c 0.0247,-0.574393 -0.438808,-1.051268 -1.013672,-1.042968 h -0.01172 l -0.01367,0.002 c -0.02872,8e-4 -0.05739,0.0027 -0.08594,0.0059 -0.550897,0.06226 -0.946029,0.560768 -0.880859,1.111328 l 0.357424,2.978428 -1.972657,-1.138672 c -1.62e-4,-0.713564 -0.380486,-1.372993 -0.998047,-1.730469 -0.956329,-0.551145 -2.178354,-0.223349 -2.730468,0.732422 -0.551473,0.955818 -0.224594,2.177686 0.730468,2.730469 0.618306,0.356514 1.379741,0.356514 1.998047,0 l 1.97461,1.138672 -2.759766,1.179687 c -1.018707,0.422352 -0.704221,1.940828 0.398437,1.923828 0.134007,-0.0023 0.266182,-0.03154 0.388672,-0.08594 l 4.138672,-1.767575 4.119141,2.378906 -4.119141,2.378906 -4.138672,-1.767578 c -0.12249,-0.0544 -0.254665,-0.08362 -0.388672,-0.08594 -1.102658,-0.017 -1.417144,1.501476 -0.398437,1.923828 l 2.759766,1.179688 -1.97461,1.138672 c -0.618306,-0.356515 -1.379741,-0.356515 -1.998047,0 -0.955062,0.552783 -1.281941,1.77465 -0.730468,2.730468 0.552114,0.955771 1.774139,1.283567 2.730468,0.732422 0.617561,-0.357475 0.997885,-1.016905 0.998047,-1.730469 l 1.972657,-1.138671 -0.357422,2.978515 c -0.06517,0.55056 0.329962,1.04907 0.880859,1.111328 0.02855,0.0032 0.05722,0.0051 0.08594,0.0059 l 0.01367,0.002 h 0.01172 c 0.574864,0.0083 1.038376,-0.468575 1.013672,-1.042968 l 0.517578,-4.304688 4.121094,-2.378906 v 4.759766 l -3.599609,2.699218 c -1.126191,0.790444 0.124722,2.45901 1.199218,1.59961 l 2.400391,-1.798828 v 2.279296 c -0.61771,0.356634 -0.998739,1.015248 -1,1.728516 0,1.104569 0.895431,2 2,2 1.104569,0 2,-0.895431 2,-2 -5.65e-4,-0.713966 -0.381687,-1.373486 -1,-1.730469 v -2.277343 l 2.400391,1.798828 c 0.139485,0.104196 0.303755,0.170175 0.476562,0.191406 0.01169,0.0015 0.02341,0.0028 0.03516,0.0039 0.0292,0.0032 0.05852,0.0052 0.08789,0.0059 1.030365,0.01187 1.403221,-1.353836 0.509765,-1.867188 l -3.509765,-2.632812 v -4.759766 l 4.123047,2.378906 0.539062,4.466797 c 0.05539,0.457997 0.41688,0.818677 0.875,0.873047 h 0.0039 l 0.01367,0.002 c 0.01624,0.0017 0.03252,0.003 0.04883,0.0039 0.01236,8.81e-4 0.02473,0.0015 0.03711,0.002 h 0.01367 c 0.671503,0.0083 1.160184,-0.634456 0.972656,-1.279296 l -0.339841,-2.818568 1.97461,1.138672 c 1.61e-4,0.713564 0.380485,1.372991 0.998046,1.730469 0.956765,0.552475 2.180254,0.224522 2.732422,-0.732422 0.551146,-0.95633 0.223349,-2.178355 -0.732422,-2.730469 -0.618304,-0.356514 -1.379741,-0.356514 -1.998046,0 l -1.97461,-1.138671 2.759766,-1.179688 c 1.037738,-0.427088 0.693207,-1.976689 -0.427734,-1.923828 -0.123427,0.0063 -0.244615,0.03545 -0.357422,0.08594 l -4.138672,1.767576 -4.121094,-2.378907 4.121094,-2.378906 4.138672,1.767578 c 0.112807,0.05049 0.233995,0.07964 0.357422,0.08594 1.120941,0.05286 1.465472,-1.496739 0.427734,-1.923828 l -2.759766,-1.179687 1.97461,-1.138672 c 0.618305,0.356514 1.379742,0.356514 1.998046,0 0.955771,-0.552114 1.283568,-1.774138 0.732422,-2.730469 -0.552168,-0.956945 -1.775657,-1.284899 -2.732422,-0.732424 -0.617561,0.357479 -0.997885,1.016905 -0.998046,1.730468 l -1.97461,1.138672 0.339844,-2.818359 c 0.187528,-0.64484 -0.301153,-1.287596 -0.972656,-1.279296 h -0.01367 c -0.01238,5e-4 -0.02475,0.0011 -0.03711,0.002 -0.01631,9e-4 -0.03259,0.0022 -0.04883,0.0039 l -0.01367,0.002 h -0.0039 c -0.45812,0.05437 -0.81961,0.41505 -0.875,0.873047 l -0.539062,4.466797 -4.123047,2.378906 v -4.759853 l 3.509757,-2.632812 c 0.893456,-0.513352 0.5206,-1.879058 -0.509765,-1.867188 -0.02937,7.01e-4 -0.05869,0.0027 -0.08789,0.0059 -0.01175,0.0011 -0.02347,0.0024 -0.03516,0.0039 -0.172807,0.02123 -0.337077,0.08721 -0.476562,0.191406 l -2.400391,1.798828 V 13.19904 c 0.618313,-0.356983 0.999435,-1.016503 1,-1.730469 0,-1.104569 -0.895431,-2.0000005 -2,-2.0000005 z"
     fill="#ffffff"
     fill-rule="evenodd"
     id="path4" />
</svg>
