<?xml version="1.0" encoding="UTF-8" standalone="no"?>
<svg
   height="48"
   width="48"
   version="1.1"
   id="svg6"
   sodipodi:docname="xfce4-whiskermenu.svg"
   inkscape:version="1.1.2 (0a00cf5339, 2022-02-04)"
   xmlns:inkscape="http://www.inkscape.org/namespaces/inkscape"
   xmlns:sodipodi="http://sodipodi.sourceforge.net/DTD/sodipodi-0.dtd"
   xmlns="http://www.w3.org/2000/svg"
   xmlns:svg="http://www.w3.org/2000/svg"
   xmlns:rdf="http://www.w3.org/1999/02/22-rdf-syntax-ns#"
   xmlns:cc="http://creativecommons.org/ns#"
   xmlns:dc="http://purl.org/dc/elements/1.1/">
  <metadata
     id="metadata12">
    <rdf:RDF>
      <cc:Work
         rdf:about="">
        <dc:format>image/svg+xml</dc:format>
        <dc:type
           rdf:resource="http://purl.org/dc/dcmitype/StillImage" />
        <dc:title />
      </cc:Work>
    </rdf:RDF>
  </metadata>
  <defs
     id="defs10" />
  <sodipodi:namedview
     pagecolor="#ffffff"
     bordercolor="#666666"
     borderopacity="1"
     objecttolerance="10"
     gridtolerance="10"
     guidetolerance="10"
     inkscape:pageopacity="0"
     inkscape:pageshadow="2"
     inkscape:window-width="1920"
     inkscape:window-height="1031"
     id="namedview8"
     showgrid="false"
     inkscape:zoom="9.4583336"
     inkscape:cx="16.863436"
     inkscape:cy="45.832598"
     inkscape:window-x="0"
     inkscape:window-y="0"
     inkscape:window-maximized="1"
     inkscape:current-layer="svg6"
     inkscape:document-rotation="0"
     inkscape:pagecheckerboard="0" />
  <path
     id="circle2"
     style="opacity:0.99;fill:#88c0d0;fill-opacity:1"
     transform="matrix(1.75830584759 0 0 1.75830608345 -18.15909274367 -30.97874795549)"
     d="M 37.173613,31.534513 A 13.232998,13.232998 0 0 1 23.940615,44.767511 13.232998,13.232998 0 0 1 10.707617,31.534513 13.232998,13.232998 0 0 1 23.940615,18.301516 13.232998,13.232998 0 0 1 37.173613,31.534513 Z" />
  <path
     id="rect890"
     style="fill:#ffffff;stroke-width:2;fill-opacity:1"
     d="M 5.1503906 35.511719 A 21.791618 21.79162 0 0 0 23.935547 46.259766 A 21.791618 21.79162 0 0 0 42.720703 35.511719 L 5.1503906 35.511719 z " />
  <rect
     style="fill:#ffffff;stroke-width:2;fill-opacity:1"
     id="rect895"
     width="17.280645"
     height="23.959663"
     x="7.1805463"
     y="9.7474937"
     ry="0"
     rx="0" />
  <path
     id="path902"
     style="fill:#88c0d0;fill-opacity:1;stroke-width:2.19738"
     d="m 20.197608,40.767754 a 4.1613507,4.1613507 0 0 1 -4.161351,4.16135 4.1613507,4.1613507 0 0 1 -4.161351,-4.16135 4.1613507,4.1613507 0 0 1 4.161351,-4.161351 4.1613507,4.1613507 0 0 1 4.161351,4.161351 z" />
  <path
     id="rect904"
     style="fill:#88c0d0;fill-opacity:1;stroke-width:1.57243"
     d="m 8.3970013,12.330717 h 9.4659827 v 1.370591 H 8.3970013 Z" />
  <path
     id="rect906"
     style="fill:#88c0d0;fill-opacity:1;stroke-width:1.57243"
     d="M 8.3970013,19.561819 H 17.862984 V 20.93241 H 8.3970013 Z" />
  <path
     id="rect908"
     style="fill:#88c0d0;fill-opacity:1;stroke-width:1.57243"
     d="m 8.3970013,26.884331 h 9.4659827 v 1.370591 H 8.3970013 Z" />
</svg>
