<?xml version="1.0" encoding="UTF-8" standalone="no"?>
<svg
   height="48"
   width="48"
   version="1.1"
   id="svg6"
   sodipodi:docname="xmind.svg"
   inkscape:version="1.1.2 (0a00cf5339, 2022-02-04)"
   xmlns:inkscape="http://www.inkscape.org/namespaces/inkscape"
   xmlns:sodipodi="http://sodipodi.sourceforge.net/DTD/sodipodi-0.dtd"
   xmlns="http://www.w3.org/2000/svg"
   xmlns:svg="http://www.w3.org/2000/svg"
   xmlns:rdf="http://www.w3.org/1999/02/22-rdf-syntax-ns#"
   xmlns:cc="http://creativecommons.org/ns#"
   xmlns:dc="http://purl.org/dc/elements/1.1/">
  <metadata
     id="metadata12">
    <rdf:RDF>
      <cc:Work
         rdf:about="">
        <dc:format>image/svg+xml</dc:format>
        <dc:type
           rdf:resource="http://purl.org/dc/dcmitype/StillImage" />
        <dc:title />
      </cc:Work>
    </rdf:RDF>
  </metadata>
  <defs
     id="defs10" />
  <sodipodi:namedview
     pagecolor="#ffffff"
     bordercolor="#666666"
     borderopacity="1"
     objecttolerance="10"
     gridtolerance="10"
     guidetolerance="10"
     inkscape:pageopacity="0"
     inkscape:pageshadow="2"
     inkscape:window-width="1920"
     inkscape:window-height="1031"
     id="namedview8"
     showgrid="false"
     inkscape:zoom="13.376103"
     inkscape:cx="3.1025479"
     inkscape:cy="27.69865"
     inkscape:window-x="0"
     inkscape:window-y="0"
     inkscape:window-maximized="1"
     inkscape:current-layer="svg6"
     inkscape:document-rotation="0"
     inkscape:pagecheckerboard="0" />
  <path
     id="circle2"
     style="opacity:0.99;fill:#d08770;fill-opacity:1"
     transform="matrix(1.75830584759 0 0 1.75830608345 -18.15909274367 -30.97874795549)"
     d="M 37.173613,31.534513 A 13.232998,13.232998 0 0 1 23.940615,44.767511 13.232998,13.232998 0 0 1 10.707617,31.534513 13.232998,13.232998 0 0 1 23.940615,18.301516 13.232998,13.232998 0 0 1 37.173613,31.534513 Z" />
  <path
     d="m 17.86577,15.445229 c -0.066,0.001 -0.14042,0.0063 -0.2259,0.01191 -0.32397,0.02068 -6.43749,1.165345 -6.82657,1.27826 -0.41135,0.119308 -0.76264,0.371368 -0.84835,0.610496 -0.146151,0.406374 0.27742,1.727078 0.83656,2.613839 2.230624,2.648874 4.707212,3.32193 7.13432,4.749286 0.27856,0.326543 0.38857,0.484168 -1.74822,1.430265 -3.33963,1.478788 -4.420575,2.736552 -5.060195,4.597291 -0.18889,0.549824 -0.27666,2.003781 -0.14348,2.369655 0.17285,0.474275 0.27704,0.569763 3.50379,-0.04233 3.24141,-0.614905 2.973365,-0.650893 3.243685,-0.906996 0.22018,-0.208603 0.23277,-0.258913 0.32893,-1.245886 0.0554,-0.565567 0.16981,-1.669919 0.25375,-1.96248 0.19462,-0.679411 0.68413,-1.388918 1.21724,-1.764163 2.021821,-1.422952 5.827191,-0.713372 7.886431,1.47015 0.77593,0.822735 1.26317,1.997092 1.65202,3.273095 0.22437,0.736239 0.45222,1.055898 0.80606,1.126286 0.32551,0.06466 0.33352,-0.03713 4.45785,-0.820243 2.2942,-0.435613 3.24897,-0.647466 3.38395,-0.752504 0.29,-0.225872 0.29114,-0.778599 0.002,-1.691905 -0.49578,-1.569264 -1.35592,-2.612445 -2.94913,-3.819409 -0.78818,-0.597093 -1.78343,-1.161594 -3.46854,-1.968493 -1.60279,-0.767486 -2.366141,-0.975129 -2.366141,-1.213473 0,-0.197081 0.629491,-0.284894 1.900871,-0.665298 2.78583,-0.833704 4.128249,-2.003217 4.128249,-4.168698 0,-0.950306 -0.17934,-1.717174 -0.45824,-1.965996 -0.37091,-0.330941 -1.022229,-0.341419 -2.579659,-0.05975 -4.99234,0.902744 -4.648551,0.867551 -4.880791,1.24338 -0.12287,0.198752 -0.11752,0.245395 0.10837,1.148704 0.12936,0.517868 0.23354,1.165717 0.23277,1.316009 -0.002,0.319649 -0.417279,0.853636 -0.620399,1.044042 -0.49701,0.465626 -1.62362,0.782412 -2.77763,0.782412 -1.39578,0 -2.44743,-0.479802 -3.49203,-1.592225 -0.754821,-0.803807 -1.140161,-1.581651 -1.654391,-3.012898 -0.45157,-1.257043 -0.5135,-1.420894 -0.97759,-1.412829 z"
     fill="#ffffff"
     id="path4" />
</svg>
