<?xml version="1.0" encoding="UTF-8" standalone="no"?>
<svg
   height="48"
   width="48"
   version="1.1"
   id="svg6"
   sodipodi:docname="yast-sw_single.svg"
   inkscape:version="1.1.2 (0a00cf5339, 2022-02-04)"
   xmlns:inkscape="http://www.inkscape.org/namespaces/inkscape"
   xmlns:sodipodi="http://sodipodi.sourceforge.net/DTD/sodipodi-0.dtd"
   xmlns="http://www.w3.org/2000/svg"
   xmlns:svg="http://www.w3.org/2000/svg"
   xmlns:rdf="http://www.w3.org/1999/02/22-rdf-syntax-ns#"
   xmlns:cc="http://creativecommons.org/ns#"
   xmlns:dc="http://purl.org/dc/elements/1.1/">
  <metadata
     id="metadata12">
    <rdf:RDF>
      <cc:Work
         rdf:about="">
        <dc:format>image/svg+xml</dc:format>
        <dc:type
           rdf:resource="http://purl.org/dc/dcmitype/StillImage" />
      </cc:Work>
    </rdf:RDF>
  </metadata>
  <defs
     id="defs10" />
  <sodipodi:namedview
     pagecolor="#ffffff"
     bordercolor="#666666"
     borderopacity="1"
     objecttolerance="10"
     gridtolerance="10"
     guidetolerance="10"
     inkscape:pageopacity="0"
     inkscape:pageshadow="2"
     inkscape:window-width="1920"
     inkscape:window-height="1031"
     id="namedview8"
     showgrid="false"
     inkscape:zoom="13.376103"
     inkscape:cx="19.400269"
     inkscape:cy="33.230904"
     inkscape:window-x="0"
     inkscape:window-y="0"
     inkscape:window-maximized="1"
     inkscape:current-layer="svg6"
     inkscape:document-rotation="0"
     inkscape:pagecheckerboard="0" />
  <path
     id="circle2"
     style="opacity:0.99;fill:#a3be8c;fill-opacity:1"
     transform="matrix(1.75830584759 0 0 1.75830608345 -18.15909274367 -30.97874795549)"
     d="M 37.173613,31.534513 A 13.232998,13.232998 0 0 1 23.940615,44.767511 13.232998,13.232998 0 0 1 10.707617,31.534513 13.232998,13.232998 0 0 1 23.940615,18.301516 13.232998,13.232998 0 0 1 37.173613,31.534513 Z" />
  <path
     d="M 12.196354,28.190418 V 38.704551 H 35.196021 V 28.190418"
     fill="none"
     stroke="#ffffff"
     stroke-linejoin="round"
     stroke-width="3.28567"
     id="path8"
     style="stroke:#ffffff;stroke-opacity:0.977359" />
  <path
     d="m 8.910687,22.276218 c 0,4.9285 9.857001,4.9285 9.857001,0 0,4.9285 9.856999,4.9285 9.856999,0 0,4.9285 9.857,4.9285 9.857,0 L 36.838854,10.776385 H 10.553521 Z"
     fill="#ffffff"
     id="path6"
     style="fill:#ffffffbff;fill-opacity:1;stroke-width:1.64283" />
  <path
     id="circle6"
     style="fill:#ffffff;stroke:#a3be8c;stroke-width:1.6;stroke-linecap:round;stroke-opacity:1"
     d="m 41.679817,34.978462 a 8.25,8.25 0 0 1 -8.25,8.25 8.25,8.25 0 0 1 -8.25,-8.25 8.25,8.25 0 0 1 8.25,-8.25 8.25,8.25 0 0 1 8.25,8.25 z" />
  <path
     style="fill:#a3be8c;fill-opacity:1;stroke:none;stroke-width:0.0406186px;stroke-linecap:butt;stroke-linejoin:miter;stroke-opacity:1"
     d="m 30.474639,32.483686 c 0.282307,0.0056 0.402845,0.146743 0.604755,0.387383 0.159221,0.201984 0.225666,0.172312 0.507891,0.09544 0.711814,-0.193282 1.380295,-0.274384 2.005066,-0.272273 2.098791,0.0071 3.573134,0.430548 4.752802,1.482499 0.515449,0.42871 0.877752,1.045666 1.02971,1.585155 0.254248,0.872792 0.166693,1.874447 -0.454693,2.466955 -0.481257,0.496799 -1.068043,0.74075 -1.692108,0.625485 -0.876731,-0.161934 -1.275802,-0.77665 -1.293797,-1.439612 -0.01367,-0.503494 0.333239,-1.204219 1.044738,-1.42657 0.364616,-0.113946 0.630223,-0.05343 0.892021,0.08949 0.261799,0.142922 0.41362,0.379088 0.451961,0.625065 0.05427,0.348134 -0.03257,0.447079 -0.09687,0.58659 -0.132451,0.251706 -0.582714,0.611374 -0.832998,0.344306 -0.244524,-0.237708 0.54452,-0.580313 0.131138,-0.843789 -0.04846,-0.02646 -0.175407,-0.06519 -0.42935,-0.02547 -0.229862,0.03596 -0.402862,0.298141 -0.39611,0.6257 0.0067,0.32756 0.142558,0.629919 0.67552,0.728358 0.248357,0.04587 0.687667,-0.09203 0.997297,-0.41166 0.351266,-0.40256 0.562322,-1.124174 0.0026,-1.810937 -0.350202,-0.326351 -0.558707,-0.334028 -1.000947,-0.333675 -1.785064,0.215847 -1.962923,1.209863 -2.143581,1.888287 -0.122324,0.479199 -0.76789,0.410706 -0.769817,0.001 -0.0041,-0.18949 0.04946,-0.337296 0.01801,-0.505987 -0.07677,-0.407558 -0.231704,-0.657312 -0.803835,-0.701598 -0.31378,-0.01629 -0.610715,0.03487 -0.887858,0.16516 -0.318463,0.128534 -0.464824,0.36985 -0.672695,0.644071 l -0.35431,0.467398 c -0.251202,0.339993 -0.577531,0.24748 -0.681791,0.05077 -0.06969,-0.179537 0.183124,-0.823752 0.101547,-1.138721 -0.157221,-0.607947 -1.617034,-0.232578 -2.466148,-0.304639 -0.401165,-0.03661 -0.683886,-0.142899 -0.994997,-0.440695 -0.09639,-0.117047 -0.155783,-0.218291 -0.177231,-0.374373 -0.03811,-0.317605 0.01792,-0.622768 0.08425,-1.0273 0.151891,-0.659847 0.464651,-1.007515 0.960646,-1.236889 0.375057,-0.147192 0.754697,-0.305993 1.1539,-0.420942 0.338364,-0.101967 0.565954,-0.147436 0.735339,-0.144069 z m -1.603562,0.952315 c -0.362591,7e-6 -0.656518,0.293968 -0.65648,0.656561 7e-6,0.362561 0.29392,0.656474 0.65648,0.656481 0.362594,3.6e-5 0.656554,-0.293889 0.656562,-0.656481 3.7e-5,-0.362623 -0.293938,-0.656597 -0.656562,-0.656561 z m 0,0.14875 c 0.28046,-5e-6 0.507817,0.227352 0.507812,0.507811 5e-6,0.280458 -0.227352,0.507815 -0.507812,0.507811 -0.280427,-3.9e-5 -0.507738,-0.227383 -0.50773,-0.507811 -8e-6,-0.280428 0.227303,-0.507773 0.50773,-0.507811 z m 0,0.301069 c -0.114154,3.1e-5 -0.206674,0.09259 -0.206662,0.206742 3.1e-5,0.114124 0.09254,0.206632 0.206662,0.206662 0.114156,1.3e-5 0.206711,-0.09251 0.206743,-0.206662 1.3e-5,-0.114186 -0.09256,-0.206754 -0.206743,-0.206742 z"
     id="path927"
     inkscape:connector-curvature="0"
     sodipodi:nodetypes="cccscccssssscccsssccccccccccccccccccscccccccccccccccc" />
</svg>
