<?xml version="1.0" encoding="UTF-8" standalone="no"?>
<svg
   height="48"
   width="48"
   version="1.1"
   id="svg6"
   sodipodi:docname="youtube.svg"
   inkscape:version="1.1.2 (0a00cf5339, 2022-02-04)"
   xmlns:inkscape="http://www.inkscape.org/namespaces/inkscape"
   xmlns:sodipodi="http://sodipodi.sourceforge.net/DTD/sodipodi-0.dtd"
   xmlns="http://www.w3.org/2000/svg"
   xmlns:svg="http://www.w3.org/2000/svg">
  <defs
     id="defs10" />
  <sodipodi:namedview
     id="namedview8"
     pagecolor="#ffffff"
     bordercolor="#666666"
     borderopacity="1.0"
     inkscape:pageshadow="2"
     inkscape:pageopacity="0.0"
     inkscape:pagecheckerboard="0"
     showgrid="false"
     inkscape:zoom="4.640625"
     inkscape:cx="112.05387"
     inkscape:cy="3.8787879"
     inkscape:window-width="1920"
     inkscape:window-height="1031"
     inkscape:window-x="0"
     inkscape:window-y="0"
     inkscape:window-maximized="1"
     inkscape:current-layer="svg6" />
  <path
     id="path2"
     style="fill:#bf616a;fill-opacity:1;stroke-width:1.15035"
     d="M 23.804688 1.3046875 A 22.696228 22.696232 0 0 0 1.1074219 24 A 22.696228 22.696232 0 0 0 23.804688 46.695312 A 22.696228 22.696232 0 0 0 46.5 24 A 22.696228 22.696232 0 0 0 23.804688 1.3046875 z " />
  <path
     d="m23.806306 13.884314c-5.177395 0-9.990055.176852-11.054913.40641-.713418.153794-1.278997.446465-1.793566.925711-.409423.381319-.633971.726301-.880555 1.353289-.2707599.688482-.4147898 1.33877-.5136576 2.31569-.188538 1.863458-.2228616 2.783471-.2060272 5.590958.014291 2.387313.024652 2.664528.1622818 4.196746.1219591 1.357742.2550213 1.999814.581392 2.80818.356969.88418.851457 1.431381 1.646807 1.824611.481558.238092.908615.350056 1.778044.464267 1.185575.155736 3.124245.236596 7.901003.327386 3.843973.07307 10.516709-.08444 12.701721-.299163.70513-.0693 1.142561-.176939 1.60165-.393709.453379-.214074.995377-.639445 1.27003-.99627.400319-.520095.756215-1.434641.937001-2.411647.07032-.380017.175004-1.442014.261062-2.634609.07354-1.019449.07355-5.714034 0-6.733986-.154891-2.147782-.259415-2.874266-.532002-3.694378-.264546-.795929-.487045-1.187347-.918655-1.618585-.551461-.550985-1.116605-.858476-1.886703-1.024491-1.064858-.229558-5.877518-.40641-11.054913-.40641zm-2.871681 5.780051c.03496-.0249 7.203898 4.301767 7.203898 4.34774 0 .04913.08855-.0044-4.007653 2.442693-1.70866 1.02075-3.125274 1.863002-3.146855 1.87259-.02157.0096-.04631.01006-.05504 0-.02324-.02719-.01797-8.646195.0056-8.663023z"
     fill="#ffffff"
     stroke-width=".722506"
     id="path4" />
</svg>
