<?xml version="1.0" encoding="UTF-8" standalone="no"?>
<svg
   height="48"
   width="48"
   version="1.1"
   id="svg20"
   sodipodi:docname="yubikey-piv-manager.svg"
   inkscape:version="1.1.2 (0a00cf5339, 2022-02-04)"
   xmlns:inkscape="http://www.inkscape.org/namespaces/inkscape"
   xmlns:sodipodi="http://sodipodi.sourceforge.net/DTD/sodipodi-0.dtd"
   xmlns="http://www.w3.org/2000/svg"
   xmlns:svg="http://www.w3.org/2000/svg"
   xmlns:rdf="http://www.w3.org/1999/02/22-rdf-syntax-ns#"
   xmlns:cc="http://creativecommons.org/ns#"
   xmlns:dc="http://purl.org/dc/elements/1.1/">
  <metadata
     id="metadata26">
    <rdf:RDF>
      <cc:Work
         rdf:about="">
        <dc:format>image/svg+xml</dc:format>
        <dc:type
           rdf:resource="http://purl.org/dc/dcmitype/StillImage" />
        <dc:title />
      </cc:Work>
    </rdf:RDF>
  </metadata>
  <defs
     id="defs24" />
  <sodipodi:namedview
     pagecolor="#ffffff"
     bordercolor="#666666"
     borderopacity="1"
     objecttolerance="10"
     gridtolerance="10"
     guidetolerance="10"
     inkscape:pageopacity="0"
     inkscape:pageshadow="2"
     inkscape:window-width="1920"
     inkscape:window-height="1031"
     id="namedview22"
     showgrid="false"
     inkscape:zoom="4.6354166"
     inkscape:cx="42.067416"
     inkscape:cy="53.285394"
     inkscape:window-x="0"
     inkscape:window-y="0"
     inkscape:window-maximized="1"
     inkscape:current-layer="svg20"
     inkscape:document-rotation="0"
     inkscape:pagecheckerboard="0" />
  <path
     id="path2"
     style="fill:#a3be8c;fill-opacity:1;stroke-width:1.15035"
     d="M 23.804688 1.3046875 A 22.696228 22.696232 0 0 0 1.1074219 24 A 22.696228 22.696232 0 0 0 23.804688 46.695312 A 22.696228 22.696232 0 0 0 46.5 24 A 22.696228 22.696232 0 0 0 23.804688 1.3046875 z " />
  <path
     style="isolation:isolate;fill:#ffffff;fill-opacity:1;stroke-width:0.157618"
     inkscape:connector-curvature="0"
     d="m 23.481587,35.430724 -4.376424,0.0067 2.518716,-6.51973 -6.24874,-16.329338 4.311487,-0.0067 3.645265,9.557868 v 0 q 0.292825,0.712777 0.488545,1.522786 v 0 0 q 0.06439,-0.259365 0.483959,-1.52426 v 0 l 3.616521,-9.568773 4.311486,-0.0067 z"
     id="path1040-7-1" />
  <path
     id="path1654"
     style="fill:#a3be8c;fill-opacity:0.99215686;stroke-width:1.16969"
     d="M 43.370972,32.290138 A 11.012547,11.012547 0 0 1 32.358425,43.302685 11.012547,11.012547 0 0 1 21.345879,32.290138 11.012547,11.012547 0 0 1 32.358425,21.277592 11.012547,11.012547 0 0 1 43.370972,32.290138 Z" />
  <circle
     style="fill:#ffffff;fill-opacity:1;stroke-width:0.960757"
     id="circle1656"
     cx="32.358425"
     cy="32.290138"
     r="9.0455179" />
  <path
     style="isolation:isolate;fill:#a3be8c;fill-opacity:1;fill-rule:evenodd;stroke-width:0.193692"
     inkscape:connector-curvature="0"
     d="M 30.618585,39.559046 H 28.294271 V 26.000561 h 5.636459 v 0 q 2.343682,0 3.447728,1.220261 v 0 0 q 1.104051,1.220261 1.104051,2.982855 v 0 0 q 0,1.665761 -1.152472,2.944142 v 0 0 q -1.152471,1.278365 -3.399307,1.278365 v 0 h -3.312145 z m 0,-7.340957 h 3.428361 v 0 q 1.026571,0 1.530171,-0.600435 v 0 0 q 0.503601,-0.600452 0.503601,-1.413977 v 0 0 q 0,-0.774761 -0.474546,-1.384891 v 0 0 q -0.474548,-0.610131 -1.559226,-0.610131 v 0 h -3.428361 z"
     id="path1326-1-5" />
</svg>
