<?xml version="1.0" encoding="UTF-8" standalone="no"?>
<svg
   height="48"
   width="48"
   version="1.1"
   id="svg20"
   sodipodi:docname="yubikey-personalization-gui.svg"
   inkscape:version="1.1.2 (0a00cf5339, 2022-02-04)"
   xmlns:inkscape="http://www.inkscape.org/namespaces/inkscape"
   xmlns:sodipodi="http://sodipodi.sourceforge.net/DTD/sodipodi-0.dtd"
   xmlns="http://www.w3.org/2000/svg"
   xmlns:svg="http://www.w3.org/2000/svg"
   xmlns:rdf="http://www.w3.org/1999/02/22-rdf-syntax-ns#"
   xmlns:cc="http://creativecommons.org/ns#"
   xmlns:dc="http://purl.org/dc/elements/1.1/">
  <metadata
     id="metadata26">
    <rdf:RDF>
      <cc:Work
         rdf:about="">
        <dc:format>image/svg+xml</dc:format>
        <dc:type
           rdf:resource="http://purl.org/dc/dcmitype/StillImage" />
        <dc:title />
      </cc:Work>
    </rdf:RDF>
  </metadata>
  <defs
     id="defs24" />
  <sodipodi:namedview
     pagecolor="#ffffff"
     bordercolor="#666666"
     borderopacity="1"
     objecttolerance="10"
     gridtolerance="10"
     guidetolerance="10"
     inkscape:pageopacity="0"
     inkscape:pageshadow="2"
     inkscape:window-width="1920"
     inkscape:window-height="1031"
     id="namedview22"
     showgrid="false"
     inkscape:zoom="6.555469"
     inkscape:cx="-1.983077"
     inkscape:cy="33.71231"
     inkscape:window-x="0"
     inkscape:window-y="0"
     inkscape:window-maximized="1"
     inkscape:current-layer="svg20"
     inkscape:document-rotation="0"
     inkscape:pagecheckerboard="0" />
  <path
     id="path2"
     style="fill:#a3be8c;fill-opacity:1;stroke-width:1.15035"
     d="M 23.804688 1.3046875 A 22.696228 22.696232 0 0 0 1.1074219 24 A 22.696228 22.696232 0 0 0 23.804688 46.695312 A 22.696228 22.696232 0 0 0 46.5 24 A 22.696228 22.696232 0 0 0 23.804688 1.3046875 z " />
  <path
     style="isolation:isolate;fill:#ffffff;fill-opacity:1;stroke-width:0.157618"
     inkscape:connector-curvature="0"
     d="m 23.481587,35.430724 -4.376424,0.0067 2.518716,-6.51973 -6.24874,-16.329338 4.311487,-0.0067 3.645265,9.557868 v 0 q 0.292825,0.712777 0.488545,1.522786 v 0 0 q 0.06439,-0.259365 0.483959,-1.52426 v 0 l 3.616521,-9.568773 4.311486,-0.0067 z"
     id="path1040-7-1" />
  <path
     id="path1654"
     style="fill:#a3be8c;fill-opacity:1;stroke-width:1.16969"
     d="M 43.370972,32.290138 A 11.012547,11.012547 0 0 1 32.358425,43.302685 11.012547,11.012547 0 0 1 21.345879,32.290138 11.012547,11.012547 0 0 1 32.358425,21.277592 11.012547,11.012547 0 0 1 43.370972,32.290138 Z" />
  <circle
     style="fill:#ffffff;fill-opacity:1;stroke-width:0.960757"
     id="circle1656"
     cx="32.358425"
     cy="32.290138"
     r="9.0455179" />
  <path
     id="rect1658"
     style="fill:#a3be8c;fill-opacity:0.99215686;stroke-width:1.021"
     d="m 30.988467,24.620304 -0.112624,1.618963 a 6.2305331,6.2305331 0 0 0 -1.749184,0.723254 l -1.22126,-1.064644 -0.969618,0.969618 -0.969618,0.969617 1.064645,1.223022 a 6.2305331,6.2305331 0 0 0 -0.723254,1.747422 l -1.618963,0.112624 v 1.370838 1.370839 l 1.618963,0.112623 a 6.2305331,6.2305331 0 0 0 0.723254,1.747425 l -1.064645,1.223021 0.969618,0.969616 0.969618,0.969618 1.22302,-1.064643 a 6.2305331,6.2305331 0 0 0 1.747424,0.721494 l 0.112624,1.618962 h 1.370838 1.370839 l 0.112624,-1.618962 a 6.2305331,6.2305331 0 0 0 1.745664,-0.723254 l 1.224779,1.066403 0.969618,-0.969618 0.969618,-0.969616 -1.066403,-1.224781 A 6.2305331,6.2305331 0 0 0 38.409297,33.77448 L 40.02826,33.661857 V 32.291018 30.92018 l -1.618963,-0.112624 a 6.2305331,6.2305331 0 0 0 -0.721493,-1.747422 l 1.064643,-1.223022 -0.969618,-0.969617 -0.969618,-0.969618 -1.22302,1.064644 a 6.2305331,6.2305331 0 0 0 -1.747423,-0.723254 l -0.112624,-1.618963 h -1.370839 z m 1.369079,3.348789 a 4.3203399,4.3203399 0 0 1 4.321925,4.320166 4.3203399,4.3203399 0 0 1 -4.321925,4.321926 4.3203399,4.3203399 0 0 1 -4.320167,-4.321926 4.3203399,4.3203399 0 0 1 4.320167,-4.320166 z m 0,1.205424 a 3.1147551,3.1147551 0 0 0 -3.114743,3.114742 3.1147551,3.1147551 0 0 0 3.114743,3.116502 3.1147551,3.1147551 0 0 0 3.116503,-3.116502 3.1147551,3.1147551 0 0 0 -3.116503,-3.114742 z" />
</svg>
