<?xml version="1.0" encoding="UTF-8" standalone="no"?>
<svg
   height="48"
   width="48"
   version="1.1"
   id="svg6"
   sodipodi:docname="yuzu.svg"
   inkscape:version="1.1.2 (0a00cf5339, 2022-02-04)"
   xmlns:inkscape="http://www.inkscape.org/namespaces/inkscape"
   xmlns:sodipodi="http://sodipodi.sourceforge.net/DTD/sodipodi-0.dtd"
   xmlns="http://www.w3.org/2000/svg"
   xmlns:svg="http://www.w3.org/2000/svg"
   xmlns:rdf="http://www.w3.org/1999/02/22-rdf-syntax-ns#"
   xmlns:cc="http://creativecommons.org/ns#"
   xmlns:dc="http://purl.org/dc/elements/1.1/">
  <metadata
     id="metadata12">
    <rdf:RDF>
      <cc:Work
         rdf:about="">
        <dc:format>image/svg+xml</dc:format>
        <dc:type
           rdf:resource="http://purl.org/dc/dcmitype/StillImage" />
        <dc:title />
      </cc:Work>
    </rdf:RDF>
  </metadata>
  <defs
     id="defs10" />
  <sodipodi:namedview
     pagecolor="#ffffff"
     bordercolor="#666666"
     borderopacity="1"
     objecttolerance="10"
     gridtolerance="10"
     guidetolerance="10"
     inkscape:pageopacity="0"
     inkscape:pageshadow="2"
     inkscape:window-width="1920"
     inkscape:window-height="1031"
     id="namedview8"
     showgrid="false"
     inkscape:zoom="15.999999"
     inkscape:cx="2.7187502"
     inkscape:cy="24.843752"
     inkscape:window-x="0"
     inkscape:window-y="0"
     inkscape:window-maximized="1"
     inkscape:current-layer="svg6"
     inkscape:document-rotation="0"
     inkscape:pagecheckerboard="0" />
  <path
     id="circle2"
     style="opacity:0.99;fill:#a9b7c0;fill-opacity:1"
     transform="matrix(1.75830584759 0 0 1.75830608345 -18.15909274367 -30.97874795549)"
     d="M 37.173613,31.534513 A 13.232998,13.232998 0 0 1 23.940615,44.767511 13.232998,13.232998 0 0 1 10.707617,31.534513 13.232998,13.232998 0 0 1 23.940615,18.301516 13.232998,13.232998 0 0 1 37.173613,31.534513 Z" />
  <path
     id="circle856"
     style="opacity:0.99;fill:#ffffff;stroke-width:1.54048;fill-opacity:1"
     d="M 44.320925,24.468578 A 20.385096,20.385099 0 0 1 23.935829,44.853678 20.385096,20.385099 0 0 1 3.5507336,24.468578 20.385096,20.385099 0 0 1 23.935829,4.0834789 20.385096,20.385099 0 0 1 44.320925,24.468578 Z" />
  <g
     id="g853"
     transform="matrix(0.09276258,0,0,0.09276258,21.541684,22.56638)">
    <path
       id="path8"
       style="fill:#d08880;fill-opacity:1;stroke-width:0.0927626"
       d="M 25.425781 15.523438 L 25.425781 39.376953 L 28.408203 39.376953 A 11.926485 11.926485 0 0 0 40.333984 27.449219 A 11.926485 11.926485 0 0 0 28.408203 15.523438 L 25.425781 15.523438 z M 28.408203 18.505859 A 8.9450028 8.9450028 0 0 1 37.353516 27.451172 A 8.9450028 8.9450028 0 0 1 28.408203 36.396484 L 28.408203 18.505859 z "
       transform="matrix(10.780209,0,0,10.780209,-232.22386,-243.27029)" />
    <path
       id="path12"
       style="fill:#6fa4c1;fill-opacity:1;stroke-width:0.0927626"
       d="M 19.462891 9.5605469 A 11.926485 11.926485 0 0 0 7.5371094 21.486328 A 11.926485 11.926485 0 0 0 19.462891 33.414062 L 22.445312 33.414062 L 22.445312 9.5605469 L 19.462891 9.5605469 z M 19.462891 12.542969 L 19.462891 30.431641 A 8.9450028 8.9450028 0 0 1 10.519531 21.488281 A 8.9450028 8.9450028 0 0 1 19.462891 12.542969 z "
       transform="matrix(10.780209,0,0,10.780209,-232.22386,-243.27029)" />
  </g>
</svg>
