<?xml version="1.0" encoding="UTF-8" standalone="no"?>
<svg
   height="48"
   width="48"
   version="1.1"
   id="svg10"
   sodipodi:docname="zsnes.svg"
   inkscape:version="1.1.2 (0a00cf5339, 2022-02-04)"
   xmlns:inkscape="http://www.inkscape.org/namespaces/inkscape"
   xmlns:sodipodi="http://sodipodi.sourceforge.net/DTD/sodipodi-0.dtd"
   xmlns="http://www.w3.org/2000/svg"
   xmlns:svg="http://www.w3.org/2000/svg">
  <defs
     id="defs14" />
  <sodipodi:namedview
     id="namedview12"
     pagecolor="#ffffff"
     bordercolor="#666666"
     borderopacity="1.0"
     inkscape:pageshadow="2"
     inkscape:pageopacity="0.0"
     inkscape:pagecheckerboard="0"
     showgrid="false"
     inkscape:zoom="2.2526041"
     inkscape:cx="65.701735"
     inkscape:cy="95.889019"
     inkscape:window-width="1920"
     inkscape:window-height="1031"
     inkscape:window-x="0"
     inkscape:window-y="0"
     inkscape:window-maximized="1"
     inkscape:current-layer="svg10" />
  <path
     id="path2"
     style="fill:#b48ead;fill-opacity:1;stroke-width:1.15035"
     d="M 23.804688 1.3046875 A 22.696228 22.696232 0 0 0 1.1074219 24 A 22.696228 22.696232 0 0 0 23.804688 46.695312 A 22.696228 22.696232 0 0 0 46.5 24 A 22.696228 22.696232 0 0 0 23.804688 1.3046875 z " />
  <g
     fill="#ffffff"
     id="g8">
    <path
       d="m24.187499 12c-5.817195 0-9.395989 1.983576-11.61035 4.427491a4.2187499 4.2187499 0 0 1 1.138183-.160401 4.2187499 4.2187499 0 0 1 4.218749 4.21875 4.2187499 4.2187499 0 0 1 -4.218749 4.21875 4.2187499 4.2187499 0 0 1 -4.0451661-3.034424c-.6556568 2.157083-.6701659 3.829834-.6701659 3.829834 9.385132 1.93156 19.273139 2.550272 30.374999 0 0 0-.0075-1.843003-.77124-4.163818a4.2187499 4.2187499 0 0 1 -4.104491 3.269531 4.2187499 4.2187499 0 0 1 -4.21875-4.218751 4.2187499 4.2187499 0 0 1 4.21875-4.21875 4.2187499 4.2187499 0 0 1 1.23706.188965c-2.219279-2.411798-5.786969-4.357177-11.548829-4.357177zm.118653 1.384277a4.4673422 4.4673422 0 0 1 4.467041 4.467041 4.4673422 4.4673422 0 0 1 -4.467041 4.467042 4.4673422 4.4673422 0 0 1 -4.46704-4.467042 4.4673422 4.4673422 0 0 1 4.46704-4.467041z"
       fill-rule="evenodd"
       id="path4" />
    <path
       d="m12.374999 25.5v6.75c0 1.869749 1.505251 3.374999 3.375001 3.374999h16.874999c1.869751 0 3.375001-1.50525 3.375001-3.374999v-6.75zm5.053712 3.374999a1.6874999 1.6874999 0 0 1 1.6875 1.687501 1.6874999 1.6874999 0 0 1 -1.6875 1.6875 1.6874999 1.6874999 0 0 1 -1.6875-1.6875 1.6874999 1.6874999 0 0 1 1.6875-1.687501zm13.546142 0a1.6874999 1.6874999 0 0 1 1.6875 1.687501 1.6874999 1.6874999 0 0 1 -1.6875 1.6875 1.6874999 1.6874999 0 0 1 -1.6875-1.6875 1.6874999 1.6874999 0 0 1 1.6875-1.687501z"
       fill-opacity=".379562"
       id="path6" />
  </g>
</svg>
